<svg xmlns="http://www.w3.org/2000/svg" viewBox="0 0 342 64">
  <path fill="#005eae" d="M0 0h63.56l.13 63.14a.42.41 0 0 1-.42.41l-62.62.23a.49.4 77.6 0 1-.4-.32q-.08-.23-.25-.27V0Zm55.49 8.52a.27.27 0 0 0-.27-.27H8.52a.27.27 0 0 0-.27.27v46.5a.27.27 0 0 0 .27.27h46.7a.27.27 0 0 0 .27-.27V8.52ZM179.28 40.01c1.65 10.19 18.52 8.62 16.77.07-1.81-8.87-24.79-2.16-24.92-19.12C171 2.97 201.95 2.6 205.1 19.22a.52.46 81.7 0 1-.4.6l-8.84.89a.62.54 80.3 0 1-.6-.49c-1.64-7.36-14.74-6.71-14.74.07-.01 9.5 26.14 2.23 25.42 20.75-.28 7.09-4.3 11.71-11.2 13.2-10.73 2.33-23.41-.27-24.91-13.21a.53.5 84 0 1 .45-.58l8.43-.91a.55.52 82.6 0 1 .57.47ZM130.44 50.31c-7.93-5.72-9.17-18.52-6.76-27.13 5.62-20.05 35.11-20.61 41.04-.19 3.47 11.98-.1 25.98-12.9 30.69q-11.07 4.07-21.38-3.37Zm3.79-9.45c2.82 6.05 10.41 7.78 15.46 4.77 6.8-4.05 7.77-14.05 5.6-21.14-3.12-10.18-17.15-11.78-21.5-1.98q-3.96 8.91.44 18.35ZM261.88 11.03c7.69-4.78 19.75-3.95 26.58 2.78 6.33 6.23 7.77 17.08 5.47 25.39-3.54 12.75-15.53 18.27-27.71 14.76-17.77-5.13-19.95-33.23-4.34-42.93Zm12.36 35.96c15.95-1.61 14.46-32.99-2.25-30.97-16.11 1.95-14.19 32.62 2.25 30.97ZM90.64 43.77l-2.96 9.6a.74.62-80 0 1-.62.52l-9.75-.04a.38.34-78.3 0 1-.3-.52L93.42 9.55a.77.7-78.4 0 1 .67-.49l10.76.06a.77.71 78.6 0 1 .68.49l16.48 43.5a.59.57 79.3 0 1-.52.8h-9.63a.65.59 83.4 0 1-.59-.51q-1.1-5.13-3.12-9.85a.81.74 76.2 0 0-.71-.48l-16.13.21a.71.7-80.9 0 0-.67.49Zm2.89-9.14a.3.3 9.8 0 0 .29.4l11.56-.06a.3.3-9.3 0 0 .28-.4L99.8 18.02a.3.3-51.9 0 0-.57 0l-5.7 16.61Z"/>
  <path fill="#005eae" d="M239.65 30.53q-.09.6.87.52.56-.05.96.11c6.04 2.48 7.74 9.57 5.69 15.01-2.11 5.59-7.77 7.82-13.42 7.85q-11.22.06-22.45-.06a.5.49-88.8 0 1-.48-.51q.49-21.9-.06-43.77a.5.5 88.3 0 1 .49-.52q14.02-.45 23.29 0 9.78.47 11.41 8.85c.98 5.03-.88 9.77-5.68 11.86a1.06.66-14.8 0 0-.62.66Zm-5.26-13.07q-1.19-.67-2.37-.66l-11.13.04a.54.52 0 0 0-.54.52v8.7a.53.49-.6 0 0 .54.49c3.39-.03 11.21.74 13.94-1 3.13-2.01 2.86-6.26-.44-8.09Zm1.58 17.67q-1.79-1.09-3.73-1.09H220.8a.51.51 0 0 0-.51.51l.05 11.09a.54.53.6 0 0 .52.52c4.09.12 11.59.86 14.76-.9 3.38-1.87 4.3-7.72.35-10.13ZM339.76 53.28q.52.72-.33.7l-10.95-.13a1.01.87 71.7 0 1-.76-.46l-10.35-16.03a.33.33-44.7 0 0-.55 0l-10.48 16.08a1.01.81-69.7 0 1-.75.45l-11.03.01q-.55.01-.22-.45L311 30.63a.73.71-45.1 0 0 .01-.83L296.19 9.64q-.47-.64.3-.63l10.73.01a.95.86 71.8 0 1 .75.43l8.82 13.67a.35.35 45.8 0 0 .59.01l8.69-13.64a.98.8-70.4 0 1 .74-.45l10.66-.02q.77 0 .31.63l-14.6 20.16a.71.68-46 0 0 0 .82l16.58 22.65ZM11.9 14.65c3.54-.79 7.02-.31 10.55-.11a1.19 1.15-18 0 1 .82.4l28.67 33.58q.33.39-.17.45-5.35.65-10.54.11a1.28 1.24 71.8 0 1-.82-.43l-28.66-33.5a.31.3 62.9 0 1 .15-.5Z"/>
</svg>