<svg xmlns="http://www.w3.org/2000/svg" width="781.107" height="761.419" viewBox="0 0 781.107 761.419">
  <path id="blob_2_" data-name="blob (2)" d="M17.985-22.819C-20,16.445-31.825,84.2-48.667,155.41c-16.842,71.6-38.7,146.663-20.784,213.643,17.559,66.98,74.895,125.876,140.83,145.508,65.578,19.632,140.114,0,202.824-33.49,62.352-33.49,113.238-81.223,145.489-140.5,32.61-59.281,46.585-130.5,31.176-190.932C435.46,88.815,390.308,38.772,341.214,1.433,291.762-35.522,238.01-59.773,178.883-66.7,120.114-73.246,55.97-62.083,17.985-22.819Z" transform="translate(683.209 334.318) rotate(121)" fill="#D9EEE7"/>
</svg>
