<?xml version="1.0" encoding="UTF-8"?>
<svg id="a" data-name="Layer 1" xmlns="http://www.w3.org/2000/svg" xmlns:xlink="http://www.w3.org/1999/xlink" viewBox="0 0 244.27 307.04">
  <defs>
    <clipPath id="ao">
      <path d="m170.31,288.49c-1.84.71-2.03,2.33-4.11,2.26-1.91-.04-3.81-.25-5.67-.63-.13-.03-.23-.11-.29-.22-.18-.33-.51-.57-.9-.66-.99.4-2.01.75-3.06,1.04-1.8.65-3.53,1.43-5.19,2.33-.66.62-1.5,1.06-2.43,1.28h0c-.3.07-.47.34-.4.6,0,0,0,0,0,0l1.56,4.84c-.1.65-.02,1.31.22,1.93,1.95.01,3.89.02,5.83.02h.49c9.4,0,18.79-.15,28.15-.46.25,0,.45-.18.45-.4l-.08-10.03-1.81-.31c-2.33-.05-10.78-.3-12.36-1.54-.07-.05-.16-.08-.25-.08-.05,0-.11.01-.15.03" style="fill: none;"/>
    </clipPath>
    <linearGradient id="aq" x1="-399.29" y1="-180.54" x2="-399.27" y2="-180.54" gradientTransform="translate(15411.07 -2447.37) scale(38.53 -15.19)" gradientUnits="userSpaceOnUse">
      <stop offset="0" stop-color="#db5f45"/>
      <stop offset=".41" stop-color="#d8424b"/>
      <stop offset="1" stop-color="#d8424b"/>
    </linearGradient>
  </defs>
  <path id="b" data-name="blob" d="m2.3,97.99c10.47-31,56.85-43.59,92.1-57.22,35.26-13.82,59.56-28.68,87.4-20.94,27.67,7.74,59.05,38.1,62.18,75.34,3.3,37.24-21.67,81.55-59.98,104.62-38.14,23.25-89.63,25.63-128.18,2.02C17.45,178.2-8,128.98,2.3,97.99Z" style="fill: #d9eee7;"/>
  <g id="c" data-name="step">
    <g id="d" data-name="Mask Group 4">
      <g id="e" data-name="consultation">
        <g id="f" data-name="Group 1766">
          <g id="g" data-name="Group 1765">
            <path id="h" data-name="Path 1232" d="m95.92,105.69c.08-.5.02-1.01-.18-1.47-1.05-3.16-2.73-9.27-5.04-18.34-3.46-13.59-5.32-27.53-5.53-41.55l-22.7-2.31c6.06,8.9,10.79,18.64,14.03,28.92.49,1.71,1.12,3.37,1.88,4.98,1.16,3.44,1.92,7,2.26,10.61.67,5.67.96,11.38.88,17.09l-.12,3.77c-2.26-.2-4.38,1.1-5.21,3.21-.48.15-.68.5-.81,1.28-.23,1.42-.43,2.85-.63,4.27h23.72l-1.79-9.68c-.21.21-.42.44-.64.65.01-.48-.02-.95-.11-1.42" style="fill: #fff;"/>
            <path id="i" data-name="Path 1233" d="m166.5,27.44c1.74,0,3.46.28,5.11.83,1.81.92,3.49,2.07,5,3.42,5.82,6.22,10.1,15.05,13.41,22.84,1.91,4.32,5.18,11.58-.51,13.61-3.58,1.17-7.37,1.59-11.12,1.23l-2.18-1.54c-1.05-2.53-1.66-5.22-1.78-7.96-.11-2.95-.23-4.51-.32-6.82,0-.14.09-.27.23-.3,2.91-.65,4.29-2.18,4.14-4.6-.19-3.27-4.33-3.31-4.11-.68.03.38.06,1.88-.76.62-1.33-2.1-3.36-3.67-5.74-4.41-4.17-1.36-8.16-3.25-11.85-5.61-.09-.05-.2-.03-.25.06,0,0,0,.02-.01.02-1.31,2.91-1.9,6.1-1.71,9.29.01.07-.01.14-.07.19l-.1.06c-.51-2.08-.87-4.2-1.07-6.33-.24-3.38,1.45-6.02,3.16-8.74.75-.98,1.64-1.84,2.64-2.56,2.39-1.47,5.1-2.37,7.89-2.61" style="fill: #1c162e;"/>
            <path id="j" data-name="Path 1234" d="m176.21,67.83l-12.8,13.34-.37-.2c-.12-.06-.19-.17-.21-.3-.05-.44-.7-4.78-1.69-4.32.5-2.53,1.39-4.97,2.63-7.23l.48-6.81c.05-.76-.3-1.06-1.06-.88-.76.2-1.56.25-2.34.13-2.33-.43-4.64-4.94-5.35-6.95-.58-2.12-1.91-3.94-1.65-6.09l.03-.84.1-.06c.05-.05.08-.12.07-.19-.19-3.19.4-6.38,1.71-9.29.04-.09.15-.14.24-.1,0,0,0,0,0,0h.02c3.7,2.38,7.68,4.26,11.85,5.62,2.37.75,4.41,2.31,5.74,4.41.82,1.27.79-.23.76-.62-.23-2.63,3.91-2.59,4.11.68.15,2.42-1.23,3.95-4.14,4.6-.14.03-.24.15-.23.3.1,2.31.21,3.87.32,6.82.13,2.74.73,5.43,1.78,7.96" style="fill: #fdb597;"/>
            <path id="k" data-name="Path 1235" d="m155.49,54.61c.71,2.02,3.02,6.52,5.35,6.95.78.11,1.58.07,2.34-.13.76-.17,1.12.12,1.06.88l-.48,6.81-6.51,1.66-.21-.84-1.55-15.32Z" style="fill: #1a142c;"/>
            <path id="l" data-name="Path 1236" d="m176.21,67.83l2.18,1.54,4.1,3.76c-2.51,2.77-4.85,5.69-7,8.75-.11.16-.34.2-.5.09-1.27-.89-2.66-1.59-4.13-2.09-.09-.03-.2.02-.22.12,0,.02,0,.05,0,.07l.44,5.64c.01.25-.16.46-.41.5-2.85.43-5.57.75-8.14.95-.61.15-1.22-.22-1.36-.83-.03-.12-.04-.24-.03-.37.9-1.53,1.66-3.14,2.29-4.8l12.8-13.34Z" style="fill: #fefefe;"/>
            <path id="m" data-name="Path 1237" d="m163.77,69.12c-1.24,2.26-2.13,4.7-2.63,7.23-.33,3.95-.97,7.87-1.92,11.73-.41,1.81-1.41.85-2.04.07-.76-.93-1.61-1.92-2.54-2.95-.26-.3-.28-.74-.03-1.05,1.11-1.42,2.06-2.96,2.83-4.59.33-.69.11-.93-.65-.72l-2.58.71c-.18.04-.37-.07-.41-.25,0,0,0,0,0-.01,0-.04-.01-.08-.01-.11l.27-7.44,3.08-.83c.06-.01.11-.06.12-.12l6.51-1.65Z" style="fill: #fff;"/>
            <path id="n" data-name="Path 1238" d="m157.04,69.93l.21.84c-.01.06-.06.11-.12.12-.55-.21-.58-.53-.09-.97" style="fill: #f6e1c8;"/>
            <path id="o" data-name="Path 1239" d="m154.05,71.73l-.27,7.44c-.01.19.13.37.32.39.04,0,.07,0,.11-.01l2.58-.71c.76-.21.98.03.65.72-.77,1.63-1.71,3.17-2.83,4.59-.25.31-.24.75.03,1.05.92,1.03,1.77,2.02,2.54,2.95.63.78,1.63,1.74,2.04-.07l.02.2c.01.16.07.18.16.05l1.72-2.36c-.06.62.4,1.17,1.03,1.23.12.01.25,0,.37-.03,2.58-.2,5.29-.52,8.14-.95.24-.03.42-.25.41-.5l-.44-5.64c-.01-.1.06-.19.15-.2.03,0,.05,0,.08,0,1.47.5,2.86,1.2,4.14,2.09.16.11.38.07.5-.09,2.15-3.06,4.49-5.98,7-8.75l1.22,1.11-7.71,10.58c-.08.11-.19.2-.32.24-.39.1-.81.04-1.16-.15-.45-.23-.65-.1-.61.4.07.78-.09,1.55-.46,2.24-.07.12-.17.22-.29.28l-10.31,5.1c-.42.1-.72.46-.75.89,0,.07-.04.14-.08.19-1.03,1.2-1.87,2.55-2.49,4-.04.13-.14.23-.27.27-.4.05-.85-2.44-1.08-2.93-.39-.85-1.02-1.03-1.55-1.81-.07-.11-.2-.17-.32-.15-.2.07-.27.23-.23.49-.38-2.6-2.1-4.7-3.27-6.96-.16-.3-.28-.29-.38.03-.14.45-3.44,11.94-4.38,9.97-.06-.13-.06-.27,0-.4,1.52-3.74,2.7-7.62,3.52-11.57.29-1.12.46-2.27.52-3.43.11-3.2.47-6.39,1.07-9.54l.92-.27Z" style="fill: #fdc668;"/>
            <path id="p" data-name="Path 1240" d="m153.13,72c-.6,3.15-.95,6.34-1.07,9.54-.05,1.16-.23,2.31-.52,3.43-.82,3.95-2,7.82-3.51,11.56-.06.13-.06.27,0,.4.94,1.96,4.24-9.52,4.38-9.97.1-.33.22-.34.38-.03,1.16,2.26,2.89,4.36,3.27,6.96.06,4.33,0,8.65-.19,12.97.1,1.28.29,2.55.56,3.81-1.74-3.5-3.52-6.96-5.35-10.39-1.59-2.99-5.3-3.04-8.19-3.98-.11-.08-.13-.24-.04-.34.01-.02.03-.03.04-.04.41-.21.69-.61.74-1.07.17-4.63.25-8.98,2.16-12.72,1.28-2.51,4.49-8.55,7.35-10.1" style="fill: #fefefe;"/>
            <path id="q" data-name="Path 1241" d="m183.71,74.24c1.28,1.09,2.67,2.06,4.13,2.89-4.32,2.2-4.86,6.61-4.39,11.05.57,5.41,1.28,10.79,2.14,16.16.23,1.66.56,3.31.99,4.93l-.62-.05c-.12-.02-.24.05-.3.16l-2,4.64-1.53,4.12-1.56,3.57-.77,1.48h-.18c-3.74-1.27-7.5-2.43-11.29-3.51-.52-.18-1.09-.06-1.49.32-1.87.06-3.71-.43-5.3-1.42.44-5.79.72-11.58.84-17.37.06-2.67.35-5.5.47-8.3l10.31-5.1c.12-.06.22-.16.29-.28.37-.69.53-1.47.46-2.24-.04-.5.16-.64.61-.4.35.2.77.25,1.16.15.13-.04.24-.12.32-.24l7.72-10.58Z" style="fill: #fff;"/>
            <path id="r" data-name="Path 1242" d="m163.41,81.16c-.63,1.66-1.39,3.27-2.29,4.8l-1.72,2.36c-.1.13-.15.11-.16-.06l-.02-.2c.94-3.85,1.58-7.77,1.92-11.73.99-.46,1.64,3.87,1.69,4.32.02.13.1.24.21.3l.37.2Z" style="fill: #fdc668;"/>
            <path id="s" data-name="Path 1243" d="m187.37,114.11c-.05-.13-.05-.27-.02-.4l-.32-2.58c-.13-.63-.28-1.25-.46-1.86-.43-1.62-.76-3.27-.99-4.93-.85-5.37-1.56-10.75-2.14-16.16-.47-4.44.07-8.86,4.39-11.05.27-.04.54.07.72.27-5.43,1-4.5,8.71-4.02,12.45,1.22,9.62,2.49,19.23,3.8,28.84.03.13-.05.26-.17.29,0,0,0,0-.01,0-.16-.25-.25-.54-.24-.84,0-.13-.06-.25-.16-.33l-.38-3.7Z" style="fill: #f87028;"/>
            <path id="t" data-name="Path 1244" d="m196.8,80.69c.59,1.07,1.05,2.2,1.37,3.38,1.39,11.81,2.51,23.66,4.11,35.44.28,3.09.44,6.18.51,9.28.08,3.83-1.41,7.54-5.69,8.11-2.68.1-5.36-.2-7.95-.89-2.1-.48-4.16-1.08-6.19-1.81-6.19-1.81-12.26-4.04-18.14-6.68.3-2.53,1.06-4.99,2.23-7.26.48-.38,10.55,2.65,12.55,2.95h.18l3.72.84h.07c.16.12.35.16.55.12.84.14,1.7.12,2.53-.03,2.71-.66,1.93-4.98,1.49-4.94-.02-.07-.02-.14,0-.21.13-.03.21-.15.19-.28,0,0,0,0,0,0-1.32-9.61-2.58-19.22-3.81-28.84-.48-3.74-1.41-11.45,4.02-12.45,3.62-.86,6.37.24,8.24,3.29" style="fill: #fff;"/>
            <path id="u" data-name="Path 1245" d="m134.37,94.12l1.89.33c-.3.87,0,1.83.72,2.39,2.08,1.68,3.96,1.71,5.65.08,1.37.18,2.73.47,4.06.87,2.02.55,3.02,1.02,4.08,2.96,2.56,4.66,4.94,9.41,7.16,14.25l-2.51-.99c-.12-.04-.26-.04-.38,0l-.68.19c-.79.22-.91.5-.37.84l1.56.97c.3.19.3.29-.03.29h-1.97c-.41.01-.77.28-.89.67-.17.62.45.73.88.92,1.07.47,2.09,1.05,3.03,1.73.4.28.36.37-.12.24-.82-.21-4.05-1.34-3.83.28.02.13.11.25.23.31.83.42,1.61.91,2.35,1.48,1.88,1.56,3.84,3.05,5.86,4.48-3.83-.55-7.61-1.37-11.32-2.45-2.36-.79-4.76-1.44-7.2-1.93-.42-.08-.78-.35-.97-.73l-3.66-7.26c-.18-1.11,1.72-2.5-.61-3.13-.21-.09-.31-.32-.24-.53l.38-1.62c.03-.16-.07-.32-.23-.35,0,0,0,0,0,0-.02,0-.03,0-.05,0l-2.1-.19c-.17,0-.3-.15-.3-.32,0-.03,0-.05.02-.08.26-.68.06-1.07-.59-1.17-.74-.12-1.46-.33-2.14-.62-2.02-3.63-3.83-7.38-5.43-11.21-1.57-3.75,5.48-1.23,7.74-.7" style="fill: #fb8c9c;"/>
            <path id="v" data-name="Path 1246" d="m162.84,92.93c-.12,2.8-.42,5.62-.47,8.3-.12,5.79-.4,11.58-.84,17.37-1.09-.32-2.01-1.07-2.54-2.08l-2.56-5.86c-.28-1.25-.47-2.52-.56-3.81.19-4.32.25-8.65.19-12.97-.04-.26.04-.43.23-.49.13-.03.26.03.32.15.54.78,1.16.95,1.55,1.81.23.49.68,2.98,1.08,2.93.13-.03.24-.13.28-.27.62-1.45,1.46-2.8,2.49-4,.04-.06.07-.12.08-.19.03-.43.33-.79.75-.89" style="fill: #fdc668;"/>
            <path id="w" data-name="Path 1247" d="m142.89,95.9c-.11.08-.13.24-.04.34.01.02.03.03.04.04-.29-.05-.37.15-.26.62-1.68,1.63-3.56,1.6-5.65-.08-.72-.56-1.01-1.52-.72-2.39,2.28.05,4.53.54,6.62,1.45" style="fill: #f16e4b;"/>
            <path id="x" data-name="Path 1248" d="m142.89,96.28c2.89.94,6.6.99,8.19,3.98,1.83,3.43,3.61,6.89,5.35,10.39l2.56,5.86c-.62-.26-1.04-.85-1.06-1.53-2.22-4.84-4.6-9.59-7.16-14.25-1.06-1.94-2.06-2.41-4.08-2.96-1.33-.4-2.68-.69-4.06-.87-.11-.47-.03-.68.26-.62" style="fill: #070409;"/>
            <path id="y" data-name="Path 1249" d="m132.05,106.04c.69.29,1.41.5,2.14.62.66.1.86.5.59,1.17-.05.16.03.33.19.38,0,0,0,0,.01,0,.03,0,.06.02.08.02l2.1.19c.17.01.29.15.29.32,0,.01,0,.03,0,.04l-.38,1.62c-.08.21.03.45.24.53,2.33.64.43,2.02.61,3.13-.31.15-.44.31-.39.49-.8,1.03-1.89,1.8-3.13,2.2-.44.18-.95.05-1.26-.32-1.39-1.49-2.27-4.98-2.71-6.95l-.55-2.41c-.03-.13,0-.27.1-.37.54-.56,1.32-.81,2.08-.68" style="fill: #fdb597;"/>
            <path id="z" data-name="Path 1250" d="m130.43,109.49c.43,1.97,1.32,5.46,2.71,6.95.31.37.82.49,1.26.32,1.24-.4,2.33-1.17,3.13-2.2.44-.04,3.48,6.33,3.92,7.15.16.32.46.56.81.65l7.49,1.64c3.71,1.08,7.49,1.9,11.32,2.45,1.27-.03,2.52.36,3.55,1.1-.28.62-.08,1.11.61,1.49,5.53,2.9,11.54,4.74,17.75,5.44.6.34.6.67,0,.98l-4.85.11-28.9-1.05-10.63-.41c-.14,0-.27.05-.37.14-1.24,1.13-2.8,1.85-4.46,2.05-7.56-2.39-5.26-15.25-4.75-20.89.15-1.67.37-3.33.66-4.98.11-.4.39-.74.76-.93m9.97,11.59l-2.71-5.38c-.06-.12-.18-.18-.31-.17-.42.06-.62.37-.61.91.1,3.11.25,5.53.45,7.27.24,1.32.27,2.68.08,4.01-.54,1.57-.69,3.25-.44,4.89.1.62.79,1.29.88.11.26-3.58,1.77-6.85,3.44-9.9.07-.12.1-.26.08-.4-.07-.41-.28-.77-.59-1.03-.11-.09-.2-.2-.27-.32m17.17,11.35c.19.22.4.41.65.57.11.07.25.06.35-.02.95-.78,5.1-5.37,2.05-6-1.47-.3-2.9-.54-4.31-.7-.42-.1-.84.16-.93.58,0,.02,0,.04-.01.06-.82,3.11.55,3.55,2.21,5.52" style="fill: #fff;"/>
            <path id="aa" data-name="Path 1251" d="m157.93,114.99c.02.67.44,1.27,1.06,1.53.54,1,1.45,1.75,2.54,2.07,1.59.99,3.43,1.48,5.3,1.42.16-.01.24.06.23.23-1.17,2.27-1.93,4.72-2.23,7.26l-.21.03c-1.03-.75-2.28-1.13-3.55-1.11-2.02-1.43-3.98-2.92-5.86-4.48-.73-.57-1.52-1.06-2.35-1.48-.12-.06-.21-.18-.23-.31-.22-1.61,3.01-.49,3.83-.28.48.12.51.04.12-.24-.95-.68-1.97-1.26-3.03-1.73-.43-.19-1.05-.3-.88-.92.12-.39.48-.66.89-.66h1.97c.32-.01.33-.11.03-.3l-1.56-.97c-.54-.34-.42-.62.37-.84l.68-.19c.12-.04.26-.05.38,0l2.5.98Z" style="fill: #fdb597;"/>
            <path id="ab" data-name="Path 1252" d="m137.91,114.06l3.66,7.26c.19.38.55.65.97.73,2.44.5,4.84,1.14,7.2,1.93l-7.49-1.64c-.35-.09-.65-.33-.81-.65-.43-.82-3.48-7.19-3.92-7.15-.05-.18.08-.34.39-.49" style="fill: #1c162e;"/>
            <path id="ac" data-name="Path 1253" d="m140.66,121.4c.32.26.53.63.59,1.03.02.14,0,.28-.08.4-1.67,3.05-3.18,6.32-3.44,9.9-.08,1.18-.78.5-.88-.11-.25-1.64-.1-3.32.44-4.89.19-1.33.17-2.69-.08-4.01-.2-1.74-.35-4.17-.45-7.27-.02-.54.19-.85.61-.91.13-.01.25.05.31.17l2.71,5.38c.07.12.16.23.27.32" style="fill: #fed9ca;"/>
            <path id="ad" data-name="Path 1254" d="m179.61,123.2c-2-.3-12.07-3.34-12.55-2.95.01-.16-.06-.24-.23-.23.39-.38.97-.51,1.49-.32,3.79,1.07,7.56,2.24,11.29,3.51" style="fill: #facba6;"/>
            <path id="ae" data-name="Path 1255" d="m157.57,132.43c-1.66-1.97-3.03-2.41-2.21-5.52.07-.42.46-.71.89-.65.02,0,.04,0,.06.01,1.4.17,2.84.4,4.31.7,3.05.63-1.11,5.22-2.05,6-.1.08-.24.09-.35.02-.24-.16-.46-.35-.65-.57" style="fill: #fdc668;"/>
            <path id="af" data-name="Path 1256" d="m164.62,127.54l.21-.03c5.89,2.64,11.95,4.87,18.14,6.68v.29c-6.2-.7-12.22-2.55-17.75-5.44-.69-.37-.89-.87-.61-1.48" style="fill: #fcd3c4;"/>
            <path id="ag" data-name="Path 1257" d="m149.22,134.5l28.9,1.06c-.6.75.17,1.84.32,2.52,1.97,8.7,3.21,17.55,3.69,26.46-12.66-.27-25.31-.8-37.95-1.57.68-5.32,1.52-10.52,2.53-15.61l2.52-12.85Z" style="fill: #1c162e;"/>
            <path id="ah" data-name="Path 1258" d="m182.97,135.45c2.96,8.91,5.21,18.04,6.75,27.3.04.52-.11,1.03-.43,1.45-2.37.38-4.77.49-7.16.33-.48-8.91-1.72-17.76-3.69-26.46-.15-.67-.92-1.77-.32-2.52l4.85-.11Z" style="fill: #393b40;"/>
            <path id="ai" data-name="Path 1259" d="m144.18,160.04c12.64.68,25.29,1.15,37.95,1.39,2.39.14,4.79.05,7.16-.29l.26,7.87-.31,6.4-.87,18.86-1.37,31.33-2.33,49.13c0,.12-.08.22-.2.27-.41.15-.85.19-1.28.12l-7.59-.03c1.86.25,1.65-.62,1.53-1.74-1.74-15.46-3.55-30.91-5.44-46.35-2.48-20.24-4.03-40.88-4.66-61.92,0-.25-.22-.46-.51-.48l-4.92-.14c-.12,0-.21.08-.21.19h0c.1,4.72.37,10.31.81,16.76,2.12,30.71,5.89,60.09,9.7,90.06.06.2-.02.42-.21.55l-7.17.56c.25-.29.17-.52-.24-.71-.57-.26-.88-.51-.92-.77-.78-4.24-1.59-8.47-2.43-12.7-.34-1.69-.57-3.76-.97-5.63-.86-4.05-1.46-7.91-2.26-11.86-.43-2.12-.59-4.56-1.06-6.83-1.04-4.98-1.94-9.97-2.69-14.99-.52-3.44-1.68-7.73-1.89-11.74-.02-.12-.05-.24-.11-.35-.12-.29-.21-.6-.27-.91-.66-2.91-1.13-6.39-1.57-8.76-1.11-5.94-2.17-11.88-3.16-17.83-.05-.31.14-1.09-.67-.69-.77-3.87-1.38-7.76-1.81-11.67l-.27-7.09Z" style="fill: #1c162e;"/>
            <path id="aj" data-name="Path 1260" d="m175.59,275.07l-2.08.12c-.17-.1-.39-.12-.58-.07-.54-.86-.83-1.82-.84-2.81.01-.12-.06-.23-.17-.3-.07-.03-.15-.03-.22-.02.19-.13.27-.34.21-.54-3.81-29.98-7.58-59.35-9.7-90.06-.45-6.45-.72-12.04-.81-16.76,0-.1.09-.19.2-.19h0l4.91.14c.29.02.51.22.51.48.63,21.04,2.18,41.68,4.66,61.92,1.89,15.44,3.7,30.9,5.44,46.35.13,1.11.34,1.98-1.53,1.74" style="fill: #393b40;"/>
            <path id="ak" data-name="Path 1261" d="m164.51,272.56l-.72.1c-.35.08-.57-.16-.68-.72-5.22-26.94-8.96-47.81-13.18-71.72l-3.67-21.43c.81-.4.62.38.67.69,1,5.95,2.05,11.89,3.16,17.83.44,2.37.91,5.85,1.57,8.76.06.31.15.61.27.91.06.11.09.23.11.35.21,4.01,1.37,8.3,1.89,11.74.75,5.02,1.65,10.01,2.69,14.99.48,2.27.63,4.71,1.06,6.83.8,3.95,1.4,7.81,2.26,11.86.4,1.87.63,3.94.97,5.63.85,4.23,1.66,8.46,2.43,12.7.05.25.35.51.92.77.41.19.49.42.24.71" style="fill: #070409;"/>
            <path id="al" data-name="Path 1262" d="m171.68,272c.08-.01.15,0,.22.02.12.06.18.18.17.29.01.98.3,1.95.84,2.81.24,3.52.32,7.05.26,10.59-.01.49.28.93.3.22.14-3.57.15-7.16.03-10.75l2.08-.12,7.6.03-.09,10.61-.02,4.37c-2.32-.05-10.78-.3-12.36-1.54-.11-.09-.27-.11-.41-.06-1.84.71-2.03,2.33-4.11,2.26-1.91-.04-3.81-.25-5.67-.63-.13-.03-.23-.11-.29-.22-.18-.32-.5-.57-.9-.66l1.81-1.01c.9-.46,3.18-1.45,2.76-2.3l-.11-13.27.72-.1,7.17-.56Z" style="fill: #fdb597;"/>
            <path id="am" data-name="Path 1263" d="m172.92,275.12c.2-.06.41-.03.58.07.13,3.59.12,7.18-.03,10.75-.03.71-.31.27-.3-.22.07-3.55-.02-7.08-.26-10.59" style="fill: #ebdfd6;"/>
          </g>
        </g>
        <g id="an" data-name="Group 1768">
          <g style="clip-path: url(#ao);">
            <g id="ap" data-name="Group 1767">
              <rect id="ar" data-name="Rectangle 1364" x="148.19" y="288.46" width="36.79" height="12.82" style="fill: url(#aq);"/>
            </g>
          </g>
        </g>
        <g id="as" data-name="Group 1770">
          <g id="at" data-name="Group 1769">
            <path id="au" data-name="Path 1265" d="m151.1,292.43c-.66.62-1.5,1.06-2.43,1.28-.3.07-.47.33-.4.6h0l1.57,4.84c-1.87-.28-3.76-.38-5.65-.31-.12.01-.23-.06-.25-.17h0s-.05-2.31-.05-2.31c.01-.38.26-.72.65-.88l6.57-3.05Z" style="fill: #bd606d;"/>
            <path id="av" data-name="Path 1266" d="m94.45,11.61c-4.17-.46-9.01-.41-13.48-1.39-.11-.02-.23.05-.25.16-.78,3.5-2.71,6.65-5.48,8.94-.89.74-1.57,1.68-2.01,2.75-.1.04-.17.12-.21.21-.84-1.28-.6-4.19-3.09-3.47-2.32.67-2.5,4.21-1.05,5.78.93,1,.62,3.53.32,5.11-.04.13-.12.23-.23.3l-.98.72c.26-3.8-.25-8.53-.29-11.26s0-5.43.1-8.15c.13-3.56,1.08-7.03,4.88-7.71.13-.02.25-.12.3-.24,1.78-4.66,4.77-3.5,8.8-2.22,4.36,1.38,8.69,2.88,12.97,4.51,1.35.51,3.25,1.59,3.02,3.45-.25,1.92-1.35,2.76-3.31,2.52" style="fill: #1a142c;"/>
            <path id="aw" data-name="Path 1267" d="m94.45,11.61c-.32.1-.28.22.11.38.16.06.26.21.27.38.36,6.22-.59,10.92-2.07,17.31-1.21,5.24-2.41,11.59-8.99,11.97-.13,0-.24.09-.3.21-1.17,2.7-2.9,5.13-5.08,7.11-.13-.07-.27-.07-.4-.02l-11.89-5.76c-.16-.08-.24-.25-.21-.42l2.1-12.05.98-.72c.11-.07.19-.18.23-.3.3-1.58.61-4.11-.32-5.11-1.46-1.56-1.27-5.1,1.05-5.78,2.49-.71,2.25,2.19,3.09,3.47l-.7,1.83c-.08.18,0,.39.19.47.02,0,.04.01.06.02,1.56.32.71-1.76.66-2.52.43-1.07,1.12-2.01,2.01-2.75,2.77-2.29,4.7-5.43,5.48-8.94.03-.11.14-.19.25-.16,4.47.98,9.31.93,13.48,1.39" style="fill: #fcb195;"/>
            <path id="ax" data-name="Path 1268" d="m73.23,22.07c.05.76.9,2.84-.66,2.52-.19-.04-.31-.23-.26-.42,0,0,0,0,0,0,0-.02,0-.04.02-.06l.7-1.83c.04-.1.11-.17.21-.21" style="fill: #1c162e;"/>
            <path id="ay" data-name="Path 1269" d="m95.92,105.69c-.13.42-.52.55-1.19.38-1.19-.3-2.39-.54-3.6-.73-.33-.05-.66.1-.82.4-.3.55-.6.72-.9.51-2.34,1.73-5.04,2.9-7.9,3.42,0,0-.02,0-.03,0-.09-.01-.15-.09-.14-.17l.02-1.03c-.38-.05-.54.05-.48.32.03.14.05.27.05.41-.18,2.03,1.21.94,1.99.68,1.38-.45,3.62-1.62,5-1.18.13.04.24.13.31.25.2.35.23.77.06,1.14h0c-.03.11.01.22.11.25l1.4.49c.11.05.18.17.17.29.02.51,1.1.15.31.93-.17.17-.26.4-.26.64.02,1.06.6,1.51,1.73,1.32.28-.04.54-.13.79-.27.46-.24.53-.42.23-.56-.52.22-1.07.34-1.63.35-.87-.06-1.03-.42-.47-1.09.64-.78,1.34-1.52,2.09-2.2,1.12-1.01,2.21-2.06,3.28-3.13.01-.48-.02-.95-.11-1.42" style="fill: #fcb195;"/>
            <path id="az" data-name="Path 1270" d="m78.4,48.97l2.31,3.41c.13.2.07.47-.13.6,0,0,0,0,0,0-.03.02-.07.04-.11.05-.9.32.24,2.84.38,3.55,3.2,16.47,5.78,33.11,8.57,49.66-2.34,1.73-5.04,2.9-7.9,3.42-.08,0-.16-.05-.17-.14,0,0,0,0,0,0,0-.01,0-.02,0-.03l.02-1.03.16-4.84c.08-5.71-.21-11.42-.88-17.09-.34-3.61-1.1-7.17-2.26-10.61-.45-3.5-.99-9.63-1.64-18.4-.12-1.06-.07-2.13.15-3.17.02-.12-.02-.25-.11-.34l-.87-.95c-.09-.1-.11-.25-.06-.37.43-1.39,1.17-2.66,2.16-3.72.13-.06.28-.05.4.02" style="fill: #da7629;"/>
            <path id="ba" data-name="Path 1271" d="m76.62,84.85c.57-.49,1.44-.43,1.93.14.49.57.43,1.44-.14,1.93-.55.47-1.36.44-1.87-.07-.53-.58-.5-1.47.08-2.01" style="fill: #fff;"/>
            <path id="bb" data-name="Path 1272" d="m130.63,98.1l-6.56,7.08c-.99-.72-1.99-1.42-3.01-2.09-1.67-1.1-2.73.24-1.48,1.65.1.11,2.61,2.86,1.82,2.46-.56-.29-6.86-3.43-6.76-1.9.06.95,3.83,3.15,4.43,3.73.56.54.48.65-.22.34-1.74-.77-3.57-1.33-5.44-1.68-.86-.16-2.48.31-.83,1.41.34.23,3.03,1.87,3.05,2.01s-.04.16-.21.08c-1.37-.7-3.62-2.45-5.15-2.11-.21.05-.33.25-.29.46,0,0,0,0,0,0,0,.03.02.07.04.1.76,1.35,1.82,2.5,3.11,3.36.5.34.45.56-.15.67l-7.34,1.3-7.17,1.17-4.29.6c.24-.84.86-1.52,1.67-1.85,1.47-.66,4.84-2.65,4.63-4.59-.01-.13-.13-.23-.26-.21,0,0,0,0,0,0h-.01c-2.48.39-4.87,2.08-7.22,2.99-.54-.24-1.17-.24-1.71,0-.19.07-.3.05-.35-.06-.03-.13.01-.28.11-.38,1.62-2.14,3.99-3.83,5.55-5.46,5.7-5.98,9.28-9.79,10.73-11.41,2.51-2.81,4.39-2.86,8.34-3.29,1.33-.15,2.67-.24,4.01-.27l.38,1.78c.04.13.15.22.29.24,2.59.61,5.31-.07,7.3-1.84l.68-.97c.07-.11.18-.19.3-.22l6.18-.97c2.82-.23,1.39,1.73.57,2.64-1.57,1.75-3.14,3.49-4.73,5.23" style="fill: #30596a;"/>
            <path id="bc" data-name="Path 1273" d="m128.53,90.54c-.45.54-.76,1.17-.92,1.86-1.99,1.77-4.71,2.45-7.3,1.84-.13-.02-.25-.12-.29-.25l-.38-1.78.11-.53c.3-.36.72-.59,1.18-.65,2.48-.67,5.06-.83,7.61-.49" style="fill: #f16e4b;"/>
            <path id="bd" data-name="Path 1274" d="m134.78,90.24l-6.18.97c-.13.03-.24.11-.3.22l-.68.97c.15-.68.47-1.32.92-1.86l6.25-.3Z" style="fill: #1c162e;"/>
            <path id="be" data-name="Path 1275" d="m119.75,91.69l-.11.53c-1.34.03-2.68.12-4.01.27-3.95.43-5.83.49-8.34,3.29-1.45,1.62-5.03,5.42-10.73,11.4-1.56,1.63-3.93,3.32-5.55,5.46-.09.1-.13.24-.11.38.05.11.16.13.35.06.55-.24,1.17-.23,1.71,0-.12,0-.19.03-.21.11-.52.22-1.07.34-1.63.35-.87-.06-1.03-.42-.47-1.09.64-.78,1.34-1.52,2.09-2.2,5.25-4.76,9.91-10.22,14.94-15.46,1.38-1.54,3.36-2.4,5.42-2.35l6.63-.74Z" style="fill: #070409;"/>
            <path id="bf" data-name="Path 1276" d="m100.46,110.29c-.02-.13-.14-.22-.27-.2-2.48.39-4.87,2.08-7.22,2.99-.11,0-.19.03-.21.11.31.13.23.32-.23.56-.25.13-.51.22-.79.27-1.13.18-1.7-.26-1.73-1.32,0-.24.09-.47.26-.64.79-.78-.29-.42-.31-.93,0-.12-.06-.23-.17-.29l-1.4-.49h-.01c-.09-.04-.14-.15-.1-.25.17-.37.14-.79-.06-1.14-.07-.12-.18-.21-.31-.25-1.38-.45-3.63.73-5,1.18-.78.25-2.17,1.34-1.99-.68,0-.14-.02-.28-.05-.41-.06-.27.1-.38.48-.32l.04-1.08c-2.26-.2-4.38,1.1-5.21,3.21.25-.07.51-.11.78-.11.59-.02.62.1.08.35-1.07.5-.89.96-.79,2.12.27,3.06.67,6.1,1.2,9.12.99.76,2.31.96,3.48.53l.29-1.93c.02-.13.09-.25.21-.32.7-.39,1.52-.5,2.29-.29,2.52-.48,4.98-1.22,7.35-2.21.98-.5,2.02-.87,3.1-1.1.24-.84.86-1.52,1.67-1.85,1.47-.66,4.84-2.65,4.63-4.59h0" style="fill: #fcb195;"/>
            <path id="bg" data-name="Path 1277" d="m124.76,120.48c.23-.39.44-.8.6-1.22.26-.95.43-1.91.52-2.89.19-1.44.61-2.84,1.24-4.15-.44-2.55-1.49-4.96-3.06-7.03-.99-.72-1.99-1.42-3.01-2.09-1.67-1.1-2.73.24-1.48,1.65.1.11,2.61,2.86,1.82,2.46-.56-.29-6.86-3.43-6.76-1.9.06.95,3.83,3.15,4.43,3.73.56.54.48.65-.22.34-1.74-.77-3.57-1.33-5.44-1.68-.86-.16-2.48.31-.83,1.41.34.23,3.03,1.87,3.05,2.01s-.04.16-.21.08c-1.37-.7-3.62-2.45-5.16-2.11-.03,0-.07.02-.1.04-.19.1-.26.33-.16.52,0,0,0,0,0,0,.76,1.35,1.82,2.5,3.11,3.36.5.34.45.56-.15.67l-.95.17c.75,5.31,7.45,7.52,12.74,6.63" style="fill: #fcb195;"/>
            <path id="bh" data-name="Path 1278" d="m112.02,113.85l-6.39,1.13c.86.12.59.75.69,1.27.52,2.74,1.28,5.42,2.28,8.02.62.8,1.18,1.64,1.7,2.51,1.27,2.14,6.65-.16,8.23-1.11,1.2-.71,2.34-1.49,3.44-2.35,1.11-.69,2.04-1.62,2.73-2.73.02-.04.04-.08.06-.11-5.29.89-11.99-1.32-12.74-6.63" style="fill: #488975;"/>
            <path id="bi" data-name="Path 1279" d="m77.45,122.06l-3.16.8c-.12.03-.24-.03-.29-.15-.05-.18-.05-.37,0-.55.36-3.45.81-6.88,1.37-10.3.18-1.11.5-1.35,1.59-1.39.59-.02.62.1.08.35-1.07.5-.89.96-.79,2.12.27,3.06.67,6.1,1.2,9.12" style="fill: #fefefe;"/>
            <path id="bj" data-name="Path 1280" d="m105.63,114.98c.86.12.59.75.69,1.27.52,2.74,1.28,5.42,2.28,8.02l-.17.1c-.1.06-.15.19-.11.3l11.87,40.32c.17.6-.05.9-.68.92-1.08.03-3.11.5-4.08-.11-2.24-6.98-4.73-13.86-7.47-20.66-1.64-5.29-3.48-10.52-5.52-15.7l-.32-1.54-3.67-11.79,7.17-1.16Z" style="fill: #488975;"/>
            <path id="bk" data-name="Path 1281" d="m98.46,116.15l3.67,11.79-13.8.21,3.47-5.54c.18-.32.23-.7.13-1.06l-.86-3.7c.98-.5,2.03-.87,3.11-1.1l4.29-.6Z" style="fill: #fff;"/>
            <path id="bl" data-name="Path 1282" d="m91.06,117.85l.86,3.7c.1.36.06.74-.13,1.06l-3.47,5.54-.62.13c-1.75-3.01-5.41-3.96-3.99-8.21,2.52-.48,4.98-1.22,7.35-2.22" style="fill: #da7629;"/>
            <path id="bm" data-name="Path 1283" d="m83.71,120.06c-1.42,4.25,2.24,5.2,3.99,8.21l-7.14.12.37-5.8.29-1.93c.02-.13.09-.25.21-.32.7-.39,1.52-.5,2.29-.29" style="fill: #fefefe;"/>
            <path id="bn" data-name="Path 1284" d="m102.12,127.93l.32,1.54,1.45,5.11c.07.23-.06.48-.29.55-.03,0-.07.02-.11.02-7.68.17-15.44.17-23.28,0l.33-6.75,7.14-.12.62-.13,13.8-.22Z" style="fill: #2a4c5d;"/>
            <path id="bo" data-name="Path 1285" d="m102.45,129.47c2.04,5.06,3.88,10.17,5.52,15.34-.14.12-.15.23-.04.33.6,6.27.93,12.55.99,18.84l-.32,17.94-2.01,82.16-.19,9.71-.23,10.29-.13,6.29c0,.13.08.24.2.28l12.76,5.25,2.02,1.31c.12.06.19.17.21.29l-.16,2.99c-.02.18-.17.31-.35.29l-27.94-.75c-.25-.01-.45-.22-.44-.46l-.08-5.35c0-.38-.16-.44-.46-.18-.21.14-.48.16-.71.06l-1.34-14.17-1.51-15.39c-2.34-28.03-5.18-56.18-7.78-84.02-.07-.77-.17-.77-.3,0-4.77,27.94-9.96,55.7-14.92,83.55l-1.04,5.17-4.62,26.27c-.03.16.06.31.21.37l15.06,6.24c.76,1.46.92,3.15.45,4.72-.03.12-.15.2-.27.19l-4.51-.35-25.5-2.59c-.12-.01-.21-.11-.21-.23l.08-5.07c0-.18-.14-.33-.32-.33-.05,0-.11.01-.15.03-.12.06-.26.06-.39.01-.13-.05-.26-.05-.39-.02-.5.13-.68-.13-.54-.79.15-1.27.18-2.54.09-3.81l.14-5.14.49-13.52.74-22.47c.26-4.46.47-8.93.63-13.4.86-24.5,1.68-49,2.46-73.51.41-.05.83-.05,1.25,0,9.46.68,19.04,1.41,28.72,2.19.19.02.37-.13.38-.32h0s1.68-25.18,1.68-25.18l.56-7.53c7.84.17,15.6.17,23.28,0,.24,0,.42-.2.41-.44,0,0,0,0,0,0,0-.04,0-.07-.02-.11l-1.45-4.99Z" style="fill: #1c162e;"/>
            <path id="bp" data-name="Path 1286" d="m78.55,86.79c.5-.57.44-1.44-.14-1.93-.57-.5-1.44-.44-1.93.14-.47.54-.44,1.36.07,1.87.57.53,1.47.5,2.01-.07" style="fill: #fff;"/>
            <path id="bq" data-name="Path 1287" d="m112.77,83.25l-.27-8.75c-.1.82-.23.87-.4.14-.02-.09-.04-.19-.04-.29-.53-8.3-2.46-17.67-9.7-22.83-5.01-3.16-11.48-5.1-17-7.32-.02,0-.04-.01-.06-.01-.07,0-.13.06-.13.13,0,0,0,0,0,0,.21,14.02,2.07,27.96,5.54,41.55,2.31,9.07,3.99,15.19,5.04,18.34.2.46.26.98.18,1.47.08.47.12.94.11,1.42.21-.21.42-.44.64-.65,3.73-3.76,7.28-7.77,11.03-11.68,1.38-1.54,3.36-2.4,5.42-2.35-.35-3.05-.47-6.12-.35-9.18" style="fill: #488975;"/>
            <path id="br" data-name="Path 1288" d="m80.63,86.52c-.34-3.61-1.1-7.17-2.26-10.61-.76-1.61-1.38-3.27-1.88-4.98-3.23-10.27-7.96-20.02-14.02-28.92h0c-.07-.1-.2-.11-.29-.05l-3.45,2.58c-3.2,3.01-8.69,4.58-12.99,5.9-5.84,2.01-11.65,3.15-14.34,9.31-2.35,5.38-2.61,11.59-2.86,17.48-.23,5.5-.49,10.98-.78,16.43l-.21,5.3.03,1.48-.25,4.53c-.32,4.64-.41,9.3-.25,13.95.18,1.32.59,2.6,1.23,3.77.78,1.45,1.9,2.68,3.27,3.59.78.42,1.63.71,2.52.84,3.43.2,6.99.37,10.68.51.15,0,.27.13.27.28l-.29,14.06-.76,21.96c-.08.6-.02,1.21.18,1.78.05.13.15.23.28.27.69.25,3,.3,3.16.69.41-.05.83-.05,1.25,0,9.46.7,19.04,1.44,28.72,2.24h0c.2.02.37-.13.38-.33,0,0,0,0,0,0l1.68-25.75.56-7.7.33-6.75.37-5.8c-1.17.43-2.49.23-3.48-.53l-3.15.8c-.12.03-.25-.03-.29-.15-.05-.18-.05-.37,0-.55.21-2.01.46-4.02.74-6.03.2-1.43.4-2.85.63-4.28.13-.78.33-1.12.81-1.28.83-2.11,2.95-3.41,5.21-3.21l.13-3.77c.08-5.71-.21-11.42-.88-17.09m-1.19,54.31s.03.01.05.01c-.03,0-.07,0-.1,0,.02,0,.04-.01.05-.01m-.89-54.05c-.57.49-1.44.43-1.93-.14s-.43-1.44.14-1.93c.55-.47,1.36-.44,1.87.07.53.58.5,1.47-.08,2.01" style="fill: #488975;"/>
            <path id="bs" data-name="Path 1289" d="m107.97,145.16c2.74,6.8,5.23,13.68,7.47,20.66-2.2-.19-4.38-.54-6.52-1.04-.06-6.44-.39-12.86-.99-19.28-.11-.1-.1-.22.04-.34" style="fill: #cc673f;"/>
          </g>
        </g>
      </g>
    </g>
  </g>
</svg>