<svg xmlns="http://www.w3.org/2000/svg" width="200" height="181">
  <defs>
    <clipPath id="a">
      <rect width="200" height="181" fill="#e2dfb4" data-name="Rectangle 1366" rx="12" transform="translate(657 1043)"/>
    </clipPath>
    <clipPath id="b">
      <path fill="none" d="M0 0h164.434v301.857H0z" data-name="Rectangle 1363"/>
    </clipPath>
    <clipPath id="c">
      <path fill="none" d="M20.633.031c-1.721.754-1.895 2.466-3.844 2.4a26.015 26.015 0 0 1-5.3-.663.426.426 0 0 1-.268-.232 1.313 1.313 0 0 0-.841-.7 25.525 25.525 0 0 1-2.86 1.1 33.585 33.585 0 0 0-4.85 2.466 4.845 4.845 0 0 1-2.276 1.35.517.517 0 0 0-.37.631l1.463 5.122a4.443 4.443 0 0 0 .206 2.04q2.729.021 5.454.022h.46q13.193 0 26.327-.484a.427.427 0 0 0 .419-.425l-.082-10.614-1.7-.323c-2.175-.055-10.086-.32-11.558-1.629a.358.358 0 0 0-.238-.091.352.352 0 0 0-.145.031" data-name="Path 1264"/>
    </clipPath>
    <linearGradient id="d" x1="-3.294" x2="-3.273" y1="1" y2="1" gradientUnits="objectBoundingBox">
      <stop offset="0" stop-color="#db5f45"/>
      <stop offset=".41" stop-color="#d8424b"/>
      <stop offset="1" stop-color="#d8424b"/>
    </linearGradient>
  </defs>
  <g transform="translate(-657 -1043)">
    <rect width="200" height="181" fill="#e2dfb4" data-name="Rectangle 1362" rx="12" transform="translate(657 1043)"/>
    <g clip-path="url(#a)" data-name="Mask Group 4">
      <g data-name="Group 1766">
        <g clip-path="url(#b)" data-name="Group 1765" transform="translate(674.783 1051.884)">
          <path fill="#fff" d="M64.475 98.846a2.455 2.455 0 0 0-.168-1.378q-1.472-4.428-4.712-17.153a167.675 167.675 0 0 1-5.173-38.862l-21.233-2.157a102.941 102.941 0 0 1 13.117 27.046 31.639 31.639 0 0 0 1.755 4.656 43.789 43.789 0 0 1 2.115 9.92 121.335 121.335 0 0 1 .825 15.989l-.116 3.522a4.774 4.774 0 0 0-4.871 3c-.449.144-.638.471-.758 1.2-.215 1.33-.405 2.663-.589 4h22.181l-1.676-9.066c-.2.2-.394.41-.595.609a6.532 6.532 0 0 0-.1-1.327" data-name="Path 1232"/>
          <path fill="#1c162e" d="M130.483 25.662a14.79 14.79 0 0 1 4.779.777 22.274 22.274 0 0 1 4.676 3.2c5.445 5.816 9.451 14.075 12.544 21.364 1.784 4.037 4.846 10.835-.477 12.725a25.833 25.833 0 0 1-10.4 1.153l-2.04-1.444a22.1 22.1 0 0 1-1.669-7.443c-.1-2.758-.213-4.218-.3-6.38a.269.269 0 0 1 .213-.276q4.076-.907 3.871-4.3c-.182-3.062-4.049-3.1-3.836-.636.032.359.06 1.76-.71.577a9.861 9.861 0 0 0-5.366-4.127 48.349 48.349 0 0 1-11.084-5.249.171.171 0 0 0-.236.053.164.164 0 0 0-.012.022 18.543 18.543 0 0 0-1.6 8.693.186.186 0 0 1-.063.174l-.087.051a41.775 41.775 0 0 1-1-5.919c-.221-3.16 1.354-5.626 2.959-8.172a11.8 11.8 0 0 1 2.466-2.4 16.852 16.852 0 0 1 7.383-2.438" data-name="Path 1233"/>
          <path fill="#fdb597" d="m139.563 63.436-11.972 12.473-.343-.186a.367.367 0 0 1-.2-.28c-.047-.414-.659-4.471-1.582-4.037a23.647 23.647 0 0 1 2.459-6.763l.45-6.365q.075-1.069-.995-.825a5.548 5.548 0 0 1-2.19.126c-2.181-.4-4.336-4.617-5-6.5-.545-1.985-1.784-3.686-1.543-5.7l.031-.79.087-.051a.185.185 0 0 0 .063-.174 18.544 18.544 0 0 1 1.6-8.693.172.172 0 0 1 .227-.086l.021.012a48.377 48.377 0 0 0 11.084 5.248 9.861 9.861 0 0 1 5.366 4.127c.77 1.184.742-.217.71-.576-.213-2.462 3.654-2.427 3.836.636q.2 3.4-3.871 4.3a.268.268 0 0 0-.213.276c.091 2.162.2 3.622.3 6.38a22.1 22.1 0 0 0 1.669 7.442" data-name="Path 1234"/>
          <path fill="#1a142c" d="M120.189 51.077c.667 1.886 2.821 6.1 5 6.5a5.531 5.531 0 0 0 2.19-.126q1.069-.245.995.825l-.45 6.365-6.092 1.551-.2-.79Z" data-name="Path 1235"/>
          <path fill="#fefefe" d="m139.565 63.436 2.04 1.444 3.835 3.517a84.955 84.955 0 0 0-6.55 8.188.336.336 0 0 1-.466.083 15.207 15.207 0 0 0-3.867-1.953.168.168 0 0 0-.217.177l.414 5.276a.443.443 0 0 1-.383.466q-4 .607-7.616.887a1.057 1.057 0 0 1-1.3-1.121 29.648 29.648 0 0 0 2.139-4.49Z" data-name="Path 1236"/>
          <path fill="#fff" d="M127.927 64.644a23.647 23.647 0 0 0-2.459 6.763 71.463 71.463 0 0 1-1.791 10.966c-.383 1.693-1.314.793-1.906.067q-1.074-1.31-2.372-2.758a.761.761 0 0 1-.028-.979 22.362 22.362 0 0 0 2.644-4.3q.462-.97-.608-.674l-2.415.662a.32.32 0 0 1-.388-.247.4.4 0 0 1-.01-.107l.249-6.957 2.877-.773a.149.149 0 0 0 .114-.115Z" data-name="Path 1237"/>
          <path fill="#f6e1c8" d="m121.637 65.405.2.789a.151.151 0 0 1-.115.115q-.773-.3-.083-.9" data-name="Path 1238"/>
          <path fill="#fdc668" d="m118.844 67.082-.249 6.961a.341.341 0 0 0 .3.364.275.275 0 0 0 .1-.01l2.415-.663q1.069-.3.607.675a22.42 22.42 0 0 1-2.643 4.3.759.759 0 0 0 .028.978q1.3 1.448 2.371 2.759c.592.726 1.523 1.626 1.906-.067l.016.186q.016.228.151.051l1.609-2.21a1.057 1.057 0 0 0 1.3 1.121q3.615-.28 7.616-.888a.442.442 0 0 0 .383-.466l-.414-5.276a.166.166 0 0 1 .217-.178 15.224 15.224 0 0 1 3.867 1.953.336.336 0 0 0 .466-.083 84.731 84.731 0 0 1 6.55-8.188l1.14 1.038-7.213 9.892a.56.56 0 0 1-.3.221 1.5 1.5 0 0 1-1.085-.142q-.631-.324-.568.378a3.777 3.777 0 0 1-.43 2.1.627.627 0 0 1-.273.26l-9.648 4.77a.912.912 0 0 0-.7.829.346.346 0 0 1-.075.177 14.685 14.685 0 0 0-2.332 3.741.357.357 0 0 1-.256.249c-.375.043-.8-2.281-1.01-2.742-.367-.8-.951-.959-1.452-1.689a.288.288 0 0 0-.3-.139q-.276.095-.217.462c-.352-2.435-1.969-4.4-3.055-6.511q-.22-.426-.355.031c-.127.422-3.213 11.163-4.1 9.328a.458.458 0 0 1 0-.371 62.737 62.737 0 0 0 3.287-10.812 15.71 15.71 0 0 0 .485-3.208 58.993 58.993 0 0 1 1-8.922Z" data-name="Path 1239"/>
          <path fill="#fefefe" d="M117.983 67.335a58.9 58.9 0 0 0-1 8.922 15.711 15.711 0 0 1-.485 3.208 62.8 62.8 0 0 1-3.287 10.812.453.453 0 0 0 0 .371c.884 1.835 3.969-8.906 4.1-9.328q.134-.457.355-.031c1.085 2.115 2.7 4.076 3.054 6.511q.092 6.069-.181 12.134a25.147 25.147 0 0 0 .528 3.559q-2.438-4.909-5-9.715c-1.492-2.8-4.956-2.841-7.663-3.725a.23.23 0 0 1 0-.363 1.25 1.25 0 0 0 .691-1c.154-4.329.233-8.4 2.021-11.9 1.2-2.344 4.2-7.995 6.87-9.451" data-name="Path 1240"/>
          <path fill="#fff" d="M146.579 69.438a25.348 25.348 0 0 0 3.863 2.7c-4.045 2.056-4.545 6.184-4.107 10.339q.8 7.584 2 15.113a39.883 39.883 0 0 0 .927 4.612l-.584-.043a.274.274 0 0 0-.28.15l-1.866 4.337-1.432 3.855-1.467 3.337-.722 1.381h-.166q-5.24-1.776-10.563-3.28a1.348 1.348 0 0 0-1.389.3 8.831 8.831 0 0 1-4.956-1.33q.616-8.129.782-16.245c.051-2.5.327-5.146.442-7.762l9.648-4.771a.621.621 0 0 0 .272-.26 3.769 3.769 0 0 0 .43-2.1q-.063-.7.568-.378a1.5 1.5 0 0 0 1.086.142.563.563 0 0 0 .3-.221Z" data-name="Path 1241"/>
          <path fill="#fdc668" d="M127.591 75.909a29.645 29.645 0 0 1-2.139 4.49l-1.61 2.21q-.134.178-.15-.051l-.019-.184a71.572 71.572 0 0 0 1.8-10.967c.923-.434 1.535 3.622 1.582 4.037a.369.369 0 0 0 .2.28Z" data-name="Path 1242"/>
          <path fill="#f87028" d="M150.004 106.726a.629.629 0 0 1-.016-.378l-.3-2.412q-.179-.88-.427-1.736a40.076 40.076 0 0 1-.927-4.612q-1.192-7.53-2-15.114c-.438-4.155.064-8.282 4.109-10.338a.754.754 0 0 1 .674.256c-5.082.939-4.21 8.145-3.764 11.645q1.711 13.491 3.558 26.966a.223.223 0 0 1-.174.273 1.408 1.408 0 0 1-.228-.79.371.371 0 0 0-.15-.308Z" data-name="Path 1243"/>
          <path fill="#fff" d="M158.827 75.468a14.306 14.306 0 0 1 1.282 3.157c1.3 11.049 2.344 22.125 3.847 33.146q.387 4.333.474 8.681c.075 3.579-1.322 7.055-5.323 7.58a25.038 25.038 0 0 1-7.434-.836 48.671 48.671 0 0 1-5.785-1.7 131.769 131.769 0 0 1-16.967-6.246 19.94 19.94 0 0 1 2.087-6.791c.446-.359 9.869 2.478 11.739 2.762h.166l3.484.79h.067a.646.646 0 0 0 .51.114 6.863 6.863 0 0 0 2.367-.031c2.538-.615 1.8-4.66 1.4-4.621a.319.319 0 0 1 0-.2.224.224 0 0 0 .174-.273q-1.846-13.475-3.559-26.966c-.446-3.5-1.318-10.705 3.765-11.645q5.075-1.2 7.71 3.074" data-name="Path 1244"/>
          <path fill="#fb8c9c" d="m100.435 88.024 1.772.308a2.007 2.007 0 0 0 .671 2.23q2.92 2.356 5.28.074a23.225 23.225 0 0 1 3.8.813c1.89.517 2.825.955 3.82 2.77q3.587 6.535 6.7 13.326l-2.344-.919a.571.571 0 0 0-.355.008l-.639.181q-1.1.312-.347.79l1.457.911q.426.268-.024.273l-1.839.012a.86.86 0 0 0-.828.615c-.158.584.418.686.82.864a15.662 15.662 0 0 1 2.837 1.617q.557.4-.11.229c-.766-.193-3.788-1.246-3.583.261a.4.4 0 0 0 .213.292 13.689 13.689 0 0 1 2.194 1.385q2.643 2.186 5.48 4.186a77.642 77.642 0 0 1-10.587-2.288 57.188 57.188 0 0 0-6.736-1.807 1.3 1.3 0 0 1-.907-.682l-3.421-6.792c-.17-1.042 1.606-2.336-.572-2.932a.4.4 0 0 1-.221-.5l.359-1.519a.277.277 0 0 0-.218-.329l-.042-.007-1.962-.181a.3.3 0 0 1-.279-.3.238.238 0 0 1 .016-.071q.367-.951-.557-1.1a8.608 8.608 0 0 1-2-.577 104.323 104.323 0 0 1-5.074-10.488c-1.464-3.508 5.126-1.152 7.241-.659" data-name="Path 1245"/>
          <path fill="#fdc668" d="M127.062 86.911c-.115 2.617-.39 5.26-.442 7.762q-.167 8.117-.782 16.245a3.984 3.984 0 0 1-2.38-1.942l-2.4-5.485a25.134 25.134 0 0 1-.528-3.559q.272-6.065.181-12.133c-.04-.245.034-.4.218-.462a.287.287 0 0 1 .3.138c.5.73 1.085.892 1.452 1.689.213.462.635 2.786 1.01 2.742a.355.355 0 0 0 .257-.248 14.639 14.639 0 0 1 2.332-3.741.358.358 0 0 0 .075-.178.909.909 0 0 1 .7-.828" data-name="Path 1246"/>
          <path fill="#f16e4b" d="M108.402 89.688a.23.23 0 0 0 0 .363q-.4-.075-.244.584-2.36 2.281-5.28-.075a2.007 2.007 0 0 1-.671-2.23 16.523 16.523 0 0 1 6.195 1.357" data-name="Path 1247"/>
          <path fill="#070409" d="M108.4 90.051c2.707.884 6.172.928 7.663 3.725q2.56 4.807 5 9.715l2.4 5.485a1.6 1.6 0 0 1-.99-1.433q-3.11-6.791-6.7-13.326c-.995-1.815-1.93-2.253-3.82-2.77a23.242 23.242 0 0 0-3.8-.813q-.159-.659.244-.584" data-name="Path 1248"/>
          <path fill="#fdb597" d="M98.27 99.167a8.549 8.549 0 0 0 2 .576q.923.146.556 1.1a.279.279 0 0 0 .186.354.349.349 0 0 0 .078.017l1.962.181a.286.286 0 0 1 .267.3.322.322 0 0 1-.007.039l-.359 1.519a.4.4 0 0 0 .221.5c2.178.6.4 1.89.572 2.932q-.43.206-.364.454a6.041 6.041 0 0 1-2.928 2.06 1.04 1.04 0 0 1-1.179-.3c-1.3-1.389-2.127-4.656-2.533-6.5l-.517-2.249a.37.37 0 0 1 .095-.343 2.189 2.189 0 0 1 1.945-.635" data-name="Path 1249"/>
          <path fill="#fff" d="M96.746 102.398c.407 1.843 1.232 5.11 2.534 6.5a1.04 1.04 0 0 0 1.179.3 6.044 6.044 0 0 0 2.928-2.06c.407-.036 3.256 5.923 3.662 6.688a1.167 1.167 0 0 0 .758.608l7.007 1.522a77.546 77.546 0 0 0 10.588 2.289 5.473 5.473 0 0 1 3.322 1.033q-.4.865.568 1.389a47.151 47.151 0 0 0 16.6 5.09q.84.474 0 .919l-4.538.1-27.03-.986-9.939-.387a.515.515 0 0 0-.343.135 7.517 7.517 0 0 1-4.175 1.921c-7.067-2.237-4.916-14.265-4.443-19.537q.212-2.343.615-4.656a1.41 1.41 0 0 1 .71-.872m9.325 10.844-2.534-5.027a.287.287 0 0 0-.288-.158q-.592.09-.568.852.139 4.361.422 6.8a11.489 11.489 0 0 1 .071 3.753 9.587 9.587 0 0 0-.41 4.569c.091.577.742 1.211.821.107a23.009 23.009 0 0 1 3.22-9.261.577.577 0 0 0 .071-.371 1.582 1.582 0 0 0-.557-.967.97.97 0 0 1-.248-.3m16.06 10.614a2.731 2.731 0 0 0 .6.536.277.277 0 0 0 .324-.019c.887-.734 4.774-5.024 1.921-5.615q-2.06-.426-4.029-.659a.727.727 0 0 0-.884.6c-.77 2.912.513 3.319 2.064 5.162" data-name="Path 1250"/>
          <path fill="#fdb597" d="M122.469 107.544a1.6 1.6 0 0 0 .99 1.433 3.986 3.986 0 0 0 2.38 1.941 8.833 8.833 0 0 0 4.956 1.33c.153-.01.224.061.213.213a19.946 19.946 0 0 0-2.087 6.791l-.2.032a5.476 5.476 0 0 0-3.323-1.034q-2.837-2-5.48-4.186a13.639 13.639 0 0 0-2.194-1.385.4.4 0 0 1-.213-.292c-.206-1.508 2.817-.454 3.583-.261q.667.17.11-.229a15.711 15.711 0 0 0-2.837-1.618c-.4-.177-.978-.28-.821-.864a.862.862 0 0 1 .829-.615l1.839-.012q.449 0 .024-.272l-1.452-.913q-.758-.477.347-.789l.639-.181a.565.565 0 0 1 .355-.008Z" data-name="Path 1251"/>
          <path fill="#1c162e" d="m103.75 106.68 3.421 6.791a1.3 1.3 0 0 0 .907.682 57.333 57.333 0 0 1 6.736 1.807l-7.008-1.531a1.164 1.164 0 0 1-.758-.607c-.407-.766-3.256-6.725-3.662-6.689q-.067-.248.363-.454" data-name="Path 1252"/>
          <path fill="#fed9ca" d="M106.318 113.542a1.583 1.583 0 0 1 .557.967.578.578 0 0 1-.072.371 23.02 23.02 0 0 0-3.219 9.261c-.079 1.1-.73.469-.821-.107a9.578 9.578 0 0 1 .41-4.569 11.474 11.474 0 0 0-.072-3.753q-.284-2.443-.422-6.8-.023-.761.568-.852a.287.287 0 0 1 .288.158l2.533 5.027a.975.975 0 0 0 .249.3" data-name="Path 1253"/>
          <path fill="#facba6" d="M142.747 115.223c-1.87-.284-11.293-3.121-11.739-2.762.01-.153-.06-.224-.213-.213a1.345 1.345 0 0 1 1.389-.3q5.323 1.5 10.563 3.279" data-name="Path 1254"/>
          <path fill="#fdc668" d="M122.13 123.856c-1.55-1.842-2.833-2.249-2.064-5.162a.727.727 0 0 1 .884-.6q1.969.232 4.029.659c2.853.592-1.034 4.881-1.921 5.615a.277.277 0 0 1-.324.019 2.732 2.732 0 0 1-.6-.536" data-name="Path 1255"/>
          <path fill="#fcd3c4" d="m128.724 119.283.2-.031a131.813 131.813 0 0 0 16.967 6.246v.264a47.168 47.168 0 0 1-16.6-5.091q-.967-.524-.568-1.389" data-name="Path 1256"/>
          <path fill="#1c162e" d="m114.321 125.794 27.029.987c-.564.7.154 1.725.3 2.352a148.372 148.372 0 0 1 3.452 24.745q-17.757-.383-35.494-1.469.954-7.464 2.363-14.6Z" data-name="Path 1257"/>
          <path fill="#393b40" d="M145.888 126.682a169.055 169.055 0 0 1 6.309 25.534 1.987 1.987 0 0 1-.4 1.354 29.427 29.427 0 0 1-6.7.308 148.3 148.3 0 0 0-3.453-24.745c-.142-.627-.86-1.653-.3-2.352Z" data-name="Path 1258"/>
          <path fill="#1c162e" d="M109.606 152.41q17.738 1.085 35.494 1.468a29.425 29.425 0 0 0 6.7-.308l.241 8.326-.292 6.771-.813 19.951-1.283 33.146-2.178 51.988a.316.316 0 0 1-.19.284 2.15 2.15 0 0 1-1.2.127l-7.1-.032c1.74.261 1.543-.659 1.424-1.839q-2.435-24.535-5.086-49.048-3.473-32.12-4.357-65.519a.51.51 0 0 0-.477-.505l-4.6-.15a.2.2 0 0 0-.2.2v.007q.134 7.486.762 17.729c1.985 32.495 5.508 63.577 9.075 95.295a.55.55 0 0 1-.2.577l-6.708.592q.351-.454-.221-.749-.8-.41-.864-.813-1.088-6.728-2.277-13.436c-.316-1.792-.536-3.978-.907-5.959-.8-4.282-1.361-8.37-2.111-12.548-.4-2.241-.548-4.822-.994-7.225q-1.461-7.9-2.517-15.863c-.482-3.638-1.571-8.18-1.764-12.422a1.285 1.285 0 0 0-.1-.371 5.907 5.907 0 0 1-.253-.959c-.615-3.078-1.053-6.763-1.468-9.269q-1.559-9.423-2.959-18.866c-.048-.332.13-1.153-.627-.73q-1.082-6.14-1.693-12.347Z" data-name="Path 1259"/>
          <path fill="#393b40" d="m138.983 274.13-1.945.122a.637.637 0 0 0-.545-.071 6.277 6.277 0 0 1-.789-2.971.329.329 0 0 0-.162-.312.4.4 0 0 0-.209-.024.548.548 0 0 0 .2-.576c-3.567-31.717-7.091-62.8-9.076-95.295q-.628-10.243-.761-17.729a.2.2 0 0 1 .189-.2h.008l4.6.15a.51.51 0 0 1 .478.505q.884 33.4 4.356 65.519 2.652 24.512 5.086 49.048c.118 1.179.316 2.1-1.424 1.839" data-name="Path 1260"/>
          <path fill="#070409" d="m128.62 271.466-.671.11q-.486.123-.635-.761c-4.881-28.505-8.382-50.583-12.323-75.884l-3.437-22.673c.758-.422.58.4.627.73q1.4 9.442 2.959 18.865c.415 2.506.852 6.191 1.468 9.269a5.908 5.908 0 0 0 .253.959 1.3 1.3 0 0 1 .1.371c.194 4.241 1.283 8.784 1.764 12.422q1.057 7.962 2.517 15.862c.446 2.4.592 4.984.995 7.225.75 4.179 1.306 8.267 2.111 12.548.371 1.981.592 4.167.907 5.958q1.188 6.709 2.277 13.437.064.4.864.813.572.3.221.749" data-name="Path 1261"/>
          <path fill="#fdb597" d="M135.334 270.874a.392.392 0 0 1 .209.024.328.328 0 0 1 .162.311 6.292 6.292 0 0 0 .789 2.971q.335 5.58.241 11.21c-.012.517.257.987.28.237q.2-5.674.024-11.376l1.945-.122 7.1.031-.083 11.23-.016 4.621c-2.174-.056-10.085-.32-11.558-1.63a.358.358 0 0 0-.383-.059c-1.72.753-1.894 2.466-3.843 2.4a26.023 26.023 0 0 1-5.3-.663.429.429 0 0 1-.268-.233 1.312 1.312 0 0 0-.84-.7l1.693-1.069c.84-.49 2.971-1.536 2.577-2.439l-.107-14.039.671-.111Z" data-name="Path 1262"/>
          <path fill="#ebdfd6" d="M136.494 274.182a.637.637 0 0 1 .545.071q.178 5.7-.024 11.377c-.024.749-.292.28-.28-.237q.1-5.631-.241-11.21" data-name="Path 1263"/>
        </g>
      </g>
      <g data-name="Group 1768">
        <g clip-path="url(#c)" data-name="Group 1767" transform="translate(788.198 1340.176)">
          <path fill="url(#d)" d="M0 0h34.409v13.565H0z" data-name="Rectangle 1364" transform="translate(-.058)"/>
        </g>
      </g>
      <g data-name="Group 1770">
        <g clip-path="url(#b)" data-name="Group 1769" transform="translate(674.783 1051.884)">
          <path fill="#bd606d" d="M116.083 292.692a4.848 4.848 0 0 1-2.277 1.349.518.518 0 0 0-.371.63l1.464 5.122a24.877 24.877 0 0 0-5.287-.328.21.21 0 0 1-.232-.181l-.047-2.435a1.063 1.063 0 0 1 .6-.931Z" data-name="Path 1265"/>
          <path fill="#1a142c" d="M63.099 10.862c-3.9-.43-8.428-.383-12.607-1.3a.2.2 0 0 0-.237.15 15.108 15.108 0 0 1-5.122 8.358 6.514 6.514 0 0 0-1.878 2.573.36.36 0 0 0-.2.2c-.785-1.2-.565-3.914-2.893-3.248-2.17.627-2.339 3.942-.978 5.4.868.939.576 3.3.3 4.783a.492.492 0 0 1-.213.284l-.916.671c.241-3.555-.237-7.982-.268-10.527s0-5.083.091-7.624c.122-3.33 1.014-6.57 4.562-7.213a.364.364 0 0 0 .276-.229c1.661-4.361 4.463-3.271 8.232-2.079q6.122 1.94 12.122 4.218c1.267.481 3.043 1.483 2.821 3.224q-.346 2.691-3.093 2.359" data-name="Path 1266"/>
          <path fill="#fcb195" d="M63.099 10.862q-.446.134.1.351a.4.4 0 0 1 .253.352c.339 5.816-.553 10.216-1.934 16.194-1.136 4.905-2.257 10.836-8.408 11.2a.325.325 0 0 0-.276.194 19.471 19.471 0 0 1-4.747 6.649.44.44 0 0 0-.378-.016l-11.123-5.388a.363.363 0 0 1-.2-.391l1.968-11.277.916-.671a.492.492 0 0 0 .213-.284c.28-1.48.572-3.844-.3-4.783-1.361-1.46-1.192-4.774.978-5.4 2.328-.667 2.108 2.047 2.893 3.248l-.651 1.708a.335.335 0 0 0 .18.437.271.271 0 0 0 .053.016c1.457.3.663-1.641.615-2.359a6.514 6.514 0 0 1 1.878-2.573 15.108 15.108 0 0 0 5.122-8.358.2.2 0 0 1 .237-.15c4.179.916 8.709.869 12.607 1.3" data-name="Path 1267"/>
          <path fill="#1c162e" d="M43.255 20.643c.048.718.84 2.66-.615 2.359a.331.331 0 0 1-.25-.4.359.359 0 0 1 .016-.055l.651-1.708a.361.361 0 0 1 .2-.2" data-name="Path 1268"/>
          <path fill="#fcb195" d="M64.474 98.845c-.118.393-.484.518-1.115.354a34.061 34.061 0 0 0-3.366-.679.742.742 0 0 0-.77.371q-.426.77-.844.474a17.626 17.626 0 0 1-7.391 3.2.094.094 0 0 1-.025 0 .153.153 0 0 1-.132-.163l.019-.963q-.536-.075-.446.3a1.55 1.55 0 0 1 .047.387c-.17 1.894 1.132.876 1.863.639 1.29-.418 3.385-1.519 4.68-1.1a.509.509 0 0 1 .291.237 1.15 1.15 0 0 1 .056 1.062v.011a.175.175 0 0 0 .1.226l1.31.461a.279.279 0 0 1 .158.264c.02.478 1.026.142.288.869a.807.807 0 0 0-.241.6q.031 1.492 1.614 1.239a2.342 2.342 0 0 0 .738-.248q.643-.335.213-.521a4.116 4.116 0 0 1-1.527.323q-1.224-.083-.438-1.022a20.512 20.512 0 0 1 1.953-2.06 91.994 91.994 0 0 0 3.068-2.929 6.532 6.532 0 0 0-.1-1.327" data-name="Path 1269"/>
          <path fill="#da7629" d="m48.089 45.799 2.162 3.184a.408.408 0 0 1-.13.569.483.483 0 0 1-.1.051c-.844.3.221 2.66.351 3.318 2.991 15.4 5.406 30.968 8.01 46.444a17.623 17.623 0 0 1-7.391 3.2.142.142 0 0 1-.156-.132.2.2 0 0 1 0-.03l.019-.963.15-4.53a121.6 121.6 0 0 0-.825-15.989 43.789 43.789 0 0 0-2.115-9.92q-.624-4.909-1.535-17.209a9.337 9.337 0 0 1 .142-2.967.347.347 0 0 0-.1-.315l-.817-.9a.351.351 0 0 1-.06-.347 9.151 9.151 0 0 1 2.017-3.48.435.435 0 0 1 .378.016" data-name="Path 1270"/>
          <path fill="#fff" d="M46.425 79.357a1.282 1.282 0 1 1-.073 1.877 1.33 1.33 0 0 1 .073-1.877" data-name="Path 1271"/>
          <path fill="#30596a" d="m96.936 91.753-6.132 6.625q-1.389-1.01-2.817-1.953c-1.563-1.03-2.549.221-1.381 1.547.095.107 2.443 2.679 1.7 2.3-.524-.268-6.412-3.2-6.325-1.775.051.892 3.583 2.947 4.143 3.488q.781.753-.209.315a23.1 23.1 0 0 0-5.086-1.571c-.8-.15-2.324.288-.781 1.322.32.213 2.829 1.748 2.853 1.878s-.041.15-.194.071c-1.278-.655-3.385-2.289-4.817-1.973a.36.36 0 0 0-.272.431.37.37 0 0 0 .035.093 9.127 9.127 0 0 0 2.908 3.141q.7.477-.142.627l-6.866 1.216-6.705 1.087-4.013.565a2.671 2.671 0 0 1 1.559-1.733c1.373-.615 4.53-2.482 4.332-4.293a.222.222 0 0 0-.244-.2h-.012c-2.316.363-4.554 1.942-6.751 2.8a1.993 1.993 0 0 0-1.6-.007q-.26.1-.327-.056a.392.392 0 0 1 .1-.351c1.512-2 3.729-3.579 5.189-5.106q8-8.394 10.035-10.666c2.348-2.628 4.107-2.675 7.8-3.081q1.866-.206 3.748-.249l.359 1.665a.334.334 0 0 0 .268.229 7.638 7.638 0 0 0 6.83-1.72l.635-.911a.462.462 0 0 1 .284-.206l5.781-.9c2.64-.214 1.3 1.614.54 2.466q-2.2 2.454-4.423 4.889" data-name="Path 1272"/>
          <path fill="#f16e4b" d="M94.974 84.682a4.06 4.06 0 0 0-.856 1.736 7.641 7.641 0 0 1-6.83 1.721.335.335 0 0 1-.269-.229l-.359-1.665.1-.493a1.741 1.741 0 0 1 1.1-.607 18.112 18.112 0 0 1 7.114-.462" data-name="Path 1273"/>
          <path fill="#1c162e" d="m100.819 84.398-5.781.9a.462.462 0 0 0-.285.2l-.635.912a4.058 4.058 0 0 1 .856-1.737Z" data-name="Path 1274"/>
          <path fill="#070409" d="m86.76 85.754-.1.493q-1.883.044-3.749.249c-3.693.406-5.454.454-7.8 3.081q-2.036 2.273-10.035 10.666c-1.459 1.527-3.677 3.11-5.189 5.106a.394.394 0 0 0-.1.351q.067.154.328.056a1.989 1.989 0 0 1 1.6.007c-.108-.005-.174.028-.2.1a4.1 4.1 0 0 1-1.527.324q-1.223-.083-.437-1.022a20.427 20.427 0 0 1 1.953-2.06c4.919-4.451 9.271-9.56 13.982-14.461a6.6 6.6 0 0 1 5.071-2.2Z" data-name="Path 1275"/>
          <path fill="#fcb195" d="M68.724 103.149a.223.223 0 0 0-.255-.185c-2.316.363-4.554 1.942-6.752 2.8-.107-.005-.174.028-.2.1q.43.184-.213.521a2.343 2.343 0 0 1-.738.248q-1.582.253-1.614-1.239a.81.81 0 0 1 .241-.6c.738-.726-.268-.39-.288-.868a.279.279 0 0 0-.157-.264l-1.31-.461h-.01a.176.176 0 0 1-.088-.232 1.152 1.152 0 0 0-.055-1.062.51.51 0 0 0-.292-.237c-1.295-.418-3.39.683-4.68 1.1-.73.237-2.032 1.255-1.863-.639a1.551 1.551 0 0 0-.047-.387q-.092-.379.446-.3l.034-1.007a4.774 4.774 0 0 0-4.871 3 2.679 2.679 0 0 1 .726-.1q.829-.023.079.324c-1 .466-.832.9-.738 1.98q.379 4.289 1.121 8.531a3.409 3.409 0 0 0 3.256.493l.264-1.8a.4.4 0 0 1 .194-.3 2.834 2.834 0 0 1 2.139-.269 34.681 34.681 0 0 0 6.874-2.071 11.853 11.853 0 0 1 2.908-1.03 2.67 2.67 0 0 1 1.559-1.732c1.374-.615 4.531-2.482 4.333-4.293v-.012" data-name="Path 1276"/>
          <path fill="#fcb195" d="M91.444 112.682a7.659 7.659 0 0 0 .563-1.144 15.635 15.635 0 0 0 .489-2.7 12.9 12.9 0 0 1 1.164-3.882 15.117 15.117 0 0 0-2.857-6.574q-1.389-1.01-2.817-1.953c-1.563-1.03-2.549.221-1.381 1.547.095.107 2.442 2.679 1.7 2.3-.525-.268-6.412-3.2-6.325-1.775.051.892 3.583 2.947 4.143 3.488q.781.753-.209.315a23.116 23.116 0 0 0-5.086-1.571c-.8-.15-2.324.288-.781 1.322.32.213 2.829 1.748 2.853 1.878s-.041.15-.194.071c-1.278-.655-3.385-2.289-4.818-1.973a.34.34 0 0 0-.092.034.361.361 0 0 0-.145.49 9.12 9.12 0 0 0 2.908 3.141q.7.478-.142.627l-.893.159c.7 4.966 6.97 7.035 11.915 6.2" data-name="Path 1277"/>
          <path fill="#488975" d="m79.526 106.48-5.973 1.057c.8.115.552.7.647 1.192a43.952 43.952 0 0 0 2.131 7.5 23.563 23.563 0 0 1 1.587 2.344c1.188 2 6.219-.145 7.695-1.037a29.672 29.672 0 0 0 3.213-2.189 7.933 7.933 0 0 0 2.554-2.557c.022-.035.039-.072.06-.107-4.945.833-11.213-1.236-11.915-6.2" data-name="Path 1278"/>
          <path fill="#fefefe" d="m47.201 114.162-2.952.746a.224.224 0 0 1-.272-.138.885.885 0 0 1 0-.51q.5-4.838 1.278-9.635c.17-1.034.469-1.267 1.483-1.3q.829-.023.079.323c-1 .466-.832.9-.738 1.981q.379 4.289 1.121 8.531" data-name="Path 1279"/>
          <path fill="#488975" d="M73.556 107.538c.8.115.552.7.647 1.192a43.816 43.816 0 0 0 2.131 7.5l-.158.091a.246.246 0 0 0-.1.284l11.1 37.712q.245.837-.632.864c-1.01.031-2.912.466-3.812-.1q-3.145-9.786-6.988-19.319-2.3-7.419-5.161-14.679l-.3-1.436-3.429-11.029Z" data-name="Path 1280"/>
          <path fill="#fff" d="m66.848 108.626 3.429 11.029-12.911.2 3.248-5.177a1.3 1.3 0 0 0 .118-.99l-.805-3.464a11.847 11.847 0 0 1 2.909-1.03Z" data-name="Path 1281"/>
          <path fill="#da7629" d="m59.926 110.217.8 3.464a1.3 1.3 0 0 1-.118.991l-3.248 5.177-.58.118c-1.638-2.813-5.059-3.7-3.733-7.678a34.733 34.733 0 0 0 6.874-2.072" data-name="Path 1282"/>
          <path fill="#fefefe" d="M53.051 112.287c-1.326 3.978 2.1 4.865 3.733 7.679l-6.676.11.347-5.422.264-1.8a.407.407 0 0 1 .193-.3 2.831 2.831 0 0 1 2.139-.268" data-name="Path 1283"/>
          <path fill="#2a4c5d" d="m70.276 119.652.3 1.436 1.357 4.782a.415.415 0 0 1-.272.514.4.4 0 0 1-.1.015q-10.776.24-21.77 0l.311-6.318 6.677-.11.58-.118Z" data-name="Path 1284"/>
          <path fill="#1c162e" d="M70.58 121.087q2.861 7.261 5.162 14.679-.193.173-.039.32.84 9 .927 18.029l-.3 17.165-1.869 78.622-.181 9.293-.213 9.845-.122 6.021a.3.3 0 0 0 .189.273l11.927 5.026 1.886 1.247a.359.359 0 0 1 .193.28l-.153 2.861a.309.309 0 0 1-.332.28l-26.13-.714a.436.436 0 0 1-.414-.442l-.075-5.122q-.011-.544-.426-.17a.666.666 0 0 1-.663.056l-1.25-13.559-1.409-14.73c-2.187-26.825-4.842-53.76-7.28-80.4q-.1-1.105-.285-.007c-4.463 26.734-9.312 53.3-13.953 79.949l-.971 4.948-4.32 25.139a.323.323 0 0 0 .193.359l14.089 5.969a6.172 6.172 0 0 1 .419 4.518.241.241 0 0 1-.253.177l-4.218-.339-23.848-2.482a.221.221 0 0 1-.2-.221l.075-4.85a.309.309 0 0 0-.446-.284.461.461 0 0 1-.363.012.619.619 0 0 0-.367-.019q-.7.184-.505-.754a20.446 20.446 0 0 0 .083-3.65l.13-4.917.464-12.935.691-21.505q.367-6.408.588-12.82 1.207-35.17 2.3-70.341a4.626 4.626 0 0 1 1.168 0q13.274.975 26.86 2.1a.332.332 0 0 0 .359-.3v-.006l1.571-24.086.525-7.2q10.993.245 21.77 0a.4.4 0 0 0 .387-.425.416.416 0 0 0-.016-.1Z" data-name="Path 1285"/>
          <path fill="#fff" d="M48.23 81.168a1.282 1.282 0 1 0-1.878.066 1.33 1.33 0 0 0 1.878-.066" data-name="Path 1286"/>
          <path fill="#488975" d="m80.233 77.858-.249-8.188q-.137 1.156-.378.134a1.387 1.387 0 0 1-.039-.272c-.5-7.762-2.3-16.53-9.068-21.352-4.684-2.96-10.733-4.767-15.894-6.847a.131.131 0 0 0-.056-.01.126.126 0 0 0-.126.129 167.67 167.67 0 0 0 5.173 38.86q3.24 12.726 4.712 17.153a2.462 2.462 0 0 1 .168 1.378 6.524 6.524 0 0 1 .1 1.326c.2-.2.395-.408.595-.609 3.488-3.519 6.807-7.271 10.313-10.919a6.6 6.6 0 0 1 5.071-2.2 55.129 55.129 0 0 1-.322-8.583" data-name="Path 1287"/>
          <path fill="#488975" d="M50.177 80.918a43.829 43.829 0 0 0-2.115-9.92 31.655 31.655 0 0 1-1.756-4.656 102.928 102.928 0 0 0-13.117-27.046l-.005-.007a.194.194 0 0 0-.271-.037l-3.228 2.407c-2.994 2.813-8.128 4.289-12.145 5.52-5.465 1.883-10.894 2.944-13.408 8.7-2.195 5.036-2.439 10.845-2.672 16.358q-.323 7.714-.726 15.365L.54 92.558l.032 1.381-.229 4.242a125.527 125.527 0 0 0-.233 13.05 10.131 10.131 0 0 0 1.152 3.523 9.388 9.388 0 0 0 3.058 3.354 7.267 7.267 0 0 0 2.352.79q4.818.279 9.987.481a.258.258 0 0 1 .249.26l-.273 13.152-.706 20.535a3.553 3.553 0 0 0 .166 1.665.432.432 0 0 0 .26.256c.647.237 2.809.284 2.96.643a4.62 4.62 0 0 1 1.167 0q13.274.976 26.86 2.1h.006a.332.332 0 0 0 .353-.308l1.571-24.086.524-7.2.312-6.318.347-5.422a3.409 3.409 0 0 1-3.256-.493l-2.951.746a.225.225 0 0 1-.273-.138.885.885 0 0 1 0-.51c.2-1.884.431-3.763.69-5.638.183-1.334.373-2.668.589-4 .119-.726.308-1.052.758-1.2a4.773 4.773 0 0 1 4.871-3L51 96.907a121.586 121.586 0 0 0-.825-15.989m-1.115 50.794c.017 0 .029.01.045.011a.18.18 0 0 0-.1 0 .2.2 0 0 1 .05-.013m-.825-50.542a1.282 1.282 0 1 1 .07-1.877 1.331 1.331 0 0 1-.073 1.877" data-name="Path 1288"/>
          <path fill="#cc673f" d="M75.742 135.766q3.843 9.534 6.988 19.319a43.357 43.357 0 0 1-6.1-.971q-.087-9.032-.928-18.029-.154-.146.039-.32" data-name="Path 1289"/>
        </g>
      </g>
    </g>
  </g>
</svg>
