<?xml version="1.0" encoding="UTF-8"?>
<svg id="a" data-name="Layer 1" xmlns="http://www.w3.org/2000/svg" xmlns:xlink="http://www.w3.org/1999/xlink" viewBox="0 0 228.28 286.95">
  <defs>
    <clipPath id="ao">
      <path d="m159.16,269.61c-1.72.67-1.89,2.18-3.84,2.12-1.78-.03-3.56-.23-5.3-.59-.12-.03-.22-.11-.27-.21-.17-.3-.47-.53-.84-.62-.93.37-1.88.7-2.86.97-1.68.61-3.3,1.34-4.85,2.18-.62.58-1.41.99-2.27,1.19h0c-.28.06-.44.31-.37.56,0,0,0,0,0,0l1.46,4.52c-.09.61-.02,1.22.21,1.8,1.82.01,3.63.02,5.45.02h.46c8.79,0,17.56-.14,26.31-.43.23,0,.42-.17.42-.38l-.08-9.37-1.7-.29c-2.17-.05-10.08-.28-11.55-1.44-.07-.05-.15-.08-.24-.08-.05,0-.1,0-.14.03" style="fill: none;"/>
    </clipPath>
    <linearGradient id="aq" x1="-414.9" y1="-239.78" x2="-414.88" y2="-239.78" gradientTransform="translate(16010.91 -3366.46) scale(38.53 -15.19)" gradientUnits="userSpaceOnUse">
      <stop offset="0" stop-color="#db5f45"/>
      <stop offset=".41" stop-color="#d8424b"/>
      <stop offset="1" stop-color="#d8424b"/>
    </linearGradient>
  </defs>
  <path id="b" data-name="blob" d="m2.15,91.57c9.79-28.97,53.13-40.73,86.07-53.48,32.95-12.92,55.66-26.81,81.68-19.57,25.86,7.24,55.19,35.6,58.11,70.41,3.08,34.81-20.26,76.21-56.05,97.77-35.64,21.73-83.76,23.95-119.79,1.89C16.3,166.54-7.47,120.54,2.15,91.57Z" style="fill: #d9eee7;"/>
  <g id="c" data-name="step">
    <g id="d" data-name="Mask Group 4">
      <g id="e" data-name="consultation">
        <g id="f" data-name="Group 1766">
          <g id="g" data-name="Group 1765">
            <path id="h" data-name="Path 1232" d="m89.64,98.77c.08-.47.02-.94-.17-1.38-.98-2.95-2.55-8.66-4.71-17.14-3.24-12.7-4.97-25.73-5.17-38.83l-21.22-2.16c5.67,8.32,10.08,17.42,13.11,27.03.46,1.59,1.05,3.15,1.75,4.65,1.09,3.21,1.8,6.54,2.11,9.91.63,5.3.9,10.64.82,15.97l-.12,3.52c-2.11-.19-4.09,1.03-4.87,3-.45.14-.64.47-.76,1.2-.22,1.33-.41,2.66-.59,3.99h22.16l-1.68-9.05c-.2.2-.39.41-.59.61.01-.44-.02-.89-.1-1.33" style="fill: #fff;"/>
            <path id="i" data-name="Path 1233" d="m155.6,25.64c1.62,0,3.24.26,4.78.78,1.69.86,3.26,1.94,4.67,3.2,5.44,5.81,9.44,14.06,12.53,21.35,1.78,4.03,4.84,10.83-.48,12.72-3.35,1.09-6.89,1.48-10.39,1.15l-2.04-1.44c-.98-2.36-1.55-4.88-1.67-7.44-.1-2.76-.21-4.21-.3-6.38,0-.13.08-.25.21-.28,2.72-.6,4-2.04,3.87-4.3-.18-3.06-4.05-3.1-3.84-.64.03.36.06,1.76-.71.58-1.24-1.96-3.14-3.43-5.36-4.12-3.9-1.27-7.62-3.03-11.08-5.24-.08-.05-.18-.03-.24.05,0,0,0,.01-.01.02-1.23,2.72-1.78,5.7-1.6,8.69.01.06-.01.13-.06.17l-.09.05c-.48-1.95-.81-3.92-1-5.91-.22-3.16,1.35-5.62,2.96-8.17.7-.92,1.53-1.72,2.46-2.4,2.24-1.38,4.76-2.21,7.38-2.44" style="fill: #1c162e;"/>
            <path id="j" data-name="Path 1234" d="m164.68,63.39l-11.96,12.46-.34-.19c-.11-.06-.18-.16-.2-.28-.05-.41-.66-4.47-1.58-4.03.47-2.36,1.3-4.64,2.46-6.76l.45-6.36c.05-.71-.28-.99-.99-.82-.71.19-1.46.23-2.19.13-2.18-.4-4.33-4.61-5-6.5-.54-1.98-1.78-3.68-1.54-5.69l.03-.79.09-.05c.05-.04.07-.11.06-.17-.17-2.98.37-5.96,1.6-8.69.04-.09.14-.13.23-.09,0,0,0,0,0,0h.02c3.45,2.22,7.18,3.98,11.08,5.26,2.22.7,4.12,2.16,5.36,4.12.77,1.18.74-.22.71-.58-.21-2.46,3.65-2.42,3.84.64.14,2.26-1.15,3.69-3.87,4.3-.13.03-.22.14-.21.28.09,2.16.2,3.62.3,6.38.12,2.56.69,5.07,1.67,7.44" style="fill: #fdb597;"/>
            <path id="k" data-name="Path 1235" d="m145.32,51.04c.67,1.88,2.82,6.1,5,6.5.73.1,1.47.06,2.19-.13.71-.16,1.05.11.99.82l-.45,6.36-6.09,1.55-.2-.79-1.45-14.32Z" style="fill: #1a142c;"/>
            <path id="l" data-name="Path 1236" d="m164.68,63.39l2.04,1.44,3.83,3.51c-2.35,2.59-4.53,5.32-6.55,8.18-.11.15-.31.19-.46.08-1.19-.83-2.49-1.49-3.86-1.95-.09-.03-.18.02-.21.11,0,.02,0,.05,0,.07l.41,5.27c.01.23-.15.43-.38.46-2.67.4-5.2.7-7.61.89-.57.14-1.14-.21-1.28-.78-.03-.11-.04-.23-.03-.34.84-1.43,1.55-2.93,2.14-4.49l11.96-12.47Z" style="fill: #fefefe;"/>
            <path id="m" data-name="Path 1237" d="m153.05,64.59c-1.16,2.11-1.99,4.39-2.46,6.76-.31,3.69-.91,7.36-1.79,10.96-.38,1.7-1.31.79-1.9.07-.71-.87-1.5-1.79-2.37-2.76-.25-.28-.26-.69-.03-.98,1.04-1.33,1.93-2.77,2.64-4.29.31-.65.11-.87-.61-.67l-2.41.66c-.17.04-.34-.07-.39-.24,0,0,0,0,0,0,0-.04-.01-.07-.01-.11l.25-6.95,2.87-.77c.06-.01.1-.06.11-.11l6.09-1.55Z" style="fill: #fff;"/>
            <path id="n" data-name="Path 1238" d="m146.76,65.36l.2.79c-.01.06-.06.1-.11.11-.52-.2-.54-.5-.08-.9" style="fill: #f6e1c8;"/>
            <path id="o" data-name="Path 1239" d="m143.97,67.03l-.25,6.95c-.01.18.12.34.3.36.03,0,.07,0,.1,0l2.41-.66c.71-.2.92.03.61.67-.72,1.53-1.6,2.97-2.64,4.29-.23.29-.22.71.03.98.86.96,1.65,1.88,2.37,2.76.59.73,1.52,1.62,1.9-.07l.02.19c.01.15.06.17.15.05l1.61-2.21c-.05.58.38,1.09.96,1.15.11.01.23,0,.34-.03,2.41-.19,4.95-.48,7.61-.89.23-.03.39-.23.38-.46l-.41-5.27c-.01-.09.05-.17.14-.19.02,0,.05,0,.07,0,1.37.46,2.68,1.12,3.86,1.95.15.1.36.07.46-.08,2.01-2.86,4.2-5.59,6.55-8.18l1.14,1.04-7.21,9.89c-.07.11-.18.18-.3.22-.37.09-.75.04-1.08-.14-.42-.22-.61-.09-.57.38.06.72-.09,1.45-.43,2.09-.06.11-.16.2-.27.26l-9.64,4.77c-.39.09-.67.43-.7.83,0,.07-.03.13-.07.18-.96,1.12-1.75,2.38-2.33,3.74-.03.12-.13.22-.26.25-.37.04-.8-2.28-1.01-2.74-.37-.8-.95-.96-1.45-1.69-.06-.11-.18-.16-.3-.14-.18.06-.26.22-.22.46-.35-2.43-1.96-4.39-3.05-6.51-.15-.28-.27-.27-.36.03-.13.42-3.21,11.16-4.09,9.32-.05-.12-.05-.25,0-.37,1.42-3.5,2.52-7.12,3.29-10.82.27-1.05.43-2.12.48-3.21.11-2.99.44-5.97,1-8.92l.86-.25Z" style="fill: #fdc668;"/>
            <path id="p" data-name="Path 1240" d="m143.11,67.28c-.56,2.94-.89,5.92-1,8.92-.05,1.08-.21,2.16-.48,3.21-.77,3.69-1.87,7.31-3.28,10.8-.05.12-.05.25,0,.37.88,1.83,3.97-8.9,4.09-9.32.09-.3.21-.32.36-.03,1.08,2.11,2.7,4.07,3.05,6.51.06,4.05,0,8.09-.18,12.13.09,1.2.27,2.38.53,3.56-1.62-3.27-3.29-6.51-5-9.71-1.49-2.8-4.95-2.84-7.66-3.72-.1-.08-.12-.22-.04-.32.01-.02.03-.03.04-.04.39-.19.65-.57.69-1,.15-4.33.23-8.39,2.02-11.89,1.19-2.34,4.2-7.99,6.87-9.44" style="fill: #fefefe;"/>
            <path id="q" data-name="Path 1241" d="m171.69,69.39c1.2,1.02,2.49,1.92,3.86,2.7-4.04,2.05-4.54,6.18-4.11,10.33.54,5.05,1.2,10.09,2,15.1.22,1.55.53,3.09.93,4.61l-.58-.04c-.12-.01-.23.05-.28.15l-1.87,4.33-1.43,3.85-1.46,3.34-.72,1.38h-.17c-3.49-1.18-7.01-2.28-10.56-3.28-.48-.17-1.02-.05-1.39.3-1.75.06-3.47-.41-4.95-1.33.41-5.41.67-10.83.78-16.23.05-2.5.33-5.14.44-7.76l9.64-4.77c.11-.06.21-.15.27-.26.34-.64.49-1.37.43-2.09-.04-.47.15-.59.57-.38.33.18.72.23,1.08.14.12-.04.23-.12.3-.22l7.21-9.89Z" style="fill: #fff;"/>
            <path id="r" data-name="Path 1242" d="m152.71,75.85c-.59,1.55-1.3,3.05-2.14,4.49l-1.61,2.21c-.09.12-.14.1-.15-.05l-.02-.18c.88-3.6,1.48-7.26,1.79-10.96.92-.43,1.53,3.62,1.58,4.03.02.12.09.22.2.28l.35.19Z" style="fill: #fdc668;"/>
            <path id="s" data-name="Path 1243" d="m175.11,106.65c-.04-.12-.05-.25-.02-.38l-.3-2.41c-.12-.59-.26-1.16-.43-1.73-.4-1.52-.71-3.06-.93-4.61-.79-5.02-1.46-10.05-2-15.1-.44-4.15.06-8.28,4.11-10.33.25-.03.51.06.67.26-5.08.94-4.21,8.14-3.76,11.64,1.14,8.99,2.33,17.97,3.56,26.95.03.12-.04.24-.16.27,0,0,0,0-.01,0-.15-.23-.23-.51-.23-.79,0-.12-.05-.24-.15-.31l-.35-3.45Z" style="fill: #f87028;"/>
            <path id="t" data-name="Path 1244" d="m183.93,75.41c.55,1,.98,2.06,1.28,3.15,1.3,11.04,2.34,22.11,3.84,33.12.26,2.89.42,5.78.47,8.68.07,3.58-1.32,7.05-5.32,7.57-2.5.1-5.01-.19-7.43-.84-1.96-.45-3.89-1.01-5.78-1.7-5.79-1.69-11.45-3.78-16.96-6.24.28-2.37.99-4.66,2.09-6.78.45-.36,9.86,2.48,11.73,2.76h.17l3.48.79h.07c.15.11.33.15.51.11.78.13,1.58.12,2.36-.03,2.54-.61,1.8-4.66,1.4-4.62-.02-.06-.02-.13,0-.2.12-.02.2-.14.17-.26,0,0,0,0,0,0-1.23-8.98-2.42-17.96-3.56-26.95-.45-3.5-1.32-10.7,3.76-11.64,3.38-.8,5.95.22,7.71,3.07" style="fill: #fff;"/>
            <path id="u" data-name="Path 1245" d="m125.58,87.96l1.77.31c-.28.81,0,1.71.67,2.23,1.95,1.57,3.7,1.59,5.28.07,1.28.16,2.55.44,3.79.81,1.89.52,2.82.95,3.82,2.77,2.39,4.35,4.62,8.79,6.69,13.32l-2.34-.92c-.12-.04-.24-.03-.36,0l-.64.18c-.74.21-.85.47-.35.79l1.46.91c.28.18.28.27-.02.27h-1.84c-.38,0-.72.26-.83.63-.16.58.42.69.82.86,1,.44,1.95.98,2.84,1.62.37.27.33.34-.11.23-.77-.19-3.79-1.25-3.58.26.02.13.1.23.21.29.77.39,1.51.85,2.19,1.38,1.76,1.46,3.59,2.85,5.48,4.18-3.58-.51-7.11-1.28-10.58-2.29-2.2-.74-4.45-1.34-6.73-1.81-.39-.08-.72-.33-.91-.68l-3.42-6.78c-.17-1.04,1.61-2.33-.57-2.93-.19-.08-.29-.3-.22-.5l.36-1.52c.03-.15-.06-.3-.21-.33,0,0,0,0,0,0-.01,0-.03,0-.04,0l-1.96-.18c-.16,0-.28-.14-.28-.3,0-.02,0-.05.02-.07.24-.63.06-1-.56-1.1-.69-.11-1.36-.3-2-.58-1.88-3.4-3.58-6.9-5.07-10.48-1.46-3.51,5.12-1.15,7.24-.66" style="fill: #fb8c9c;"/>
            <path id="v" data-name="Path 1246" d="m152.19,86.85c-.11,2.61-.39,5.26-.44,7.76-.11,5.41-.37,10.82-.78,16.23-1.02-.3-1.88-1-2.38-1.94l-2.39-5.48c-.26-1.17-.44-2.36-.53-3.56.18-4.04.24-8.08.18-12.12-.04-.24.03-.4.22-.46.12-.02.24.03.3.14.5.73,1.08.89,1.45,1.69.21.46.63,2.78,1.01,2.74.12-.03.22-.13.26-.25.58-1.36,1.37-2.62,2.33-3.74.04-.05.07-.11.07-.18.02-.4.31-.74.7-.83" style="fill: #fdc668;"/>
            <path id="w" data-name="Path 1247" d="m133.54,89.62c-.1.08-.12.22-.04.32.01.02.03.03.04.04-.27-.05-.35.14-.24.58-1.57,1.52-3.33,1.49-5.28-.07-.68-.52-.95-1.42-.67-2.23,2.13.05,4.23.51,6.19,1.36" style="fill: #f16e4b;"/>
            <path id="x" data-name="Path 1248" d="m133.54,89.98c2.7.88,6.17.93,7.66,3.72,1.71,3.2,3.37,6.44,5,9.71l2.39,5.48c-.58-.24-.97-.8-.99-1.43-2.07-4.52-4.3-8.96-6.69-13.32-.99-1.81-1.93-2.25-3.82-2.77-1.24-.38-2.51-.65-3.79-.81-.11-.44-.02-.63.24-.58" style="fill: #070409;"/>
            <path id="y" data-name="Path 1249" d="m123.41,99.1c.64.27,1.31.47,2,.58.62.1.8.46.56,1.1-.05.15.03.3.18.35,0,0,0,0,.01,0,.03,0,.05.01.08.02l1.96.18c.15,0,.27.14.27.3,0,.01,0,.03,0,.04l-.36,1.52c-.07.2.03.42.22.5,2.18.6.4,1.89.57,2.93-.29.14-.41.29-.36.45-.74.97-1.77,1.68-2.93,2.06-.42.17-.89.05-1.18-.3-1.3-1.39-2.13-4.65-2.53-6.49l-.52-2.25c-.03-.12,0-.25.09-.34.5-.52,1.23-.76,1.94-.64" style="fill: #fdb597;"/>
            <path id="z" data-name="Path 1250" d="m121.89,102.32c.41,1.84,1.23,5.11,2.53,6.49.29.34.76.46,1.18.3,1.16-.37,2.18-1.09,2.93-2.06.41-.04,3.25,5.92,3.66,6.68.15.3.43.52.76.61l7,1.53c3.47,1.01,7,1.77,10.58,2.29,1.19-.03,2.35.34,3.32,1.03-.26.58-.08,1.04.57,1.39,5.17,2.71,10.79,4.43,16.58,5.09.56.32.56.62,0,.92l-4.53.1-27.01-.98-9.93-.39c-.13,0-.25.05-.34.13-1.16,1.06-2.61,1.73-4.17,1.92-7.06-2.24-4.91-14.25-4.44-19.52.14-1.56.35-3.11.61-4.65.11-.38.37-.69.71-.87m9.32,10.84l-2.53-5.02c-.05-.11-.17-.17-.29-.16-.39.06-.58.34-.57.85.09,2.91.23,5.17.42,6.8.23,1.24.25,2.5.07,3.75-.5,1.47-.65,3.03-.41,4.57.09.58.74,1.21.82.11.24-3.35,1.66-6.4,3.22-9.25.06-.11.09-.24.07-.37-.06-.38-.26-.72-.56-.97-.1-.08-.19-.18-.25-.3m16.05,10.61c.17.21.38.39.6.54.1.06.23.06.32-.02.89-.73,4.77-5.02,1.92-5.61-1.37-.28-2.71-.5-4.03-.66-.39-.09-.78.15-.87.54,0,.02,0,.03-.01.05-.77,2.91.51,3.32,2.06,5.16" style="fill: #fff;"/>
            <path id="aa" data-name="Path 1251" d="m147.6,107.46c.02.63.41,1.19.99,1.43.5.94,1.36,1.64,2.38,1.94,1.48.92,3.21,1.39,4.95,1.33.15-.01.22.06.21.21-1.1,2.12-1.8,4.41-2.09,6.78l-.2.03c-.97-.7-2.13-1.06-3.32-1.03-1.89-1.33-3.72-2.73-5.48-4.18-.69-.53-1.42-.99-2.19-1.38-.11-.06-.19-.17-.21-.29-.21-1.51,2.81-.45,3.58-.26.44.11.48.04.11-.23-.89-.64-1.84-1.18-2.84-1.62-.4-.18-.98-.28-.82-.86.11-.37.45-.62.83-.61h1.84c.3-.01.31-.1.02-.28l-1.46-.91c-.5-.32-.39-.58.35-.79l.64-.18c.11-.04.24-.04.36,0l2.34.92Z" style="fill: #fdb597;"/>
            <path id="ab" data-name="Path 1252" d="m128.89,106.6l3.42,6.78c.18.35.52.61.91.68,2.28.46,4.53,1.07,6.73,1.81l-7-1.53c-.33-.08-.61-.3-.76-.61-.41-.77-3.25-6.72-3.66-6.68-.04-.17.08-.32.36-.45" style="fill: #1c162e;"/>
            <path id="ac" data-name="Path 1253" d="m131.46,113.46c.3.24.49.59.56.97.02.13,0,.26-.07.37-1.56,2.85-2.97,5.91-3.21,9.25-.08,1.1-.73.47-.82-.11-.24-1.53-.09-3.1.41-4.57.18-1.24.16-2.51-.07-3.75-.19-1.63-.33-3.89-.42-6.8-.02-.51.17-.79.57-.85.12-.01.23.05.29.16l2.53,5.02c.06.12.15.22.25.3" style="fill: #fed9ca;"/>
            <path id="ad" data-name="Path 1254" d="m167.86,115.14c-1.87-.28-11.28-3.12-11.73-2.76.01-.15-.06-.22-.21-.21.37-.36.91-.48,1.39-.3,3.55,1,7.06,2.09,10.56,3.28" style="fill: #facba6;"/>
            <path id="ae" data-name="Path 1255" d="m147.26,123.76c-1.55-1.84-2.83-2.25-2.06-5.16.06-.4.43-.67.83-.61.02,0,.04,0,.05.01,1.31.15,2.65.37,4.03.66,2.85.59-1.03,4.88-1.92,5.61-.09.08-.22.08-.32.02-.23-.15-.43-.33-.6-.54" style="fill: #fdc668;"/>
            <path id="af" data-name="Path 1256" d="m153.85,119.2l.2-.03c5.5,2.47,11.17,4.55,16.96,6.24v.27c-5.8-.65-11.42-2.38-16.58-5.09-.64-.35-.83-.81-.57-1.39" style="fill: #fcd3c4;"/>
            <path id="ag" data-name="Path 1257" d="m139.46,125.7l27.01.99c-.56.7.15,1.72.3,2.35,1.84,8.13,3,16.4,3.45,24.73-11.83-.26-23.65-.74-35.47-1.47.64-4.97,1.42-9.83,2.36-14.58l2.35-12.01Z" style="fill: #1c162e;"/>
            <path id="ah" data-name="Path 1258" d="m171,126.59c2.76,8.33,4.87,16.86,6.31,25.52.04.48-.11.97-.4,1.35-2.21.36-4.46.46-6.69.31-.45-8.32-1.61-16.6-3.45-24.73-.14-.62-.86-1.65-.3-2.35l4.53-.1Z" style="fill: #393b40;"/>
            <path id="ai" data-name="Path 1259" d="m134.74,149.57c11.82.64,23.64,1.07,35.47,1.3,2.24.13,4.48.04,6.69-.27l.24,7.35-.29,5.98-.81,17.62-1.28,29.28-2.18,45.92c0,.11-.08.21-.19.25-.38.14-.8.18-1.2.11l-7.1-.03c1.74.23,1.54-.58,1.43-1.62-1.62-14.45-3.32-28.89-5.09-43.32-2.31-18.91-3.77-38.2-4.35-57.87,0-.24-.21-.43-.48-.45l-4.59-.13c-.11,0-.2.08-.2.17h0c.09,4.41.34,9.63.76,15.67,1.98,28.7,5.5,56.15,9.07,84.17.06.19-.02.39-.2.51l-6.7.52c.23-.27.16-.49-.22-.66-.54-.24-.82-.48-.86-.72-.73-3.96-1.48-7.92-2.27-11.87-.32-1.58-.54-3.51-.91-5.26-.8-3.78-1.36-7.39-2.11-11.08-.4-1.98-.55-4.26-.99-6.38-.97-4.65-1.81-9.32-2.52-14.01-.48-3.21-1.57-7.22-1.76-10.97-.02-.11-.05-.22-.1-.33-.11-.28-.2-.56-.25-.85-.61-2.72-1.05-5.97-1.47-8.19-1.04-5.55-2.02-11.1-2.96-16.66-.05-.29.13-1.02-.62-.65-.72-3.62-1.29-7.25-1.7-10.91l-.26-6.62Z" style="fill: #1c162e;"/>
            <path id="aj" data-name="Path 1260" d="m164.1,257.07l-1.94.11c-.16-.09-.36-.12-.54-.06-.5-.8-.78-1.71-.79-2.62.01-.11-.05-.22-.16-.28-.07-.02-.14-.03-.21-.02.18-.12.25-.32.2-.51-3.56-28.01-7.09-55.47-9.07-84.17-.42-6.03-.67-11.25-.76-15.66,0-.1.08-.18.19-.18h0l4.59.13c.27.01.48.21.48.45.59,19.67,2.04,38.96,4.35,57.87,1.77,14.43,3.46,28.87,5.09,43.32.12,1.04.32,1.85-1.43,1.62" style="fill: #393b40;"/>
            <path id="ak" data-name="Path 1261" d="m153.75,254.72l-.67.1c-.32.07-.54-.15-.64-.67-4.88-25.18-8.38-44.68-12.32-67.02l-3.43-20.03c.76-.37.58.35.62.65.93,5.56,1.92,11.11,2.96,16.66.41,2.21.85,5.47,1.47,8.19.06.29.14.57.25.85.05.1.09.21.1.33.19,3.75,1.28,7.76,1.76,10.97.7,4.69,1.54,9.36,2.52,14.01.45,2.12.59,4.4.99,6.38.75,3.69,1.3,7.3,2.11,11.08.37,1.75.59,3.68.91,5.26.79,3.95,1.55,7.91,2.27,11.87.04.24.33.48.86.72.38.17.46.39.22.66" style="fill: #070409;"/>
            <path id="al" data-name="Path 1262" d="m160.45,254.2c.07,0,.14,0,.21.02.11.06.17.16.16.28.01.92.28,1.82.79,2.62.22,3.29.3,6.59.24,9.9-.01.46.26.87.28.21.13-3.34.14-6.69.02-10.05l1.94-.11,7.1.03-.08,9.92-.02,4.08c-2.17-.05-10.08-.28-11.55-1.44-.1-.08-.25-.1-.38-.05-1.72.66-1.89,2.18-3.84,2.12-1.78-.03-3.56-.23-5.3-.59-.12-.03-.22-.11-.27-.21-.17-.3-.47-.53-.84-.62l1.7-.95c.84-.43,2.97-1.36,2.58-2.15l-.11-12.4.67-.1,6.7-.52Z" style="fill: #fdb597;"/>
            <path id="am" data-name="Path 1263" d="m161.61,257.12c.18-.05.38-.03.54.06.12,3.36.11,6.71-.02,10.05-.02.66-.29.25-.28-.21.06-3.32-.02-6.62-.24-9.9" style="fill: #ebdfd6;"/>
          </g>
        </g>
        <g id="an" data-name="Group 1768">
          <g style="clip-path: url(#ao);">
            <g id="ap" data-name="Group 1767">
              <rect id="ar" data-name="Rectangle 1364" x="138.49" y="269.58" width="34.38" height="11.98" style="fill: url(#aq);"/>
            </g>
          </g>
        </g>
        <g id="as" data-name="Group 1770">
          <g id="at" data-name="Group 1769">
            <path id="au" data-name="Path 1265" d="m141.21,273.3c-.62.58-1.41.99-2.27,1.19-.28.06-.44.31-.37.56h0l1.46,4.52c-1.74-.26-3.52-.36-5.28-.29-.11.01-.22-.06-.23-.16h0s-.05-2.15-.05-2.15c.01-.35.24-.67.6-.82l6.14-2.85Z" style="fill: #bd606d;"/>
            <path id="av" data-name="Path 1266" d="m88.27,10.85c-3.9-.43-8.42-.38-12.6-1.3-.11-.02-.21.04-.24.15-.73,3.28-2.53,6.21-5.12,8.35-.83.69-1.47,1.57-1.87,2.57-.09.04-.16.11-.2.2-.78-1.2-.56-3.91-2.89-3.24-2.17.62-2.34,3.94-.98,5.4.87.94.58,3.3.3,4.78-.03.12-.11.22-.21.28l-.91.67c.24-3.55-.24-7.98-.27-10.52s0-5.08.09-7.62c.12-3.33,1.01-6.57,4.56-7.21.13-.02.23-.11.28-.23,1.66-4.36,4.46-3.27,8.23-2.08,4.08,1.29,8.12,2.69,12.12,4.21,1.27.48,3.04,1.48,2.82,3.22-.23,1.79-1.26,2.58-3.09,2.36" style="fill: #1a142c;"/>
            <path id="aw" data-name="Path 1267" d="m88.27,10.85c-.3.09-.26.21.1.35.15.06.24.2.25.35.34,5.81-.55,10.21-1.93,16.18-1.14,4.9-2.26,10.83-8.4,11.19-.12,0-.23.08-.28.19-1.09,2.53-2.71,4.79-4.74,6.64-.12-.06-.26-.07-.38-.02l-11.11-5.38c-.15-.07-.23-.23-.2-.39l1.96-11.27.91-.67c.1-.06.18-.17.21-.28.28-1.48.57-3.84-.3-4.78-1.36-1.46-1.19-4.77.98-5.4,2.33-.67,2.11,2.05,2.89,3.24l-.65,1.71c-.07.17,0,.37.18.44.02,0,.03.01.05.02,1.46.3.66-1.64.61-2.36.4-1,1.05-1.88,1.87-2.57,2.59-2.14,4.39-5.08,5.12-8.35.02-.11.13-.17.24-.15,4.18.91,8.7.87,12.6,1.3" style="fill: #fcb195;"/>
            <path id="ax" data-name="Path 1268" d="m68.44,20.63c.05.71.84,2.66-.61,2.36-.18-.04-.29-.22-.25-.4,0,0,0,0,0,0,0-.02,0-.04.02-.06l.65-1.71c.04-.09.11-.16.2-.2" style="fill: #1c162e;"/>
            <path id="ay" data-name="Path 1269" d="m89.64,98.77c-.12.39-.48.52-1.11.36-1.11-.28-2.23-.51-3.36-.68-.31-.05-.62.1-.77.37-.28.51-.56.67-.84.47-2.18,1.62-4.71,2.71-7.39,3.19,0,0-.02,0-.02,0-.08-.01-.14-.08-.13-.16l.02-.96c-.36-.05-.51.05-.45.3.03.13.05.26.05.39-.17,1.89,1.13.88,1.86.64,1.29-.42,3.38-1.52,4.68-1.1.12.04.23.12.29.24.19.32.21.72.06,1.06h0c-.03.1.01.2.1.24l1.31.46c.1.05.16.15.16.27.02.48,1.03.14.29.87-.16.16-.25.37-.24.6.02.99.56,1.41,1.61,1.24.26-.04.51-.12.74-.25.43-.22.5-.4.21-.52-.48.2-1,.31-1.53.32-.82-.06-.96-.4-.44-1.02.6-.73,1.25-1.42,1.95-2.06,1.05-.95,2.06-1.93,3.07-2.93.01-.44-.02-.89-.1-1.33" style="fill: #fcb195;"/>
            <path id="az" data-name="Path 1270" d="m73.27,45.76l2.16,3.18c.12.19.07.44-.12.56,0,0,0,0,0,0-.03.02-.07.04-.1.05-.84.3.22,2.66.35,3.32,2.99,15.39,5.4,30.95,8,46.41-2.18,1.62-4.71,2.71-7.39,3.19-.08,0-.15-.05-.15-.13,0,0,0,0,0,0,0,0,0-.02,0-.03l.02-.96.15-4.53c.08-5.34-.2-10.67-.82-15.97-.32-3.37-1.03-6.7-2.11-9.91-.42-3.27-.93-9-1.53-17.2-.11-.99-.06-1.99.14-2.97.02-.11-.01-.23-.1-.32l-.82-.89c-.08-.1-.1-.23-.06-.35.41-1.3,1.09-2.48,2.02-3.48.12-.05.26-.05.38.02" style="fill: #da7629;"/>
            <path id="ba" data-name="Path 1271" d="m71.61,79.3c.54-.46,1.35-.4,1.81.13.46.54.4,1.35-.13,1.81-.51.44-1.27.41-1.75-.07-.5-.54-.46-1.38.07-1.87" style="fill: #fff;"/>
            <path id="bb" data-name="Path 1272" d="m122.08,91.69l-6.13,6.62c-.93-.67-1.86-1.32-2.81-1.95-1.56-1.03-2.55.22-1.38,1.55.09.11,2.44,2.68,1.7,2.3-.52-.27-6.41-3.2-6.32-1.77.05.89,3.58,2.94,4.14,3.49.52.5.45.61-.21.32-1.63-.72-3.34-1.24-5.09-1.57-.8-.15-2.32.29-.78,1.32.32.21,2.83,1.75,2.85,1.87s-.04.15-.19.07c-1.28-.65-3.38-2.29-4.81-1.97-.19.04-.31.24-.27.43,0,0,0,0,0,0,0,.03.02.06.03.09.71,1.26,1.7,2.34,2.91,3.14.47.32.42.53-.14.62l-6.86,1.21-6.7,1.09-4.01.56c.23-.79.8-1.42,1.56-1.73,1.37-.61,4.53-2.48,4.33-4.29-.01-.12-.12-.21-.24-.2,0,0,0,0,0,0h-.01c-2.31.36-4.55,1.94-6.75,2.8-.51-.23-1.09-.23-1.6,0-.17.07-.28.05-.33-.06-.03-.13,0-.26.1-.35,1.51-2,3.73-3.58,5.18-5.1,5.33-5.59,8.67-9.15,10.03-10.66,2.35-2.63,4.11-2.68,7.8-3.08,1.24-.14,2.49-.22,3.75-.25l.36,1.66c.04.12.14.21.27.23,2.42.57,4.97-.07,6.83-1.72l.64-.91c.06-.1.17-.18.28-.21l5.78-.9c2.64-.21,1.3,1.61.54,2.46-1.46,1.63-2.94,3.26-4.42,4.89" style="fill: #30596a;"/>
            <path id="bc" data-name="Path 1273" d="m120.12,84.62c-.42.5-.71,1.1-.86,1.73-1.86,1.65-4.41,2.29-6.83,1.72-.13-.02-.23-.11-.27-.23l-.36-1.66.1-.49c.28-.33.67-.55,1.1-.61,2.32-.62,4.73-.78,7.11-.46" style="fill: #f16e4b;"/>
            <path id="bd" data-name="Path 1274" d="m125.96,84.33l-5.78.9c-.12.03-.22.1-.28.2l-.63.91c.14-.64.43-1.23.86-1.74l5.84-.28Z" style="fill: #1c162e;"/>
            <path id="be" data-name="Path 1275" d="m111.91,85.69l-.1.49c-1.25.03-2.5.11-3.75.25-3.69.41-5.45.45-7.8,3.08-1.36,1.51-4.7,5.07-10.03,10.66-1.46,1.53-3.67,3.11-5.18,5.1-.09.09-.12.22-.1.35.04.1.15.12.33.06.51-.22,1.09-.22,1.6,0-.11,0-.17.03-.2.1-.48.2-1,.31-1.53.32-.81-.06-.96-.4-.44-1.02.6-.73,1.25-1.42,1.95-2.06,4.91-4.44,9.26-9.55,13.97-14.45,1.29-1.44,3.14-2.24,5.07-2.2l6.2-.69Z" style="fill: #070409;"/>
            <path id="bf" data-name="Path 1276" d="m93.89,103.07c-.02-.12-.13-.2-.25-.19-2.31.36-4.55,1.94-6.75,2.8-.11,0-.17.03-.2.1.29.12.22.3-.21.52-.23.12-.48.21-.74.25-1.05.17-1.59-.24-1.61-1.24,0-.22.08-.44.24-.6.74-.73-.27-.39-.29-.87,0-.11-.06-.22-.16-.27l-1.31-.46h-.01c-.09-.04-.13-.14-.09-.23.16-.34.13-.74-.06-1.06-.06-.11-.17-.2-.29-.24-1.29-.42-3.39.68-4.68,1.1-.73.24-2.03,1.25-1.86-.64,0-.13-.02-.26-.05-.39-.06-.25.09-.35.45-.3l.03-1.01c-2.11-.19-4.09,1.03-4.87,3,.24-.07.48-.1.73-.1.55-.02.58.09.08.32-1,.46-.83.9-.74,1.98.25,2.86.63,5.7,1.12,8.53.93.71,2.16.9,3.25.49l.27-1.8c.02-.12.09-.23.19-.3.65-.37,1.42-.46,2.14-.27,2.36-.45,4.66-1.14,6.87-2.07.92-.47,1.89-.81,2.9-1.03.23-.79.8-1.42,1.56-1.73,1.37-.61,4.53-2.48,4.33-4.29h0" style="fill: #fcb195;"/>
            <path id="bg" data-name="Path 1277" d="m116.59,112.6c.22-.36.41-.75.56-1.14.24-.88.41-1.79.49-2.7.18-1.35.57-2.66,1.16-3.88-.41-2.39-1.39-4.64-2.86-6.57-.93-.67-1.86-1.32-2.81-1.95-1.56-1.03-2.55.22-1.38,1.55.09.11,2.44,2.68,1.7,2.3-.52-.27-6.41-3.2-6.32-1.77.05.89,3.58,2.94,4.14,3.49.52.5.45.61-.21.32-1.63-.72-3.34-1.24-5.09-1.57-.8-.15-2.32.29-.78,1.32.32.21,2.83,1.75,2.85,1.87s-.04.15-.19.07c-1.28-.65-3.38-2.29-4.82-1.97-.03,0-.06.02-.09.03-.17.09-.24.31-.15.48,0,0,0,0,0,0,.71,1.26,1.7,2.34,2.91,3.14.47.32.42.53-.14.62l-.89.16c.7,4.96,6.96,7.03,11.91,6.2" style="fill: #fcb195;"/>
            <path id="bh" data-name="Path 1278" d="m104.69,106.4l-5.97,1.05c.8.11.55.7.65,1.19.49,2.56,1.2,5.07,2.13,7.5.58.75,1.1,1.53,1.59,2.34,1.19,2,6.21-.15,7.69-1.04,1.12-.66,2.19-1.39,3.21-2.19,1.04-.64,1.91-1.52,2.55-2.55.02-.03.04-.07.06-.11-4.94.83-11.21-1.24-11.91-6.2" style="fill: #488975;"/>
            <path id="bi" data-name="Path 1279" d="m72.38,114.08l-2.95.75c-.11.03-.23-.03-.27-.14-.05-.17-.05-.34,0-.51.33-3.22.76-6.43,1.28-9.63.17-1.03.47-1.27,1.48-1.3.55-.02.58.09.08.32-1,.46-.83.9-.74,1.98.25,2.86.63,5.7,1.12,8.53" style="fill: #fefefe;"/>
            <path id="bj" data-name="Path 1280" d="m98.72,107.46c.8.11.55.7.65,1.19.49,2.56,1.2,5.07,2.13,7.5l-.16.09c-.09.06-.14.18-.1.28l11.09,37.68c.16.56-.05.85-.63.86-1.01.03-2.91.46-3.81-.1-2.09-6.52-4.42-12.95-6.98-19.31-1.53-4.94-3.25-9.83-5.16-14.67l-.3-1.43-3.43-11.02,6.7-1.08Z" style="fill: #488975;"/>
            <path id="bk" data-name="Path 1281" d="m92.01,108.55l3.43,11.02-12.9.19,3.24-5.18c.17-.3.21-.66.12-.99l-.8-3.46c.92-.47,1.9-.81,2.91-1.03l4.01-.56Z" style="fill: #fff;"/>
            <path id="bl" data-name="Path 1282" d="m85.1,110.14l.8,3.46c.09.33.05.69-.12.99l-3.24,5.18-.58.12c-1.64-2.81-5.05-3.7-3.73-7.67,2.36-.45,4.66-1.14,6.87-2.07" style="fill: #da7629;"/>
            <path id="bm" data-name="Path 1283" d="m78.23,112.2c-1.33,3.97,2.09,4.86,3.73,7.67l-6.67.11.35-5.42.27-1.8c.02-.12.09-.23.19-.3.65-.37,1.42-.47,2.14-.27" style="fill: #fefefe;"/>
            <path id="bn" data-name="Path 1284" d="m95.44,119.56l.3,1.43,1.36,4.78c.07.22-.05.44-.27.51-.03,0-.07.01-.1.02-7.18.16-14.43.16-21.75,0l.31-6.31,6.67-.11.58-.12,12.9-.2Z" style="fill: #2a4c5d;"/>
            <path id="bo" data-name="Path 1285" d="m95.74,121c1.9,4.73,3.62,9.51,5.16,14.34-.13.11-.14.22-.04.31.56,5.86.87,11.73.93,17.61l-.3,16.76-1.87,76.79-.18,9.08-.22,9.62-.12,5.88c0,.12.08.22.19.27l11.92,4.91,1.88,1.22c.11.05.18.16.19.27l-.15,2.79c-.02.16-.16.29-.33.27l-26.11-.7c-.23-.01-.42-.2-.41-.43l-.07-5c0-.35-.15-.41-.43-.17-.19.13-.45.15-.66.05l-1.25-13.24-1.41-14.39c-2.18-26.2-4.84-52.51-7.27-78.53-.07-.72-.16-.72-.28,0-4.46,26.11-9.31,52.05-13.94,78.08l-.97,4.83-4.32,24.55c-.03.15.05.29.19.35l14.07,5.83c.71,1.37.86,2.94.42,4.41-.03.11-.14.18-.25.17l-4.21-.33-23.83-2.42c-.11-.01-.2-.11-.2-.22l.07-4.74c0-.17-.13-.3-.3-.31-.05,0-.1,0-.14.03-.11.05-.25.06-.36.01-.12-.04-.25-.05-.37-.02-.47.12-.63-.13-.51-.74.14-1.18.16-2.38.08-3.56l.13-4.8.46-12.64.69-21c.24-4.17.44-8.35.59-12.52.8-22.9,1.57-45.8,2.3-68.7.39-.05.78-.05,1.17,0,8.84.63,17.79,1.32,26.84,2.05.18.01.34-.12.36-.29h0s1.57-23.53,1.57-23.53l.52-7.03c7.32.16,14.57.16,21.75,0,.22,0,.4-.19.39-.41,0,0,0,0,0,0,0-.03,0-.07-.02-.1l-1.35-4.66Z" style="fill: #1c162e;"/>
            <path id="bp" data-name="Path 1286" d="m73.41,81.11c.46-.53.41-1.34-.13-1.81-.53-.46-1.34-.41-1.81.13-.44.51-.41,1.27.06,1.75.54.5,1.37.47,1.87-.07" style="fill: #fff;"/>
            <path id="bq" data-name="Path 1287" d="m105.39,77.8l-.25-8.18c-.09.77-.22.81-.38.13-.02-.09-.03-.18-.04-.27-.5-7.76-2.3-16.52-9.06-21.34-4.68-2.96-10.72-4.76-15.88-6.84-.02,0-.04-.01-.06-.01-.07,0-.13.06-.13.13,0,0,0,0,0,0,.2,13.1,1.94,26.13,5.17,38.83,2.16,8.48,3.73,14.19,4.71,17.14.19.43.25.91.17,1.38.08.44.11.88.1,1.33.2-.2.39-.41.59-.61,3.49-3.52,6.8-7.27,10.31-10.91,1.29-1.44,3.14-2.24,5.07-2.2-.33-2.85-.44-5.72-.32-8.58" style="fill: #488975;"/>
            <path id="br" data-name="Path 1288" d="m75.36,80.86c-.32-3.37-1.03-6.7-2.11-9.91-.71-1.5-1.29-3.06-1.75-4.65-3.02-9.6-7.44-18.71-13.11-27.03h0c-.06-.09-.18-.11-.27-.04l-3.23,2.41c-2.99,2.81-8.12,4.28-12.14,5.52-5.46,1.88-10.89,2.94-13.4,8.7-2.2,5.02-2.44,10.83-2.67,16.34-.22,5.14-.46,10.26-.73,15.35l-.2,4.95.03,1.38-.23,4.24c-.3,4.34-.38,8.69-.23,13.04.16,1.23.55,2.43,1.15,3.52.73,1.35,1.78,2.5,3.06,3.35.73.4,1.53.66,2.35.79,3.21.19,6.54.35,9.98.48.14,0,.25.12.25.26l-.27,13.14-.71,20.52c-.08.56-.02,1.13.17,1.66.04.12.14.21.26.26.65.24,2.81.28,2.96.64.39-.05.78-.05,1.17,0,8.84.65,17.79,1.35,26.84,2.1h0c.18.01.34-.12.36-.31,0,0,0,0,0,0l1.57-24.07.52-7.2.31-6.31.35-5.42c-1.1.41-2.33.22-3.25-.49l-2.94.75c-.11.03-.23-.03-.27-.14-.05-.17-.05-.34,0-.51.2-1.88.43-3.76.69-5.63.18-1.33.37-2.67.59-4,.12-.73.31-1.05.76-1.19.78-1.97,2.76-3.19,4.87-3l.12-3.52c.08-5.34-.2-10.67-.82-15.97m-1.11,50.76s.03,0,.05.01c-.03,0-.06,0-.1,0,.02,0,.03-.01.05-.01m-.83-50.51c-.54.46-1.35.4-1.81-.13s-.4-1.35.13-1.81c.51-.44,1.27-.41,1.75.07.5.54.46,1.38-.07,1.87" style="fill: #488975;"/>
            <path id="bs" data-name="Path 1289" d="m100.9,135.67c2.56,6.35,4.89,12.79,6.98,19.31-2.05-.18-4.09-.5-6.1-.97-.06-6.02-.37-12.02-.93-18.02-.1-.1-.09-.2.04-.32" style="fill: #cc673f;"/>
          </g>
        </g>
      </g>
    </g>
  </g>
</svg>