<?xml version="1.0" encoding="UTF-8"?>
<svg id="a" data-name="Layer 1" xmlns="http://www.w3.org/2000/svg" xmlns:xlink="http://www.w3.org/1999/xlink" viewBox="0 0 237.16 196.84">
  <defs>
    <linearGradient id="ay" x1="-387.99" y1="-553.45" x2="-387.83" y2="-553" gradientTransform="translate(25733.5 -36726.2) scale(66.12 -66.6)" gradientUnits="userSpaceOnUse">
      <stop offset="0" stop-color="#da7629"/>
      <stop offset="1" stop-color="#fcc357"/>
    </linearGradient>
    <linearGradient id="bl" x1="-388.14" y1="-551.96" x2="-388.05" y2="-551.35" gradientTransform="translate(27762.85 -45978.88) scale(71.31 -83.55)" gradientUnits="userSpaceOnUse">
      <stop offset="0" stop-color="#d8424b"/>
      <stop offset="1" stop-color="#db5f45"/>
    </linearGradient>
    <linearGradient id="bn" x1="-388.61" y1="-550.19" x2="-388.42" y2="-549.87" gradientTransform="translate(35339.89 -61991.11) scale(90.69 -112.87)" xlink:href="#ay"/>
    <linearGradient id="el" x1="-387.99" y1="-553.43" x2="-387.83" y2="-552.98" xlink:href="#ay"/>
    <linearGradient id="ey" x1="-388.14" y1="-551.95" x2="-388.05" y2="-551.34" xlink:href="#bl"/>
    <linearGradient id="fa" x1="-388.61" y1="-550.18" x2="-388.42" y2="-549.86" gradientTransform="translate(35339.89 -61991.11) scale(90.69 -112.87)" xlink:href="#ay"/>
  </defs>
  <path d="m1.07,73.31C10.61,17.15,75.2-5.07,136.66.96c81.09,7.96,108.21,55.01,98.68,111.17-9.53,56.16-66.61,93.32-127.49,82.98C46.97,184.78-8.46,129.48,1.07,73.31Z" style="fill: #d9eee7;"/>
  <g id="b" data-name="step02">
    <g id="c" data-name="files-laptop">
      <path id="d" data-name="Path 1140" d="m135.83,8.15c.35.2.75.29,1.15.27.27,0,.54.07.79.2,3.56,1.82,7.12,3.66,10.66,5.53,2.21,1.17,5.88,3.22,8.87,4.73,2.07,1.05,3.55,1.81,4.46,2.29,7.96,4.21,15.92,8.42,23.89,12.63,1.5.79,3.4,1.72,5.21,2.77,2.54,1.48,5.59,2.84,8.39,4.33.96.51,1.93.98,2.91,1.42.78.52,1.64.91,2.55,1.13,2.45,1.24,3.94,2.44,3.94,5.43,0,12.58.03,25.17.08,37.74,0,3.67.01,7.34,0,11.01,0,1.07-.09,3.03,0,4.56.04.95-.03,1.9-.21,2.83-.39.74-.96,1.38-1.65,1.86-19.67-10.2-39.34-20.42-58.98-30.64-.79-.41-1.62-.8-2.48-1.17.04-1.39-.06-2.79-.29-4.16-1.31-5.53-6.1-7.23-11.65-9.92V13.95c-.08-2.6-.26-4.96,2.33-5.79h.01Zm3.54,28.68v26.63c0,.14.07.28.2.34,21.15,10.76,42,21.76,63.02,32.62.06.03.12,0,.15-.05,0-.01.01-.03.01-.05v-26.22s.01-2.78.01-2.78c.28-.05.43-.17.43-.38.13-6.36.39-10.2-.05-15.25,0-.08-.04-.16-.1-.21-.06-.05-.13-.08-.21-.1,0-.15-.11-.28-.25-.33-7.82-4.09-15.64-8.19-23.45-12.28l-39.59-20.72s-.08,0-.11.03c0,.01,0,.03,0,.04l-.05,18.72h0Zm31.63-7.26c-.36,1.36,1.33,2.02,2.37,2.21.14.03.29-.04.36-.17.78-1.4-1.02-2.16-2.01-2.45-.25-.12-.55-.01-.67.24-.02.05-.04.11-.05.16h0Z" style="fill: #071c2f;"/>
      <path id="e" data-name="Path 1142" d="m179.12,38.77c-.06.22,0,.35.17.39.08.01.15.05.21.11.63.72.94,1.67.86,2.62,0,.14-.03.27-.09.39l-.47,1.11c-.68-.69-1.46-1.27-2.32-1.72-4.59-2.43-9.2-4.85-13.82-7.25-6.41-3.41-10.39-5.48-11.92-6.22-1.84-1.05-4.17-.54-5.4,1.17-1.1,1.65-2.11,3.36-3.02,5.12-1.03.37-2.13.49-3.21.36-.22-.03-.42.12-.46.33v.03l-.05,1.42c0,.08-.01.16-.06.23-.07.08-.13.07-.17-.04l.05-18.72s.03-.08.08-.08h0s.03,0,.04,0l39.59,20.72h0Z" style="fill: #ffe9d1;"/>
      <path id="f" data-name="Path 1143" d="m120.01,44.41c3.81.01,7.63,0,11.45-.07.24,0,.47-.18.3-.42-.05-.06-.13-.1-.21-.1l-11.14-.08" style="fill: #63a998;"/>
      <path id="g" data-name="Path 1144" d="m126.54,33.41c1.65-2.4,3.44-4.7,5.34-6.9.68-.77,1.21-.7,1.6.23v34.24c-.47-.3-.95-.58-1.44-.83-5.13-2.68-10.26-5.37-15.38-8.07-.03-.18,0-.37.08-.54,1.06-2.39,2.15-4.76,3.26-7.13l6.53-10.98h0Z" style="fill: #63a998;"/>
      <path id="h" data-name="Path 1145" d="m120.4,43.74c1.07-2.39,2.31-4.69,3.71-6.9.47-.78.98-1.54,1.54-2.26.16-.2.31-.42.45-.64,1.81.1,3.63.08,5.43-.05.08,0,.15-.05.2-.11.21-.3-.14-.41-.38-.41-1.59,0-3.2,0-4.83.05l-6.14,10.33h.01Z" style="fill: #63a998;"/>
      <path id="i" data-name="Path 1146" d="m163.68,34.42s-.03.07-.05.11c0,.07.03.13.1.15.68.23,1.3.61,1.8,1.12.59.86.43.94-.48.27-.07-.05-.15-.07-.23-.08-.77-.01-1.34-.31-2.12-.32-.95-.13-1.89-.39-2.77-.77-.55-.15-1.1-.33-1.65-.51-.89-.3-1.4-.94-2.5-1.02-.08,0-.16-.03-.23-.08-1.38-.95-2.97-1.56-4.62-1.8-.07,0-.12.04-.14.11-.09.61-1.62-.27-1.84-.49-.06-.06-.13-.1-.21-.11-.83-.14-1.54-.66-1.93-1.41-.02-.04-.07-.06-.12-.04,0,0,0,0,0,0,0,0-.01,0-.02.01-.27.26-.38.2-.34-.18,1.24-1.71,3.56-2.22,5.4-1.17,1.53.73,5.51,2.81,11.92,6.22h0Z" style="fill: #fdbf6c;"/>
      <path id="j" data-name="Path 1147" d="m173.36,31.78c-1.03-.19-2.73-.85-2.37-2.21.03-.27.27-.47.55-.45.06,0,.11.02.16.05.99.3,2.79,1.05,2.01,2.45-.07.13-.21.19-.36.17h0Z" style="fill: #fefefe;"/>
      <path id="k" data-name="Path 1148" d="m146.35,29.38c-.04.38.08.44.34.18.03-.04.09-.04.12,0,0,0,0,0,0,0,0,0,.01.01.01.02.38.75,1.1,1.27,1.93,1.41.08.02.15.06.21.11.23.22,1.75,1.11,1.84.49,0-.06.06-.11.12-.11,0,0,0,0,.01,0,1.66.24,3.24.86,4.62,1.8.07.04.15.07.23.08,1.11.08,1.61.72,2.5,1.02.55.18,1.09.35,1.65.51.88.38,1.81.64,2.77.77.77,0,1.34.3,2.12.32.08,0,.16.03.23.08.91.67,1.07.58.48-.27-.5-.51-1.12-.89-1.8-1.12-.06-.02-.1-.08-.1-.15,0-.04.02-.08.04-.11,4.62,2.4,9.22,4.81,13.82,7.25.85.45,1.64,1.03,2.32,1.72,1.42,1.6,1.93,3.28,2.65,5.47.25.63.63,1.2,1.12,1.67l-.18.48c-.03.09-.08.08-.13,0-.17-.29-.25-.27-.26.04,0,.06-.04.1-.09.11,0,0,0,0-.01,0h-.01c-2.04-.41-4.06-.95-6.03-1.6-.63-.19-1.22-.46-1.78-.8-1.43-.92-3.99-.52-4.8-1.27-.06-.06-.13-.09-.21-.09-.39-.01-.76-.15-1.06-.4-.07-.05-.14-.08-.22-.09-.61-.08-.72-.63-1.34-.77-.08-.02-.15-.06-.19-.13-.23-.34-.65-.52-1.05-.44-.08.01-.17,0-.24-.03-.65-.19-1.27-.48-1.84-.85-.06-.06-.12-.11-.19-.15l-.69-.14c-4.6-2.39-9.19-4.79-13.78-7.22-.96-.67-2.08-1.07-3.24-1.15-.58-.21-1.14-.48-1.68-.8-.38-.28-.79-.53-1.21-.74.92-1.76,1.93-3.46,3.02-5.12h0Z" style="fill: #fdc57b;"/>
      <path id="l" data-name="Path 1149" d="m143.33,34.5c.43.21.83.46,1.21.74.53.32,1.09.59,1.68.8-.5.11-.81.61-.7,1.1.02.09.05.17.1.25.45,1.2,1.4,1.6,2.8,2.36,7.6,4.07,15.24,8.07,22.92,12.01.5.26,1.08.33,1.64.2-.25.2-.29.36-.12.51.06.05.12.12.15.19.22.49,1.82,1.17,2.34,1.41,1.01.32,1.99.71,2.95,1.17.07.04.15.06.24.06.91.12,1.81.3,2.69.54.51.1.98.3,1.4.61,1,.65,2.51.74,3.61,1.34.43.24.85.51,1.24.8,1.37.84,2.84,1.51,4.37,1.99.64.25.99.81,1.73,1.02.08.02.16.02.24-.01l.39-.16c.07-.02.14,0,.18.06.08.08.18.09.31,0,.97.69,2.28.57,3.12-.27.86-.87.8-2.24.72-3.42,1.32.3,2.55.95,3.55,1.87-.17,2.35-.2,4.71-.08,7.06.1.54-.17,1.08-.66,1.33-.07.03-.16.04-.24.01l-3.71-1.11c-.11-.03-.14,0-.11.11.11.3.08.39-.11.25-.37-.01-.72-.21-.92-.53-1.14-1.68-4.32-.49-5.24-2.34-.03-.07-.1-.13-.17-.16-1.05-.34-2.52-.33-3.6-1.24-.06-.05-.14-.08-.22-.08-.61-.01-.97-.55-1.43-.49-.08,0-.15-.01-.21-.06-.97-.93-1.65-.64-2.76-1.07-.39-.14-.63-.51-1.09-.61-.55-.13-1.13.36-1.62-.38-.04-.06-.12-.08-.18-.05-.64.27-.58-.62-1.26-.75-.08,0-.16,0-.24.04-.18.07-.38,0-.47-.17-.04-.07-.11-.12-.19-.14l-1.12-.19c-.22-.03-.43-.15-.56-.33-.3-.42-.6-.51-.92-.24-.06.05-.13.06-.2.03-.14-.08-.26-.19-.35-.33-.04-.06-.11-.1-.19-.11-.57-.04-.83-.8-1.54-.9-.08,0-.14-.06-.17-.13-.09-.2-.23-.37-.41-.49-.39-.57-.89-1.06-1.46-1.45-6.85-3.62-13.7-7.23-20.55-10.85-.68-.36-1.62-.79-2.8-1.28-.48-.26-1.08-.1-1.38.36-.86.76-1.3-.03-2.05-.06-.36-.02-.72.04-1.06.17-.03.01-.07,0-.09-.04,0,0,0,0,0,0v-.03c.04-.51-1.02-.71-1.41-.84-.77-.26-1.84.05-1.78-1.29.04-.21-.03-.42-.18-.57v-3.85c.04.11.11.12.17.04.04-.07.07-.15.06-.23l.05-1.42c.01-.21.2-.38.41-.36,0,0,0,0,.01,0h.04c1.08.13,2.19.01,3.21-.36h.01Z" style="fill: #fdd39f;"/>
      <path id="m" data-name="Path 1150" d="m146.21,36.04c1.17.08,2.29.48,3.24,1.15,4.59,2.42,9.18,4.82,13.78,7.22,2.4,1.3,4.81,2.58,7.23,3.84,1.44.69,2.39,2.11,2.49,3.7-.55.13-1.13.06-1.64-.2-7.67-3.93-15.31-7.94-22.92-12-1.41-.75-2.35-1.16-2.8-2.36-.25-.45-.08-1.01.37-1.26.07-.04.15-.07.23-.09h0Z" style="fill: #fefefc;"/>
      <path id="n" data-name="Path 1152" d="m179.12,38.77c7.82,4.1,15.63,8.19,23.45,12.28.17.09.25.2.25.33l-.08,8.51c-.24-.03-.47-.12-.68-.25-1-.92-2.22-1.56-3.55-1.87.2-2.16-.78-5.65-3.27-6.26-1-.24-1.2.49-1.18,1.3.01.91-.01,1.91-.08,3-3.52-1.66-6.99-3.42-10.41-5.28-.49-.47-.87-1.04-1.12-1.67-.47-1.99-1.38-3.86-2.65-5.47l.47-1.11c.06-.12.09-.26.09-.39.07-.95-.24-1.9-.86-2.62-.06-.05-.13-.09-.21-.11-.17-.04-.24-.17-.17-.39h0Z" style="fill: #feedde;"/>
      <path id="o" data-name="Path 1153" d="m91.72,39.05l24.96,13.02c5.12,2.7,10.25,5.39,15.38,8.07.5.26.98.54,1.45.83,5.56,2.69,10.35,4.4,11.65,9.92.23,1.37.33,2.77.29,4.16-.12.54-.14,1.1-.04,1.65l-.09,9.49.11,3.68v3.96c-.15.41-.13.86.05,1.26-.35,0-.17.82-.11,1.02l.03,2.85.03,3.51-.14,1.08.11,1c.1,1.75-.03,3.5-.39,5.22-.09.32-.15.66-.17.99,0,.06-.05.11-.1.11,0,0,0,0-.01,0h-.01c-.19-.04-.31,0-.36.11-.02.07-.08.12-.15.14-.19.01-.28-.04-.27-.2.01-.07-.01-.15-.07-.2-.15-.11-.36-.15-.54-.08-.08.03-.16.03-.24,0-.03-.04-.06-.09-.07-.14l-.02-4.47v-19.34c.01-3.86-.05-7.73.08-11.59.07-1.01.04-2.02-.06-3.03-.36-1.83-1.77-4.73-3.7-5.34-.18-.05-1.46-.48-1.54-.17-.02.07-.08.12-.13.11-1.62-.16-2.85-1.24-4.21-.59-1.12-2.75-3.53-3.79-5.8-4.99-12.13-6.41-24.2-12.94-36.21-19.57-.43-.24-.83-.53-1.18-.87-.04-.04-.05-.1-.01-.14,0,0,0,0,.01-.01h.01s1.15-.84,1.15-.84c.06-.05.1-.12.1-.2,0-.16.08-.31.2-.42h0Z" style="fill: #faaf5a;"/>
      <path id="p" data-name="Path 1154" d="m139.37,40.68c.15.15.21.36.18.57-.06,1.33,1.01,1.03,1.78,1.29.39.13,1.46.33,1.41.84,0,.04.03.08.07.08h.03c.34-.13.7-.18,1.06-.17.75.04,1.18.82,2.05.06.15,1.26.93,2.36,2.07,2.92,8.5,4.55,15.77,8.36,21.82,11.42.67.39,1.37.72,2.1.97.53.14.77-.06.73-.61-.03-.54-.21-1.06-.52-1.49.18.12.32.29.41.49.03.07.1.12.17.13.72.11.98.86,1.54.9.08,0,.15.04.19.11.09.13.21.25.35.33.07.03.14.02.2-.03.32-.26.63-.18.92.24.13.18.34.3.56.33l1.12.19c.08.02.15.07.19.14.09.17.29.25.47.17.08-.03.15-.04.24-.04.68.13.62,1.02,1.26.75.07-.03.14,0,.18.05.49.74,1.08.25,1.62.38.46.11.71.47,1.09.61,1.11.42,1.78.14,2.76,1.07.06.05.14.08.21.06.46-.06.82.47,1.43.49.08,0,.16.03.22.08,1.08.91,2.55.89,3.6,1.24.08.02.14.08.17.16.92,1.86,4.1.65,5.24,2.34.19.32.54.52.92.53.18.14.21.06.11-.25-.04-.1,0-.14.11-.11l3.71,1.11c.08.02.16.02.24-.01.5-.24.77-.79.66-1.33-.12-2.35-.1-4.71.08-7.06.2.14.43.22.68.25l.02,7.44-.02,2.78c-.07-.3-.11-.32-.13-.06,0,.03,0,.03-.02,0l-.02-.04c-.03-.06-.06-.05-.09,0-.27.82-1.16,1.27-1.98,1-.14-.05-.28-.12-.41-.2-.63-.32-1.34-.45-2.05-.36-.08.02-.17,0-.24-.05-.75-.5-1.6-.84-2.49-.99-1.35-.14-1.98-1.18-3.33-1.15-.9-.23-1.78-.57-2.6-1.02-2.09-.85-4.2-1.66-6.32-2.42-.02,0-.04-.03-.04-.06v-.04c0-.05-.05-.1-.1-.11-.99-.36-1.71-.61-2.86-1.13-.74-.33-1.5-.19-2.18-.61-.45-.36-.98-.61-1.55-.73-1.68-.08-2.93-1.05-4.72-.66l-11.52-5.73c-3.42-1.77-6.83-3.54-10.24-5.34-.89-.63-1.96-.95-3.05-.9-.36-.7-3.04-1.42-3.83-1.68-.05-.02-.12-.01-.16.03l-.06.08c-.04.06-.11.09-.18.08-.69-.19-1.31-.45-2.01-.64-1.02-.29-1.11-1.79-1.21-2.48v-4.22h-.02Z" style="fill: #fed7ac;"/>
      <path id="q" data-name="Path 1155" d="m172.12,56.56c.31.44.5.96.52,1.49.04.55-.2.74-.73.61-.73-.25-1.43-.58-2.1-.97-6.05-3.06-13.32-6.87-21.82-11.42-1.14-.55-1.93-1.66-2.07-2.92.3-.46.9-.62,1.38-.36,1.18.49,2.12.92,2.8,1.28,6.85,3.62,13.7,7.23,20.55,10.85.58.38,1.07.88,1.46,1.45h0Z" style="fill: #fefefe;"/>
      <path id="r" data-name="Path 1156" d="m163.24,44.4l.69.14c.07.04.13.09.19.15.57.37,1.19.66,1.84.85.08.03.16.04.24.03.41-.08.82.1,1.05.44.04.07.11.11.19.13.62.14.74.7,1.34.77.08.01.15.04.22.09.3.25.67.39,1.06.4.08,0,.15.04.21.09.81.74,3.37.34,4.8,1.27.56.34,1.16.61,1.78.8,1.98.65,3.99,1.18,6.03,1.6.06,0,.11-.03.12-.08v-.02c0-.32.09-.33.26-.04.05.09.1.1.13,0l.18-.48c3.42,1.86,6.89,3.62,10.41,5.28.05,1.39.08,2.89.07,4.52.04.45.27.85.63,1.12-.13.08-.24.08-.31,0-.04-.06-.11-.08-.18-.06l-.39.16c-.07.03-.16.04-.24.01-.74-.2-1.09-.77-1.73-1.02-1.53-.49-3-1.16-4.37-1.99-.4-.29-.81-.56-1.24-.8-1.11-.61-2.61-.69-3.61-1.34-.42-.3-.89-.51-1.4-.61-.88-.24-1.78-.42-2.69-.54-.08,0-.16-.02-.24-.06-.96-.46-1.94-.85-2.95-1.17-.51-.24-2.12-.92-2.34-1.41-.04-.07-.09-.14-.15-.19-.17-.14-.13-.3.12-.51-.09-1.59-1.05-3.01-2.49-3.7-2.43-1.26-4.84-2.54-7.23-3.84v.02Z" style="fill: #fdcf94;"/>
      <path id="s" data-name="Path 1157" d="m116.29,63.67c2.61.81,4.14,3.51,3.48,6.16-.03.18-.2.3-.37.27,0,0,0,0,0,0-.02,0-.04,0-.05-.01-.46-.16-.91-.34-1.34-.56-3.92-2-7.85-3.99-11.79-5.97-7.36-3.83-14.72-7.65-22.08-11.47-1.27-.66-2.46-1.46-3.39-.08-.22.37-.32.79-.31,1.21-.02,1.04-.09,2.08-.21,3.11-.33,3.7-.42,7.41-.27,11.12l-.09,7.98s-.04.08-.08.08h-.03c-1.19-.5-2.33-1.09-3.43-1.77-.12-.07-.19-.2-.18-.34l.08-2.43c0-7.53,0-15.07.02-22.6,0-3.27,3.25-4.37,5.86-2.93,8.81,4.87,20.21,10.94,34.2,18.22h0Z" style="fill: #fff;"/>
      <path id="t" data-name="Path 1158" d="m139.37,44.9c.1.69.19,2.19,1.21,2.48.69.2,1.32.46,2.01.64.07,0,.14-.02.18-.08l.06-.08s.1-.05.16-.03c.79.26,3.47.99,3.83,1.68-.81,1.1.33,1.9,1.17,2.34,3.44,1.81,6.89,3.59,10.35,5.34,4.66,2.36,9.32,4.74,13.97,7.13.49.25,1,.43,1.54.55.14.03.27-.05.31-.19.42-1.52-1.37-2.62-2.52-3.21,1.8-.39,3.04.59,4.72.66.57.11,1.1.36,1.55.73.68.42,1.45.28,2.18.61,1.15.51,1.87.77,2.86,1.13.05.01.09.06.1.11v.04s.01.05.04.06c2.12.77,4.23,1.57,6.32,2.42.82.44,1.7.78,2.6,1.02,1.34-.03,1.97,1.01,3.33,1.15.89.15,1.74.49,2.49.99.07.04.15.05.24.04.7-.08,1.41.05,2.05.36.71.49,1.69.32,2.19-.4.09-.12.15-.26.2-.4.03-.06.06-.07.09,0l.02.04s.02.02.02,0c.02-.25.06-.23.13.06v7.5c-.24-.6-.46.35-1,.43-.08.01-.15.05-.2.11-1.21,1.4-2.06.11-3.28-.1-1.2-.2-2.36-.58-3.44-1.14-.64-.31-1.31-.57-1.99-.8-1.16-.49-2.59-.33-3.25-1.23-.05-.07-.11-.12-.19-.14-.52-.2-1.03-.39-1.54-.61-.4-.26-.84-.46-1.29-.61-.08-.01-.16-.05-.23-.09-.79-.55-1.79-.72-2.72-.48-.37.06-.74.03-1.09-.1-.07-.02-.11-.09-.11-.17.08-.45-.22-.88-.68-.96-.01,0-.03,0-.04,0-.08-.01-.15-.06-.2-.13-.28-.48-.8-.77-1.35-.75-.45.03-.91-.07-1.3-.3-.4-.22-.87-.3-1.32-.24-.11.01-.22-.02-.31-.09-.36-.33-.78-.58-1.25-.71-.08-.02-.16-.05-.22-.11l-.57-.55c-.13-.14-.34-.18-.51-.1-.55.26-1.04.08-1.46-.55-.1-.14-.3-.18-.44-.08,0,0-.01.01-.02.02-.24.2-.44.15-.61-.15-.15-.3-.44-.5-.77-.53-.44-.01-.87-.17-1.22-.45-.04-.05-.11-.05-.16,0,0,0,0,0,0,0-.85.83-2.38-.07-3.11-.71-.51-.47-1.13-.8-1.8-.98-.49-.12-.72-.42-1.08-.58-1.06-.43-1.88-.24-2.71-1.11-.17-.18-.43-.25-.67-.18-.08.02-.15-.01-.2-.08-.5-.74-1.34-1.17-2.24-1.16-.13,0-.26-.04-.37-.12-.99-.73-2.02-1.4-3.09-2-.33-.17-.65-.18-.71-.64-.02-.16-.14-.29-.3-.32-.74-.1-1.43-.42-1.99-.92-.26-.23-.62-.33-.96-.28-.08.02-.16,0-.24-.04l-2.64-1.67c-.25-.16-.45-.41-.55-.69-.55-1.37-1.23-1.37-2.46-1.67-.64-.04-1.27-.13-1.9-.24-.4-.16-.79-.37-1.14-.63-.06-.05-.14-.05-.21-.02-.4.18-.87.1-1.21-.19-.06-.05-.15-.05-.22-.02-.55.28-.24-.3-.54-.6-.06-.06-.11-.14-.12-.22l-.19-1.17v-5.89Z" style="fill: #fedab7;"/>
      <path id="u" data-name="Path 1159" d="m160.09,55.75c-.16.56-.58,1.01-1.13,1.22-.07.03-.12.09-.14.17-.03.11-.08.13-.15.08-.06-.05-.14-.07-.21-.06l-.13.04c-3.47-1.75-6.92-3.53-10.35-5.34-.83-.44-1.98-1.24-1.17-2.34,1.09-.05,2.16.26,3.05.9,3.4,1.79,6.82,3.57,10.24,5.34Z" style="fill: #fefefc;"/>
      <path id="v" data-name="Path 1160" d="m139.37,50.76l.19,1.17c.02.08.06.16.12.22.3.3-.01.88.54.6.07-.04.16-.03.22.02.33.29.8.37,1.21.19.07-.03.15-.02.21.02.35.26.73.47,1.14.63.63.12,1.26.2,1.9.24,1.23.31,1.9.31,2.46,1.67.1.28.29.53.55.69l2.64,1.67c.07.04.15.05.24.04.35-.05.7.05.96.28.56.49,1.25.81,1.99.92.16.03.28.16.3.32.06.46.39.48.71.64,1.07.6,2.11,1.27,3.09,2,.11.08.24.12.37.12.89-.01,1.73.42,2.24,1.16.05.06.12.09.2.08.24-.06.49.01.67.18.83.86,1.65.68,2.71,1.11.37.15.61.46,1.08.58.67.17,1.29.51,1.8.98.73.64,2.26,1.54,3.11.7.05-.04.12-.04.17,0,.35.28.78.44,1.22.45.33.03.62.23.77.53.17.3.36.36.61.15.13-.11.33-.1.44.03,0,0,0,0,0,0,0,0,.01.01.02.02.43.62.92.8,1.46.55.18-.07.38-.03.51.1l.57.55c.06.05.14.09.22.11.47.13.9.38,1.25.71.09.07.2.11.31.09.45-.07.92.01,1.32.24.39.23.85.33,1.3.3.55-.02,1.07.27,1.35.75.05.06.12.11.2.13.45.05.78.46.73.91,0,.02,0,.04,0,.06,0,.07.04.14.11.17.35.13.73.16,1.09.1.93-.24,1.93-.07,2.72.48.07.05.15.08.23.09.45.15.89.35,1.29.61.51.21,1.02.41,1.54.61.08.03.14.08.19.14.65.89,2.09.74,3.25,1.23.68.22,1.34.49,1.99.8,1.08.55,2.24.94,3.44,1.14,1.22.2,2.07,1.49,3.28.1.05-.06.12-.1.2-.11.54-.08.76-1.03,1-.43v18.72c0,.05-.03.1-.08.11,0,0-.01,0-.02,0-.02,0-.04,0-.05-.01-21.02-10.85-41.88-21.85-63.02-32.62-.13-.07-.21-.2-.21-.34v-12.71.04Zm6.31,7.73c.46,1.08,1.34,1.93,2.43,2.36,9.45,4.95,16.85,8.76,22.2,11.44.46.23.94.4,1.44.51.6.14.81-.11.63-.76-.58-2.08-1.76-2.65-3.83-3.74-6.99-3.67-13.99-7.32-21.01-10.95-.78-.4-2.35-.14-1.87,1.12h0Zm1.67,7.22c1.71,1.08,3.87,2.27,6.48,3.58,5,2.5,9.97,5.07,14.91,7.7,1.31.78,2.67,1.45,4.09,2.01.49.17.74,0,.74-.53,0-1.61-2.45-2.74-3.72-3.39-7.14-3.62-14.25-7.31-21.33-11.05-.48-.26-1.03-.38-1.58-.34-.08,0-.15.05-.17.13-.35.69-.09,1.53.58,1.9h0Z" style="fill: #feddc0;"/>
      <path id="w" data-name="Path 1161" d="m106.21,63.56c-.06.15-.23.23-.39.17-.07-.02-.15-.01-.22.02l-.92.49c-.36.19-.37.38-.02.55,5.25,2.68,10.48,5.52,15.85,7.97,2.18,1.08,4.37,2.17,6.56,3.25,2.93,1.44,4.58,3,4.62,6.4v19.07c-.63.12-1.28,0-1.84-.31-.07-.04-.12-.1-.14-.18-.12-.56-.16-1.13-.12-1.7.08-1.58.08-3.14.06-4.72,0-1.6.01-3.21.01-4.81,0-.88-.1-2.78-1.5-2.66-.05,0-.08-.03-.09-.08v-.02c.04-.21-.06-.36-.33-.42-.43-.14-.81-.39-1.11-.73-.36-.36-.13-.6-.81-.69-.25-.03-.5-.11-.72-.24-.07-.04-.12-.11-.14-.18-.05-.21-.21-.37-.42-.43-.08-.01-.15-.06-.18-.14-.14-.33.01-.52.49-.58.06,0,.1-.05.09-.11,0,0,0,0,0,0v-.02c-.06-.21-.17-.39-.33-.53-.81-.59-2.35-1.9-3.31-2.04-.08-.01-.15-.05-.2-.12-.13-.22-.41-.3-.63-.18-.01,0-.03.02-.04.03-.06.03-.13.01-.17-.04-.11-.19-.35-.26-.55-.15,0,0,0,0,0,0-.06.03-.08.01-.08-.05.02-.09,0-.19-.04-.27-.05-.06-.13-.08-.2-.08h-.74c-.07-.02-.11-.09-.11-.16h0c.02-.16-.06-.31-.2-.39-.56-.43-1.35-.35-1.81.17-.04.05-.04.12,0,.17h0c.09.08.16.2.19.32-.87-.79-1.84-1.44-2.89-1.96-5.9-3.04-14.46-7.63-25.7-13.77-.72-.39-2.13-.66-2.49.27-.7,1.8,4.12,3.96,5.32,4.62.15.23.37.41.62.52.07.04.11.1.12.17.01.07.05.14.09.2.02.03.02.06,0,.09,0,0-.02.01-.03.01-.68.13-1.3.36-1.99.55-.58.14-.96.69-.89,1.28-.52-.24-3.18-1.66-2.65.3-.1-.15-.58-1.27-.17-1.19.06.02.13,0,.16-.07.04-.15-.04-.22-.24-.21-.07,0-.13-.04-.16-.11-.04-.12-.15-.22-.28-.24-.09-.02-.09-.04-.01-.07l.52-.18c.26-.08.27-.19.05-.33-.36-.24-.8-.35-1.23-.3-.08,0-.15-.02-.2-.08-.42-.52-1-.88-1.65-1.03-.35-.09-.66-.27-.91-.53-.39-.43-.92-.72-1.5-.82-.08-.01-.16.02-.22.08-.05.07-.14.08-.21.04-.02-.02-.04-.04-.05-.07-.02-.04-.07-.05-.11-.03,0,0-.01.01-.02.02l-.09.14c-.15-3.71-.05-7.42.28-11.12.12-1.03.19-2.07.21-3.11-.01-.43.1-.85.31-1.21.93-1.38,2.11-.58,3.39.08,7.36,3.82,14.72,7.64,22.08,11.47l.02-.02Z" style="fill: #febd56;"/>
      <path id="x" data-name="Path 1162" d="m202.83,51.39c.08.02.15.05.21.1.06.05.1.13.1.21.44,5.04.18,8.89.05,15.25,0,.2-.14.33-.43.38l-.02-7.44.08-8.51h0Z" style="fill: #360c1b;"/>
      <path id="y" data-name="Path 1163" d="m198.53,57.78c.08,1.18.14,2.55-.72,3.42-.83.84-2.15.95-3.12.27-.36-.27-.58-.68-.63-1.12,0-1.63-.01-3.13-.07-4.52.07-1.09.09-2.09.08-3-.01-.82.18-1.55,1.18-1.3,2.49.61,3.48,4.1,3.27,6.26h0Z" style="fill: #e64842;"/>
      <path id="z" data-name="Path 1164" d="m160.09,55.75l11.53,5.73c1.15.58,2.93,1.68,2.52,3.21-.04.14-.17.22-.31.19-.53-.11-1.05-.3-1.54-.55-4.65-2.4-9.3-4.77-13.97-7.13l.13-.04c.08-.01.15,0,.21.06.08.05.12.02.15-.08.02-.07.07-.14.14-.17.55-.21.96-.66,1.13-1.22Z" style="fill: #feeacd;"/>
      <path id="aa" data-name="Path 1165" d="m148.1,60.85c-1.09-.43-1.96-1.28-2.43-2.36-.49-1.26,1.08-1.52,1.87-1.12,7.01,3.62,14.01,7.27,21.01,10.95,2.07,1.09,3.25,1.65,3.83,3.74.17.64-.03.89-.63.76-.5-.11-.98-.29-1.44-.51-5.35-2.68-12.75-6.49-22.2-11.44Z" style="fill: #fefefe;"/>
      <path id="ab" data-name="Path 1166" d="m147.34,65.71c-.68-.37-.94-1.21-.58-1.9.03-.08.09-.13.17-.13.55-.04,1.1.08,1.58.34,7.08,3.74,14.19,7.43,21.33,11.05,1.28.64,3.72,1.77,3.72,3.39,0,.52-.25.7-.74.53-1.41-.56-2.78-1.23-4.09-2.01-4.94-2.63-9.91-5.2-14.91-7.7-2.62-1.3-4.78-2.5-6.48-3.58h0Z" style="fill: #ffe9d1;"/>
      <path id="ac" data-name="Path 1167" d="m116.73,80.12c.49.56.85,1.23,1.03,1.95.13.47-.05.73-.53.77-.5.02-1-.1-1.44-.36-8.31-4.33-16.58-8.73-24.83-13.18-1.2-.65-6.03-2.82-5.32-4.62.37-.93,1.77-.67,2.49-.27,11.23,6.14,19.8,10.73,25.7,13.77,1.05.51,2.02,1.17,2.89,1.96h0Z" style="fill: #fff;"/>
      <path id="ad" data-name="Path 1168" d="m88.88,72.13l27.73,14.74c.65.41,1.12,1.06,1.32,1.8.17.63-.06.86-.69.71-.63-.16-1.23-.4-1.8-.71-2.22-1.22-4.46-2.42-6.71-3.59-5.7-3.04-11.41-6.06-17.12-9.07-1.82-.96-4.66-2.22-5.37-3.59-.52-1.96,2.12-.53,2.65-.3v.02Z" style="fill: #fdcb83;"/>
      <path id="ae" data-name="Path 1169" d="m145.44,75.06c.86.37,1.69.76,2.48,1.17,19.65,10.23,39.31,20.45,58.99,30.65-.05.04,0,.23.13.55.13.22.17.49.13.74-.45-.03-.89-.15-1.3-.33-4.12-1.98-8.68-4.41-12.8-6.55-15.85-8.23-31.69-16.48-47.52-24.74-.14-.07-.18,0-.14.18-.1-.55-.08-1.11.04-1.65h0Z" style="fill: #ec8017;"/>
      <path id="af" data-name="Path 1170" d="m207.15,108.17v.57h-.11c-.04-.43-1.33.59-1.43.65-15.18,8.35-30.35,16.71-45.53,25.05-2.71,1.49-4.97,2.61-7.74,1.84-2.39-.67-4.63-2.15-6.86-3.34-.11-2.96-.03-5.66-.08-8.89-.02-1.43,0-2.86.09-4.31l10.57,5.43c.17.08.36.08.53,0l6.25-3.3c.15-.08.16-.17,0-.24-5.79-3.02-11.66-5.92-17.38-9.1l-.08-1.31c4.96,2.57,9.95,5.11,14.87,7.75,1.24.67,2.52,1.27,3.82,1.82.26.12.56.1.8-.04l6.03-3.19c.2-.11.2-.21.01-.33-.4-.24-.81-.46-1.22-.67-8.18-4.24-16.32-8.56-24.42-12.96l.14-1.08c11.6,5.97,18.66,9.64,21.18,11.01,1.76.96,3.55,1.85,5.38,2.68.51.22,1.1.17,1.56-.13,1.85-1.04,3.74-2.07,5.67-3.08.16-.08.16-.17,0-.25l-33.73-17.62c-.18-.4-.2-.85-.06-1.26l17.48,9c.21.11.47.11.68,0l6.57-3.49c.08-.04.08-.08,0-.13-8.39-4.25-16.66-8.59-24.82-13.02l.09-9.49c-.04-.19,0-.25.14-.18,15.84,8.26,31.68,16.51,47.52,24.74,4.12,2.14,8.68,4.57,12.8,6.55.41.18.85.3,1.3.33l-.04-.02Z" style="fill: #071c2f;"/>
      <path id="ag" data-name="Path 1171" d="m102.81,85.34c4.61,2.46,9.22,4.9,13.84,7.35,1.05.48,1.6,1.65,1.3,2.77l-2.4-1.1c-9.12-4.86-18.25-9.69-27.4-14.5-.7-.36-2.05-1.15-1.76-2.15.04-.29.31-.49.6-.45.04,0,.08.02.12.03.68.17,1.34.42,1.96.75,4.59,2.43,9.17,4.87,13.74,7.3h-.01Z" style="fill: #fdc893;"/>
      <path id="ah" data-name="Path 1172" d="m83.92,94.11c.44,1.68-1.47.66-1.98.39-6.64-3.41-13.22-6.93-19.75-10.57-.41-.24-.79-.53-1.13-.86-.4-.31-.47-.89-.16-1.3.01-.02.03-.03.04-.05.23-.41.69-.65,1.16-.59.57.06,1.13.24,1.64.51,9.8,5.31,15.62,8.42,17.47,9.35,1.29.62,2.27,1.73,2.72,3.08v.02Z" style="fill: #fdcb89;"/>
      <path id="ai" data-name="Path 1173" d="m145.3,86.2c8.16,4.43,16.44,8.77,24.82,13.02.08.04.08.08,0,.13l-6.57,3.49c-.21.11-.47.11-.68,0l-17.48-9v-2.89c1.36-.33,2.65-.9,3.81-1.68.04-.03.05-.09.02-.14,0,0-.01-.02-.03-.03-1.43-.92-2.39-.24-3.8.77l-.11-3.68.02.02Zm6.05,7.71c.25.1.53.09.77-.01.93-.43,1.82-.95,2.65-1.55.1-.07.13-.22.06-.33l-.05-.04c-1.05-.87-2.68.31-3.7,1.02-.69.49-.29.71.27.91h0Zm3.62,1.88c.42.25.92.29,1.37.11.89-.47,1.73-1.03,2.49-1.69.04-.03.04-.08.02-.12,0,0,0,0,0,0,0,0-.01-.01-.02-.02-.43-.37-1.04-.47-1.56-.24-.85.36-1.65.85-2.35,1.46-.13.11-.14.3-.04.43.02.03.06.06.09.08h0Zm4.03,2.43c1.15.3,2.48-.82,3.53-1.29.08-.04.1-.24.06-.48-.25-1.52-3.29.68-3.84,1.06-.07.04-.12.12-.13.2-.04.26.09.43.38.51h0Z" style="fill: #fefeff;"/>
      <path id="aj" data-name="Path 1175" d="m83.76,101.59c-.69.19-1.43.1-2.05-.25-5.3-2.77-10.6-5.56-15.89-8.37-1.54-.82-4.32-1.98-5.05-3.62-.04-.08-.05-.16-.03-.24.36-1.75,2.49-.75,3.46-.24,5.19,2.74,10.36,5.5,15.53,8.27.91.46,1.79.96,2.65,1.51.85.74,1.35,1.81,1.38,2.93h0Z" style="fill: #fdc893;"/>
      <path id="ak" data-name="Path 1176" d="m145.42,90.96v-1.07c1.42-1.01,2.37-1.68,3.8-.77.05.03.06.09.03.14,0,0-.01.02-.03.03-1.16.77-2.45,1.34-3.8,1.68h0Z" style="fill: #dce2e9;"/>
      <path id="al" data-name="Path 1177" d="m151.35,93.92c-.56-.21-.96-.43-.27-.91,1.02-.71,2.65-1.9,3.7-1.02.1.08.11.23.03.33l-.04.04c-.83.6-1.71,1.12-2.65,1.55-.25.11-.52.11-.77.01h0Z" style="fill: #dce2e9;"/>
      <path id="am" data-name="Path 1178" d="m154.97,95.8c-.15-.08-.2-.26-.13-.4,0,0,0,0,0-.01.02-.03.05-.06.08-.09.7-.6,1.5-1.09,2.35-1.46.52-.23,1.13-.14,1.56.24.04.02.06.08.03.12,0,0,0,0,0,0,0,0-.01.01-.02.02-.77.65-1.6,1.22-2.49,1.69-.45.18-.96.14-1.37-.11h0Z" style="fill: #e0e6ee;"/>
      <path id="an" data-name="Path 1179" d="m74.25,102.62c-.49.68-1.37.32-1.97.01-2.65-1.33-5.3-2.69-7.94-4.06-1.58-.82-3.2-1.63-3.63-3.39-.12-1.48,2.19-.33,2.86.03,2.48,1.34,4.97,2.67,7.46,3.99,1.36.72,3.31,1.58,3.23,3.42h0Z" style="fill: #fac595;"/>
      <path id="ao" data-name="Path 1180" d="m145.47,95.11l33.73,17.62c.16.08.16.17,0,.25-1.93,1.02-3.82,2.04-5.67,3.08-.47.3-1.05.35-1.56.13-1.83-.82-3.62-1.71-5.38-2.68-2.52-1.38-9.58-5.05-21.18-11.01l-.03-3.51c.96-.38,1.87-.89,2.69-1.52.04-.03.05-.08.03-.12,0,0,0,0,0,0,0,0-.01-.01-.02-.02-.61-.48-1.42-.62-2.15-.39-.07.02-.12.09-.12.17,0,.24-.08.33-.22.29-.07-.03-.12-.1-.12-.18l-.11-1.07c-.06-.2-.24-1.01.11-1.02h0Zm4.61,6.81c1.02.67,2.69-.65,3.65-1.31.36-.24.24-.46-.33-.65-.25-.09-.53-.09-.79,0-.9.32-1.75.76-2.54,1.3-.33.22-.33.45,0,.67h0Zm4.66,2.46c.8.37,1.07.05,1.73-.28.77-.39,1.54-.81,2.29-1.25.04-.03.06-.08.04-.13,0,0,0-.01-.01-.02-1.38-1.3-2.87.11-4.09.89-.46.3-.45.56.05.79h0Zm4.09,2.14c.4.41,1.03.51,1.53.24.86-.47,1.69-.99,2.49-1.55.05-.03.06-.09.03-.14,0,0,0,0,0,0,0,0-.01-.01-.02-.02-1.31-1.02-2.99.25-4.02,1.14-.1.08-.11.23-.03.32,0,0,0,0,0,0,0,0,.01.01.02.02h0Zm11.11,5.92c.4.42.74.55,1.02.42.92-.46,1.84-.93,2.75-1.42.13-.07.18-.23.11-.36,0,0,0,0,0,0,0-.01-.02-.03-.03-.04-.32-.49-.95-.66-1.47-.39-.83.41-1.62.9-2.36,1.46-.1.08-.12.22-.04.32,0,0,.01.01.01.02h0Z" style="fill: #fefeff;"/>
      <path id="ap" data-name="Path 1181" d="m159,98.22c-.24-.03-.41-.24-.38-.48,0-.01,0-.02,0-.03.02-.08.06-.15.13-.2.55-.39,3.59-2.58,3.84-1.06.04.24.01.44-.06.48-1.05.48-2.38,1.59-3.53,1.29h0Z" style="fill: #dce2e9;"/>
      <path id="aq" data-name="Path 1182" d="m145.36,96.13l.11,1.07c0,.08.05.15.12.18.14.04.21-.05.22-.29,0-.08.05-.14.12-.17.74-.23,1.54-.08,2.15.39.04.03.05.08.03.12,0,0,0,0,0,0,0,0-.01.01-.02.02-.82.62-1.73,1.13-2.69,1.52l-.03-2.85Z" style="fill: #dadce0;"/>
      <path id="ar" data-name="Path 1183" d="m115.53,107.54l-2.43-.52c-.05,0-.11.02-.12.08v.02c.05,1.45.05,2.89,0,4.34-.06,1.69-.95,2.32-2.68,1.89-.52-.11-1.02-.3-1.49-.57-.93-.89-1.31-2.21-1-3.46v-11.02c-.52-2.27,2.24-1.61,3.17-.87,3.15,2.37,4.87,6.19,4.56,10.12h0Z" style="fill: #e64842;"/>
      <path id="as" data-name="Path 1184" d="m150.08,101.92c-.34-.22-.34-.44,0-.67.79-.54,1.64-.98,2.54-1.3.25-.09.53-.09.79,0,.57.2.68.42.33.65-.96.66-2.63,1.98-3.65,1.31h0Z" style="fill: #dce2e9;"/>
      <path id="at" data-name="Path 1185" d="m154.74,104.38c-.5-.24-.51-.49-.05-.79,1.22-.77,2.71-2.18,4.09-.89.04.04.04.1,0,.14,0,0-.01.01-.02.01-.75.44-1.52.86-2.29,1.25-.66.33-.93.65-1.73.28h0Z" style="fill: #dce2e9;"/>
      <path id="au" data-name="Path 1186" d="m145.28,103.57c8.1,4.4,16.24,8.72,24.42,12.95.41.21.82.43,1.22.67.19.11.19.22-.01.33l-6.03,3.19c-.24.14-.54.16-.8.04-1.3-.55-2.58-1.15-3.82-1.82-4.92-2.64-9.9-5.18-14.87-7.75v-6.62l-.12-1h.02Zm4.95,3.48c-1.32-.56-2.85-.19-3.77.9-.24.34-.16.6.24.78.36.19.79.16,1.14-.05l2.4-1.46s.05-.08.03-.13c0-.01-.02-.02-.03-.03h0Zm.8,3.74c.69.7,1.1.61,1.93.12.59-.36,1.21-.72,1.84-1.08.26-.14.25-.28-.01-.4-1.27-.58-2.75.41-3.74,1.18-.05.04-.06.11-.02.16,0,0,0,0,0,0h0s0,0,0,0Zm6.05,3.09c.21.16.49.2.74.11.95-.32,1.83-.84,2.56-1.52.05-.04.06-.12.01-.17h0c-.98-.96-2.56.23-3.47.77-.36.21-.3.49.16.81h0Zm4.62,3.01c.43.42,1.07.51,1.6.24.79-.44,1.55-.92,2.29-1.44.05-.03.07-.1.03-.15,0,0,0,0,0,0,0-.02-.02-.03-.04-.04-.52-.3-.89-.55-1.52-.33-.89.31-1.7.8-2.38,1.45-.07.07-.08.19,0,.26l.02.02h0Z" style="fill: #fefeff;"/>
      <path id="av" data-name="Path 1187" d="m145.39,104.57v6.62l.08,1.31v7.22c-.07,1.45-.1,2.89-.08,4.31.04,3.24-.02,5.94.08,8.89-.07.09-.08.22-.02.32-.14.08-.2.02-.18-.18.01-.1-.06-.19-.15-.2h-.01c-.49-.08-.94-.31-1.29-.66-.12-.1-.29-.09-.39.02-.08.09-.14.05-.14-.14,0-.05-.06-.1-.13-.11-.24-.04-.14-3.02-.15-4.54v-13.1l.02-3.84c0,.05.03.1.07.14.07.04.16.04.24,0,.18-.06.38-.03.54.08.06.05.08.13.07.2-.01.15.08.21.27.2.05,0,.11-.06.15-.14.05-.11.17-.14.36-.11.06.01.11-.02.13-.08,0,0,0,0,0,0h0c.02-.35.07-.68.17-1.01.36-1.71.49-3.47.39-5.21v.02Z" style="fill: #ee8c67;"/>
      <path id="aw" data-name="Path 1188" d="m158.83,106.51c-.1-.08-.11-.23-.03-.32,0,0,0,0,0,0,0,0,.01-.01.02-.02,1.04-.89,2.71-2.16,4.02-1.14.04.03.05.1.02.14,0,0,0,0,0,0,0,0-.01.01-.02.02-.8.56-1.63,1.08-2.49,1.55-.5.28-1.13.18-1.53-.24h0Z" style="fill: #dce2e9;"/>
      <path id="ax" data-name="Path 1189" d="m150.23,107.05s.06.08.04.13c0,.01-.01.02-.03.03l-2.4,1.46c-.34.22-.78.24-1.14.05-.4-.18-.49-.44-.24-.78.93-1.08,2.45-1.44,3.77-.89Z" style="fill: #dadce0;"/>
      <path id="az" data-name="Path 1190" d="m118.74,135.52l.06-3.78v-3.78l-.04-4.98v-2.33l-.02-.51c.02-3.18.02-6.35.01-9.54.04-.61-.04-1.23-.24-1.81-.55-1.14-1.93-.86-2.99-1.25l-2.43-.52h-.02c-.06,0-.1.04-.1.1.05,1.45.04,2.89,0,4.34-.06,1.69-.95,2.32-2.68,1.89-.52-.11-1.02-.3-1.49-.57-.93-.89-1.31-2.21-1-3.46v-11.02c-2.83-1.65-5.71-3.2-8.63-4.64-1.29-.64-2.31-.49-3.06.45-1.62,2.03-2.24,1.56-4.5.45-2.62-1.3-6.18-2.49-6.94-5.67-.41-2-1.76-3.67-3.63-4.48-5.34-2.94-10.2-5.5-14.59-7.67-.45-.21-.95-.28-1.44-.2-.08.01-.15.06-.2.12-.67.99-1.79,1.59-2.99,1.61-1.19.03-2.38.04-3.57.04-.34-.04-.65.2-.7.54,0,.02,0,.05,0,.07-.17,1.49-.18,2.99-.04,4.49,0,.9-.02,2.66-.08,5.29.01.54-.25,1.06-.7,1.36-.7.18-3.65.58-4.01.9v15.81l.04,3.21c-.03-.19.01-.3.12-.31.08,0,.16.04.2.11,1.64,2.48,3.74,3.47,6.59,4.92,5.34,2.73,10.68,5.47,16.01,8.23.78.4,1.52,1.04,2.36,1.46.74.37,1.22.63,1.44.77.67.52,1.4.96,2.16,1.32.08,0,.16.02.23.07.77.54,1.63.92,2.54,1.13.33,0,.64.19.77.49.17.37.51.63.91.7.07.01.12.07.12.14,0,.12.08.15.2.1,1.65.14,3.09,1.05,5.23,2.18.22.11.58.12.79.43.04.07.11.11.19.13.32.09.63.22.93.37,1.78.89,3.55,1.8,5.3,2.75,4.17,2.21,8.33,4.42,12.49,6.62,1.94,1.02,3.75,2.2,5.98.99.86-.41,1.41-1.27,1.44-2.22.09-1.62.08-3.24-.01-4.85v.03Zm-.24-11.35s-.01.03-.02.04h0s.02-.02.03-.04Zm-7.26-10.29s.01.02.02.03c0,0-.01-.02-.02-.03Zm-.9,9.79h0Zm.08-.03s-.01,0-.01,0c.01,0,.02-.02.03-.04,0,0,0,.01-.01.03Zm-7.98-13.04s.01,0,.01,0c-.01,0-.02.02-.02.04,0-.01,0-.02,0-.03Zm-37.39-17.1v.02s-.01.01-.01.02c0-.01.01-.03.01-.05Zm-3.39-1.04s-.02,0-.03,0c0,0,0-.01,0-.01.02,0,.02.02.04.02Zm.33-7.34s.01-.03.01-.04h0s0,.03-.01.05h0Zm17.82,19.53s0,.03.02.04h0s-.01-.02-.02-.03h0Zm-21.45-20.13s-.01.01-.02.01h-.01s.03,0,.04-.01Zm-5.45,8.16s0,.04,0,.05v-.02s0-.02,0-.03h0Zm65.37,42.19h.05s.02,0,.02,0c-.02,0-.04-.01-.07-.01h0Z" style="fill: url(#ay);"/>
      <path id="ba" data-name="Path 1191" d="m207.04,108.72c-.35.27-.73.52-1.12.72-15.38,8.52-30.79,17-46.22,25.44-.9.49-1.83.93-2.77,1.32-3.94,1.59-7.29-.77-10.58-2.57-.25-.14-.53-.23-.81-.26l-.08-.11c-.05-.1-.05-.23.02-.32,2.22,1.19,4.47,2.68,6.86,3.34,2.77.77,5.03-.35,7.74-1.84,15.18-8.35,30.35-16.7,45.53-25.05.11-.06,1.39-1.08,1.43-.66h0Z" style="fill: #ebceef;"/>
      <path id="bb" data-name="Path 1192" d="m207.04,108.72h.11c.13.46.13,1.69-.32,1.95-.9.51-1.8,1.02-2.69,1.54-14.91,8.29-29.85,16.51-44.82,24.68-1.18.66-2.44,1.16-3.75,1.5-1.45.21-2.93.05-4.3-.46-2-.89-3.95-1.89-5.84-3l.1-1.55c.28.04.56.13.81.26,3.29,1.8,6.64,4.16,10.58,2.57.95-.38,1.88-.82,2.77-1.32,15.43-8.44,30.83-16.92,46.22-25.44.4-.21.77-.45,1.12-.72h0Z" style="fill: #393b40;"/>
      <path id="bc" data-name="Path 1193" d="m151.03,110.79s-.05-.12,0-.17h0c.99-.78,2.47-1.77,3.74-1.19.26.12.27.26.01.4-.64.36-1.25.71-1.84,1.08-.82.5-1.23.58-1.93-.12h0Z" style="fill: #dce2e9;"/>
      <path id="bd" data-name="Path 1194" d="m98.84,134.98c-.69.27-1.41.45-2.14.53l-43.73-22.89c-.44-.23-.22-1.79-.21-2.27v-.38c-.03-.19.01-.3.12-.31.08,0,.16.04.2.11,1.64,2.48,3.74,3.47,6.59,4.92,5.34,2.73,10.68,5.48,16.01,8.24.78.4,1.52,1.04,2.36,1.46.74.37,1.22.63,1.44.77.67.52,1.4.96,2.16,1.32.08,0,.16.02.23.07.77.54,1.63.92,2.54,1.13.33,0,.64.19.77.49.17.37.51.63.91.7.07.01.12.07.12.14,0,.12.08.15.2.1,1.65.14,3.09,1.05,5.23,2.18.22.11.58.12.79.43.04.07.11.11.19.13.32.09.63.22.93.37,1.78.89,3.55,1.8,5.3,2.75h-.01Z" style="fill: #d36378;"/>
      <path id="be" data-name="Path 1195" d="m52.76,110.37c0,.49-.24,2.04.21,2.27,0,.16-.07.3-.2.39-.07.04-.13.1-.18.17-.34.52-.64,1.07-.9,1.63-2.05,4.17-4.02,8.29-5.91,12.35-.1.21-.35.3-.56.2,0,0,0,0,0,0h0c-2.9-1.46-5.66-2.91-8.29-4.35-.51-.31-.94-.74-1.27-1.24-.57-2.24,1.49-3.16,3.33-4.18,4.2-2.33,8.4-4.67,12.59-7.04.01,0,.17-.13.47-.35.19-.17.49-.16.66.03.03.04.06.08.08.12h-.02Z" style="fill: #fefefe;"/>
      <path id="bf" data-name="Path 1196" d="m169.95,112.43c-.09-.09-.09-.23,0-.33,0,0,.01-.01.02-.01.74-.56,1.53-1.04,2.36-1.46.52-.27,1.15-.1,1.47.39.1.11.09.28-.03.38,0,0,0,0,0,0-.01.01-.03.02-.04.03-.92.49-1.84.97-2.75,1.42-.28.14-.62,0-1.02-.42Z" style="fill: #e0e6ee;"/>
      <path id="bg" data-name="Path 1197" d="m157.07,113.87c-.46-.33-.51-.6-.16-.81.91-.55,2.49-1.72,3.47-.77.05.05.05.12,0,.17h0c-.73.69-1.61,1.21-2.56,1.52-.25.09-.53.04-.74-.11h0Z" style="fill: #dce2e9;"/>
      <path id="bh" data-name="Path 1198" d="m204.14,112.21c.34.19.52.38.55.57,1.27,10.08-8.95,16.86-16.4,20.76-14.63,7.67-29.09,15.66-43.73,23.32-.14.08-1.62.86-4.45,2.37-5.8,3.09-13.68,7.63-20.59,6.63-2.7-.39-5.39-2.01-7.72-3.56-.33-.22-.39-.46-.17-.71,18.19-9.91,29.41-16.12,33.66-18.63,2.37-1.39,4.79-2.71,7.26-3.93.45-.25.97-.33,1.48-.24.54.17,1.14.01,1.52-.41,1.31-.33,2.57-.83,3.75-1.5,14.97-8.17,29.91-16.4,44.82-24.68h.01Z" style="fill: #63a998;"/>
      <path id="bi" data-name="Path 1199" d="m145.48,112.51c5.72,3.18,11.58,6.08,17.38,9.1.15.08.15.16,0,.24l-6.25,3.3c-.17.09-.37.09-.53,0l-10.57-5.43v-7.22s-.02,0-.02,0Z" style="fill: #fefeff;"/>
      <path id="bj" data-name="Path 1200" d="m52.97,112.64l43.72,22.89,24.2,12.64c-.13.08-.21.22-.21.37,0,.07-.04.14-.11.16-7.59,2.08-15.16,3.86-22.81,6.06-.16.04-.17.11-.02.19,1.44.78,2.91,1.55,4.4,2.3,3.73,1.87,5.68,3.2,9.07,2.32,1.42-.49,2.78-1.13,4.06-1.91,10.4-5.8,20.81-11.59,31.22-17.38,1.07-.68,2.19-1.29,3.34-1.83.08-.03.16-.04.24-.02.47.09.94-.11,1.2-.51,1.37.51,2.85.67,4.3.46-.39.41-.98.57-1.52.41-.51-.09-1.03,0-1.48.24-2.47,1.23-4.89,2.54-7.26,3.93-4.25,2.51-15.47,8.72-33.66,18.63-2.33.45-4.74.12-6.86-.95-5.04-2.67-10.08-5.33-15.13-7.99-12.2-6.47-24.43-12.9-36.67-19.3-5.3-2.77-8.45-4.4-9.46-4.9-2.11-1.15-4.24-2.28-6.39-3.39-1.27-.55-1.92-1.97-1.49-3.29.32.51.75.93,1.27,1.24,2.63,1.44,5.39,2.89,8.29,4.35.21.11.46.02.57-.19,0,0,0,0,0,0h0c1.9-4.07,3.87-8.19,5.91-12.36.27-.56.57-1.1.9-1.63.05-.07.11-.12.18-.17.13-.09.2-.24.2-.39h0Z" style="fill: #eff2f6;"/>
      <path id="bk" data-name="Path 1201" d="m161.69,116.88c-.08-.06-.1-.18-.04-.26,0,0,0,0,0,0,0,0,.01-.01.02-.02.68-.64,1.49-1.14,2.38-1.45.62-.22.99.03,1.52.33.06.03.08.1.05.16,0,.02-.02.03-.04.04-.74.52-1.5,1-2.29,1.44-.53.28-1.17.18-1.6-.24h0Z" style="fill: #dce2e9;"/>
      <path id="bm" data-name="Path 1202" d="m123.96,142.72c-.06-2.43-.07-4.84-.03-7.27l-.02-16.07c.08-4.68.11-9.37.08-14.05-.06-1.29-.21-2.57-.47-3.83-.3-1.05-1.02-1.94-1.99-2.46-.43-.3-.9-.56-1.39-.77-1.93-.88-3.82-1.82-5.68-2.83-1.26-.61-4.83-2.43-10.73-5.48-10.62-5.48-21.22-10.99-31.81-16.52-8.34-4.36-13.41-7.02-15.2-7.99-.51-.26-1.09-.39-1.67-.35-.07,0-.12-.06-.13-.12,0-.07-.04-.13-.08-.18-1.38.48-2.27,1.83-2.15,3.29.02,2.68.01,10.22,0,22.62l.02.25c.36-.33,3.31-.72,4.01-.9.45-.3.72-.82.7-1.36.05-2.63.08-4.39.08-5.29-.14-1.49-.12-3,.04-4.49,0-.34.27-.62.61-.62.03,0,.06,0,.09,0,1.19,0,2.38,0,3.57-.04,1.2-.01,2.31-.61,2.99-1.61.05-.06.12-.11.2-.12.49-.09.99-.02,1.44.2,4.39,2.18,9.25,4.73,14.59,7.67,1.87.81,3.22,2.48,3.63,4.48.77,3.18,4.33,4.38,6.94,5.67,2.26,1.11,2.87,1.58,4.5-.45.74-.93,1.76-1.08,3.06-.45,2.93,1.44,5.81,2.98,8.64,4.64-.53-2.27,2.23-1.61,3.16-.87,3.15,2.37,4.87,6.19,4.56,10.12,1.05.39,2.43.11,2.99,1.25.2.58.28,1.2.24,1.81,0,3.18,0,6.35-.01,9.54l.02.51v2.34l.04,4.98v3.78l-.06,3.78c.1,1.62.1,3.24.01,4.85-.03.95-.58,1.81-1.44,2.22-2.24,1.21-4.04.04-5.98-.99-4.16-2.2-8.33-4.41-12.49-6.62-.69.27-1.41.45-2.14.53l24.2,12.64c.84.27,1.74.21,2.53-.18l-.26-.33c-.04-.07-.03-.15.01-.21.89-1.21.82-3.29.78-4.73h0Zm-5.05-25.7s-.03,0-.04.01c.01,0,.02-.01.04-.01h0Zm-.08.1s.01-.02.02-.04c-.01.02-.02.03-.02.05h0Z" style="fill: url(#bl);"/>
      <path id="bo" data-name="Path 1203" d="m145.46,133.24c-.14.08-.2.02-.18-.18h0c0-.11-.07-.2-.17-.21-.49-.08-.94-.31-1.29-.66-.12-.1-.29-.09-.39.02-.08.09-.14.04-.14-.14,0-.05-.06-.1-.13-.11-.24-.04-.14-3.02-.15-4.54v-13.1l.02-3.84-.02-4.47v-19.35c.01-3.86-.05-7.73.08-11.59.07-1.01.04-2.02-.06-3.03-.36-1.83-1.77-4.73-3.7-5.34-.18-.05-1.46-.48-1.54-.17-.02.07-.08.12-.13.11-1.62-.16-2.85-1.24-4.21-.59-1.12-2.75-3.53-3.79-5.8-4.99-12.13-6.41-24.2-12.94-36.21-19.57-.43-.24-.83-.53-1.18-.87h-.01c-.03-.07-.02-.13.03-.17l1.15-.83c.06-.05.1-.12.1-.2,0-.16.08-.31.2-.42-2.14-1.24-4.34-2.38-6.58-3.43-.97-.62-2.21-.64-3.19-.04-1.83.96-1.68,2.11-2.07,3.83-.06.31-.29.55-.59.62-1.46.42-2.69.14-4.15.22-1.41.29-2.38,1.59-2.26,3.02,0,7.9-.02,15.8-.05,23.7v4.93s-.05.04-.08.03c-4.06-2.04-8.06-4.12-12.02-6.25-1.92-1.03-3.88-2.08-5.87-.87.04.05.07.12.08.18.01.07.06.11.13.12.58-.03,1.15.09,1.67.35,1.8.96,6.86,3.63,15.2,7.99,10.59,5.53,21.19,11.04,31.81,16.53,5.89,3.04,9.47,4.87,10.73,5.48,1.87,1.01,3.76,1.95,5.68,2.83.48.22.95.47,1.39.77.97.51,1.69,1.4,1.99,2.46.25,1.26.4,2.54.47,3.83.03,4.68,0,9.37-.08,14.05l.02,16.07c-.04,2.43-.03,4.84.03,7.27.04,1.44.11,3.52-.78,4.73-.05.06-.06.15-.01.21l.26.33c2.85-.8,2.82-3.44,2.66-5.85h0c0-.07.05-.12.11-.12,3.25-.05,6.5-.07,9.76-.08,4.41,0,8.52-2.49,9.48-7.03l.1-1.55-.08-.11h0Zm-10.79-51.15v-.04h.01s-.01.02-.01.04Zm.04-.08s.02-.01.03-.01c-.01,0-.02,0-.03.01Zm-4.37,30.69h-.04s.02,0,.03,0h.01Zm-.06-.01s0-.02-.01-.02c0,0,0,.02.01.02h0Zm-44.19-41.44c.06.02.13,0,.16-.07.04-.15-.04-.22-.24-.21-.07,0-.13-.04-.16-.11-.04-.12-.15-.22-.28-.24-.09-.02-.09-.04-.01-.07l.52-.17c.26-.08.27-.19.05-.33-.36-.24-.8-.35-1.23-.3-.08,0-.15-.02-.2-.08-.42-.52-1-.88-1.65-1.03-.35-.09-.66-.27-.91-.53-.39-.43-.92-.72-1.5-.82-.08,0-.16.02-.21.08-.05.07-.14.08-.21.04-.02-.02-.04-.04-.05-.07,0,0-.01-.01-.02-.02-.03-.03-.08-.02-.1.01,0,0,0,0,0,0l-.09.14-.09,7.98v.03s-.06.06-.1.05c0,0,0,0-.01,0-1.19-.5-2.33-1.09-3.43-1.77-.12-.07-.19-.2-.18-.34l.08-2.43c0-7.53,0-15.07.02-22.6,0-3.27,3.25-4.37,5.86-2.93,8.81,4.87,20.21,10.94,34.2,18.22,2.61.81,4.14,3.51,3.48,6.16,0,.02,0,.04-.01.05-.06.17-.25.26-.43.2-.46-.16-.91-.34-1.34-.56-3.92-2-7.85-3.99-11.79-5.97-.06.15-.23.23-.39.17-.07-.02-.15-.01-.22.02l-.92.49c-.36.19-.37.38-.02.55,5.25,2.68,10.48,5.52,15.85,7.97,2.18,1.08,4.37,2.17,6.56,3.25,2.93,1.44,4.58,3,4.62,6.4v19.07c-.63.12-1.28,0-1.84-.31-.07-.04-.12-.1-.14-.18-.12-.56-.16-1.13-.12-1.7.08-1.58.08-3.14.06-4.72,0-1.6.01-3.21.01-4.81,0-.88-.1-2.78-1.5-2.66h-.02s-.07-.04-.06-.09c0,0,0,0,0-.01.04-.21-.06-.36-.33-.42-.43-.14-.81-.39-1.11-.73-.36-.36-.13-.6-.81-.69-.25-.03-.5-.11-.72-.24-.07-.04-.12-.11-.14-.18-.05-.21-.21-.37-.42-.43-.08-.01-.15-.06-.18-.14-.14-.33.01-.52.49-.58h.02c.05-.02.08-.08.06-.14-.06-.21-.17-.39-.33-.53-.81-.59-2.35-1.9-3.31-2.04-.08-.01-.15-.05-.2-.12-.13-.22-.41-.3-.63-.18-.01,0-.03.02-.04.03-.06.03-.13.01-.17-.04-.11-.19-.35-.26-.55-.15,0,0,0,0,0,0-.06.03-.08.01-.08-.05.02-.09,0-.19-.04-.27-.05-.06-.13-.08-.2-.08h-.74c-.06,0-.11-.08-.11-.16.02-.16-.06-.31-.2-.39-.56-.43-1.35-.35-1.81.17h0c-.04.05-.04.13.01.17,0,0,0,0,0,0,.09.08.16.2.19.32.49.56.85,1.23,1.03,1.95.13.47-.05.73-.53.77-.5.02-1-.1-1.44-.36-8.31-4.33-16.58-8.73-24.83-13.18.15.23.37.41.62.52.07.04.11.1.12.17.01.07.05.14.09.2,0,0,.01.02.01.03,0,.03-.01.07-.04.08-.68.13-1.3.36-1.99.55-.58.14-.96.69-.89,1.28l27.73,14.74c.65.41,1.12,1.06,1.32,1.8.17.63-.06.86-.69.7-.63-.16-1.23-.39-1.8-.7-2.22-1.22-4.46-2.42-6.71-3.59-5.7-3.03-11.41-6.05-17.13-9.06-1.82-.96-4.66-2.22-5.37-3.59-.1-.15-.58-1.27-.17-1.19l.02-.02Zm29.47,23.11c-9.12-4.86-18.25-9.69-27.4-14.5-.7-.36-2.05-1.15-1.76-2.15.04-.29.31-.49.6-.45.04,0,.08.02.12.03.68.17,1.34.42,1.96.75,4.59,2.43,9.17,4.87,13.74,7.3,4.61,2.46,9.22,4.9,13.84,7.35,1.05.48,1.6,1.65,1.3,2.77l-2.4-1.1h-.01Z" style="fill: url(#bn);"/>
      <path id="bp" data-name="Path 1204" d="m145.43,134.92c1.89,1.11,3.84,2.11,5.84,3-.26.4-.73.6-1.2.51-.08-.01-.17,0-.24.02-1.15.54-2.26,1.15-3.34,1.83-10.41,5.78-20.81,11.58-31.22,17.38-1.28.78-2.64,1.42-4.06,1.91-3.39.89-5.34-.45-9.07-2.32-1.49-.75-2.96-1.52-4.4-2.3-.15-.08-.14-.14.02-.19,7.65-2.21,15.21-3.98,22.81-6.06.07-.03.11-.09.11-.16,0-.15.08-.29.21-.37.84.27,1.74.21,2.53-.18,2.85-.8,2.82-3.44,2.66-5.85,0-.06.04-.12.1-.12,0,0,0,0,0,0h0c3.25-.05,6.5-.07,9.76-.08,4.41,0,8.52-2.49,9.48-7.03h0Z" style="fill: #fefefe;"/>
      <path id="bq" data-name="Path 1205" d="m60.78,89.36c-.04-.08-.05-.16-.03-.24.36-1.75,2.49-.75,3.46-.24,5.19,2.74,10.36,5.5,15.53,8.27.91.46,1.79.96,2.65,1.51.85.74,1.35,1.81,1.38,2.93-.69.19-1.43.1-2.05-.25-5.3-2.77-10.6-5.56-15.89-8.37-1.54-.82-4.32-1.98-5.05-3.62h0Z" style="fill: #feeee0;"/>
      <path id="br" data-name="Path 1206" d="m60.92,81.74c.23-.41.69-.65,1.16-.59.58.06,1.13.24,1.64.52,9.8,5.31,15.62,8.42,17.47,9.35,1.29.62,2.27,1.73,2.72,3.08.44,1.68-1.47.66-1.98.39-6.64-3.41-13.22-6.93-19.75-10.57-.41-.24-.79-.53-1.13-.86-.4-.31-.47-.89-.16-1.3.01-.02.03-.03.04-.05h0Z" style="fill: #feeee0;"/>
      <path id="bs" data-name="Path 1207" d="m63.55,95.21c2.48,1.34,4.97,2.67,7.46,3.99,1.36.72,3.31,1.58,3.23,3.42-.49.68-1.37.32-1.97.01-2.65-1.33-5.3-2.69-7.94-4.06-1.58-.82-3.2-1.63-3.63-3.39-.12-1.47,2.19-.33,2.86.03Z" style="fill: #feeee0;"/>
      <g id="bt" data-name="Group 1764">
        <path id="bu" data-name="Path 1208" d="m46.91,142.9c-.35-.39-.69-.79-1.01-1.21.32.42.65.82,1.01,1.21Z" style="fill: none;"/>
        <path id="bv" data-name="Path 1209" d="m43.67,137.55c-.14-.52-.27-1.03-.39-1.52.11.49.24.99.39,1.52Z" style="fill: none;"/>
        <path id="bw" data-name="Path 1210" d="m43.17,135.58c-.04-.17-.07-.33-.11-.49.03.16.07.33.11.49Z" style="fill: none;"/>
        <path id="bx" data-name="Path 1211" d="m48.01,143.98c-.37-.34-.73-.69-1.06-1.06.34.37.69.73,1.06,1.06Z" style="fill: none;"/>
        <path id="by" data-name="Path 1212" d="m70.22,156.62l-.16-.14c.06.04.11.09.16.14Z" style="fill: none;"/>
        <path id="bz" data-name="Path 1213" d="m49.21,144.98c-.32-.24-.62-.5-.92-.77.3.26.61.52.92.77Z" style="fill: none;"/>
        <path id="ca" data-name="Path 1214" d="m70.55,157h0c-.04-.06-.09-.13-.14-.19.05.06.1.12.14.19Z" style="fill: none;"/>
        <path id="cb" data-name="Path 1215" d="m74.37,158.74c1.88,0,3.76,0,5.64-.04.38,0,.88-.19.17-.51l-6.9-.04c.39.2.75.39,1.08.6h.01Z" style="fill: none;"/>
        <path id="cc" data-name="Path 1216" d="m70.23,156.62l.17.17c-.05-.06-.11-.12-.17-.17Z" style="fill: none;"/>
        <path id="cd" data-name="Path 1217" d="m44.33,139.73h-.17c.17.21.33.43.49.64h.08c-.14-.21-.27-.42-.39-.64h0Z" style="fill: none;"/>
        <path id="ce" data-name="Path 1218" d="m70.02,156.45s-.1-.07-.16-.1c.05.03.11.06.16.1Z" style="fill: none;"/>
        <path id="cf" data-name="Path 1221" d="m70.41,156.81l-.02-.02s.02.02.02.02Z" style="fill: #feead4;"/>
        <path id="cg" data-name="Path 1222" d="m70.06,156.48s-.03-.02-.04-.03c.01,0,.03.02.04.03Z" style="fill: #feead4;"/>
        <path id="ch" data-name="Path 1223" d="m43.28,136.04c-.04-.15-.08-.31-.11-.46.03.15.07.3.11.46Z" style="fill: #feead4;"/>
        <path id="ci" data-name="Path 1224" d="m45.49,140.95c.15-.16.15-.42-.01-.58h-.75c.11.16.22.32.35.47.26.31.54.59.84.86h0c-.14-.18-.29-.36-.42-.55-.04-.06-.04-.14,0-.2Z" style="fill: #feead4;"/>
        <path id="cj" data-name="Path 1226" d="m43.06,135.09c-.07-.35-.14-.7-.19-1.02.05.33.11.68.19,1.02Z" style="fill: #feead4;"/>
        <path id="ck" data-name="Path 1227" d="m50.58,145.91c-.47-.29-.92-.6-1.36-.93.43.33.89.64,1.36.93Z" style="fill: #feead4;"/>
        <path id="cl" data-name="Path 1228" d="m48.29,144.23c-.09-.08-.19-.16-.28-.24.09.08.19.16.28.24Z" style="fill: #feead4;"/>
        <path id="cm" data-name="Path 1229" d="m43.67,137.55c.05.77.27,1.51.66,2.18h0c-.25-.77-.46-1.49-.66-2.18Z" style="fill: #feead4;"/>
        <path id="cn" data-name="Path 1230" d="m46.95,142.92l-.02-.02.02.02Z" style="fill: #feead4;"/>
      </g>
    </g>
  </g>
  <g id="co" data-name="step02">
    <g id="cp" data-name="files-laptop">
      <path id="cq" data-name="Path 1140" d="m135.72,7.22c.35.2.75.29,1.15.27.27,0,.54.07.79.2,3.56,1.82,7.12,3.66,10.66,5.53,2.21,1.17,5.88,3.22,8.87,4.73,2.07,1.05,3.55,1.81,4.46,2.29,7.96,4.21,15.92,8.42,23.89,12.63,1.5.79,3.4,1.72,5.21,2.77,2.54,1.48,5.59,2.84,8.39,4.33.96.51,1.93.98,2.91,1.42.78.52,1.64.91,2.55,1.13,2.45,1.24,3.94,2.44,3.94,5.43,0,12.58.03,25.17.08,37.74,0,3.67.01,7.34,0,11.01,0,1.07-.09,3.03,0,4.56.04.95-.03,1.9-.21,2.83-.39.74-.96,1.38-1.65,1.86-19.67-10.2-39.34-20.42-58.98-30.64-.79-.41-1.62-.8-2.48-1.17.04-1.39-.06-2.79-.29-4.16-1.31-5.53-6.1-7.23-11.65-9.92V13.02c-.08-2.6-.26-4.96,2.33-5.79h.01Zm3.54,28.68v26.63c0,.14.07.28.2.34,21.15,10.76,42,21.76,63.02,32.62.06.03.12,0,.15-.05,0-.01.01-.03.01-.05v-26.22s.01-2.78.01-2.78c.28-.05.43-.17.43-.38.13-6.36.39-10.2-.05-15.25,0-.08-.04-.16-.1-.21-.06-.05-.13-.08-.21-.1,0-.15-.11-.28-.25-.33-7.82-4.09-15.64-8.19-23.45-12.28l-39.59-20.72s-.08,0-.11.03c0,.01,0,.03,0,.04l-.05,18.72h0Zm31.63-7.26c-.36,1.36,1.33,2.02,2.37,2.21.14.03.29-.04.36-.17.78-1.4-1.02-2.16-2.01-2.45-.25-.12-.55-.01-.67.24-.02.05-.04.11-.05.16h0Z" style="fill: #071c2f;"/>
      <path id="cr" data-name="Path 1142" d="m179.01,37.85c-.06.22,0,.35.17.39.08.01.15.05.21.11.63.72.94,1.67.86,2.62,0,.14-.03.27-.09.39l-.47,1.11c-.68-.69-1.46-1.27-2.32-1.72-4.59-2.43-9.2-4.85-13.82-7.25-6.41-3.41-10.39-5.48-11.92-6.22-1.84-1.05-4.17-.54-5.4,1.17-1.1,1.65-2.11,3.36-3.02,5.12-1.03.37-2.13.49-3.21.36-.22-.03-.42.12-.46.33v.03l-.05,1.42c0,.08-.01.16-.06.23-.07.08-.13.07-.17-.04l.05-18.72s.03-.08.08-.08h0s.03,0,.04,0l39.59,20.72h0Z" style="fill: #ffe9d1;"/>
      <path id="cs" data-name="Path 1143" d="m119.91,43.48c3.81.01,7.63,0,11.45-.07.24,0,.47-.18.3-.42-.05-.06-.13-.1-.21-.1l-11.14-.08" style="fill: #63a998;"/>
      <path id="ct" data-name="Path 1144" d="m126.43,32.49c1.65-2.4,3.44-4.7,5.34-6.9.68-.77,1.21-.7,1.6.23v34.24c-.47-.3-.95-.58-1.44-.83-5.13-2.68-10.26-5.37-15.38-8.07-.03-.18,0-.37.08-.54,1.06-2.39,2.15-4.76,3.26-7.13l6.53-10.98h0Z" style="fill: #63a998;"/>
      <path id="cu" data-name="Path 1145" d="m120.29,42.82c1.07-2.39,2.31-4.69,3.71-6.9.47-.78.98-1.54,1.54-2.26.16-.2.31-.42.45-.64,1.81.1,3.63.08,5.43-.05.08,0,.15-.05.2-.11.21-.3-.14-.41-.38-.41-1.59,0-3.2,0-4.83.05l-6.14,10.33h.01Z" style="fill: #63a998;"/>
      <path id="cv" data-name="Path 1146" d="m163.57,33.5s-.03.07-.05.11c0,.07.03.13.1.15.68.23,1.3.61,1.8,1.12.59.86.43.94-.48.27-.07-.05-.15-.07-.23-.08-.77-.01-1.34-.31-2.12-.32-.95-.13-1.89-.39-2.77-.77-.55-.15-1.1-.33-1.65-.51-.89-.3-1.4-.94-2.5-1.02-.08,0-.16-.03-.23-.08-1.38-.95-2.97-1.56-4.62-1.8-.07,0-.12.04-.14.11-.09.61-1.62-.27-1.84-.49-.06-.06-.13-.1-.21-.11-.83-.14-1.54-.66-1.93-1.41-.02-.04-.07-.06-.12-.04,0,0,0,0,0,0,0,0-.01,0-.02.01-.27.26-.38.2-.34-.18,1.24-1.71,3.56-2.22,5.4-1.17,1.53.73,5.51,2.81,11.92,6.22h0Z" style="fill: #fdbf6c;"/>
      <path id="cw" data-name="Path 1147" d="m173.25,30.86c-1.03-.19-2.73-.85-2.37-2.21.03-.27.27-.47.55-.45.06,0,.11.02.16.05.99.3,2.79,1.05,2.01,2.45-.07.13-.21.19-.36.17h0Z" style="fill: #fefefe;"/>
      <path id="cx" data-name="Path 1148" d="m146.24,28.46c-.04.38.08.44.34.18.03-.04.09-.04.12,0,0,0,0,0,0,0,0,0,.01.01.01.02.38.75,1.1,1.27,1.93,1.41.08.02.15.06.21.11.23.22,1.75,1.11,1.84.49,0-.06.06-.11.12-.11,0,0,0,0,.01,0,1.66.24,3.24.86,4.62,1.8.07.04.15.07.23.08,1.11.08,1.61.72,2.5,1.02.55.18,1.09.35,1.65.51.88.38,1.81.64,2.77.77.77,0,1.34.3,2.12.32.08,0,.16.03.23.08.91.67,1.07.58.48-.27-.5-.51-1.12-.89-1.8-1.12-.06-.02-.1-.08-.1-.15,0-.04.02-.08.04-.11,4.62,2.4,9.22,4.81,13.82,7.25.85.45,1.64,1.03,2.32,1.72,1.42,1.6,1.93,3.28,2.65,5.47.25.63.63,1.2,1.12,1.67l-.18.48c-.03.09-.08.08-.13,0-.17-.29-.25-.27-.26.04,0,.06-.04.1-.09.11,0,0,0,0-.01,0h-.01c-2.04-.41-4.06-.95-6.03-1.6-.63-.19-1.22-.46-1.78-.8-1.43-.92-3.99-.52-4.8-1.27-.06-.06-.13-.09-.21-.09-.39-.01-.76-.15-1.06-.4-.07-.05-.14-.08-.22-.09-.61-.08-.72-.63-1.34-.77-.08-.02-.15-.06-.19-.13-.23-.34-.65-.52-1.05-.44-.08.01-.17,0-.24-.03-.65-.19-1.27-.48-1.84-.85-.06-.06-.12-.11-.19-.15l-.69-.14c-4.6-2.39-9.19-4.79-13.78-7.22-.96-.67-2.08-1.07-3.24-1.15-.58-.21-1.14-.48-1.68-.8-.38-.28-.79-.53-1.21-.74.92-1.76,1.93-3.46,3.02-5.12h0Z" style="fill: #fdc57b;"/>
      <path id="cy" data-name="Path 1149" d="m143.22,33.57c.43.21.83.46,1.21.74.53.32,1.09.59,1.68.8-.5.11-.81.61-.7,1.1.02.09.05.17.1.25.45,1.2,1.4,1.6,2.8,2.36,7.6,4.07,15.24,8.07,22.92,12.01.5.26,1.08.33,1.64.2-.25.2-.29.36-.12.51.06.05.12.12.15.19.22.49,1.82,1.17,2.34,1.41,1.01.32,1.99.71,2.95,1.17.07.04.15.06.24.06.91.12,1.81.3,2.69.54.51.1.98.3,1.4.61,1,.65,2.51.74,3.61,1.34.43.24.85.51,1.24.8,1.37.84,2.84,1.51,4.37,1.99.64.25.99.81,1.73,1.02.08.02.16.02.24-.01l.39-.16c.07-.02.14,0,.18.06.08.08.18.09.31,0,.97.69,2.28.57,3.12-.27.86-.87.8-2.24.72-3.42,1.32.3,2.55.95,3.55,1.87-.17,2.35-.2,4.71-.08,7.06.1.54-.17,1.08-.66,1.33-.07.03-.16.04-.24.01l-3.71-1.11c-.11-.03-.14,0-.11.11.11.3.08.39-.11.25-.37-.01-.72-.21-.92-.53-1.14-1.68-4.32-.49-5.24-2.34-.03-.07-.1-.13-.17-.16-1.05-.34-2.52-.33-3.6-1.24-.06-.05-.14-.08-.22-.08-.61-.01-.97-.55-1.43-.49-.08,0-.15-.01-.21-.06-.97-.93-1.65-.64-2.76-1.07-.39-.14-.63-.51-1.09-.61-.55-.13-1.13.36-1.62-.38-.04-.06-.12-.08-.18-.05-.64.27-.58-.62-1.26-.75-.08,0-.16,0-.24.04-.18.07-.38,0-.47-.17-.04-.07-.11-.12-.19-.14l-1.12-.19c-.22-.03-.43-.15-.56-.33-.3-.42-.6-.51-.92-.24-.06.05-.13.06-.2.03-.14-.08-.26-.19-.35-.33-.04-.06-.11-.1-.19-.11-.57-.04-.83-.8-1.54-.9-.08,0-.14-.06-.17-.13-.09-.2-.23-.37-.41-.49-.39-.57-.89-1.06-1.46-1.45-6.85-3.62-13.7-7.23-20.55-10.85-.68-.36-1.62-.79-2.8-1.28-.48-.26-1.08-.1-1.38.36-.86.76-1.3-.03-2.05-.06-.36-.02-.72.04-1.06.17-.03.01-.07,0-.09-.04,0,0,0,0,0,0v-.03c.04-.51-1.02-.71-1.41-.84-.77-.26-1.84.05-1.78-1.29.04-.21-.03-.42-.18-.57v-3.85c.04.11.11.12.17.04.04-.07.07-.15.06-.23l.05-1.42c.01-.21.2-.38.41-.36,0,0,0,0,.01,0h.04c1.08.13,2.19.01,3.21-.36h.01Z" style="fill: #fdd39f;"/>
      <path id="cz" data-name="Path 1150" d="m146.11,35.11c1.17.08,2.29.48,3.24,1.15,4.59,2.42,9.18,4.82,13.78,7.22,2.4,1.3,4.81,2.58,7.23,3.84,1.44.69,2.39,2.11,2.49,3.7-.55.13-1.13.06-1.64-.2-7.67-3.93-15.31-7.94-22.92-12-1.41-.75-2.35-1.16-2.8-2.36-.25-.45-.08-1.01.37-1.26.07-.04.15-.07.23-.09h0Z" style="fill: #fefefc;"/>
      <path id="da" data-name="Path 1152" d="m179.01,37.85c7.82,4.1,15.63,8.19,23.45,12.28.17.09.25.2.25.33l-.08,8.51c-.24-.03-.47-.12-.68-.25-1-.92-2.22-1.56-3.55-1.87.2-2.16-.78-5.65-3.27-6.26-1-.24-1.2.49-1.18,1.3.01.91-.01,1.91-.08,3-3.52-1.66-6.99-3.42-10.41-5.28-.49-.47-.87-1.04-1.12-1.67-.47-1.99-1.38-3.86-2.65-5.47l.47-1.11c.06-.12.09-.26.09-.39.07-.95-.24-1.9-.86-2.62-.06-.05-.13-.09-.21-.11-.17-.04-.24-.17-.17-.39h0Z" style="fill: #feedde;"/>
      <path id="db" data-name="Path 1153" d="m91.61,38.12l24.96,13.02c5.12,2.7,10.25,5.39,15.38,8.07.5.26.98.54,1.45.83,5.56,2.69,10.35,4.4,11.65,9.92.23,1.37.33,2.77.29,4.16-.12.54-.14,1.1-.04,1.65l-.09,9.49.11,3.68v3.96c-.15.41-.13.86.05,1.26-.35,0-.17.82-.11,1.02l.03,2.85.03,3.51-.14,1.08.11,1c.1,1.75-.03,3.5-.39,5.22-.09.32-.15.66-.17.99,0,.06-.05.11-.1.11,0,0,0,0-.01,0h-.01c-.19-.04-.31,0-.36.11-.02.07-.08.12-.15.14-.19.01-.28-.04-.27-.2.01-.07-.01-.15-.07-.2-.15-.11-.36-.15-.54-.08-.08.03-.16.03-.24,0-.03-.04-.06-.09-.07-.14l-.02-4.47v-19.34c.01-3.86-.05-7.73.08-11.59.07-1.01.04-2.02-.06-3.03-.36-1.83-1.77-4.73-3.7-5.34-.18-.05-1.46-.48-1.54-.17-.02.07-.08.12-.13.11-1.62-.16-2.85-1.24-4.21-.59-1.12-2.75-3.53-3.79-5.8-4.99-12.13-6.41-24.2-12.94-36.21-19.57-.43-.24-.83-.53-1.18-.87-.04-.04-.05-.1-.01-.14,0,0,0,0,.01-.01h.01s1.15-.84,1.15-.84c.06-.05.1-.12.1-.2,0-.16.08-.31.2-.42h0Z" style="fill: #faaf5a;"/>
      <path id="dc" data-name="Path 1154" d="m139.26,39.75c.15.15.21.36.18.57-.06,1.33,1.01,1.03,1.78,1.29.39.13,1.46.33,1.41.84,0,.04.03.08.07.08h.03c.34-.13.7-.18,1.06-.17.75.04,1.18.82,2.05.06.15,1.26.93,2.36,2.07,2.92,8.5,4.55,15.77,8.36,21.82,11.42.67.39,1.37.72,2.1.97.53.14.77-.06.73-.61-.03-.54-.21-1.06-.52-1.49.18.12.32.29.41.49.03.07.1.12.17.13.72.11.98.86,1.54.9.08,0,.15.04.19.11.09.13.21.25.35.33.07.03.14.02.2-.03.32-.26.63-.18.92.24.13.18.34.3.56.33l1.12.19c.08.02.15.07.19.14.09.17.29.25.47.17.08-.03.15-.04.24-.04.68.13.62,1.02,1.26.75.07-.03.14,0,.18.05.49.74,1.08.25,1.62.38.46.11.71.47,1.09.61,1.11.42,1.78.14,2.76,1.07.06.05.14.08.21.06.46-.06.82.47,1.43.49.08,0,.16.03.22.08,1.08.91,2.55.89,3.6,1.24.08.02.14.08.17.16.92,1.86,4.1.65,5.24,2.34.19.32.54.52.92.53.18.14.21.06.11-.25-.04-.1,0-.14.11-.11l3.71,1.11c.08.02.16.02.24-.01.5-.24.77-.79.66-1.33-.12-2.35-.1-4.71.08-7.06.2.14.43.22.68.25l.02,7.44-.02,2.78c-.07-.3-.11-.32-.13-.06,0,.03,0,.03-.02,0l-.02-.04c-.03-.06-.06-.05-.09,0-.27.82-1.16,1.27-1.98,1-.14-.05-.28-.12-.41-.2-.63-.32-1.34-.45-2.05-.36-.08.02-.17,0-.24-.05-.75-.5-1.6-.84-2.49-.99-1.35-.14-1.98-1.18-3.33-1.15-.9-.23-1.78-.57-2.6-1.02-2.09-.85-4.2-1.66-6.32-2.42-.02,0-.04-.03-.04-.06v-.04c0-.05-.05-.1-.1-.11-.99-.36-1.71-.61-2.86-1.13-.74-.33-1.5-.19-2.18-.61-.45-.36-.98-.61-1.55-.73-1.68-.08-2.93-1.05-4.72-.66l-11.52-5.73c-3.42-1.77-6.83-3.54-10.24-5.34-.89-.63-1.96-.95-3.05-.9-.36-.7-3.04-1.42-3.83-1.68-.05-.02-.12-.01-.16.03l-.06.08c-.04.06-.11.09-.18.08-.69-.19-1.31-.45-2.01-.64-1.02-.29-1.11-1.79-1.21-2.48v-4.22h-.02Z" style="fill: #fed7ac;"/>
      <path id="dd" data-name="Path 1155" d="m172.02,55.64c.31.44.5.96.52,1.49.04.55-.2.74-.73.61-.73-.25-1.43-.58-2.1-.97-6.05-3.06-13.32-6.87-21.82-11.42-1.14-.55-1.93-1.66-2.07-2.92.3-.46.9-.62,1.38-.36,1.18.49,2.12.92,2.8,1.28,6.85,3.62,13.7,7.23,20.55,10.85.58.38,1.07.88,1.46,1.45h0Z" style="fill: #fefefe;"/>
      <path id="de" data-name="Path 1156" d="m163.13,43.48l.69.14c.07.04.13.09.19.15.57.37,1.19.66,1.84.85.08.03.16.04.24.03.41-.08.82.1,1.05.44.04.07.11.11.19.13.62.14.74.7,1.34.77.08.01.15.04.22.09.3.25.67.39,1.06.4.08,0,.15.04.21.09.81.74,3.37.34,4.8,1.27.56.34,1.16.61,1.78.8,1.98.65,3.99,1.18,6.03,1.6.06,0,.11-.03.12-.08v-.02c0-.32.09-.33.26-.04.05.09.1.1.13,0l.18-.48c3.42,1.86,6.89,3.62,10.41,5.28.05,1.39.08,2.89.07,4.52.04.45.27.85.63,1.12-.13.08-.24.08-.31,0-.04-.06-.11-.08-.18-.06l-.39.16c-.07.03-.16.04-.24.01-.74-.2-1.09-.77-1.73-1.02-1.53-.49-3-1.16-4.37-1.99-.4-.29-.81-.56-1.24-.8-1.11-.61-2.61-.69-3.61-1.34-.42-.3-.89-.51-1.4-.61-.88-.24-1.78-.42-2.69-.54-.08,0-.16-.02-.24-.06-.96-.46-1.94-.85-2.95-1.17-.51-.24-2.12-.92-2.34-1.41-.04-.07-.09-.14-.15-.19-.17-.14-.13-.3.12-.51-.09-1.59-1.05-3.01-2.49-3.7-2.43-1.26-4.84-2.54-7.23-3.84v.02Z" style="fill: #fdcf94;"/>
      <path id="df" data-name="Path 1157" d="m116.19,62.75c2.61.81,4.14,3.51,3.48,6.16-.03.18-.2.3-.37.27,0,0,0,0,0,0-.02,0-.04,0-.05-.01-.46-.16-.91-.34-1.34-.56-3.92-2-7.85-3.99-11.79-5.97-7.36-3.83-14.72-7.65-22.08-11.47-1.27-.66-2.46-1.46-3.39-.08-.22.37-.32.79-.31,1.21-.02,1.04-.09,2.08-.21,3.11-.33,3.7-.42,7.41-.27,11.12l-.09,7.98s-.04.08-.08.08h-.03c-1.19-.5-2.33-1.09-3.43-1.77-.12-.07-.19-.2-.18-.34l.08-2.43c0-7.53,0-15.07.02-22.6,0-3.27,3.25-4.37,5.86-2.93,8.81,4.87,20.21,10.94,34.2,18.22h0Z" style="fill: #fff;"/>
      <path id="dg" data-name="Path 1158" d="m139.26,43.98c.1.69.19,2.19,1.21,2.48.69.2,1.32.46,2.01.64.07,0,.14-.02.18-.08l.06-.08s.1-.05.16-.03c.79.26,3.47.99,3.83,1.68-.81,1.1.33,1.9,1.17,2.34,3.44,1.81,6.89,3.59,10.35,5.34,4.66,2.36,9.32,4.74,13.97,7.13.49.25,1,.43,1.54.55.14.03.27-.05.31-.19.42-1.52-1.37-2.62-2.52-3.21,1.8-.39,3.04.59,4.72.66.57.11,1.1.36,1.55.73.68.42,1.45.28,2.18.61,1.15.51,1.87.77,2.86,1.13.05.01.09.06.1.11v.04s.01.05.04.06c2.12.77,4.23,1.57,6.32,2.42.82.44,1.7.78,2.6,1.02,1.34-.03,1.97,1.01,3.33,1.15.89.15,1.74.49,2.49.99.07.04.15.05.24.04.7-.08,1.41.05,2.05.36.71.49,1.69.32,2.19-.4.09-.12.15-.26.2-.4.03-.06.06-.07.09,0l.02.04s.02.02.02,0c.02-.25.06-.23.13.06v7.5c-.24-.6-.46.35-1,.43-.08.01-.15.05-.2.11-1.21,1.4-2.06.11-3.28-.1-1.2-.2-2.36-.58-3.44-1.14-.64-.31-1.31-.57-1.99-.8-1.16-.49-2.59-.33-3.25-1.23-.05-.07-.11-.12-.19-.14-.52-.2-1.03-.39-1.54-.61-.4-.26-.84-.46-1.29-.61-.08-.01-.16-.05-.23-.09-.79-.55-1.79-.72-2.72-.48-.37.06-.74.03-1.09-.1-.07-.02-.11-.09-.11-.17.08-.45-.22-.88-.68-.96-.01,0-.03,0-.04,0-.08-.01-.15-.06-.2-.13-.28-.48-.8-.77-1.35-.75-.45.03-.91-.07-1.3-.3-.4-.22-.87-.3-1.32-.24-.11.01-.22-.02-.31-.09-.36-.33-.78-.58-1.25-.71-.08-.02-.16-.05-.22-.11l-.57-.55c-.13-.14-.34-.18-.51-.1-.55.26-1.04.08-1.46-.55-.1-.14-.3-.18-.44-.08,0,0-.01.01-.02.02-.24.2-.44.15-.61-.15-.15-.3-.44-.5-.77-.53-.44-.01-.87-.17-1.22-.45-.04-.05-.11-.05-.16,0,0,0,0,0,0,0-.85.83-2.38-.07-3.11-.71-.51-.47-1.13-.8-1.8-.98-.49-.12-.72-.42-1.08-.58-1.06-.43-1.88-.24-2.71-1.11-.17-.18-.43-.25-.67-.18-.08.02-.15-.01-.2-.08-.5-.74-1.34-1.17-2.24-1.16-.13,0-.26-.04-.37-.12-.99-.73-2.02-1.4-3.09-2-.33-.17-.65-.18-.71-.64-.02-.16-.14-.29-.3-.32-.74-.1-1.43-.42-1.99-.92-.26-.23-.62-.33-.96-.28-.08.02-.16,0-.24-.04l-2.64-1.67c-.25-.16-.45-.41-.55-.69-.55-1.37-1.23-1.37-2.46-1.67-.64-.04-1.27-.13-1.9-.24-.4-.16-.79-.37-1.14-.63-.06-.05-.14-.05-.21-.02-.4.18-.87.1-1.21-.19-.06-.05-.15-.05-.22-.02-.55.28-.24-.3-.54-.6-.06-.06-.11-.14-.12-.22l-.19-1.17v-5.89Z" style="fill: #fedab7;"/>
      <path id="dh" data-name="Path 1159" d="m159.99,54.82c-.16.56-.58,1.01-1.13,1.22-.07.03-.12.09-.14.17-.03.11-.08.13-.15.08-.06-.05-.14-.07-.21-.06l-.13.04c-3.47-1.75-6.92-3.53-10.35-5.34-.83-.44-1.98-1.24-1.17-2.34,1.09-.05,2.16.26,3.05.9,3.4,1.79,6.82,3.57,10.24,5.34Z" style="fill: #fefefc;"/>
      <path id="di" data-name="Path 1160" d="m139.26,49.84l.19,1.17c.02.08.06.16.12.22.3.3-.01.88.54.6.07-.04.16-.03.22.02.33.29.8.37,1.21.19.07-.03.15-.02.21.02.35.26.73.47,1.14.63.63.12,1.26.2,1.9.24,1.23.31,1.9.31,2.46,1.67.1.28.29.53.55.69l2.64,1.67c.07.04.15.05.24.04.35-.05.7.05.96.28.56.49,1.25.81,1.99.92.16.03.28.16.3.32.06.46.39.48.71.64,1.07.6,2.11,1.27,3.09,2,.11.08.24.12.37.12.89-.01,1.73.42,2.24,1.16.05.06.12.09.2.08.24-.06.49.01.67.18.83.86,1.65.68,2.71,1.11.37.15.61.46,1.08.58.67.17,1.29.51,1.8.98.73.64,2.26,1.54,3.11.7.05-.04.12-.04.17,0,.35.28.78.44,1.22.45.33.03.62.23.77.53.17.3.36.36.61.15.13-.11.33-.1.44.03,0,0,0,0,0,0,0,0,.01.01.02.02.43.62.92.8,1.46.55.18-.07.38-.03.51.1l.57.55c.06.05.14.09.22.11.47.13.9.38,1.25.71.09.07.2.11.31.09.45-.07.92.01,1.32.24.39.23.85.33,1.3.3.55-.02,1.07.27,1.35.75.05.06.12.11.2.13.45.05.78.46.73.91,0,.02,0,.04,0,.06,0,.07.04.14.11.17.35.13.73.16,1.09.1.93-.24,1.93-.07,2.72.48.07.05.15.08.23.09.45.15.89.35,1.29.61.51.21,1.02.41,1.54.61.08.03.14.08.19.14.65.89,2.09.74,3.25,1.23.68.22,1.34.49,1.99.8,1.08.55,2.24.94,3.44,1.14,1.22.2,2.07,1.49,3.28.1.05-.06.12-.1.2-.11.54-.08.76-1.03,1-.43v18.72c0,.05-.03.1-.08.11,0,0-.01,0-.02,0-.02,0-.04,0-.05-.01-21.02-10.85-41.88-21.85-63.02-32.62-.13-.07-.21-.2-.21-.34v-12.71.04Zm6.31,7.73c.46,1.08,1.34,1.93,2.43,2.36,9.45,4.95,16.85,8.76,22.2,11.44.46.23.94.4,1.44.51.6.14.81-.11.63-.76-.58-2.08-1.76-2.65-3.83-3.74-6.99-3.67-13.99-7.32-21.01-10.95-.78-.4-2.35-.14-1.87,1.12h0Zm1.67,7.22c1.71,1.08,3.87,2.27,6.48,3.58,5,2.5,9.97,5.07,14.91,7.7,1.31.78,2.67,1.45,4.09,2.01.49.17.74,0,.74-.53,0-1.61-2.45-2.74-3.72-3.39-7.14-3.62-14.25-7.31-21.33-11.05-.48-.26-1.03-.38-1.58-.34-.08,0-.15.05-.17.13-.35.69-.09,1.53.58,1.9h0Z" style="fill: #feddc0;"/>
      <path id="dj" data-name="Path 1161" d="m106.1,62.64c-.06.15-.23.23-.39.17-.07-.02-.15-.01-.22.02l-.92.49c-.36.19-.37.38-.02.55,5.25,2.68,10.48,5.52,15.85,7.97,2.18,1.08,4.37,2.17,6.56,3.25,2.93,1.44,4.58,3,4.62,6.4v19.07c-.63.12-1.28,0-1.84-.31-.07-.04-.12-.1-.14-.18-.12-.56-.16-1.13-.12-1.7.08-1.58.08-3.14.06-4.72,0-1.6.01-3.21.01-4.81,0-.88-.1-2.78-1.5-2.66-.05,0-.08-.03-.09-.08v-.02c.04-.21-.06-.36-.33-.42-.43-.14-.81-.39-1.11-.73-.36-.36-.13-.6-.81-.69-.25-.03-.5-.11-.72-.24-.07-.04-.12-.11-.14-.18-.05-.21-.21-.37-.42-.43-.08-.01-.15-.06-.18-.14-.14-.33.01-.52.49-.58.06,0,.1-.05.09-.11,0,0,0,0,0,0v-.02c-.06-.21-.17-.39-.33-.53-.81-.59-2.35-1.9-3.31-2.04-.08-.01-.15-.05-.2-.12-.13-.22-.41-.3-.63-.18-.01,0-.03.02-.04.03-.06.03-.13.01-.17-.04-.11-.19-.35-.26-.55-.15,0,0,0,0,0,0-.06.03-.08.01-.08-.05.02-.09,0-.19-.04-.27-.05-.06-.13-.08-.2-.08h-.74c-.07-.02-.11-.09-.11-.16h0c.02-.16-.06-.31-.2-.39-.56-.43-1.35-.35-1.81.17-.04.05-.04.12,0,.17h0c.09.08.16.2.19.32-.87-.79-1.84-1.44-2.89-1.96-5.9-3.04-14.46-7.63-25.7-13.77-.72-.39-2.13-.66-2.49.27-.7,1.8,4.12,3.96,5.32,4.62.15.23.37.41.62.52.07.04.11.1.12.17.01.07.05.14.09.2.02.03.02.06,0,.09,0,0-.02.01-.03.01-.68.13-1.3.36-1.99.55-.58.14-.96.69-.89,1.28-.52-.24-3.18-1.66-2.65.3-.1-.15-.58-1.27-.17-1.19.06.02.13,0,.16-.07.04-.15-.04-.22-.24-.21-.07,0-.13-.04-.16-.11-.04-.12-.15-.22-.28-.24-.09-.02-.09-.04-.01-.07l.52-.18c.26-.08.27-.19.05-.33-.36-.24-.8-.35-1.23-.3-.08,0-.15-.02-.2-.08-.42-.52-1-.88-1.65-1.03-.35-.09-.66-.27-.91-.53-.39-.43-.92-.72-1.5-.82-.08-.01-.16.02-.22.08-.05.07-.14.08-.21.04-.02-.02-.04-.04-.05-.07-.02-.04-.07-.05-.11-.03,0,0-.01.01-.02.02l-.09.14c-.15-3.71-.05-7.42.28-11.12.12-1.03.19-2.07.21-3.11-.01-.43.1-.85.31-1.21.93-1.38,2.11-.58,3.39.08,7.36,3.82,14.72,7.64,22.08,11.47l.02-.02Z" style="fill: #febd56;"/>
      <path id="dk" data-name="Path 1162" d="m202.72,50.46c.08.02.15.05.21.1.06.05.1.13.1.21.44,5.04.18,8.89.05,15.25,0,.2-.14.33-.43.38l-.02-7.44.08-8.51h0Z" style="fill: #360c1b;"/>
      <path id="dl" data-name="Path 1163" d="m198.42,56.85c.08,1.18.14,2.55-.72,3.42-.83.84-2.15.95-3.12.27-.36-.27-.58-.68-.63-1.12,0-1.63-.01-3.13-.07-4.52.07-1.09.09-2.09.08-3-.01-.82.18-1.55,1.18-1.3,2.49.61,3.48,4.1,3.27,6.26h0Z" style="fill: #e64842;"/>
      <path id="dm" data-name="Path 1164" d="m159.99,54.82l11.53,5.73c1.15.58,2.93,1.68,2.52,3.21-.04.14-.17.22-.31.19-.53-.11-1.05-.3-1.54-.55-4.65-2.4-9.3-4.77-13.97-7.13l.13-.04c.08-.01.15,0,.21.06.08.05.12.02.15-.08.02-.07.07-.14.14-.17.55-.21.96-.66,1.13-1.22Z" style="fill: #feeacd;"/>
      <path id="dn" data-name="Path 1165" d="m147.99,59.93c-1.09-.43-1.96-1.28-2.43-2.36-.49-1.26,1.08-1.52,1.87-1.12,7.01,3.62,14.01,7.27,21.01,10.95,2.07,1.09,3.25,1.65,3.83,3.74.17.64-.03.89-.63.76-.5-.11-.98-.29-1.44-.51-5.35-2.68-12.75-6.49-22.2-11.44Z" style="fill: #fefefe;"/>
      <path id="do" data-name="Path 1166" d="m147.24,64.78c-.68-.37-.94-1.21-.58-1.9.03-.08.09-.13.17-.13.55-.04,1.1.08,1.58.34,7.08,3.74,14.19,7.43,21.33,11.05,1.28.64,3.72,1.77,3.72,3.39,0,.52-.25.7-.74.53-1.41-.56-2.78-1.23-4.09-2.01-4.94-2.63-9.91-5.2-14.91-7.7-2.62-1.3-4.78-2.5-6.48-3.58h0Z" style="fill: #ffe9d1;"/>
      <path id="dp" data-name="Path 1167" d="m116.62,79.2c.49.56.85,1.23,1.03,1.95.13.47-.05.73-.53.77-.5.02-1-.1-1.44-.36-8.31-4.33-16.58-8.73-24.83-13.18-1.2-.65-6.03-2.82-5.32-4.62.37-.93,1.77-.67,2.49-.27,11.23,6.14,19.8,10.73,25.7,13.77,1.05.51,2.02,1.17,2.89,1.96h0Z" style="fill: #fff;"/>
      <path id="dq" data-name="Path 1168" d="m88.77,71.2l27.73,14.74c.65.41,1.12,1.06,1.32,1.8.17.63-.06.86-.69.71-.63-.16-1.23-.4-1.8-.71-2.22-1.22-4.46-2.42-6.71-3.59-5.7-3.04-11.41-6.06-17.12-9.07-1.82-.96-4.66-2.22-5.37-3.59-.52-1.96,2.12-.53,2.65-.3v.02Z" style="fill: #fdcb83;"/>
      <path id="dr" data-name="Path 1169" d="m145.33,74.14c.86.37,1.69.76,2.48,1.17,19.65,10.23,39.31,20.45,58.99,30.65-.05.04,0,.23.13.55.13.22.17.49.13.74-.45-.03-.89-.15-1.3-.33-4.12-1.98-8.68-4.41-12.8-6.55-15.85-8.23-31.69-16.48-47.52-24.74-.14-.07-.18,0-.14.18-.1-.55-.08-1.11.04-1.65h0Z" style="fill: #ec8017;"/>
      <path id="ds" data-name="Path 1170" d="m207.05,107.24v.57h-.11c-.04-.43-1.33.59-1.43.65-15.18,8.35-30.35,16.71-45.53,25.05-2.71,1.49-4.97,2.61-7.74,1.84-2.39-.67-4.63-2.15-6.86-3.34-.11-2.96-.03-5.66-.08-8.89-.02-1.43,0-2.86.09-4.31l10.57,5.43c.17.08.36.08.53,0l6.25-3.3c.15-.08.16-.17,0-.24-5.79-3.02-11.66-5.92-17.38-9.1l-.08-1.31c4.96,2.57,9.95,5.11,14.87,7.75,1.24.67,2.52,1.27,3.82,1.82.26.12.56.1.8-.04l6.03-3.19c.2-.11.2-.21.01-.33-.4-.24-.81-.46-1.22-.67-8.18-4.24-16.32-8.56-24.42-12.96l.14-1.08c11.6,5.97,18.66,9.64,21.18,11.01,1.76.96,3.55,1.85,5.38,2.68.51.22,1.1.17,1.56-.13,1.85-1.04,3.74-2.07,5.67-3.08.16-.08.16-.17,0-.25l-33.73-17.62c-.18-.4-.2-.85-.06-1.26l17.48,9c.21.11.47.11.68,0l6.57-3.49c.08-.04.08-.08,0-.13-8.39-4.25-16.66-8.59-24.82-13.02l.09-9.49c-.04-.19,0-.25.14-.18,15.84,8.26,31.68,16.51,47.52,24.74,4.12,2.14,8.68,4.57,12.8,6.55.41.18.85.3,1.3.33l-.04-.02Z" style="fill: #071c2f;"/>
      <path id="dt" data-name="Path 1171" d="m102.7,84.42c4.61,2.46,9.22,4.9,13.84,7.35,1.05.48,1.6,1.65,1.3,2.77l-2.4-1.1c-9.12-4.86-18.25-9.69-27.4-14.5-.7-.36-2.05-1.15-1.76-2.15.04-.29.31-.49.6-.45.04,0,.08.02.12.03.68.17,1.34.42,1.96.75,4.59,2.43,9.17,4.87,13.74,7.3h-.01Z" style="fill: #fdc893;"/>
      <path id="du" data-name="Path 1172" d="m83.81,93.19c.44,1.68-1.47.66-1.98.39-6.64-3.41-13.22-6.93-19.75-10.57-.41-.24-.79-.53-1.13-.86-.4-.31-.47-.89-.16-1.3.01-.02.03-.03.04-.05.23-.41.69-.65,1.16-.59.57.06,1.13.24,1.64.51,9.8,5.31,15.62,8.42,17.47,9.35,1.29.62,2.27,1.73,2.72,3.08v.02Z" style="fill: #fdcb89;"/>
      <path id="dv" data-name="Path 1173" d="m145.2,85.28c8.16,4.43,16.44,8.77,24.82,13.02.08.04.08.08,0,.13l-6.57,3.49c-.21.11-.47.11-.68,0l-17.48-9v-2.89c1.36-.33,2.65-.9,3.81-1.68.04-.03.05-.09.02-.14,0,0-.01-.02-.03-.03-1.43-.92-2.39-.24-3.8.77l-.11-3.68.02.02Zm6.05,7.71c.25.1.53.09.77-.01.93-.43,1.82-.95,2.65-1.55.1-.07.13-.22.06-.33l-.05-.04c-1.05-.87-2.68.31-3.7,1.02-.69.49-.29.71.27.91h0Zm3.62,1.88c.42.25.92.29,1.37.11.89-.47,1.73-1.03,2.49-1.69.04-.03.04-.08.02-.12,0,0,0,0,0,0,0,0-.01-.01-.02-.02-.43-.37-1.04-.47-1.56-.24-.85.36-1.65.85-2.35,1.46-.13.11-.14.3-.04.43.02.03.06.06.09.08h0Zm4.03,2.43c1.15.3,2.48-.82,3.53-1.29.08-.04.1-.24.06-.48-.25-1.52-3.29.68-3.84,1.06-.07.04-.12.12-.13.2-.04.26.09.43.38.51h0Z" style="fill: #fefeff;"/>
      <path id="dw" data-name="Path 1175" d="m83.66,100.67c-.69.19-1.43.1-2.05-.25-5.3-2.77-10.6-5.56-15.89-8.37-1.54-.82-4.32-1.98-5.05-3.62-.04-.08-.05-.16-.03-.24.36-1.75,2.49-.75,3.46-.24,5.19,2.74,10.36,5.5,15.53,8.27.91.46,1.79.96,2.65,1.51.85.74,1.35,1.81,1.38,2.93h0Z" style="fill: #fdc893;"/>
      <path id="dx" data-name="Path 1176" d="m145.31,90.03v-1.07c1.42-1.01,2.37-1.68,3.8-.77.05.03.06.09.03.14,0,0-.01.02-.03.03-1.16.77-2.45,1.34-3.8,1.68h0Z" style="fill: #dce2e9;"/>
      <path id="dy" data-name="Path 1177" d="m151.25,93c-.56-.21-.96-.43-.27-.91,1.02-.71,2.65-1.9,3.7-1.02.1.08.11.23.03.33l-.04.04c-.83.6-1.71,1.12-2.65,1.55-.25.11-.52.11-.77.01h0Z" style="fill: #dce2e9;"/>
      <path id="dz" data-name="Path 1178" d="m154.86,94.88c-.15-.08-.2-.26-.13-.4,0,0,0,0,0-.01.02-.03.05-.06.08-.09.7-.6,1.5-1.09,2.35-1.46.52-.23,1.13-.14,1.56.24.04.02.06.08.03.12,0,0,0,0,0,0,0,0-.01.01-.02.02-.77.65-1.6,1.22-2.49,1.69-.45.18-.96.14-1.37-.11h0Z" style="fill: #e0e6ee;"/>
      <path id="ea" data-name="Path 1179" d="m74.14,101.69c-.49.68-1.37.32-1.97.01-2.65-1.33-5.3-2.69-7.94-4.06-1.58-.82-3.2-1.63-3.63-3.39-.12-1.48,2.19-.33,2.86.03,2.48,1.34,4.97,2.67,7.46,3.99,1.36.72,3.31,1.58,3.23,3.42h0Z" style="fill: #fac595;"/>
      <path id="eb" data-name="Path 1180" d="m145.36,94.19l33.73,17.62c.16.08.16.17,0,.25-1.93,1.02-3.82,2.04-5.67,3.08-.47.3-1.05.35-1.56.13-1.83-.82-3.62-1.71-5.38-2.68-2.52-1.38-9.58-5.05-21.18-11.01l-.03-3.51c.96-.38,1.87-.89,2.69-1.52.04-.03.05-.08.03-.12,0,0,0,0,0,0,0,0-.01-.01-.02-.02-.61-.48-1.42-.62-2.15-.39-.07.02-.12.09-.12.17,0,.24-.08.33-.22.29-.07-.03-.12-.1-.12-.18l-.11-1.07c-.06-.2-.24-1.01.11-1.02h0Zm4.61,6.81c1.02.67,2.69-.65,3.65-1.31.36-.24.24-.46-.33-.65-.25-.09-.53-.09-.79,0-.9.32-1.75.76-2.54,1.3-.33.22-.33.45,0,.67h0Zm4.66,2.46c.8.37,1.07.05,1.73-.28.77-.39,1.54-.81,2.29-1.25.04-.03.06-.08.04-.13,0,0,0-.01-.01-.02-1.38-1.3-2.87.11-4.09.89-.46.3-.45.56.05.79h0Zm4.09,2.14c.4.41,1.03.51,1.53.24.86-.47,1.69-.99,2.49-1.55.05-.03.06-.09.03-.14,0,0,0,0,0,0,0,0-.01-.01-.02-.02-1.31-1.02-2.99.25-4.02,1.14-.1.08-.11.23-.03.32,0,0,0,0,0,0,0,0,.01.01.02.02h0Zm11.11,5.92c.4.42.74.55,1.02.42.92-.46,1.84-.93,2.75-1.42.13-.07.18-.23.11-.36,0,0,0,0,0,0,0-.01-.02-.03-.03-.04-.32-.49-.95-.66-1.47-.39-.83.41-1.62.9-2.36,1.46-.1.08-.12.22-.04.32,0,0,.01.01.01.02h0Z" style="fill: #fefeff;"/>
      <path id="ec" data-name="Path 1181" d="m158.9,97.3c-.24-.03-.41-.24-.38-.48,0-.01,0-.02,0-.03.02-.08.06-.15.13-.2.55-.39,3.59-2.58,3.84-1.06.04.24.01.44-.06.48-1.05.48-2.38,1.59-3.53,1.29h0Z" style="fill: #dce2e9;"/>
      <path id="ed" data-name="Path 1182" d="m145.25,95.21l.11,1.07c0,.08.05.15.12.18.14.04.21-.05.22-.29,0-.08.05-.14.12-.17.74-.23,1.54-.08,2.15.39.04.03.05.08.03.12,0,0,0,0,0,0,0,0-.01.01-.02.02-.82.62-1.73,1.13-2.69,1.52l-.03-2.85Z" style="fill: #dadce0;"/>
      <path id="ee" data-name="Path 1183" d="m115.42,106.61l-2.43-.52c-.05,0-.11.02-.12.08v.02c.05,1.45.05,2.89,0,4.34-.06,1.69-.95,2.32-2.68,1.89-.52-.11-1.02-.3-1.49-.57-.93-.89-1.31-2.21-1-3.46v-11.02c-.52-2.27,2.24-1.61,3.17-.87,3.15,2.37,4.87,6.19,4.56,10.12h0Z" style="fill: #e64842;"/>
      <path id="ef" data-name="Path 1184" d="m149.97,101c-.34-.22-.34-.44,0-.67.79-.54,1.64-.98,2.54-1.3.25-.09.53-.09.79,0,.57.2.68.42.33.65-.96.66-2.63,1.98-3.65,1.31h0Z" style="fill: #dce2e9;"/>
      <path id="eg" data-name="Path 1185" d="m154.63,103.46c-.5-.24-.51-.49-.05-.79,1.22-.77,2.71-2.18,4.09-.89.04.04.04.1,0,.14,0,0-.01.01-.02.01-.75.44-1.52.86-2.29,1.25-.66.33-.93.65-1.73.28h0Z" style="fill: #dce2e9;"/>
      <path id="eh" data-name="Path 1186" d="m145.17,102.65c8.1,4.4,16.24,8.72,24.42,12.95.41.21.82.43,1.22.67.19.11.19.22-.01.33l-6.03,3.19c-.24.14-.54.16-.8.04-1.3-.55-2.58-1.15-3.82-1.82-4.92-2.64-9.9-5.18-14.87-7.75v-6.62l-.12-1h.02Zm4.95,3.48c-1.32-.56-2.85-.19-3.77.9-.24.34-.16.6.24.78.36.19.79.16,1.14-.05l2.4-1.46s.05-.08.03-.13c0-.01-.02-.02-.03-.03h0Zm.8,3.74c.69.7,1.1.61,1.93.12.59-.36,1.21-.72,1.84-1.08.26-.14.25-.28-.01-.4-1.27-.58-2.75.41-3.74,1.18-.05.04-.06.11-.02.16,0,0,0,0,0,0h0s0,0,0,0Zm6.05,3.09c.21.16.49.2.74.11.95-.32,1.83-.84,2.56-1.52.05-.04.06-.12.01-.17h0c-.98-.96-2.56.23-3.47.77-.36.21-.3.49.16.81h0Zm4.62,3.01c.43.42,1.07.51,1.6.24.79-.44,1.55-.92,2.29-1.44.05-.03.07-.1.03-.15,0,0,0,0,0,0,0-.02-.02-.03-.04-.04-.52-.3-.89-.55-1.52-.33-.89.31-1.7.8-2.38,1.45-.07.07-.08.19,0,.26l.02.02h0Z" style="fill: #fefeff;"/>
      <path id="ei" data-name="Path 1187" d="m145.29,103.65v6.62l.08,1.31v7.22c-.07,1.45-.1,2.89-.08,4.31.04,3.24-.02,5.94.08,8.89-.07.09-.08.22-.02.32-.14.08-.2.02-.18-.18.01-.1-.06-.19-.15-.2h-.01c-.49-.08-.94-.31-1.29-.66-.12-.1-.29-.09-.39.02-.08.09-.14.05-.14-.14,0-.05-.06-.1-.13-.11-.24-.04-.14-3.02-.15-4.54v-13.1l.02-3.84c0,.05.03.1.07.14.07.04.16.04.24,0,.18-.06.38-.03.54.08.06.05.08.13.07.2-.01.15.08.21.27.2.05,0,.11-.06.15-.14.05-.11.17-.14.36-.11.06.01.11-.02.13-.08,0,0,0,0,0,0h0c.02-.35.07-.68.17-1.01.36-1.71.49-3.47.39-5.21v.02Z" style="fill: #ee8c67;"/>
      <path id="ej" data-name="Path 1188" d="m158.72,105.59c-.1-.08-.11-.23-.03-.32,0,0,0,0,0,0,0,0,.01-.01.02-.02,1.04-.89,2.71-2.16,4.02-1.14.04.03.05.1.02.14,0,0,0,0,0,0,0,0-.01.01-.02.02-.8.56-1.63,1.08-2.49,1.55-.5.28-1.13.18-1.53-.24h0Z" style="fill: #dce2e9;"/>
      <path id="ek" data-name="Path 1189" d="m150.12,106.13s.06.08.04.13c0,.01-.01.02-.03.03l-2.4,1.46c-.34.22-.78.24-1.14.05-.4-.18-.49-.44-.24-.78.93-1.08,2.45-1.44,3.77-.89Z" style="fill: #dadce0;"/>
      <path id="em" data-name="Path 1190" d="m118.63,134.59l.06-3.78v-3.78l-.04-4.98v-2.33l-.02-.51c.02-3.18.02-6.35.01-9.54.04-.61-.04-1.23-.24-1.81-.55-1.14-1.93-.86-2.99-1.25l-2.43-.52h-.02c-.06,0-.1.04-.1.1.05,1.45.04,2.89,0,4.34-.06,1.69-.95,2.32-2.68,1.89-.52-.11-1.02-.3-1.49-.57-.93-.89-1.31-2.21-1-3.46v-11.02c-2.83-1.65-5.71-3.2-8.63-4.64-1.29-.64-2.31-.49-3.06.45-1.62,2.03-2.24,1.56-4.5.45-2.62-1.3-6.18-2.49-6.94-5.67-.41-2-1.76-3.67-3.63-4.48-5.34-2.94-10.2-5.5-14.59-7.67-.45-.21-.95-.28-1.44-.2-.08.01-.15.06-.2.12-.67.99-1.79,1.59-2.99,1.61-1.19.03-2.38.04-3.57.04-.34-.04-.65.2-.7.54,0,.02,0,.05,0,.07-.17,1.49-.18,2.99-.04,4.49,0,.9-.02,2.66-.08,5.29.01.54-.25,1.06-.7,1.36-.7.18-3.65.58-4.01.9v15.81l.04,3.21c-.03-.19.01-.3.12-.31.08,0,.16.04.2.11,1.64,2.48,3.74,3.47,6.59,4.92,5.34,2.73,10.68,5.47,16.01,8.23.78.4,1.52,1.04,2.36,1.46.74.37,1.22.63,1.44.77.67.52,1.4.96,2.16,1.32.08,0,.16.02.23.07.77.54,1.63.92,2.54,1.13.33,0,.64.19.77.49.17.37.51.63.91.7.07.01.12.07.12.14,0,.12.08.15.2.1,1.65.14,3.09,1.05,5.23,2.18.22.11.58.12.79.43.04.07.11.11.19.13.32.09.63.22.93.37,1.78.89,3.55,1.8,5.3,2.75,4.17,2.21,8.33,4.42,12.49,6.62,1.94,1.02,3.75,2.2,5.98.99.86-.41,1.41-1.27,1.44-2.22.09-1.62.08-3.24-.01-4.85v.03Zm-.24-11.35s-.01.03-.02.04h0s.02-.02.03-.04Zm-7.26-10.29s.01.02.02.03c0,0-.01-.02-.02-.03Zm-.9,9.79h0Zm.08-.03s-.01,0-.01,0c.01,0,.02-.02.03-.04,0,0,0,.01-.01.03Zm-7.98-13.04s.01,0,.01,0c-.01,0-.02.02-.02.04,0-.01,0-.02,0-.03Zm-37.39-17.1v.02s-.01.01-.01.02c0-.01.01-.03.01-.05Zm-3.39-1.04s-.02,0-.03,0c0,0,0-.01,0-.01.02,0,.02.02.04.02Zm.33-7.34s.01-.03.01-.04h0s0,.03-.01.05h0Zm17.82,19.53s0,.03.02.04h0s-.01-.02-.02-.03h0Zm-21.45-20.13s-.01.01-.02.01h-.01s.03,0,.04-.01Zm-5.45,8.16s0,.04,0,.05v-.02s0-.02,0-.03h0Zm65.37,42.19h.05s.02,0,.02,0c-.02,0-.04-.01-.07-.01h0Z" style="fill: url(#el);"/>
      <path id="en" data-name="Path 1191" d="m206.93,107.8c-.35.27-.73.52-1.12.72-15.38,8.52-30.79,17-46.22,25.44-.9.49-1.83.93-2.77,1.32-3.94,1.59-7.29-.77-10.58-2.57-.25-.14-.53-.23-.81-.26l-.08-.11c-.05-.1-.05-.23.02-.32,2.22,1.19,4.47,2.68,6.86,3.34,2.77.77,5.03-.35,7.74-1.84,15.18-8.35,30.35-16.7,45.53-25.05.11-.06,1.39-1.08,1.43-.66h0Z" style="fill: #ebceef;"/>
      <path id="eo" data-name="Path 1192" d="m206.93,107.8h.11c.13.46.13,1.69-.32,1.95-.9.51-1.8,1.02-2.69,1.54-14.91,8.29-29.85,16.51-44.82,24.68-1.18.66-2.44,1.16-3.75,1.5-1.45.21-2.93.05-4.3-.46-2-.89-3.95-1.89-5.84-3l.1-1.55c.28.04.56.13.81.26,3.29,1.8,6.64,4.16,10.58,2.57.95-.38,1.88-.82,2.77-1.32,15.43-8.44,30.83-16.92,46.22-25.44.4-.21.77-.45,1.12-.72h0Z" style="fill: #393b40;"/>
      <path id="ep" data-name="Path 1193" d="m150.92,109.87s-.05-.12,0-.17h0c.99-.78,2.47-1.77,3.74-1.19.26.12.27.26.01.4-.64.36-1.25.71-1.84,1.08-.82.5-1.23.58-1.93-.12h0Z" style="fill: #dce2e9;"/>
      <path id="eq" data-name="Path 1194" d="m98.74,134.06c-.69.27-1.41.45-2.14.53l-43.73-22.89c-.44-.23-.22-1.79-.21-2.27v-.38c-.03-.19.01-.3.12-.31.08,0,.16.04.2.11,1.64,2.48,3.74,3.47,6.59,4.92,5.34,2.73,10.68,5.48,16.01,8.24.78.4,1.52,1.04,2.36,1.46.74.37,1.22.63,1.44.77.67.52,1.4.96,2.16,1.32.08,0,.16.02.23.07.77.54,1.63.92,2.54,1.13.33,0,.64.19.77.49.17.37.51.63.91.7.07.01.12.07.12.14,0,.12.08.15.2.1,1.65.14,3.09,1.05,5.23,2.18.22.11.58.12.79.43.04.07.11.11.19.13.32.09.63.22.93.37,1.78.89,3.55,1.8,5.3,2.75h-.01Z" style="fill: #d36378;"/>
      <path id="er" data-name="Path 1195" d="m52.65,109.45c0,.49-.24,2.04.21,2.27,0,.16-.07.3-.2.39-.07.04-.13.1-.18.17-.34.52-.64,1.07-.9,1.63-2.05,4.17-4.02,8.29-5.91,12.35-.1.21-.35.3-.56.2,0,0,0,0,0,0h0c-2.9-1.46-5.66-2.91-8.29-4.35-.51-.31-.94-.74-1.27-1.24-.57-2.24,1.49-3.16,3.33-4.18,4.2-2.33,8.4-4.67,12.59-7.04.01,0,.17-.13.47-.35.19-.17.49-.16.66.03.03.04.06.08.08.12h-.02Z" style="fill: #fefefe;"/>
      <path id="es" data-name="Path 1196" d="m169.84,111.51c-.09-.09-.09-.23,0-.33,0,0,.01-.01.02-.01.74-.56,1.53-1.04,2.36-1.46.52-.27,1.15-.1,1.47.39.1.11.09.28-.03.38,0,0,0,0,0,0-.01.01-.03.02-.04.03-.92.49-1.84.97-2.75,1.42-.28.14-.62,0-1.02-.42Z" style="fill: #e0e6ee;"/>
      <path id="et" data-name="Path 1197" d="m156.96,112.95c-.46-.33-.51-.6-.16-.81.91-.55,2.49-1.72,3.47-.77.05.05.05.12,0,.17h0c-.73.69-1.61,1.21-2.56,1.52-.25.09-.53.04-.74-.11h0Z" style="fill: #dce2e9;"/>
      <path id="eu" data-name="Path 1198" d="m204.03,111.28c.34.19.52.38.55.57,1.27,10.08-8.95,16.86-16.4,20.76-14.63,7.67-29.09,15.66-43.73,23.32-.14.08-1.62.86-4.45,2.37-5.8,3.09-13.68,7.63-20.59,6.63-2.7-.39-5.39-2.01-7.72-3.56-.33-.22-.39-.46-.17-.71,18.19-9.91,29.41-16.12,33.66-18.63,2.37-1.39,4.79-2.71,7.26-3.93.45-.25.97-.33,1.48-.24.54.17,1.14.01,1.52-.41,1.31-.33,2.57-.83,3.75-1.5,14.97-8.17,29.91-16.4,44.82-24.68h.01Z" style="fill: #63a998;"/>
      <path id="ev" data-name="Path 1199" d="m145.37,111.59c5.72,3.18,11.58,6.08,17.38,9.1.15.08.15.16,0,.24l-6.25,3.3c-.17.09-.37.09-.53,0l-10.57-5.43v-7.22s-.02,0-.02,0Z" style="fill: #fefeff;"/>
      <path id="ew" data-name="Path 1200" d="m52.86,111.72l43.72,22.89,24.2,12.64c-.13.08-.21.22-.21.37,0,.07-.04.14-.11.16-7.59,2.08-15.16,3.86-22.81,6.06-.16.04-.17.11-.02.19,1.44.78,2.91,1.55,4.4,2.3,3.73,1.87,5.68,3.2,9.07,2.32,1.42-.49,2.78-1.13,4.06-1.91,10.4-5.8,20.81-11.59,31.22-17.38,1.07-.68,2.19-1.29,3.34-1.83.08-.03.16-.04.24-.02.47.09.94-.11,1.2-.51,1.37.51,2.85.67,4.3.46-.39.41-.98.57-1.52.41-.51-.09-1.03,0-1.48.24-2.47,1.23-4.89,2.54-7.26,3.93-4.25,2.51-15.47,8.72-33.66,18.63-2.33.45-4.74.12-6.86-.95-5.04-2.67-10.08-5.33-15.13-7.99-12.2-6.47-24.43-12.9-36.67-19.3-5.3-2.77-8.45-4.4-9.46-4.9-2.11-1.15-4.24-2.28-6.39-3.39-1.27-.55-1.92-1.97-1.49-3.29.32.51.75.93,1.27,1.24,2.63,1.44,5.39,2.89,8.29,4.35.21.11.46.02.57-.19,0,0,0,0,0,0h0c1.9-4.07,3.87-8.19,5.91-12.36.27-.56.57-1.1.9-1.63.05-.07.11-.12.18-.17.13-.09.2-.24.2-.39h0Z" style="fill: #eff2f6;"/>
      <path id="ex" data-name="Path 1201" d="m161.58,115.96c-.08-.06-.1-.18-.04-.26,0,0,0,0,0,0,0,0,.01-.01.02-.02.68-.64,1.49-1.14,2.38-1.45.62-.22.99.03,1.52.33.06.03.08.1.05.16,0,.02-.02.03-.04.04-.74.52-1.5,1-2.29,1.44-.53.28-1.17.18-1.6-.24h0Z" style="fill: #dce2e9;"/>
      <path id="ez" data-name="Path 1202" d="m123.86,141.8c-.06-2.43-.07-4.84-.03-7.27l-.02-16.07c.08-4.68.11-9.37.08-14.05-.06-1.29-.21-2.57-.47-3.83-.3-1.05-1.02-1.94-1.99-2.46-.43-.3-.9-.56-1.39-.77-1.93-.88-3.82-1.82-5.68-2.83-1.26-.61-4.83-2.43-10.73-5.48-10.62-5.48-21.22-10.99-31.81-16.52-8.34-4.36-13.41-7.02-15.2-7.99-.51-.26-1.09-.39-1.67-.35-.07,0-.12-.06-.13-.12,0-.07-.04-.13-.08-.18-1.38.48-2.27,1.83-2.15,3.29.02,2.68.01,10.22,0,22.62l.02.25c.36-.33,3.31-.72,4.01-.9.45-.3.72-.82.7-1.36.05-2.63.08-4.39.08-5.29-.14-1.49-.12-3,.04-4.49,0-.34.27-.62.61-.62.03,0,.06,0,.09,0,1.19,0,2.38,0,3.57-.04,1.2-.01,2.31-.61,2.99-1.61.05-.06.12-.11.2-.12.49-.09.99-.02,1.44.2,4.39,2.18,9.25,4.73,14.59,7.67,1.87.81,3.22,2.48,3.63,4.48.77,3.18,4.33,4.38,6.94,5.67,2.26,1.11,2.87,1.58,4.5-.45.74-.93,1.76-1.08,3.06-.45,2.93,1.44,5.81,2.98,8.64,4.64-.53-2.27,2.23-1.61,3.16-.87,3.15,2.37,4.87,6.19,4.56,10.12,1.05.39,2.43.11,2.99,1.25.2.58.28,1.2.24,1.81,0,3.18,0,6.35-.01,9.54l.02.51v2.34l.04,4.98v3.78l-.06,3.78c.1,1.62.1,3.24.01,4.85-.03.95-.58,1.81-1.44,2.22-2.24,1.21-4.04.04-5.98-.99-4.16-2.2-8.33-4.41-12.49-6.62-.69.27-1.41.45-2.14.53l24.2,12.64c.84.27,1.74.21,2.53-.18l-.26-.33c-.04-.07-.03-.15.01-.21.89-1.21.82-3.29.78-4.73h0Zm-5.05-25.7s-.03,0-.04.01c.01,0,.02-.01.04-.01h0Zm-.08.1s.01-.02.02-.04c-.01.02-.02.03-.02.05h0Z" style="fill: url(#ey);"/>
      <path id="fb" data-name="Path 1203" d="m145.36,132.32c-.14.08-.2.02-.18-.18h0c0-.11-.07-.2-.17-.21-.49-.08-.94-.31-1.29-.66-.12-.1-.29-.09-.39.02-.08.09-.14.04-.14-.14,0-.05-.06-.1-.13-.11-.24-.04-.14-3.02-.15-4.54v-13.1l.02-3.84-.02-4.47v-19.35c.01-3.86-.05-7.73.08-11.59.07-1.01.04-2.02-.06-3.03-.36-1.83-1.77-4.73-3.7-5.34-.18-.05-1.46-.48-1.54-.17-.02.07-.08.12-.13.11-1.62-.16-2.85-1.24-4.21-.59-1.12-2.75-3.53-3.79-5.8-4.99-12.13-6.41-24.2-12.94-36.21-19.57-.43-.24-.83-.53-1.18-.87h-.01c-.03-.07-.02-.13.03-.17l1.15-.83c.06-.05.1-.12.1-.2,0-.16.08-.31.2-.42-2.14-1.24-4.34-2.38-6.58-3.43-.97-.62-2.21-.64-3.19-.04-1.83.96-1.68,2.11-2.07,3.83-.06.31-.29.55-.59.62-1.46.42-2.69.14-4.15.22-1.41.29-2.38,1.59-2.26,3.02,0,7.9-.02,15.8-.05,23.7v4.93s-.05.04-.08.03c-4.06-2.04-8.06-4.12-12.02-6.25-1.92-1.03-3.88-2.08-5.87-.87.04.05.07.12.08.18.01.07.06.11.13.12.58-.03,1.15.09,1.67.35,1.8.96,6.86,3.63,15.2,7.99,10.59,5.53,21.19,11.04,31.81,16.53,5.89,3.04,9.47,4.87,10.73,5.48,1.87,1.01,3.76,1.95,5.68,2.83.48.22.95.47,1.39.77.97.51,1.69,1.4,1.99,2.46.25,1.26.4,2.54.47,3.83.03,4.68,0,9.37-.08,14.05l.02,16.07c-.04,2.43-.03,4.84.03,7.27.04,1.44.11,3.52-.78,4.73-.05.06-.06.15-.01.21l.26.33c2.85-.8,2.82-3.44,2.66-5.85h0c0-.07.05-.12.11-.12,3.25-.05,6.5-.07,9.76-.08,4.41,0,8.52-2.49,9.48-7.03l.1-1.55-.08-.11h0Zm-10.79-51.15v-.04h.01s-.01.02-.01.04Zm.04-.08s.02-.01.03-.01c-.01,0-.02,0-.03.01Zm-4.37,30.69h-.04s.02,0,.03,0h.01Zm-.06-.01s0-.02-.01-.02c0,0,0,.02.01.02h0Zm-44.19-41.44c.06.02.13,0,.16-.07.04-.15-.04-.22-.24-.21-.07,0-.13-.04-.16-.11-.04-.12-.15-.22-.28-.24-.09-.02-.09-.04-.01-.07l.52-.17c.26-.08.27-.19.05-.33-.36-.24-.8-.35-1.23-.3-.08,0-.15-.02-.2-.08-.42-.52-1-.88-1.65-1.03-.35-.09-.66-.27-.91-.53-.39-.43-.92-.72-1.5-.82-.08,0-.16.02-.21.08-.05.07-.14.08-.21.04-.02-.02-.04-.04-.05-.07,0,0-.01-.01-.02-.02-.03-.03-.08-.02-.1.01,0,0,0,0,0,0l-.09.14-.09,7.98v.03s-.06.06-.1.05c0,0,0,0-.01,0-1.19-.5-2.33-1.09-3.43-1.77-.12-.07-.19-.2-.18-.34l.08-2.43c0-7.53,0-15.07.02-22.6,0-3.27,3.25-4.37,5.86-2.93,8.81,4.87,20.21,10.94,34.2,18.22,2.61.81,4.14,3.51,3.48,6.16,0,.02,0,.04-.01.05-.06.17-.25.26-.43.2-.46-.16-.91-.34-1.34-.56-3.92-2-7.85-3.99-11.79-5.97-.06.15-.23.23-.39.17-.07-.02-.15-.01-.22.02l-.92.49c-.36.19-.37.38-.02.55,5.25,2.68,10.48,5.52,15.85,7.97,2.18,1.08,4.37,2.17,6.56,3.25,2.93,1.44,4.58,3,4.62,6.4v19.07c-.63.12-1.28,0-1.84-.31-.07-.04-.12-.1-.14-.18-.12-.56-.16-1.13-.12-1.7.08-1.58.08-3.14.06-4.72,0-1.6.01-3.21.01-4.81,0-.88-.1-2.78-1.5-2.66h-.02s-.07-.04-.06-.09c0,0,0,0,0-.01.04-.21-.06-.36-.33-.42-.43-.14-.81-.39-1.11-.73-.36-.36-.13-.6-.81-.69-.25-.03-.5-.11-.72-.24-.07-.04-.12-.11-.14-.18-.05-.21-.21-.37-.42-.43-.08-.01-.15-.06-.18-.14-.14-.33.01-.52.49-.58h.02c.05-.02.08-.08.06-.14-.06-.21-.17-.39-.33-.53-.81-.59-2.35-1.9-3.31-2.04-.08-.01-.15-.05-.2-.12-.13-.22-.41-.3-.63-.18-.01,0-.03.02-.04.03-.06.03-.13.01-.17-.04-.11-.19-.35-.26-.55-.15,0,0,0,0,0,0-.06.03-.08.01-.08-.05.02-.09,0-.19-.04-.27-.05-.06-.13-.08-.2-.08h-.74c-.06,0-.11-.08-.11-.16.02-.16-.06-.31-.2-.39-.56-.43-1.35-.35-1.81.17h0c-.04.05-.04.13.01.17,0,0,0,0,0,0,.09.08.16.2.19.32.49.56.85,1.23,1.03,1.95.13.47-.05.73-.53.77-.5.02-1-.1-1.44-.36-8.31-4.33-16.58-8.73-24.83-13.18.15.23.37.41.62.52.07.04.11.1.12.17.01.07.05.14.09.2,0,0,.01.02.01.03,0,.03-.01.07-.04.08-.68.13-1.3.36-1.99.55-.58.14-.96.69-.89,1.28l27.73,14.74c.65.41,1.12,1.06,1.32,1.8.17.63-.06.86-.69.7-.63-.16-1.23-.39-1.8-.7-2.22-1.22-4.46-2.42-6.71-3.59-5.7-3.03-11.41-6.05-17.13-9.06-1.82-.96-4.66-2.22-5.37-3.59-.1-.15-.58-1.27-.17-1.19l.02-.02Zm29.47,23.11c-9.12-4.86-18.25-9.69-27.4-14.5-.7-.36-2.05-1.15-1.76-2.15.04-.29.31-.49.6-.45.04,0,.08.02.12.03.68.17,1.34.42,1.96.75,4.59,2.43,9.17,4.87,13.74,7.3,4.61,2.46,9.22,4.9,13.84,7.35,1.05.48,1.6,1.65,1.3,2.77l-2.4-1.1h-.01Z" style="fill: url(#fa);"/>
      <path id="fc" data-name="Path 1204" d="m145.33,134c1.89,1.11,3.84,2.11,5.84,3-.26.4-.73.6-1.2.51-.08-.01-.17,0-.24.02-1.15.54-2.26,1.15-3.34,1.83-10.41,5.78-20.81,11.58-31.22,17.38-1.28.78-2.64,1.42-4.06,1.91-3.39.89-5.34-.45-9.07-2.32-1.49-.75-2.96-1.52-4.4-2.3-.15-.08-.14-.14.02-.19,7.65-2.21,15.21-3.98,22.81-6.06.07-.03.11-.09.11-.16,0-.15.08-.29.21-.37.84.27,1.74.21,2.53-.18,2.85-.8,2.82-3.44,2.66-5.85,0-.06.04-.12.1-.12,0,0,0,0,0,0h0c3.25-.05,6.5-.07,9.76-.08,4.41,0,8.52-2.49,9.48-7.03h0Z" style="fill: #fefefe;"/>
      <path id="fd" data-name="Path 1205" d="m60.67,88.44c-.04-.08-.05-.16-.03-.24.36-1.75,2.49-.75,3.46-.24,5.19,2.74,10.36,5.5,15.53,8.27.91.46,1.79.96,2.65,1.51.85.74,1.35,1.81,1.38,2.93-.69.19-1.43.1-2.05-.25-5.3-2.77-10.6-5.56-15.89-8.37-1.54-.82-4.32-1.98-5.05-3.62h0Z" style="fill: #feeee0;"/>
      <path id="fe" data-name="Path 1206" d="m60.82,80.82c.23-.41.69-.65,1.16-.59.58.06,1.13.24,1.64.52,9.8,5.31,15.62,8.42,17.47,9.35,1.29.62,2.27,1.73,2.72,3.08.44,1.68-1.47.66-1.98.39-6.64-3.41-13.22-6.93-19.75-10.57-.41-.24-.79-.53-1.13-.86-.4-.31-.47-.89-.16-1.3.01-.02.03-.03.04-.05h0Z" style="fill: #feeee0;"/>
      <path id="ff" data-name="Path 1207" d="m63.45,94.29c2.48,1.34,4.97,2.67,7.46,3.99,1.36.72,3.31,1.58,3.23,3.42-.49.68-1.37.32-1.97.01-2.65-1.33-5.3-2.69-7.94-4.06-1.58-.82-3.2-1.63-3.63-3.39-.12-1.47,2.19-.33,2.86.03Z" style="fill: #feeee0;"/>
      <g id="fg" data-name="Group 1764">
        <path id="fh" data-name="Path 1208" d="m46.81,141.98c-.35-.39-.69-.79-1.01-1.21.32.42.65.82,1.01,1.21Z" style="fill: none;"/>
        <path id="fi" data-name="Path 1209" d="m43.56,136.63c-.14-.52-.27-1.03-.39-1.52.11.49.24.99.39,1.52Z" style="fill: none;"/>
        <path id="fj" data-name="Path 1210" d="m43.06,134.66c-.04-.17-.07-.33-.11-.49.03.16.07.33.11.49Z" style="fill: none;"/>
        <path id="fk" data-name="Path 1211" d="m47.9,143.06c-.37-.34-.73-.69-1.06-1.06.34.37.69.73,1.06,1.06Z" style="fill: none;"/>
        <path id="fl" data-name="Path 1212" d="m70.11,155.7l-.16-.14c.06.04.11.09.16.14Z" style="fill: none;"/>
        <path id="fm" data-name="Path 1213" d="m49.11,144.06c-.32-.24-.62-.5-.92-.77.3.26.61.52.92.77Z" style="fill: none;"/>
        <path id="fn" data-name="Path 1214" d="m70.44,156.08h0c-.04-.06-.09-.13-.14-.19.05.06.1.12.14.19Z" style="fill: none;"/>
        <path id="fo" data-name="Path 1215" d="m74.26,157.82c1.88,0,3.76,0,5.64-.04.38,0,.88-.19.17-.51l-6.9-.04c.39.2.75.39,1.08.6h.01Z" style="fill: none;"/>
        <path id="fp" data-name="Path 1216" d="m70.12,155.7l.17.17c-.05-.06-.11-.12-.17-.17Z" style="fill: none;"/>
        <path id="fq" data-name="Path 1217" d="m44.22,138.81h-.17c.17.21.33.43.49.64h.08c-.14-.21-.27-.42-.39-.64h0Z" style="fill: none;"/>
        <path id="fr" data-name="Path 1218" d="m69.91,155.53s-.1-.07-.16-.1c.05.03.11.06.16.1Z" style="fill: none;"/>
        <path id="fs" data-name="Path 1221" d="m70.3,155.88l-.02-.02s.02.02.02.02Z" style="fill: #feead4;"/>
        <path id="ft" data-name="Path 1222" d="m69.95,155.56s-.03-.02-.04-.03c.01,0,.03.02.04.03Z" style="fill: #feead4;"/>
        <path id="fu" data-name="Path 1223" d="m43.17,135.12c-.04-.15-.08-.31-.11-.46.03.15.07.3.11.46Z" style="fill: #feead4;"/>
        <path id="fv" data-name="Path 1224" d="m45.38,140.03c.15-.16.15-.42-.01-.58h-.75c.11.16.22.32.35.47.26.31.54.59.84.86h0c-.14-.18-.29-.36-.42-.55-.04-.06-.04-.14,0-.2Z" style="fill: #feead4;"/>
        <path id="fw" data-name="Path 1226" d="m42.96,134.17c-.07-.35-.14-.7-.19-1.02.05.33.11.68.19,1.02Z" style="fill: #feead4;"/>
        <path id="fx" data-name="Path 1227" d="m50.47,144.99c-.47-.29-.92-.6-1.36-.93.43.33.89.64,1.36.93Z" style="fill: #feead4;"/>
        <path id="fy" data-name="Path 1228" d="m48.18,143.3c-.09-.08-.19-.16-.28-.24.09.08.19.16.28.24Z" style="fill: #feead4;"/>
        <path id="fz" data-name="Path 1229" d="m43.56,136.63c.05.77.27,1.51.66,2.18h0c-.25-.77-.46-1.49-.66-2.18Z" style="fill: #feead4;"/>
        <path id="ga" data-name="Path 1230" d="m46.84,142l-.02-.02.02.02Z" style="fill: #feead4;"/>
      </g>
    </g>
  </g>
  <path d="m92.67,153.66c.18-.07.15-.12-.13-.15-.03,0-.06.02-.09.03l-.39-.2s-.02-.07-.05-.1c-.28-.27-.65-.44-1.05-.47l-.29-.14c-.34-.23-1.24-.57-1.13-.89-12.2-6.47-24.43-12.9-36.67-19.3-5.29-2.77-8.45-4.4-9.46-4.9-.7,1.78-.92,3.72-.64,5.61h0c.01.05.03.13.04.2.02.24.02.48.06.73h0c.05.31.12.66.19,1.01.03.16.07.33.11.49.03.14.07.3.11.46.11.48.24.98.39,1.52.2.69.41,1.41.66,2.18.11.21.25.43.39.64h.75c.16.16.17.42.02.58-.04.06-.04.14,0,.2.14.19.28.36.42.55.32.42.65.82,1.01,1.21l.02.02c.34.37.7.72,1.06,1.06.09.08.19.16.28.23.3.27.61.52.92.77.44.33.89.64,1.36.93,3.41,2.08,6.97,3.9,10.47,5.84.93.51,1.86,1.01,2.79,1.49h0s2.72,1.49,6.33,3.32c.02.02.04.03.06.05.05.05.11.11.17.17,0,0,.02.02.02.02.05.06.1.12.14.19.94.32,1.85.7,2.74,1.15h.03c4.87,2.38,10.34,4.83,13.03,5.24,11.17,1.7,21.76-1.69,21.76-1.69l-15.44-8.02Z" style="fill: #b3d5cd;"/>
</svg>