<?xml version="1.0" encoding="UTF-8"?>
<svg id="a" data-name="Layer 1" xmlns="http://www.w3.org/2000/svg" xmlns:xlink="http://www.w3.org/1999/xlink" viewBox="0 0 221.64 183.96">
  <defs>
    <linearGradient id="ay" x1="-404.41" y1="-585.04" x2="-404.27" y2="-584.62" gradientTransform="translate(26814.34 -38838.74) scale(66.12 -66.6)" gradientUnits="userSpaceOnUse">
      <stop offset="0" stop-color="#da7629"/>
      <stop offset="1" stop-color="#fcc357"/>
    </linearGradient>
    <linearGradient id="bl" x1="-404.58" y1="-583.48" x2="-404.5" y2="-582.91" gradientTransform="translate(28929.85 -48621.18) scale(71.31 -83.55)" gradientUnits="userSpaceOnUse">
      <stop offset="0" stop-color="#d8424b"/>
      <stop offset="1" stop-color="#db5f45"/>
    </linearGradient>
    <linearGradient id="bn" x1="-405.09" y1="-581.65" x2="-404.92" y2="-581.35" gradientTransform="translate(36828.55 -65549.67) scale(90.69 -112.87)" xlink:href="#ay"/>
    <linearGradient id="el" x1="-404.41" y1="-585.02" x2="-404.27" y2="-584.61" xlink:href="#ay"/>
    <linearGradient id="ey" x1="-404.58" y1="-583.47" x2="-404.5" y2="-582.9" xlink:href="#bl"/>
    <linearGradient id="fa" x1="-405.09" y1="-581.65" x2="-404.92" y2="-581.35" gradientTransform="translate(36828.55 -65549.67) scale(90.69 -112.87)" xlink:href="#ay"/>
  </defs>
  <path d="m1,68.52C9.91,16.03,70.28-4.74,127.72.9c75.78,7.44,101.13,51.41,92.22,103.9-8.91,52.49-62.25,87.21-119.15,77.55C43.89,172.69-7.91,121.01,1,68.52Z" style="fill: #d9eee7;"/>
  <g id="b" data-name="step02">
    <g id="c" data-name="files-laptop">
      <path id="d" data-name="Path 1140" d="m126.94,7.61c.33.18.7.27,1.08.26.26,0,.51.07.74.19,3.33,1.7,6.65,3.42,9.96,5.17,2.06,1.09,5.5,3.01,8.29,4.42,1.93.98,3.32,1.69,4.17,2.14,7.44,3.94,14.88,7.87,22.33,11.8,1.4.74,3.18,1.61,4.87,2.59,2.37,1.38,5.23,2.66,7.84,4.05.89.47,1.8.91,2.72,1.33.73.49,1.53.85,2.38,1.06,2.29,1.16,3.68,2.28,3.68,5.07,0,11.76.03,23.52.08,35.27,0,3.43,0,6.86,0,10.29,0,1-.09,2.83,0,4.26.04.89-.03,1.78-.2,2.65-.37.69-.9,1.29-1.54,1.74-18.39-9.53-36.76-19.08-55.12-28.64-.74-.38-1.51-.75-2.32-1.09.04-1.3-.05-2.61-.27-3.89-1.23-5.16-5.7-6.76-10.89-9.27V13.03c-.08-2.43-.24-4.63,2.17-5.41h.01Zm3.31,26.81v24.89c0,.13.07.26.19.32,19.77,10.06,39.25,20.33,58.9,30.48.05.02.11,0,.14-.05,0-.01,0-.03,0-.04v-24.51s.01-2.59.01-2.59c.26-.05.4-.16.4-.35.12-5.94.36-9.53-.05-14.25,0-.08-.04-.15-.09-.2-.06-.05-.13-.08-.2-.09,0-.14-.1-.26-.23-.31-7.31-3.83-14.62-7.65-21.92-11.48l-37-19.37s-.08,0-.1.03c0,.01,0,.02,0,.04l-.05,17.49h0Zm29.56-6.79c-.34,1.28,1.25,1.89,2.21,2.07.13.03.27-.04.33-.16.73-1.31-.95-2.02-1.88-2.29-.23-.11-.51-.01-.62.22-.02.05-.04.1-.04.15h0Z" style="fill: #071c2f;"/>
      <path id="e" data-name="Path 1142" d="m167.4,36.24c-.06.21,0,.33.16.36.07.01.14.05.2.1.59.68.88,1.56.81,2.45,0,.13-.03.25-.09.37l-.44,1.03c-.63-.65-1.37-1.19-2.17-1.61-4.29-2.27-8.6-4.53-12.91-6.77-5.99-3.19-9.71-5.12-11.14-5.81-1.72-.98-3.9-.51-5.05,1.1-1.02,1.54-1.97,3.14-2.83,4.78-.96.35-1.99.46-3,.33-.2-.03-.39.11-.43.31v.03l-.05,1.33c0,.08-.01.15-.06.21-.06.08-.12.06-.16-.04l.05-17.49s.03-.07.07-.07h0s.02,0,.04,0l37,19.37h0Z" style="fill: #ffe9d1;"/>
      <path id="f" data-name="Path 1143" d="m112.16,41.5c3.56.01,7.13,0,10.7-.06.22,0,.44-.17.28-.39-.05-.06-.12-.09-.2-.09l-10.41-.07" style="fill: #63a998;"/>
      <path id="g" data-name="Path 1144" d="m118.26,31.23c1.55-2.24,3.21-4.39,4.99-6.45.63-.72,1.13-.65,1.5.21v32c-.44-.28-.88-.54-1.35-.78-4.8-2.51-9.59-5.02-14.37-7.54-.02-.17,0-.35.07-.5.99-2.23,2.01-4.45,3.05-6.66l6.11-10.27h0Z" style="fill: #63a998;"/>
      <path id="h" data-name="Path 1145" d="m112.52,40.88c1-2.23,2.16-4.39,3.47-6.45.44-.73.92-1.44,1.44-2.11.15-.19.29-.39.42-.6,1.69.09,3.39.08,5.08-.05.07,0,.14-.05.19-.11.2-.28-.13-.38-.35-.38-1.49,0-2.99,0-4.51.05l-5.74,9.66h.01Z" style="fill: #63a998;"/>
      <path id="i" data-name="Path 1146" d="m152.97,32.17s-.03.06-.04.1c0,.06.03.12.09.14.64.21,1.21.57,1.68,1.05.55.8.4.88-.45.26-.06-.04-.14-.07-.21-.07-.72-.01-1.25-.29-1.98-.3-.89-.12-1.76-.36-2.59-.72-.52-.14-1.03-.3-1.54-.47-.83-.28-1.3-.88-2.34-.96-.08,0-.15-.03-.21-.07-1.29-.88-2.77-1.46-4.32-1.68-.06,0-.12.04-.13.1-.09.57-1.51-.26-1.72-.46-.05-.06-.12-.09-.2-.11-.77-.13-1.44-.62-1.8-1.32-.02-.04-.07-.06-.11-.04,0,0,0,0,0,0,0,0-.01,0-.02.01-.25.24-.36.18-.32-.17,1.16-1.6,3.33-2.07,5.05-1.1,1.43.69,5.15,2.62,11.14,5.81h0Z" style="fill: #fdbf6c;"/>
      <path id="j" data-name="Path 1147" d="m162.02,29.7c-.96-.18-2.55-.79-2.21-2.07.03-.26.26-.44.51-.42.05,0,.11.02.15.04.93.28,2.61.98,1.88,2.29-.07.12-.2.18-.33.16h0Z" style="fill: #fefefe;"/>
      <path id="k" data-name="Path 1148" d="m136.77,27.46c-.04.35.07.41.32.17.03-.03.08-.04.11,0,0,0,0,0,0,0,0,0,.01.01.01.02.36.7,1.03,1.19,1.8,1.32.08.02.14.05.2.11.21.21,1.64,1.03,1.72.46,0-.06.06-.1.12-.1,0,0,0,0,.01,0,1.55.22,3.03.8,4.32,1.68.06.04.14.07.21.07,1.03.07,1.5.67,2.34.96.51.17,1.02.33,1.54.47.83.36,1.7.6,2.59.72.72,0,1.25.28,1.98.3.08,0,.15.03.21.07.85.63,1,.55.45-.26-.47-.48-1.05-.83-1.68-1.05-.06-.02-.1-.08-.09-.14,0-.04.02-.07.04-.1,4.31,2.24,8.62,4.5,12.91,6.77.8.42,1.53.97,2.17,1.61,1.33,1.5,1.81,3.07,2.47,5.11.24.59.59,1.12,1.05,1.57l-.17.45c-.03.09-.07.08-.12,0-.16-.27-.23-.26-.24.04,0,.05-.04.1-.09.1,0,0,0,0-.01,0h-.01c-1.91-.39-3.79-.89-5.64-1.5-.58-.18-1.14-.43-1.66-.75-1.34-.86-3.73-.49-4.49-1.18-.05-.05-.12-.08-.2-.09-.36-.01-.71-.14-.99-.37-.06-.04-.13-.07-.21-.09-.57-.07-.67-.59-1.25-.72-.07-.02-.14-.06-.18-.12-.22-.32-.6-.48-.99-.41-.08.01-.16,0-.23-.03-.61-.18-1.19-.45-1.71-.79-.05-.06-.11-.1-.18-.14l-.64-.13c-4.3-2.23-8.59-4.48-12.88-6.74-.89-.63-1.94-1-3.03-1.08-.54-.2-1.07-.45-1.57-.75-.36-.27-.74-.5-1.13-.69.86-1.64,1.81-3.24,2.83-4.78h0Z" style="fill: #fdc57b;"/>
      <path id="l" data-name="Path 1149" d="m133.95,32.24c.4.2.78.43,1.13.69.5.3,1.02.55,1.57.75-.46.1-.75.57-.65,1.03.02.08.05.16.09.23.42,1.12,1.3,1.5,2.62,2.2,7.1,3.8,14.24,7.55,21.42,11.22.47.24,1.01.31,1.53.19-.23.19-.27.34-.11.47.06.05.11.11.14.18.21.45,1.7,1.09,2.18,1.32.94.3,1.86.66,2.76,1.09.07.04.14.06.22.06.85.11,1.69.28,2.51.5.47.09.92.28,1.31.57.93.61,2.34.69,3.37,1.25.4.22.79.47,1.16.75,1.28.78,2.66,1.41,4.09,1.86.6.23.92.76,1.61.95.07.02.15.02.22-.01l.37-.15c.06-.02.13,0,.17.06.07.08.17.09.29,0,.9.64,2.14.53,2.91-.26.8-.81.75-2.1.67-3.2,1.24.28,2.38.89,3.32,1.74-.16,2.2-.18,4.4-.07,6.6.1.5-.16,1.01-.62,1.24-.07.03-.15.03-.22.01l-3.46-1.03c-.1-.03-.13,0-.1.1.11.28.07.36-.1.23-.35-.01-.67-.2-.86-.5-1.06-1.57-4.04-.45-4.9-2.19-.03-.07-.09-.12-.16-.15-.99-.32-2.36-.3-3.36-1.16-.06-.05-.13-.07-.21-.08-.57-.01-.91-.51-1.34-.45-.07,0-.14-.01-.2-.06-.91-.87-1.54-.6-2.58-1-.36-.13-.59-.47-1.02-.57-.51-.12-1.06.33-1.52-.35-.04-.05-.11-.07-.17-.05-.6.26-.54-.58-1.18-.7-.08,0-.15,0-.22.04-.17.07-.36,0-.44-.16-.04-.06-.1-.11-.18-.13l-1.05-.18c-.21-.03-.4-.14-.52-.31-.28-.4-.56-.47-.86-.23-.05.04-.12.06-.19.03-.13-.08-.24-.18-.33-.3-.04-.06-.11-.09-.18-.1-.53-.04-.77-.75-1.44-.84-.07,0-.13-.05-.16-.12-.08-.18-.21-.34-.38-.45-.37-.53-.83-.99-1.37-1.35-6.4-3.38-12.81-6.76-19.21-10.14-.64-.33-1.51-.74-2.62-1.2-.45-.24-1.01-.1-1.29.33-.8.71-1.21-.03-1.91-.06-.34-.02-.68.04-.99.16-.03.01-.07,0-.08-.04,0,0,0,0,0,0v-.03c.04-.47-.95-.67-1.32-.79-.72-.24-1.72.05-1.66-1.2.03-.19-.03-.39-.17-.53v-3.6c.04.1.1.11.16.04.04-.06.06-.14.06-.21l.05-1.33c.01-.2.19-.35.39-.34,0,0,0,0,.01,0h.04c1.01.13,2.04.01,3-.33h.01Z" style="fill: #fdd39f;"/>
      <path id="m" data-name="Path 1150" d="m136.64,33.68c1.09.08,2.14.45,3.03,1.08,4.29,2.26,8.58,4.51,12.88,6.74,2.24,1.22,4.49,2.42,6.76,3.59,1.34.65,2.23,1.97,2.32,3.46-.52.12-1.06.05-1.53-.19-7.17-3.68-14.31-7.42-21.42-11.22-1.32-.7-2.2-1.08-2.62-2.2-.23-.42-.08-.95.34-1.18.07-.04.14-.07.22-.08h0Z" style="fill: #fefefc;"/>
      <path id="n" data-name="Path 1152" d="m167.4,36.24c7.3,3.83,14.61,7.66,21.92,11.48.16.09.23.19.23.31l-.08,7.95c-.22-.03-.44-.11-.63-.23-.93-.86-2.08-1.46-3.32-1.74.19-2.02-.73-5.28-3.06-5.85-.93-.23-1.12.45-1.11,1.21.01.85-.01,1.79-.08,2.8-3.29-1.55-6.53-3.19-9.73-4.93-.46-.44-.81-.97-1.05-1.57-.44-1.86-1.29-3.61-2.47-5.11l.44-1.03c.05-.12.08-.24.09-.37.07-.89-.22-1.78-.81-2.45-.06-.05-.12-.08-.2-.1-.16-.04-.22-.16-.16-.36h0Z" style="fill: #feedde;"/>
      <path id="o" data-name="Path 1153" d="m85.71,36.49l23.32,12.17c4.79,2.52,9.58,5.04,14.37,7.54.47.25.91.5,1.35.78,5.2,2.51,9.67,4.11,10.89,9.27.22,1.28.31,2.59.27,3.89-.11.51-.13,1.03-.04,1.54l-.09,8.87.11,3.44v3.7c-.14.38-.12.81.05,1.18-.33,0-.16.77-.11.95l.03,2.66.03,3.28-.13,1.01.11.93c.09,1.63-.03,3.27-.37,4.87-.09.3-.14.61-.16.93,0,.05-.04.1-.1.1,0,0,0,0,0,0h-.01c-.18-.04-.29,0-.33.1-.02.06-.08.11-.14.13-.18.01-.26-.04-.26-.19.01-.07-.01-.14-.06-.19-.14-.11-.33-.14-.5-.08-.07.03-.15.03-.22,0-.03-.04-.05-.08-.06-.13l-.02-4.18v-18.08c.01-3.61-.05-7.23.07-10.83.06-.94.04-1.89-.06-2.83-.34-1.71-1.66-4.42-3.46-4.99-.17-.05-1.36-.45-1.44-.16-.02.06-.07.11-.12.11-1.52-.15-2.66-1.16-3.93-.55-1.05-2.57-3.3-3.54-5.42-4.66-11.34-5.99-22.62-12.09-33.84-18.29-.4-.22-.77-.5-1.11-.81-.04-.03-.04-.09-.01-.13,0,0,0,0,.01-.01h.01s1.08-.79,1.08-.79c.06-.05.09-.11.09-.19,0-.15.07-.29.19-.39h0Z" style="fill: #faaf5a;"/>
      <path id="p" data-name="Path 1154" d="m130.25,38.01c.14.14.2.34.17.53-.06,1.25.94.96,1.66,1.2.36.12,1.36.31,1.32.79,0,.04.03.07.06.08h.03c.32-.12.65-.17.99-.16.7.04,1.11.77,1.91.06.14,1.18.87,2.21,1.94,2.73,7.94,4.25,14.74,7.81,20.39,10.68.62.37,1.28.67,1.96.91.5.13.72-.06.68-.57-.03-.5-.2-.99-.49-1.4.17.11.3.27.38.45.03.07.09.11.16.12.67.1.91.81,1.44.84.07,0,.14.04.18.1.08.13.19.23.33.3.06.03.14.02.19-.03.3-.25.59-.17.86.23.12.17.31.28.52.31l1.05.18c.08.02.14.07.18.13.08.16.27.23.44.16.07-.03.14-.04.22-.04.64.12.58.96,1.18.7.06-.03.13,0,.17.05.46.69,1.01.23,1.52.35.43.1.66.44,1.02.57,1.03.39,1.66.13,2.58,1,.05.05.13.07.2.06.43-.06.77.44,1.34.45.08,0,.15.03.21.08,1.01.85,2.38.84,3.36,1.16.07.02.13.08.16.15.86,1.74,3.83.61,4.9,2.19.18.3.51.49.86.5.17.13.2.06.1-.23-.04-.09,0-.13.1-.1l3.46,1.03c.07.02.15.02.22-.01.46-.23.72-.73.62-1.24-.11-2.2-.09-4.4.07-6.6.19.13.41.21.63.23l.02,6.95-.02,2.59c-.06-.28-.1-.3-.12-.06,0,.03,0,.03-.02,0l-.02-.04c-.03-.06-.06-.05-.09,0-.25.77-1.08,1.19-1.85.94-.14-.04-.26-.11-.38-.19-.59-.3-1.26-.42-1.91-.34-.08.01-.15,0-.22-.04-.7-.47-1.5-.79-2.33-.93-1.26-.13-1.85-1.11-3.11-1.08-.85-.22-1.66-.54-2.43-.95-1.96-.79-3.92-1.55-5.91-2.26-.02,0-.04-.03-.04-.06v-.04c0-.05-.04-.09-.09-.11-.92-.33-1.59-.57-2.67-1.06-.69-.3-1.4-.18-2.04-.57-.42-.34-.92-.57-1.44-.68-1.57-.07-2.73-.98-4.41-.62l-10.77-5.36c-3.19-1.65-6.39-3.31-9.57-4.99-.83-.59-1.83-.89-2.85-.84-.33-.65-2.84-1.33-3.58-1.57-.05-.02-.11-.01-.15.03l-.06.07c-.04.05-.1.08-.17.08-.64-.18-1.23-.42-1.88-.6-.95-.27-1.03-1.67-1.13-2.32v-3.95h-.02Z" style="fill: #fed7ac;"/>
      <path id="q" data-name="Path 1155" d="m160.86,52.86c.29.41.46.89.49,1.4.04.51-.19.69-.68.57-.68-.23-1.34-.54-1.96-.91-5.65-2.86-12.45-6.42-20.39-10.68-1.07-.52-1.8-1.55-1.93-2.73.28-.43.84-.58,1.29-.33,1.11.46,1.98.86,2.62,1.2,6.4,3.38,12.81,6.76,19.21,10.14.54.36,1,.82,1.37,1.36h0Z" style="fill: #fefefe;"/>
      <path id="r" data-name="Path 1156" d="m152.56,41.5l.64.13c.06.04.12.09.18.14.53.35,1.11.61,1.71.79.07.03.15.04.23.03.38-.07.77.09.99.41.04.06.1.11.18.12.58.13.69.65,1.25.72.07.01.14.04.21.09.28.23.63.36.99.37.07,0,.14.03.2.09.76.69,3.15.32,4.49,1.18.52.32,1.08.57,1.66.75,1.85.61,3.73,1.11,5.64,1.5.05,0,.1-.03.11-.08v-.02c0-.3.09-.31.24-.04.05.09.09.09.12,0l.17-.45c3.19,1.74,6.44,3.38,9.73,4.93.05,1.3.07,2.7.06,4.22.04.42.25.8.59,1.05-.12.07-.22.07-.29,0-.04-.05-.11-.08-.17-.06l-.37.15c-.07.03-.15.03-.22.01-.69-.19-1.02-.72-1.61-.95-1.43-.46-2.8-1.08-4.09-1.86-.37-.27-.76-.52-1.16-.75-1.03-.57-2.44-.64-3.37-1.25-.39-.28-.84-.48-1.31-.57-.83-.22-1.67-.39-2.51-.5-.08,0-.15-.02-.22-.06-.89-.43-1.81-.79-2.76-1.09-.48-.23-1.98-.86-2.18-1.32-.03-.07-.08-.13-.14-.18-.16-.13-.12-.28.11-.47-.09-1.49-.98-2.81-2.32-3.46-2.27-1.18-4.52-2.37-6.76-3.59v.02Z" style="fill: #fdcf94;"/>
      <path id="s" data-name="Path 1157" d="m108.68,59.5c2.44.75,3.87,3.28,3.25,5.76-.03.17-.18.28-.35.26,0,0,0,0,0,0-.02,0-.04,0-.05-.01-.43-.15-.85-.32-1.25-.52-3.66-1.87-7.34-3.73-11.02-5.58-6.88-3.58-13.76-7.15-20.64-10.72-1.19-.62-2.3-1.36-3.17-.07-.2.34-.3.74-.29,1.13-.02.97-.09,1.94-.2,2.9-.31,3.46-.39,6.93-.26,10.39l-.08,7.46s-.03.08-.08.08h-.03c-1.11-.47-2.18-1.02-3.2-1.66-.11-.07-.17-.19-.17-.32l.07-2.27c0-7.04,0-14.08.02-21.13,0-3.05,3.04-4.09,5.48-2.73,8.23,4.55,18.89,10.22,31.96,17.02h0Z" style="fill: #fff;"/>
      <path id="t" data-name="Path 1158" d="m130.25,41.96c.09.64.18,2.05,1.13,2.32.64.19,1.23.43,1.88.6.07,0,.13-.02.17-.08l.06-.07s.1-.05.15-.03c.74.25,3.24.93,3.58,1.57-.76,1.03.31,1.78,1.09,2.19,3.22,1.69,6.44,3.36,9.68,4.99,4.36,2.2,8.71,4.43,13.06,6.67.45.23.94.41,1.44.51.13.03.26-.05.29-.18.39-1.42-1.28-2.45-2.36-3,1.68-.36,2.84.55,4.41.62.53.1,1.03.34,1.44.68.63.39,1.35.26,2.04.57,1.08.48,1.75.72,2.67,1.06.05.01.09.06.09.11v.04s.01.05.04.06c1.98.72,3.95,1.47,5.91,2.26.77.41,1.58.73,2.43.95,1.25-.03,1.84.94,3.11,1.08.83.14,1.63.46,2.33.93.07.04.14.05.22.04.66-.07,1.32.04,1.91.34.67.46,1.58.3,2.04-.37.08-.12.14-.24.19-.38.03-.06.06-.06.09,0l.02.04s.02.02.02,0c.02-.23.06-.21.12.06v7.01c-.23-.56-.43.33-.93.4-.07.01-.14.05-.19.11-1.13,1.31-1.93.1-3.07-.09-1.12-.19-2.21-.55-3.22-1.06-.6-.29-1.22-.54-1.86-.75-1.08-.45-2.42-.31-3.04-1.15-.04-.06-.11-.11-.18-.13-.48-.19-.96-.37-1.44-.57-.38-.24-.78-.43-1.2-.57-.08-.01-.15-.04-.21-.09-.74-.51-1.67-.68-2.54-.45-.34.06-.69.03-1.02-.09-.07-.02-.11-.09-.1-.16.07-.42-.21-.83-.63-.9-.01,0-.03,0-.04,0-.08-.01-.14-.06-.19-.12-.26-.45-.74-.72-1.26-.7-.42.03-.85-.07-1.21-.28-.38-.21-.81-.28-1.23-.22-.1.01-.21-.02-.29-.09-.33-.31-.73-.54-1.17-.67-.08-.02-.15-.05-.21-.1l-.53-.51c-.12-.13-.32-.17-.48-.09-.51.24-.97.07-1.37-.51-.09-.13-.28-.17-.41-.08,0,0-.01.01-.02.02-.22.19-.41.14-.57-.14-.14-.28-.41-.47-.72-.5-.42-.01-.82-.16-1.14-.42-.04-.04-.11-.05-.15,0,0,0,0,0,0,0-.79.78-2.22-.06-2.9-.66-.48-.44-1.06-.75-1.68-.91-.45-.11-.67-.4-1.01-.54-.99-.4-1.76-.23-2.53-1.04-.16-.17-.4-.23-.62-.17-.07.01-.14-.01-.19-.07-.47-.69-1.26-1.1-2.09-1.08-.12,0-.25-.04-.35-.11-.92-.69-1.89-1.31-2.89-1.87-.3-.16-.61-.17-.67-.6-.02-.15-.13-.27-.28-.3-.69-.1-1.33-.4-1.86-.86-.25-.22-.58-.31-.9-.26-.08.02-.15,0-.22-.04l-2.47-1.56c-.24-.15-.42-.38-.51-.64-.52-1.28-1.15-1.28-2.3-1.56-.6-.04-1.19-.12-1.78-.23-.38-.15-.73-.35-1.06-.59-.06-.04-.13-.05-.2-.02-.38.16-.82.09-1.13-.18-.06-.04-.14-.05-.21-.02-.52.26-.22-.28-.5-.56-.06-.05-.1-.13-.11-.21l-.18-1.09v-5.51Z" style="fill: #fedab7;"/>
      <path id="u" data-name="Path 1159" d="m149.62,52.1c-.15.53-.54.95-1.06,1.14-.06.03-.11.09-.13.16-.03.1-.08.12-.14.07-.06-.05-.13-.07-.2-.06l-.12.04c-3.24-1.64-6.47-3.3-9.68-4.99-.77-.41-1.85-1.16-1.09-2.19,1.02-.05,2.02.25,2.85.84,3.18,1.67,6.37,3.34,9.57,4.99Z" style="fill: #fefefc;"/>
      <path id="v" data-name="Path 1160" d="m130.25,47.44l.18,1.09c.01.08.05.15.11.21.28.28-.01.82.5.56.07-.04.15-.03.21.02.31.27.75.34,1.13.18.07-.03.14-.02.2.02.33.24.68.44,1.06.59.59.11,1.18.19,1.78.23,1.15.29,1.78.29,2.3,1.56.09.27.27.49.51.64l2.47,1.56c.07.04.14.05.22.04.32-.05.65.05.9.26.52.46,1.17.76,1.86.86.15.03.26.15.28.3.06.43.36.45.67.6,1,.56,1.97,1.18,2.89,1.87.1.07.22.11.35.11.83-.01,1.62.4,2.09,1.08.05.06.12.08.19.07.22-.05.46.01.62.17.78.81,1.54.64,2.53,1.04.35.14.57.43,1.01.54.63.16,1.21.48,1.68.91.68.6,2.11,1.44,2.9.65.04-.04.11-.04.16,0,.32.26.72.41,1.14.42.31.03.58.22.72.5.16.28.34.33.57.14.12-.11.31-.09.41.03,0,0,0,0,0,0,0,0,.01.01.02.02.4.58.86.75,1.37.51.16-.07.35-.03.48.09l.53.51c.06.05.13.09.21.1.44.13.84.35,1.17.67.08.07.19.1.29.09.42-.06.86.01,1.23.22.37.21.79.31,1.21.28.52-.02,1,.25,1.26.7.05.06.11.1.19.12.42.05.73.43.68.85,0,.02,0,.04,0,.06,0,.07.04.13.1.16.33.12.68.15,1.02.09.87-.23,1.8-.07,2.54.45.06.04.14.07.21.09.42.14.83.33,1.2.57.47.2.96.38,1.44.57.07.03.13.07.18.13.61.84,1.96.69,3.04,1.15.63.21,1.25.46,1.86.75,1.01.52,2.1.88,3.22,1.06,1.14.19,1.93,1.4,3.07.09.05-.06.11-.09.19-.11.5-.08.71-.96.93-.4v17.5s-.03.09-.08.1c0,0-.01,0-.02,0-.02,0-.04,0-.05-.01-19.65-10.14-39.13-20.42-58.9-30.48-.12-.06-.2-.18-.2-.32v-11.88.04Zm5.89,7.23c.43,1.01,1.25,1.8,2.27,2.21,8.83,4.63,15.75,8.19,20.75,10.69.43.21.88.37,1.35.48.56.13.76-.11.59-.71-.54-1.95-1.64-2.47-3.58-3.49-6.53-3.43-13.08-6.84-19.63-10.23-.73-.37-2.2-.13-1.74,1.05h0Zm1.56,6.74c1.59,1.01,3.61,2.12,6.06,3.34,4.67,2.34,9.32,4.74,13.94,7.2,1.22.73,2.5,1.36,3.82,1.88.46.16.69,0,.69-.5,0-1.51-2.29-2.56-3.48-3.17-6.67-3.39-13.32-6.83-19.94-10.33-.45-.25-.97-.36-1.48-.32-.07,0-.14.05-.16.12-.33.64-.09,1.43.55,1.78h0Z" style="fill: #feddc0;"/>
      <path id="w" data-name="Path 1161" d="m99.26,59.4c-.06.14-.22.21-.36.16-.07-.02-.14-.01-.21.02l-.86.45c-.34.18-.35.35-.02.52,4.91,2.5,9.79,5.16,14.81,7.45,2.04,1.01,4.08,2.02,6.13,3.03,2.73,1.35,4.28,2.8,4.31,5.98v17.82c-.59.11-1.2,0-1.72-.29-.06-.04-.11-.1-.13-.17-.11-.52-.15-1.06-.11-1.59.08-1.47.07-2.93.06-4.41,0-1.5.01-3,.01-4.49,0-.82-.09-2.59-1.4-2.49-.04,0-.08-.03-.09-.07v-.02c.04-.2-.06-.33-.3-.39-.4-.13-.76-.36-1.04-.68-.34-.34-.12-.56-.76-.64-.24-.03-.46-.1-.67-.22-.06-.04-.11-.1-.13-.17-.04-.2-.2-.35-.39-.4-.07-.01-.14-.06-.17-.13-.13-.3.01-.49.45-.54.05,0,.09-.05.09-.1,0,0,0,0,0,0v-.02c-.05-.19-.16-.36-.31-.5-.76-.55-2.2-1.78-3.1-1.91-.08-.01-.14-.05-.19-.11-.12-.21-.38-.28-.59-.17-.01,0-.03.02-.04.02-.05.03-.12.01-.16-.04-.1-.18-.33-.24-.51-.14,0,0,0,0,0,0-.06.03-.08.01-.07-.05.02-.09,0-.18-.04-.26-.05-.05-.12-.08-.19-.07h-.69c-.06-.02-.1-.08-.1-.15h0c.02-.15-.06-.29-.19-.37-.52-.4-1.26-.33-1.69.16-.04.05-.04.11,0,.16h0c.09.08.15.18.18.3-.81-.73-1.72-1.35-2.7-1.83-5.51-2.84-13.52-7.13-24.02-12.87-.67-.37-1.99-.62-2.33.26-.65,1.68,3.85,3.71,4.97,4.32.14.22.34.39.58.49.06.03.1.09.11.16.01.07.04.13.09.19.02.02.02.06,0,.09,0,0-.02.01-.03.01-.64.12-1.21.33-1.86.51-.54.13-.9.64-.84,1.2-.49-.23-2.97-1.55-2.47.28-.09-.14-.54-1.19-.16-1.11.06.02.12,0,.15-.06.04-.14-.04-.21-.22-.2-.07,0-.12-.04-.15-.1-.04-.12-.14-.2-.26-.23-.09-.02-.09-.04-.01-.06l.49-.16c.24-.08.26-.18.05-.3-.34-.22-.74-.32-1.15-.28-.07,0-.14-.02-.19-.07-.39-.48-.94-.82-1.54-.96-.33-.08-.62-.25-.85-.5-.37-.41-.86-.68-1.4-.77-.08,0-.15.02-.2.08-.04.06-.13.08-.19.03-.02-.02-.04-.04-.05-.06-.02-.04-.06-.05-.1-.03,0,0-.01.01-.02.02l-.09.13c-.14-3.47-.05-6.94.26-10.39.11-.96.18-1.93.2-2.9-.01-.4.09-.79.29-1.13.86-1.29,1.98-.55,3.17.07,6.88,3.57,13.76,7.14,20.64,10.72v-.02Z" style="fill: #febd56;"/>
      <path id="x" data-name="Path 1162" d="m189.55,48.02c.07.02.14.05.2.09.06.05.09.12.09.2.41,4.71.17,8.31.05,14.25,0,.19-.13.3-.4.35l-.02-6.95.08-7.95h0Z" style="fill: #360c1b;"/>
      <path id="y" data-name="Path 1163" d="m185.54,54c.08,1.1.13,2.38-.67,3.2-.78.78-2.01.89-2.91.26-.33-.25-.55-.63-.59-1.05,0-1.52-.01-2.93-.06-4.22.06-1.02.09-1.96.08-2.8-.01-.77.17-1.44,1.11-1.21,2.33.57,3.25,3.83,3.06,5.85h0Z" style="fill: #e64842;"/>
      <path id="z" data-name="Path 1164" d="m149.62,52.1l10.78,5.36c1.08.54,2.74,1.57,2.36,3-.03.13-.16.21-.29.18-.5-.11-.98-.28-1.44-.51-4.34-2.24-8.69-4.46-13.06-6.67l.12-.04c.07-.01.14,0,.2.06.07.05.11.02.14-.07.02-.07.07-.13.13-.16.51-.2.9-.62,1.06-1.14Z" style="fill: #feeacd;"/>
      <path id="aa" data-name="Path 1165" d="m138.41,56.87c-1.02-.4-1.84-1.2-2.27-2.21-.45-1.18,1.01-1.42,1.74-1.05,6.55,3.39,13.1,6.8,19.63,10.23,1.93,1.02,3.04,1.54,3.58,3.49.16.6-.03.84-.59.71-.47-.11-.92-.27-1.35-.48-5-2.5-11.92-6.07-20.75-10.69Z" style="fill: #fefefe;"/>
      <path id="ab" data-name="Path 1166" d="m137.7,61.41c-.63-.35-.87-1.13-.55-1.78.02-.07.09-.12.16-.12.51-.04,1.03.07,1.48.32,6.62,3.5,13.26,6.94,19.94,10.33,1.2.6,3.48,1.66,3.48,3.17,0,.49-.23.65-.69.5-1.32-.52-2.6-1.15-3.82-1.88-4.62-2.46-9.26-4.86-13.94-7.2-2.44-1.22-4.46-2.33-6.06-3.34h0Z" style="fill: #ffe9d1;"/>
      <path id="ac" data-name="Path 1167" d="m109.09,74.88c.46.52.79,1.15.96,1.82.12.44-.05.68-.5.72-.47.02-.94-.1-1.35-.33-7.76-4.05-15.5-8.16-23.2-12.32-1.12-.61-5.63-2.64-4.97-4.32.35-.87,1.66-.62,2.33-.26,10.5,5.74,18.51,10.03,24.02,12.87.98.48,1.89,1.09,2.7,1.83h0Z" style="fill: #fff;"/>
      <path id="ad" data-name="Path 1168" d="m83.07,67.41l25.92,13.78c.61.39,1.05.99,1.23,1.68.16.59-.06.81-.64.66-.59-.15-1.15-.37-1.68-.66-2.08-1.14-4.17-2.26-6.27-3.36-5.33-2.84-10.66-5.67-16-8.48-1.7-.89-4.36-2.08-5.02-3.36-.49-1.83,1.98-.5,2.47-.28h0Z" style="fill: #fdcb83;"/>
      <path id="ae" data-name="Path 1169" d="m135.92,70.15c.81.35,1.58.71,2.32,1.09,18.36,9.56,36.74,19.11,55.13,28.64-.05.04,0,.21.12.51.12.21.16.46.12.69-.42-.03-.83-.14-1.21-.31-3.85-1.85-8.11-4.12-11.96-6.12-14.81-7.69-29.62-15.4-44.41-23.12-.13-.06-.17,0-.13.17-.09-.51-.08-1.04.04-1.54h0Z" style="fill: #ec8017;"/>
      <path id="af" data-name="Path 1170" d="m193.6,101.09v.53h-.11c-.04-.4-1.24.55-1.34.61-14.18,7.81-28.37,15.61-42.55,23.41-2.53,1.39-4.65,2.44-7.23,1.71-2.23-.62-4.33-2.01-6.41-3.12-.1-2.77-.03-5.29-.08-8.31-.02-1.33,0-2.68.09-4.03l9.88,5.08c.16.08.34.08.5,0l5.84-3.09c.14-.08.15-.16,0-.23-5.41-2.82-10.9-5.53-16.24-8.5l-.07-1.23c4.64,2.4,9.3,4.77,13.9,7.24,1.16.62,2.35,1.19,3.57,1.7.24.11.52.09.75-.04l5.63-2.98c.19-.1.19-.2.01-.3-.37-.22-.76-.43-1.14-.62-7.64-3.96-15.25-8-22.82-12.11l.13-1.01c10.84,5.58,17.44,9.01,19.79,10.29,1.64.9,3.32,1.73,5.02,2.5.48.21,1.02.16,1.46-.12,1.73-.97,3.49-1.93,5.3-2.88.15-.08.15-.16,0-.23l-31.52-16.46c-.16-.37-.18-.79-.06-1.18l16.34,8.41c.2.1.44.1.64,0l6.14-3.26c.08-.04.08-.08,0-.12-7.84-3.97-15.57-8.02-23.2-12.17l.09-8.87c-.04-.18,0-.23.13-.17,14.8,7.72,29.6,15.43,44.41,23.12,3.85,2,8.11,4.27,11.96,6.12.38.17.8.28,1.21.31l-.03-.02Z" style="fill: #071c2f;"/>
      <path id="ag" data-name="Path 1171" d="m96.08,79.76c4.31,2.3,8.62,4.58,12.94,6.87.98.45,1.5,1.54,1.21,2.59l-2.24-1.03c-8.52-4.54-17.06-9.06-25.61-13.55-.65-.34-1.91-1.08-1.64-2.01.04-.27.29-.46.56-.42.04,0,.08.02.11.03.64.16,1.25.4,1.83.7,4.29,2.27,8.57,4.55,12.84,6.82h0Z" style="fill: #fdc893;"/>
      <path id="ah" data-name="Path 1172" d="m78.42,87.95c.41,1.57-1.37.62-1.85.37-6.21-3.19-12.36-6.48-18.46-9.88-.39-.22-.74-.49-1.06-.81-.38-.29-.44-.84-.15-1.21.01-.01.02-.03.04-.04.22-.39.64-.61,1.08-.55.54.06,1.06.22,1.53.48,9.16,4.96,14.6,7.87,16.32,8.74,1.2.58,2.12,1.62,2.54,2.88h0Z" style="fill: #fdcb89;"/>
      <path id="ai" data-name="Path 1173" d="m135.8,80.56c7.63,4.14,15.36,8.19,23.19,12.16.08.04.08.08,0,.12l-6.14,3.26c-.2.11-.44.11-.64,0l-16.34-8.41v-2.7c1.27-.31,2.48-.84,3.56-1.57.04-.03.05-.09.02-.13,0,0-.01-.02-.03-.03-1.34-.86-2.23-.23-3.55.72l-.11-3.44h.02Zm5.65,7.2c.23.09.49.09.72-.01.87-.4,1.7-.88,2.47-1.44.1-.07.12-.2.06-.3l-.04-.04c-.98-.81-2.51.29-3.46.96-.64.46-.27.66.26.85h0Zm3.38,1.76c.39.23.86.27,1.28.1.83-.44,1.62-.97,2.33-1.58.03-.03.04-.08.02-.11,0,0,0,0,0,0,0,0-.01-.01-.02-.02-.4-.35-.97-.44-1.46-.22-.8.34-1.54.8-2.2,1.36-.12.1-.14.28-.04.4.02.03.05.05.09.07h0Zm3.77,2.27c1.07.28,2.32-.77,3.3-1.2.07-.04.09-.22.06-.45-.23-1.42-3.07.63-3.58.99-.07.04-.11.11-.12.19-.04.25.09.4.35.47h0Z" style="fill: #fefeff;"/>
      <path id="aj" data-name="Path 1175" d="m78.28,94.95c-.65.18-1.34.1-1.92-.23-4.95-2.59-9.9-5.2-14.85-7.82-1.44-.77-4.04-1.85-4.72-3.38-.03-.07-.04-.15-.03-.23.34-1.64,2.33-.7,3.24-.22,4.85,2.56,9.68,5.14,14.51,7.73.85.43,1.67.9,2.47,1.41.79.69,1.26,1.69,1.29,2.74h0Z" style="fill: #fdc893;"/>
      <path id="ak" data-name="Path 1176" d="m135.9,85v-1c1.33-.94,2.22-1.57,3.55-.72.04.03.05.08.03.13,0,0-.01.02-.03.03-1.09.72-2.29,1.25-3.56,1.57h0Z" style="fill: #dce2e9;"/>
      <path id="al" data-name="Path 1177" d="m141.45,87.78c-.52-.2-.89-.4-.26-.85.95-.67,2.48-1.78,3.46-.96.09.08.11.22.03.31l-.04.04c-.77.57-1.6,1.05-2.47,1.44-.23.1-.49.11-.72.01h0Z" style="fill: #dce2e9;"/>
      <path id="am" data-name="Path 1178" d="m144.83,89.53c-.14-.07-.19-.24-.12-.38,0,0,0,0,0-.01.02-.03.04-.06.07-.09.66-.56,1.4-1.02,2.2-1.36.49-.22,1.06-.13,1.46.22.04.02.05.07.03.11,0,0,0,0,0,0,0,0-.01.01-.02.02-.72.61-1.5,1.14-2.33,1.58-.42.17-.89.13-1.28-.1h0Z" style="fill: #e0e6ee;"/>
      <path id="an" data-name="Path 1179" d="m69.39,95.9c-.45.64-1.28.3-1.84.01-2.48-1.25-4.95-2.51-7.42-3.8-1.48-.77-2.99-1.52-3.39-3.17-.11-1.38,2.05-.31,2.67.03,2.32,1.25,4.64,2.5,6.97,3.73,1.27.67,3.09,1.48,3.02,3.2h0Z" style="fill: #fac595;"/>
      <path id="ao" data-name="Path 1180" d="m135.95,88.89l31.52,16.46c.15.08.15.16,0,.23-1.8.95-3.57,1.91-5.3,2.88-.44.28-.98.32-1.46.12-1.71-.77-3.38-1.6-5.02-2.5-2.35-1.29-8.95-4.72-19.79-10.29l-.03-3.28c.9-.35,1.75-.83,2.51-1.42.04-.02.05-.08.03-.11,0,0,0,0,0,0,0,0-.01-.01-.02-.02-.57-.45-1.32-.58-2.01-.36-.07.02-.11.09-.11.16,0,.22-.08.31-.21.27-.07-.03-.11-.1-.11-.17l-.1-1c-.06-.19-.22-.94.11-.95h0Zm4.31,6.36c.95.62,2.51-.61,3.41-1.23.33-.23.23-.43-.3-.61-.24-.08-.5-.08-.74,0-.84.3-1.64.71-2.37,1.21-.31.21-.31.42,0,.62h0Zm4.36,2.3c.75.35,1,.05,1.61-.26.72-.37,1.44-.76,2.14-1.17.04-.03.06-.08.04-.12,0,0,0-.01-.01-.02-1.29-1.21-2.69.11-3.83.83-.43.28-.42.52.05.74h0Zm3.83,2c.37.39.96.48,1.43.22.8-.44,1.58-.92,2.32-1.44.04-.03.05-.09.02-.13,0,0,0,0,0,0,0,0-.01-.01-.02-.02-1.23-.96-2.79.23-3.76,1.06-.09.08-.1.21-.02.3,0,0,0,0,0,0,0,0,.01.01.02.02h0Zm10.39,5.53c.37.39.69.52.96.39.86-.43,1.71-.86,2.57-1.33.12-.06.17-.21.1-.33,0,0,0,0,0,0,0-.01-.02-.03-.03-.04-.3-.46-.89-.62-1.37-.36-.78.38-1.51.84-2.2,1.36-.09.07-.11.2-.04.3,0,0,.01.01.01.02h0Z" style="fill: #fefeff;"/>
      <path id="ap" data-name="Path 1181" d="m148.6,91.79c-.22-.02-.38-.22-.36-.44,0-.01,0-.02,0-.03.02-.07.06-.14.12-.19.51-.36,3.35-2.41,3.58-.99.04.22.01.41-.06.45-.99.45-2.22,1.49-3.3,1.2h0Z" style="fill: #dce2e9;"/>
      <path id="aq" data-name="Path 1182" d="m135.84,89.84l.1,1c0,.07.05.14.11.17.13.04.2-.05.21-.27,0-.07.05-.13.11-.16.69-.21,1.44-.08,2.01.36.04.02.05.08.03.11,0,0,0,0,0,0,0,0-.01.01-.02.02-.77.58-1.62,1.06-2.51,1.42l-.03-2.66Z" style="fill: #dadce0;"/>
      <path id="ar" data-name="Path 1183" d="m107.97,100.5l-2.27-.49c-.05,0-.1.02-.11.07v.02c.05,1.35.04,2.7,0,4.05-.06,1.58-.89,2.17-2.5,1.76-.49-.1-.96-.28-1.39-.53-.86-.83-1.22-2.06-.93-3.23v-10.3c-.49-2.12,2.09-1.5,2.96-.81,2.94,2.22,4.55,5.78,4.26,9.46h0Z" style="fill: #e64842;"/>
      <path id="as" data-name="Path 1184" d="m140.26,95.25c-.32-.21-.32-.41,0-.62.74-.51,1.53-.91,2.37-1.21.24-.08.5-.08.74,0,.53.19.64.39.3.61-.89.62-2.46,1.85-3.41,1.23h0Z" style="fill: #dce2e9;"/>
      <path id="at" data-name="Path 1185" d="m144.62,97.55c-.47-.22-.48-.46-.05-.74,1.14-.72,2.54-2.04,3.83-.83.03.04.03.09,0,.13,0,0-.01.01-.02.01-.7.41-1.42.8-2.14,1.17-.62.31-.87.61-1.61.26h0Z" style="fill: #dce2e9;"/>
      <path id="au" data-name="Path 1186" d="m135.77,96.79c7.57,4.11,15.17,8.15,22.82,12.11.38.2.77.4,1.14.62.18.11.18.21-.01.3l-5.63,2.98c-.23.13-.51.15-.75.04-1.22-.51-2.41-1.08-3.57-1.7-4.6-2.47-9.25-4.84-13.9-7.24v-6.19l-.11-.93h.02Zm4.63,3.25c-1.23-.52-2.66-.18-3.53.84-.23.32-.15.56.23.73.34.17.74.15,1.06-.05l2.24-1.37s.05-.08.03-.12c0-.01-.02-.02-.03-.03h0Zm.75,3.49c.64.65,1.03.57,1.8.11.55-.34,1.13-.67,1.72-1.01.24-.13.23-.26-.01-.37-1.19-.55-2.57.38-3.49,1.11-.05.04-.06.1-.02.15,0,0,0,0,0,0h0s0,0,0,0Zm5.65,2.88c.2.15.46.19.69.11.89-.3,1.71-.78,2.39-1.42.05-.04.05-.11.01-.16h0c-.91-.89-2.39.21-3.24.72-.33.2-.28.45.15.76h0Zm4.31,2.81c.4.39,1,.48,1.5.22.74-.41,1.45-.86,2.14-1.35.05-.03.06-.1.03-.14,0,0,0,0,0,0,0-.02-.02-.03-.04-.04-.49-.28-.83-.51-1.42-.3-.83.29-1.59.75-2.22,1.35-.07.07-.07.18,0,.25l.02.02h0Z" style="fill: #fefeff;"/>
      <path id="av" data-name="Path 1187" d="m135.88,97.73v6.19l.07,1.23v6.74c-.06,1.35-.09,2.7-.07,4.03.04,3.03-.02,5.55.08,8.31-.06.09-.07.2-.02.3-.13.07-.19.01-.17-.17.01-.09-.05-.17-.14-.19h-.01c-.45-.08-.88-.29-1.2-.62-.11-.09-.27-.08-.37.02-.08.09-.13.04-.13-.13,0-.05-.06-.09-.12-.11-.22-.04-.13-2.82-.14-4.24v-12.24l.02-3.59s.03.09.06.13c.07.03.15.03.22,0,.17-.06.36-.03.5.08.05.05.08.12.06.19-.01.14.07.2.26.19.05,0,.11-.06.14-.13.04-.1.16-.13.33-.1.05.01.11-.02.12-.08,0,0,0,0,0,0h0c.02-.33.07-.64.16-.94.34-1.6.46-3.24.37-4.87v.02Z" style="fill: #ee8c67;"/>
      <path id="aw" data-name="Path 1188" d="m148.44,99.54c-.09-.08-.1-.21-.02-.3,0,0,0,0,0,0,0,0,.01-.01.02-.02.97-.83,2.54-2.02,3.76-1.06.04.03.05.09.02.13,0,0,0,0,0,0,0,0-.01.01-.02.02-.75.52-1.52,1.01-2.32,1.44-.47.26-1.06.17-1.43-.22h0Z" style="fill: #dce2e9;"/>
      <path id="ax" data-name="Path 1189" d="m140.4,100.05s.06.08.04.12c0,.01-.01.02-.03.03l-2.24,1.37c-.32.2-.72.22-1.06.05-.37-.17-.45-.41-.23-.73.87-1.01,2.29-1.35,3.53-.84Z" style="fill: #dadce0;"/>
      <path id="az" data-name="Path 1190" d="m110.97,126.65l.06-3.54v-3.54l-.04-4.65v-2.18l-.02-.47c.01-2.97.02-5.94.01-8.91.04-.57-.04-1.15-.22-1.69-.52-1.07-1.81-.81-2.8-1.17l-2.27-.49h-.02c-.05,0-.09.04-.09.09.05,1.35.04,2.7,0,4.05-.06,1.58-.89,2.17-2.5,1.76-.49-.1-.96-.28-1.39-.53-.86-.83-1.22-2.06-.93-3.23v-10.3c-2.64-1.54-5.33-2.99-8.07-4.34-1.2-.6-2.16-.45-2.86.42-1.52,1.9-2.09,1.46-4.21.42-2.45-1.21-5.77-2.32-6.49-5.3-.38-1.87-1.65-3.43-3.39-4.19-4.99-2.75-9.53-5.14-13.64-7.17-.42-.2-.89-.27-1.35-.19-.07.01-.14.05-.19.11-.63.93-1.67,1.49-2.79,1.5-1.11.03-2.22.04-3.34.04-.32-.04-.61.19-.65.51,0,.02,0,.04,0,.07-.16,1.39-.17,2.8-.04,4.19,0,.84-.02,2.49-.07,4.94,0,.51-.24.99-.65,1.28-.65.17-3.41.54-3.75.84v14.78l.04,3c-.03-.18.01-.28.11-.29.08,0,.15.04.19.11,1.53,2.32,3.5,3.24,6.16,4.6,4.99,2.55,9.98,5.12,14.96,7.69.73.37,1.42.97,2.21,1.37.69.35,1.14.59,1.35.72.63.48,1.3.89,2.02,1.23.08,0,.15.02.21.06.72.5,1.52.86,2.37,1.06.31,0,.59.18.72.46.16.34.48.59.85.65.06.01.11.07.11.13,0,.11.07.14.19.09,1.54.13,2.89.98,4.89,2.03.21.11.54.11.74.4.04.06.1.11.18.12.3.09.59.2.87.35,1.66.83,3.32,1.69,4.95,2.57,3.9,2.07,7.79,4.13,11.68,6.18,1.81.96,3.5,2.06,5.59.92.8-.39,1.32-1.19,1.35-2.08.08-1.51.08-3.02-.01-4.53v.03Zm-.22-10.61s-.01.03-.02.04h0s.02-.02.03-.04Zm-6.79-9.62s.01.02.02.03c0,0-.01-.02-.02-.03Zm-.84,9.15h0Zm.08-.03s-.01,0-.01,0c.01,0,.02-.02.03-.04,0,0,0,.01-.01.03Zm-7.46-12.19s.01,0,.01,0c-.01,0-.02.02-.02.04,0,0,0-.02,0-.03Zm-34.94-15.98v.02s-.01.01-.01.02c0-.01.01-.03.01-.04Zm-3.17-.97s-.02,0-.03,0c0,0,0-.01,0-.01.01,0,.02.02.04.02Zm.3-6.86s.01-.03.01-.04h0s0,.03-.01.04h0Zm16.66,18.26s0,.03.02.04h0s-.01-.02-.02-.03h0Zm-20.04-18.81s-.01.01-.02.01h-.01s.03,0,.04-.01Zm-5.09,7.63s0,.03,0,.05v-.02s0-.02,0-.03h0Zm61.09,39.43h.05s.02,0,.02,0c-.02,0-.04-.01-.06-.01h0Z" style="fill: url(#ay);"/>
      <path id="ba" data-name="Path 1191" d="m193.49,101.6c-.33.26-.68.48-1.05.67-14.37,7.96-28.77,15.89-43.19,23.78-.84.46-1.71.87-2.59,1.23-3.68,1.49-6.82-.72-9.89-2.4-.24-.13-.49-.21-.76-.25l-.07-.11c-.05-.09-.04-.21.02-.3,2.08,1.11,4.18,2.5,6.41,3.12,2.59.72,4.7-.33,7.23-1.71,14.18-7.8,28.37-15.6,42.55-23.41.1-.06,1.3-1.01,1.34-.62h0Z" style="fill: #ebceef;"/>
      <path id="bb" data-name="Path 1192" d="m193.49,101.6h.11c.12.43.12,1.58-.3,1.82-.84.47-1.68.95-2.51,1.44-13.94,7.74-27.9,15.43-41.88,23.06-1.1.62-2.28,1.09-3.51,1.4-1.35.2-2.74.05-4.02-.43-1.87-.83-3.69-1.76-5.46-2.8l.09-1.45c.27.04.52.12.76.25,3.07,1.68,6.21,3.89,9.89,2.4.89-.36,1.75-.77,2.59-1.23,14.42-7.89,28.82-15.81,43.19-23.78.37-.19.72-.42,1.05-.67h0Z" style="fill: #393b40;"/>
      <path id="bc" data-name="Path 1193" d="m141.14,103.54s-.04-.11,0-.16h0c.92-.73,2.31-1.66,3.49-1.11.25.11.26.24.01.37-.6.33-1.17.67-1.72,1.01-.77.47-1.15.55-1.8-.11h0Z" style="fill: #dce2e9;"/>
      <path id="bd" data-name="Path 1194" d="m92.37,126.15c-.64.25-1.32.42-2,.5l-40.86-21.39c-.41-.21-.21-1.67-.2-2.12v-.35c-.03-.18.01-.28.11-.29.08,0,.15.04.19.11,1.53,2.32,3.5,3.24,6.16,4.6,4.99,2.55,9.98,5.12,14.96,7.7.73.37,1.42.97,2.21,1.37.69.35,1.14.59,1.35.72.63.48,1.3.89,2.02,1.23.08,0,.15.02.21.06.72.5,1.52.86,2.37,1.06.31,0,.59.18.72.46.16.34.48.59.85.65.06.01.11.07.11.13,0,.11.07.14.19.09,1.54.13,2.89.98,4.89,2.03.21.11.54.11.74.4.04.06.1.11.18.12.3.09.59.2.87.35,1.66.83,3.32,1.69,4.95,2.57h-.01Z" style="fill: #d36378;"/>
      <path id="be" data-name="Path 1195" d="m49.31,103.15c0,.45-.22,1.91.2,2.12,0,.15-.07.28-.19.37-.07.04-.12.09-.17.16-.31.49-.6,1-.84,1.52-1.91,3.9-3.75,7.74-5.53,11.54-.09.2-.33.28-.52.19,0,0,0,0,0,0h0c-2.71-1.37-5.29-2.72-7.75-4.07-.48-.29-.88-.69-1.18-1.16-.53-2.1,1.39-2.95,3.11-3.91,3.93-2.18,7.85-4.37,11.77-6.57.01,0,.16-.12.44-.33.18-.16.45-.15.62.03.03.03.06.07.08.12h-.02Z" style="fill: #fefefe;"/>
      <path id="bf" data-name="Path 1196" d="m158.83,105.08c-.08-.09-.08-.22,0-.3,0,0,.01-.01.02-.01.69-.52,1.43-.98,2.2-1.36.48-.25,1.08-.1,1.37.36.09.1.08.26-.02.35,0,0,0,0,0,0-.01.01-.03.02-.04.03-.86.46-1.71.91-2.57,1.33-.26.13-.58,0-.96-.39Z" style="fill: #e0e6ee;"/>
      <path id="bg" data-name="Path 1197" d="m146.79,106.42c-.43-.3-.48-.56-.15-.76.85-.51,2.33-1.61,3.24-.72.04.04.04.11,0,.16h0c-.69.64-1.5,1.13-2.39,1.42-.23.08-.49.04-.69-.11h0Z" style="fill: #dce2e9;"/>
      <path id="bh" data-name="Path 1198" d="m190.78,104.86c.32.18.49.35.52.53,1.19,9.42-8.37,15.76-15.33,19.4-13.67,7.17-27.18,14.64-40.86,21.79-.13.07-1.52.81-4.16,2.21-5.42,2.88-12.79,7.13-19.24,6.2-2.52-.37-5.04-1.88-7.21-3.33-.3-.21-.36-.43-.16-.66,17-9.26,27.48-15.06,31.46-17.41,2.22-1.3,4.48-2.53,6.79-3.68.42-.23.91-.31,1.38-.23.51.16,1.06,0,1.42-.38,1.23-.31,2.41-.78,3.51-1.4,13.99-7.64,27.95-15.32,41.88-23.06h.01Z" style="fill: #63a998;"/>
      <path id="bi" data-name="Path 1199" d="m135.96,105.15c5.34,2.97,10.83,5.68,16.24,8.5.14.07.14.15,0,.23l-5.84,3.09c-.15.09-.34.09-.5,0l-9.88-5.08v-6.74s-.02,0-.02,0Z" style="fill: #fefeff;"/>
      <path id="bj" data-name="Path 1200" d="m49.5,105.27l40.86,21.39,22.62,11.82c-.12.07-.2.2-.2.35,0,.07-.04.13-.11.15-7.09,1.94-14.17,3.61-21.32,5.67-.15.04-.16.1-.02.18,1.35.73,2.72,1.45,4.11,2.15,3.49,1.75,5.31,2.99,8.48,2.17,1.33-.46,2.6-1.05,3.8-1.79,9.72-5.42,19.44-10.83,29.17-16.24,1-.63,2.04-1.2,3.12-1.71.07-.03.15-.04.23-.02.44.08.88-.11,1.12-.48,1.28.48,2.66.63,4.02.43-.36.39-.92.53-1.42.38-.47-.09-.96,0-1.38.23-2.31,1.15-4.57,2.37-6.79,3.68-3.97,2.35-14.46,8.15-31.46,17.41-2.18.42-4.43.11-6.41-.89-4.71-2.49-9.43-4.98-14.14-7.47-11.41-6.04-22.83-12.06-34.27-18.04-4.95-2.59-7.9-4.11-8.84-4.58-1.98-1.08-3.97-2.13-5.97-3.17-1.19-.51-1.79-1.84-1.39-3.07.3.47.7.87,1.18,1.16,2.46,1.35,5.04,2.7,7.75,4.07.19.1.43.02.53-.17,0,0,0,0,0,0h0c1.77-3.8,3.61-7.65,5.53-11.55.25-.52.53-1.03.84-1.52.05-.06.1-.12.17-.16.12-.08.19-.22.19-.37h0Z" style="fill: #eff2f6;"/>
      <path id="bk" data-name="Path 1201" d="m151.11,109.23c-.08-.06-.09-.17-.03-.24,0,0,0,0,0,0,0,0,.01-.01.02-.02.64-.6,1.4-1.06,2.22-1.35.58-.21.93.03,1.42.3.05.03.07.1.04.15,0,.02-.02.03-.04.04-.69.49-1.4.94-2.14,1.35-.49.26-1.1.17-1.5-.22h0Z" style="fill: #dce2e9;"/>
      <path id="bm" data-name="Path 1202" d="m115.85,133.38c-.06-2.27-.06-4.53-.03-6.79l-.02-15.02c.08-4.38.1-8.76.08-13.13-.05-1.2-.2-2.4-.44-3.58-.28-.99-.96-1.81-1.86-2.3-.41-.28-.84-.52-1.3-.72-1.8-.82-3.57-1.7-5.31-2.64-1.18-.57-4.52-2.27-10.03-5.12-9.93-5.12-19.83-10.27-29.73-15.44-7.79-4.07-12.53-6.56-14.21-7.47-.48-.25-1.02-.36-1.56-.33-.06,0-.11-.05-.12-.11,0-.06-.03-.12-.07-.17-1.29.45-2.12,1.71-2,3.07.01,2.5.01,9.55,0,21.14l.02.23c.33-.3,3.1-.67,3.75-.84.42-.28.67-.77.65-1.28.05-2.46.07-4.11.07-4.94-.13-1.4-.11-2.8.04-4.19,0-.32.25-.58.57-.58.03,0,.05,0,.08,0,1.11,0,2.22,0,3.34-.04,1.12-.01,2.16-.57,2.79-1.5.05-.06.11-.1.19-.11.46-.08.93-.02,1.35.19,4.1,2.03,8.65,4.42,13.64,7.17,1.75.76,3.01,2.32,3.39,4.19.72,2.98,4.05,4.1,6.49,5.3,2.11,1.04,2.69,1.48,4.21-.42.69-.87,1.64-1.01,2.86-.42,2.74,1.35,5.43,2.78,8.08,4.34-.5-2.12,2.08-1.5,2.95-.81,2.94,2.22,4.55,5.78,4.26,9.46.99.36,2.27.11,2.8,1.17.18.54.26,1.12.22,1.69,0,2.97,0,5.94-.01,8.91l.02.47v2.18l.04,4.65v3.54l-.06,3.54c.09,1.51.1,3.02.01,4.53-.03.89-.55,1.69-1.35,2.08-2.09,1.13-3.78.04-5.59-.92-3.89-2.06-7.78-4.12-11.68-6.18-.64.25-1.32.42-2,.5l22.62,11.82c.78.25,1.63.19,2.37-.17l-.25-.31c-.04-.06-.03-.14.01-.2.84-1.13.77-3.07.73-4.42h0Zm-4.72-24.02s-.03,0-.04.01c.01,0,.02-.01.04-.01h0Zm-.08.09s.01-.02.02-.04c-.01.01-.02.03-.02.05h0Z" style="fill: url(#bl);"/>
      <path id="bo" data-name="Path 1203" d="m135.94,124.52c-.13.07-.19.01-.17-.17h0c0-.11-.07-.18-.16-.19-.45-.08-.88-.29-1.2-.62-.11-.09-.27-.08-.37.02-.08.09-.13.04-.13-.13,0-.05-.06-.09-.12-.11-.22-.04-.13-2.82-.14-4.24v-12.25l.02-3.59-.02-4.18v-18.08c.01-3.61-.05-7.23.07-10.83.06-.94.04-1.89-.06-2.83-.34-1.71-1.66-4.42-3.46-4.99-.17-.05-1.36-.45-1.44-.16-.02.06-.07.11-.12.11-1.52-.15-2.66-1.16-3.93-.55-1.05-2.57-3.3-3.54-5.42-4.66-11.34-5.99-22.62-12.09-33.84-18.29-.4-.22-.77-.5-1.11-.81h-.01c-.03-.06-.02-.12.03-.16l1.08-.77c.06-.05.09-.11.09-.19,0-.15.07-.29.19-.39-2-1.16-4.05-2.22-6.15-3.21-.9-.58-2.06-.6-2.98-.04-1.71.9-1.57,1.97-1.93,3.58-.05.29-.27.51-.55.58-1.36.39-2.51.13-3.88.21-1.32.27-2.23,1.48-2.11,2.83,0,7.38-.02,14.76-.05,22.15v4.61s-.05.04-.08.03c-3.79-1.91-7.53-3.85-11.23-5.84-1.79-.96-3.63-1.94-5.48-.81.04.05.06.11.07.17,0,.06.06.11.12.11.54-.03,1.08.08,1.56.33,1.68.9,6.41,3.39,14.21,7.47,9.9,5.17,19.81,10.32,29.73,15.44,5.5,2.84,8.85,4.55,10.03,5.12,1.74.94,3.52,1.82,5.31,2.64.45.2.89.44,1.3.72.91.48,1.58,1.31,1.86,2.3.23,1.18.38,2.38.44,3.58.03,4.38,0,8.76-.08,13.13l.02,15.02c-.04,2.27-.03,4.53.03,6.79.04,1.35.1,3.29-.73,4.42-.05.06-.06.14-.01.2l.25.31c2.66-.75,2.64-3.22,2.49-5.46h0c0-.07.05-.11.11-.11,3.04-.04,6.08-.07,9.12-.07,4.12,0,7.96-2.32,8.86-6.57l.09-1.45-.07-.11h0Zm-10.09-47.8v-.04h.01s-.01.02-.01.04Zm.04-.07s.02-.01.03-.01c-.01,0-.02,0-.03.01Zm-4.09,28.68h-.04s.02,0,.03,0h.01Zm-.06-.01s0-.01-.01-.02c0,0,0,.01.01.02h0Zm-41.3-38.73c.06.02.12,0,.15-.06.04-.14-.04-.21-.22-.2-.07,0-.12-.04-.15-.1-.04-.12-.14-.2-.26-.23-.09-.02-.09-.04-.01-.06l.49-.16c.24-.08.26-.18.05-.3-.34-.22-.74-.32-1.15-.28-.07,0-.14-.02-.19-.07-.39-.48-.94-.82-1.54-.96-.33-.08-.62-.25-.85-.5-.37-.41-.86-.68-1.4-.77-.07,0-.15.02-.2.07-.04.06-.13.08-.19.03-.02-.02-.04-.04-.05-.06,0,0-.01-.01-.02-.02-.03-.02-.07-.02-.1,0,0,0,0,0,0,0l-.09.13-.09,7.46v.03s-.06.06-.1.05c0,0,0,0-.01,0-1.11-.47-2.18-1.02-3.2-1.66-.11-.07-.17-.19-.17-.32l.07-2.27c0-7.04,0-14.08.02-21.13,0-3.05,3.04-4.09,5.48-2.73,8.23,4.55,18.89,10.22,31.96,17.02,2.44.75,3.87,3.28,3.25,5.76,0,.02,0,.04-.01.05-.06.16-.24.24-.4.19-.43-.15-.85-.32-1.25-.52-3.66-1.87-7.34-3.73-11.02-5.58-.06.14-.22.21-.36.16-.07-.02-.14-.01-.21.02l-.86.45c-.34.18-.35.35-.02.52,4.91,2.5,9.79,5.16,14.81,7.45,2.04,1.01,4.08,2.02,6.13,3.03,2.73,1.35,4.28,2.8,4.31,5.98v17.82c-.59.11-1.2,0-1.72-.29-.06-.04-.11-.1-.13-.17-.11-.52-.15-1.06-.11-1.59.08-1.47.07-2.93.06-4.41,0-1.5.01-3,.01-4.49,0-.82-.09-2.59-1.4-2.49h-.02s-.07-.04-.06-.08c0,0,0,0,0-.01.04-.2-.06-.33-.3-.39-.4-.13-.76-.36-1.04-.68-.34-.34-.12-.56-.76-.64-.24-.03-.46-.1-.67-.22-.06-.04-.11-.1-.13-.17-.04-.2-.2-.35-.39-.4-.07-.01-.14-.06-.17-.13-.13-.3.01-.49.45-.54h.02s.07-.08.06-.13c-.05-.19-.16-.36-.31-.5-.76-.55-2.2-1.78-3.1-1.91-.08-.01-.14-.05-.19-.11-.12-.21-.38-.28-.59-.17-.01,0-.03.02-.04.02-.05.03-.12.01-.16-.04-.1-.18-.33-.24-.51-.14,0,0,0,0,0,0-.06.03-.08.01-.07-.05.02-.09,0-.18-.04-.26-.05-.05-.12-.08-.19-.07h-.69c-.06,0-.1-.07-.1-.15.02-.15-.06-.29-.19-.37-.52-.4-1.26-.33-1.69.16h0s-.04.12.01.16c0,0,0,0,0,0,.09.08.15.18.18.3.46.52.79,1.15.96,1.82.12.44-.05.68-.5.72-.47.02-.94-.1-1.35-.33-7.76-4.05-15.5-8.16-23.2-12.32.14.22.34.39.58.49.06.03.1.09.11.16.01.07.04.13.09.19,0,0,.01.02.01.03,0,.03-.01.06-.04.07-.64.12-1.21.33-1.86.51-.54.13-.9.64-.84,1.2l25.92,13.78c.61.39,1.05.99,1.23,1.68.16.59-.06.81-.64.65-.59-.15-1.15-.37-1.68-.65-2.08-1.14-4.17-2.26-6.27-3.36-5.33-2.83-10.67-5.65-16.01-8.46-1.7-.89-4.36-2.08-5.02-3.36-.09-.14-.54-1.19-.16-1.11l.02-.02Zm27.54,21.6c-8.52-4.54-17.06-9.06-25.61-13.55-.65-.34-1.91-1.08-1.64-2.01.04-.27.29-.46.56-.42.04,0,.08.02.11.03.64.16,1.25.4,1.83.7,4.29,2.27,8.57,4.55,12.84,6.82,4.31,2.3,8.62,4.58,12.94,6.87.98.45,1.5,1.54,1.21,2.59l-2.24-1.03h0Z" style="fill: url(#bn);"/>
      <path id="bp" data-name="Path 1204" d="m135.92,126.09c1.76,1.04,3.58,1.98,5.46,2.8-.24.37-.68.57-1.12.48-.08-.01-.15,0-.23.02-1.07.5-2.11,1.07-3.12,1.71-9.73,5.41-19.45,10.82-29.17,16.24-1.2.73-2.47,1.33-3.8,1.79-3.17.83-4.99-.42-8.48-2.17-1.4-.7-2.76-1.42-4.11-2.15-.14-.08-.13-.13.02-.18,7.15-2.06,14.22-3.72,21.32-5.67.06-.02.1-.08.11-.15,0-.14.08-.27.2-.35.78.25,1.63.19,2.37-.17,2.66-.75,2.64-3.22,2.49-5.46,0-.06.04-.11.1-.11,0,0,0,0,0,0h0c3.04-.04,6.08-.07,9.12-.07,4.12,0,7.96-2.32,8.86-6.57h0Z" style="fill: #fefefe;"/>
      <path id="bq" data-name="Path 1205" d="m56.8,83.51c-.03-.07-.04-.15-.03-.23.34-1.64,2.33-.7,3.24-.22,4.85,2.56,9.68,5.14,14.51,7.73.85.43,1.67.9,2.47,1.41.79.69,1.26,1.69,1.29,2.74-.65.18-1.34.1-1.92-.23-4.95-2.59-9.9-5.2-14.85-7.82-1.44-.77-4.04-1.85-4.72-3.38h0Z" style="fill: #feeee0;"/>
      <path id="br" data-name="Path 1206" d="m56.94,76.39c.22-.39.64-.61,1.08-.55.54.06,1.06.22,1.53.49,9.16,4.96,14.6,7.87,16.32,8.74,1.2.58,2.12,1.62,2.54,2.88.41,1.57-1.37.62-1.85.37-6.21-3.19-12.36-6.48-18.46-9.88-.39-.22-.74-.49-1.06-.81-.38-.29-.44-.84-.15-1.21.01-.01.02-.03.04-.04h0Z" style="fill: #feeee0;"/>
      <path id="bs" data-name="Path 1207" d="m59.39,88.98c2.32,1.25,4.64,2.5,6.97,3.73,1.27.67,3.09,1.48,3.02,3.2-.45.64-1.28.3-1.84.01-2.48-1.25-4.95-2.51-7.42-3.8-1.48-.77-2.99-1.52-3.39-3.17-.11-1.38,2.05-.31,2.67.03Z" style="fill: #feeee0;"/>
      <g id="bt" data-name="Group 1764">
        <path id="bu" data-name="Path 1208" d="m43.84,133.55c-.33-.36-.64-.74-.94-1.13.29.39.61.77.94,1.13Z" style="fill: none;"/>
        <path id="bv" data-name="Path 1209" d="m40.81,128.55c-.13-.49-.26-.96-.37-1.42.1.45.23.92.37,1.42Z" style="fill: none;"/>
        <path id="bw" data-name="Path 1210" d="m40.35,126.71c-.04-.16-.06-.31-.1-.46.03.15.06.3.1.46Z" style="fill: none;"/>
        <path id="bx" data-name="Path 1211" d="m44.86,134.56c-.35-.32-.68-.64-.99-.99.32.35.64.68.99.99Z" style="fill: none;"/>
        <path id="by" data-name="Path 1212" d="m65.62,146.37l-.15-.13c.05.04.1.08.15.13Z" style="fill: none;"/>
        <path id="bz" data-name="Path 1213" d="m45.99,135.5c-.3-.23-.58-.47-.86-.72.28.24.57.49.86.72Z" style="fill: none;"/>
        <path id="ca" data-name="Path 1214" d="m65.93,146.73h0c-.04-.06-.09-.12-.13-.18.05.06.09.12.13.18Z" style="fill: none;"/>
        <path id="cb" data-name="Path 1215" d="m69.5,148.35c1.76,0,3.51,0,5.27-.04.35,0,.82-.18.16-.48l-6.45-.04c.36.19.7.37,1.01.56h0Z" style="fill: none;"/>
        <path id="cc" data-name="Path 1216" d="m65.63,146.37l.16.16c-.05-.06-.1-.11-.16-.16Z" style="fill: none;"/>
        <path id="cd" data-name="Path 1217" d="m41.43,130.59h-.16c.16.2.31.4.46.6h.07c-.13-.19-.25-.39-.36-.6h0Z" style="fill: none;"/>
        <path id="ce" data-name="Path 1218" d="m65.44,146.22s-.1-.07-.15-.09c.05.03.1.06.15.09Z" style="fill: none;"/>
        <path id="cf" data-name="Path 1221" d="m65.8,146.55l-.02-.02s.01.02.02.02Z" style="fill: #feead4;"/>
        <path id="cg" data-name="Path 1222" d="m65.47,146.24s-.02-.02-.04-.03c.01,0,.03.02.04.03Z" style="fill: #feead4;"/>
        <path id="ch" data-name="Path 1223" d="m40.44,127.14c-.04-.14-.07-.29-.1-.43.03.14.06.28.1.43Z" style="fill: #feead4;"/>
        <path id="ci" data-name="Path 1224" d="m42.51,131.72c.14-.15.14-.39-.01-.54h-.7c.1.15.21.3.33.44.24.29.5.56.79.8h0c-.13-.17-.27-.33-.4-.51-.03-.06-.03-.13,0-.19Z" style="fill: #feead4;"/>
        <path id="cj" data-name="Path 1226" d="m40.25,126.25c-.06-.33-.13-.65-.18-.96.05.3.11.63.18.96Z" style="fill: #feead4;"/>
        <path id="ck" data-name="Path 1227" d="m47.27,136.36c-.44-.27-.86-.56-1.27-.86.4.3.83.6,1.27.86Z" style="fill: #feead4;"/>
        <path id="cl" data-name="Path 1228" d="m45.13,134.79c-.09-.08-.18-.15-.26-.22.09.08.18.15.26.22Z" style="fill: #feead4;"/>
        <path id="cm" data-name="Path 1229" d="m40.81,128.55c.04.72.26,1.41.62,2.03h0c-.23-.72-.43-1.39-.62-2.03Z" style="fill: #feead4;"/>
        <path id="cn" data-name="Path 1230" d="m43.87,133.57l-.02-.02.02.02Z" style="fill: #feead4;"/>
      </g>
    </g>
  </g>
  <g id="co" data-name="step02">
    <g id="cp" data-name="files-laptop">
      <path id="cq" data-name="Path 1140" d="m126.84,6.75c.33.18.7.27,1.08.26.26,0,.51.07.74.19,3.33,1.7,6.65,3.42,9.96,5.17,2.06,1.09,5.5,3.01,8.29,4.42,1.93.98,3.32,1.69,4.17,2.14,7.44,3.94,14.88,7.87,22.33,11.8,1.4.74,3.18,1.61,4.87,2.59,2.37,1.38,5.23,2.66,7.84,4.05.89.47,1.8.91,2.72,1.33.73.49,1.53.85,2.38,1.06,2.29,1.16,3.68,2.28,3.68,5.07,0,11.76.03,23.52.08,35.27,0,3.43,0,6.86,0,10.29,0,1-.09,2.83,0,4.26.04.89-.03,1.78-.2,2.65-.37.69-.9,1.29-1.54,1.74-18.39-9.53-36.76-19.08-55.12-28.64-.74-.38-1.51-.75-2.32-1.09.04-1.3-.05-2.61-.27-3.89-1.23-5.16-5.7-6.76-10.89-9.27V12.17c-.08-2.43-.24-4.63,2.17-5.41h.01Zm3.31,26.81v24.89c0,.13.07.26.19.32,19.77,10.06,39.25,20.33,58.9,30.48.05.02.11,0,.14-.05,0-.01,0-.03,0-.04v-24.51s.01-2.59.01-2.59c.26-.05.4-.16.4-.35.12-5.94.36-9.53-.05-14.25,0-.08-.04-.15-.09-.2-.06-.05-.13-.08-.2-.09,0-.14-.1-.26-.23-.31-7.31-3.83-14.62-7.65-21.92-11.48l-37-19.37s-.08,0-.1.03c0,.01,0,.02,0,.04l-.05,17.49h0Zm29.56-6.79c-.34,1.28,1.25,1.89,2.21,2.07.13.03.27-.04.33-.16.73-1.31-.95-2.02-1.88-2.29-.23-.11-.51-.01-.62.22-.02.05-.04.1-.04.15h0Z" style="fill: #071c2f;"/>
      <path id="cr" data-name="Path 1142" d="m167.3,35.37c-.06.21,0,.33.16.36.07.01.14.05.2.1.59.68.88,1.56.81,2.45,0,.13-.03.25-.09.37l-.44,1.03c-.63-.65-1.37-1.19-2.17-1.61-4.29-2.27-8.6-4.53-12.91-6.77-5.99-3.19-9.71-5.12-11.14-5.81-1.72-.98-3.9-.51-5.05,1.1-1.02,1.54-1.97,3.14-2.83,4.78-.96.35-1.99.46-3,.33-.2-.03-.39.11-.43.31v.03l-.05,1.33c0,.08-.01.15-.06.21-.06.08-.12.06-.16-.04l.05-17.49s.03-.07.07-.07h0s.02,0,.04,0l37,19.37h0Z" style="fill: #ffe9d1;"/>
      <path id="cs" data-name="Path 1143" d="m112.06,40.64c3.56.01,7.13,0,10.7-.06.22,0,.44-.17.28-.39-.05-.06-.12-.09-.2-.09l-10.41-.07" style="fill: #63a998;"/>
      <path id="ct" data-name="Path 1144" d="m118.16,30.36c1.55-2.24,3.21-4.39,4.99-6.45.63-.72,1.13-.65,1.5.21v32c-.44-.28-.88-.54-1.35-.78-4.8-2.51-9.59-5.02-14.37-7.54-.02-.17,0-.35.07-.5.99-2.23,2.01-4.45,3.05-6.66l6.11-10.27h0Z" style="fill: #63a998;"/>
      <path id="cu" data-name="Path 1145" d="m112.42,40.02c1-2.23,2.16-4.39,3.47-6.45.44-.73.92-1.44,1.44-2.11.15-.19.29-.39.42-.6,1.69.09,3.39.08,5.08-.05.07,0,.14-.05.19-.11.2-.28-.13-.38-.35-.38-1.49,0-2.99,0-4.51.05l-5.74,9.66h.01Z" style="fill: #63a998;"/>
      <path id="cv" data-name="Path 1146" d="m152.87,31.31s-.03.06-.04.1c0,.06.03.12.09.14.64.21,1.21.57,1.68,1.05.55.8.4.88-.45.26-.06-.04-.14-.07-.21-.07-.72-.01-1.25-.29-1.98-.3-.89-.12-1.76-.36-2.59-.72-.52-.14-1.03-.3-1.54-.47-.83-.28-1.3-.88-2.34-.96-.08,0-.15-.03-.21-.07-1.29-.88-2.77-1.46-4.32-1.68-.06,0-.12.04-.13.1-.09.57-1.51-.26-1.72-.46-.05-.06-.12-.09-.2-.11-.77-.13-1.44-.62-1.8-1.32-.02-.04-.07-.06-.11-.04,0,0,0,0,0,0,0,0-.01,0-.02.01-.25.24-.36.18-.32-.17,1.16-1.6,3.33-2.07,5.05-1.1,1.43.69,5.15,2.62,11.14,5.81h0Z" style="fill: #fdbf6c;"/>
      <path id="cw" data-name="Path 1147" d="m161.92,28.84c-.96-.18-2.55-.79-2.21-2.07.03-.26.26-.44.51-.42.05,0,.11.02.15.04.93.28,2.61.98,1.88,2.29-.07.12-.2.18-.33.16h0Z" style="fill: #fefefe;"/>
      <path id="cx" data-name="Path 1148" d="m136.67,26.6c-.04.35.07.41.32.17.03-.03.08-.04.11,0,0,0,0,0,0,0,0,0,.01.01.01.02.36.7,1.03,1.19,1.8,1.32.08.02.14.05.2.11.21.21,1.64,1.03,1.72.46,0-.06.06-.1.12-.1,0,0,0,0,.01,0,1.55.22,3.03.8,4.32,1.68.06.04.14.07.21.07,1.03.07,1.5.67,2.34.96.51.17,1.02.33,1.54.47.83.36,1.7.6,2.59.72.72,0,1.25.28,1.98.3.08,0,.15.03.21.07.85.63,1,.55.45-.26-.47-.48-1.05-.83-1.68-1.05-.06-.02-.1-.08-.09-.14,0-.04.02-.07.04-.1,4.31,2.24,8.62,4.5,12.91,6.77.8.42,1.53.97,2.17,1.61,1.33,1.5,1.81,3.07,2.47,5.11.24.59.59,1.12,1.05,1.57l-.17.45c-.03.09-.07.08-.12,0-.16-.27-.23-.26-.24.04,0,.05-.04.1-.09.1,0,0,0,0-.01,0h-.01c-1.91-.39-3.79-.89-5.64-1.5-.58-.18-1.14-.43-1.66-.75-1.34-.86-3.73-.49-4.49-1.18-.05-.05-.12-.08-.2-.09-.36-.01-.71-.14-.99-.37-.06-.04-.13-.07-.21-.09-.57-.07-.67-.59-1.25-.72-.07-.02-.14-.06-.18-.12-.22-.32-.6-.48-.99-.41-.08.01-.16,0-.23-.03-.61-.18-1.19-.45-1.71-.79-.05-.06-.11-.1-.18-.14l-.64-.13c-4.3-2.23-8.59-4.48-12.88-6.74-.89-.63-1.94-1-3.03-1.08-.54-.2-1.07-.45-1.57-.75-.36-.27-.74-.5-1.13-.69.86-1.64,1.81-3.24,2.83-4.78h0Z" style="fill: #fdc57b;"/>
      <path id="cy" data-name="Path 1149" d="m133.85,31.38c.4.2.78.43,1.13.69.5.3,1.02.55,1.57.75-.46.1-.75.57-.65,1.03.02.08.05.16.09.23.42,1.12,1.3,1.5,2.62,2.2,7.1,3.8,14.24,7.55,21.42,11.22.47.24,1.01.31,1.53.19-.23.19-.27.34-.11.47.06.05.11.11.14.18.21.45,1.7,1.09,2.18,1.32.94.3,1.86.66,2.76,1.09.07.04.14.06.22.06.85.11,1.69.28,2.51.5.47.09.92.28,1.31.57.93.61,2.34.69,3.37,1.25.4.22.79.47,1.16.75,1.28.78,2.66,1.41,4.09,1.86.6.23.92.76,1.61.95.07.02.15.02.22-.01l.37-.15c.06-.02.13,0,.17.06.07.08.17.09.29,0,.9.64,2.14.53,2.91-.26.8-.81.75-2.1.67-3.2,1.24.28,2.38.89,3.32,1.74-.16,2.2-.18,4.4-.07,6.6.1.5-.16,1.01-.62,1.24-.07.03-.15.03-.22.01l-3.46-1.03c-.1-.03-.13,0-.1.1.11.28.07.36-.1.23-.35-.01-.67-.2-.86-.5-1.06-1.57-4.04-.45-4.9-2.19-.03-.07-.09-.12-.16-.15-.99-.32-2.36-.3-3.36-1.16-.06-.05-.13-.07-.21-.08-.57-.01-.91-.51-1.34-.45-.07,0-.14-.01-.2-.06-.91-.87-1.54-.6-2.58-1-.36-.13-.59-.47-1.02-.57-.51-.12-1.06.33-1.52-.35-.04-.05-.11-.07-.17-.05-.6.26-.54-.58-1.18-.7-.08,0-.15,0-.22.04-.17.07-.36,0-.44-.16-.04-.06-.1-.11-.18-.13l-1.05-.18c-.21-.03-.4-.14-.52-.31-.28-.4-.56-.47-.86-.23-.05.04-.12.06-.19.03-.13-.08-.24-.18-.33-.3-.04-.06-.11-.09-.18-.1-.53-.04-.77-.75-1.44-.84-.07,0-.13-.05-.16-.12-.08-.18-.21-.34-.38-.45-.37-.53-.83-.99-1.37-1.35-6.4-3.38-12.81-6.76-19.21-10.14-.64-.33-1.51-.74-2.62-1.2-.45-.24-1.01-.1-1.29.33-.8.71-1.21-.03-1.91-.06-.34-.02-.68.04-.99.16-.03.01-.07,0-.08-.04,0,0,0,0,0,0v-.03c.04-.47-.95-.67-1.32-.79-.72-.24-1.72.05-1.66-1.2.03-.19-.03-.39-.17-.53v-3.6c.04.1.1.11.16.04.04-.06.06-.14.06-.21l.05-1.33c.01-.2.19-.35.39-.34,0,0,0,0,.01,0h.04c1.01.13,2.04.01,3-.33h.01Z" style="fill: #fdd39f;"/>
      <path id="cz" data-name="Path 1150" d="m136.55,32.82c1.09.08,2.14.45,3.03,1.08,4.29,2.26,8.58,4.51,12.88,6.74,2.24,1.22,4.49,2.42,6.76,3.59,1.34.65,2.23,1.97,2.32,3.46-.52.12-1.06.05-1.53-.19-7.17-3.68-14.31-7.42-21.42-11.22-1.32-.7-2.2-1.08-2.62-2.2-.23-.42-.08-.95.34-1.18.07-.04.14-.07.22-.08h0Z" style="fill: #fefefc;"/>
      <path id="da" data-name="Path 1152" d="m167.3,35.37c7.3,3.83,14.61,7.66,21.92,11.48.16.09.23.19.23.31l-.08,7.95c-.22-.03-.44-.11-.63-.23-.93-.86-2.08-1.46-3.32-1.74.19-2.02-.73-5.28-3.06-5.85-.93-.23-1.12.45-1.11,1.21.01.85-.01,1.79-.08,2.8-3.29-1.55-6.53-3.19-9.73-4.93-.46-.44-.81-.97-1.05-1.57-.44-1.86-1.29-3.61-2.47-5.11l.44-1.03c.05-.12.08-.24.09-.37.07-.89-.22-1.78-.81-2.45-.06-.05-.12-.08-.2-.1-.16-.04-.22-.16-.16-.36h0Z" style="fill: #feedde;"/>
      <path id="db" data-name="Path 1153" d="m85.62,35.63l23.32,12.17c4.79,2.52,9.58,5.04,14.37,7.54.47.25.91.5,1.35.78,5.2,2.51,9.67,4.11,10.89,9.27.22,1.28.31,2.59.27,3.89-.11.51-.13,1.03-.04,1.54l-.09,8.87.11,3.44v3.7c-.14.38-.12.81.05,1.18-.33,0-.16.77-.11.95l.03,2.66.03,3.28-.13,1.01.11.93c.09,1.63-.03,3.27-.37,4.87-.09.3-.14.61-.16.93,0,.05-.04.1-.1.1,0,0,0,0,0,0h-.01c-.18-.04-.29,0-.33.1-.02.06-.08.11-.14.13-.18.01-.26-.04-.26-.19.01-.07-.01-.14-.06-.19-.14-.11-.33-.14-.5-.08-.07.03-.15.03-.22,0-.03-.04-.05-.08-.06-.13l-.02-4.18v-18.08c.01-3.61-.05-7.23.07-10.83.06-.94.04-1.89-.06-2.83-.34-1.71-1.66-4.42-3.46-4.99-.17-.05-1.36-.45-1.44-.16-.02.06-.07.11-.12.11-1.52-.15-2.66-1.16-3.93-.55-1.05-2.57-3.3-3.54-5.42-4.66-11.34-5.99-22.62-12.09-33.84-18.29-.4-.22-.77-.5-1.11-.81-.04-.03-.04-.09-.01-.13,0,0,0,0,.01-.01h.01s1.08-.79,1.08-.79c.06-.05.09-.11.09-.19,0-.15.07-.29.19-.39h0Z" style="fill: #faaf5a;"/>
      <path id="dc" data-name="Path 1154" d="m130.15,37.15c.14.14.2.34.17.53-.06,1.25.94.96,1.66,1.2.36.12,1.36.31,1.32.79,0,.04.03.07.06.08h.03c.32-.12.65-.17.99-.16.7.04,1.11.77,1.91.06.14,1.18.87,2.21,1.94,2.73,7.94,4.25,14.74,7.81,20.39,10.68.62.37,1.28.67,1.96.91.5.13.72-.06.68-.57-.03-.5-.2-.99-.49-1.4.17.11.3.27.38.45.03.07.09.11.16.12.67.1.91.81,1.44.84.07,0,.14.04.18.1.08.13.19.23.33.3.06.03.14.02.19-.03.3-.25.59-.17.86.23.12.17.31.28.52.31l1.05.18c.08.02.14.07.18.13.08.16.27.23.44.16.07-.03.14-.04.22-.04.64.12.58.96,1.18.7.06-.03.13,0,.17.05.46.69,1.01.23,1.52.35.43.1.66.44,1.02.57,1.03.39,1.66.13,2.58,1,.05.05.13.07.2.06.43-.06.77.44,1.34.45.08,0,.15.03.21.08,1.01.85,2.38.84,3.36,1.16.07.02.13.08.16.15.86,1.74,3.83.61,4.9,2.19.18.3.51.49.86.5.17.13.2.06.1-.23-.04-.09,0-.13.1-.1l3.46,1.03c.07.02.15.02.22-.01.46-.23.72-.73.62-1.24-.11-2.2-.09-4.4.07-6.6.19.13.41.21.63.23l.02,6.95-.02,2.59c-.06-.28-.1-.3-.12-.06,0,.03,0,.03-.02,0l-.02-.04c-.03-.06-.06-.05-.09,0-.25.77-1.08,1.19-1.85.94-.14-.04-.26-.11-.38-.19-.59-.3-1.26-.42-1.91-.34-.08.01-.15,0-.22-.04-.7-.47-1.5-.79-2.33-.93-1.26-.13-1.85-1.11-3.11-1.08-.85-.22-1.66-.54-2.43-.95-1.96-.79-3.92-1.55-5.91-2.26-.02,0-.04-.03-.04-.06v-.04c0-.05-.04-.09-.09-.11-.92-.33-1.59-.57-2.67-1.06-.69-.3-1.4-.18-2.04-.57-.42-.34-.92-.57-1.44-.68-1.57-.07-2.73-.98-4.41-.62l-10.77-5.36c-3.19-1.65-6.39-3.31-9.57-4.99-.83-.59-1.83-.89-2.85-.84-.33-.65-2.84-1.33-3.58-1.57-.05-.02-.11-.01-.15.03l-.06.07c-.04.05-.1.08-.17.08-.64-.18-1.23-.42-1.88-.6-.95-.27-1.03-1.67-1.13-2.32v-3.95h-.02Z" style="fill: #fed7ac;"/>
      <path id="dd" data-name="Path 1155" d="m160.76,52c.29.41.46.89.49,1.4.04.51-.19.69-.68.57-.68-.23-1.34-.54-1.96-.91-5.65-2.86-12.45-6.42-20.39-10.68-1.07-.52-1.8-1.55-1.93-2.73.28-.43.84-.58,1.29-.33,1.11.46,1.98.86,2.62,1.2,6.4,3.38,12.81,6.76,19.21,10.14.54.36,1,.82,1.37,1.36h0Z" style="fill: #fefefe;"/>
      <path id="de" data-name="Path 1156" d="m152.46,40.64l.64.13c.06.04.12.09.18.14.53.35,1.11.61,1.71.79.07.03.15.04.23.03.38-.07.77.09.99.41.04.06.1.11.18.12.58.13.69.65,1.25.72.07.01.14.04.21.09.28.23.63.36.99.37.07,0,.14.03.2.09.76.69,3.15.32,4.49,1.18.52.32,1.08.57,1.66.75,1.85.61,3.73,1.11,5.64,1.5.05,0,.1-.03.11-.08v-.02c0-.3.09-.31.24-.04.05.09.09.09.12,0l.17-.45c3.19,1.74,6.44,3.38,9.73,4.93.05,1.3.07,2.7.06,4.22.04.42.25.8.59,1.05-.12.07-.22.07-.29,0-.04-.05-.11-.08-.17-.06l-.37.15c-.07.03-.15.03-.22.01-.69-.19-1.02-.72-1.61-.95-1.43-.46-2.8-1.08-4.09-1.86-.37-.27-.76-.52-1.16-.75-1.03-.57-2.44-.64-3.37-1.25-.39-.28-.84-.48-1.31-.57-.83-.22-1.67-.39-2.51-.5-.08,0-.15-.02-.22-.06-.89-.43-1.81-.79-2.76-1.09-.48-.23-1.98-.86-2.18-1.32-.03-.07-.08-.13-.14-.18-.16-.13-.12-.28.11-.47-.09-1.49-.98-2.81-2.32-3.46-2.27-1.18-4.52-2.37-6.76-3.59v.02Z" style="fill: #fdcf94;"/>
      <path id="df" data-name="Path 1157" d="m108.58,58.64c2.44.75,3.87,3.28,3.25,5.76-.03.17-.18.28-.35.26,0,0,0,0,0,0-.02,0-.04,0-.05-.01-.43-.15-.85-.32-1.25-.52-3.66-1.87-7.34-3.73-11.02-5.58-6.88-3.58-13.76-7.15-20.64-10.72-1.19-.62-2.3-1.36-3.17-.07-.2.34-.3.74-.29,1.13-.02.97-.09,1.94-.2,2.9-.31,3.46-.39,6.93-.26,10.39l-.08,7.46s-.03.08-.08.08h-.03c-1.11-.47-2.18-1.02-3.2-1.66-.11-.07-.17-.19-.17-.32l.07-2.27c0-7.04,0-14.08.02-21.13,0-3.05,3.04-4.09,5.48-2.73,8.23,4.55,18.89,10.22,31.96,17.02h0Z" style="fill: #fff;"/>
      <path id="dg" data-name="Path 1158" d="m130.15,41.1c.09.64.18,2.05,1.13,2.32.64.19,1.23.43,1.88.6.07,0,.13-.02.17-.08l.06-.07s.1-.05.15-.03c.74.25,3.24.93,3.58,1.57-.76,1.03.31,1.78,1.09,2.19,3.22,1.69,6.44,3.36,9.68,4.99,4.36,2.2,8.71,4.43,13.06,6.67.45.23.94.41,1.44.51.13.03.26-.05.29-.18.39-1.42-1.28-2.45-2.36-3,1.68-.36,2.84.55,4.41.62.53.1,1.03.34,1.44.68.63.39,1.35.26,2.04.57,1.08.48,1.75.72,2.67,1.06.05.01.09.06.09.11v.04s.01.05.04.06c1.98.72,3.95,1.47,5.91,2.26.77.41,1.58.73,2.43.95,1.25-.03,1.84.94,3.11,1.08.83.14,1.63.46,2.33.93.07.04.14.05.22.04.66-.07,1.32.04,1.91.34.67.46,1.58.3,2.04-.37.08-.12.14-.24.19-.38.03-.06.06-.06.09,0l.02.04s.02.02.02,0c.02-.23.06-.21.12.06v7.01c-.23-.56-.43.33-.93.4-.07.01-.14.05-.19.11-1.13,1.31-1.93.1-3.07-.09-1.12-.19-2.21-.55-3.22-1.06-.6-.29-1.22-.54-1.86-.75-1.08-.45-2.42-.31-3.04-1.15-.04-.06-.11-.11-.18-.13-.48-.19-.96-.37-1.44-.57-.38-.24-.78-.43-1.2-.57-.08-.01-.15-.04-.21-.09-.74-.51-1.67-.68-2.54-.45-.34.06-.69.03-1.02-.09-.07-.02-.11-.09-.1-.16.07-.42-.21-.83-.63-.9-.01,0-.03,0-.04,0-.08-.01-.14-.06-.19-.12-.26-.45-.74-.72-1.26-.7-.42.03-.85-.07-1.21-.28-.38-.21-.81-.28-1.23-.22-.1.01-.21-.02-.29-.09-.33-.31-.73-.54-1.17-.67-.08-.02-.15-.05-.21-.1l-.53-.51c-.12-.13-.32-.17-.48-.09-.51.24-.97.07-1.37-.51-.09-.13-.28-.17-.41-.08,0,0-.01.01-.02.02-.22.19-.41.14-.57-.14-.14-.28-.41-.47-.72-.5-.42-.01-.82-.16-1.14-.42-.04-.04-.11-.05-.15,0,0,0,0,0,0,0-.79.78-2.22-.06-2.9-.66-.48-.44-1.06-.75-1.68-.91-.45-.11-.67-.4-1.01-.54-.99-.4-1.76-.23-2.53-1.04-.16-.17-.4-.23-.62-.17-.07.01-.14-.01-.19-.07-.47-.69-1.26-1.1-2.09-1.08-.12,0-.25-.04-.35-.11-.92-.69-1.89-1.31-2.89-1.87-.3-.16-.61-.17-.67-.6-.02-.15-.13-.27-.28-.3-.69-.1-1.33-.4-1.86-.86-.25-.22-.58-.31-.9-.26-.08.02-.15,0-.22-.04l-2.47-1.56c-.24-.15-.42-.38-.51-.64-.52-1.28-1.15-1.28-2.3-1.56-.6-.04-1.19-.12-1.78-.23-.38-.15-.73-.35-1.06-.59-.06-.04-.13-.05-.2-.02-.38.16-.82.09-1.13-.18-.06-.04-.14-.05-.21-.02-.52.26-.22-.28-.5-.56-.06-.05-.1-.13-.11-.21l-.18-1.09v-5.51Z" style="fill: #fedab7;"/>
      <path id="dh" data-name="Path 1159" d="m149.52,51.24c-.15.53-.54.95-1.06,1.14-.06.03-.11.09-.13.16-.03.1-.08.12-.14.07-.06-.05-.13-.07-.2-.06l-.12.04c-3.24-1.64-6.47-3.3-9.68-4.99-.77-.41-1.85-1.16-1.09-2.19,1.02-.05,2.02.25,2.85.84,3.18,1.67,6.37,3.34,9.57,4.99Z" style="fill: #fefefc;"/>
      <path id="di" data-name="Path 1160" d="m130.15,46.58l.18,1.09c.01.08.05.15.11.21.28.28-.01.82.5.56.07-.04.15-.03.21.02.31.27.75.34,1.13.18.07-.03.14-.02.2.02.33.24.68.44,1.06.59.59.11,1.18.19,1.78.23,1.15.29,1.78.29,2.3,1.56.09.27.27.49.51.64l2.47,1.56c.07.04.14.05.22.04.32-.05.65.05.9.26.52.46,1.17.76,1.86.86.15.03.26.15.28.3.06.43.36.45.67.6,1,.56,1.97,1.18,2.89,1.87.1.07.22.11.35.11.83-.01,1.62.4,2.09,1.08.05.06.12.08.19.07.22-.05.46.01.62.17.78.81,1.54.64,2.53,1.04.35.14.57.43,1.01.54.63.16,1.21.48,1.68.91.68.6,2.11,1.44,2.9.65.04-.04.11-.04.16,0,.32.26.72.41,1.14.42.31.03.58.22.72.5.16.28.34.33.57.14.12-.11.31-.09.41.03,0,0,0,0,0,0,0,0,.01.01.02.02.4.58.86.75,1.37.51.16-.07.35-.03.48.09l.53.51c.06.05.13.09.21.1.44.13.84.35,1.17.67.08.07.19.1.29.09.42-.06.86.01,1.23.22.37.21.79.31,1.21.28.52-.02,1,.25,1.26.7.05.06.11.1.19.12.42.05.73.43.68.85,0,.02,0,.04,0,.06,0,.07.04.13.1.16.33.12.68.15,1.02.09.87-.23,1.8-.07,2.54.45.06.04.14.07.21.09.42.14.83.33,1.2.57.47.2.96.38,1.44.57.07.03.13.07.18.13.61.84,1.96.69,3.04,1.15.63.21,1.25.46,1.86.75,1.01.52,2.1.88,3.22,1.06,1.14.19,1.93,1.4,3.07.09.05-.06.11-.09.19-.11.5-.08.71-.96.93-.4v17.5s-.03.09-.08.1c0,0-.01,0-.02,0-.02,0-.04,0-.05-.01-19.65-10.14-39.13-20.42-58.9-30.48-.12-.06-.2-.18-.2-.32v-11.88.04Zm5.89,7.23c.43,1.01,1.25,1.8,2.27,2.21,8.83,4.63,15.75,8.19,20.75,10.69.43.21.88.37,1.35.48.56.13.76-.11.59-.71-.54-1.95-1.64-2.47-3.58-3.49-6.53-3.43-13.08-6.84-19.63-10.23-.73-.37-2.2-.13-1.74,1.05h0Zm1.56,6.74c1.59,1.01,3.61,2.12,6.06,3.34,4.67,2.34,9.32,4.74,13.94,7.2,1.22.73,2.5,1.36,3.82,1.88.46.16.69,0,.69-.5,0-1.51-2.29-2.56-3.48-3.17-6.67-3.39-13.32-6.83-19.94-10.33-.45-.25-.97-.36-1.48-.32-.07,0-.14.05-.16.12-.33.64-.09,1.43.55,1.78h0Z" style="fill: #feddc0;"/>
      <path id="dj" data-name="Path 1161" d="m99.16,58.54c-.06.14-.22.21-.36.16-.07-.02-.14-.01-.21.02l-.86.45c-.34.18-.35.35-.02.52,4.91,2.5,9.79,5.16,14.81,7.45,2.04,1.01,4.08,2.02,6.13,3.03,2.73,1.35,4.28,2.8,4.31,5.98v17.82c-.59.11-1.2,0-1.72-.29-.06-.04-.11-.1-.13-.17-.11-.52-.15-1.06-.11-1.59.08-1.47.07-2.93.06-4.41,0-1.5.01-3,.01-4.49,0-.82-.09-2.59-1.4-2.49-.04,0-.08-.03-.09-.07v-.02c.04-.2-.06-.33-.3-.39-.4-.13-.76-.36-1.04-.68-.34-.34-.12-.56-.76-.64-.24-.03-.46-.1-.67-.22-.06-.04-.11-.1-.13-.17-.04-.2-.2-.35-.39-.4-.07-.01-.14-.06-.17-.13-.13-.3.01-.49.45-.54.05,0,.09-.05.09-.1,0,0,0,0,0,0v-.02c-.05-.19-.16-.36-.31-.5-.76-.55-2.2-1.78-3.1-1.91-.08-.01-.14-.05-.19-.11-.12-.21-.38-.28-.59-.17-.01,0-.03.02-.04.02-.05.03-.12.01-.16-.04-.1-.18-.33-.24-.51-.14,0,0,0,0,0,0-.06.03-.08.01-.07-.05.02-.09,0-.18-.04-.26-.05-.05-.12-.08-.19-.07h-.69c-.06-.02-.1-.08-.1-.15h0c.02-.15-.06-.29-.19-.37-.52-.4-1.26-.33-1.69.16-.04.05-.04.11,0,.16h0c.09.08.15.18.18.3-.81-.73-1.72-1.35-2.7-1.83-5.51-2.84-13.52-7.13-24.02-12.87-.67-.37-1.99-.62-2.33.26-.65,1.68,3.85,3.71,4.97,4.32.14.22.34.39.58.49.06.03.1.09.11.16.01.07.04.13.09.19.02.02.02.06,0,.09,0,0-.02.01-.03.01-.64.12-1.21.33-1.86.51-.54.13-.9.64-.84,1.2-.49-.23-2.97-1.55-2.47.28-.09-.14-.54-1.19-.16-1.11.06.02.12,0,.15-.06.04-.14-.04-.21-.22-.2-.07,0-.12-.04-.15-.1-.04-.12-.14-.2-.26-.23-.09-.02-.09-.04-.01-.06l.49-.16c.24-.08.26-.18.05-.3-.34-.22-.74-.32-1.15-.28-.07,0-.14-.02-.19-.07-.39-.48-.94-.82-1.54-.96-.33-.08-.62-.25-.85-.5-.37-.41-.86-.68-1.4-.77-.08,0-.15.02-.2.08-.04.06-.13.08-.19.03-.02-.02-.04-.04-.05-.06-.02-.04-.06-.05-.1-.03,0,0-.01.01-.02.02l-.09.13c-.14-3.47-.05-6.94.26-10.39.11-.96.18-1.93.2-2.9-.01-.4.09-.79.29-1.13.86-1.29,1.98-.55,3.17.07,6.88,3.57,13.76,7.14,20.64,10.72v-.02Z" style="fill: #febd56;"/>
      <path id="dk" data-name="Path 1162" d="m189.45,47.16c.07.02.14.05.2.09.06.05.09.12.09.2.41,4.71.17,8.31.05,14.25,0,.19-.13.3-.4.35l-.02-6.95.08-7.95h0Z" style="fill: #360c1b;"/>
      <path id="dl" data-name="Path 1163" d="m185.44,53.13c.08,1.1.13,2.38-.67,3.2-.78.78-2.01.89-2.91.26-.33-.25-.55-.63-.59-1.05,0-1.52-.01-2.93-.06-4.22.06-1.02.09-1.96.08-2.8-.01-.77.17-1.44,1.11-1.21,2.33.57,3.25,3.83,3.06,5.85h0Z" style="fill: #e64842;"/>
      <path id="dm" data-name="Path 1164" d="m149.52,51.24l10.78,5.36c1.08.54,2.74,1.57,2.36,3-.03.13-.16.21-.29.18-.5-.11-.98-.28-1.44-.51-4.34-2.24-8.69-4.46-13.06-6.67l.12-.04c.07-.01.14,0,.2.06.07.05.11.02.14-.07.02-.07.07-.13.13-.16.51-.2.9-.62,1.06-1.14Z" style="fill: #feeacd;"/>
      <path id="dn" data-name="Path 1165" d="m138.31,56.01c-1.02-.4-1.84-1.2-2.27-2.21-.45-1.18,1.01-1.42,1.74-1.05,6.55,3.39,13.1,6.8,19.63,10.23,1.93,1.02,3.04,1.54,3.58,3.49.16.6-.03.84-.59.71-.47-.11-.92-.27-1.35-.48-5-2.5-11.92-6.07-20.75-10.69Z" style="fill: #fefefe;"/>
      <path id="do" data-name="Path 1166" d="m137.6,60.55c-.63-.35-.87-1.13-.55-1.78.02-.07.09-.12.16-.12.51-.04,1.03.07,1.48.32,6.62,3.5,13.26,6.94,19.94,10.33,1.2.6,3.48,1.66,3.48,3.17,0,.49-.23.65-.69.5-1.32-.52-2.6-1.15-3.82-1.88-4.62-2.46-9.26-4.86-13.94-7.2-2.44-1.22-4.46-2.33-6.06-3.34h0Z" style="fill: #ffe9d1;"/>
      <path id="dp" data-name="Path 1167" d="m108.99,74.02c.46.52.79,1.15.96,1.82.12.44-.05.68-.5.72-.47.02-.94-.1-1.35-.33-7.76-4.05-15.5-8.16-23.2-12.32-1.12-.61-5.63-2.64-4.97-4.32.35-.87,1.66-.62,2.33-.26,10.5,5.74,18.51,10.03,24.02,12.87.98.48,1.89,1.09,2.7,1.83h0Z" style="fill: #fff;"/>
      <path id="dq" data-name="Path 1168" d="m82.97,66.55l25.92,13.78c.61.39,1.05.99,1.23,1.68.16.59-.06.81-.64.66-.59-.15-1.15-.37-1.68-.66-2.08-1.14-4.17-2.26-6.27-3.36-5.33-2.84-10.66-5.67-16-8.48-1.7-.89-4.36-2.08-5.02-3.36-.49-1.83,1.98-.5,2.47-.28h0Z" style="fill: #fdcb83;"/>
      <path id="dr" data-name="Path 1169" d="m135.82,69.29c.81.35,1.58.71,2.32,1.09,18.36,9.56,36.74,19.11,55.13,28.64-.05.04,0,.21.12.51.12.21.16.46.12.69-.42-.03-.83-.14-1.21-.31-3.85-1.85-8.11-4.12-11.96-6.12-14.81-7.69-29.62-15.4-44.41-23.12-.13-.06-.17,0-.13.17-.09-.51-.08-1.04.04-1.54h0Z" style="fill: #ec8017;"/>
      <path id="ds" data-name="Path 1170" d="m193.5,100.23v.53h-.11c-.04-.4-1.24.55-1.34.61-14.18,7.81-28.37,15.61-42.55,23.41-2.53,1.39-4.65,2.44-7.23,1.71-2.23-.62-4.33-2.01-6.41-3.12-.1-2.77-.03-5.29-.08-8.31-.02-1.33,0-2.68.09-4.03l9.88,5.08c.16.08.34.08.5,0l5.84-3.09c.14-.08.15-.16,0-.23-5.41-2.82-10.9-5.53-16.24-8.5l-.07-1.23c4.64,2.4,9.3,4.77,13.9,7.24,1.16.62,2.35,1.19,3.57,1.7.24.11.52.09.75-.04l5.63-2.98c.19-.1.19-.2.01-.3-.37-.22-.76-.43-1.14-.62-7.64-3.96-15.25-8-22.82-12.11l.13-1.01c10.84,5.58,17.44,9.01,19.79,10.29,1.64.9,3.32,1.73,5.02,2.5.48.21,1.02.16,1.46-.12,1.73-.97,3.49-1.93,5.3-2.88.15-.08.15-.16,0-.23l-31.52-16.46c-.16-.37-.18-.79-.06-1.18l16.34,8.41c.2.1.44.1.64,0l6.14-3.26c.08-.04.08-.08,0-.12-7.84-3.97-15.57-8.02-23.2-12.17l.09-8.87c-.04-.18,0-.23.13-.17,14.8,7.72,29.6,15.43,44.41,23.12,3.85,2,8.11,4.27,11.96,6.12.38.17.8.28,1.21.31l-.03-.02Z" style="fill: #071c2f;"/>
      <path id="dt" data-name="Path 1171" d="m95.98,78.89c4.31,2.3,8.62,4.58,12.94,6.87.98.45,1.5,1.54,1.21,2.59l-2.24-1.03c-8.52-4.54-17.06-9.06-25.61-13.55-.65-.34-1.91-1.08-1.64-2.01.04-.27.29-.46.56-.42.04,0,.08.02.11.03.64.16,1.25.4,1.83.7,4.29,2.27,8.57,4.55,12.84,6.82h0Z" style="fill: #fdc893;"/>
      <path id="du" data-name="Path 1172" d="m78.32,87.09c.41,1.57-1.37.62-1.85.37-6.21-3.19-12.36-6.48-18.46-9.88-.39-.22-.74-.49-1.06-.81-.38-.29-.44-.84-.15-1.21.01-.01.02-.03.04-.04.22-.39.64-.61,1.08-.55.54.06,1.06.22,1.53.48,9.16,4.96,14.6,7.87,16.32,8.74,1.2.58,2.12,1.62,2.54,2.88h0Z" style="fill: #fdcb89;"/>
      <path id="dv" data-name="Path 1173" d="m135.7,79.7c7.63,4.14,15.36,8.19,23.19,12.16.08.04.08.08,0,.12l-6.14,3.26c-.2.11-.44.11-.64,0l-16.34-8.41v-2.7c1.27-.31,2.48-.84,3.56-1.57.04-.03.05-.09.02-.13,0,0-.01-.02-.03-.03-1.34-.86-2.23-.23-3.55.72l-.11-3.44h.02Zm5.65,7.2c.23.09.49.09.72-.01.87-.4,1.7-.88,2.47-1.44.1-.07.12-.2.06-.3l-.04-.04c-.98-.81-2.51.29-3.46.96-.64.46-.27.66.26.85h0Zm3.38,1.76c.39.23.86.27,1.28.1.83-.44,1.62-.97,2.33-1.58.03-.03.04-.08.02-.11,0,0,0,0,0,0,0,0-.01-.01-.02-.02-.4-.35-.97-.44-1.46-.22-.8.34-1.54.8-2.2,1.36-.12.1-.14.28-.04.4.02.03.05.05.09.07h0Zm3.77,2.27c1.07.28,2.32-.77,3.3-1.2.07-.04.09-.22.06-.45-.23-1.42-3.07.63-3.58.99-.07.04-.11.11-.12.19-.04.25.09.4.35.47h0Z" style="fill: #fefeff;"/>
      <path id="dw" data-name="Path 1175" d="m78.18,94.08c-.65.18-1.34.1-1.92-.23-4.95-2.59-9.9-5.2-14.85-7.82-1.44-.77-4.04-1.85-4.72-3.38-.03-.07-.04-.15-.03-.23.34-1.64,2.33-.7,3.24-.22,4.85,2.56,9.68,5.14,14.51,7.73.85.43,1.67.9,2.47,1.41.79.69,1.26,1.69,1.29,2.74h0Z" style="fill: #fdc893;"/>
      <path id="dx" data-name="Path 1176" d="m135.8,84.14v-1c1.33-.94,2.22-1.57,3.55-.72.04.03.05.08.03.13,0,0-.01.02-.03.03-1.09.72-2.29,1.25-3.56,1.57h0Z" style="fill: #dce2e9;"/>
      <path id="dy" data-name="Path 1177" d="m141.35,86.91c-.52-.2-.89-.4-.26-.85.95-.67,2.48-1.78,3.46-.96.09.08.11.22.03.31l-.04.04c-.77.57-1.6,1.05-2.47,1.44-.23.1-.49.11-.72.01h0Z" style="fill: #dce2e9;"/>
      <path id="dz" data-name="Path 1178" d="m144.73,88.67c-.14-.07-.19-.24-.12-.38,0,0,0,0,0-.01.02-.03.04-.06.07-.09.66-.56,1.4-1.02,2.2-1.36.49-.22,1.06-.13,1.46.22.04.02.05.07.03.11,0,0,0,0,0,0,0,0-.01.01-.02.02-.72.61-1.5,1.14-2.33,1.58-.42.17-.89.13-1.28-.1h0Z" style="fill: #e0e6ee;"/>
      <path id="ea" data-name="Path 1179" d="m69.29,95.04c-.45.64-1.28.3-1.84.01-2.48-1.25-4.95-2.51-7.42-3.8-1.48-.77-2.99-1.52-3.39-3.17-.11-1.38,2.05-.31,2.67.03,2.32,1.25,4.64,2.5,6.97,3.73,1.27.67,3.09,1.48,3.02,3.2h0Z" style="fill: #fac595;"/>
      <path id="eb" data-name="Path 1180" d="m135.85,88.03l31.52,16.46c.15.08.15.16,0,.23-1.8.95-3.57,1.91-5.3,2.88-.44.28-.98.32-1.46.12-1.71-.77-3.38-1.6-5.02-2.5-2.35-1.29-8.95-4.72-19.79-10.29l-.03-3.28c.9-.35,1.75-.83,2.51-1.42.04-.02.05-.08.03-.11,0,0,0,0,0,0,0,0-.01-.01-.02-.02-.57-.45-1.32-.58-2.01-.36-.07.02-.11.09-.11.16,0,.22-.08.31-.21.27-.07-.03-.11-.1-.11-.17l-.1-1c-.06-.19-.22-.94.11-.95h0Zm4.31,6.36c.95.62,2.51-.61,3.41-1.23.33-.23.23-.43-.3-.61-.24-.08-.5-.08-.74,0-.84.3-1.64.71-2.37,1.21-.31.21-.31.42,0,.62h0Zm4.36,2.3c.75.35,1,.05,1.61-.26.72-.37,1.44-.76,2.14-1.17.04-.03.06-.08.04-.12,0,0,0-.01-.01-.02-1.29-1.21-2.69.11-3.83.83-.43.28-.42.52.05.74h0Zm3.83,2c.37.39.96.48,1.43.22.8-.44,1.58-.92,2.32-1.44.04-.03.05-.09.02-.13,0,0,0,0,0,0,0,0-.01-.01-.02-.02-1.23-.96-2.79.23-3.76,1.06-.09.08-.1.21-.02.3,0,0,0,0,0,0,0,0,.01.01.02.02h0Zm10.39,5.53c.37.39.69.52.96.39.86-.43,1.71-.86,2.57-1.33.12-.06.17-.21.1-.33,0,0,0,0,0,0,0-.01-.02-.03-.03-.04-.3-.46-.89-.62-1.37-.36-.78.38-1.51.84-2.2,1.36-.09.07-.11.2-.04.3,0,0,.01.01.01.02h0Z" style="fill: #fefeff;"/>
      <path id="ec" data-name="Path 1181" d="m148.5,90.93c-.22-.02-.38-.22-.36-.44,0-.01,0-.02,0-.03.02-.07.06-.14.12-.19.51-.36,3.35-2.41,3.58-.99.04.22.01.41-.06.45-.99.45-2.22,1.49-3.3,1.2h0Z" style="fill: #dce2e9;"/>
      <path id="ed" data-name="Path 1182" d="m135.75,88.98l.1,1c0,.07.05.14.11.17.13.04.2-.05.21-.27,0-.07.05-.13.11-.16.69-.21,1.44-.08,2.01.36.04.02.05.08.03.11,0,0,0,0,0,0,0,0-.01.01-.02.02-.77.58-1.62,1.06-2.51,1.42l-.03-2.66Z" style="fill: #dadce0;"/>
      <path id="ee" data-name="Path 1183" d="m107.87,99.64l-2.27-.49c-.05,0-.1.02-.11.07v.02c.05,1.35.04,2.7,0,4.05-.06,1.58-.89,2.17-2.5,1.76-.49-.1-.96-.28-1.39-.53-.86-.83-1.22-2.06-.93-3.23v-10.3c-.49-2.12,2.09-1.5,2.96-.81,2.94,2.22,4.55,5.78,4.26,9.46h0Z" style="fill: #e64842;"/>
      <path id="ef" data-name="Path 1184" d="m140.16,94.39c-.32-.21-.32-.41,0-.62.74-.51,1.53-.91,2.37-1.21.24-.08.5-.08.74,0,.53.19.64.39.3.61-.89.62-2.46,1.85-3.41,1.23h0Z" style="fill: #dce2e9;"/>
      <path id="eg" data-name="Path 1185" d="m144.52,96.69c-.47-.22-.48-.46-.05-.74,1.14-.72,2.54-2.04,3.83-.83.03.04.03.09,0,.13,0,0-.01.01-.02.01-.7.41-1.42.8-2.14,1.17-.62.31-.87.61-1.61.26h0Z" style="fill: #dce2e9;"/>
      <path id="eh" data-name="Path 1186" d="m135.67,95.93c7.57,4.11,15.17,8.15,22.82,12.11.38.2.77.4,1.14.62.18.11.18.21-.01.3l-5.63,2.98c-.23.13-.51.15-.75.04-1.22-.51-2.41-1.08-3.57-1.7-4.6-2.47-9.25-4.84-13.9-7.24v-6.19l-.11-.93h.02Zm4.63,3.25c-1.23-.52-2.66-.18-3.53.84-.23.32-.15.56.23.73.34.17.74.15,1.06-.05l2.24-1.37s.05-.08.03-.12c0-.01-.02-.02-.03-.03h0Zm.75,3.49c.64.65,1.03.57,1.8.11.55-.34,1.13-.67,1.72-1.01.24-.13.23-.26-.01-.37-1.19-.55-2.57.38-3.49,1.11-.05.04-.06.1-.02.15,0,0,0,0,0,0h0s0,0,0,0Zm5.65,2.88c.2.15.46.19.69.11.89-.3,1.71-.78,2.39-1.42.05-.04.05-.11.01-.16h0c-.91-.89-2.39.21-3.24.72-.33.2-.28.45.15.76h0Zm4.31,2.81c.4.39,1,.48,1.5.22.74-.41,1.45-.86,2.14-1.35.05-.03.06-.1.03-.14,0,0,0,0,0,0,0-.02-.02-.03-.04-.04-.49-.28-.83-.51-1.42-.3-.83.29-1.59.75-2.22,1.35-.07.07-.07.18,0,.25l.02.02h0Z" style="fill: #fefeff;"/>
      <path id="ei" data-name="Path 1187" d="m135.78,96.87v6.19l.07,1.23v6.74c-.06,1.35-.09,2.7-.07,4.03.04,3.03-.02,5.55.08,8.31-.06.09-.07.2-.02.3-.13.07-.19.01-.17-.17.01-.09-.05-.17-.14-.19h-.01c-.45-.08-.88-.29-1.2-.62-.11-.09-.27-.08-.37.02-.08.09-.13.04-.13-.13,0-.05-.06-.09-.12-.11-.22-.04-.13-2.82-.14-4.24v-12.24l.02-3.59s.03.09.06.13c.07.03.15.03.22,0,.17-.06.36-.03.5.08.05.05.08.12.06.19-.01.14.07.2.26.19.05,0,.11-.06.14-.13.04-.1.16-.13.33-.1.05.01.11-.02.12-.08,0,0,0,0,0,0h0c.02-.33.07-.64.16-.94.34-1.6.46-3.24.37-4.87v.02Z" style="fill: #ee8c67;"/>
      <path id="ej" data-name="Path 1188" d="m148.34,98.68c-.09-.08-.1-.21-.02-.3,0,0,0,0,0,0,0,0,.01-.01.02-.02.97-.83,2.54-2.02,3.76-1.06.04.03.05.09.02.13,0,0,0,0,0,0,0,0-.01.01-.02.02-.75.52-1.52,1.01-2.32,1.44-.47.26-1.06.17-1.43-.22h0Z" style="fill: #dce2e9;"/>
      <path id="ek" data-name="Path 1189" d="m140.3,99.18s.06.08.04.12c0,.01-.01.02-.03.03l-2.24,1.37c-.32.2-.72.22-1.06.05-.37-.17-.45-.41-.23-.73.87-1.01,2.29-1.35,3.53-.84Z" style="fill: #dadce0;"/>
      <path id="em" data-name="Path 1190" d="m110.87,125.79l.06-3.54v-3.54l-.04-4.65v-2.18l-.02-.47c.01-2.97.02-5.94.01-8.91.04-.57-.04-1.15-.22-1.69-.52-1.07-1.81-.81-2.8-1.17l-2.27-.49h-.02c-.05,0-.09.04-.09.09.05,1.35.04,2.7,0,4.05-.06,1.58-.89,2.17-2.5,1.76-.49-.1-.96-.28-1.39-.53-.86-.83-1.22-2.06-.93-3.23v-10.3c-2.64-1.54-5.33-2.99-8.07-4.34-1.2-.6-2.16-.45-2.86.42-1.52,1.9-2.09,1.46-4.21.42-2.45-1.21-5.77-2.32-6.49-5.3-.38-1.87-1.65-3.43-3.39-4.19-4.99-2.75-9.53-5.14-13.64-7.17-.42-.2-.89-.27-1.35-.19-.07.01-.14.05-.19.11-.63.93-1.67,1.49-2.79,1.5-1.11.03-2.22.04-3.34.04-.32-.04-.61.19-.65.51,0,.02,0,.04,0,.07-.16,1.39-.17,2.8-.04,4.19,0,.84-.02,2.49-.07,4.94,0,.51-.24.99-.65,1.28-.65.17-3.41.54-3.75.84v14.78l.04,3c-.03-.18.01-.28.11-.29.08,0,.15.04.19.11,1.53,2.32,3.5,3.24,6.16,4.6,4.99,2.55,9.98,5.12,14.96,7.69.73.37,1.42.97,2.21,1.37.69.35,1.14.59,1.35.72.63.48,1.3.89,2.02,1.23.08,0,.15.02.21.06.72.5,1.52.86,2.37,1.06.31,0,.59.18.72.46.16.34.48.59.85.65.06.01.11.07.11.13,0,.11.07.14.19.09,1.54.13,2.89.98,4.89,2.03.21.11.54.11.74.4.04.06.1.11.18.12.3.09.59.2.87.35,1.66.83,3.32,1.69,4.95,2.57,3.9,2.07,7.79,4.13,11.68,6.18,1.81.96,3.5,2.06,5.59.92.8-.39,1.32-1.19,1.35-2.08.08-1.51.08-3.02-.01-4.53v.03Zm-.22-10.61s-.01.03-.02.04h0s.02-.02.03-.04Zm-6.79-9.62s.01.02.02.03c0,0-.01-.02-.02-.03Zm-.84,9.15h0Zm.08-.03s-.01,0-.01,0c.01,0,.02-.02.03-.04,0,0,0,.01-.01.03Zm-7.46-12.19s.01,0,.01,0c-.01,0-.02.02-.02.04,0,0,0-.02,0-.03Zm-34.94-15.98v.02s-.01.01-.01.02c0-.01.01-.03.01-.04Zm-3.17-.97s-.02,0-.03,0c0,0,0-.01,0-.01.01,0,.02.02.04.02Zm.3-6.86s.01-.03.01-.04h0s0,.03-.01.04h0Zm16.66,18.26s0,.03.02.04h0s-.01-.02-.02-.03h0Zm-20.04-18.81s-.01.01-.02.01h-.01s.03,0,.04-.01Zm-5.09,7.63s0,.03,0,.05v-.02s0-.02,0-.03h0Zm61.09,39.43h.05s.02,0,.02,0c-.02,0-.04-.01-.06-.01h0Z" style="fill: url(#el);"/>
      <path id="en" data-name="Path 1191" d="m193.39,100.74c-.33.26-.68.48-1.05.67-14.37,7.96-28.77,15.89-43.19,23.78-.84.46-1.71.87-2.59,1.23-3.68,1.49-6.82-.72-9.89-2.4-.24-.13-.49-.21-.76-.25l-.07-.11c-.05-.09-.04-.21.02-.3,2.08,1.11,4.18,2.5,6.41,3.12,2.59.72,4.7-.33,7.23-1.71,14.18-7.8,28.37-15.6,42.55-23.41.1-.06,1.3-1.01,1.34-.62h0Z" style="fill: #ebceef;"/>
      <path id="eo" data-name="Path 1192" d="m193.39,100.74h.11c.12.43.12,1.58-.3,1.82-.84.47-1.68.95-2.51,1.44-13.94,7.74-27.9,15.43-41.88,23.06-1.1.62-2.28,1.09-3.51,1.4-1.35.2-2.74.05-4.02-.43-1.87-.83-3.69-1.76-5.46-2.8l.09-1.45c.27.04.52.12.76.25,3.07,1.68,6.21,3.89,9.89,2.4.89-.36,1.75-.77,2.59-1.23,14.42-7.89,28.82-15.81,43.19-23.78.37-.19.72-.42,1.05-.67h0Z" style="fill: #393b40;"/>
      <path id="ep" data-name="Path 1193" d="m141.04,102.68s-.04-.11,0-.16h0c.92-.73,2.31-1.66,3.49-1.11.25.11.26.24.01.37-.6.33-1.17.67-1.72,1.01-.77.47-1.15.55-1.8-.11h0Z" style="fill: #dce2e9;"/>
      <path id="eq" data-name="Path 1194" d="m92.28,125.29c-.64.25-1.32.42-2,.5l-40.86-21.39c-.41-.21-.21-1.67-.2-2.12v-.35c-.03-.18.01-.28.11-.29.08,0,.15.04.19.11,1.53,2.32,3.5,3.24,6.16,4.6,4.99,2.55,9.98,5.12,14.96,7.7.73.37,1.42.97,2.21,1.37.69.35,1.14.59,1.35.72.63.48,1.3.89,2.02,1.23.08,0,.15.02.21.06.72.5,1.52.86,2.37,1.06.31,0,.59.18.72.46.16.34.48.59.85.65.06.01.11.07.11.13,0,.11.07.14.19.09,1.54.13,2.89.98,4.89,2.03.21.11.54.11.74.4.04.06.1.11.18.12.3.09.59.2.87.35,1.66.83,3.32,1.69,4.95,2.57h-.01Z" style="fill: #d36378;"/>
      <path id="er" data-name="Path 1195" d="m49.21,102.29c0,.45-.22,1.91.2,2.12,0,.15-.07.28-.19.37-.07.04-.12.09-.17.16-.31.49-.6,1-.84,1.52-1.91,3.9-3.75,7.74-5.53,11.54-.09.2-.33.28-.52.19,0,0,0,0,0,0h0c-2.71-1.37-5.29-2.72-7.75-4.07-.48-.29-.88-.69-1.18-1.16-.53-2.1,1.39-2.95,3.11-3.91,3.93-2.18,7.85-4.37,11.77-6.57.01,0,.16-.12.44-.33.18-.16.45-.15.62.03.03.03.06.07.08.12h-.02Z" style="fill: #fefefe;"/>
      <path id="es" data-name="Path 1196" d="m158.73,104.21c-.08-.09-.08-.22,0-.3,0,0,.01-.01.02-.01.69-.52,1.43-.98,2.2-1.36.48-.25,1.08-.1,1.37.36.09.1.08.26-.02.35,0,0,0,0,0,0-.01.01-.03.02-.04.03-.86.46-1.71.91-2.57,1.33-.26.13-.58,0-.96-.39Z" style="fill: #e0e6ee;"/>
      <path id="et" data-name="Path 1197" d="m146.69,105.56c-.43-.3-.48-.56-.15-.76.85-.51,2.33-1.61,3.24-.72.04.04.04.11,0,.16h0c-.69.64-1.5,1.13-2.39,1.42-.23.08-.49.04-.69-.11h0Z" style="fill: #dce2e9;"/>
      <path id="eu" data-name="Path 1198" d="m190.68,104c.32.18.49.35.52.53,1.19,9.42-8.37,15.76-15.33,19.4-13.67,7.17-27.18,14.64-40.86,21.79-.13.07-1.52.81-4.16,2.21-5.42,2.88-12.79,7.13-19.24,6.2-2.52-.37-5.04-1.88-7.21-3.33-.3-.21-.36-.43-.16-.66,17-9.26,27.48-15.06,31.46-17.41,2.22-1.3,4.48-2.53,6.79-3.68.42-.23.91-.31,1.38-.23.51.16,1.06,0,1.42-.38,1.23-.31,2.41-.78,3.51-1.4,13.99-7.64,27.95-15.32,41.88-23.06h.01Z" style="fill: #63a998;"/>
      <path id="ev" data-name="Path 1199" d="m135.86,104.29c5.34,2.97,10.83,5.68,16.24,8.5.14.07.14.15,0,.23l-5.84,3.09c-.15.09-.34.09-.5,0l-9.88-5.08v-6.74s-.02,0-.02,0Z" style="fill: #fefeff;"/>
      <path id="ew" data-name="Path 1200" d="m49.41,104.41l40.86,21.39,22.62,11.82c-.12.07-.2.2-.2.35,0,.07-.04.13-.11.15-7.09,1.94-14.17,3.61-21.32,5.67-.15.04-.16.1-.02.18,1.35.73,2.72,1.45,4.11,2.15,3.49,1.75,5.31,2.99,8.48,2.17,1.33-.46,2.6-1.05,3.8-1.79,9.72-5.42,19.44-10.83,29.17-16.24,1-.63,2.04-1.2,3.12-1.71.07-.03.15-.04.23-.02.44.08.88-.11,1.12-.48,1.28.48,2.66.63,4.02.43-.36.39-.92.53-1.42.38-.47-.09-.96,0-1.38.23-2.31,1.15-4.57,2.37-6.79,3.68-3.97,2.35-14.46,8.15-31.46,17.41-2.18.42-4.43.11-6.41-.89-4.71-2.49-9.43-4.98-14.14-7.47-11.41-6.04-22.83-12.06-34.27-18.04-4.95-2.59-7.9-4.11-8.84-4.58-1.98-1.08-3.97-2.13-5.97-3.17-1.19-.51-1.79-1.84-1.39-3.07.3.47.7.87,1.18,1.16,2.46,1.35,5.04,2.7,7.75,4.07.19.1.43.02.53-.17,0,0,0,0,0,0h0c1.77-3.8,3.61-7.65,5.53-11.55.25-.52.53-1.03.84-1.52.05-.06.1-.12.17-.16.12-.08.19-.22.19-.37h0Z" style="fill: #eff2f6;"/>
      <path id="ex" data-name="Path 1201" d="m151.01,108.37c-.08-.06-.09-.17-.03-.24,0,0,0,0,0,0,0,0,.01-.01.02-.02.64-.6,1.4-1.06,2.22-1.35.58-.21.93.03,1.42.3.05.03.07.1.04.15,0,.02-.02.03-.04.04-.69.49-1.4.94-2.14,1.35-.49.26-1.1.17-1.5-.22h0Z" style="fill: #dce2e9;"/>
      <path id="ez" data-name="Path 1202" d="m115.75,132.52c-.06-2.27-.06-4.53-.03-6.79l-.02-15.02c.08-4.38.1-8.76.08-13.13-.05-1.2-.2-2.4-.44-3.58-.28-.99-.96-1.81-1.86-2.3-.41-.28-.84-.52-1.3-.72-1.8-.82-3.57-1.7-5.31-2.64-1.18-.57-4.52-2.27-10.03-5.12-9.93-5.12-19.83-10.27-29.73-15.44-7.79-4.07-12.53-6.56-14.21-7.47-.48-.25-1.02-.36-1.56-.33-.06,0-.11-.05-.12-.11,0-.06-.03-.12-.07-.17-1.29.45-2.12,1.71-2,3.07.01,2.5.01,9.55,0,21.14l.02.23c.33-.3,3.1-.67,3.75-.84.42-.28.67-.77.65-1.28.05-2.46.07-4.11.07-4.94-.13-1.4-.11-2.8.04-4.19,0-.32.25-.58.57-.58.03,0,.05,0,.08,0,1.11,0,2.22,0,3.34-.04,1.12-.01,2.16-.57,2.79-1.5.05-.06.11-.1.19-.11.46-.08.93-.02,1.35.19,4.1,2.03,8.65,4.42,13.64,7.17,1.75.76,3.01,2.32,3.39,4.19.72,2.98,4.05,4.1,6.49,5.3,2.11,1.04,2.69,1.48,4.21-.42.69-.87,1.64-1.01,2.86-.42,2.74,1.35,5.43,2.78,8.08,4.34-.5-2.12,2.08-1.5,2.95-.81,2.94,2.22,4.55,5.78,4.26,9.46.99.36,2.27.11,2.8,1.17.18.54.26,1.12.22,1.69,0,2.97,0,5.94-.01,8.91l.02.47v2.18l.04,4.65v3.54l-.06,3.54c.09,1.51.1,3.02.01,4.53-.03.89-.55,1.69-1.35,2.08-2.09,1.13-3.78.04-5.59-.92-3.89-2.06-7.78-4.12-11.68-6.18-.64.25-1.32.42-2,.5l22.62,11.82c.78.25,1.63.19,2.37-.17l-.25-.31c-.04-.06-.03-.14.01-.2.84-1.13.77-3.07.73-4.42h0Zm-4.72-24.02s-.03,0-.04.01c.01,0,.02-.01.04-.01h0Zm-.08.09s.01-.02.02-.04c-.01.01-.02.03-.02.05h0Z" style="fill: url(#ey);"/>
      <path id="fb" data-name="Path 1203" d="m135.85,123.66c-.13.07-.19.01-.17-.17h0c0-.11-.07-.18-.16-.19-.45-.08-.88-.29-1.2-.62-.11-.09-.27-.08-.37.02-.08.09-.13.04-.13-.13,0-.05-.06-.09-.12-.11-.22-.04-.13-2.82-.14-4.24v-12.25l.02-3.59-.02-4.18v-18.08c.01-3.61-.05-7.23.07-10.83.06-.94.04-1.89-.06-2.83-.34-1.71-1.66-4.42-3.46-4.99-.17-.05-1.36-.45-1.44-.16-.02.06-.07.11-.12.11-1.52-.15-2.66-1.16-3.93-.55-1.05-2.57-3.3-3.54-5.42-4.66-11.34-5.99-22.62-12.09-33.84-18.29-.4-.22-.77-.5-1.11-.81h-.01c-.03-.06-.02-.12.03-.16l1.08-.77c.06-.05.09-.11.09-.19,0-.15.07-.29.19-.39-2-1.16-4.05-2.22-6.15-3.21-.9-.58-2.06-.6-2.98-.04-1.71.9-1.57,1.97-1.93,3.58-.05.29-.27.51-.55.58-1.36.39-2.51.13-3.88.21-1.32.27-2.23,1.48-2.11,2.83,0,7.38-.02,14.76-.05,22.15v4.61s-.05.04-.08.03c-3.79-1.91-7.53-3.85-11.23-5.84-1.79-.96-3.63-1.94-5.48-.81.04.05.06.11.07.17,0,.06.06.11.12.11.54-.03,1.08.08,1.56.33,1.68.9,6.41,3.39,14.21,7.47,9.9,5.17,19.81,10.32,29.73,15.44,5.5,2.84,8.85,4.55,10.03,5.12,1.74.94,3.52,1.82,5.31,2.64.45.2.89.44,1.3.72.91.48,1.58,1.31,1.86,2.3.23,1.18.38,2.38.44,3.58.03,4.38,0,8.76-.08,13.13l.02,15.02c-.04,2.27-.03,4.53.03,6.79.04,1.35.1,3.29-.73,4.42-.05.06-.06.14-.01.2l.25.31c2.66-.75,2.64-3.22,2.49-5.46h0c0-.07.05-.11.11-.11,3.04-.04,6.08-.07,9.12-.07,4.12,0,7.96-2.32,8.86-6.57l.09-1.45-.07-.11h0Zm-10.09-47.8v-.04h.01s-.01.02-.01.04Zm.04-.07s.02-.01.03-.01c-.01,0-.02,0-.03.01Zm-4.09,28.68h-.04s.02,0,.03,0h.01Zm-.06-.01s0-.01-.01-.02c0,0,0,.01.01.02h0Zm-41.3-38.73c.06.02.12,0,.15-.06.04-.14-.04-.21-.22-.2-.07,0-.12-.04-.15-.1-.04-.12-.14-.2-.26-.23-.09-.02-.09-.04-.01-.06l.49-.16c.24-.08.26-.18.05-.3-.34-.22-.74-.32-1.15-.28-.07,0-.14-.02-.19-.07-.39-.48-.94-.82-1.54-.96-.33-.08-.62-.25-.85-.5-.37-.41-.86-.68-1.4-.77-.07,0-.15.02-.2.07-.04.06-.13.08-.19.03-.02-.02-.04-.04-.05-.06,0,0-.01-.01-.02-.02-.03-.02-.07-.02-.1,0,0,0,0,0,0,0l-.09.13-.09,7.46v.03s-.06.06-.1.05c0,0,0,0-.01,0-1.11-.47-2.18-1.02-3.2-1.66-.11-.07-.17-.19-.17-.32l.07-2.27c0-7.04,0-14.08.02-21.13,0-3.05,3.04-4.09,5.48-2.73,8.23,4.55,18.89,10.22,31.96,17.02,2.44.75,3.87,3.28,3.25,5.76,0,.02,0,.04-.01.05-.06.16-.24.24-.4.19-.43-.15-.85-.32-1.25-.52-3.66-1.87-7.34-3.73-11.02-5.58-.06.14-.22.21-.36.16-.07-.02-.14-.01-.21.02l-.86.45c-.34.18-.35.35-.02.52,4.91,2.5,9.79,5.16,14.81,7.45,2.04,1.01,4.08,2.02,6.13,3.03,2.73,1.35,4.28,2.8,4.31,5.98v17.82c-.59.11-1.2,0-1.72-.29-.06-.04-.11-.1-.13-.17-.11-.52-.15-1.06-.11-1.59.08-1.47.07-2.93.06-4.41,0-1.5.01-3,.01-4.49,0-.82-.09-2.59-1.4-2.49h-.02s-.07-.04-.06-.08c0,0,0,0,0-.01.04-.2-.06-.33-.3-.39-.4-.13-.76-.36-1.04-.68-.34-.34-.12-.56-.76-.64-.24-.03-.46-.1-.67-.22-.06-.04-.11-.1-.13-.17-.04-.2-.2-.35-.39-.4-.07-.01-.14-.06-.17-.13-.13-.3.01-.49.45-.54h.02s.07-.08.06-.13c-.05-.19-.16-.36-.31-.5-.76-.55-2.2-1.78-3.1-1.91-.08-.01-.14-.05-.19-.11-.12-.21-.38-.28-.59-.17-.01,0-.03.02-.04.02-.05.03-.12.01-.16-.04-.1-.18-.33-.24-.51-.14,0,0,0,0,0,0-.06.03-.08.01-.07-.05.02-.09,0-.18-.04-.26-.05-.05-.12-.08-.19-.07h-.69c-.06,0-.1-.07-.1-.15.02-.15-.06-.29-.19-.37-.52-.4-1.26-.33-1.69.16h0s-.04.12.01.16c0,0,0,0,0,0,.09.08.15.18.18.3.46.52.79,1.15.96,1.82.12.44-.05.68-.5.72-.47.02-.94-.1-1.35-.33-7.76-4.05-15.5-8.16-23.2-12.32.14.22.34.39.58.49.06.03.1.09.11.16.01.07.04.13.09.19,0,0,.01.02.01.03,0,.03-.01.06-.04.07-.64.12-1.21.33-1.86.51-.54.13-.9.64-.84,1.2l25.92,13.78c.61.39,1.05.99,1.23,1.68.16.59-.06.81-.64.65-.59-.15-1.15-.37-1.68-.65-2.08-1.14-4.17-2.26-6.27-3.36-5.33-2.83-10.67-5.65-16.01-8.46-1.7-.89-4.36-2.08-5.02-3.36-.09-.14-.54-1.19-.16-1.11l.02-.02Zm27.54,21.6c-8.52-4.54-17.06-9.06-25.61-13.55-.65-.34-1.91-1.08-1.64-2.01.04-.27.29-.46.56-.42.04,0,.08.02.11.03.64.16,1.25.4,1.83.7,4.29,2.27,8.57,4.55,12.84,6.82,4.31,2.3,8.62,4.58,12.94,6.87.98.45,1.5,1.54,1.21,2.59l-2.24-1.03h0Z" style="fill: url(#fa);"/>
      <path id="fc" data-name="Path 1204" d="m135.82,125.23c1.76,1.04,3.58,1.98,5.46,2.8-.24.37-.68.57-1.12.48-.08-.01-.15,0-.23.02-1.07.5-2.11,1.07-3.12,1.71-9.73,5.41-19.45,10.82-29.17,16.24-1.2.73-2.47,1.33-3.8,1.79-3.17.83-4.99-.42-8.48-2.17-1.4-.7-2.76-1.42-4.11-2.15-.14-.08-.13-.13.02-.18,7.15-2.06,14.22-3.72,21.32-5.67.06-.02.1-.08.11-.15,0-.14.08-.27.2-.35.78.25,1.63.19,2.37-.17,2.66-.75,2.64-3.22,2.49-5.46,0-.06.04-.11.1-.11,0,0,0,0,0,0h0c3.04-.04,6.08-.07,9.12-.07,4.12,0,7.96-2.32,8.86-6.57h0Z" style="fill: #fefefe;"/>
      <path id="fd" data-name="Path 1205" d="m56.7,82.65c-.03-.07-.04-.15-.03-.23.34-1.64,2.33-.7,3.24-.22,4.85,2.56,9.68,5.14,14.51,7.73.85.43,1.67.9,2.47,1.41.79.69,1.26,1.69,1.29,2.74-.65.18-1.34.1-1.92-.23-4.95-2.59-9.9-5.2-14.85-7.82-1.44-.77-4.04-1.85-4.72-3.38h0Z" style="fill: #feeee0;"/>
      <path id="fe" data-name="Path 1206" d="m56.84,75.53c.22-.39.64-.61,1.08-.55.54.06,1.06.22,1.53.49,9.16,4.96,14.6,7.87,16.32,8.74,1.2.58,2.12,1.62,2.54,2.88.41,1.57-1.37.62-1.85.37-6.21-3.19-12.36-6.48-18.46-9.88-.39-.22-.74-.49-1.06-.81-.38-.29-.44-.84-.15-1.21.01-.01.02-.03.04-.04h0Z" style="fill: #feeee0;"/>
      <path id="ff" data-name="Path 1207" d="m59.3,88.12c2.32,1.25,4.64,2.5,6.97,3.73,1.27.67,3.09,1.48,3.02,3.2-.45.64-1.28.3-1.84.01-2.48-1.25-4.95-2.51-7.42-3.8-1.48-.77-2.99-1.52-3.39-3.17-.11-1.38,2.05-.31,2.67.03Z" style="fill: #feeee0;"/>
      <g id="fg" data-name="Group 1764">
        <path id="fh" data-name="Path 1208" d="m43.74,132.69c-.33-.36-.64-.74-.94-1.13.29.39.61.77.94,1.13Z" style="fill: none;"/>
        <path id="fi" data-name="Path 1209" d="m40.71,127.69c-.13-.49-.26-.96-.37-1.42.1.45.23.92.37,1.42Z" style="fill: none;"/>
        <path id="fj" data-name="Path 1210" d="m40.25,125.85c-.04-.16-.06-.31-.1-.46.03.15.06.3.1.46Z" style="fill: none;"/>
        <path id="fk" data-name="Path 1211" d="m44.77,133.7c-.35-.32-.68-.64-.99-.99.32.35.64.68.99.99Z" style="fill: none;"/>
        <path id="fl" data-name="Path 1212" d="m65.52,145.51l-.15-.13c.05.04.1.08.15.13Z" style="fill: none;"/>
        <path id="fm" data-name="Path 1213" d="m45.89,134.64c-.3-.23-.58-.47-.86-.72.28.24.57.49.86.72Z" style="fill: none;"/>
        <path id="fn" data-name="Path 1214" d="m65.84,145.86h0c-.04-.06-.09-.12-.13-.18.05.06.09.12.13.18Z" style="fill: none;"/>
        <path id="fo" data-name="Path 1215" d="m69.41,147.49c1.76,0,3.51,0,5.27-.04.35,0,.82-.18.16-.48l-6.45-.04c.36.19.7.37,1.01.56h0Z" style="fill: none;"/>
        <path id="fp" data-name="Path 1216" d="m65.53,145.51l.16.16c-.05-.06-.1-.11-.16-.16Z" style="fill: none;"/>
        <path id="fq" data-name="Path 1217" d="m41.33,129.73h-.16c.16.2.31.4.46.6h.07c-.13-.19-.25-.39-.36-.6h0Z" style="fill: none;"/>
        <path id="fr" data-name="Path 1218" d="m65.34,145.35s-.1-.07-.15-.09c.05.03.1.06.15.09Z" style="fill: none;"/>
        <path id="fs" data-name="Path 1221" d="m65.7,145.68l-.02-.02s.01.02.02.02Z" style="fill: #feead4;"/>
        <path id="ft" data-name="Path 1222" d="m65.37,145.38s-.02-.02-.04-.03c.01,0,.03.02.04.03Z" style="fill: #feead4;"/>
        <path id="fu" data-name="Path 1223" d="m40.35,126.28c-.04-.14-.07-.29-.1-.43.03.14.06.28.1.43Z" style="fill: #feead4;"/>
        <path id="fv" data-name="Path 1224" d="m42.41,130.86c.14-.15.14-.39-.01-.54h-.7c.1.15.21.3.33.44.24.29.5.56.79.8h0c-.13-.17-.27-.33-.4-.51-.03-.06-.03-.13,0-.19Z" style="fill: #feead4;"/>
        <path id="fw" data-name="Path 1226" d="m40.15,125.39c-.06-.33-.13-.65-.18-.96.05.3.11.63.18.96Z" style="fill: #feead4;"/>
        <path id="fx" data-name="Path 1227" d="m47.17,135.5c-.44-.27-.86-.56-1.27-.86.4.3.83.6,1.27.86Z" style="fill: #feead4;"/>
        <path id="fy" data-name="Path 1228" d="m45.03,133.93c-.09-.08-.18-.15-.26-.22.09.08.18.15.26.22Z" style="fill: #feead4;"/>
        <path id="fz" data-name="Path 1229" d="m40.71,127.69c.04.72.26,1.41.62,2.03h0c-.23-.72-.43-1.39-.62-2.03Z" style="fill: #feead4;"/>
        <path id="ga" data-name="Path 1230" d="m43.77,132.71l-.02-.02.02.02Z" style="fill: #feead4;"/>
      </g>
    </g>
  </g>
  <path d="m86.6,143.61c.17-.07.14-.11-.12-.14-.03,0-.05.02-.08.03l-.37-.19s-.02-.07-.05-.09c-.27-.25-.61-.41-.98-.44l-.28-.13c-.32-.21-1.16-.53-1.06-.83-11.41-6.04-22.83-12.06-34.27-18.04-4.95-2.59-7.89-4.11-8.84-4.58-.65,1.67-.86,3.47-.6,5.24h0s.03.12.04.18c.02.23.02.45.06.68h0c.05.29.11.62.18.94.03.15.06.3.1.46.03.13.06.28.1.43.11.45.23.92.37,1.42.19.64.38,1.32.62,2.03.11.2.23.4.36.6h.7c.15.15.16.39.01.55-.03.06-.03.13,0,.19.13.18.26.34.4.51.29.39.61.77.94,1.13l.02.02c.32.35.65.67.99.99.09.08.18.15.26.22.28.25.57.49.86.72.41.3.83.6,1.27.86,3.19,1.94,6.52,3.64,9.78,5.46.87.48,1.74.94,2.61,1.4h0s2.54,1.39,5.91,3.1c.02.02.04.03.06.05.05.05.11.1.16.16,0,0,.01.01.02.02.05.06.09.11.13.18.88.3,1.73.66,2.56,1.07h.03c4.55,2.23,9.66,4.51,12.18,4.89,10.44,1.59,20.33-1.58,20.33-1.58l-14.43-7.5Z" style="fill: #b3d5cd;"/>
</svg>