<svg xmlns="http://www.w3.org/2000/svg" xmlns:xlink="http://www.w3.org/1999/xlink" width="200" height="181" viewBox="0 0 200 181">
  <defs>
    <linearGradient id="linear-gradient" x1="0.418" y1="0.827" x2="0.572" y2="0.38" gradientUnits="objectBoundingBox">
      <stop offset="0" stop-color="#da7629"/>
      <stop offset="1" stop-color="#fcc357"/>
    </linearGradient>
    <linearGradient id="linear-gradient-2" x1="0.448" y1="0.861" x2="0.535" y2="0.248" gradientUnits="objectBoundingBox">
      <stop offset="0" stop-color="#d8424b"/>
      <stop offset="1" stop-color="#db5f45"/>
    </linearGradient>
    <linearGradient id="linear-gradient-3" x1="0.465" y1="0.635" x2="0.651" y2="0.314" xlink:href="#linear-gradient"/>
  </defs>
  <g id="step02" transform="translate(-481 -1093)">
    <rect id="Rectangle_1347" data-name="Rectangle 1347" width="200" height="181" rx="12" transform="translate(481 1093)" fill="#e2dfb4"/>
    <g id="files-laptop" transform="translate(491.295 1104.207)">
      <path id="Path_1140" data-name="Path 1140" d="M158.5,0a1.955,1.955,0,0,0,1.046.248,1.6,1.6,0,0,1,.715.179q4.85,2.477,9.672,5.022c2,1.059,5.338,2.924,8.049,4.293q2.817,1.424,4.045,2.078,10.835,5.737,21.684,11.461c1.362.715,3.089,1.562,4.726,2.518,2.3,1.341,5.077,2.58,7.616,3.928.867.461,1.747.887,2.642,1.286a7.219,7.219,0,0,0,2.311,1.025c2.222,1.121,3.577,2.215,3.577,4.926q0,17.13.076,34.253.01,4.994.007,10c0,.97-.083,2.752.007,4.135a10.742,10.742,0,0,1-.193,2.573,4.872,4.872,0,0,1-1.493,1.692Q196.21,75.722,169.459,61.8c-.715-.371-1.465-.722-2.25-1.059a19.318,19.318,0,0,0-.261-3.777c-1.19-5.015-5.531-6.563-10.574-9.005V5.263c-.076-2.36-.234-4.5,2.112-5.256Zm3.213,26.032V50.2a.327.327,0,0,0,.179.31c19.194,9.769,38.119,19.744,57.2,29.6a.1.1,0,0,0,.131-.041.1.1,0,0,0,.014-.048V63.029l-.007-6.8.021-2.518c.255-.048.385-.158.392-.344.117-5.772.351-9.26-.048-13.841a.283.283,0,0,0-.089-.193.5.5,0,0,0-.193-.089.347.347,0,0,0-.227-.3Q208.431,33.365,197.8,27.793L161.871,8.985a.076.076,0,0,0-.1.028.3.3,0,0,0-.007.034l-.048,16.985Zm28.7-6.59c-.33,1.238,1.211,1.837,2.146,2.009a.3.3,0,0,0,.323-.151c.709-1.273-.922-1.961-1.823-2.222a.455.455,0,0,0-.647.365Z" transform="translate(-48.768)" fill="#071c2f"/>
      <path id="Path_1141" data-name="Path 1141" d="M117.78,6.84l-.014,11.619c-.358-.846-.846-.915-1.452-.206a75.546,75.546,0,0,0-4.85,6.26l-13.3.069a.235.235,0,0,0-.193.089c-.11.138-.048.213.193.213q6.119.062,12.238.11c.5-.048.5.3.261.585a24.192,24.192,0,0,0-1.4,2.05,47.491,47.491,0,0,0-3.371,6.26l-2.188.069a.211.211,0,0,0-.186.1.259.259,0,0,0,.007.33.231.231,0,0,0,.193.083l1.816.021q-1.517,3.22-2.958,6.467a.782.782,0,0,0-.069.488L79.861,29.624c-1.947-1.128-3.935-2.16-5.971-3.116a2.734,2.734,0,0,0-2.9-.041c-1.665.874-1.52,1.912-1.878,3.474a.717.717,0,0,1-.537.564,15.37,15.37,0,0,1-3.763.2.461.461,0,0,0-.413-.4,1.32,1.32,0,0,1-.86-.427.773.773,0,0,0-.908-.255.4.4,0,0,1-.22,0c-.564-.158-.784.089-1.059.592a4.628,4.628,0,0,1-1.176,1.4.155.155,0,0,1-.186.007c-.433-.282-1.513-.021-2.016.034-1.28.144-2.607.715-3.949.523A5.882,5.882,0,0,0,52,32.17a3.929,3.929,0,0,1-1.919-.186A.421.421,0,0,0,49.8,32a1.26,1.26,0,0,1-1.706-.392s-.083-.213-.248-.619c-.351-.881-1.032-.461-1.637-.826a.1.1,0,0,1-.028-.144h0a.914.914,0,0,0,.069-.977.194.194,0,0,0-.165-.11l-1.19-.158a.392.392,0,0,1-.186-.1.461.461,0,0,0-.6-.069.715.715,0,0,1-.592.055c-.31-.11-2.38,1.8-2.786,2.139a.1.1,0,0,0-.014.138c0,.007.014.014.021.021,1.039.647-.227.592-.523.64a25.726,25.726,0,0,1-2.91.289.226.226,0,0,1-.186-.083l-.213-.268a.189.189,0,0,0-.179-.048l-.633.131a.456.456,0,0,1-.213-.055.658.658,0,0,0-.557-.014.176.176,0,0,1-.186-.021c-.151-.151-.11-.316.11-.509.131-.11.11-.165-.062-.151-.571.041-.777.3-.619.75.034.089.007.124-.069.1s-.11-.1-.076-.227a.121.121,0,0,0-.076-.151h-.021c-.488-.055-.743.117-.743.5a.3.3,0,0,1-.069.206.389.389,0,0,1-.378.131.2.2,0,0,0-.186.048.762.762,0,0,1-.337.179C50.128,13.918,74.784,4.872,99.99,5.078A98.95,98.95,0,0,1,117.78,6.84Z" transform="translate(-10.16 -1.584)" fill="#fef2e8"/>
      <path id="Path_1142" data-name="Path 1142" d="M200.223,31.865c-.055.2,0,.316.158.351a.36.36,0,0,1,.193.1,3.246,3.246,0,0,1,.784,2.38.871.871,0,0,1-.083.358l-.427,1a8.373,8.373,0,0,0-2.105-1.562q-6.253-3.312-12.541-6.577-8.73-4.644-10.821-5.641a3.75,3.75,0,0,0-4.905,1.066,52.1,52.1,0,0,0-2.745,4.644,6.239,6.239,0,0,1-2.917.323.362.362,0,0,0-.413.3v.028l-.048,1.293a.309.309,0,0,1-.055.206c-.062.076-.117.062-.158-.034l.048-16.985a.069.069,0,0,1,.069-.069.062.062,0,0,1,.034.007l35.924,18.808Z" transform="translate(-51.202 -4.072)" fill="#ffe9d1"/>
      <path id="Path_1143" data-name="Path 1143" d="M138.62,47.559c3.46.014,6.928,0,10.388-.062.213,0,.427-.165.268-.378a.257.257,0,0,0-.193-.089l-10.106-.069" transform="translate(-43.238 -14.654)" fill="#63a998"/>
      <path id="Path_1144" data-name="Path 1144" d="M143.159,30.273a72.694,72.694,0,0,1,4.85-6.26c.612-.7,1.094-.633,1.452.206V55.286a15.082,15.082,0,0,0-1.307-.757Q141.168,50.877,134.2,47.2a.892.892,0,0,1,.069-.488q1.445-3.251,2.958-6.467l5.93-9.968Z" transform="translate(-41.854 -7.344)" fill="#63a998"/>
      <path id="Path_1145" data-name="Path 1145" d="M139.127,42.687a48.319,48.319,0,0,1,3.371-6.26,21.669,21.669,0,0,1,1.4-2.05,5.234,5.234,0,0,0,.406-.585,38.026,38.026,0,0,0,4.933-.048.263.263,0,0,0,.186-.1c.193-.275-.131-.371-.344-.371-1.445-.007-2.9,0-4.382.048l-5.572,9.377Z" transform="translate(-43.394 -10.381)" fill="#63a998"/>
      <path id="Path_1146" data-name="Path 1146" d="M189.08,31.882a.478.478,0,0,0-.041.1.129.129,0,0,0,.089.138,4.126,4.126,0,0,1,1.63,1.018c.537.777.392.853-.433.248a.371.371,0,0,0-.206-.069c-.7-.014-1.218-.282-1.919-.289a9.247,9.247,0,0,1-2.511-.7c-.5-.138-1-.3-1.493-.461-.8-.268-1.266-.853-2.27-.929a.371.371,0,0,1-.206-.069,9.952,9.952,0,0,0-4.2-1.637.118.118,0,0,0-.124.1c-.083.557-1.465-.248-1.672-.447a.354.354,0,0,0-.193-.1,2.415,2.415,0,0,1-1.747-1.28.08.08,0,0,0-.11-.034c-.007,0-.014.007-.021.014q-.361.351-.31-.165a3.757,3.757,0,0,1,4.905-1.066q2.084,1,10.821,5.641Z" transform="translate(-54.073 -8.037)" fill="#fdbf6c"/>
      <path id="Path_1147" data-name="Path 1147" d="M208,30.087c-.936-.172-2.477-.77-2.146-2.009a.454.454,0,0,1,.647-.365c.9.268,2.532.949,1.823,2.222a.305.305,0,0,1-.323.151Z" transform="translate(-64.203 -8.637)" fill="#fefefe"/>
      <path id="Path_1148" data-name="Path 1148" d="M172.121,28.007q-.052.516.31.165a.079.079,0,0,1,.117,0s.014.014.014.021a2.428,2.428,0,0,0,1.747,1.28.379.379,0,0,1,.193.1c.206.2,1.589,1,1.672.447a.105.105,0,0,1,.124-.1,9.987,9.987,0,0,1,4.2,1.637.434.434,0,0,0,.206.069c1,.069,1.458.654,2.27.929.5.165.991.316,1.493.461a9.576,9.576,0,0,0,2.511.7c.7,0,1.218.275,1.919.289a.354.354,0,0,1,.206.069q1.238.918.433-.248a4.175,4.175,0,0,0-1.63-1.018.137.137,0,0,1-.089-.138.173.173,0,0,1,.041-.1q6.284,3.261,12.541,6.577A8.808,8.808,0,0,1,202.5,40.72a12.674,12.674,0,0,1,2.4,4.967,4.391,4.391,0,0,0,1.018,1.52l-.165.433c-.028.083-.069.076-.117,0-.151-.261-.227-.248-.234.041a.094.094,0,0,1-.1.1h-.014a48.228,48.228,0,0,1-5.476-1.452A7.008,7.008,0,0,1,198.2,45.6c-1.3-.832-3.619-.475-4.355-1.149a.272.272,0,0,0-.193-.083,1.589,1.589,0,0,1-.963-.365.472.472,0,0,0-.2-.083c-.55-.069-.654-.571-1.218-.7a.271.271,0,0,1-.172-.117.939.939,0,0,0-.956-.4.4.4,0,0,1-.22-.028,6.271,6.271,0,0,1-1.665-.77.769.769,0,0,0-.172-.138l-.626-.131q-6.264-3.251-12.507-6.549a5.833,5.833,0,0,0-2.944-1.046,8.661,8.661,0,0,1-1.52-.722,7.108,7.108,0,0,0-1.1-.674q1.259-2.394,2.745-4.644Z" transform="translate(-52.84 -8.738)" fill="#fdc57b"/>
      <path id="Path_1149" data-name="Path 1149" d="M167.732,34.76a6.9,6.9,0,0,1,1.1.674,8.409,8.409,0,0,0,1.52.722.836.836,0,0,0-.543,1.225c.406,1.087,1.266,1.452,2.539,2.139q10.35,5.541,20.8,10.9a2.151,2.151,0,0,0,1.486.179c-.227.179-.261.33-.11.461a.523.523,0,0,1,.138.172c.2.44,1.651,1.059,2.119,1.28a21.158,21.158,0,0,1,2.676,1.059.447.447,0,0,0,.213.055,18.674,18.674,0,0,1,2.442.488,3.183,3.183,0,0,1,1.273.55c.908.592,2.277.667,3.275,1.218a10.567,10.567,0,0,1,1.128.729,18.328,18.328,0,0,0,3.969,1.809c.578.227.894.736,1.569.922a.326.326,0,0,0,.213-.014l.358-.144a.15.15,0,0,1,.165.055c.069.076.165.083.282.007A2.191,2.191,0,0,0,217.167,59a3.925,3.925,0,0,0,.654-3.1,7.132,7.132,0,0,1,3.22,1.692,52.252,52.252,0,0,0-.069,6.4,1.113,1.113,0,0,1-.6,1.2.326.326,0,0,1-.213.014l-3.364-1c-.1-.028-.131,0-.1.1.1.275.069.351-.1.227a1.028,1.028,0,0,1-.832-.482c-1.032-1.527-3.921-.44-4.754-2.126a.271.271,0,0,0-.158-.144c-.956-.31-2.291-.3-3.268-1.121a.339.339,0,0,0-.2-.076c-.557-.014-.881-.5-1.3-.44a.258.258,0,0,1-.193-.055c-.881-.846-1.5-.585-2.5-.97-.351-.131-.571-.461-.991-.557-.5-.117-1.025.323-1.472-.344a.138.138,0,0,0-.165-.048c-.578.248-.523-.564-1.142-.681a.439.439,0,0,0-.213.034.333.333,0,0,1-.427-.158.306.306,0,0,0-.172-.131l-1.018-.172a.764.764,0,0,1-.509-.3c-.268-.385-.543-.461-.832-.22a.171.171,0,0,1-.186.028,1,1,0,0,1-.316-.3.231.231,0,0,0-.172-.1c-.516-.034-.75-.722-1.4-.819a.2.2,0,0,1-.158-.117,1.01,1.01,0,0,0-.371-.44,5.094,5.094,0,0,0-1.328-1.314q-9.328-4.922-18.65-9.844c-.619-.323-1.465-.715-2.539-1.163a.953.953,0,0,0-1.252.323c-.777.688-1.176-.028-1.857-.055a2.419,2.419,0,0,0-.963.151.062.062,0,0,1-.083-.041v-.028c.041-.461-.922-.647-1.28-.764-.7-.234-1.672.048-1.617-1.17a.59.59,0,0,0-.165-.516V36.886c.041.1.1.11.158.034a.336.336,0,0,0,.055-.206l.048-1.293a.354.354,0,0,1,.385-.33h.034a6.33,6.33,0,0,0,2.917-.323Z" transform="translate(-51.196 -10.847)" fill="#fdd39f"/>
      <path id="Path_1150" data-name="Path 1150" d="M172.889,36.79a5.833,5.833,0,0,1,2.944,1.046q6.243,3.292,12.507,6.549,3.261,1.775,6.563,3.488a4.005,4.005,0,0,1,2.256,3.357,2.19,2.19,0,0,1-1.486-.179q-10.443-5.356-20.8-10.9c-1.28-.681-2.133-1.053-2.539-2.139a.841.841,0,0,1,.543-1.225Z" transform="translate(-53.732 -11.481)" fill="#fefefc"/>
      <path id="Path_1151" data-name="Path 1151" d="M54.715,41.352a2.574,2.574,0,0,0-2.057,2.738q0,10.753-.048,21.505v4.451s-.028.055-.055.055h-.028q-5.521-2.776-10.9-5.669c-1.74-.936-3.522-1.885-5.325-.791a2.9,2.9,0,0,0-1.947,2.986q.021,3.643-.007,20.528c-.2,3.247-.2,6.288-.337,9.439a16.6,16.6,0,0,0,.048,1.775.461.461,0,0,1-.062.206,4.449,4.449,0,0,0-.048,1.864.18.18,0,0,1-.076.172c-.468.206-.475-2.188-.433-2.47a12.692,12.692,0,0,0-.069-3.467c-.055-.3.062-1.307-.468-.894a.2.2,0,0,0-.062.186c.014.117-.034.151-.151.11a.362.362,0,0,0-.213-.028l-1.286.378a.154.154,0,0,1-.165-.055.556.556,0,0,0-.509-.158,20.236,20.236,0,0,1-4-.144c-.482-.062-.936-.33-1.548-.089a.493.493,0,0,1-.22.034,6.793,6.793,0,0,0-1.968.165.56.56,0,0,1-.316-.034c-.867-.4-1.5.275-2.435-.117a.326.326,0,0,0-.213-.014c-1.025.268-1.472-.523-2.4-.048a.206.206,0,0,1-.2,0,1.9,1.9,0,0,0-1.452-.1.376.376,0,0,1-.213.007,6.192,6.192,0,0,0-3.261.117.849.849,0,0,1-.695-.076c-.75-.427-2.3.22-3.165.172a19.2,19.2,0,0,0-5.015.385c-.557.117-1.046-.021-1.369.633-.2.406-.468.543-.8.4-.908-.392-.709.977-1.018.571a81.324,81.324,0,0,1,22.3-53.02.762.762,0,0,0,.337-.179.221.221,0,0,1,.186-.048.389.389,0,0,0,.378-.131.334.334,0,0,0,.069-.206c0-.392.255-.557.743-.5a.114.114,0,0,1,.11.131v.021c-.041.124-.014.2.076.227s.1-.007.069-.1c-.158-.461.041-.709.619-.75.172-.014.193.041.062.151-.22.186-.255.358-.11.509a.176.176,0,0,0,.186.021.635.635,0,0,1,.557.014.456.456,0,0,0,.213.055l.633-.131a.174.174,0,0,1,.179.048l.213.268a.226.226,0,0,0,.186.083,25.727,25.727,0,0,0,2.91-.289c.3-.048,1.562,0,.523-.64a.093.093,0,0,1-.028-.138c0-.007.014-.014.021-.021.406-.351,2.477-2.25,2.786-2.139a.712.712,0,0,0,.592-.055.461.461,0,0,1,.6.069.34.34,0,0,0,.186.1l1.19.158a.209.209,0,0,1,.165.11.913.913,0,0,1-.069.977.109.109,0,0,0,.021.151h0c.605.371,1.293-.055,1.637.826q.237.609.248.619a1.272,1.272,0,0,0,1.706.392.421.421,0,0,1,.275-.014,3.929,3.929,0,0,0,1.919.186,5.882,5.882,0,0,1,2.029.014c1.335.193,2.662-.385,3.949-.523.5-.055,1.582-.316,2.016-.034a.155.155,0,0,0,.186-.007,4.711,4.711,0,0,0,1.176-1.4c.268-.5.488-.75,1.059-.592a.4.4,0,0,0,.22,0,.773.773,0,0,1,.908.255,1.3,1.3,0,0,0,.86.427.437.437,0,0,1,.413.4Z" transform="translate(-0.052 -12.225)" fill="#feeee0"/>
      <path id="Path_1152" data-name="Path 1152" d="M216.577,40.4q10.639,5.583,21.285,11.145c.158.083.227.179.227.3l-.076,7.719a1.5,1.5,0,0,1-.612-.227,7.066,7.066,0,0,0-3.22-1.692c.186-1.961-.709-5.125-2.972-5.682-.908-.22-1.087.44-1.073,1.183.014.826-.014,1.734-.076,2.724q-4.788-2.26-9.445-4.788a4.329,4.329,0,0,1-1.018-1.52,12.816,12.816,0,0,0-2.4-4.967l.427-1a.871.871,0,0,0,.083-.358,3.246,3.246,0,0,0-.784-2.38.422.422,0,0,0-.193-.1c-.158-.041-.213-.158-.158-.351Z" transform="translate(-67.557 -12.607)" fill="#feedde"/>
      <path id="Path_1153" data-name="Path 1153" d="M100.671,40.76l22.647,11.819q6.976,3.674,13.958,7.327c.454.241.887.488,1.314.757,5.049,2.442,9.39,4,10.574,9.005a19.32,19.32,0,0,1,.261,3.777,3.8,3.8,0,0,0-.034,1.5l-.083,8.613.1,3.343v3.591a1.525,1.525,0,0,0,.048,1.142c-.316,0-.158.743-.1.922l.028,2.587.028,3.185-.124.977.1.908a17.871,17.871,0,0,1-.358,4.733,3.92,3.92,0,0,0-.151.9.1.1,0,0,1-.1.1h-.014c-.172-.034-.282,0-.323.1a.209.209,0,0,1-.138.131c-.172.014-.255-.041-.248-.179a.2.2,0,0,0-.062-.186.534.534,0,0,0-.488-.076.31.31,0,0,1-.213,0,.262.262,0,0,1-.062-.124l-.021-4.059V83.99c.014-3.5-.048-7.017.069-10.519a16.213,16.213,0,0,0-.055-2.745c-.33-1.665-1.61-4.293-3.357-4.843-.165-.048-1.321-.433-1.4-.151-.021.062-.069.11-.117.1-1.472-.144-2.587-1.128-3.818-.537-1.018-2.5-3.206-3.44-5.263-4.527q-16.511-8.73-32.863-17.756a5.029,5.029,0,0,1-1.073-.791.092.092,0,0,1,0-.138l.014-.014,1.046-.75a.25.25,0,0,0,.089-.179.516.516,0,0,1,.186-.378Z" transform="translate(-30.97 -12.719)" fill="#faaf5a"/>
      <path id="Path_1154" data-name="Path 1154" d="M164.15,42.907a.611.611,0,0,1,.165.516c-.055,1.211.915.936,1.617,1.17.351.117,1.321.3,1.28.764a.074.074,0,0,0,.062.076h.028a2.438,2.438,0,0,1,.963-.151c.681.034,1.073.743,1.857.055A3.366,3.366,0,0,0,172,47.984q11.568,6.191,19.8,10.367a10.344,10.344,0,0,0,1.906.881c.482.131.7-.055.66-.55a2.553,2.553,0,0,0-.475-1.355,1.05,1.05,0,0,1,.371.44.2.2,0,0,0,.158.117c.654.1.887.784,1.4.819a.212.212,0,0,1,.172.1.932.932,0,0,0,.316.3.172.172,0,0,0,.186-.028c.289-.241.571-.165.832.22a.748.748,0,0,0,.509.3l1.018.172a.256.256,0,0,1,.172.131.336.336,0,0,0,.427.158.542.542,0,0,1,.213-.034c.619.117.564.929,1.142.681a.13.13,0,0,1,.165.048c.447.667.977.227,1.472.344.42.1.64.427.991.557,1,.378,1.617.124,2.5.97a.212.212,0,0,0,.193.055c.42-.055.743.427,1.3.44a.287.287,0,0,1,.2.076c.977.826,2.311.812,3.268,1.121a.251.251,0,0,1,.158.144c.832,1.685,3.722.592,4.754,2.126a1,1,0,0,0,.832.482c.165.131.193.055.1-.227-.034-.089,0-.124.1-.1l3.364,1a.326.326,0,0,0,.213-.014,1.1,1.1,0,0,0,.6-1.2,50.9,50.9,0,0,1,.069-6.4,1.409,1.409,0,0,0,.612.227l.021,6.749-.021,2.518c-.062-.268-.1-.289-.117-.055q0,.041-.021,0l-.021-.034c-.028-.055-.055-.048-.083,0a1.424,1.424,0,0,1-2.167.722,3.271,3.271,0,0,0-1.857-.33.288.288,0,0,1-.213-.041,5.8,5.8,0,0,0-2.263-.9c-1.225-.124-1.8-1.073-3.02-1.046a10.592,10.592,0,0,1-2.36-.922q-2.848-1.156-5.737-2.195a.054.054,0,0,1-.034-.055v-.041a.124.124,0,0,0-.089-.1c-.894-.323-1.548-.557-2.594-1.025-.667-.3-1.362-.172-1.981-.55a3.234,3.234,0,0,0-1.4-.66c-1.527-.069-2.655-.949-4.286-.6l-10.464-5.2q-4.654-2.4-9.294-4.843a4.386,4.386,0,0,0-2.766-.819c-.323-.633-2.759-1.293-3.474-1.527a.132.132,0,0,0-.144.028l-.055.069a.179.179,0,0,1-.165.076c-.626-.172-1.19-.406-1.823-.578-.922-.261-1-1.624-1.094-2.25V42.9Z" transform="translate(-51.205 -13.387)" fill="#fed7ac"/>
      <path id="Path_1155" data-name="Path 1155" d="M196.578,58.236a2.533,2.533,0,0,1,.475,1.355c.034.5-.186.674-.66.55a10.344,10.344,0,0,1-1.906-.881q-8.235-4.169-19.8-10.367a3.366,3.366,0,0,1-1.878-2.649.951.951,0,0,1,1.252-.323c1.073.447,1.919.832,2.539,1.163q9.328,4.922,18.65,9.844a4.883,4.883,0,0,1,1.328,1.314Z" transform="translate(-53.907 -14.297)" fill="#fefefe"/>
      <path id="Path_1156" data-name="Path 1156" d="M195.64,47.824l.626.131a1.062,1.062,0,0,1,.172.138,6.372,6.372,0,0,0,1.665.77.464.464,0,0,0,.22.028.939.939,0,0,1,.956.4.271.271,0,0,0,.172.117c.564.131.667.633,1.218.7a.472.472,0,0,1,.2.083,1.589,1.589,0,0,0,.963.365.3.3,0,0,1,.193.083c.736.667,3.054.31,4.355,1.149a7.312,7.312,0,0,0,1.617.729,48.615,48.615,0,0,0,5.476,1.452.1.1,0,0,0,.11-.076v-.021c0-.289.083-.3.234-.041.048.083.089.089.117,0l.165-.433q4.654,2.528,9.445,4.788c.048,1.259.069,2.621.062,4.1a1.457,1.457,0,0,0,.571,1.018c-.117.069-.213.069-.282-.007a.153.153,0,0,0-.165-.055l-.358.144a.326.326,0,0,1-.213.014c-.674-.186-.991-.695-1.569-.922a18.328,18.328,0,0,1-3.969-1.809,10.567,10.567,0,0,0-1.128-.729c-1-.55-2.367-.626-3.275-1.218a3.183,3.183,0,0,0-1.273-.55,18.673,18.673,0,0,0-2.442-.488.381.381,0,0,1-.213-.055,21.159,21.159,0,0,0-2.676-1.059c-.468-.22-1.926-.839-2.119-1.28a.523.523,0,0,0-.138-.172c-.151-.124-.117-.275.11-.461A3.983,3.983,0,0,0,202.21,51.3q-3.3-1.713-6.563-3.488Z" transform="translate(-61.032 -14.919)" fill="#fdcf94"/>
      <path id="Path_1157" data-name="Path 1157" d="M117.177,65.484a4.677,4.677,0,0,1,3.158,5.593.3.3,0,0,1-.344.248.066.066,0,0,1-.048-.014,9.469,9.469,0,0,1-1.218-.509q-5.335-2.724-10.7-5.414-10.02-5.211-20.04-10.409c-1.156-.6-2.236-1.321-3.075-.069a2.056,2.056,0,0,0-.282,1.1c-.021.942-.083,1.885-.193,2.821a78.4,78.4,0,0,0-.248,10.092l-.083,7.244a.076.076,0,0,1-.076.076H84a21.605,21.605,0,0,1-3.109-1.61.349.349,0,0,1-.165-.31l.069-2.2q0-10.257.021-20.514c0-2.965,2.951-3.969,5.318-2.655q11.991,6.625,31.04,16.531Z" transform="translate(-25.173 -15.099)" fill="#fff"/>
      <path id="Path_1158" data-name="Path 1158" d="M164.147,48.48c.089.626.172,1.988,1.094,2.25.626.179,1.2.413,1.823.578a.17.17,0,0,0,.165-.076l.055-.069a.132.132,0,0,1,.144-.028c.715.241,3.151.9,3.474,1.527-.736,1,.3,1.727,1.059,2.126q4.685,2.466,9.4,4.85,6.346,3.209,12.679,6.474a5.536,5.536,0,0,0,1.4.5.24.24,0,0,0,.282-.172c.378-1.383-1.238-2.38-2.291-2.91,1.63-.351,2.759.537,4.286.6a3.124,3.124,0,0,1,1.4.66c.612.378,1.314.255,1.981.55,1.046.468,1.7.7,2.594,1.025a.122.122,0,0,1,.089.1V66.5s.014.048.034.055q2.889,1.042,5.737,2.195a10.465,10.465,0,0,0,2.36.922c1.218-.028,1.789.915,3.02,1.046a5.835,5.835,0,0,1,2.263.9.373.373,0,0,0,.213.041,3.33,3.33,0,0,1,1.857.33,1.426,1.426,0,0,0,2.167-.722c.028-.055.055-.062.083,0l.021.034s.021.021.021,0c.021-.227.055-.206.117.055v6.8c-.22-.543-.42.316-.908.392a.3.3,0,0,0-.186.1c-1.1,1.273-1.871.1-2.979-.089a10.745,10.745,0,0,1-3.123-1.032,15.81,15.81,0,0,0-1.8-.722c-1.053-.44-2.353-.3-2.951-1.114a.351.351,0,0,0-.172-.131c-.468-.179-.936-.358-1.4-.55a5.129,5.129,0,0,0-1.169-.55.543.543,0,0,1-.206-.083,3,3,0,0,0-2.47-.433,1.89,1.89,0,0,1-.991-.089.144.144,0,0,1-.1-.151.755.755,0,0,0-.654-.881.268.268,0,0,1-.179-.117,1.37,1.37,0,0,0-1.225-.681,2.05,2.05,0,0,1-1.183-.275,1.891,1.891,0,0,0-1.2-.213.382.382,0,0,1-.282-.083,2.855,2.855,0,0,0-1.135-.647.491.491,0,0,1-.2-.1l-.516-.5a.416.416,0,0,0-.468-.089c-.5.234-.942.069-1.328-.5a.287.287,0,0,0-.4-.076c-.007,0-.014.014-.021.021-.213.186-.4.138-.55-.138a.882.882,0,0,0-.7-.482,1.84,1.84,0,0,1-1.108-.406.1.1,0,0,0-.151,0c-.77.757-2.16-.062-2.821-.64a3.9,3.9,0,0,0-1.63-.887c-.44-.11-.654-.385-.984-.523-.963-.392-1.706-.22-2.456-1.011a.621.621,0,0,0-.605-.165.179.179,0,0,1-.179-.069,2.419,2.419,0,0,0-2.029-1.053.581.581,0,0,1-.337-.11,25.03,25.03,0,0,0-2.807-1.816c-.3-.158-.592-.165-.647-.585a.336.336,0,0,0-.268-.289,3.453,3.453,0,0,1-1.8-.832,1.075,1.075,0,0,0-.874-.255.308.308,0,0,1-.213-.034l-2.394-1.513a1.238,1.238,0,0,1-.5-.626c-.5-1.238-1.114-1.238-2.229-1.513a15.319,15.319,0,0,1-1.727-.22,4.738,4.738,0,0,1-1.032-.571.192.192,0,0,0-.193-.021,1.033,1.033,0,0,1-1.094-.172.207.207,0,0,0-.2-.021c-.5.255-.213-.275-.488-.543a.363.363,0,0,1-.11-.2l-.172-1.059V48.514Z" transform="translate(-51.202 -15.129)" fill="#fedab7"/>
      <path id="Path_1159" data-name="Path 1159" d="M185.906,60.214a1.683,1.683,0,0,1-1.025,1.108.261.261,0,0,0-.131.151c-.028.1-.076.117-.138.069a.254.254,0,0,0-.193-.055l-.117.041q-4.716-2.384-9.4-4.85c-.75-.4-1.8-1.128-1.059-2.126a4.356,4.356,0,0,1,2.766.819q4.633,2.435,9.294,4.843Z" transform="translate(-54.152 -17.018)" fill="#fefefc"/>
      <path id="Path_1160" data-name="Path 1160" d="M164.15,56.194l.172,1.059a.363.363,0,0,0,.11.2c.275.268-.014.8.488.543a.176.176,0,0,1,.2.021,1.033,1.033,0,0,0,1.094.172.194.194,0,0,1,.193.021,4.33,4.33,0,0,0,1.032.571,15.321,15.321,0,0,0,1.727.22c1.114.282,1.72.282,2.229,1.513a1.238,1.238,0,0,0,.5.626l2.394,1.513a.308.308,0,0,0,.213.034,1.075,1.075,0,0,1,.874.255,3.453,3.453,0,0,0,1.8.832.344.344,0,0,1,.268.289c.055.42.351.433.647.585a26.053,26.053,0,0,1,2.807,1.816.581.581,0,0,0,.337.11,2.419,2.419,0,0,1,2.029,1.053.194.194,0,0,0,.179.069.654.654,0,0,1,.605.165c.757.784,1.5.619,2.456,1.011.337.138.55.413.984.523a3.816,3.816,0,0,1,1.63.887c.66.585,2.05,1.4,2.821.64a.115.115,0,0,1,.151,0,1.821,1.821,0,0,0,1.108.406.882.882,0,0,1,.7.482c.151.275.33.323.55.138a.285.285,0,0,1,.406.034c0,.007.014.014.021.021.385.564.832.729,1.328.5a.428.428,0,0,1,.468.089l.516.5a.416.416,0,0,0,.2.1,2.773,2.773,0,0,1,1.135.647.347.347,0,0,0,.282.083,1.891,1.891,0,0,1,1.2.213,2.038,2.038,0,0,0,1.183.275,1.37,1.37,0,0,1,1.225.681.328.328,0,0,0,.179.117.746.746,0,0,1,.654.881.152.152,0,0,0,.1.151,1.89,1.89,0,0,0,.991.089,3,3,0,0,1,2.47.433.543.543,0,0,0,.206.083,5.285,5.285,0,0,1,1.17.55c.461.193.929.371,1.4.55a.384.384,0,0,1,.172.131c.592.812,1.9.674,2.951,1.114a15.318,15.318,0,0,1,1.8.722,10.745,10.745,0,0,0,3.123,1.032c1.108.186,1.878,1.355,2.979.089a.314.314,0,0,1,.186-.1c.488-.076.688-.936.908-.392V97.519a.085.085,0,0,1-.089.1.066.066,0,0,1-.048-.014c-19.077-9.851-38-19.833-57.2-29.6a.352.352,0,0,1-.193-.31V56.16Zm5.724,7.017a4.011,4.011,0,0,0,2.2,2.146q12.868,6.738,20.15,10.381a5.929,5.929,0,0,0,1.307.468c.543.124.736-.1.571-.688-.523-1.892-1.6-2.4-3.474-3.392q-9.514-4.994-19.063-9.934c-.709-.365-2.133-.131-1.692,1.018Zm1.513,6.549q2.322,1.465,5.882,3.247Q184.08,76.413,190.8,80a25.446,25.446,0,0,0,3.708,1.823c.447.158.674,0,.674-.482,0-1.465-2.222-2.483-3.378-3.075q-9.721-4.933-19.359-10.03a2.622,2.622,0,0,0-1.438-.31.176.176,0,0,0-.158.117,1.291,1.291,0,0,0,.53,1.72Z" transform="translate(-51.205 -17.525)" fill="#feddc0"/>
      <path id="Path_1161" data-name="Path 1161" d="M109.571,68.044a.271.271,0,0,1-.351.151.252.252,0,0,0-.2.021l-.832.44c-.33.172-.337.344-.021.5,4.767,2.428,9.507,5.008,14.385,7.23q2.972,1.476,5.951,2.944c2.655,1.307,4.155,2.724,4.19,5.806v17.3a2.488,2.488,0,0,1-1.672-.282.251.251,0,0,1-.124-.165,5.8,5.8,0,0,1-.11-1.541c.076-1.431.069-2.848.055-4.279.007-1.452.014-2.91.014-4.362,0-.8-.089-2.518-1.362-2.415a.082.082,0,0,1-.083-.069v-.021c.041-.193-.055-.323-.3-.378a2.3,2.3,0,0,1-1.011-.66c-.33-.33-.117-.543-.736-.626a1.784,1.784,0,0,1-.654-.213.261.261,0,0,1-.124-.165.514.514,0,0,0-.378-.385.23.23,0,0,1-.165-.124c-.131-.3.014-.475.44-.523a.09.09,0,0,0,.083-.1V86.11a1.015,1.015,0,0,0-.3-.482c-.736-.537-2.133-1.727-3.006-1.851a.265.265,0,0,1-.179-.11.422.422,0,0,0-.612-.138.112.112,0,0,1-.151-.041.359.359,0,0,0-.5-.131c-.055.028-.076.014-.069-.048a.331.331,0,0,0-.034-.248.214.214,0,0,0-.186-.069h-.674a.14.14,0,0,1-.1-.144h0a.363.363,0,0,0-.179-.358,1.2,1.2,0,0,0-1.644.158.108.108,0,0,0,.007.151h0a.564.564,0,0,1,.172.289,11.2,11.2,0,0,0-2.621-1.775q-8.028-4.138-23.321-12.493c-.654-.358-1.933-.6-2.263.248-.64,1.63,3.742,3.6,4.829,4.2a1.3,1.3,0,0,0,.564.475.213.213,0,0,1,.11.158.426.426,0,0,0,.083.179.063.063,0,0,1,0,.083.036.036,0,0,1-.028.014c-.619.117-1.183.323-1.809.5a1.066,1.066,0,0,0-.812,1.163c-.475-.22-2.882-1.507-2.4.268-.089-.138-.523-1.156-.151-1.08a.118.118,0,0,0,.144-.062c.034-.138-.041-.2-.213-.193a.156.156,0,0,1-.144-.1.344.344,0,0,0-.255-.22c-.083-.021-.083-.041-.014-.062l.475-.151c.234-.076.248-.172.048-.3a1.694,1.694,0,0,0-1.114-.268.213.213,0,0,1-.186-.069,2.752,2.752,0,0,0-1.5-.936,1.679,1.679,0,0,1-.826-.482,2.356,2.356,0,0,0-1.362-.743.226.226,0,0,0-.193.069.134.134,0,0,1-.234-.028.071.071,0,0,0-.1-.028c-.007,0-.014.014-.021.021l-.083.124a78.425,78.425,0,0,1,.248-10.092c.11-.936.172-1.878.193-2.821a2.056,2.056,0,0,1,.282-1.1c.839-1.252,1.919-.53,3.075.069q10.02,5.2,20.04,10.409Z" transform="translate(-26.717 -17.756)" fill="#febd56"/>
      <path id="Path_1162" data-name="Path 1162" d="M247.823,57.04a.553.553,0,0,1,.193.089.283.283,0,0,1,.089.193c.4,4.575.165,8.07.048,13.841,0,.186-.131.3-.392.344l-.021-6.749.076-7.719Z" transform="translate(-77.29 -17.8)" fill="#360c1b"/>
      <path id="Path_1163" data-name="Path 1163" d="M240.324,62.876a3.925,3.925,0,0,1-.654,3.1,2.2,2.2,0,0,1-2.827.248,1.47,1.47,0,0,1-.571-1.018c.007-1.479-.014-2.841-.062-4.1.062-.991.083-1.9.076-2.724-.014-.743.165-1.4,1.073-1.183,2.263.55,3.158,3.722,2.972,5.682Z" transform="translate(-73.692 -17.836)" fill="#e64842"/>
      <path id="Path_1164" data-name="Path 1164" d="M190.763,62.79l10.464,5.2c1.046.523,2.662,1.527,2.291,2.91a.24.24,0,0,1-.282.172,5.632,5.632,0,0,1-1.4-.5q-6.326-3.261-12.679-6.474l.117-.041a.228.228,0,0,1,.193.055c.069.048.11.021.138-.069a.24.24,0,0,1,.131-.151A1.714,1.714,0,0,0,190.763,62.79Z" transform="translate(-59.01 -19.594)" fill="#feeacd"/>
      <path id="Path_1165" data-name="Path 1165" d="M174.634,68.023a3.989,3.989,0,0,1-2.2-2.146c-.44-1.142.984-1.383,1.692-1.018q9.545,4.933,19.063,9.934c1.878.991,2.951,1.5,3.474,3.392.158.585-.028.812-.571.688a5.928,5.928,0,0,1-1.307-.468Q187.5,74.762,174.634,68.023Z" transform="translate(-53.764 -20.191)" fill="#fefefe"/>
      <path id="Path_1166" data-name="Path 1166" d="M174.372,75.094a1.293,1.293,0,0,1-.53-1.72.172.172,0,0,1,.158-.117,2.622,2.622,0,0,1,1.438.31q9.638,5.1,19.359,10.03c1.163.585,3.378,1.61,3.378,3.075,0,.475-.227.633-.674.482a26.167,26.167,0,0,1-3.708-1.823q-6.728-3.581-13.532-6.99-3.56-1.775-5.882-3.247Z" transform="translate(-54.19 -22.858)" fill="#ffe9d1"/>
      <path id="Path_1167" data-name="Path 1167" d="M121.454,88.329a4.3,4.3,0,0,1,.936,1.768c.117.427-.048.66-.482.695a2.425,2.425,0,0,1-1.307-.323q-11.31-5.9-22.53-11.963c-1.087-.592-5.469-2.559-4.829-4.2.337-.846,1.61-.605,2.263-.248Q110.8,82.42,118.826,86.554a11.056,11.056,0,0,1,2.621,1.775Z" transform="translate(-29.057 -23.009)" fill="#fff"/>
      <path id="Path_1168" data-name="Path 1168" d="M96.433,84.1,121.6,97.48a2.788,2.788,0,0,1,1.2,1.637c.158.571-.055.784-.626.64a6.979,6.979,0,0,1-1.637-.64q-3.023-1.661-6.088-3.261-7.76-4.138-15.541-8.235c-1.651-.867-4.231-2.016-4.871-3.261-.475-1.775,1.926-.482,2.4-.268Z" transform="translate(-29.305 -26.038)" fill="#fdcb83"/>
      <path id="Path_1169" data-name="Path 1169" d="M172.118,88.27c.784.337,1.534.688,2.25,1.059q26.747,13.931,53.529,27.813c-.048.041-.007.206.117.5a.994.994,0,0,1,.117.674,3.5,3.5,0,0,1-1.176-.3c-3.736-1.8-7.877-4-11.612-5.944q-21.577-11.207-43.127-22.454c-.124-.062-.165-.007-.131.165a3.8,3.8,0,0,1,.034-1.5Z" transform="translate(-53.662 -27.545)" fill="#ec8017"/>
      <path id="Path_1170" data-name="Path 1170" d="M228.1,118.919v.516H228c-.041-.385-1.2.537-1.3.592q-20.659,11.372-41.318,22.736c-2.456,1.348-4.513,2.367-7.024,1.665a32.719,32.719,0,0,1-6.226-3.034c-.1-2.69-.028-5.139-.076-8.07-.021-1.293.007-2.6.083-3.914l9.6,4.933a.539.539,0,0,0,.482,0l5.669-3c.138-.076.144-.151,0-.22-5.256-2.738-10.581-5.373-15.768-8.255l-.069-1.19c4.506,2.332,9.026,4.637,13.5,7.031q1.692.908,3.467,1.651a.791.791,0,0,0,.722-.041l5.469-2.9c.186-.1.186-.193.014-.3-.365-.213-.736-.42-1.108-.605q-11.134-5.768-22.159-11.757l.124-.977q15.788,8.121,19.221,10,2.394,1.311,4.878,2.428a1.5,1.5,0,0,0,1.417-.117c1.679-.942,3.392-1.878,5.146-2.793q.217-.114,0-.227l-30.607-15.988a1.594,1.594,0,0,1-.055-1.142l15.864,8.166a.678.678,0,0,0,.619,0l5.958-3.165c.076-.041.076-.076,0-.117Q183.1,105.05,171.991,99.017l.083-8.613c-.041-.172,0-.227.131-.165q21.557,11.248,43.127,22.454c3.736,1.94,7.877,4.148,11.612,5.944a3.673,3.673,0,0,0,1.176.3Z" transform="translate(-53.639 -28.152)" fill="#071c2f"/>
      <path id="Path_1171" data-name="Path 1171" d="M109.144,98.5q6.274,3.343,12.562,6.666a2.14,2.14,0,0,1,1.176,2.511l-2.181-1q-12.414-6.615-24.862-13.16c-.633-.33-1.857-1.046-1.6-1.954a.48.48,0,0,1,.654-.378,8.243,8.243,0,0,1,1.782.681q6.243,3.312,12.472,6.625Z" transform="translate(-29.379 -28.447)" fill="#fdc893"/>
      <path id="Path_1172" data-name="Path 1172" d="M81.448,108.059c.4,1.527-1.335.6-1.8.358q-9.04-4.644-17.921-9.59a4.792,4.792,0,0,1-1.025-.784.838.838,0,0,1-.11-1.218,1.059,1.059,0,0,1,1.053-.537,3.973,3.973,0,0,1,1.486.468q13.343,7.223,15.85,8.489a4.775,4.775,0,0,1,2.47,2.8Z" transform="translate(-18.826 -30.046)" fill="#fdcb89"/>
      <path id="Path_1173" data-name="Path 1173" d="M171.974,102.964q11.114,6.026,22.523,11.812c.076.041.076.076,0,.117l-5.958,3.165a.658.658,0,0,1-.619,0l-15.864-8.166V107.27a10.829,10.829,0,0,0,3.46-1.52.088.088,0,0,0,.021-.124c0-.007-.014-.021-.028-.028-1.3-.832-2.167-.22-3.447.695l-.1-3.343Zm5.49,7a.919.919,0,0,0,.7-.014,14.424,14.424,0,0,0,2.4-1.4.218.218,0,0,0,.055-.3l-.041-.041c-.949-.791-2.435.282-3.357.929-.626.447-.261.64.248.826Zm3.281,1.706a1.4,1.4,0,0,0,1.245.1,12.071,12.071,0,0,0,2.263-1.534.078.078,0,0,0,.014-.11c0-.007-.014-.014-.021-.021a1.335,1.335,0,0,0-1.417-.213,8.273,8.273,0,0,0-2.133,1.321.281.281,0,0,0-.034.392.276.276,0,0,0,.083.069Zm3.66,2.2c1.039.275,2.25-.743,3.206-1.17.069-.034.089-.213.055-.433-.227-1.376-2.986.612-3.481.963a.252.252,0,0,0-.117.179c-.034.241.083.392.344.461Z" transform="translate(-53.642 -32.126)" fill="#fefeff"/>
      <path id="Path_1174" data-name="Path 1174" d="M255.636,103.51a7.2,7.2,0,0,1,1.4,3.983,18.96,18.96,0,0,1-.647,7.113,21.6,21.6,0,0,0-.736,3.034c-.1-1.383-.007-3.158-.007-4.135Q255.643,108.511,255.636,103.51Z" transform="translate(-79.744 -32.301)" fill="#fdc57b"/>
      <path id="Path_1175" data-name="Path 1175" d="M81.32,117.726a2.433,2.433,0,0,1-1.864-.227q-7.213-3.777-14.419-7.595c-1.4-.743-3.921-1.8-4.582-3.281a.346.346,0,0,1-.028-.22c.33-1.589,2.263-.681,3.144-.213q7.058,3.736,14.089,7.505a26.547,26.547,0,0,1,2.4,1.369,3.663,3.663,0,0,1,1.252,2.662Z" transform="translate(-18.835 -32.923)" fill="#fdc893"/>
      <path id="Path_1176" data-name="Path 1176" d="M172.127,108.306v-.97c1.286-.915,2.153-1.527,3.447-.695a.09.09,0,0,1,.028.124c0,.007-.014.021-.028.028a11.016,11.016,0,0,1-3.453,1.52Z" transform="translate(-53.692 -33.156)" fill="#dce2e9"/>
      <path id="Path_1177" data-name="Path 1177" d="M179.7,112.227c-.509-.193-.867-.385-.248-.826.922-.647,2.408-1.72,3.357-.929a.216.216,0,0,1,.028.3l-.041.041a13.512,13.512,0,0,1-2.4,1.4.919.919,0,0,1-.7.014Z" transform="translate(-55.877 -34.387)" fill="#dce2e9"/>
      <path id="Path_1178" data-name="Path 1178" d="M184.664,114.766a.275.275,0,0,1-.11-.378.365.365,0,0,1,.069-.083,8.274,8.274,0,0,1,2.133-1.321,1.335,1.335,0,0,1,1.417.213.078.078,0,0,1,.028.11c0,.007-.014.014-.021.021a12.413,12.413,0,0,1-2.263,1.534,1.4,1.4,0,0,1-1.245-.1Z" transform="translate(-57.561 -35.22)" fill="#e0e6ee"/>
      <path id="Path_1179" data-name="Path 1179" d="M72.672,121.256c-.44.619-1.245.289-1.789.014q-3.612-1.816-7.21-3.687c-1.438-.743-2.9-1.479-3.3-3.075-.11-1.341,1.988-.3,2.594.028q3.374,1.826,6.769,3.619c1.231.654,3,1.438,2.931,3.1Z" transform="translate(-18.821 -35.524)" fill="#fac595"/>
      <path id="Path_1180" data-name="Path 1180" d="M172.11,114.72l30.607,15.988q.217.114,0,.227c-1.747.922-3.467,1.851-5.146,2.793a1.521,1.521,0,0,1-1.417.117q-2.487-1.114-4.878-2.428-3.426-1.878-19.221-10l-.028-3.185a10.251,10.251,0,0,0,2.442-1.376.081.081,0,0,0,.021-.117c0-.007-.014-.014-.021-.021a2.122,2.122,0,0,0-1.954-.351.164.164,0,0,0-.11.151c0,.213-.076.3-.2.261a.178.178,0,0,1-.11-.165l-.1-.97c-.055-.179-.213-.915.1-.922Zm4.183,6.178c.922.605,2.442-.592,3.309-1.19.323-.22.22-.42-.3-.592a1.064,1.064,0,0,0-.715,0,10.069,10.069,0,0,0-2.3,1.183c-.3.2-.3.406,0,.605Zm4.231,2.236c.722.337.97.048,1.569-.255.7-.358,1.4-.736,2.078-1.135a.088.088,0,0,0,.034-.117c0-.007-.007-.014-.014-.021-1.252-1.176-2.607.1-3.715.8-.42.268-.406.509.048.715Zm3.715,1.94a1.158,1.158,0,0,0,1.39.213,24.252,24.252,0,0,0,2.256-1.4.09.09,0,0,0,.021-.131c0-.007-.014-.014-.021-.021-1.19-.929-2.71.227-3.653,1.032a.208.208,0,0,0-.021.3c0,.007.014.014.021.021Zm10.085,5.373c.365.378.674.5.929.378.832-.413,1.665-.839,2.5-1.286a.24.24,0,0,0,.1-.33c-.007-.014-.021-.028-.028-.041a1.022,1.022,0,0,0-1.335-.351,13.51,13.51,0,0,0-2.14,1.321.208.208,0,0,0-.041.289s.014.014.014.021Z" transform="translate(-53.627 -35.799)" fill="#fefeff"/>
      <path id="Path_1181" data-name="Path 1181" d="M189.892,117.875a.392.392,0,0,1-.344-.461.3.3,0,0,1,.117-.179c.5-.351,3.254-2.339,3.481-.963.034.213.014.4-.055.433-.956.433-2.16,1.445-3.206,1.169Z" transform="translate(-59.129 -36.134)" fill="#dce2e9"/>
      <path id="Path_1182" data-name="Path 1182" d="M172.05,116.06l.1.97a.189.189,0,0,0,.11.165c.124.041.193-.048.2-.261a.164.164,0,0,1,.11-.151,2.161,2.161,0,0,1,1.954.351.081.081,0,0,1,.021.117c0,.007-.014.014-.021.021a10.387,10.387,0,0,1-2.442,1.376Z" transform="translate(-53.67 -36.217)" fill="#dadce0"/>
      <path id="Path_1183" data-name="Path 1183" d="M129.487,126.659l-2.208-.475a.1.1,0,0,0-.11.069v.021c.048,1.314.041,2.621,0,3.935q-.083,2.3-2.428,1.713a4.7,4.7,0,0,1-1.348-.516,3.274,3.274,0,0,1-.908-3.137v-10c-.475-2.057,2.029-1.458,2.876-.791a10.469,10.469,0,0,1,4.135,9.184Z" transform="translate(-38.178 -36.463)" fill="#e64842"/>
      <path id="Path_1184" data-name="Path 1184" d="M178.175,122.861c-.31-.2-.31-.4,0-.605a10.069,10.069,0,0,1,2.3-1.183,1.064,1.064,0,0,1,.715,0c.516.179.619.378.3.592-.867.6-2.387,1.8-3.309,1.19Z" transform="translate(-55.509 -37.762)" fill="#dce2e9"/>
      <path id="Path_1185" data-name="Path 1185" d="M184.27,126.044c-.454-.213-.468-.447-.048-.715,1.108-.7,2.463-1.981,3.715-.8a.087.087,0,0,1,0,.124s-.014.014-.021.014c-.681.4-1.376.777-2.078,1.135-.6.3-.846.592-1.569.255Z" transform="translate(-57.374 -38.709)" fill="#dce2e9"/>
      <path id="Path_1186" data-name="Path 1186" d="M171.944,125.877q11.021,5.985,22.159,11.757c.371.193.743.392,1.108.605.172.1.172.2-.014.3l-5.469,2.9a.791.791,0,0,1-.722.041q-1.775-.743-3.467-1.651c-4.465-2.394-8.985-4.7-13.5-7.031v-6.013l-.11-.908Zm4.492,3.158a2.982,2.982,0,0,0-3.426.812c-.22.31-.144.543.22.709a1.04,1.04,0,0,0,1.032-.048l2.181-1.328a.088.088,0,0,0,.028-.117c-.007-.014-.021-.021-.028-.027Zm.722,3.392c.626.64,1,.557,1.747.11.537-.33,1.094-.654,1.672-.977.234-.131.227-.255-.014-.365-1.156-.53-2.5.371-3.392,1.073a.1.1,0,0,0-.014.151l.007.007Zm5.49,2.8a.738.738,0,0,0,.674.1,6.405,6.405,0,0,0,2.325-1.383.109.109,0,0,0,.014-.151h0c-.887-.867-2.325.206-3.151.695-.323.193-.275.44.144.736Zm4.19,2.731a1.25,1.25,0,0,0,1.452.213,23.124,23.124,0,0,0,2.078-1.307.1.1,0,0,0,.027-.144.083.083,0,0,0-.034-.034c-.475-.268-.8-.5-1.376-.3a6.029,6.029,0,0,0-2.16,1.314.172.172,0,0,0-.007.241l.021.021Z" transform="translate(-53.633 -39.279)" fill="#fefeff"/>
      <path id="Path_1187" data-name="Path 1187" d="M171.109,127.191V133.2l.069,1.19.014,6.549c-.076,1.314-.1,2.621-.083,3.914.041,2.938-.021,5.387.076,8.07a.277.277,0,0,0-.021.289q-.2.1-.165-.165a.163.163,0,0,0-.138-.179h-.014a2.206,2.206,0,0,1-1.169-.6.265.265,0,0,0-.358.021c-.076.083-.124.041-.131-.124,0-.048-.055-.089-.117-.1-.213-.034-.131-2.738-.138-4.121V136.051l.021-3.488a.179.179,0,0,0,.062.124.246.246,0,0,0,.213,0,.534.534,0,0,1,.488.076.2.2,0,0,1,.062.186c-.014.138.069.193.248.179.048,0,.1-.055.138-.131.041-.1.151-.131.323-.1a.1.1,0,0,0,.117-.083V132.8a3.92,3.92,0,0,1,.151-.9,18.142,18.142,0,0,0,.358-4.733Z" transform="translate(-52.695 -39.684)" fill="#ee8c67"/>
      <path id="Path_1188" data-name="Path 1188" d="M189.8,128.992a.208.208,0,0,1-.021-.3c0-.007.014-.014.021-.021.942-.8,2.463-1.961,3.653-1.032a.09.09,0,0,1,.014.131c0,.007-.014.014-.021.021a24.251,24.251,0,0,1-2.256,1.4,1.147,1.147,0,0,1-1.39-.213Z" transform="translate(-59.186 -39.725)" fill="#dce2e9"/>
      <path id="Path_1189" data-name="Path 1189" d="M176.87,130.358a.09.09,0,0,1,.034.117c0,.014-.014.021-.028.028L174.7,131.83a1.04,1.04,0,0,1-1.032.048c-.365-.165-.44-.4-.22-.709A2.993,2.993,0,0,1,176.87,130.358Z" transform="translate(-54.067 -40.602)" fill="#dadce0"/>
      <path id="Path_1190" data-name="Path 1190" d="M109.757,143.72l.055-3.433v-3.433l-.041-4.52v-2.119l-.021-.461q.021-4.324.014-8.654a4.285,4.285,0,0,0-.213-1.644c-.5-1.039-1.754-.784-2.717-1.135l-2.208-.475H104.6a.091.091,0,0,0-.089.089c.048,1.314.041,2.621-.007,3.935q-.083,2.3-2.428,1.713a4.7,4.7,0,0,1-1.348-.516,3.274,3.274,0,0,1-.908-3.137v-10q-3.849-2.25-7.836-4.21a2.038,2.038,0,0,0-2.772.406c-1.472,1.844-2.029,1.417-4.079.406-2.38-1.176-5.607-2.256-6.3-5.146a5.662,5.662,0,0,0-3.3-4.066q-7.265-4-13.243-6.962a2.173,2.173,0,0,0-1.307-.179.279.279,0,0,0-.186.11,3.324,3.324,0,0,1-2.71,1.458c-1.08.028-2.16.041-3.24.034a.567.567,0,0,0-.633.557,20.12,20.12,0,0,0-.041,4.073c0,.819-.021,2.415-.069,4.8a1.471,1.471,0,0,1-.64,1.238,23.693,23.693,0,0,0-3.639.819v14.35l.041,2.917c-.028-.172.014-.268.11-.282a.217.217,0,0,1,.179.1c1.486,2.25,3.4,3.151,5.978,4.465q7.275,3.715,14.529,7.471c.709.365,1.376.942,2.146,1.328.674.337,1.108.571,1.307.695a10.8,10.8,0,0,0,1.961,1.2.334.334,0,0,1,.206.062,6.59,6.59,0,0,0,2.3,1.025.765.765,0,0,1,.7.447,1.134,1.134,0,0,0,.826.64.14.14,0,0,1,.11.131c.007.11.069.138.179.089,1.5.131,2.807.949,4.747,1.974.2.1.523.11.715.385a.271.271,0,0,0,.172.117,4.469,4.469,0,0,1,.846.337q2.425,1.207,4.809,2.5,5.676,3.013,11.337,6.006c1.761.929,3.4,2,5.428.894a2.316,2.316,0,0,0,1.307-2.016,37.6,37.6,0,0,0-.014-4.4Zm-.213-10.3a.1.1,0,0,1-.021.034h-.007A.069.069,0,0,0,109.543,133.421Zm-6.59-9.342a.273.273,0,0,0,.021.028c-.007-.007-.014-.021-.021-.028Zm-.819,8.888h0Zm.076-.027s-.014,0-.014.007a.069.069,0,0,0,.028-.034c0,.007,0,.014-.014.028Zm-7.244-11.833a.021.021,0,0,0,.014-.007.058.058,0,0,0-.021.034.041.041,0,0,1,.007-.028ZM61.037,105.594v.021c0,.007-.014.014-.014.021A.1.1,0,0,0,61.037,105.594Zm-3.075-.942s-.021,0-.028-.007a.021.021,0,0,0-.007-.014C57.941,104.638,57.948,104.651,57.961,104.651Zm.3-6.659a.139.139,0,0,0,.014-.041v.007c0,.014-.007.021-.014.034ZM74.431,115.72s.007.028.021.034h0c-.014,0-.014-.021-.021-.028ZM54.969,97.456s-.014.014-.021.014h-.014C54.948,97.469,54.962,97.469,54.969,97.456Zm-4.946,7.409a.1.1,0,0,0,0,.048V104.9c0-.014,0-.021.007-.028Zm59.321,38.291h.048a.034.034,0,0,1,.021.007.2.2,0,0,0-.062-.014Z" transform="translate(-15.53 -28.132)" fill="url(#linear-gradient)"/>
      <path id="Path_1191" data-name="Path 1191" d="M228.054,132.632a6.465,6.465,0,0,1-1.018.654q-20.938,11.6-41.944,23.087a24.767,24.767,0,0,1-2.518,1.2c-3.577,1.445-6.618-.695-9.6-2.332a2.107,2.107,0,0,0-.736-.241l-.069-.1a.277.277,0,0,1,.021-.289,32.521,32.521,0,0,0,6.226,3.034c2.511.7,4.568-.316,7.024-1.665q20.659-11.361,41.318-22.736c.1-.055,1.259-.977,1.3-.6Z" transform="translate(-53.696 -41.363)" fill="#ebceef"/>
      <path id="Path_1192" data-name="Path 1192" d="M228.062,132.67h.1c.117.413.117,1.534-.289,1.768-.819.461-1.637.922-2.442,1.4q-20.3,11.279-40.671,22.393a14.177,14.177,0,0,1-3.405,1.362,7.9,7.9,0,0,1-3.9-.42,51.458,51.458,0,0,1-5.3-2.724l.089-1.41a2.155,2.155,0,0,1,.736.241c2.986,1.63,6.026,3.777,9.6,2.332a23.444,23.444,0,0,0,2.518-1.2q21-11.485,41.944-23.087a6.638,6.638,0,0,0,1.018-.654Z" transform="translate(-53.705 -41.401)" fill="#393b40"/>
      <path id="Path_1193" data-name="Path 1193" d="M179.516,134.769a.108.108,0,0,1,0-.151l.007-.007c.894-.7,2.243-1.6,3.392-1.073.241.11.248.234.014.365-.578.323-1.135.647-1.672.977-.743.454-1.114.53-1.747-.11Z" transform="translate(-55.99 -41.622)" fill="#dce2e9"/>
      <path id="Path_1194" data-name="Path 1194" d="M91.695,156.9a7.757,7.757,0,0,1-1.947.482l-39.68-20.769c-.4-.206-.2-1.624-.193-2.057v-.344c-.028-.172.014-.268.11-.282a.217.217,0,0,1,.179.1c1.486,2.25,3.4,3.151,5.978,4.465q7.275,3.715,14.529,7.471c.709.365,1.376.942,2.146,1.328.674.337,1.108.571,1.307.695a10.8,10.8,0,0,0,1.961,1.2.334.334,0,0,1,.206.062,6.59,6.59,0,0,0,2.3,1.025.765.765,0,0,1,.7.447,1.134,1.134,0,0,0,.826.64.14.14,0,0,1,.11.131c.007.11.069.138.179.089,1.5.131,2.807.949,4.747,1.974.2.1.523.11.715.385a.271.271,0,0,0,.172.117,4.47,4.47,0,0,1,.846.337q2.425,1.207,4.809,2.5Z" transform="translate(-15.527 -41.794)" fill="#d36378"/>
      <path id="Path_1195" data-name="Path 1195" d="M42.817,134.736c0,.44-.213,1.851.193,2.057a.428.428,0,0,1-.179.358.607.607,0,0,0-.165.151,12.36,12.36,0,0,0-.819,1.479q-2.786,5.676-5.366,11.207a.382.382,0,0,1-.509.186h-.007q-3.942-1.992-7.526-3.949A3.546,3.546,0,0,1,27.29,145.1c-.516-2.036,1.348-2.869,3.02-3.8q5.717-3.168,11.427-6.384c.014-.007.158-.117.427-.316a.424.424,0,0,1,.674.138Z" transform="translate(-8.469 -41.967)" fill="#fefefe"/>
      <path id="Path_1196" data-name="Path 1196" d="M204.463,136.775a.214.214,0,0,1,0-.3s.014-.014.021-.014a13.51,13.51,0,0,1,2.14-1.321,1.024,1.024,0,0,1,1.335.351.242.242,0,0,1-.028.344.143.143,0,0,1-.041.028c-.832.447-1.665.881-2.5,1.286-.255.124-.564,0-.929-.378Z" transform="translate(-63.766 -42.135)" fill="#e0e6ee"/>
      <path id="Path_1197" data-name="Path 1197" d="M187.339,138.672c-.42-.3-.468-.543-.144-.736.826-.5,2.263-1.562,3.151-.695a.108.108,0,0,1,0,.151h0a6.349,6.349,0,0,1-2.325,1.383.738.738,0,0,1-.674-.1Z" transform="translate(-58.33 -42.725)" fill="#dce2e9"/>
      <path id="Path_1198" data-name="Path 1198" d="M211.462,137.267c.31.172.475.344.5.516,1.156,9.15-8.125,15.3-14.88,18.843-13.277,6.962-26.4,14.213-39.68,21.161-.131.069-1.472.784-4.038,2.146-5.263,2.8-12.417,6.928-18.685,6.019-2.449-.358-4.891-1.823-7-3.233-.3-.2-.351-.413-.158-.64q24.756-13.487,30.545-16.9,3.23-1.9,6.59-3.57a2.068,2.068,0,0,1,1.341-.22,1.341,1.341,0,0,0,1.383-.371,13.631,13.631,0,0,0,3.405-1.362q20.38-11.124,40.671-22.393Z" transform="translate(-39.739 -42.833)" fill="#63a998"/>
      <path id="Path_1199" data-name="Path 1199" d="M172.21,137.667c5.187,2.882,10.512,5.517,15.768,8.255.138.069.138.144,0,.22l-5.669,3a.5.5,0,0,1-.482,0l-9.6-4.933-.014-6.549Z" transform="translate(-53.72 -42.958)" fill="#fefeff"/>
      <path id="Path_1200" data-name="Path 1200" d="M43.005,137.84l39.68,20.769,21.959,11.475a.389.389,0,0,0-.193.337.143.143,0,0,1-.1.144c-6.886,1.885-13.759,3.5-20.7,5.5-.144.041-.151.1-.021.172q1.961,1.063,4,2.084c3.385,1.7,5.16,2.9,8.235,2.105a18.814,18.814,0,0,0,3.687-1.734q14.158-7.894,28.329-15.768a27.264,27.264,0,0,1,3.027-1.658.386.386,0,0,1,.22-.021,1.056,1.056,0,0,0,1.087-.468,7.9,7.9,0,0,0,3.9.42,1.368,1.368,0,0,1-1.383.371,2.013,2.013,0,0,0-1.341.22q-3.364,1.672-6.59,3.57-5.789,3.416-30.545,16.9a9.706,9.706,0,0,1-6.226-.86q-6.862-3.632-13.731-7.251-16.614-8.8-33.276-17.515-7.213-3.766-8.586-4.444-2.879-1.569-5.8-3.075a2.428,2.428,0,0,1-1.348-2.986,3.546,3.546,0,0,0,1.149,1.128q3.581,1.961,7.526,3.949a.383.383,0,0,0,.516-.172v-.007q2.58-5.531,5.366-11.207a15.458,15.458,0,0,1,.819-1.479.606.606,0,0,1,.165-.151.419.419,0,0,0,.179-.358Z" transform="translate(-8.465 -43.014)" fill="#eff2f6"/>
      <path id="Path_1201" data-name="Path 1201" d="M193.56,142.691a.167.167,0,0,1-.027-.241c0-.007.014-.014.021-.021a6.127,6.127,0,0,1,2.16-1.314c.564-.2.9.028,1.376.3a.109.109,0,0,1,.041.144.083.083,0,0,1-.034.034,21.68,21.68,0,0,1-2.078,1.307,1.25,1.25,0,0,1-1.452-.213Z" transform="translate(-60.362 -44.013)" fill="#dce2e9"/>
      <path id="Path_1202" data-name="Path 1202" d="M114.493,145.444c-.055-2.2-.062-4.4-.028-6.6l-.021-14.584q.114-6.377.076-12.754a22.612,22.612,0,0,0-.427-3.474,3.679,3.679,0,0,0-1.809-2.229,6.816,6.816,0,0,0-1.259-.695q-2.621-1.2-5.16-2.566-1.713-.826-9.734-4.974-14.457-7.461-28.866-15-11.351-5.933-13.793-7.251a2.906,2.906,0,0,0-1.513-.316.131.131,0,0,1-.117-.11.353.353,0,0,0-.069-.165,2.9,2.9,0,0,0-1.947,2.986q.021,3.643-.007,20.528l.021.227a23.694,23.694,0,0,1,3.639-.819,1.438,1.438,0,0,0,.64-1.238q.072-3.581.069-4.8a20.12,20.12,0,0,1,.041-4.073.559.559,0,0,1,.633-.557c1.08,0,2.16,0,3.24-.034a3.324,3.324,0,0,0,2.71-1.458.309.309,0,0,1,.186-.11,2.138,2.138,0,0,1,1.307.179q5.975,2.962,13.243,6.962a5.662,5.662,0,0,1,3.3,4.066c.695,2.889,3.928,3.976,6.3,5.146,2.05,1.011,2.607,1.438,4.079-.406A2.043,2.043,0,0,1,92,100.92c2.662,1.307,5.277,2.7,7.843,4.21-.482-2.057,2.023-1.458,2.869-.791a10.469,10.469,0,0,1,4.135,9.184c.956.351,2.208.1,2.717,1.135a4.285,4.285,0,0,1,.213,1.644q.01,4.324-.014,8.654l.021.461v2.119l.041,4.52v3.433l-.055,3.433a37.606,37.606,0,0,1,.014,4.4,2.316,2.316,0,0,1-1.307,2.016c-2.029,1.1-3.667.041-5.428-.894q-5.665-2.993-11.337-6.006a7.757,7.757,0,0,1-1.947.482L111.721,150.4a3.066,3.066,0,0,0,2.3-.165l-.241-.3a.167.167,0,0,1,.014-.193c.812-1.1.743-2.986.709-4.293Zm-4.582-23.321s-.028,0-.034.014A.053.053,0,0,1,109.912,122.122Zm-.076.089s.014-.021.021-.034a.1.1,0,0,0-.021.048v-.007Z" transform="translate(-15.527 -23.32)" fill="url(#linear-gradient-2)"/>
      <path id="Path_1203" data-name="Path 1203" d="M134.893,124.626q-.2.1-.165-.165v-.014a.167.167,0,0,0-.151-.172,2.206,2.206,0,0,1-1.169-.6.265.265,0,0,0-.358.021c-.076.083-.124.041-.131-.124,0-.048-.055-.089-.117-.1-.213-.034-.131-2.738-.138-4.121V107.454l.021-3.488-.021-4.059V82.351c.014-3.5-.048-7.017.069-10.519a16.213,16.213,0,0,0-.055-2.745c-.33-1.665-1.61-4.293-3.357-4.843-.165-.048-1.321-.433-1.4-.151-.021.062-.069.11-.117.1-1.472-.144-2.587-1.128-3.818-.537-1.018-2.5-3.206-3.44-5.263-4.527Q102.216,50.4,85.863,41.378a5.029,5.029,0,0,1-1.073-.791l-.014-.014a.1.1,0,0,1,.028-.138l1.046-.75a.25.25,0,0,0,.089-.179.516.516,0,0,1,.186-.378c-1.947-1.128-3.935-2.16-5.971-3.116a2.734,2.734,0,0,0-2.9-.041c-1.665.874-1.52,1.912-1.878,3.474a.717.717,0,0,1-.537.564,15.37,15.37,0,0,1-3.763.2,2.574,2.574,0,0,0-2.057,2.738q0,10.753-.048,21.505V68.93a.058.058,0,0,1-.076.028q-5.521-2.776-10.9-5.669c-1.74-.936-3.522-1.885-5.325-.791a.353.353,0,0,1,.069.165.131.131,0,0,0,.117.11,2.96,2.96,0,0,1,1.513.316Q56.815,64.4,68.162,70.34q14.416,7.533,28.866,15,8.018,4.138,9.734,4.974,2.539,1.372,5.16,2.566a8.373,8.373,0,0,1,1.259.695,3.66,3.66,0,0,1,1.809,2.229,24.7,24.7,0,0,1,.427,3.474q.041,6.377-.076,12.754l.021,14.584c-.034,2.2-.028,4.4.028,6.6.034,1.307.1,3.192-.709,4.293a.157.157,0,0,0-.014.193l.241.3c2.587-.722,2.559-3.123,2.415-5.3v-.007a.106.106,0,0,1,.1-.1q4.427-.062,8.854-.069c4,0,7.732-2.256,8.6-6.377l.089-1.41-.069-.1ZM125.1,78.2v-.034l.014-.014A.1.1,0,0,0,125.1,78.2Zm.034-.069a.048.048,0,0,1,.028-.014A.052.052,0,0,0,125.131,78.134Zm-3.969,27.848h-.034c.007,0,.021.007.028,0Zm-.055-.014a.1.1,0,0,0-.014-.021C121.093,105.955,121.1,105.962,121.106,105.969ZM81,68.359a.118.118,0,0,0,.144-.062c.034-.138-.041-.2-.213-.193a.156.156,0,0,1-.144-.1.344.344,0,0,0-.255-.22c-.083-.021-.083-.041-.014-.062l.475-.151c.234-.076.248-.172.048-.3a1.694,1.694,0,0,0-1.114-.268.213.213,0,0,1-.186-.069,2.752,2.752,0,0,0-1.5-.936,1.679,1.679,0,0,1-.826-.482,2.356,2.356,0,0,0-1.362-.743.226.226,0,0,0-.193.069.134.134,0,0,1-.234-.028c0-.007-.014-.014-.021-.021a.066.066,0,0,0-.1.014l-.083.124-.083,7.244v.028a.073.073,0,0,1-.1.041,21.605,21.605,0,0,1-3.109-1.61.349.349,0,0,1-.165-.31l.069-2.2q0-10.257.021-20.514c0-2.965,2.951-3.969,5.318-2.655q11.991,6.625,31.04,16.531a4.677,4.677,0,0,1,3.158,5.593.065.065,0,0,1-.014.048.3.3,0,0,1-.385.186,9.469,9.469,0,0,1-1.218-.509q-5.335-2.724-10.7-5.414a.271.271,0,0,1-.351.151.252.252,0,0,0-.2.021l-.832.44c-.33.172-.337.344-.021.5,4.767,2.428,9.507,5.008,14.385,7.23q2.972,1.476,5.951,2.944c2.655,1.307,4.155,2.724,4.19,5.806v17.3a2.488,2.488,0,0,1-1.672-.282.251.251,0,0,1-.124-.165,5.8,5.8,0,0,1-.11-1.541c.076-1.431.069-2.848.055-4.279.007-1.452.014-2.91.014-4.362,0-.8-.089-2.518-1.362-2.415h-.021a.069.069,0,0,1-.055-.089c.041-.193-.055-.323-.3-.378a2.3,2.3,0,0,1-1.011-.66c-.33-.33-.117-.543-.736-.626a1.784,1.784,0,0,1-.654-.213.261.261,0,0,1-.124-.165.514.514,0,0,0-.378-.385.23.23,0,0,1-.165-.124c-.131-.3.014-.475.44-.523h.021a.1.1,0,0,0,.055-.124,1.015,1.015,0,0,0-.3-.482c-.736-.537-2.133-1.727-3.006-1.851a.265.265,0,0,1-.179-.11.422.422,0,0,0-.612-.138.112.112,0,0,1-.151-.041.359.359,0,0,0-.5-.131c-.055.028-.076.014-.069-.048a.331.331,0,0,0-.034-.248.214.214,0,0,0-.186-.069h-.674v-.007c-.055,0-.1-.062-.1-.138a.363.363,0,0,0-.179-.358A1.2,1.2,0,0,0,108.62,76h0a.111.111,0,0,0,.014.158.564.564,0,0,1,.172.289,4.3,4.3,0,0,1,.936,1.768c.117.427-.048.66-.482.695a2.425,2.425,0,0,1-1.307-.323q-11.31-5.9-22.53-11.963a1.3,1.3,0,0,0,.564.475.213.213,0,0,1,.11.158.427.427,0,0,0,.083.179.052.052,0,0,1,.014.028.057.057,0,0,1-.041.069c-.619.117-1.183.323-1.809.5a1.066,1.066,0,0,0-.812,1.163L108.7,82.572a2.788,2.788,0,0,1,1.2,1.637c.158.571-.055.784-.626.64a6.979,6.979,0,0,1-1.637-.64q-3.023-1.661-6.088-3.261Q93.781,76.81,86,72.713c-1.651-.867-4.231-2.016-4.871-3.261-.089-.138-.523-1.156-.151-1.08Zm26.74,20.975Q95.326,82.72,82.878,76.174c-.633-.33-1.857-1.046-1.6-1.954a.48.48,0,0,1,.654-.378,8.243,8.243,0,0,1,1.782.681q6.243,3.312,12.472,6.625,6.274,3.343,12.562,6.666a2.14,2.14,0,0,1,1.176,2.511l-2.181-1Z" transform="translate(-16.417 -11.101)" fill="url(#linear-gradient-3)"/>
      <path id="Path_1204" data-name="Path 1204" d="M152.471,167.23a51.46,51.46,0,0,0,5.3,2.724,1.056,1.056,0,0,1-1.087.468.456.456,0,0,0-.22.021,27.906,27.906,0,0,0-3.027,1.658q-14.168,7.874-28.329,15.768a19.053,19.053,0,0,1-3.687,1.734c-3.075.8-4.85-.406-8.235-2.105-1.355-.681-2.683-1.376-4-2.084-.138-.076-.131-.131.021-.172,6.941-2,13.807-3.612,20.7-5.5a.16.16,0,0,0,.1-.144.389.389,0,0,1,.193-.337,3.066,3.066,0,0,0,2.3-.165c2.587-.722,2.559-3.123,2.415-5.3a.1.1,0,0,1,.1-.11h.007q4.427-.062,8.854-.069c4,0,7.732-2.256,8.6-6.377Z" transform="translate(-34.022 -52.185)" fill="#fefefe"/>
      <path id="Path_1205" data-name="Path 1205" d="M60.465,106.623a.346.346,0,0,1-.028-.22c.33-1.589,2.263-.681,3.144-.213q7.058,3.736,14.089,7.505a26.547,26.547,0,0,1,2.4,1.369,3.663,3.663,0,0,1,1.252,2.662,2.433,2.433,0,0,1-1.864-.227q-7.213-3.777-14.419-7.595c-1.4-.743-3.921-1.8-4.582-3.281Z" transform="translate(-18.838 -32.923)" fill="#feeee0"/>
      <path id="Path_1206" data-name="Path 1206" d="M60.58,96.835a1.059,1.059,0,0,1,1.053-.537,3.866,3.866,0,0,1,1.486.475q13.343,7.223,15.85,8.489a4.775,4.775,0,0,1,2.47,2.8c.4,1.527-1.335.6-1.8.358q-9.04-4.644-17.921-9.59a4.792,4.792,0,0,1-1.025-.784.838.838,0,0,1-.11-1.218Z" transform="translate(-18.823 -30.049)" fill="#feeee0"/>
      <path id="Path_1207" data-name="Path 1207" d="M62.962,114.535q3.374,1.826,6.769,3.619c1.231.654,3,1.438,2.931,3.1-.44.619-1.245.289-1.789.014q-3.612-1.816-7.21-3.687c-1.438-.743-2.9-1.479-3.3-3.075C60.258,113.166,62.356,114.2,62.962,114.535Z" transform="translate(-18.818 -35.524)" fill="#feeee0"/>
      <g id="Group_1764" data-name="Group 1764" transform="translate(0.062 74.924)">
        <path id="Path_1208" data-name="Path 1208" d="M41.775,177.264c-.316-.351-.626-.715-.915-1.094A14,14,0,0,0,41.775,177.264Z" transform="translate(-12.793 -129.899)" fill="none"/>
        <path id="Path_1209" data-name="Path 1209" d="M37.748,170.076c-.131-.475-.248-.936-.358-1.376C37.493,169.14,37.61,169.594,37.748,170.076Z" transform="translate(-11.711 -127.568)" fill="none"/>
        <path id="Path_1210" data-name="Path 1210" d="M37.206,167.907c-.034-.151-.062-.3-.1-.447C37.138,167.6,37.172,167.756,37.206,167.907Z" transform="translate(-11.623 -127.181)" fill="none"/>
        <path id="Path_1211" data-name="Path 1211" d="M43.193,178.753c-.337-.31-.66-.626-.963-.963C42.54,178.127,42.856,178.45,43.193,178.753Z" transform="translate(-13.221 -130.405)" fill="none"/>
        <path id="Path_1212" data-name="Path 1212" d="M72.864,195.8l-.144-.124A1.156,1.156,0,0,1,72.864,195.8Z" transform="translate(-22.736 -135.987)" fill="none"/>
        <path id="Path_1213" data-name="Path 1213" d="M44.839,180.195c-.289-.22-.564-.454-.839-.695C44.275,179.734,44.55,179.975,44.839,180.195Z" transform="translate(-13.773 -130.938)" fill="none"/>
        <path id="Path_1214" data-name="Path 1214" d="M73.311,196.282h0c-.041-.055-.083-.117-.131-.172A1.614,1.614,0,0,1,73.311,196.282Z" transform="translate(-22.879 -136.121)" fill="none"/>
        <path id="Path_1215" data-name="Path 1215" d="M77.964,198.413c1.706,0,3.412,0,5.118-.034.344,0,.8-.172.158-.468l-6.26-.041c.351.179.681.358.977.543Z" transform="translate(-24.065 -136.671)" fill="none"/>
        <path id="Path_1216" data-name="Path 1216" d="M72.94,195.86l.151.151A1.573,1.573,0,0,0,72.94,195.86Z" transform="translate(-22.804 -136.043)" fill="none"/>
        <path id="Path_1217" data-name="Path 1217" d="M38.708,173.58H38.55c.151.193.3.385.447.578h.069a6.48,6.48,0,0,1-.351-.578h0Z" transform="translate(-12.073 -129.091)" fill="none"/>
        <path id="Path_1218" data-name="Path 1218" d="M72.6,195.6a.824.824,0,0,0-.144-.089A1.646,1.646,0,0,1,72.6,195.6Z" transform="translate(-22.655 -135.934)" fill="none"/>
        <path id="Path_1219" data-name="Path 1219" d="M36.816,163.8c.048.3.11.612.172.929.028.144.062.3.1.447.028.131.062.275.1.413.1.44.22.894.358,1.376.179.626.371,1.28.6,1.974h0c.1.193.227.385.351.578h.681a.381.381,0,0,1,.014.53.18.18,0,0,0,0,.186c.124.172.255.33.385.5a14,14,0,0,0,.915,1.094l.021.021c.31.337.633.654.963.963.083.076.172.144.255.213.275.241.55.475.839.695.4.3.8.578,1.231.839,3.1,1.885,6.329,3.543,9.5,5.3,2.655,1.472,5.338,2.779,8.008,4.176a1.649,1.649,0,0,1,.144.089.121.121,0,0,1,.034.028,1.155,1.155,0,0,1,.144.124h0c.048.048.1.1.151.151,0,.007.014.014.021.021a1.614,1.614,0,0,1,.131.172,20.5,20.5,0,0,1,2.483,1.039l6.26.041a.251.251,0,0,1,.3-.048.109.109,0,0,0,.144-.041q.144-.227.392-.041a.381.381,0,0,0,.2.076.748.748,0,0,0,.461-.158.313.313,0,0,0,.1-.186c.158-.75,3.467-.385,4.066-.385a10.638,10.638,0,0,1,2.291.482.178.178,0,0,0,.186-.055l.482-.5a.229.229,0,0,1,.2-.062,8.394,8.394,0,0,0,2.9-.1,2.616,2.616,0,0,1,1.5.165c.351.144.482-.021.385-.5-.041-.227,0-.33.138-.316.055,0,.1-.021.1-.062.041-.323-1.087-.11-1.266-.062a.506.506,0,0,1-.4-.062l-1.431-.881a.171.171,0,0,1-.083-.172c.1-.482.33-.234.667-.33.275-.083.261-.138-.034-.165a.293.293,0,0,0-.172.062c-.11.083-.179.048-.213-.117a.422.422,0,0,0-.1-.193,1.548,1.548,0,0,0-.949-.427.306.306,0,0,1-.2-.083c-.241-.206-1.2-.543-1.094-.853q-16.614-8.8-33.276-17.515-7.2-3.766-8.586-4.444a9.975,9.975,0,0,0-.578,5.091Z" transform="translate(-11.494 -124.454)" fill="#b3d5cd"/>
        <path id="Path_1220" data-name="Path 1220" d="M175.658,123.027a.269.269,0,0,1,.007-.206,1.307,1.307,0,0,0,.055-.929,4.872,4.872,0,0,1-1.493,1.692c-.048.041-.007.206.117.5a.994.994,0,0,1,.117.674v.516c.117.4.117,1.527-.289,1.761-.819.461-1.637.922-2.442,1.4.31.172.475.344.5.516,1.156,9.15-8.125,15.3-14.88,18.843-13.277,6.962-26.4,14.213-39.68,21.161-.131.069-1.472.784-4.038,2.146-5.263,2.8-12.417,6.928-18.685,6.02-2.449-.358-4.891-1.823-7-3.233-.3-.2-.351-.413-.158-.64a9.706,9.706,0,0,1-6.226-.86q-6.862-3.632-13.731-7.251c-.11.31.846.647,1.094.853a.346.346,0,0,0,.2.083,1.548,1.548,0,0,1,.949.427.322.322,0,0,1,.1.193c.034.158.1.2.213.117a.253.253,0,0,1,.172-.062c.3.028.31.083.034.165-.344.1-.564-.144-.667.33a.166.166,0,0,0,.083.172l1.431.881a.506.506,0,0,0,.4.062c.179-.048,1.3-.261,1.266.062,0,.041-.048.069-.1.062-.138-.014-.179.089-.138.316.1.482-.034.647-.385.5a2.572,2.572,0,0,0-1.5-.165,8.07,8.07,0,0,1-2.9.1.229.229,0,0,0-.2.062l-.482.5a.178.178,0,0,1-.186.055,10.638,10.638,0,0,0-2.291-.482c-.6,0-3.908-.365-4.066.385a.313.313,0,0,1-.1.186.793.793,0,0,1-.461.158.382.382,0,0,1-.2-.076q-.248-.175-.392.041a.109.109,0,0,1-.144.041.261.261,0,0,0-.3.048c.64.3.186.461-.158.468-1.706.028-3.412.034-5.118.034-.3-.186-.626-.365-.977-.543a20.494,20.494,0,0,0-2.483-1.039c-.041-.055-.083-.117-.131-.172,0-.007-.014-.014-.021-.021a1.573,1.573,0,0,0-.151-.151h0l-.144-.124c-.014-.007-.021-.021-.034-.028a.825.825,0,0,0-.144-.089c-2.669-1.4-5.352-2.7-8.008-4.176-3.171-1.754-6.4-3.419-9.5-5.3-.427-.261-.839-.543-1.231-.839-.289-.22-.564-.454-.839-.695-.083-.076-.172-.138-.255-.213-.337-.3-.654-.626-.963-.963l-.021-.021c-.323-.351-.626-.715-.915-1.094h0a6.818,6.818,0,0,1-.764-.777,4.553,4.553,0,0,1-.316-.427h-.069c-.144-.193-.3-.378-.447-.571h.158a4.433,4.433,0,0,1-.6-1.974h0c-.131-.475-.255-.936-.358-1.376-.034-.138-.069-.275-.1-.413s-.069-.3-.1-.447c-.069-.323-.124-.633-.172-.929a10.133,10.133,0,0,1,.578-5.091q-2.879-1.569-5.8-3.075a2.428,2.428,0,0,1-1.348-2.986c-.516-2.036,1.348-2.869,3.02-3.8q5.717-3.168,11.427-6.384c.014-.007.158-.117.427-.316a.424.424,0,0,1,.674.138V126.4l-.028-2.917V110.85l-.007-1.713-.021-.227c-.2,3.247-.2,6.288-.337,9.439a16.6,16.6,0,0,0,.048,1.775.461.461,0,0,1-.062.206,4.449,4.449,0,0,0-.048,1.864.18.18,0,0,1-.076.172c-.468.206-.475-2.188-.433-2.47a12.692,12.692,0,0,0-.069-3.467c-.055-.3.062-1.307-.468-.894a.2.2,0,0,0-.062.186c.014.117-.034.151-.151.11a.361.361,0,0,0-.213-.028l-1.286.378a.154.154,0,0,1-.165-.055.556.556,0,0,0-.509-.158,20.236,20.236,0,0,1-4-.144c-.482-.062-.936-.33-1.548-.089a.493.493,0,0,1-.22.034,6.793,6.793,0,0,0-1.968.165.56.56,0,0,1-.316-.034c-.867-.4-1.5.275-2.435-.117a.326.326,0,0,0-.213-.014c-1.025.268-1.472-.523-2.4-.048a.226.226,0,0,1-.2.007,1.9,1.9,0,0,0-1.452-.1.375.375,0,0,1-.213.007,6.164,6.164,0,0,0-3.254.117.849.849,0,0,1-.695-.076c-.75-.427-2.3.22-3.165.172a19.2,19.2,0,0,0-5.015.385c-.557.117-1.046-.021-1.369.633-.2.406-.468.543-.8.4-.908-.392-.709.977-1.018.571-.654,12.245.7,24.814,6.646,35.759H6.94c.131.234.261.475.4.709h0c.069.117.144.227.213.344.138.234.282.461.427.695a67.293,67.293,0,0,0,17.577,19.6c14.536,10.808,32.471,16.29,50.426,17.446a105.071,105.071,0,0,0,39.068-5.3,97.83,97.83,0,0,0,50.158-36.647,61.392,61.392,0,0,0,9.714-20.2c.482-1.933,1.362-5.731.77-7.23Z" transform="translate(-0.062 -108.91)" fill="#feead4"/>
        <path id="Path_1221" data-name="Path 1221" d="M73.171,196.1l-.021-.021C73.15,196.087,73.164,196.094,73.171,196.1Z" transform="translate(-22.87 -136.112)" fill="#feead4"/>
        <path id="Path_1222" data-name="Path 1222" d="M72.7,195.668a.271.271,0,0,1-.034-.027A.121.121,0,0,1,72.7,195.668Z" transform="translate(-22.72 -135.975)" fill="#feead4"/>
        <path id="Path_1223" data-name="Path 1223" d="M37.346,168.523c-.034-.138-.069-.282-.1-.413C37.278,168.248,37.312,168.385,37.346,168.523Z" transform="translate(-11.667 -127.384)" fill="#feead4"/>
        <path id="Path_1224" data-name="Path 1224" d="M39.995,174.943a.373.373,0,0,0-.014-.523H39.3a4.551,4.551,0,0,0,.316.427,6.821,6.821,0,0,0,.764.777h0c-.124-.165-.261-.323-.385-.5a.18.18,0,0,1,0-.186Z" transform="translate(-12.307 -129.353)" fill="#feead4"/>
        <path id="Path_1225" data-name="Path 1225" d="M72.93,195.86Z" transform="translate(-22.801 -136.043)" fill="#feead4"/>
        <path id="Path_1226" data-name="Path 1226" d="M37.032,167.039c-.062-.316-.124-.633-.172-.929C36.908,166.406,36.963,166.722,37.032,167.039Z" transform="translate(-11.545 -126.76)" fill="#feead4"/>
        <path id="Path_1227" data-name="Path 1227" d="M46.461,181.349c-.427-.261-.839-.543-1.231-.839C45.622,180.806,46.035,181.088,46.461,181.349Z" transform="translate(-14.157 -131.253)" fill="#feead4"/>
        <path id="Path_1228" data-name="Path 1228" d="M43.885,179.413c-.083-.076-.172-.144-.255-.213C43.713,179.276,43.8,179.344,43.885,179.413Z" transform="translate(-13.658 -130.845)" fill="#feead4"/>
        <path id="Path_1229" data-name="Path 1229" d="M37.91,170.7a4.484,4.484,0,0,0,.6,1.974h0c-.227-.695-.42-1.348-.6-1.974Z" transform="translate(-11.873 -128.192)" fill="#feead4"/>
        <path id="Path_1230" data-name="Path 1230" d="M42.221,177.781l-.021-.021Z" transform="translate(-13.212 -130.395)" fill="#feead4"/>
      </g>
    </g>
  </g>
</svg>
