<?xml version="1.0" encoding="UTF-8"?>
<svg id="a" data-name="Layer 1" xmlns="http://www.w3.org/2000/svg" xmlns:xlink="http://www.w3.org/1999/xlink" viewBox="0 0 245.58 219.21">
  <defs>
    <linearGradient id="ao" x1="-381.26" y1="-834.62" x2="-380.19" y2="-834.62" gradientTransform="translate(6094.31 -36513.5) scale(15.43 -43.92)" gradientUnits="userSpaceOnUse">
      <stop offset="0" stop-color="#db5f45"/>
      <stop offset=".41" stop-color="#d8424b"/>
    </linearGradient>
  </defs>
  <path id="b" data-name="blob" d="m191.63,181.75c-38.04,24.41-89.57,23.12-128.19.68C24.65,160.18-1.25,116.41,1.27,79.1,3.6,41.81,34.34,10.79,61.84,2.47c27.67-8.33,52.29,6.01,87.83,19.09,35.53,12.89,82.16,24.5,93.28,55.27,10.95,30.77-13.45,80.52-51.32,104.92Z" style="fill: #d9eee7;"/>
  <g id="c" data-name="step05">
    <g id="d" data-name="help-desk">
      <path id="e" data-name="Path 937" d="m174.88,25.64c2.42.54,4.81,1.17,7.19,1.89l-.26.81c-.13.28-.08.61.14.83,2.08,1.71,3.4,4.17,3.66,6.85,0,2.28-.14,4.56-.39,6.82,0,.07-.05.13-.13.15-1.9.46-3.41,1.9-3.96,3.77-.61,1.82-.4,4.11,1.22,5.27,1.6.96,3.64.72,4.98-.58,2.39-2.23,2.99-6.07-.12-8.15-.12-.08-.19-.22-.18-.36.13-1.86.25-3.77.37-5.76.22-3.68-1.37-6.49-3.85-9.1,7.75,2.87,9.41,8.96,11.05,16.27.95,4.36,1.36,8.82,1.22,13.28.07,2.4-.98,4.7-2.84,6.22-2.38,2.09-5.98,1.93-8.17-.36l-.13-6.29.13-2.69c0-.14-.1-.25-.24-.26-5.09-.32-6.3-4-5.23-8.33.02-.07,0-.15-.05-.21l-1.84-1.95s-.11-.04-.15,0c0,0,0,.01,0,.02-.4.53-.91.98-1.5,1.3-.3.17-.67.17-.96,0-1.13-.6-1.68-1.91-1.33-3.14.01-.08-.04-.16-.12-.17h-.03c-2.32.03-4-1.17-5.03-3.63-.08-.18-.28-.26-.46-.18-.01,0-.02,0-.03.02-1.53.83-3.13,1.55-4.77,2.14-1.37-.82-2.6-1.85-3.66-3.04-4.28-5.04-.66-11.84,5.41-12.66,1.32-.1,2.64-.03,3.94.21,2.05.32,4.08.66,6.11,1.04h0Z" style="fill: #0b122f;"/>
      <path id="f" data-name="Path 938" d="m183.55,28.09c2.47,2.61,4.07,5.42,3.85,9.1-.12,1.98-.24,3.9-.37,5.76-.01.15.06.28.18.36,3.1,2.08,2.51,5.92.12,8.15-1.33,1.3-3.38,1.54-4.98.58-1.62-1.17-1.82-3.44-1.22-5.27.54-1.88,2.06-3.32,3.96-3.77.07-.02.12-.08.13-.15.26-2.26.39-4.54.39-6.82-.26-2.68-1.58-5.14-3.66-6.85-.22-.22-.28-.55-.14-.83l.26-.81c.54,0,1.07.21,1.48.56Z" style="fill: #fdc369;"/>
      <path id="g" data-name="Path 939" d="m50.28,34.39c-.82-.6-1.6-1.27-2.32-1.99-.73-.46-1.57-.7-2.43-.71-.08.03-.16.04-.24.04-.4-.02-1.15-.02-2.24,0-1.23,0-2.43.37-3.45,1.05,3.2-3.31,8.39-1.97,10.68,1.61h0Z" style="fill: #020204;"/>
      <path id="h" data-name="Path 940" d="m50.29,34.39c.44.8.75,1.66.9,2.56.04.21.18.39.38.47,1.29.54,2.26,1.64,2.64,2.99.04.14.2.22.34.18,0,0,0,0,0,0h0c7.41-2.72,17.26.39,20.39,8.04l-6.51,2.37c-.14.05-.22.2-.17.35.32,1.08.23,2.24-.25,3.26-.27.58-.58.96-.12,1.56,1.05,1.41,1.61,3.13,1.57,4.89-.02,3.25-1.56,5.27-4.62,6.07l-.9.03c-4.32-.21-6.91-4.07-6.87-8.16.02-2.38-2.9-1.83-2.3.79.66,2.89,1.25,4.84-.26,7.53-.87,1.28-2.13,2.25-3.6,2.76-.1.04-.16.13-.14.24.68,4.15,1.9,8.19,3.61,12.03l.37.93c-.07.02-.12.06-.16.12-.02.08,0,.16.06.21.44.53.28.78-.5.76l-1.17-2.56c-1.16-3.16-2.09-6.4-2.78-9.7-.09-.4-.17-.4-.27,0-.23.91-.65,1.76-1.25,2.49-2.06,2.07-5.14,2.74-7.87,1.7-.75-.26-1.52-.47-2.31-.6-.67.02-1.33.13-1.96.33-.07.02-.14,0-.18-.06-.72-1.07-2.3-.23-3.2-.09-.96.17-1.94-.05-2.73-.62-.16-.11-.28-.11-.39.02-2.53-1.72-3.73-4.81-3.04-7.79.36-1.95,2.67-3.2,1-5.35-2.55-3.29-4.59-6.73-3.29-11.1.5-1.72,1.55-3.22,2.99-4.29,1.48-1.12,1.41-2.01.91-3.63-1.95-6.27,3.87-10.66,9.62-8.83.07.03.14,0,.17-.07.3-.55.7-1.03,1.17-1.44,1.02-.68,2.22-1.05,3.45-1.05,1.11-.03,1.85-.04,2.24,0,.08,0,.16,0,.24-.04.86.01,1.7.26,2.43.71.72.72,1.5,1.39,2.32,1.99h0Zm13.39,20.08c-1.34-5.9-2.63-11.38-9.16-13.48-.61-.2-.32-.11-.46.4-.11.39-.1.8.02,1.18.02.07.08.13.15.16,5.64,2.2,6.2,6.63,7.58,11.76.03.11-.03.23-.13.28-4.22,2-2.99,8.75.88,10.34,1.84.85,4.03.18,5.07-1.56,1.67-2.93-.11-8.42-3.81-8.96-.07,0-.13-.06-.15-.13h.01Z" style="fill: #0b122f;"/>
      <path id="i" data-name="Path 941" d="m184.68,57.21c-.63,1.24-1.46,2.38-2.46,3.35-2.06,1.93-4.81,2.96-7.63,2.85-.08,0-.14.06-.14.14h0c0,.88.03,1.69.06,2.42,0,.06-.23,1.02-.29.11v-2.42c0-.12-.1-.21-.21-.23-2.6-.27-5.39-.27-6.88-2.7-1.18-1.92-1.41-3.86-1.9-6.82-.77-4.59-1.49-9.19-2.14-13.81,1.64-.59,3.24-1.3,4.77-2.14.17-.09.38-.03.47.13,0,0,0,0,0,0,0,.01,0,.02.02.03,1.03,2.46,2.71,3.67,5.03,3.63.08,0,.15.06.15.14v.03c-.36,1.23.19,2.54,1.33,3.14.29.18.66.18.96,0,.59-.32,1.1-.76,1.5-1.3.03-.05.1-.06.15-.03,0,0,.01,0,.02,0l1.84,1.95c.05.06.07.13.05.21-1.07,4.34.14,8.01,5.23,8.33.14,0,.24.12.24.26,0,0,0,0,0,0l-.13,2.69h-.02Z" style="fill: #fdb597;"/>
      <path id="j" data-name="Path 942" d="m63.82,54.61c3.7.53,5.5,6.02,3.81,8.96-1.04,1.74-3.23,2.42-5.07,1.56-3.89-1.59-5.1-8.35-.88-10.34.11-.05.17-.17.13-.28-1.39-5.13-1.94-9.56-7.58-11.76-.07-.03-.12-.09-.15-.16-.13-.38-.13-.8-.02-1.18.14-.51-.15-.61.46-.4,6.54,2.11,7.83,7.58,9.16,13.48.02.07.08.13.15.13h-.01Z" style="fill: #f1f5f7;"/>
      <path id="k" data-name="Path 943" d="m74.94,48.62c.79,2.4,1.22,4.92,1.26,7.45.07,3.45.07,7.52,0,12.2-.1,6.03-4.3,8.16-9.7,6.31-1.01-2.37-1.57-4.9-1.65-7.47,3.06-.79,4.6-2.81,4.62-6.07.03-1.76-.52-3.48-1.57-4.89-.46-.59-.15-.97.12-1.56.48-1.02.57-2.18.25-3.26-.04-.14.04-.29.17-.35l6.51-2.37h0Z" style="fill: #fcb195;"/>
      <path id="l" data-name="Path 944" d="m184.68,57.21l.13,6.29c.06,1.02.25,2.03.56,3-2.85,2.92-7.43,4.45-11.29,2.55.19-.34.17-.76-.06-1.07.35.06.21-1.66.19-1.89.06.92.29-.03.29-.11-.03-.74-.05-1.55-.06-2.42,0-.08.06-.14.14-.14h0c2.82.1,5.57-.92,7.63-2.85,1-.97,1.83-2.1,2.46-3.35h0Z" style="fill: #fdb597;"/>
      <path id="m" data-name="Path 945" d="m63.94,67.14c.06,2.41.48,4.79,1.26,7.08-1.15-.2-2.28-.5-3.39-.88v-.13c0-.08-.05-.14-.13-.17-2.98-1.03-5.51-3.06-7.16-5.74,1.51-2.69.92-4.64.26-7.53-.6-2.62,2.32-3.17,2.3-.79-.04,4.09,2.54,7.94,6.87,8.16h0Z" style="fill: #fcb195;"/>
      <path id="n" data-name="Path 946" d="m174.03,67.97c.22.32.25.73.06,1.07-3.14,2.32-6.59,3.92-9.61,6.36-2.04,1.69-3.84,3.64-5.36,5.8-2.46,3.32-4.45,6.13-5.95,8.42-.11-2.63.73-8.36-3.1-9.04-2.31-.41-5.74-.95-10.31-1.63l-15.17-2.49-1.29-.32c0-3.71.02-7.42.06-11.14-.05-.99.09-1.98.41-2.91.88-1.83,2.61-1.84,4.53-1.53,15.26,2.41,30.51,4.88,45.75,7.4h0Z" style="fill: #071c2f;"/>
      <path id="o" data-name="Path 947" d="m185.38,66.49c.16.06.29.17.37.32,0,.31-.19.58-.48.68-.34.13-.31.48.1,1.04,1.93,2.52,3.32,5.41,4.07,8.5.64,4.01.71,8.09.2,12.11-.38,5.69-1.59,11.3-3.59,16.65-3.17,7.84-12.94,4.36-17.92,1.04-.44-.34-.95-.57-1.5-.66-3.24-2.09-3.07-6.5-5.23-9.29-1.69-2.07-3.67-3.9-5.86-5.43-.72-.56-1.53-1-2.39-1.31v-.5c1.52-2.29,3.5-5.1,5.96-8.42,1.52-2.16,3.33-4.11,5.36-5.8,3.02-2.43,6.47-4.04,9.61-6.36,3.85,1.91,8.44.37,11.29-2.55h0Z" style="fill: #fdc668;"/>
      <path id="p" data-name="Path 948" d="m185.75,66.81c1.25,1.22,2.68,2.24,4.25,3.01.43.35,1.18.91,2.28,1.67,2.6,1.88,4.89,4.15,6.8,6.74,1.52,2.13,2.31,4.7,2.23,7.32.43,11.56-.88,24.15-4.94,35.09,0-.17-.05-.22-.14-.17-.06.05-.1.11-.13.18l-.26.5c-1.15,1.52-2.58,2.8-4.21,3.79-2.16,1.41-4.7,2.12-7.28,2.01-3.06-.2-6.04-.99-8.8-2.33.08-.27-.09-.56-.36-.63-.06-.02-.12-.02-.19-.02-.08,0-.15-.04-.19-.11-.3-.39-.83-.47-1.12-.65-4.23-2.7-7.88-6.21-10.74-10.33-.04-.07-.06-.15-.04-.22l.25-1.46c1.37-1.53,2.54-3.23,3.47-5.06.54.1,1.06.32,1.5.66,4.98,3.33,14.74,6.81,17.92-1.04,2-5.35,3.2-10.95,3.59-16.65.51-4.03.44-8.11-.2-12.11-.75-3.09-2.13-5.98-4.07-8.5-.4-.55-.43-.89-.1-1.04.29-.1.48-.37.48-.68h0Z" style="fill: #ff6a47;"/>
      <path id="q" data-name="Path 949" d="m64.84,67.11c.08,2.57.64,5.11,1.65,7.47.24.52,2.06,4.53,2.72,4.03.16-.13.4-.11.53.06,0,.02.02.03.03.05l2.09,3.66c.08.13.03.3-.1.38,0,0,0,0,0,0-.03.02-.07.03-.11.04-.48.07-.24.9-.21,1.26.34,5.5.72,11.01,1.15,16.51-.62-.54-.98-1.31-1.01-2.12-.49-4.79-.83-9.58-1.02-14.39-.02-.38-.11-.76-.28-1.11-.45-.92-.98-1.79-1.59-2.61-1.31-1.95-2.48-3.99-3.48-6.11-.78-2.28-1.2-4.67-1.26-7.08l.9-.03h-.02Z" style="fill: #121122;"/>
      <path id="r" data-name="Path 950" d="m54.51,67.3c1.65,2.68,4.18,4.71,7.16,5.74.07.02.12.09.13.17v.13c-1.16,2.54-1.6,5.34-1.27,8.11.06.57.44,1.06.98,1.26-2.37.46-4.81.33-7.12-.37-1.71-3.84-2.93-7.88-3.61-12.03-.02-.1.04-.2.14-.24,1.46-.51,2.73-1.48,3.6-2.76h0Z" style="fill: #223f86;"/>
      <path id="s" data-name="Path 951" d="m206.25,123.73l-9.81-1.91c-.18-.04-.3-.22-.26-.41,0,0,0,0,0,0v-.02l.18-.75c4.05-10.94,5.36-23.53,4.94-35.09.08-2.62-.71-5.19-2.23-7.32-1.91-2.58-4.2-4.85-6.8-6.74-1.1-.77-1.86-1.33-2.28-1.67,6.16.93,10.43,1.65,12.8,2.15,3.74.78,3.45,3.39,3.48,6.92.14,15.17-.02,29.91-.02,44.84h0Z" style="fill: #071c2f;"/>
      <path id="t" data-name="Path 952" d="m106.96,73.6c.53.74,1.11,1.44,1.75,2.09,8.55,9.05,17.12,18.08,25.71,27.09.29.31.7.4.71.98-9.69-1.66-19.38-3.34-29.07-5.05-.83-.14-1.56-.29-1.37.89.01.08.06.14.13.18.34.14.7.24,1.07.29,10.38,1.82,20.78,3.62,31.18,5.39.23.73.3,1.51.2,2.27-10.61-1.84-21.21-3.69-31.81-5.55-.7-.13-.99.15-.86.83.03.25.23.45.48.48,9.84,1.7,19.58,3.39,29.21,5.09.49.09,2.93.87,3.2.06.06.13.19.09.41-.11.06-.05.15-.05.21,0,4.41,4.74,8.81,9.45,13.22,14.13.09.14.16.29.18.46.02.09.08.14.14.14.26,0,.17-.7.18-.86l-.02,3.28c-.73-.1-2.55-.42-5.46-.96-11.49-2.12-30.36-5.5-56.61-10.16l-.03-6.72c-.06-10.65-.04-21.3.03-31.94.02-3.36.88-4.98,4.54-4.39,4.23.67,8.47,1.36,12.7,2.08h0Zm30.38,38.19c.05-.28-.14-.55-.43-.6h0s-31.75-5.54-31.75-5.54c-.28-.05-.55.14-.6.43,0,0,0,0,0,0l-.06.32c-.05.28.14.55.43.6h0s31.75,5.54,31.75,5.54c.28.05.55-.14.6-.43,0,0,0,0,0,0l.06-.33Z" style="fill: #63a998;"/>
      <path id="u" data-name="Path 953" d="m53,81.78c-1.7-.46-3.3-1.23-4.71-2.29-.33-.22-.37-.46-.11-.73.06-.05.1-.13.11-.21.26-1.32.4-2.66.42-4,.59-.73,1.02-1.58,1.25-2.49.1-.4.18-.4.27,0,.69,3.29,1.62,6.54,2.78,9.7h0Z" style="fill: #223f86;"/>
      <path id="v" data-name="Path 954" d="m106.96,73.6c3.65.61,7.3,1.2,10.95,1.84,1.78.31,3.57.55,5.37.72l1.29.32c-.39.09-.38.17,0,.22,5.01.8,10.03,1.61,15.05,2.42,4.87.73,7.74,1.22,8.62,1.47,1.86.61,3.2,2.24,3.44,4.18.09.89.13,1.79.12,2.69.16,8.98.02,19.65.04,34.94,0,.17.08.86-.18.86-.07-.01-.13-.07-.14-.14-.03-.16-.09-.32-.18-.46-4.41-4.67-8.81-9.39-13.22-14.14-.06-.06-.15-.06-.21,0-.21.2-.36.24-.41.11.14-.32.04-.69-.24-.9.1-.76.03-1.53-.2-2.27,1.36-1.57-1.16-1.55-1.92-1.7-.02-.58-.42-.67-.71-.98-8.58-9.01-17.15-18.04-25.71-27.09-.63-.65-1.22-1.35-1.75-2.09h0Z" style="fill: #488975;"/>
      <path id="w" data-name="Path 955" d="m38.51,75.66c-2.64,1.62-5.99,1.45-8.46-.42.11-.12.23-.13.39-.02.79.56,1.78.79,2.73.62.9-.14,2.48-.99,3.2.09.04.06.11.09.18.06.63-.2,1.29-.31,1.96-.33h0Z" style="fill: #020204;"/>
      <path id="x" data-name="Path 956" d="m124.56,76.46l15.17,2.49-.12.17c-5.01-.82-10.03-1.63-15.05-2.42-.39-.06-.39-.13,0-.22h0Z" style="fill: #7296db;"/>
      <path id="y" data-name="Path 957" d="m47.34,79.54c7.54,10.13,9.83,22.37,10.03,34.84.04,2.53,5.18,6.32,7.16,7.61.19.13.39.24.61.32.07.03.12.08.16.15.05.09.16.13.25.08.01,0,.02-.01.03-.02.22.32.57.54.96.6.78.66,1.67,1.18,2.63,1.53,2.01,1.01,4.06,1.92,6.16,2.72,1.36.63,2.76,1.16,4.2,1.58.26.04.39.14.4.31l-1.45,3.32c-7.28-1.73-14.11-4.98-20.05-9.53-4.93-3.73-9.3-8.51-11.6-14.18-1.84-4.91-3.17-9.99-3.96-15.17-.24-1.33-1.37-6.79-3.85-4.19-6.82,7.16-8.29,17.97-4.59,26.97,3.73,9.06,11.1,14.74,19.84,18.65.73.33,1.49.61,2.27.83.06.02.1.08.1.15l-.02.16c-10.16,3.53-20.36,6.97-30.59,10.31-.19-.51,1.61-7.61,1.89-8.17.62-1.23,2.25-2.75,2.84-4.34.48-1.5.64-3.09.47-4.66-.47-7.76-.45-15.55.05-23.31.31-3.23.78-6.44,1.42-9.62.34-.88.58-1.55.71-1.98,1.98-6.46,7.07-11.85,12.75-15.24.53-.32,1-.66,1.19.25v.02Z" style="fill: #ff6a47;"/>
      <path id="z" data-name="Path 958" d="m139.73,78.95c4.57.68,8.01,1.22,10.31,1.63,3.84.68,3,6.41,3.1,9.04v12.63c-.02,5.83-.17,10,.07,13.07.01.75.59,1.37,1.33,1.44l.06,3.63c-.03.3.2.57.5.6l20.43,3.63c2.75,1.34,5.74,2.13,8.8,2.33,2.58.11,5.12-.6,7.28-2.01,1.11.11,2.22.11,3.33,0,.08,0,.15-.06.17-.13.4-1.18.64-2.42.7-3.66l.26-.5c.03-.07.08-.13.13-.18.09-.05.13.02.14.17l-.18.75c-.05.19.06.38.24.43h.02l9.81,1.91,5.22.97c.07,0,.11.02.13.07v34.63l-5.58,1.08c-.05.01-.11-.02-.12-.08,0,0,0,0,0,0v-.02l-.07-11.06c0-.11-.08-.2-.18-.21l-1.44-.06,3.75-4.41c.19-.22.13-.32-.14-.31l-2.12.11c.51-1.68.13-1.99-1.15-.92-1.06.89-2.04,1.88-2.92,2.95-.14.17-.39.21-.58.08-.13-.06-.28-.08-.42-.05.16-3.36.13-6.72-.07-10.07.19-.75.23-1.53.12-2.3-.01-.07-.07-.13-.14-.14-.85-.19-1.74-.16-2.58.09-5.1,1.7-4.5,6.53-2.73,10.49.72.86,1.21,1.9,1.41,3.01.06.32.36.68-.14.86l-2.44-.06c-.07,0-.12-.06-.12-.12,0,0,0,0,0-.01h0l.02-3.95c0-.09-.07-.16-.17-.17h-3.18c-.07,0-.13.05-.13.12l-.06,1.4c-2.19,2.75-4.13,5.68-5.8,8.76-.23.44-.21.97.06,1.38.01.07.05.14.11.19.15.38.36.74.62,1.07,1.72,2.16,3.5,4.3,5.34,6.41l-14.22,2.61c.93-1.22,1.93-2.39,2.99-3.5.45-.45.86-.96,1.21-1.5,2.12-3.51.22-7.44-3.92-7.47-.13,0-.22-.11-.22-.24l-.06-2.09c0-.09-.08-.16-.17-.16l-9.26-.02c-.09,0-.16.07-.16.16h0v15.57s-1.45,0-1.45,0l.05-11.26c.04-.39-.25-.73-.63-.76-.01,0-.02,0-.03,0-.8-.11-1.62-.1-2.42.02-.08,0-.15.05-.17.13-.11.29-.13.61-.05.91-3.79.37-5.89,3.25-4.11,6.79.98,1.64,2.28,3.07,3.82,4.19.13.41.16.83.11,1.26-.5.15-1.03.2-1.56.14-.53-.11-.75.14-.64.76.04.22.05.45.02.68-.05.36.15.62.58.77,1.66.58,3.18,1.5,4.47,2.69l-52.66-9.49-44.12-7.79c-14.81-2.71-29.63-5.32-44.47-7.83-.04,0-.09-.04-.14-.11.73-.6,1.58-1.04,2.5-1.29,10.23-3.35,20.42-6.78,30.59-10.31l.2-.05c.07-.02.15-.03.22-.02,3.85,1.29,7.8,2.29,11.8,3.01-3.92,1.33-7.83,2.59-11.74,3.77-1.15.35-2.69.79-2.74,2.21.11,1.01.91,1.8,1.92,1.9,3.65.59,7.33,1.64,10.96,2.42,1.77.46,3.64.44,5.4-.07,6.28-1.92,15.49-4.91,27.65-8.96,1.3.2,2.59.47,3.85.83,1.12.32,3.59.55,2.26-1.53-.07-.11-.04-.15.09-.12,1.15.27,3.06.78,4.12.36.88-.34.99-1.08.33-2.23.32-.09,2.1-.17,1.89-.64-.07-.17-.02-.21.14-.15.91.35,1.93-.1,2.28-1.01.21-.55.13-1.18-.21-1.66-1.14-1.45-2.37-2.83-3.7-4.11-.91-1.48-2.01-2.95-3.82-3.3-2.76-.54-5.16-1.21-6.85-1.46-1.26-.16-2.5-.47-3.7-.9l-5.21-2.32c-2.59-.85-5.12-1.89-7.57-3.1-.4-.2-.74-.52-.95-.92-1.21-2.25-2.47-4.48-3.77-6.67l10.24-3.75.03,6.72c0,2.04-.45,4.91,1,6.57.95,1.09,2.97,1.2,4.51,1.46,5.01.83,13.47,2.36,25.38,4.6-.13,2.21-.14,4.43-.02,6.65l-.06,4.1c-.92.29-1.7.92-2.17,1.76-.03.04-.02.1.03.13,0,0,0,0,0,0,.01,0,.02,0,.03.02l2.17.32.27.54c.04.07.1.12.17.14.99.32,2,.57,3.03.77,3.36.66,6.77,1.34,10.25,2.04.08.02.16-.04.18-.12,0,0,0,0,0,0v-.03l.05-7.18.08-6.6.95.12c.07,0,.13.07.13.14l.06,3.14c-.03.3.17.57.46.64.93.28,1.87.5,2.82.68,10.1,1.89,20.19,3.81,30.27,5.77.83.18,1.68.3,2.53.33,2.21.02,3.29-.62,6.07-1.73,2.86-1.15,5.71-2.31,8.56-3.51,1.15-.48,1.89-.76,2.17-1.88.32-1.28-.43-1.79-1.59-2.01-11.16-2.12-22.38-4.24-33.66-6.35-.12-.02-.23.05-.25.17,0,0,0,0,0,0v.04c-.02,1.3-.04,2.63-.06,3.97-.02,1.7-.41,2.88-2.23,3.06-.08,0-.1-.02-.04-.09,1.33-1.64,1.04-3.93.99-6.57l.02-3.28c-.02-15.28.12-25.96-.04-34.94,0-.9-.03-1.8-.12-2.69-.23-1.94-1.57-3.58-3.44-4.18-.88-.24-3.75-.73-8.62-1.47l.12-.17.02.03Zm-3.29,64.58c.37.27.84.38,1.29.3.57-.1,1.13-.25,1.68-.45,1.72-.6,3.45-1.2,5.17-1.81.39-.14.39-.25-.02-.33l-8.9-1.79c-.08-.01-.16.04-.18.12v.03c0,1.41-.32,3.03.96,3.94h0Zm-19.7,5.14c0,3.32-.01,6.64,0,9.96,0,1.42-.15,2.54,1.58,2.54,2.44,0,4.95-.11,7.38.06,2.2.15,2.58-.63,2.56-2.68-.03-3.28-.05-6.55-.06-9.83.02-1.41.51-3.52-1.63-3.55-2.73-.02-5.46-.03-8.2-.03-1.96,0-1.71,1.84-1.63,3.52h0Z" style="fill: #fec179;"/>
      <path id="aa" data-name="Path 959" d="m32.68,96.51c-.64,3.18-1.11,6.39-1.42,9.62-.5,7.76-.51,15.55-.05,23.31.17,1.57.02,3.16-.47,4.66-.6,1.59-2.23,3.11-2.84,4.34-.28.57-2.09,7.66-1.89,8.17-.51.19-2.1.7-2.5,1.29-.49.32-.36,2.7-.3,3.4l-12.73,4.37c-.13.04-.23.16-.24.3-.9,6.42-1.78,12.87-2.64,19.36-.57,4.34-1.33,8.21.7,12.16.03.07.11.09.18.06,0,0,0,0,0,0,.02,0,.02-.02.03-.02,1.32-1.38,2.83-2.56,4.49-3.51,4.38-2.3,8.94-4.23,13.64-5.77.04-.01.07-.06.06-.11,0-.01,0-.02-.02-.03-5.25-5.61-6.33-13.02-4.56-20.38,1.16,0,2.32-.09,3.46-.29,5.16-.79,9.58-1.64,13.24-2.56.28,0,.55.04.83.09,9.14,1.67,18.29,3.27,27.45,4.82l45.03,8.01c.23.09.48.15.73.19,39.74,7.19,79.49,14.25,119.2,21.56v29.66H68.78l-.05-25.59c0-.06-.02-.11-.07-.14-.05,0-.08.02-.1.12-.47,2.11-2.53,3.4-4.34,4.17-7.07,3.01-14.87,3.22-22.39,1.94-.08-.01-.16.04-.17.12,0,0,0,0,0,0v14.78c0,.07.05.14.13.16,1.95.46,3.81,1.21,5.54,2.23,1.12.61,2.17,1.35,3.14,2.19l-23.01.02c2.55-2.05,5.48-3.59,8.62-4.53.07-.02.12-.09.12-.16l-.03-15.6c0-.07-.05-.13-.12-.14-6.94-1.25-13.89-2.45-20.86-3.59-2.16-.36-3.44-.59-3.82-.71-4.25-1.28-7.12-5.33-7.84-9.62-.39-3.11-.28-6.27.32-9.35.86-6.21,1.71-12.38,2.55-18.52.02-.12-.06-.23-.18-.24,0,0,0,0,0,0h-.06c-2.57.64-5.17-.94-5.81-3.51,0-.04-.02-.08-.03-.12-1.34-4.51,2.26-10.01,4.08-13.99.63-1.27,1.03-2.64,1.17-4.04.32-8.65-1.64-16.9-2.68-26.02-.55-6.37-1.25-20.75,5.63-24.46.26-.14,1.42-.58,3.47-1.3,2.56-.92,5.14-1.81,7.72-2.69,1.39-.53,2.81-.94,4.26-1.25,5.09-.34,7.23,7.22,7.74,10.88.38,2.72.7,4.81.99,6.26h0Z" style="fill: #071c2f;"/>
      <path id="ab" data-name="Path 960" d="m48.28,79.49c1.41,1.06,3.01,1.84,4.71,2.29l1.17,2.56c2.66,6.03,5.28,12.09,7.85,18.16,1.93,4.57,3.26,8.17,3.4,13.04.06,2.33.12,4.65.17,6.98-.13.07-.23.06-.28-.06-.03-.07-.09-.12-.16-.15-.21-.08-.42-.19-.61-.32-1.97-1.3-7.12-5.07-7.16-7.61-.2-12.49-2.49-24.71-10.03-34.85.31.08.64.07.94-.05Z" style="fill: #fb8c9c;"/>
      <path id="ac" data-name="Path 961" d="m61.51,82.69c3.25,5.14,6.44,10.32,9.6,15.54.11.14.28.22.46.2.03.82.39,1.59,1.01,2.12.7,1.09,1.32,2.22,1.86,3.4-.04,2.44-.61,4.84-1.66,7.04-1.07,2.25-2.56,3.92-2.72,6.56l-.89,7.1c-.96-.36-1.85-.88-2.63-1.53-.04-2.45-.09-4.89-.14-7.34-.08-3.77-.88-7.49-2.35-10.97-3.05-7.21-6.14-14.4-9.28-21.56l-.37-.93c2.31.7,4.75.82,7.12.37h-.01Z" style="fill: #63a998;"/>
      <path id="ad" data-name="Path 962" d="m54.76,83.26c3.14,7.16,6.24,14.35,9.28,21.56,1.48,3.47,2.27,7.2,2.35,10.97.06,2.44.11,4.89.14,7.34-.39-.06-.74-.28-.96-.6-.05-2.32-.1-4.65-.17-6.98-.13-4.87-1.46-8.47-3.4-13.04-2.56-6.07-5.18-12.13-7.85-18.16.77.02.93-.23.5-.76-.06-.05-.08-.14-.06-.21.03-.07.09-.11.16-.12h0Z" style="fill: #16112a;"/>
      <path id="ae" data-name="Path 963" d="m78.47,132.58c-.89,2.22-1.49,4.55-1.79,6.93-2.63.12-5.26.02-7.87-.28-4-.72-7.94-1.72-11.8-3.01-.07,0-.15,0-.22.02l-.2.05.02-.16c.01-.07-.03-.13-.1-.15-.77-.23-1.53-.5-2.27-.83-8.74-3.92-16.11-9.6-19.84-18.65-3.7-8.99-2.23-19.81,4.59-26.97,2.49-2.61,3.63,2.86,3.85,4.19.8,5.18,2.13,10.26,3.96,15.17,2.3,5.67,6.67,10.44,11.6,14.18,5.94,4.55,12.77,7.8,20.05,9.53h0Z" style="fill: #63a998;"/>
      <path id="af" data-name="Path 964" d="m153.15,90.12c.86.31,1.66.76,2.39,1.31,2.2,1.53,4.17,3.36,5.86,5.43,2.16,2.79,2,7.2,5.23,9.29-.93,1.83-2.09,3.53-3.47,5.06-2.15-1.55-4.14-3.31-5.96-5.23-.82-1.33-2.21-4.01-4.04-3.73v-12.13h-.01Z" style="fill: #fdb597;"/>
      <path id="ag" data-name="Path 965" d="m135.12,103.76c.77.14,3.29.13,1.92,1.7-10.4-1.77-20.79-3.56-31.18-5.39-.37-.05-.73-.15-1.07-.29-.07-.04-.11-.11-.13-.18-.18-1.18.54-1.04,1.37-.89,9.69,1.71,19.39,3.39,29.08,5.05Z" style="fill: #fbfefe;"/>
      <path id="ah" data-name="Path 966" d="m137.24,107.72c.28.21.37.58.24.9-.28.81-2.72.03-3.2-.06-9.63-1.7-19.37-3.4-29.21-5.09-.26-.02-.46-.23-.48-.48-.13-.67.17-.95.86-.83,10.6,1.87,21.2,3.72,31.81,5.55h0Z" style="fill: #fbfefe;"/>
      <path id="ai" data-name="Path 967" d="m157.19,105.98c-1.17,2.74-1.91,5.64-2.21,8.6-.08.74-.22,1.47-.42,2.19-.75-.07-1.32-.69-1.33-1.44-.24-3.07-.09-7.24-.07-13.07,1.82-.29,3.2,2.4,4.04,3.73h0Z" style="fill: #fa8e1e;"/>
      <path id="aj" data-name="Path 968" d="m74.44,103.95l5.02,7.64c1.31,2.2,2.57,4.42,3.77,6.67.21.4.54.72.95.92,2.45,1.2,4.98,2.24,7.57,3.1l-2.17,3.64c-3.74-.24-7.43-1.02-10.95-2.31-3.3-1.3-6.23-3.37-8.55-6.05.16-2.65,1.64-4.31,2.72-6.56,1.05-2.2,1.62-4.6,1.66-7.04h0Z" style="fill: #fe440c;"/>
      <path id="ak" data-name="Rectangle 1345" d="m104.54,106.23h0c.06-.37.42-.62.79-.56l31.43,5.49c.37.06.62.42.56.79h0c-.06.37-.42.62-.79.56l-31.43-5.49c-.37-.06-.62-.42-.56-.79Z" style="fill: #fbfefe;"/>
      <path id="al" data-name="Path 970" d="m157.19,105.98c1.82,1.93,3.81,3.68,5.96,5.23l-.25,1.46c-.02.08,0,.16.04.22,2.86,4.12,6.51,7.63,10.74,10.34.29.19.82.26,1.12.65.05.06.11.1.19.11.28-.03.53.17.56.45,0,.06,0,.13-.02.19l-20.43-3.63c-.3-.03-.52-.3-.5-.6l-.06-3.63c.21-.71.35-1.45.42-2.19.3-2.96,1.05-5.86,2.21-8.6h0Z" style="fill: #fdc369;"/>
      <path id="am" data-name="Path 971" d="m89.73,114.56c26.25,4.65,45.12,8.04,56.61,10.16,2.92.53,4.74.86,5.46.96.05,2.64.35,4.93-.99,6.57-.06.06-.04.1.04.09,1.82-.18,2.2-1.36,2.23-3.06.02-1.34.04-2.67.06-3.97,0-.12.1-.21.22-.21h.04c11.28,2.11,22.5,4.22,33.66,6.35,1.17.22,1.92.73,1.59,2.01-.28,1.12-1.04,1.4-2.17,1.88-2.84,1.19-5.7,2.36-8.56,3.51-2.78,1.11-3.85,1.75-6.07,1.73-.85-.04-1.7-.15-2.53-.33-10.08-1.96-20.18-3.88-30.27-5.77-.95-.18-1.89-.4-2.82-.68-.29-.07-.48-.34-.46-.64l-.07-3.13c0-.07-.05-.13-.13-.14l-.95-.12-14.03-2.54c-11.92-2.24-20.38-3.78-25.38-4.6-1.54-.25-3.56-.36-4.51-1.46-1.45-1.67-1-4.54-1-6.57h.01Z" style="fill: #0b132f;"/>
      <path id="an" data-name="Path 972" d="m70.06,117.55c2.32,2.68,5.25,4.75,8.55,6.05-.14.09-.31.13-.47.11-.07,0-.14.03-.17.1-.2.65-.76,1.12-1.43,1.2-.38.06-.51.21-.38.46.04.06.05.14.02.21l-.71.99c-.05.06-.09.13-.11.21l-.05.5c-2.1-.8-4.15-1.71-6.16-2.72l.89-7.1h.01Z" style="fill: #ec6e6d;"/>
      <path id="ap" data-name="Path 973" d="m227.95,122.05c-.13,6.26-.15,12.49-.08,18.68v25.08c-1.36.08-2.73.12-4.13.13-3.67.02-6.52.1-9.78.17-1.32.02-2.11-.54-2.14-1.89-.02-1.6-.1-3.2-.23-4.82v-.7l.05-3.29c0-.14.08-.27.21-.32.51-.19.69-.59,1.15-.85,8.25-4.59,11.81-13.84,7.04-22.49-1.56-2.82-4.65-5.17-7.45-7.01-.32-.17-.71-.15-1.01.05-.02-.06-.06-.08-.13-.07.56-.09.3-.5.31-.81-.07-1.34.16-2.68.67-3.92.21-.11.29-.32.23-.65,2.04-.27,4.12-.15,6.11.36,1.75.45,2.63.67,2.65.67,2.19.48,4.35,1.04,6.5,1.69h.02Z" style="fill: url(#ao);"/>
      <path id="aq" data-name="Path 974" d="m195.84,121.15c-.07,1.25-.3,2.48-.7,3.66-.03.07-.1.13-.17.13-1.11.1-2.22.1-3.33,0,1.63-.99,3.05-2.28,4.21-3.79h0Z" style="fill: #d7e3e7;"/>
      <path id="ar" data-name="Path 975" d="m227.95,122.05c1.3.39,2.32.37,2.35,1.87.11,5.2.13,10.39.06,15.59-.4-.06-.79.13-.99.48-.31.42-.83.64-1.35.57-.05,0-.08.04-.09.09,0,.04-.02.07-.06.09-.08-6.18-.05-12.41.08-18.68h0Z" style="fill: #223f86;"/>
      <path id="as" data-name="Path 976" d="m91.74,122.28l5.21,2.32c-.95,1.6-1.68,3.32-2.17,5.12-1.73.86-3.57,1.52-5.46,1.95-.92-.04-1.84-.15-2.75-.35l-.02-.06,3.01-5.35,2.17-3.64h0Z" style="fill: #fda9b0;"/>
      <path id="at" data-name="Path 977" d="m78.62,123.6c3.52,1.29,7.21,2.07,10.95,2.31l-3.01,5.35c-.41.01-.81-.05-1.19-.18-1.82-.62-3.63-1.22-5.44-1.82,0-.17-.13-.27-.4-.31-1.44-.41-2.84-.94-4.2-1.58l.05-.5c.02-.08.05-.15.11-.21l.71-.99c.03-.07.03-.15-.02-.21-.13-.25,0-.4.38-.46.67-.08,1.23-.55,1.43-1.2.03-.06.1-.1.17-.1.17.03.34-.01.47-.11h-.01Z" style="fill: #ec7478;"/>
      <path id="au" data-name="Path 978" d="m96.95,124.6c1.2.43,2.43.73,3.7.9,1.69.25,4.09.92,6.85,1.46,1.82.36,2.91,1.82,3.82,3.3.35.4.56.91.58,1.44.04.49-.18.96-.58,1.24-1.19.86-2.49-.66-3.4-1.78-.95-1.15-2.01.43-1.01,1.17.06.05.06.06-.02.05-.97-.15-1.96-.08-2.9.23-1.16-.3-2.35-.5-3.55-.58-1.61-1.33-3.58-2.14-5.65-2.31.49-1.8,1.22-3.52,2.17-5.12h0Z" style="fill: #fcb195;"/>
      <path id="av" data-name="Path 979" d="m211.61,158.69v-33.93c.3-.19.69-.21,1.01-.05,2.8,1.85,5.9,4.2,7.45,7.01,4.77,8.65,1.2,17.9-7.04,22.49-.47.26-.64.66-1.15.85-.13.05-.22.18-.21.32l-.05,3.29h0Z" style="fill: #d8424b;"/>
      <path id="aw" data-name="Path 980" d="m120.62,127.2l14.03,2.54-.08,6.6-13.96-2.5c-.12-2.21-.12-4.44.02-6.65h0Z" style="fill: #668bf1;"/>
      <path id="ax" data-name="Path 981" d="m86.56,131.26l.02.06c-.65.38-1.52,6.33-1.59,7.09-2.75.54-5.52.9-8.32,1.09.3-2.38.9-4.7,1.79-6.93l1.45-3.32c1.82.59,3.63,1.2,5.44,1.82.38.13.79.19,1.19.18h0Z" style="fill: #fda8b3;"/>
      <path id="ay" data-name="Path 982" d="m94.78,129.72c2.08.17,4.05.98,5.65,2.31-3.7.03-7.41-.09-11.11-.36,1.89-.44,3.72-1.09,5.46-1.95h0Z" style="fill: #0b122f;"/>
      <path id="az" data-name="Path 983" d="m111.33,130.25c1.32,1.29,2.55,2.67,3.7,4.11.57.79.38,1.89-.41,2.46-.48.34-1.11.42-1.66.21-.17-.06-.21-.02-.14.15.21.47-1.58.54-1.89.64-1.69-.5-3.36-1.11-4.98-1.8-.09-.04-.15-.11-.13-.14s.09-.05.21-.03c1.67.24,3.35.29,5.03.17.26-.02,1.53.2.53-.45-.23-.15-.48-.27-.73-.36-1.71-.58-3.41-1.17-5.09-1.58-.67-.16-1.28-.52-1.75-1.02.94-.3,1.93-.38,2.9-.23.07,0,.08,0,.02-.05-1-.74.06-2.32,1.01-1.17.92,1.11,2.21,2.64,3.4,1.78.4-.28.62-.75.58-1.24-.02-.53-.22-1.04-.58-1.44h0Z" style="fill: #fec179;"/>
      <path id="ba" data-name="Path 984" d="m86.58,131.32c.9.19,1.82.31,2.75.35,3.7.27,7.41.39,11.11.36,1.2.08,2.39.28,3.55.58.47.5,1.08.86,1.75,1.02,1.68.41,3.38.99,5.09,1.58.26.09.51.21.73.36,1,.65-.27.43-.53.45-1.68.13-3.36.07-5.03-.17-.13-.02-.19,0-.21.03s.05.11.13.14c1.63.69,3.29,1.3,4.98,1.8.66,1.14.53,1.88-.33,2.23-1.06.42-2.97-.11-4.12-.36-.13-.03-.16,0-.09.12,1.33,2.09-1.14,1.85-2.26,1.53-1.27-.36-2.55-.63-3.85-.83l-.64-.38c-2.49-.46-5-.97-7.51-1.54-2.34-.54-4.76-.59-7.12-.17.07-.77.94-6.71,1.59-7.09h0Z" style="fill: #fcb195;"/>
      <path id="bb" data-name="Path 985" d="m120.61,133.85l13.96,2.5-.05,7.18c0,.09-.07.16-.16.16h-.03c-3.48-.7-6.89-1.37-10.25-2.04-1.02-.19-2.03-.45-3.03-.77-.07-.02-.14-.07-.17-.14l-.27-.54-.06-2.23.06-4.1h0Z" style="fill: #d0e6ec;"/>
      <path id="bc" data-name="Path 986" d="m200.55,136.43c-1.38,2.95-3.18,5.68-5.33,8.13-1.76-3.95-2.36-8.79,2.73-10.49.84-.25,1.73-.28,2.58-.09.07.02.13.07.14.14.11.77.07,1.55-.12,2.3h0Z" style="fill: #ff6a47;"/>
      <path id="bd" data-name="Path 987" d="m200.55,136.43c.21,3.35.23,6.71.07,10.07v2.08l-4.14-.14c.51-.19.21-.54.14-.86-.2-1.11-.69-2.15-1.41-3.01,2.16-2.44,3.95-5.17,5.33-8.13h0Z" style="fill: #f1f5f7;"/>
      <path id="be" data-name="Path 988" d="m120.54,137.94l.06,2.23-2.17-.32c-.05,0-.09-.05-.08-.1,0,0,0,0,0,0,0-.02,0-.02.02-.03.47-.84,1.25-1.47,2.17-1.76h0Z" style="fill: #202447;"/>
      <path id="bf" data-name="Path 989" d="m99.62,140.12c-8.56,2.76-17.12,5.5-25.68,8.24-2.06.79-4.3,1.01-6.48.63-5.47-1.21-9.45-2.15-11.94-2.82-.5-.17-.92-.52-1.19-.97.05-1.42,1.59-1.87,2.74-2.21,3.92-1.18,7.83-2.44,11.74-3.77,2.61.31,5.25.4,7.87.28,2.79-.2,5.57-.56,8.32-1.09,2.36-.42,4.78-.36,7.12.17,2.51.57,5.02,1.08,7.51,1.54h0Z" style="fill: #0b122f;"/>
      <path id="bg" data-name="Path 990" d="m230.35,139.51c0,8.26-.01,16.51-.03,24.76,0,1.26-1.47,1.66-2.44,1.55v-25.08s.04-.06.05-.09c0-.05.04-.08.09-.09.52.07,1.04-.15,1.35-.57.2-.35.59-.54.99-.48h0Z" style="fill: #223f86;"/>
      <path id="bh" data-name="Path 991" d="m136.44,143.54c-1.27-.92-.96-2.53-.96-3.94,0-.08.07-.15.15-.15h.03l8.9,1.79c.41.08.42.19.02.33-1.72.6-3.45,1.21-5.17,1.81-.55.19-1.11.35-1.68.45-.45.08-.92-.03-1.29-.3h0Z" style="fill: #0b112b;"/>
      <path id="bi" data-name="Path 992" d="m99.61,140.12l.64.38c-12.15,4.05-21.37,7.04-27.65,8.96-1.76.51-3.63.53-5.4.07.12-.16.2-.35.24-.54,2.18.38,4.41.16,6.48-.63,8.57-2.73,17.13-5.48,25.68-8.24h0Z" style="fill: #7296db;"/>
      <path id="bj" data-name="Path 993" d="m205.7,144.43l-2.49,3.34c-.53.26-.94.71-1.15,1.26-.34.08-1.64.36-1.45-.47v-2.08c.15-.04.3-.02.43.05.18.12.43.09.58-.08.89-1.07,1.86-2.05,2.92-2.95,1.28-1.07,1.66-.76,1.15.92h0Z" style="fill: #f37c26;"/>
      <path id="bk" data-name="Path 994" d="m204.21,149.05l-1.48-.02c-.64-.16.34-.9.47-1.26l2.49-3.34,2.12-.11c.28-.02.33.09.14.31l-3.75,4.41h0Z" style="fill: #13a691;"/>
      <path id="bl" data-name="Path 995" d="m54.32,145.21c.27.45.69.8,1.19.97,2.49.67,6.47,1.61,11.94,2.82-.04.2-.13.38-.24.54-3.63-.79-7.31-1.83-10.96-2.42-1.01-.11-1.81-.9-1.92-1.9h0Z" style="fill: #2c69c0;"/>
      <path id="bm" data-name="Path 996" d="m128.19,148.74l-11.45-.06c-.08-1.68-.32-3.52,1.63-3.52,2.73,0,5.46.01,8.2.03,2.14.02,1.66,2.15,1.63,3.55h0Z" style="fill: #488975;"/>
      <path id="bn" data-name="Path 997" d="m190.4,145.65c.12.45.21.9.27,1.37.03.46.12.92.28,1.35.31.72.75,1.38,1.3,1.95-2.05,1.35-4.02,2.83-5.88,4.42-.42.22-.78.54-1.05.92l-.65.12c-.27-.42-.29-.95-.06-1.38,1.68-3.08,3.62-6.01,5.8-8.76h-.02Z" style="fill: #f67e1f;"/>
      <path id="bo" data-name="Path 998" d="m203.21,147.77c-.13.36-1.11,1.11-.47,1.26h-.67c.2-.55.61-1.01,1.15-1.26Z" style="fill: #aa6572;"/>
      <path id="bp" data-name="Path 999" d="m23.5,147.89s.09.08.14.11c14.84,2.52,29.66,5.13,44.47,7.83-.32-.07-.47,0-.48.19-.05.89-.12,1.78-.23,2.67,0,.08-.04.15-.1.21-.2.24-.28.56-.22.87-9.16-1.56-18.31-3.16-27.45-4.82-.27-.05-.55-.08-.83-.09-1.91-.35-3.81-.72-5.7-1.11-3.2-.66-6.44-.96-9.64-1.62.04-.31-.06-.62-.26-.85-.06-.7-.18-3.09.3-3.4h0Z" style="fill: #ff8791;"/>
      <path id="bq" data-name="Path 1000" d="m116.74,148.68l11.45.06c0,3.28.03,6.55.06,9.83.02,2.05-.37,2.83-2.56,2.68-2.43-.17-4.94-.06-7.38-.06-1.73,0-1.58-1.13-1.58-2.54,0-3.32,0-6.64,0-9.96h0Zm9.92,2.88c-1.23,2.01-2.73,3.84-4.45,5.45-.32.29-.28.36.12.18,1.38-.6,3.19-1.17,4.11-2.46.76-1.05,1.33-2.07.46-3.19-.05-.07-.15-.08-.21-.03-.02,0-.02.02-.04.04h0Z" style="fill: #63a998;"/>
      <path id="br" data-name="Path 1001" d="m192.24,150.31l-.02,12.56c0,.08-.03.16-.08.22-.17.19-.39.32-.64.36l-.73-1.22c-.67-1.05-1.49-2.01-2.41-2.84-.29-.26-.52-.57-.68-.92l-1.32-3.72c1.87-1.59,3.83-3.07,5.88-4.42h0Z" style="fill: #13a691;"/>
      <path id="bs" data-name="Path 1002" d="m176.51,166.06c.16.96-.4.77-1,.77h-8.57v-15.57c0-.08.06-.15.14-.16,0,0,0,0,.01,0h0l9.26.02c.09,0,.17.07.17.16l.06,2.09c0,.12.1.23.22.24,4.15.03,6.05,3.96,3.92,7.47-.35.54-.76,1.04-1.21,1.5-1.06,1.11-2.05,2.28-2.99,3.5h-.02Zm3.6-8.59c-.39-1.49-1.81-2.47-3.34-2.3-.07,0-.12.06-.12.13,0,0,0,0,0,0l-.06,8.1c0,.11.03.12.11.05,1.5-1.37,4.04-3.67,3.41-5.99h0Z" style="fill: #13a691;"/>
      <path id="bt" data-name="Path 1004" d="m126.66,151.56c.04-.07.13-.09.2-.05,0,0,0,0,0,0,.02,0,.03.02.04.04.86,1.12.3,2.14-.46,3.19-.92,1.28-2.73,1.86-4.11,2.46-.4.17-.43.11-.12-.18,1.72-1.61,3.21-3.44,4.45-5.45h0Z" style="fill: #fefdfd;"/>
      <path id="bu" data-name="Path 1005" d="m23.46,152.14c3.2.66,6.45.96,9.64,1.62,1.9.39,3.8.76,5.7,1.11-3.66.92-8.08,1.77-13.24,2.56-1.14.2-2.3.3-3.46.29.31-1.89.76-3.75,1.34-5.58h0Z" style="fill: #fe440c;"/>
      <path id="bv" data-name="Path 1006" d="m165.47,166.82c-.02.62.14,1.71-.25,2.2-1.13.06-2.26-.27-3.17-.94.05-.42.02-.85-.11-1.26.25-.58.28-1.23.06-1.82l-.12-7.73.04-.7c0-.08.03-.15.08-.21.15-.14.24-.34.23-.54-.08-.3-.07-.62.05-.91.04-.07.1-.11.17-.13.8-.12,1.61-.13,2.42-.02.39.02.68.35.67.73,0,.01,0,.02,0,.03l-.05,11.26v.02Z" style="fill: #fa7b26;"/>
      <path id="bw" data-name="Path 1007" d="m186.36,154.73l1.32,3.72-.22-.18c-.63-.93-1.34-1.81-2.14-2.61.27-.39.63-.71,1.05-.92h-.01Z" style="fill: #fff;"/>
      <path id="bx" data-name="Path 1008" d="m176.77,155.18c1.53-.17,2.95.81,3.34,2.3.63,2.32-1.92,4.63-3.41,5.99-.07.06-.11.05-.11-.05l.06-8.1c0-.07.05-.13.12-.13h0Z" style="fill: #fefdfd;"/>
      <path id="by" data-name="Path 1009" d="m185.31,155.66c.79.8,1.51,1.67,2.14,2.61-.03.06-.07.11-.12.14-.06.03-.13,0-.18-.08-.53-.94-1.23-1.77-2.06-2.46-.05-.05-.13-.07-.21-.05-.05.04-.09.08-.11.14-.06-.05-.1-.11-.11-.19l.65-.12h0Z" style="fill: #522531;"/>
      <path id="bz" data-name="Path 1010" d="m162.22,155.84c0,.21-.08.41-.23.54-.05.06-.08.13-.08.21l-.04.7c-1.91.36-2.87,1.32-2.87,2.89,0,1.93,1.45,3.71,2.99,4.84.21.59.19,1.25-.06,1.82-1.55-1.12-2.85-2.55-3.82-4.19-1.78-3.55.32-6.42,4.11-6.79v-.02Z" style="fill: #eb6d5e;"/>
      <path id="ca" data-name="Path 1011" d="m187.45,158.27l.22.18c.16.35.39.67.68.92.64,1.08,1.45,2.04,2.42,2.84l.73,1.22c.05.18,0,.3-.11.36-.07.02-.15,0-.21-.04l-.45-.32c-1.84-2.1-3.62-4.24-5.34-6.41-.26-.32-.47-.68-.62-1.07.02-.06.06-.11.11-.14.07-.03.15-.01.21.05.83.69,1.53,1.52,2.06,2.46.03.07.11.1.18.08.05-.03.1-.08.12-.14h0Z" style="fill: #0b132f;"/>
      <path id="cb" data-name="Path 1012" d="m68.12,155.83l44.12,7.79-.12,4.17-45.03-8.01c-.06-.31.02-.63.22-.87.05-.06.09-.13.1-.21.11-.89.18-1.78.23-2.67,0-.21.17-.27.48-.19h0Z" style="fill: #ff6d48;"/>
      <path id="cc" data-name="Path 1013" d="m161.88,157.28l.12,7.73c-1.55-1.13-3-2.91-2.99-4.84,0-1.57.96-2.53,2.87-2.89Z" style="fill: #fefdfd;"/>
      <path id="cd" data-name="Path 1014" d="m188.35,159.37c.93.83,1.74,1.79,2.42,2.84-.97-.8-1.78-1.76-2.42-2.84Z" style="fill: #5861ad;"/>
      <path id="ce" data-name="Path 1015" d="m112.24,163.62l52.67,9.49c1.91.33,3.83.66,5.75.98,1.59.27,4.08.87,6.2,1.07,3.39.72,6.82,1.36,10.29,1.92l1.09.24c.41.27.9.39,1.39.36l1.77.25c.9.26,1.84.4,2.78.42.07.07.16.12.25.13l.91.17,7.77,1.41c7.43,1.33,14.87,2.63,22.29,4.04,2.01.38,4.03.73,6.06,1.04.21-.03.42,0,.61.09v4.31c-39.71-7.31-79.47-14.37-119.2-21.56-.25-.04-.49-.1-.73-.19l.12-4.17v-.02Z" style="fill: #488975;"/>
      <path id="cf" data-name="Path 1016" d="m162.05,168.08c.92.67,2.04,1,3.17.94l-.03.28c-.01.07.03.14.1.17l.96.34c.15.12.35.18.54.17,3.94,1.48,6.73,2.46,8.38,2.92,1.08.18,1.82,1.19,1.67,2.27-2.11-.21-4.6-.81-6.2-1.07-1.92-.32-3.84-.65-5.75-.98-1.29-1.2-2.81-2.11-4.47-2.69-.43-.15-.62-.4-.58-.77.03-.23.02-.45-.02-.68-.1-.61.11-.86.64-.76.52.06,1.05.01,1.56-.14h.02Z" style="fill: #fc6a4c;"/>
      <path id="cg" data-name="Path 1017" d="m166.8,169.98c-.2.02-.39-.04-.54-.17.65-.27.94-.98,1.38-1.43.05-.06.14-.08.21-.04.29.2-.86,1.45-1.04,1.63h0Z" style="fill: #ec6e6d;"/>
      <path id="ch" data-name="Path 1018" d="m232.05,168.36v16.88c-.19-.08-.4-.11-.61-.09-.57-.29-1.19-.47-1.82-.53-.53,0-1.06-.11-1.54-.32l-1.44-.26c-.67-.2-1.37-.3-2.07-.29-.35-.02-.7-.09-1.04-.21-.62-.18-1.25-.32-1.89-.4-.26-.03-.6.17-.78-.23-.02-.07-.09-.11-.17-.11-.6.05-1.2-.02-1.77-.21-.08-.03-.16-.03-.24-.02-.85-.02-1.7-.13-2.52-.35-.44-.06-.87-.15-1.3-.26-.58-.14-1.34-.28-2.27-.43-.98-.13-1.94-.32-2.9-.56-.31-.11-.64-.15-.97-.13-.08,0-.16-.01-.23-.05-.37-.14-.77-.21-1.17-.21-1.4-.29-2.82-.46-4.25-.51l-7.77-1.4c-.21-.29-.61-.36-.91-.17-.1-.01-.19-.06-.25-.13-.87-.35-1.8-.52-2.73-.48-.46-.19-.95-.29-1.45-.3-.08,0-.15-.04-.21-.08-.09-.05-.17-.02-.27.09-.38-.23-.83-.31-1.27-.24l-1.09-.24.19-.26c.05-.06.11-.1.19-.11.95-.1,1.9-.24,2.83-.43,12.24-2.31,24.48-4.65,36.71-7.02,1.66-.32,3.33-.62,4.98-.92h0Z" style="fill: #ff6431;"/>
      <path id="ci" data-name="Path 1019" d="m188.23,177.34c.44-.07.89.02,1.27.24.04.03.08.06.11.11-.49.03-.98-.09-1.39-.36h.01Z" style="fill: #aa6572;"/>
      <path id="cj" data-name="Path 1020" d="m191.44,177.87s0,.06-.03.07c0,0,0,0-.02,0l-1.77-.25s-.06-.08-.11-.11c.1-.11.18-.13.27-.09.06.04.14.07.21.08.49,0,.98.11,1.44.3Z" style="fill: #aa6572;"/>
      <path id="ck" data-name="Path 1021" d="m194.17,178.35c-.94-.01-1.87-.15-2.78-.42.04,0,.06-.03.05-.07.93-.03,1.86.13,2.73.48h0Z" style="fill: #aa6572;"/>
      <path id="cl" data-name="Path 1022" d="m195.33,178.65l-.91-.17c.3-.2.7-.12.91.17Z" style="fill: #aa6572;"/>
      <path id="cm" data-name="Path 1023" d="m203.1,180.07c1.43.06,2.85.23,4.25.51.4,0,.8.06,1.17.21.07.04.15.06.23.05.33-.02.66.03.97.13.95.24,1.92.43,2.9.56.93.15,1.69.29,2.27.43.53.13.96.21,1.3.26.82.21,1.67.33,2.52.35.08,0,.16,0,.24.02.57.19,1.17.26,1.77.21.07,0,.14.04.17.11.18.4.52.2.78.23.64.08,1.27.21,1.89.4.33.12.68.19,1.04.21.7,0,1.4.09,2.07.29l1.44.26c.49.21,1.01.32,1.54.32.64.07,1.25.25,1.82.53-2.02-.31-4.04-.66-6.06-1.04-7.42-1.41-14.85-2.7-22.29-4.04h0Z" style="fill: #db6a5c;"/>
      <path id="cn" data-name="Path 1024" d="m68.78,219.21l-18.31-.02c-.97-.84-2.02-1.57-3.14-2.19-1.72-1.02-3.59-1.78-5.54-2.23-.07-.02-.13-.08-.13-.16v-14.75c0-.08.07-.15.15-.15h.02c7.52,1.28,15.32,1.07,22.39-1.94,1.82-.77,3.86-2.05,4.34-4.17.02-.09.05-.13.1-.12.04,0,.07.06.07.14l.05,25.59h0Z" style="fill: #63a998;"/>
    </g>
  </g>
</svg>