<svg xmlns="http://www.w3.org/2000/svg" width="641.639" height="70" data-name="Group 5379">
  <defs>
    <clipPath id="a">
      <path fill="none" d="M0 0h641.639v70H0z" data-name="Rectangle 1436"/>
    </clipPath>
  </defs>
  <g clip-path="url(#a)" data-name="Group 5378">
    <path d="M117.62 34.511c-5.46-10.632-6.552-11.494-11.437-11.494h-2.127l-6.493 14.828c-2.185 5.115-5.748 8.62-11.264 9.712v-7.931c2.183-1.207 3.677-3.62 4.885-6.723l7.471-17.645h6.321c9.367 0 12.586 1.15 19.31 14.254 5.344 10.459 10.229 19.2 16.781 22.24v8.506c-9.827-2.471-16.322-11.958-23.447-25.747" data-name="Path 4776"/>
    <path d="M144.689 62.5v-9.08c3.965-4.023 7.873-9.483 7.873-25.689V12.1h7.759v15.056c0 21.723-6.782 29.942-15.632 35.344m22.528-1.149v-49.31h7.759v39.31c8.965-2.874 13.1-12.414 13.965-24.023h7.816c-1.149 20.4-10.46 32.3-29.54 34.023" data-name="Path 4777"/>
    <path d="M248.767 19.225h-.23c-1.954 26.264-18.85 39.31-39.539 41.9v-7.418c18.39-3.62 29.194-15.4 30.861-33.16h-37.413v-7.471h40.517a5.866 5.866 0 1 1 5.8 6.149m0-8.621a2.788 2.788 0 1 0 2.816 2.816 2.81 2.81 0 0 0-2.816-2.816" data-name="Path 4778"/>
    <path d="M291.125 35.258C289 51.752 277.562 59.51 262.907 61.465v-7.586c11.494-1.9 18.16-8.678 19.424-18.621H257.5v-7.241h51.21v7.241ZM305.2 16.925v3.1h-43.9v-7.353h35.747V8.3h4.885v4.368h2.468V8.3h4.942v8.621Z" data-name="Path 4779"/>
    <path d="M342.447 43.535a59.1 59.1 0 0 1-29.253 17.7v-7.816c13.563-3.965 27.873-15.459 32.643-32.7h-29.826v-7.472h39.654a55.112 55.112 0 0 1-7.931 23.1c3.505 8.218 9.713 13.506 15.344 16.954v8.509a41.84 41.84 0 0 1-20.631-18.275" data-name="Path 4780"/>
    <path d="M376.009 61.408v-7.357c19.77-2.3 30.977-13.62 33.276-33.677h-23.506c-3.391 8.276-10 15.517-18.276 18.62v-8.16a28.744 28.744 0 0 0 12.242-17.874h38.218v1.208c-.977 29.481-16.265 45.229-41.954 47.24" data-name="Path 4781"/>
    <path d="M468.537 28.88v1.149c0 19.828-9.31 30.574-31.609 32.011V54.8c18.218-1.667 23.736-10.172 23.736-23.448V28.88h-20.748v15.344h-7.758V28.88h-9.08V21.7h9.08V10.949h7.758V21.7h20.748V10.949h7.873V21.7h9.2v7.18Z" data-name="Path 4782"/>
    <path d="M483.249 29.742h49.596v7.586h-49.596z" data-name="Rectangle 1434"/>
    <path d="M555.2 60.546c-9.656 0-14.2-3.276-14.2-12.644V11.408h8.046v10.575H585.2v7.356h-36.147v17.184c0 5.058 2.414 6.666 7.817 6.666h29.31v7.357Zm19.14-50.114h4.885v8.678h-4.885Zm7.357 0h4.885v8.678H581.7Z" data-name="Path 4783"/>
    <path d="M621.008 43.535a59.1 59.1 0 0 1-29.253 17.7v-7.816c13.563-3.965 27.873-15.459 32.643-32.7h-29.826v-7.472h39.654a55.112 55.112 0 0 1-7.931 23.1c3.505 8.218 9.713 13.506 15.344 16.954v8.509a41.84 41.84 0 0 1-20.631-18.275" data-name="Path 4784"/>
    <path fill="#005bab" d="M0 0h70v70H0z" data-name="Rectangle 1435"/>
    <path fill="#fff" d="M61.361 30.516h-5.53C55.5 18.864 46.289 9.488 35 9.488s-20.5 9.376-20.83 21.028H8.639A1.985 1.985 0 0 0 6.654 32.5v15.308a1.986 1.986 0 0 0 1.985 1.986h9.486V31.153c0-9.757 7.57-17.694 16.875-17.694S51.876 21.4 51.876 31.153v18.4a6.992 6.992 0 0 1-6.984 6.984h-2.668v-1.368a5.188 5.188 0 0 0-5.188-5.188h-4.073a5.188 5.188 0 0 0-5.188 5.188v.154a5.189 5.189 0 0 0 5.188 5.189h11.929a10.96 10.96 0 0 0 10.942-10.718h5.527a1.986 1.986 0 0 0 1.986-1.986V32.5a1.986 1.986 0 0 0-1.986-1.985M14.154 45.823h-3.53V34.487h3.53v11.336Zm24.1 10.718h-6.508v-2.589h6.508Zm21.122-10.718h-3.53V34.487h3.53Z" data-name="Path 4785"/>
  </g>
</svg>
