<svg xmlns="http://www.w3.org/2000/svg" xmlns:xlink="http://www.w3.org/1999/xlink" width="200" height="181" viewBox="0 0 200 181">
  <defs>
    <clipPath id="clip-path">
      <rect id="Rectangle_1350" data-name="Rectangle 1350" width="200" height="181" rx="12" transform="translate(479 1092)" fill="#d9eee7"/>
    </clipPath>
    <linearGradient id="linear-gradient" y1="0.5" x2="1" y2="0.5" gradientUnits="objectBoundingBox">
      <stop offset="0" stop-color="#db5f45"/>
      <stop offset="0.41" stop-color="#d8424b"/>
    </linearGradient>
  </defs>
  <g id="step05" transform="translate(-479 -1093)">
    <rect id="Rectangle_1348" data-name="Rectangle 1348" width="200" height="181" rx="12" transform="translate(479 1093)" fill="#e2dfb4"/>
    <g id="Mask_Group_3" data-name="Mask Group 3" transform="translate(0 1)" clip-path="url(#clip-path)">
      <g id="help-desk" transform="translate(471.497 1107.603)">
        <path id="Path_937" data-name="Path 937" d="M235.155,1.109q3.077.694,6.106,1.6l-.221.69a.614.614,0,0,0,.121.7,8.607,8.607,0,0,1,3.1,5.818,53.936,53.936,0,0,1-.328,5.791.135.135,0,0,1-.107.127,4.632,4.632,0,0,0-3.365,3.2c-.516,1.548-.335,3.486,1.039,4.471a3.476,3.476,0,0,0,4.223-.5c2.031-1.9,2.534-5.155-.1-6.917a.353.353,0,0,1-.154-.308q.161-2.363.315-4.886c.188-3.124-1.166-5.51-3.264-7.722,6.576,2.44,7.99,7.6,9.377,13.808a46.06,46.06,0,0,1,1.032,11.274,6.549,6.549,0,0,1-2.413,5.275,5.007,5.007,0,0,1-6.931-.308l-.114-5.336.114-2.286a.22.22,0,0,0-.2-.221c-4.323-.268-5.349-3.4-4.444-7.072a.193.193,0,0,0-.04-.174l-1.562-1.656a.093.093,0,0,0-.127,0,.023.023,0,0,0-.007.013,3.933,3.933,0,0,1-1.267,1.1.8.8,0,0,1-.818-.007A2.3,2.3,0,0,1,234,14.937a.128.128,0,0,0-.1-.147h-.027c-1.971.027-3.4-1-4.27-3.083a.3.3,0,0,0-.389-.154.051.051,0,0,0-.027.013,28.98,28.98,0,0,1-4.049,1.81,13.368,13.368,0,0,1-3.1-2.581C218.4,6.518,221.467.754,226.622.057a12.917,12.917,0,0,1,3.345.181q2.6.4,5.188.878Z" transform="translate(-72.683 0)" fill="#0b122f"/>
        <path id="Path_938" data-name="Path 938" d="M252.239,4.516c2.1,2.212,3.452,4.6,3.264,7.722q-.151,2.524-.315,4.886a.338.338,0,0,0,.154.308c2.634,1.763,2.132,5.02.1,6.917a3.476,3.476,0,0,1-4.223.5,3.948,3.948,0,0,1-1.039-4.471,4.61,4.61,0,0,1,3.365-3.2.135.135,0,0,0,.107-.127,52.083,52.083,0,0,0,.328-5.791,8.622,8.622,0,0,0-3.1-5.818.614.614,0,0,1-.121-.7l.221-.69A2.019,2.019,0,0,1,252.239,4.516Z" transform="translate(-82.401 -1.329)" fill="#fdc369"/>
        <path id="Path_939" data-name="Path 939" d="M80.169,11.26A17,17,0,0,1,78.2,9.571a3.938,3.938,0,0,0-2.064-.6.529.529,0,0,1-.2.034c-.335-.02-.972-.02-1.9.007A5.294,5.294,0,0,0,71.1,9.9c2.721-2.809,7.125-1.669,9.069,1.367Z" transform="translate(-23.442 -2.731)" fill="#020204"/>
        <path id="Path_940" data-name="Path 940" d="M73.788,11.577a6.856,6.856,0,0,1,.764,2.178.547.547,0,0,0,.322.4,3.866,3.866,0,0,1,2.239,2.534.228.228,0,0,0,.288.147h.007c6.287-2.306,14.653.328,17.307,6.824l-5.523,2.011a.235.235,0,0,0-.147.295,3.879,3.879,0,0,1-.214,2.768c-.228.489-.489.811-.1,1.32a6.718,6.718,0,0,1,1.334,4.149,4.837,4.837,0,0,1-3.921,5.148l-.764.027c-3.666-.174-5.865-3.452-5.832-6.924.02-2.018-2.46-1.555-1.951.67.563,2.453,1.059,4.109-.221,6.388a6.14,6.14,0,0,1-3.057,2.346.19.19,0,0,0-.121.2A41.764,41.764,0,0,0,77.261,52.27l.315.791a.213.213,0,0,0-.134.1.187.187,0,0,0,.054.181q.563.674-.422.643l-.992-2.178a59.065,59.065,0,0,1-2.359-8.231c-.074-.335-.147-.342-.228,0a5.413,5.413,0,0,1-1.059,2.111,6.273,6.273,0,0,1-6.683,1.441,11.986,11.986,0,0,0-1.957-.509,5.921,5.921,0,0,0-1.662.282.131.131,0,0,1-.154-.054c-.61-.912-1.951-.194-2.715-.074a3.071,3.071,0,0,1-2.319-.523c-.134-.094-.241-.094-.328.013a6.272,6.272,0,0,1-2.581-6.609c.3-1.656,2.266-2.721.851-4.538-2.165-2.788-3.9-5.711-2.8-9.418a6.964,6.964,0,0,1,2.534-3.64c1.26-.952,1.193-1.709.771-3.083-1.649-5.315,3.284-9.042,8.171-7.487a.118.118,0,0,0,.147-.06,4.448,4.448,0,0,1,1-1.22,5.294,5.294,0,0,1,2.929-.891c.938-.027,1.568-.034,1.9-.007a.453.453,0,0,0,.2-.034,4,4,0,0,1,2.064.6,17,17,0,0,0,1.971,1.689ZM85.15,28.622c-1.133-5.007-2.232-9.659-7.775-11.442-.516-.168-.268-.087-.389.342A1.769,1.769,0,0,0,77,18.528a.211.211,0,0,0,.127.134c4.786,1.87,5.262,5.63,6.441,9.981a.208.208,0,0,1-.114.241c-3.579,1.7-2.54,7.427.751,8.774a3.364,3.364,0,0,0,4.3-1.327c1.421-2.487-.094-7.145-3.237-7.6a.15.15,0,0,1-.127-.114Z" transform="translate(-17.062 -3.048)" fill="#0b122f"/>
        <path id="Path_941" data-name="Path 941" d="M245.782,33.567a10.7,10.7,0,0,1-2.085,2.842,8.987,8.987,0,0,1-6.475,2.42.12.12,0,0,0-.121.121h0c.007.744.027,1.434.047,2.058,0,.054-.194.865-.248.087V39.043a.208.208,0,0,0-.181-.194c-2.205-.228-4.571-.228-5.838-2.292-1.005-1.629-1.193-3.278-1.615-5.791q-.985-5.842-1.816-11.723a28.631,28.631,0,0,0,4.049-1.81.294.294,0,0,1,.4.121.051.051,0,0,0,.013.027q1.317,3.127,4.27,3.083a.126.126,0,0,1,.127.121v.027a2.279,2.279,0,0,0,1.126,2.661.8.8,0,0,0,.818.007,3.933,3.933,0,0,0,1.267-1.1.1.1,0,0,1,.127-.027.021.021,0,0,1,.013.007l1.562,1.656a.184.184,0,0,1,.04.174c-.912,3.68.121,6.8,4.444,7.072a.21.21,0,0,1,.2.221l-.114,2.286Z" transform="translate(-74.993 -5.666)" fill="#fdb597"/>
        <path id="Path_942" data-name="Path 942" d="M97.66,32.6c3.144.456,4.665,5.108,3.237,7.6a3.366,3.366,0,0,1-4.3,1.327c-3.3-1.354-4.33-7.085-.751-8.774a.2.2,0,0,0,.114-.241c-1.18-4.35-1.649-8.117-6.441-9.981a.228.228,0,0,1-.127-.134,1.66,1.66,0,0,1-.013-1.005c.121-.429-.127-.516.389-.342,5.55,1.79,6.643,6.435,7.775,11.442a.15.15,0,0,0,.127.114Z" transform="translate(-29.444 -6.909)" fill="#f1f5f7"/>
        <path id="Path_943" data-name="Path 943" d="M111.626,30.74a21.27,21.27,0,0,1,1.066,6.321q.09,4.394,0,10.356c-.08,5.114-3.646,6.924-8.231,5.356a17.585,17.585,0,0,1-1.4-6.341,4.832,4.832,0,0,0,3.921-5.148,6.7,6.7,0,0,0-1.334-4.149c-.389-.5-.127-.824.1-1.32a3.914,3.914,0,0,0,.214-2.768.247.247,0,0,1,.147-.295l5.523-2.011Z" transform="translate(-33.98 -10.132)" fill="#fcb195"/>
        <path id="Path_944" data-name="Path 944" d="M250.352,41.62l.114,5.336a10.614,10.614,0,0,0,.476,2.547c-2.42,2.48-6.307,3.78-9.578,2.165a.846.846,0,0,0-.054-.912c.295.054.174-1.408.161-1.6.047.784.248-.027.248-.087-.027-.63-.04-1.314-.047-2.058a.12.12,0,0,1,.121-.121h0a9,9,0,0,0,6.475-2.42,10.7,10.7,0,0,0,2.085-2.842Z" transform="translate(-79.563 -13.719)" fill="#fdb597"/>
        <path id="Path_945" data-name="Path 945" d="M97.987,50.152a20.051,20.051,0,0,0,1.066,6.006,18.541,18.541,0,0,1-2.876-.751V55.3a.155.155,0,0,0-.107-.141,11.57,11.57,0,0,1-6.08-4.873c1.28-2.286.784-3.935.221-6.388-.509-2.225,1.971-2.688,1.951-.67-.034,3.472,2.158,6.743,5.832,6.924Z" transform="translate(-29.671 -13.826)" fill="#fcb195"/>
        <path id="Path_946" data-name="Path 946" d="M220.136,52.087a.86.86,0,0,1,.054.912c-2.668,1.971-5.6,3.331-8.157,5.4a25.051,25.051,0,0,0-4.551,4.927q-3.137,4.233-5.054,7.145c-.087-2.232.623-7.1-2.634-7.675q-2.936-.523-8.754-1.381L178.163,59.3l-1.093-.268q0-4.726.047-9.451a6.5,6.5,0,0,1,.349-2.473c.744-1.555,2.219-1.562,3.847-1.3q19.425,3.067,38.83,6.281Z" transform="translate(-58.382 -15.057)" fill="#071c2f"/>
        <path id="Path_947" data-name="Path 947" d="M242.231,53.37a.617.617,0,0,1,.315.268.6.6,0,0,1-.409.576c-.288.114-.261.409.08.878A19.3,19.3,0,0,1,245.67,62.3a36.061,36.061,0,0,1,.168,10.282,49.715,49.715,0,0,1-3.043,14.13c-2.695,6.656-10.986,3.7-15.209.878a2.826,2.826,0,0,0-1.274-.563c-2.748-1.77-2.607-5.516-4.444-7.883a24.591,24.591,0,0,0-4.974-4.612,7.561,7.561,0,0,0-2.024-1.113V73q1.93-2.916,5.061-7.145a25.45,25.45,0,0,1,4.551-4.927c2.561-2.064,5.49-3.425,8.157-5.4,3.271,1.622,7.165.315,9.578-2.165Z" transform="translate(-70.845 -17.593)" fill="#fdc668"/>
        <path id="Path_948" data-name="Path 948" d="M246.622,53.763a13.985,13.985,0,0,0,3.606,2.554c.362.295,1.005.771,1.937,1.421a26.494,26.494,0,0,1,5.771,5.718,10.141,10.141,0,0,1,1.89,6.214c.362,9.813-.751,20.5-4.189,29.781,0-.141-.04-.188-.121-.147a.488.488,0,0,0-.114.154l-.221.422a12.884,12.884,0,0,1-3.573,3.217,10.492,10.492,0,0,1-6.18,1.709,20.16,20.16,0,0,1-7.467-1.977.436.436,0,0,0-.462-.55.2.2,0,0,1-.161-.087c-.255-.328-.7-.4-.952-.55a32.2,32.2,0,0,1-9.116-8.774.246.246,0,0,1-.034-.188l.214-1.24a19.761,19.761,0,0,0,2.943-4.3,2.9,2.9,0,0,1,1.274.563c4.223,2.822,12.514,5.778,15.209-.878A49.944,49.944,0,0,0,249.92,72.7a36.3,36.3,0,0,0-.168-10.282A19.3,19.3,0,0,0,246.3,55.2c-.335-.469-.362-.757-.08-.878a.606.606,0,0,0,.409-.576Z" transform="translate(-74.921 -17.719)" fill="#ff6a47"/>
        <path id="Path_949" data-name="Path 949" d="M102.691,54.15a17.416,17.416,0,0,0,1.4,6.341c.2.442,1.749,3.847,2.312,3.418a.325.325,0,0,1,.449.047c.007.013.02.027.027.04l1.776,3.11a.237.237,0,0,1-.094.328.466.466,0,0,1-.087.034c-.409.06-.2.764-.181,1.066q.432,7.008.972,14.009a2.5,2.5,0,0,1-.858-1.8q-.623-6.093-.865-12.213a2.393,2.393,0,0,0-.235-.938,14.151,14.151,0,0,0-1.347-2.212,40.066,40.066,0,0,1-2.956-5.188,20.051,20.051,0,0,1-1.066-6.006l.764-.027Z" transform="translate(-33.611 -17.851)" fill="#121122"/>
        <path id="Path_950" data-name="Path 950" d="M88.419,54.39a11.57,11.57,0,0,0,6.08,4.873.149.149,0,0,1,.107.141v.107a12.908,12.908,0,0,0-1.079,6.884,1.264,1.264,0,0,0,.831,1.066,12.629,12.629,0,0,1-6.046-.315,41.676,41.676,0,0,1-3.063-10.209.178.178,0,0,1,.121-.2,6.178,6.178,0,0,0,3.057-2.346Z" transform="translate(-28.107 -17.93)" fill="#223f86"/>
        <path id="Path_951" data-name="Path 951" d="M275.331,103.344l-8.325-1.622a.29.29,0,0,1-.221-.349v-.013l.154-.637c3.439-9.284,4.551-19.968,4.189-29.781a10.184,10.184,0,0,0-1.89-6.214,26.5,26.5,0,0,0-5.771-5.718c-.932-.65-1.582-1.126-1.937-1.421q7.842,1.186,10.865,1.823c3.177.664,2.929,2.876,2.956,5.872.121,12.87-.02,25.384-.02,38.059Z" transform="translate(-86.229 -18.985)" fill="#071c2f"/>
        <path id="Path_952" data-name="Path 952" d="M149.169,61.451a14.453,14.453,0,0,0,1.481,1.77q10.889,11.522,21.818,23c.248.261.59.342.6.831q-12.337-2.111-24.673-4.29c-.7-.121-1.32-.248-1.166.757a.22.22,0,0,0,.107.154,3.712,3.712,0,0,0,.9.248q13.221,2.323,26.463,4.571a4.468,4.468,0,0,1,.168,1.924q-13.5-2.343-27-4.719c-.6-.107-.838.127-.731.7a.463.463,0,0,0,.409.409q12.528,2.162,24.794,4.323c.416.074,2.487.737,2.721.047.047.107.161.074.349-.094a.126.126,0,0,1,.174.007q5.61,6.043,11.221,12a.97.97,0,0,1,.154.389c.02.074.067.121.121.121.221,0,.147-.59.154-.731l-.013,2.782q-.925-.131-4.638-.811-14.629-2.695-48.046-8.62l-.027-5.7q-.07-13.563.027-27.106c.02-2.849.751-4.223,3.854-3.727q5.389.855,10.778,1.763Zm25.786,32.422a.441.441,0,0,0-.362-.509l-26.946-4.705a.441.441,0,0,0-.509.362l-.047.268a.441.441,0,0,0,.362.509h0L174.4,94.5a.441.441,0,0,0,.509-.362Z" transform="translate(-44.342 -19.641)" fill="#63a998"/>
        <path id="Path_953" data-name="Path 953" d="M85.974,68.551a11.7,11.7,0,0,1-4-1.944c-.282-.188-.315-.389-.094-.617a.3.3,0,0,0,.094-.174,19.229,19.229,0,0,0,.355-3.4,5.413,5.413,0,0,0,1.059-2.111c.08-.335.154-.335.228,0a60,60,0,0,0,2.359,8.231Z" transform="translate(-26.949 -19.798)" fill="#223f86"/>
        <path id="Path_954" data-name="Path 954" d="M156.39,62.37c3.1.516,6.193,1.019,9.29,1.562,1.508.261,3.03.469,4.558.61l1.093.268c-.328.074-.322.141,0,.188q6.385,1.016,12.776,2.058,6.2.935,7.313,1.247a4.27,4.27,0,0,1,2.916,3.546,22.2,22.2,0,0,1,.1,2.286c.134,7.621.02,16.684.034,29.66,0,.141.067.731-.154.731a.141.141,0,0,1-.121-.121.97.97,0,0,0-.154-.389q-5.61-5.952-11.221-12a.125.125,0,0,0-.174-.007c-.181.168-.3.2-.349.094a.631.631,0,0,0-.2-.764,4.468,4.468,0,0,0-.168-1.924c1.153-1.334-.985-1.314-1.635-1.441-.013-.489-.355-.57-.6-.831q-10.929-11.472-21.818-23a15.542,15.542,0,0,1-1.481-1.77Z" transform="translate(-51.563 -20.561)" fill="#488975"/>
        <path id="Path_955" data-name="Path 955" d="M66.189,64.766a6.368,6.368,0,0,1-7.179-.355c.087-.1.194-.107.328-.013a3.071,3.071,0,0,0,2.319.523c.764-.121,2.1-.838,2.715.074a.128.128,0,0,0,.154.054,5.961,5.961,0,0,1,1.662-.282Z" transform="translate(-19.456 -21.207)" fill="#020204"/>
        <path id="Path_956" data-name="Path 956" d="M178.559,66l12.876,2.111-.1.141q-6.384-1.046-12.776-2.058c-.328-.054-.328-.114,0-.188Z" transform="translate(-58.792 -21.758)" fill="#7296db"/>
        <path id="Path_957" data-name="Path 957" d="M71.985,69.634c6.4,8.6,8.345,18.983,8.513,29.573.034,2.152,4.4,5.362,6.073,6.462a2.632,2.632,0,0,0,.516.275.3.3,0,0,1,.134.127.159.159,0,0,0,.241.047,1.214,1.214,0,0,0,.818.509,7.539,7.539,0,0,0,2.232,1.3,56.418,56.418,0,0,0,5.228,2.313,24.519,24.519,0,0,0,3.566,1.341c.221.034.328.121.335.261l-1.233,2.815a45.168,45.168,0,0,1-17.019-8.09c-4.183-3.164-7.9-7.219-9.847-12.032a64.752,64.752,0,0,1-3.365-12.876c-.2-1.126-1.166-5.764-3.271-3.559-5.791,6.073-7.038,15.256-3.894,22.89,3.164,7.688,9.424,12.508,16.838,15.832a14.056,14.056,0,0,0,1.924.7.118.118,0,0,1,.08.127l-.02.134q-12.94,4.494-25.96,8.754c-.161-.436,1.367-6.455,1.609-6.931.53-1.046,1.91-2.333,2.413-3.687a9.5,9.5,0,0,0,.4-3.955,159.744,159.744,0,0,1,.04-19.787,79.678,79.678,0,0,1,1.207-8.164c.288-.751.489-1.314.6-1.682,1.682-5.483,6-10.054,10.825-12.937.449-.268.845-.563,1.012.214Z" transform="translate(-17.759 -22.784)" fill="#ff6a47"/>
        <path id="Path_958" data-name="Path 958" d="M149.37,69.137q5.821.865,8.754,1.381c3.258.576,2.547,5.443,2.634,7.675V88.91c-.013,4.947-.147,8.486.06,11.093a1.248,1.248,0,0,0,1.133,1.22l.047,3.083a.472.472,0,0,0,.422.509l17.34,3.083a20.16,20.16,0,0,0,7.467,1.977,10.479,10.479,0,0,0,6.18-1.709,14.771,14.771,0,0,0,2.829.007.174.174,0,0,0,.147-.114,11.37,11.37,0,0,0,.6-3.11l.221-.422a.488.488,0,0,1,.114-.154c.074-.04.114.013.121.147l-.154.637a.3.3,0,0,0,.208.362h.013l8.325,1.622,4.431.824c.06,0,.094.013.114.06v29.392l-4.739.918a.085.085,0,0,1-.1-.067v-.013l-.06-9.384a.17.17,0,0,0-.154-.174l-1.22-.054,3.184-3.747c.161-.188.114-.275-.121-.261l-1.8.087c.429-1.428.107-1.689-.979-.784a19.456,19.456,0,0,0-2.48,2.5.365.365,0,0,1-.489.067.557.557,0,0,0-.355-.04,79,79,0,0,0-.06-8.546,4.907,4.907,0,0,0,.1-1.951.142.142,0,0,0-.121-.121,4.318,4.318,0,0,0-2.192.074c-4.33,1.441-3.821,5.543-2.319,8.9a5.553,5.553,0,0,1,1.2,2.554c.054.268.308.576-.121.731l-2.071-.047a.1.1,0,0,1-.1-.114h0l.013-3.351a.142.142,0,0,0-.141-.141h-2.7a.116.116,0,0,0-.114.1l-.047,1.186a51.248,51.248,0,0,0-4.927,7.433,1.155,1.155,0,0,0,.047,1.173.28.28,0,0,0,.094.161,3.6,3.6,0,0,0,.53.9q2.192,2.755,4.531,5.436l-12.072,2.219a37.2,37.2,0,0,1,2.534-2.969,7.8,7.8,0,0,0,1.026-1.267c1.8-2.976.188-6.314-3.331-6.341a.2.2,0,0,1-.188-.2l-.047-1.77a.142.142,0,0,0-.147-.134l-7.856-.013a.134.134,0,0,0-.134.134h0l.007,13.211h-1.233l.04-9.558a.6.6,0,0,0-.563-.65,7.26,7.26,0,0,0-2.051.013.169.169,0,0,0-.147.107,1.219,1.219,0,0,0-.04.771c-3.217.315-5,2.755-3.486,5.764a11.934,11.934,0,0,0,3.244,3.559,2.523,2.523,0,0,1,.094,1.066,3.3,3.3,0,0,1-1.32.121c-.449-.094-.637.121-.543.643a1.844,1.844,0,0,1,.013.576c-.04.308.127.523.489.65a10.808,10.808,0,0,1,3.794,2.286l-44.7-8.057L88.595,134.4q-18.852-3.449-37.744-6.649c-.034,0-.074-.034-.121-.094a5.567,5.567,0,0,1,2.118-1.093q13.02-4.263,25.96-8.754l.168-.04a.555.555,0,0,1,.188-.02,71.187,71.187,0,0,0,10.014,2.554q-4.987,1.7-9.967,3.2c-.972.295-2.286.67-2.326,1.877A1.832,1.832,0,0,0,78.52,127c3.1.5,6.22,1.394,9.3,2.058a8.673,8.673,0,0,0,4.585-.06q7.993-2.443,23.467-7.608a27.517,27.517,0,0,1,3.271.7c.952.268,3.05.469,1.917-1.3-.06-.094-.034-.127.074-.1.972.228,2.594.664,3.5.308q1.116-.432.282-1.89c.268-.074,1.783-.141,1.609-.543-.06-.141-.02-.181.121-.127a1.5,1.5,0,0,0,1.756-2.266,34.063,34.063,0,0,0-3.137-3.492c-.771-1.253-1.7-2.5-3.244-2.8-2.346-.463-4.384-1.026-5.818-1.24a14.708,14.708,0,0,1-3.137-.764l-4.424-1.971a49.67,49.67,0,0,1-6.421-2.628,1.8,1.8,0,0,1-.8-.778q-1.538-2.865-3.2-5.664l8.687-3.184.027,5.7c0,1.729-.382,4.169.851,5.577.8.925,2.52,1.019,3.827,1.24q6.374,1.056,21.543,3.908a49.556,49.556,0,0,0-.013,5.644l-.054,3.479a3.21,3.21,0,0,0-1.843,1.495.08.08,0,0,0,.027.114.051.051,0,0,1,.027.013l1.843.275.228.463a.245.245,0,0,0,.147.121,21.387,21.387,0,0,0,2.567.65q4.273.845,8.7,1.729a.131.131,0,0,0,.154-.107v-.027l.04-6.093.067-5.6.8.1a.123.123,0,0,1,.107.121l.054,2.661a.51.51,0,0,0,.389.543,22.32,22.32,0,0,0,2.393.576q12.859,2.4,25.692,4.893a12.371,12.371,0,0,0,2.145.282c1.877.013,2.8-.523,5.148-1.468q3.64-1.458,7.266-2.976c.972-.409,1.6-.643,1.843-1.6.275-1.086-.362-1.522-1.354-1.709q-14.207-2.7-28.568-5.389a.183.183,0,0,0-.214.147v.034c-.013,1.106-.034,2.232-.047,3.372-.02,1.441-.349,2.447-1.9,2.6-.067.007-.08-.02-.034-.074,1.133-1.394.885-3.338.838-5.577l.013-2.782c-.013-12.97.1-22.032-.034-29.66a22.2,22.2,0,0,0-.1-2.286,4.251,4.251,0,0,0-2.916-3.546q-1.116-.312-7.313-1.247l.1-.141Zm-2.8,54.816a1.416,1.416,0,0,0,1.093.255,9.159,9.159,0,0,0,1.428-.382c1.461-.509,2.929-1.019,4.39-1.535q.5-.181-.02-.282l-7.554-1.522a.135.135,0,0,0-.154.1v.027c0,1.2-.268,2.567.811,3.345Zm-16.724,4.364q-.01,4.223-.007,8.452c0,1.207-.127,2.158,1.341,2.158,2.071,0,4.2-.087,6.267.054,1.863.127,2.192-.536,2.172-2.272q-.04-4.173-.054-8.345c.02-1.193.436-3-1.381-3.01q-3.479-.03-6.958-.027c-1.662,0-1.448,1.562-1.381,2.989Z" transform="translate(-16.726 -22.783)" fill="#fec179"/>
        <path id="Path_959" data-name="Path 959" d="M48.686,84.211a79.4,79.4,0,0,0-1.207,8.164,159.745,159.745,0,0,0-.04,19.787,9.5,9.5,0,0,1-.4,3.955c-.509,1.354-1.89,2.641-2.413,3.687-.241.483-1.77,6.5-1.609,6.931-.436.161-1.783.59-2.118,1.093-.416.268-.308,2.292-.255,2.882l-10.805,3.707a.3.3,0,0,0-.208.255q-1.146,8.174-2.239,16.436c-.483,3.68-1.126,6.971.6,10.322a.112.112,0,0,0,.154.047c.013,0,.02-.013.027-.02a16.616,16.616,0,0,1,3.814-2.976,74.572,74.572,0,0,1,11.576-4.9.072.072,0,0,0,.047-.094.051.051,0,0,0-.013-.027c-4.457-4.759-5.369-11.053-3.868-17.293a16.576,16.576,0,0,0,2.936-.248q6.576-1.005,11.234-2.172a5.013,5.013,0,0,1,.7.074q11.633,2.121,23.3,4.1l38.22,6.8a3.093,3.093,0,0,0,.617.161c33.722,6.1,67.465,12.1,101.173,18.3v25.176H79.325l-.04-21.717a.126.126,0,0,0-.06-.121c-.04-.007-.067.02-.08.1-.4,1.79-2.145,2.882-3.687,3.539-6,2.554-12.622,2.735-19,1.649a.128.128,0,0,0-.147.107v12.541a.143.143,0,0,0,.107.134,16.751,16.751,0,0,1,4.7,1.9,15.151,15.151,0,0,1,2.661,1.857l-19.532.013a21.555,21.555,0,0,1,7.32-3.847.143.143,0,0,0,.1-.134l-.027-13.238a.117.117,0,0,0-.1-.121q-8.838-1.589-17.7-3.05c-1.837-.3-2.916-.5-3.244-.6-3.606-1.086-6.046-4.524-6.656-8.164a25.056,25.056,0,0,1,.268-7.936q1.1-7.9,2.165-15.718a.183.183,0,0,0-.161-.208h-.054A4.073,4.073,0,0,1,21.2,132.25c-1.139-3.827,1.917-8.5,3.459-11.878a10.033,10.033,0,0,0,1-3.432c.268-7.346-1.394-14.344-2.272-22.086-.469-5.409-1.059-17.615,4.779-20.766q.332-.181,2.943-1.106,3.268-1.166,6.549-2.279a23.846,23.846,0,0,1,3.62-1.059c4.323-.288,6.14,6.126,6.569,9.237.322,2.306.6,4.082.838,5.315Z" transform="translate(-6.907 -22.957)" fill="#071c2f"/>
        <path id="Path_960" data-name="Path 960" d="M81.7,69.83a11.58,11.58,0,0,0,4,1.944l.992,2.178q3.388,7.682,6.663,15.41c1.642,3.881,2.768,6.931,2.882,11.066.054,1.977.1,3.948.141,5.925-.114.06-.194.047-.241-.047A.243.243,0,0,0,96,106.18a2.617,2.617,0,0,1-.516-.275c-1.676-1.1-6.039-4.3-6.073-6.462C89.245,88.846,87.3,78.47,80.9,69.87a1.289,1.289,0,0,0,.8-.04Z" transform="translate(-26.674 -23.021)" fill="#fb8c9c"/>
        <path id="Path_961" data-name="Path 961" d="M95.869,73.728Q100,80.274,104.013,86.92a.416.416,0,0,0,.389.168,2.487,2.487,0,0,0,.858,1.8,24.519,24.519,0,0,1,1.582,2.882,14.523,14.523,0,0,1-1.408,5.979c-.912,1.91-2.172,3.325-2.306,5.57l-.757,6.026a7.687,7.687,0,0,1-2.232-1.3c-.034-2.078-.074-4.149-.121-6.227a25.269,25.269,0,0,0-2-9.31q-3.881-9.18-7.876-18.3l-.315-.791a12.713,12.713,0,0,0,6.046.315Z" transform="translate(-29.618 -24.204)" fill="#63a998"/>
        <path id="Path_962" data-name="Path 962" d="M90.039,74.6q4,9.119,7.876,18.3a25.135,25.135,0,0,1,2,9.31c.047,2.071.094,4.149.121,6.227a1.205,1.205,0,0,1-.818-.509q-.06-2.956-.141-5.925c-.114-4.136-1.24-7.186-2.882-11.066Q92.925,83.2,89.53,75.525c.657.02.791-.194.422-.643A.187.187,0,0,1,89.9,74.7a.166.166,0,0,1,.134-.1Z" transform="translate(-29.519 -24.593)" fill="#16112a"/>
        <path id="Path_963" data-name="Path 963" d="M101.1,118.794a23.879,23.879,0,0,0-1.522,5.878,41.194,41.194,0,0,1-6.683-.241,71.188,71.188,0,0,1-10.014-2.554.419.419,0,0,0-.188.02l-.168.04.02-.134a.114.114,0,0,0-.08-.127,16.083,16.083,0,0,1-1.924-.7c-7.42-3.325-13.674-8.144-16.838-15.832-3.144-7.635-1.9-16.818,3.894-22.89,2.111-2.212,3.077,2.426,3.271,3.559a65.212,65.212,0,0,0,3.365,12.876c1.951,4.813,5.657,8.861,9.847,12.032a45.221,45.221,0,0,0,17.019,8.09Z" transform="translate(-20.449 -26.921)" fill="#63a998"/>
        <path id="Path_964" data-name="Path 964" d="M214.88,83.29A7.663,7.663,0,0,1,216.9,84.4a24.583,24.583,0,0,1,4.974,4.612c1.837,2.366,1.7,6.113,4.444,7.883a19.76,19.76,0,0,1-2.943,4.3,35.787,35.787,0,0,1-5.061-4.444c-.7-1.126-1.877-3.405-3.425-3.164V83.29Z" transform="translate(-70.848 -27.458)" fill="#fdb597"/>
        <path id="Path_965" data-name="Path 965" d="M179.328,98.409c.65.121,2.788.107,1.636,1.441Q167.722,97.6,154.5,95.278a3.428,3.428,0,0,1-.9-.248.22.22,0,0,1-.107-.154c-.154-1.005.463-.885,1.166-.757Q166.991,96.291,179.328,98.409Z" transform="translate(-50.599 -31.001)" fill="#fbfefe"/>
        <path id="Path_966" data-name="Path 966" d="M181.091,103.248a.644.644,0,0,1,.2.764c-.235.684-2.306.027-2.721-.047Q166.3,101.8,153.777,99.642a.457.457,0,0,1-.409-.409c-.107-.57.141-.8.731-.7q13.493,2.383,27,4.719Z" transform="translate(-50.559 -32.475)" fill="#fbfefe"/>
        <path id="Path_967" data-name="Path 967" d="M218.29,101.808a25.134,25.134,0,0,0-1.877,7.3,10.935,10.935,0,0,1-.355,1.857,1.243,1.243,0,0,1-1.133-1.22c-.2-2.607-.074-6.147-.06-11.093,1.548-.248,2.721,2.038,3.425,3.164Z" transform="translate(-70.826 -32.517)" fill="#fa8e1e"/>
        <path id="Path_968" data-name="Path 968" d="M113.383,100.8l4.256,6.488q1.669,2.8,3.2,5.664a1.84,1.84,0,0,0,.8.778,50.639,50.639,0,0,0,6.421,2.628l-1.843,3.09a33.23,33.23,0,0,1-9.3-1.964,18.658,18.658,0,0,1-7.259-5.134c.134-2.245,1.394-3.66,2.306-5.57a14.5,14.5,0,0,0,1.408-5.979Z" transform="translate(-36.159 -33.232)" fill="#fe440c"/>
        <path id="Path_969" data-name="Path 969" d="M16.476,105.868c.878,7.742,2.54,14.74,2.272,22.086a10.385,10.385,0,0,1-1,3.432c-1.542,3.378-4.591,8.05-3.459,11.878a4.073,4.073,0,0,0,4.953,3.077.188.188,0,0,1,.214.147v.054q-1.066,7.812-2.165,15.718a25.062,25.062,0,0,0-.268,7.936c.6,3.64,3.05,7.078,6.656,8.164.328.1,1.414.3,3.244.6q8.868,1.458,17.7,3.05a.122.122,0,0,1,.1.121l.027,13.238a.143.143,0,0,1-.1.134,21.555,21.555,0,0,0-7.32,3.847H0v-96.14a.334.334,0,0,0,.067-.127.1.1,0,0,1,.1-.087h0l16.315,2.869Z" transform="translate(0 -33.957)" fill="#63a998"/>
        <rect id="Rectangle_1345" data-name="Rectangle 1345" width="1.16" height="28.239" rx="0.58" transform="matrix(0.172, -0.985, 0.985, 0.172, 102.673, 70.074)" fill="#fbfefe"/>
        <path id="Path_970" data-name="Path 970" d="M218.9,103.37a35.785,35.785,0,0,0,5.061,4.444l-.215,1.24a.259.259,0,0,0,.034.188,32.29,32.29,0,0,0,9.116,8.774c.248.161.7.221.952.55a.229.229,0,0,0,.161.087.433.433,0,0,1,.462.55l-17.34-3.083a.472.472,0,0,1-.422-.509l-.047-3.083a10.1,10.1,0,0,0,.355-1.857,25.133,25.133,0,0,1,1.877-7.3Z" transform="translate(-71.435 -34.079)" fill="#fdc369"/>
        <path id="Path_971" data-name="Path 971" d="M134.539,114.24q33.421,5.922,48.046,8.62c2.48.456,4.022.731,4.638.811.04,2.239.295,4.183-.838,5.577-.047.054-.034.08.034.074,1.542-.154,1.87-1.153,1.9-2.6.02-1.139.034-2.266.047-3.372a.186.186,0,0,1,.188-.181h.034q14.358,2.685,28.568,5.389c.992.188,1.629.623,1.354,1.709-.241.952-.878,1.186-1.843,1.6q-3.62,1.518-7.266,2.976c-2.353.945-3.271,1.481-5.148,1.468a13.08,13.08,0,0,1-2.145-.282q-12.839-2.493-25.692-4.893a23.123,23.123,0,0,1-2.393-.576.514.514,0,0,1-.389-.543l-.054-2.661a.123.123,0,0,0-.107-.121l-.8-.1-11.911-2.158q-15.172-2.855-21.543-3.908c-1.307-.214-3.023-.308-3.827-1.24-1.233-1.414-.851-3.854-.851-5.577Z" transform="translate(-44.338 -37.663)" fill="#0b132f"/>
        <path id="Path_972" data-name="Path 972" d="M109.294,118.027a18.589,18.589,0,0,0,7.259,5.134.6.6,0,0,1-.4.094.14.14,0,0,0-.141.08,1.447,1.447,0,0,1-1.213,1.019c-.322.047-.429.174-.322.389a.2.2,0,0,1,.013.181l-.6.838a.456.456,0,0,0-.087.174l-.04.422a55.637,55.637,0,0,1-5.228-2.312l.757-6.026Z" transform="translate(-35.784 -38.909)" fill="#ec6e6d"/>
        <path id="Path_973" data-name="Path 973" d="M302.709,122.528q-.161,7.973-.067,15.852v21.288c-1.153.067-2.319.1-3.506.107-3.117.013-5.53.08-8.3.141-1.119.02-1.79-.462-1.81-1.6-.02-1.361-.08-2.721-.194-4.089v-.6l.04-2.8a.286.286,0,0,1,.181-.268c.436-.161.583-.5.979-.724,7-3.894,10.028-11.75,5.979-19.09-1.32-2.393-3.948-4.39-6.321-5.952a.86.86,0,0,0-.858.04c-.013-.047-.054-.067-.114-.06.476-.074.255-.422.261-.684a7.628,7.628,0,0,1,.57-3.325c.181-.094.248-.275.194-.55a13.619,13.619,0,0,1,5.188.308c1.481.382,2.232.57,2.245.57q2.785.613,5.516,1.434Z" transform="translate(-95.194 -39.596)" fill="url(#linear-gradient)"/>
        <path id="Path_974" data-name="Path 974" d="M267.173,122.58a11.627,11.627,0,0,1-.6,3.11.176.176,0,0,1-.147.114,14.771,14.771,0,0,1-2.829-.007,12.978,12.978,0,0,0,3.573-3.217Z" transform="translate(-86.912 -40.413)" fill="#d7e3e7"/>
        <path id="Path_975" data-name="Path 975" d="M309.542,123.72c1.106.328,1.971.315,2,1.589q.141,6.616.047,13.232a.815.815,0,0,0-.838.409,1.208,1.208,0,0,1-1.146.483.079.079,0,0,0-.074.074.091.091,0,0,1-.047.074q-.1-7.873.067-15.852Z" transform="translate(-102.027 -40.789)" fill="#223f86"/>
        <path id="Path_976" data-name="Path 976" d="M134.957,124.007l4.424,1.971a17.464,17.464,0,0,0-1.843,4.343,20.676,20.676,0,0,1-4.632,1.656,13.708,13.708,0,0,1-2.333-.295l-.013-.054,2.554-4.538,1.843-3.09Z" transform="translate(-43.047 -40.881)" fill="#fda9b0"/>
        <path id="Path_977" data-name="Path 977" d="M119.128,125.69a33.468,33.468,0,0,0,9.3,1.964l-2.554,4.538a2.88,2.88,0,0,1-1.012-.154c-1.542-.523-3.077-1.032-4.618-1.542,0-.141-.114-.228-.335-.261a23.955,23.955,0,0,1-3.566-1.341l.04-.422a.374.374,0,0,1,.087-.174l.6-.838a.179.179,0,0,0-.013-.181c-.107-.214,0-.342.322-.389a1.457,1.457,0,0,0,1.213-1.019.135.135,0,0,1,.141-.08.566.566,0,0,0,.4-.094Z" transform="translate(-38.359 -41.438)" fill="#ec7478"/>
        <path id="Path_978" data-name="Path 978" d="M142.813,126.95a14.916,14.916,0,0,0,3.137.764c1.434.214,3.472.778,5.818,1.24,1.542.3,2.473,1.548,3.244,2.8a1.974,1.974,0,0,1,.489,1.22,1.188,1.188,0,0,1-.489,1.052c-1.012.731-2.111-.563-2.889-1.508-.8-.979-1.709.362-.858,1q.08.06-.02.04a5.282,5.282,0,0,0-2.46.194,16.078,16.078,0,0,0-3.016-.489,8.676,8.676,0,0,0-4.8-1.964,17.464,17.464,0,0,1,1.843-4.343Z" transform="translate(-46.479 -41.854)" fill="#fcb195"/>
        <path id="Path_979" data-name="Path 979" d="M288.9,155.888v-28.8a.86.86,0,0,1,.858-.04c2.373,1.568,5.007,3.566,6.321,5.952,4.049,7.34,1.019,15.2-5.979,19.09-.4.221-.543.563-.979.724a.286.286,0,0,0-.181.268l-.04,2.8Z" transform="translate(-95.253 -41.856)" fill="#d8424b"/>
        <path id="Path_980" data-name="Path 980" d="M173.649,130.25l11.911,2.158-.067,5.6-11.851-2.118a48.06,48.06,0,0,1,.013-5.644Z" transform="translate(-57.227 -42.942)" fill="#668bf1"/>
        <path id="Path_981" data-name="Path 981" d="M126.432,134.556l.013.054c-.55.322-1.287,5.369-1.347,6.019a56.8,56.8,0,0,1-7.058.925,23.88,23.88,0,0,1,1.522-5.878l1.233-2.815q2.313.754,4.618,1.542a2.88,2.88,0,0,0,1.012.154Z" transform="translate(-38.919 -43.802)" fill="#fda8b3"/>
        <path id="Path_982" data-name="Path 982" d="M138.692,133.43a8.628,8.628,0,0,1,4.8,1.964q-4.715.04-9.431-.3a21.137,21.137,0,0,0,4.632-1.656Z" transform="translate(-44.201 -43.99)" fill="#0b122f"/>
        <path id="Path_983" data-name="Path 983" d="M158.857,134.11a37.337,37.337,0,0,1,3.137,3.492,1.5,1.5,0,0,1-1.756,2.266c-.141-.054-.181-.013-.121.127.174.4-1.341.462-1.609.543a39.274,39.274,0,0,1-4.23-1.528c-.074-.034-.127-.087-.114-.121s.074-.04.174-.027a19.785,19.785,0,0,0,4.27.141c.221-.013,1.3.168.456-.382a2.678,2.678,0,0,0-.623-.3c-1.455-.5-2.9-.992-4.323-1.341a3,3,0,0,1-1.488-.865,5.378,5.378,0,0,1,2.46-.194c.06.007.067,0,.02-.04-.851-.63.054-1.971.858-1,.778.945,1.877,2.239,2.889,1.508a1.18,1.18,0,0,0,.489-1.052,1.951,1.951,0,0,0-.489-1.22Z" transform="translate(-50.324 -44.214)" fill="#fec179"/>
        <path id="Path_984" data-name="Path 984" d="M129.921,135.457a13.711,13.711,0,0,0,2.333.295q4.715.342,9.431.3a16.644,16.644,0,0,1,3.016.489,3,3,0,0,0,1.488.865c1.428.349,2.869.838,4.323,1.341a2.678,2.678,0,0,1,.623.3c.851.55-.228.369-.456.382a19.771,19.771,0,0,1-4.27-.141c-.107-.013-.161,0-.174.027s.04.087.114.121a39.8,39.8,0,0,0,4.23,1.528c.556.965.456,1.6-.282,1.89-.9.355-2.52-.087-3.5-.308-.107-.027-.134.007-.074.1,1.126,1.77-.965,1.568-1.917,1.3a27.233,27.233,0,0,0-3.271-.7l-.543-.322q-3.177-.583-6.374-1.307a15.147,15.147,0,0,0-6.039-.147c.06-.65.8-5.7,1.347-6.019Z" transform="translate(-42.394 -44.656)" fill="#fcb195"/>
        <path id="Path_985" data-name="Path 985" d="M173.647,138.67l11.851,2.118-.04,6.093a.134.134,0,0,1-.134.134H185.3q-4.424-.885-8.7-1.729a21.387,21.387,0,0,1-2.567-.65.245.245,0,0,1-.147-.121l-.228-.462-.054-1.9.054-3.479Z" transform="translate(-57.238 -45.718)" fill="#d0e6ec"/>
        <path id="Path_986" data-name="Path 986" d="M272.145,140.858a29.134,29.134,0,0,1-4.524,6.9c-1.495-3.358-2-7.46,2.319-8.9a4.394,4.394,0,0,1,2.192-.074.159.159,0,0,1,.121.121,5.033,5.033,0,0,1-.1,1.951Z" transform="translate(-87.882 -45.721)" fill="#ff6a47"/>
        <path id="Path_987" data-name="Path 987" d="M272.671,141.93a79,79,0,0,1,.06,8.546v1.763l-3.512-.121c.436-.161.174-.462.121-.731a5.486,5.486,0,0,0-1.2-2.554,28.664,28.664,0,0,0,4.524-6.9Z" transform="translate(-88.409 -46.793)" fill="#f1f5f7"/>
        <path id="Path_988" data-name="Path 988" d="M172.676,143.85l.054,1.9-1.843-.275a.079.079,0,0,1-.067-.094c0-.013,0-.02.013-.027a3.21,3.21,0,0,1,1.843-1.495Z" transform="translate(-56.321 -47.426)" fill="#202447"/>
        <path id="Path_989" data-name="Path 989" d="M128.181,145.782q-10.9,3.509-21.8,6.991a10.358,10.358,0,0,1-5.5.536q-6.968-1.538-10.135-2.393a1.891,1.891,0,0,1-1.012-.824c.04-1.207,1.354-1.589,2.326-1.877q4.987-1.508,9.967-3.2a41.194,41.194,0,0,0,6.683.241,59.453,59.453,0,0,0,7.058-.925,15.144,15.144,0,0,1,6.039.147q3.2.724,6.374,1.307Z" transform="translate(-29.588 -47.508)" fill="#0b122f"/>
        <path id="Path_990" data-name="Path 990" d="M311.608,145.824q0,10.517-.027,21.014c0,1.066-1.247,1.408-2.071,1.314V146.863a.321.321,0,0,0,.04-.074.085.085,0,0,1,.074-.074,1.222,1.222,0,0,0,1.146-.483.837.837,0,0,1,.838-.409Z" transform="translate(-102.049 -48.073)" fill="#223f86"/>
        <path id="Path_991" data-name="Path 991" d="M193.317,149.222c-1.079-.778-.811-2.145-.811-3.345a.127.127,0,0,1,.127-.127h.027l7.554,1.522q.523.1.02.282c-1.461.509-2.929,1.026-4.39,1.535a9.156,9.156,0,0,1-1.428.382,1.409,1.409,0,0,1-1.093-.255Z" transform="translate(-63.461 -48.052)" fill="#0b112b"/>
        <path id="Path_992" data-name="Path 992" d="M133.559,146.61l.543.322q-15.474,5.158-23.467,7.608a8.673,8.673,0,0,1-4.585.06,1.31,1.31,0,0,0,.208-.462,10.358,10.358,0,0,0,5.5-.536q10.909-3.479,21.8-6.991Z" transform="translate(-34.966 -48.336)" fill="#7296db"/>
        <path id="Path_993" data-name="Path 993" d="M279.289,151.419l-2.111,2.835a1.956,1.956,0,0,0-.972,1.072c-.288.067-1.394.3-1.233-.4v-1.763a.543.543,0,0,1,.369.04.372.372,0,0,0,.489-.067,19.9,19.9,0,0,1,2.48-2.5c1.086-.9,1.408-.643.979.784Z" transform="translate(-90.656 -49.491)" fill="#f37c26"/>
        <path id="Path_994" data-name="Path 994" d="M278.834,155.938l-1.253-.013c-.543-.134.288-.764.4-1.072l2.111-2.835,1.8-.087q.362-.02.121.261l-3.184,3.747Z" transform="translate(-91.461 -50.089)" fill="#13a691"/>
        <path id="Path_995" data-name="Path 995" d="M89.74,153.05a1.931,1.931,0,0,0,1.012.824q3.167.855,10.135,2.393a1.2,1.2,0,0,1-.208.462c-3.083-.67-6.207-1.555-9.3-2.058a1.839,1.839,0,0,1-1.636-1.615Z" transform="translate(-29.588 -50.459)" fill="#2c69c0"/>
        <path id="Path_996" data-name="Path 996" d="M178.477,156.023l-9.719-.054c-.067-1.428-.275-2.989,1.381-2.989q3.479,0,6.958.027c1.816.013,1.408,1.823,1.381,3.01Z" transform="translate(-55.626 -50.436)" fill="#488975"/>
        <path id="Path_997" data-name="Path 997" d="M259.565,153.6a7.711,7.711,0,0,1,.228,1.16,4.044,4.044,0,0,0,.241,1.146,5.573,5.573,0,0,0,1.1,1.656,50.521,50.521,0,0,0-4.994,3.754,2.488,2.488,0,0,0-.891.784l-.55.1a1.155,1.155,0,0,1-.047-1.173,51.062,51.062,0,0,1,4.927-7.434Z" transform="translate(-83.916 -50.637)" fill="#f67e1f"/>
        <path id="Path_998" data-name="Path 998" d="M277.792,156.29c-.114.308-.945.938-.4,1.072h-.57A1.932,1.932,0,0,1,277.792,156.29Z" transform="translate(-91.271 -51.527)" fill="#aa6572"/>
        <path id="Path_999" data-name="Path 999" d="M50.561,156.437a.305.305,0,0,0,.121.094q18.892,3.207,37.744,6.649c-.268-.06-.4-.007-.409.161-.04.757-.1,1.515-.194,2.266a.319.319,0,0,1-.08.174.885.885,0,0,0-.188.737q-11.663-1.981-23.3-4.1a5.013,5.013,0,0,0-.7-.074c-1.622-.295-3.231-.61-4.839-.938-2.715-.556-5.47-.811-8.184-1.374a.941.941,0,0,0-.221-.724c-.047-.6-.154-2.621.255-2.882Z" transform="translate(-16.571 -51.573)" fill="#ff8791"/>
        <path id="Path_1000" data-name="Path 1000" d="M168.775,157.44l9.719.054q.01,4.173.054,8.345c.013,1.736-.315,2.4-2.172,2.272-2.064-.147-4.2-.054-6.267-.054-1.468,0-1.341-.958-1.341-2.158q0-4.223.007-8.452Zm8.419,2.447a22.193,22.193,0,0,1-3.774,4.625c-.268.248-.235.3.1.154,1.173-.509,2.708-1,3.492-2.085.643-.891,1.126-1.756.389-2.708a.134.134,0,0,0-.181-.027c-.013.007-.02.02-.034.034Z" transform="translate(-55.644 -51.906)" fill="#63a998"/>
        <path id="Path_1001" data-name="Path 1001" d="M261.92,159.51l-.02,10.658a.291.291,0,0,1-.067.188.917.917,0,0,1-.543.3l-.623-1.039a11.786,11.786,0,0,0-2.051-2.413,2.38,2.38,0,0,1-.576-.784l-1.119-3.157a51.331,51.331,0,0,1,4.994-3.754Z" transform="translate(-84.709 -52.589)" fill="#13a691"/>
        <path id="Path_1002" data-name="Path 1002" d="M240.464,173.205c.134.818-.335.65-.851.65H232.34V160.644a.125.125,0,0,1,.127-.134h0l7.856.013a.147.147,0,0,1,.147.134l.047,1.77a.2.2,0,0,0,.188.2c3.519.027,5.134,3.365,3.331,6.341a8.617,8.617,0,0,1-1.026,1.267,37.2,37.2,0,0,0-2.534,2.969Zm3.057-7.293a2.633,2.633,0,0,0-2.835-1.951.106.106,0,0,0-.1.114l-.054,6.877c0,.087.027.1.094.04,1.274-1.16,3.432-3.117,2.9-5.087Z" transform="translate(-76.605 -52.919)" fill="#13a691"/>
        <path id="Path_1003" data-name="Path 1003" d="M43.555,160.747a.933.933,0,0,1,.221.724,30.99,30.99,0,0,0-1.139,4.732c-1.5,6.24-.59,12.534,3.868,17.293a.073.073,0,0,1,0,.1.035.035,0,0,1-.027.013,74.849,74.849,0,0,0-11.576,4.9,16.615,16.615,0,0,0-3.814,2.976.11.11,0,0,1-.161,0c-.007-.007-.013-.02-.02-.027-1.723-3.351-1.079-6.636-.6-10.322q1.086-8.255,2.239-16.436a.313.313,0,0,1,.208-.255l10.805-3.707Z" transform="translate(-9.819 -52.995)" fill="#63a998"/>
        <path id="Path_1004" data-name="Path 1004" d="M179.4,161.06a.123.123,0,0,1,.174-.04.081.081,0,0,1,.034.034c.731.952.255,1.816-.389,2.708-.784,1.086-2.319,1.575-3.492,2.085-.335.147-.369.094-.1-.154a22.37,22.37,0,0,0,3.774-4.625Z" transform="translate(-57.846 -53.08)" fill="#fefdfd"/>
        <path id="Path_1005" data-name="Path 1005" d="M50.1,161.82c2.715.563,5.476.818,8.184,1.374q2.413.493,4.839.938Q58.455,165.3,51.886,166.3a16.576,16.576,0,0,1-2.936.248,32.653,32.653,0,0,1,1.139-4.732Z" transform="translate(-16.139 -53.351)" fill="#fe440c"/>
        <path id="Path_1006" data-name="Path 1006" d="M228.99,175.356c-.013.523.121,1.448-.214,1.863a4.2,4.2,0,0,1-2.695-.8,2.522,2.522,0,0,0-.094-1.066,2.094,2.094,0,0,0,.054-1.548l-.1-6.562.034-.59a.243.243,0,0,1,.067-.174.594.594,0,0,0,.194-.463,1.223,1.223,0,0,1,.04-.771.208.208,0,0,1,.147-.107,7.261,7.261,0,0,1,2.051-.013.6.6,0,0,1,.563.65l-.04,9.558Z" transform="translate(-74.495 -54.419)" fill="#fa7b26"/>
        <path id="Path_1007" data-name="Path 1007" d="M256.495,165.11l1.119,3.157-.188-.154a15.19,15.19,0,0,0-1.816-2.212,2.488,2.488,0,0,1,.891-.784Z" transform="translate(-84.277 -54.435)" fill="#fff"/>
        <path id="Path_1008" data-name="Path 1008" d="M244.714,165.661a2.633,2.633,0,0,1,2.835,1.951c.536,1.971-1.629,3.928-2.9,5.087-.06.054-.094.04-.094-.04l.054-6.877a.116.116,0,0,1,.1-.114Z" transform="translate(-80.634 -54.611)" fill="#fefdfd"/>
        <path id="Path_1009" data-name="Path 1009" d="M255.33,166.28a15.112,15.112,0,0,1,1.816,2.212.3.3,0,0,1-.1.121c-.047.027-.114,0-.154-.067a7.573,7.573,0,0,0-1.749-2.085.166.166,0,0,0-.174-.04.246.246,0,0,0-.094.121.249.249,0,0,1-.094-.161l.55-.1Z" transform="translate(-84.004 -54.821)" fill="#522531"/>
        <path id="Path_1010" data-name="Path 1010" d="M224.383,166.51a.594.594,0,0,1-.194.462.275.275,0,0,0-.067.174l-.034.59c-1.622.3-2.44,1.119-2.44,2.453a5.562,5.562,0,0,0,2.54,4.109,2.1,2.1,0,0,1-.054,1.548,11.846,11.846,0,0,1-3.244-3.559c-1.515-3.01.268-5.449,3.485-5.764Z" transform="translate(-72.65 -54.897)" fill="#eb6d5e"/>
        <path id="Path_1011" data-name="Path 1011" d="M257.192,168.568l.188.154a2.426,2.426,0,0,0,.576.784,9.339,9.339,0,0,0,2.051,2.413l.623,1.039c.04.154.007.255-.094.308a.194.194,0,0,1-.174-.034l-.382-.268q-2.343-2.674-4.531-5.436a3.6,3.6,0,0,1-.53-.9.246.246,0,0,1,.094-.121.152.152,0,0,1,.174.04,7.573,7.573,0,0,1,1.749,2.085.126.126,0,0,0,.154.067.233.233,0,0,0,.1-.121Z" transform="translate(-84.05 -54.89)" fill="#0b132f"/>
        <path id="Path_1012" data-name="Path 1012" d="M106.774,166.493l37.449,6.609-.1,3.539-38.22-6.8a.873.873,0,0,1,.188-.737.319.319,0,0,0,.08-.174c.094-.757.154-1.508.194-2.266.007-.174.147-.228.409-.161Z" transform="translate(-34.912 -54.887)" fill="#ff6d48"/>
        <path id="Path_1013" data-name="Path 1013" d="M224.74,168.33l.1,6.562a5.523,5.523,0,0,1-2.54-4.109C222.3,169.449,223.118,168.632,224.74,168.33Z" transform="translate(-73.295 -55.497)" fill="#fefdfd"/>
        <path id="Path_1014" data-name="Path 1014" d="M259.45,170.98a11.58,11.58,0,0,1,2.051,2.413A9.086,9.086,0,0,1,259.45,170.98Z" transform="translate(-85.543 -56.371)" fill="#5861ad"/>
        <path id="Path_1015" data-name="Path 1015" d="M163.031,176.36l44.7,8.057c1.622.282,3.251.563,4.88.831,1.347.228,3.459.737,5.255.912q4.313.915,8.734,1.629l.925.208a1.926,1.926,0,0,0,1.18.3l1.5.215a9.1,9.1,0,0,0,2.359.355.374.374,0,0,0,.214.114l.771.141,6.6,1.2c6.307,1.133,12.622,2.232,18.916,3.432,1.709.322,3.418.617,5.141.885a.964.964,0,0,1,.516.074v3.66c-33.7-6.2-67.451-12.2-101.173-18.3a2.966,2.966,0,0,1-.617-.161l.1-3.539Z" transform="translate(-53.72 -58.145)" fill="#488975"/>
        <path id="Path_1016" data-name="Path 1016" d="M225.216,182.01a4.209,4.209,0,0,0,2.695.8l-.027.241a.139.139,0,0,0,.08.147l.818.288a.637.637,0,0,0,.463.141q5.017,1.89,7.112,2.48a1.71,1.71,0,0,1,1.414,1.93c-1.79-.174-3.908-.69-5.255-.912q-2.443-.412-4.88-.831a10.808,10.808,0,0,0-3.794-2.286c-.362-.127-.523-.342-.489-.65a2.077,2.077,0,0,0-.013-.576q-.131-.774.543-.643a3.3,3.3,0,0,0,1.32-.121Z" transform="translate(-73.63 -60.007)" fill="#fc6a4c"/>
        <path id="Path_1017" data-name="Path 1017" d="M231.943,183.719a.636.636,0,0,1-.462-.141c.55-.228.8-.831,1.173-1.213a.138.138,0,0,1,.174-.034c.248.168-.731,1.233-.885,1.381Z" transform="translate(-76.321 -60.107)" fill="#ec6e6d"/>
        <path id="Path_1018" data-name="Path 1018" d="M296.039,182.357v14.324a1.034,1.034,0,0,0-.516-.074,4.446,4.446,0,0,0-1.548-.456,3.193,3.193,0,0,1-1.307-.268l-1.22-.221a5.878,5.878,0,0,0-1.756-.248,3.15,3.15,0,0,1-.878-.181,10,10,0,0,0-1.6-.335c-.221-.027-.509.141-.664-.194a.136.136,0,0,0-.141-.087,3.8,3.8,0,0,1-1.5-.181.4.4,0,0,0-.2-.013,9.334,9.334,0,0,1-2.138-.295,10.9,10.9,0,0,1-1.1-.221c-.5-.121-1.139-.241-1.93-.369a22.484,22.484,0,0,1-2.46-.476,2.1,2.1,0,0,0-.824-.114.391.391,0,0,1-.194-.04,2.719,2.719,0,0,0-.992-.174,22.454,22.454,0,0,0-3.606-.436l-6.6-1.2a.568.568,0,0,0-.771-.141.339.339,0,0,1-.215-.114,5.6,5.6,0,0,0-2.319-.409,3.375,3.375,0,0,0-1.227-.255.4.4,0,0,1-.181-.067c-.074-.04-.147-.013-.228.074a1.642,1.642,0,0,0-1.079-.208l-.925-.208.161-.221a.238.238,0,0,1,.161-.094,23.526,23.526,0,0,0,2.406-.369q15.584-2.936,31.155-5.959c1.408-.275,2.822-.53,4.23-.778Z" transform="translate(-85.039 -60.12)" fill="#ff6431"/>
        <path id="Path_1019" data-name="Path 1019" d="M259.3,193.721a1.635,1.635,0,0,1,1.079.208.313.313,0,0,1,.094.094,1.938,1.938,0,0,1-1.18-.3Z" transform="translate(-85.491 -63.863)" fill="#aa6572"/>
        <path id="Path_1020" data-name="Path 1020" d="M262.555,194.243a.045.045,0,0,1-.04.06l-1.5-.215a.252.252,0,0,0-.094-.094c.08-.087.154-.114.228-.074a.462.462,0,0,0,.181.067A3.374,3.374,0,0,1,262.555,194.243Z" transform="translate(-86.028 -63.929)" fill="#aa6572"/>
        <path id="Path_1021" data-name="Path 1021" d="M265.659,194.814a8.782,8.782,0,0,1-2.359-.355c.034,0,.047-.027.04-.06a5.729,5.729,0,0,1,2.319.409Z" transform="translate(-86.813 -64.091)" fill="#aa6572"/>
        <path id="Path_1022" data-name="Path 1022" d="M267.911,195.287l-.771-.141A.567.567,0,0,1,267.911,195.287Z" transform="translate(-88.079 -64.309)" fill="#aa6572"/>
        <path id="Path_1023" data-name="Path 1023" d="M278.13,197.187a23.338,23.338,0,0,1,3.606.436,2.719,2.719,0,0,1,.992.174.33.33,0,0,0,.194.04,2.234,2.234,0,0,1,.824.114,22.487,22.487,0,0,0,2.46.476c.791.127,1.434.248,1.93.369.449.107.818.181,1.1.221a9.335,9.335,0,0,0,2.138.295.678.678,0,0,1,.2.013,3.782,3.782,0,0,0,1.5.181.156.156,0,0,1,.141.087c.154.335.442.168.664.194a10.009,10.009,0,0,1,1.6.335,3.108,3.108,0,0,0,.878.181,5.877,5.877,0,0,1,1.756.248l1.22.221a3.428,3.428,0,0,0,1.307.268,4.523,4.523,0,0,1,1.548.456q-2.574-.392-5.141-.885c-6.294-1.193-12.608-2.292-18.916-3.432Z" transform="translate(-91.702 -65.009)" fill="#db6a5c"/>
        <path id="Path_1024" data-name="Path 1024" d="M96.721,236.008l-15.544-.013a15.4,15.4,0,0,0-2.661-1.857,16.671,16.671,0,0,0-4.7-1.9.137.137,0,0,1-.107-.134V219.586a.127.127,0,0,1,.127-.127h.02c6.381,1.086,13,.9,19-1.649,1.542-.657,3.278-1.743,3.687-3.539q.02-.111.08-.1c.034.007.06.054.06.121l.04,21.717Z" transform="translate(-24.303 -70.611)" fill="#63a998"/>
      </g>
    </g>
  </g>
</svg>
