<?xml version="1.0" encoding="UTF-8"?>
<svg id="a" data-name="Layer 1" xmlns="http://www.w3.org/2000/svg" viewBox="0 0 234.34 292.34">
  <path id="b" data-name="blob" d="m183.91,169.86c-35.55,22.82-83.71,21.61-119.8.63C27.87,149.69,3.66,108.79,6.01,73.93,8.19,39.07,36.92,10.09,62.62,2.31c25.86-7.79,48.87,5.62,82.08,17.84,33.21,12.05,76.79,22.89,87.18,51.65,10.23,28.76-12.57,75.25-47.96,98.06Z" style="fill: #d9eee7;"/>
  <g id="c" data-name="step05">
    <g id="d" data-name="help-desk">
      <path id="e" data-name="Path 937" d="m168.26,18.43c2.26.51,4.5,1.1,6.72,1.76l-.24.76c-.13.26-.07.57.13.77,1.94,1.6,3.17,3.9,3.42,6.41,0,2.13-.13,4.26-.36,6.38,0,.07-.05.13-.12.14-1.78.43-3.19,1.77-3.7,3.53-.57,1.71-.37,3.84,1.14,4.92,1.49.9,3.41.67,4.65-.55,2.24-2.09,2.79-5.68-.11-7.62-.11-.08-.18-.2-.17-.34.12-1.73.23-3.53.35-5.38.21-3.44-1.28-6.07-3.59-8.5,7.24,2.69,8.8,8.37,10.33,15.2.89,4.08,1.27,8.25,1.14,12.41.07,2.25-.92,4.39-2.66,5.81-2.22,1.95-5.59,1.8-7.63-.34l-.13-5.87.13-2.52c0-.13-.1-.23-.22-.24-4.76-.3-5.89-3.74-4.89-7.79.02-.07,0-.14-.04-.19l-1.72-1.82s-.1-.04-.14,0c0,0,0,0,0,.01-.37.5-.85.91-1.4,1.21-.28.16-.62.16-.9,0-1.05-.56-1.57-1.78-1.24-2.93.01-.08-.04-.15-.11-.16h-.03c-2.17.03-3.74-1.1-4.7-3.39-.07-.16-.26-.24-.43-.17-.01,0-.02,0-.03.01-1.43.78-2.92,1.45-4.46,2-1.28-.77-2.43-1.73-3.42-2.84-4-4.71-.62-11.06,5.06-11.83,1.23-.09,2.47-.03,3.68.2,1.91.3,3.82.62,5.71.97h0Z" style="fill: #0b122f;"/>
      <path id="f" data-name="Path 938" d="m176.37,20.72c2.31,2.44,3.8,5.06,3.59,8.5-.11,1.85-.23,3.65-.35,5.38,0,.14.06.27.17.34,2.9,1.94,2.35,5.53.11,7.62-1.24,1.22-3.16,1.44-4.65.55-1.51-1.09-1.71-3.22-1.14-4.92.51-1.76,1.92-3.11,3.7-3.53.07-.01.12-.07.12-.14.24-2.12.36-4.24.36-6.37-.25-2.5-1.47-4.81-3.42-6.41-.21-.2-.26-.51-.13-.77l.24-.76c.51,0,1,.19,1.39.52Z" style="fill: #c9c2c4;"/>
      <path id="g" data-name="Path 939" d="m51.82,26.61c-.77-.56-1.49-1.19-2.17-1.86-.68-.43-1.47-.66-2.27-.66-.07.03-.15.04-.22.04-.37-.02-1.07-.02-2.1,0-1.15,0-2.27.34-3.23.98,2.99-3.09,7.85-1.84,9.98,1.51h0Z" style="fill: #020204;"/>
      <path id="h" data-name="Path 940" d="m51.82,26.61c.41.75.7,1.56.84,2.4.04.2.17.36.35.44,1.21.5,2.11,1.53,2.46,2.79.04.13.18.21.31.16,0,0,0,0,0,0h0c6.92-2.54,16.13.36,19.06,7.51l-6.08,2.21c-.13.05-.21.19-.16.32.3,1.01.22,2.1-.24,3.05-.25.54-.54.89-.11,1.45.98,1.32,1.5,2.92,1.47,4.57-.02,3.04-1.46,4.92-4.32,5.67l-.84.03c-4.04-.19-6.46-3.8-6.42-7.62.02-2.22-2.71-1.71-2.15.74.62,2.7,1.17,4.52-.24,7.03-.82,1.2-2,2.11-3.37,2.58-.09.03-.15.13-.13.22.64,3.88,1.77,7.65,3.37,11.24l.35.87c-.06.02-.12.06-.15.11-.02.07,0,.15.06.2.41.49.26.73-.47.71l-1.09-2.4c-1.08-2.95-1.95-5.98-2.6-9.06-.08-.37-.16-.38-.25,0-.21.85-.61,1.65-1.17,2.32-1.92,1.94-4.81,2.56-7.36,1.59-.7-.25-1.42-.44-2.16-.56-.62.02-1.24.12-1.83.31-.06.02-.13,0-.17-.06-.67-1-2.15-.21-2.99-.08-.89.16-1.81-.05-2.55-.58-.15-.1-.27-.1-.36.01-2.36-1.61-3.49-4.5-2.84-7.28.33-1.82,2.5-2.99.94-5-2.38-3.07-4.29-6.29-3.08-10.37.47-1.6,1.45-3.01,2.79-4.01,1.39-1.05,1.31-1.88.85-3.39-1.82-5.86,3.61-9.96,8.99-8.25.06.02.13,0,.16-.07.28-.51.65-.96,1.1-1.34.96-.64,2.08-.98,3.23-.98,1.03-.03,1.73-.04,2.1,0,.08,0,.15,0,.22-.04.8,0,1.59.24,2.27.66.67.67,1.4,1.3,2.17,1.86h0Zm12.51,18.77c-1.25-5.51-2.46-10.63-8.56-12.59-.57-.18-.3-.1-.43.38-.1.36-.1.75.01,1.11.02.07.07.12.14.15,5.27,2.06,5.79,6.2,7.09,10.99.03.11-.02.22-.13.27-3.94,1.87-2.8,8.18.83,9.66,1.72.8,3.77.17,4.74-1.46,1.56-2.74-.1-7.87-3.56-8.37-.07,0-.12-.06-.14-.13h.01Z" style="fill: #0b122f;"/>
      <path id="i" data-name="Path 941" d="m177.42,47.94c-.59,1.16-1.36,2.22-2.3,3.13-1.93,1.8-4.49,2.76-7.13,2.66-.07,0-.13.06-.13.13h0c0,.82.03,1.58.05,2.27,0,.06-.21.95-.27.1v-2.26c0-.11-.09-.2-.2-.21-2.43-.25-5.03-.25-6.43-2.52-1.11-1.8-1.31-3.61-1.78-6.38-.72-4.29-1.39-8.59-2-12.91,1.54-.55,3.03-1.22,4.46-2,.16-.09.35-.03.44.13,0,0,0,0,0,0,0,.01,0,.02.01.03.97,2.3,2.53,3.43,4.7,3.39.07,0,.14.06.14.13v.03c-.34,1.15.18,2.37,1.24,2.93.28.17.62.17.9,0,.55-.3,1.02-.71,1.4-1.21.03-.04.09-.06.14-.03,0,0,.01,0,.01,0l1.72,1.82c.05.05.06.12.04.19-1,4.05.13,7.49,4.89,7.79.13,0,.23.11.22.24,0,0,0,0,0,0l-.13,2.52h-.02Z" style="fill: #fdb597;"/>
      <path id="j" data-name="Path 942" d="m64.47,45.5c3.46.5,5.14,5.62,3.56,8.37-.97,1.63-3.02,2.26-4.74,1.46-3.63-1.49-4.77-7.8-.83-9.66.1-.04.16-.16.13-.27-1.3-4.79-1.82-8.94-7.09-10.99-.07-.03-.12-.08-.14-.15-.12-.36-.12-.75-.01-1.11.13-.47-.14-.57.43-.38,6.11,1.97,7.31,7.09,8.56,12.6.02.07.07.12.14.13h-.01Z" style="fill: #f1f5f7;"/>
      <path id="k" data-name="Path 943" d="m74.86,39.91c.74,2.25,1.14,4.59,1.17,6.96.07,3.23.07,7.03,0,11.4-.09,5.63-4.02,7.62-9.06,5.9-.94-2.21-1.47-4.58-1.54-6.98,2.86-.74,4.3-2.63,4.32-5.67.03-1.64-.48-3.25-1.47-4.57-.43-.55-.14-.91.11-1.45.45-.95.53-2.04.24-3.05-.04-.13.03-.27.16-.32l6.08-2.21h0Z" style="fill: #fcb195;"/>
      <path id="l" data-name="Path 944" d="m177.42,47.94l.13,5.87c.06.95.24,1.89.52,2.8-2.66,2.73-6.94,4.16-10.55,2.38.18-.32.15-.71-.06-1,.32.06.19-1.55.18-1.76.05.86.27-.03.27-.1-.03-.69-.04-1.45-.05-2.27,0-.07.06-.13.13-.13h0c2.64.1,5.2-.86,7.13-2.66.93-.91,1.71-1.97,2.3-3.13h0Z" style="fill: #fdb597;"/>
      <path id="m" data-name="Path 945" d="m64.58,57.21c.05,2.25.45,4.48,1.17,6.61-1.08-.19-2.13-.47-3.17-.83v-.12c0-.07-.05-.13-.12-.15-2.78-.96-5.15-2.86-6.69-5.37,1.41-2.52.86-4.33.24-7.03-.56-2.45,2.17-2.96,2.15-.74-.04,3.82,2.38,7.42,6.42,7.62h0Z" style="fill: #fcb195;"/>
      <path id="n" data-name="Path 946" d="m167.47,57.99c.21.3.23.69.06,1-2.94,2.17-6.16,3.67-8.98,5.94-1.91,1.58-3.59,3.4-5.01,5.42-2.3,3.11-4.16,5.73-5.57,7.87-.1-2.46.69-7.82-2.9-8.45-2.15-.38-5.37-.89-9.64-1.52l-14.18-2.32-1.2-.3c0-3.47.02-6.94.05-10.41-.05-.92.08-1.85.38-2.72.82-1.71,2.44-1.72,4.24-1.43,14.26,2.25,28.51,4.56,42.75,6.92h0Z" style="fill: #071c2f;"/>
      <path id="o" data-name="Path 947" d="m178.07,56.61c.15.06.27.16.35.3,0,.29-.18.54-.45.63-.32.13-.29.45.09.97,1.81,2.35,3.1,5.06,3.8,7.94.6,3.75.66,7.56.18,11.32-.35,5.32-1.48,10.56-3.35,15.56-2.97,7.33-12.1,4.07-16.75.97-.41-.32-.89-.53-1.4-.62-3.03-1.95-2.87-6.07-4.89-8.68-1.58-1.94-3.43-3.65-5.48-5.08-.68-.52-1.43-.93-2.23-1.22v-.47c1.42-2.14,3.27-4.76,5.57-7.87,1.42-2.02,3.11-3.85,5.01-5.42,2.82-2.27,6.04-3.77,8.98-5.94,3.6,1.79,7.89.35,10.55-2.38h0Z" style="fill: #ff6a47;"/>
      <path id="p" data-name="Path 948" d="m178.42,56.9c1.17,1.14,2.51,2.09,3.97,2.81.4.32,1.11.85,2.13,1.56,2.43,1.76,4.57,3.88,6.35,6.3,1.43,1.99,2.16,4.39,2.08,6.84.4,10.81-.83,22.57-4.61,32.79,0-.15-.04-.21-.13-.16-.05.05-.1.11-.13.17l-.24.47c-1.08,1.42-2.41,2.62-3.93,3.54-2.02,1.32-4.4,1.98-6.81,1.88-2.86-.19-5.65-.93-8.22-2.18.07-.26-.08-.52-.34-.59-.06-.02-.11-.02-.17-.01-.07,0-.14-.04-.18-.1-.28-.36-.77-.44-1.05-.6-3.94-2.52-7.35-5.79-10.02-9.64.01-.07-.01-.17-.05-.22l.24-1.37c1.28-1.43,2.37-3.02,3.24-4.73.51.09.99.3,1.4.62,4.65,3.11,13.78,6.36,16.75-.97,1.87-5,2.99-10.24,3.35-15.56.48-3.76.41-7.58-.18-11.32-.7-2.88-1.99-5.59-3.8-7.94-.37-.52-.4-.83-.09-.97.27-.09.45-.35.45-.63h0Z" style="fill: #ff6a47;"/>
      <path id="q" data-name="Path 949" d="m65.43,57.18c.07,2.4.6,4.77,1.54,6.98.22.49,1.93,4.24,2.55,3.76.15-.12.37-.1.5.05,0,.01.02.03.03.04l1.96,3.42c.07.12.03.28-.09.36,0,0,0,0,0,0-.03.02-.07.03-.1.04-.45.07-.22.84-.2,1.17.32,5.14.67,10.29,1.07,15.43-.58-.5-.92-1.22-.94-1.99-.46-4.47-.78-8.96-.95-13.45-.01-.36-.1-.71-.26-1.03-.42-.86-.92-1.67-1.48-2.44-1.23-1.82-2.31-3.73-3.25-5.71-.73-2.13-1.12-4.36-1.17-6.61l.84-.03h-.02Z" style="fill: #121122;"/>
      <path id="r" data-name="Path 950" d="m55.77,57.36c1.54,2.51,3.91,4.4,6.69,5.37.07.02.12.08.12.15v.12c-1.08,2.37-1.49,4.99-1.19,7.58.05.54.41.99.92,1.17-2.21.43-4.5.31-6.66-.35-1.6-3.59-2.73-7.36-3.37-11.24-.02-.1.04-.19.13-.22,1.37-.48,2.55-1.39,3.37-2.58h0Z" style="fill: #63a998;"/>
      <path id="s" data-name="Path 951" d="m197.58,110.1l-9.17-1.79c-.17-.04-.28-.21-.24-.38,0,0,0,0,0,0h0s.17-.71.17-.71c3.79-10.22,5.01-21.99,4.61-32.79.07-2.45-.66-4.85-2.08-6.84-1.78-2.41-3.93-4.54-6.35-6.3-1.03-.72-1.74-1.24-2.13-1.56,5.76.87,9.74,1.54,11.96,2.01,3.49.73,3.23,3.17,3.25,6.47.13,14.18-.02,27.95-.02,41.91h0Z" style="fill: #071c2f;"/>
      <path id="t" data-name="Path 952" d="m104.79,63.25c.49.69,1.04,1.34,1.63,1.95,7.99,8.46,16,16.9,24.02,25.32.27.29.65.38.66.92-9.06-1.55-18.11-3.12-27.17-4.72-.77-.13-1.45-.27-1.28.83.01.07.06.13.12.17.32.13.66.22,1,.27,9.71,1.71,19.42,3.38,29.14,5.03.22.68.28,1.41.18,2.12-9.91-1.72-19.82-3.45-29.73-5.19-.66-.12-.92.14-.8.77.03.24.21.42.45.45,9.19,1.59,18.29,3.17,27.3,4.76.46.08,2.74.81,2.99.05.05.12.18.08.38-.1.06-.05.14-.05.19,0,4.12,4.43,8.24,8.83,12.36,13.21.09.13.14.27.17.43.02.08.07.13.13.13.24,0,.16-.65.17-.8v3.06c-.69-.1-2.4-.39-5.12-.89-10.74-1.98-28.37-5.14-52.91-9.49l-.03-6.28c-.05-9.96-.04-19.91.03-29.85.02-3.14.83-4.65,4.24-4.1,3.96.63,7.91,1.27,11.87,1.94h0Zm28.39,35.7c.05-.26-.13-.52-.4-.56h0s-29.67-5.18-29.67-5.18c-.26-.05-.52.13-.56.4,0,0,0,0,0,0l-.05.3c-.05.26.13.52.4.56h0s29.67,5.18,29.67,5.18c.26.05.52-.13.56-.4,0,0,0,0,0,0l.05-.3Z" style="fill: #c9c2c4;"/>
      <path id="u" data-name="Path 953" d="m54.36,70.9c-1.59-.43-3.09-1.15-4.4-2.14-.31-.21-.35-.43-.1-.68.05-.05.09-.12.1-.19.24-1.23.37-2.49.39-3.74.56-.68.95-1.47,1.17-2.32.09-.37.17-.37.25,0,.65,3.08,1.52,6.11,2.6,9.06h0Z" style="fill: #488975;"/>
      <path id="v" data-name="Path 954" d="m104.79,63.25c3.41.57,6.82,1.12,10.23,1.72,1.66.29,3.34.52,5.02.67l1.2.3c-.36.08-.35.15,0,.21,4.69.75,9.38,1.5,14.07,2.27,4.55.69,7.24,1.14,8.05,1.37,1.74.57,2.99,2.09,3.21,3.9.08.84.12,1.68.11,2.52.15,8.39.02,18.37.04,32.66,0,.15.07.8-.17.8-.07,0-.12-.06-.13-.13-.02-.15-.08-.3-.17-.43-4.12-4.37-8.24-8.77-12.35-13.21-.05-.05-.14-.06-.19,0-.2.18-.33.22-.38.1.13-.3.04-.65-.22-.84.09-.71.03-1.43-.18-2.12,1.27-1.47-1.09-1.45-1.8-1.59-.01-.54-.39-.63-.66-.92-8.02-8.42-16.03-16.86-24.02-25.32-.59-.61-1.14-1.26-1.63-1.95h0Z" style="fill: #b6b6b5;"/>
      <path id="w" data-name="Path 955" d="m40.82,65.18c-2.46,1.51-5.6,1.36-7.9-.39.1-.11.21-.12.36-.01.74.53,1.66.73,2.55.58.84-.13,2.32-.92,2.99.08.04.06.11.08.17.06.59-.19,1.21-.29,1.83-.31h0Z" style="fill: #020204;"/>
      <path id="x" data-name="Path 956" d="m121.24,65.93l14.18,2.32-.11.15c-4.69-.77-9.38-1.52-14.07-2.27-.36-.06-.36-.13,0-.21h0Z" style="fill: #7296db;"/>
      <path id="y" data-name="Path 957" d="m49.07,68.8c7.05,9.47,9.18,20.9,9.37,32.56.04,2.37,4.84,5.9,6.69,7.11.18.12.37.22.57.3.06.03.11.08.15.14.05.09.15.12.24.07.01,0,.02-.01.03-.02.21.3.53.51.9.56.73.62,1.56,1.1,2.46,1.43,1.87.95,3.8,1.8,5.76,2.55,1.27.59,2.58,1.09,3.93,1.48.24.04.36.13.37.29l-1.35,3.1c-6.8-1.62-13.19-4.65-18.74-8.91-4.61-3.48-8.69-7.95-10.84-13.25-1.72-4.59-2.96-9.34-3.7-14.18-.22-1.24-1.28-6.35-3.6-3.92-6.38,6.69-7.75,16.8-4.29,25.2,3.48,8.47,10.38,13.78,18.54,17.43.69.31,1.39.57,2.12.77.06.02.1.08.09.14l-.02.15c-9.5,3.3-19.03,6.51-28.58,9.64-.18-.48,1.51-7.11,1.77-7.63.58-1.15,2.1-2.57,2.66-4.06.45-1.4.6-2.89.44-4.35-.44-7.26-.42-14.53.04-21.79.29-3.02.73-6.02,1.33-8.99.32-.83.54-1.45.66-1.85,1.85-6.04,6.61-11.07,11.92-14.24.5-.3.93-.62,1.11.24v.02Z" style="fill: #488975;"/>
      <path id="z" data-name="Path 958" d="m135.42,68.25c4.27.63,7.49,1.14,9.64,1.52,3.59.63,2.8,5.99,2.9,8.45v11.8c-.01,5.45-.16,9.34.07,12.21.01.7.55,1.28,1.25,1.34l.05,3.39c-.02.28.18.53.47.56l19.09,3.39c2.57,1.25,5.37,1.99,8.22,2.18,2.41.1,4.79-.56,6.81-1.88,1.04.1,2.08.1,3.11,0,.07,0,.14-.06.16-.13.38-1.11.6-2.26.66-3.43l.24-.47c.03-.06.07-.12.13-.17.08-.04.13.01.13.16l-.17.7c-.05.17.06.35.23.4h.01l9.17,1.79,4.88.91c.07,0,.1.01.13.07v32.36l-5.22,1.01c-.05.01-.1-.02-.11-.07,0,0,0,0,0,0h0s-.07-10.35-.07-10.35c0-.1-.07-.18-.17-.19l-1.34-.06,3.51-4.13c.18-.21.13-.3-.13-.29l-1.98.1c.47-1.57.12-1.86-1.08-.86-.99.83-1.91,1.75-2.73,2.75-.13.16-.37.19-.54.07-.12-.06-.26-.07-.39-.04.15-3.14.13-6.28-.07-9.41.18-.7.22-1.43.11-2.15,0-.07-.06-.12-.13-.13-.8-.18-1.63-.15-2.41.08-4.77,1.59-4.21,6.1-2.55,9.8.68.81,1.13,1.78,1.32,2.81.06.3.34.63-.13.8l-2.28-.05c-.06,0-.11-.05-.11-.11,0,0,0,0,0-.01h0v-3.69c.01-.09-.05-.15-.14-.15h-2.97c-.06,0-.12.05-.13.11l-.05,1.31c-2.04,2.57-3.86,5.3-5.42,8.19-.22.41-.2.9.05,1.29.01.07.05.13.1.18.14.36.34.7.58,1,1.61,2.02,3.27,4.02,4.99,5.99l-13.29,2.44c.87-1.14,1.8-2.23,2.79-3.27.42-.43.8-.89,1.13-1.4,1.99-3.28.21-6.95-3.67-6.98-.12,0-.21-.1-.21-.22l-.05-1.95c0-.09-.08-.15-.16-.15h-8.65c-.08-.01-.15.05-.15.13h0v14.55s-1.35,0-1.35,0l.04-10.52c.03-.36-.23-.68-.59-.71,0,0-.02,0-.03,0-.75-.1-1.51-.1-2.26.01-.07,0-.14.05-.16.12-.11.27-.12.57-.04.85-3.54.35-5.51,3.03-3.84,6.35.91,1.54,2.13,2.87,3.57,3.92.12.38.15.78.1,1.17-.47.14-.96.19-1.45.13-.5-.1-.7.13-.6.71.04.21.04.42.01.63-.04.34.14.58.54.72,1.55.54,2.97,1.4,4.18,2.52l-49.22-8.87-41.23-7.28c-13.84-2.53-27.69-4.97-41.56-7.32-.04,0-.08-.04-.13-.1.68-.56,1.48-.97,2.33-1.2,9.56-3.13,19.09-6.34,28.58-9.64l.18-.04c.07-.02.14-.03.21-.02,3.6,1.2,7.29,2.14,11.03,2.81-3.66,1.25-7.32,2.42-10.97,3.52-1.07.32-2.52.74-2.56,2.07.11.94.85,1.68,1.8,1.78,3.41.55,6.85,1.54,10.24,2.27,1.66.43,3.4.41,5.05-.07,5.87-1.79,14.48-4.59,25.84-8.38,1.22.18,2.42.44,3.6.77,1.05.3,3.36.52,2.11-1.43-.07-.1-.04-.14.08-.11,1.07.25,2.86.73,3.85.34.82-.32.92-1.01.31-2.08.3-.08,1.96-.15,1.77-.6-.07-.15-.02-.2.13-.14.85.33,1.8-.1,2.13-.95.2-.52.13-1.1-.2-1.55-1.06-1.36-2.22-2.64-3.45-3.85-.85-1.38-1.87-2.75-3.57-3.08-2.58-.51-4.83-1.13-6.41-1.37-1.18-.15-2.34-.44-3.45-.84l-4.87-2.17c-2.42-.8-4.78-1.77-7.07-2.89-.38-.18-.69-.48-.89-.86-1.13-2.1-2.31-4.18-3.53-6.24l9.57-3.51.03,6.28c0,1.9-.42,4.59.94,6.14.89,1.02,2.78,1.12,4.21,1.37,4.68.77,12.59,2.21,23.72,4.3-.12,2.07-.13,4.14-.01,6.21l-.06,3.83c-.86.27-1.59.86-2.03,1.65-.03.04-.02.09.02.12,0,0,0,0,0,0,.01,0,.02,0,.03.01l2.03.3.25.51c.03.06.09.11.16.13.93.3,1.87.54,2.83.72,3.14.62,6.33,1.25,9.58,1.9.08.02.15-.04.17-.11,0,0,0,0,0,0v-.03l.04-6.71.07-6.17.89.11c.07,0,.12.07.12.13l.06,2.93c-.03.28.16.53.43.6.87.26,1.75.47,2.63.63,9.44,1.76,18.87,3.56,28.29,5.39.78.17,1.57.28,2.36.31,2.07.01,3.08-.58,5.67-1.62,2.67-1.07,5.34-2.16,8-3.28,1.07-.45,1.76-.71,2.03-1.76.3-1.2-.4-1.68-1.49-1.88-10.43-1.99-20.91-3.96-31.46-5.93-.11-.02-.21.05-.24.16,0,0,0,0,0,0v.04c-.01,1.22-.04,2.46-.05,3.71-.02,1.59-.38,2.7-2.09,2.86-.07,0-.09-.02-.04-.08,1.25-1.54.97-3.68.92-6.14v-3.06c0-14.28.13-24.26-.02-32.66,0-.84-.03-1.68-.11-2.52-.22-1.82-1.47-3.34-3.21-3.9-.82-.23-3.5-.69-8.05-1.37l.11-.15v.03Zm-3.08,60.36c.35.26.78.36,1.2.28.53-.1,1.06-.24,1.57-.42,1.61-.56,3.23-1.12,4.83-1.69.37-.13.36-.24-.02-.31l-8.32-1.68c-.08-.01-.15.04-.17.11v.03c0,1.32-.3,2.83.89,3.68h0Zm-18.42,4.81c0,3.1,0,6.2,0,9.31,0,1.33-.14,2.38,1.48,2.38,2.28,0,4.63-.1,6.9.06,2.05.14,2.41-.59,2.4-2.5-.03-3.06-.05-6.12-.06-9.18.02-1.31.48-3.29-1.52-3.31-2.55-.02-5.11-.03-7.66-.03-1.83,0-1.6,1.72-1.52,3.29h0Z" style="fill: #c9be68;"/>
      <path id="aa" data-name="Path 959" d="m35.37,84.66c-.6,2.97-1.04,5.97-1.33,8.99-.46,7.25-.48,14.53-.04,21.79.16,1.47.02,2.95-.44,4.35-.56,1.49-2.08,2.91-2.66,4.06-.27.53-1.95,7.16-1.77,7.63-.48.18-1.96.65-2.33,1.2-.46.3-.34,2.52-.28,3.17l-11.9,4.08c-.12.04-.21.15-.23.28-.84,6-1.66,12.03-2.46,18.1-.53,4.05-1.24,7.68.66,11.37.03.06.11.08.17.05,0,0,0,0,0,0,.01,0,.02-.01.03-.02,1.23-1.29,2.65-2.4,4.2-3.28,4.09-2.15,8.35-3.96,12.75-5.39.04-.01.06-.06.05-.1,0-.01,0-.02-.01-.03-4.91-5.24-5.91-12.17-4.26-19.04,1.08,0,2.17-.09,3.23-.27,4.83-.74,8.95-1.54,12.37-2.4.26,0,.52.04.77.08,8.54,1.56,17.09,3.06,25.66,4.51l42.08,7.49c.22.08.45.14.68.18,37.14,6.72,74.29,13.32,111.4,20.15l-11.55,3.3-141.05,24.42-.04-23.91c0-.05-.02-.11-.07-.13-.04,0-.07.02-.09.11-.44,1.97-2.36,3.17-4.06,3.89-6.61,2.81-13.9,3.01-20.92,1.82-.08-.01-.15.04-.16.12,0,0,0,0,0,0v13.81c0,.07.05.13.12.15,1.82.43,3.57,1.13,5.17,2.09,1.05.57,2.03,1.26,2.93,2.04h-21.51c2.39-1.9,5.12-3.34,8.06-4.22.06-.02.11-.08.11-.15l-.03-14.57c0-.07-.05-.12-.11-.13-6.49-1.17-12.98-2.29-19.49-3.36-2.02-.33-3.21-.55-3.57-.66-3.97-1.2-6.66-4.98-7.33-8.99-.37-2.91-.26-5.86.3-8.74.8-5.8,1.6-11.57,2.38-17.31.02-.11-.06-.21-.17-.23,0,0,0,0,0,0h-.06c-2.4.59-4.84-.87-5.43-3.28,0-.04-.02-.07-.03-.11-1.25-4.21,2.11-9.36,3.81-13.08.59-1.18.96-2.46,1.1-3.78.3-8.09-1.54-15.79-2.5-24.32-.52-5.96-1.17-19.4,5.26-22.86.24-.13,1.32-.54,3.24-1.22,2.4-.86,4.8-1.69,7.21-2.51,1.3-.49,2.63-.88,3.99-1.17,4.76-.32,6.76,6.75,7.23,10.17.35,2.54.66,4.49.92,5.85h0Z" style="fill: #071c2f;"/>
      <path id="ab" data-name="Path 960" d="m49.95,68.75c1.32.99,2.81,1.72,4.41,2.14l1.09,2.4c2.49,5.64,4.93,11.3,7.34,16.97,1.81,4.27,3.05,7.63,3.17,12.18.06,2.18.11,4.35.15,6.52-.13.07-.21.05-.27-.05-.03-.06-.08-.11-.15-.14-.2-.08-.39-.18-.57-.3-1.84-1.21-6.65-4.74-6.69-7.11-.19-11.68-2.32-23.1-9.37-32.57.29.08.6.06.88-.04Z" style="fill: #63a998;"/>
      <path id="ac" data-name="Path 961" d="m62.31,71.74c3.03,4.8,6.02,9.65,8.97,14.52.1.14.26.21.43.18.02.76.37,1.48.94,1.99.65,1.02,1.23,2.08,1.74,3.17-.04,2.28-.57,4.52-1.55,6.58-1,2.1-2.4,3.66-2.54,6.13l-.83,6.64c-.89-.34-1.73-.82-2.46-1.43-.04-2.29-.08-4.57-.13-6.86-.08-3.53-.82-7-2.2-10.25-2.85-6.74-5.74-13.45-8.67-20.15l-.35-.87c2.16.65,4.44.77,6.66.35h-.01Z" style="fill: #63a998;"/>
      <path id="ad" data-name="Path 962" d="m56,72.28c2.94,6.69,5.83,13.41,8.67,20.15,1.38,3.25,2.12,6.73,2.2,10.25.05,2.28.1,4.57.13,6.86-.36-.05-.69-.26-.9-.56-.04-2.17-.1-4.34-.15-6.52-.13-4.55-1.37-7.91-3.17-12.18-2.4-5.68-4.84-11.33-7.34-16.97.72.02.87-.21.47-.71-.05-.05-.08-.13-.06-.2.03-.06.08-.1.15-.11h0Z" style="fill: #16112a;"/>
      <path id="ae" data-name="Path 963" d="m78.17,118.37c-.83,2.08-1.39,4.25-1.68,6.47-2.46.11-4.92.02-7.36-.27-3.74-.67-7.42-1.61-11.03-2.81-.07,0-.14,0-.21.02l-.18.04.02-.15c.01-.06-.03-.12-.09-.14-.72-.21-1.43-.47-2.12-.77-8.17-3.66-15.06-8.97-18.54-17.43-3.46-8.41-2.09-18.52,4.29-25.2,2.32-2.44,3.39,2.67,3.6,3.92.75,4.84,1.99,9.59,3.7,14.18,2.15,5.3,6.23,9.76,10.84,13.25,5.55,4.25,11.94,7.29,18.74,8.91h0Z" style="fill: #63a998;"/>
      <path id="af" data-name="Path 964" d="m147.96,78.69c.8.29,1.55.71,2.23,1.22,2.05,1.43,3.89,3.14,5.48,5.07,2.02,2.61,1.87,6.73,4.89,8.68-.87,1.71-1.96,3.3-3.24,4.73-2.01-1.45-3.87-3.09-5.57-4.89-.77-1.24-2.07-3.75-3.77-3.48v-11.33h-.01Z" style="fill: #fdb597;"/>
      <path id="ag" data-name="Path 965" d="m131.11,91.44c.72.13,3.07.12,1.8,1.59-9.72-1.65-19.43-3.33-29.14-5.03-.34-.04-.68-.14-1-.27-.06-.04-.11-.1-.12-.17-.17-1.11.51-.97,1.28-.83,9.06,1.59,18.12,3.17,27.17,4.72Z" style="fill: #fbfefe;"/>
      <path id="ah" data-name="Path 966" d="m133.09,95.14c.26.2.35.54.22.84-.26.75-2.54.03-2.99-.05-9-1.59-18.1-3.17-27.3-4.76-.24-.02-.43-.21-.45-.45-.12-.63.15-.89.8-.77,9.9,1.75,19.81,3.48,29.73,5.19h0Z" style="fill: #fbfefe;"/>
      <path id="ai" data-name="Path 967" d="m151.73,93.51c-1.09,2.56-1.79,5.27-2.07,8.04-.07.69-.2,1.38-.39,2.04-.7-.06-1.24-.64-1.25-1.34-.22-2.87-.08-6.77-.07-12.21,1.71-.27,2.99,2.24,3.77,3.48h0Z" style="fill: #ff6a47;"/>
      <path id="aj" data-name="Path 968" d="m74.39,91.61l4.69,7.14c1.23,2.05,2.4,4.13,3.53,6.24.2.37.51.67.89.86,2.29,1.13,4.65,2.09,7.07,2.89l-2.03,3.4c-3.5-.23-6.95-.95-10.24-2.16-3.08-1.21-5.82-3.15-7.99-5.65.15-2.47,1.54-4.03,2.54-6.13.98-2.06,1.51-4.3,1.55-6.58h0Z" style="fill: #63a998;"/>
      <path id="ak" data-name="Rectangle 1345" d="m102.53,93.74h0c.06-.35.39-.58.74-.52l29.37,5.13c.35.06.58.39.52.74h0c-.06.35-.39.58-.74.52l-29.37-5.13c-.35-.06-.58-.39-.52-.74Z" style="fill: #fbfefe;"/>
      <path id="al" data-name="Path 970" d="m151.73,93.51c1.7,1.8,3.57,3.44,5.57,4.89l-.24,1.37c-.01.07,0,.14.04.21,2.68,3.85,6.09,7.13,10.04,9.66.27.18.77.24,1.05.6.04.06.11.09.18.1.26-.03.5.16.52.42,0,.06,0,.12-.02.18l-19.09-3.39c-.28-.03-.49-.28-.47-.56l-.05-3.39c.19-.67.33-1.35.39-2.04.28-2.77.98-5.48,2.07-8.04h0Z" style="fill: #ff6a47;"/>
      <path id="am" data-name="Path 971" d="m88.68,101.53c24.53,4.35,42.17,7.51,52.91,9.49,2.73.5,4.43.8,5.11.89.04,2.46.32,4.61-.92,6.14-.05.06-.04.09.04.08,1.7-.17,2.06-1.27,2.09-2.86.02-1.25.04-2.5.05-3.71,0-.11.09-.2.21-.2h.04c10.54,1.97,21.02,3.95,31.46,5.93,1.09.21,1.8.69,1.49,1.88-.27,1.05-.97,1.31-2.03,1.76-2.66,1.11-5.32,2.21-8,3.28-2.6,1.04-3.6,1.63-5.67,1.62-.79-.04-1.58-.14-2.36-.31-9.42-1.83-18.85-3.63-28.29-5.39-.89-.16-1.77-.38-2.63-.63-.27-.07-.45-.32-.43-.6l-.07-2.93c0-.07-.05-.12-.12-.13l-.89-.11-13.12-2.38c-11.14-2.1-19.04-3.53-23.72-4.3-1.44-.24-3.33-.34-4.21-1.37-1.36-1.56-.94-4.24-.94-6.14h.01Z" style="fill: #0b132f;"/>
      <path id="an" data-name="Path 972" d="m70.31,104.33c2.17,2.5,4.91,4.44,7.99,5.65-.13.08-.29.12-.44.1-.07,0-.13.03-.15.09-.18.61-.71,1.05-1.34,1.12-.35.05-.47.19-.35.43.04.06.04.13.01.2l-.66.92c-.05.06-.08.12-.1.19l-.04.47c-1.96-.75-3.88-1.6-5.76-2.55l.83-6.64h.01Z" style="fill: #488975;"/>
      <path id="ao" data-name="Path 973" d="m217.86,108.53c-.12,5.85-.14,11.67-.07,17.45v23.44c-1.27.07-2.55.11-3.86.12-3.43.01-6.09.09-9.14.15-1.23.02-1.97-.51-2-1.76-.02-1.5-.09-2.99-.21-4.5v-.66l.05-3.08c0-.13.08-.25.2-.3.48-.18.64-.55,1.08-.8,7.71-4.29,11.04-12.94,6.58-21.02-1.45-2.63-4.35-4.83-6.96-6.55-.3-.15-.66-.14-.94.04-.01-.05-.06-.07-.13-.07.52-.08.28-.47.29-.75-.07-1.25.15-2.5.63-3.66.2-.1.27-.3.21-.6,1.91-.25,3.85-.14,5.71.34,1.63.42,2.46.63,2.47.63,2.04.45,4.07.98,6.07,1.58h.02Z" style="fill: #c9c2c4;"/>
      <path id="ap" data-name="Path 974" d="m187.85,107.69c-.06,1.17-.28,2.32-.66,3.42-.03.07-.09.12-.16.13-1.04.1-2.08.09-3.11,0,1.52-.93,2.85-2.13,3.93-3.54h0Z" style="fill: #d7e3e7;"/>
      <path id="aq" data-name="Path 975" d="m217.86,108.53c1.22.36,2.17.35,2.2,1.75.1,4.86.12,9.71.05,14.57-.37-.06-.74.12-.92.45-.29.4-.78.6-1.26.53-.04,0-.08.04-.08.08,0,.03-.02.06-.05.08-.07-5.78-.05-11.6.07-17.45h0Z" style="fill: #b6b6b5;"/>
      <path id="ar" data-name="Path 976" d="m90.56,108.74l4.87,2.17c-.89,1.5-1.57,3.1-2.03,4.78-1.62.81-3.33,1.42-5.1,1.82-.86-.03-1.72-.14-2.57-.32v-.06s2.8-5,2.8-5l2.03-3.4h0Z" style="fill: #fda9b0;"/>
      <path id="as" data-name="Path 977" d="m78.3,109.98c3.29,1.2,6.74,1.93,10.24,2.16l-2.81,5c-.38.01-.76-.05-1.11-.17-1.7-.58-3.39-1.14-5.09-1.7,0-.15-.13-.25-.37-.29-1.35-.39-2.66-.88-3.93-1.48l.04-.47c.02-.07.05-.14.1-.19l.66-.92c.03-.06.03-.14-.01-.2-.12-.24,0-.38.35-.43.63-.08,1.15-.52,1.34-1.12.03-.06.09-.1.15-.09.16.02.31-.01.44-.1h-.01Z" style="fill: #488975;"/>
      <path id="at" data-name="Path 978" d="m95.43,110.91c1.12.4,2.28.69,3.45.84,1.58.24,3.82.86,6.41,1.37,1.7.33,2.72,1.71,3.57,3.08.33.37.52.85.54,1.35.03.45-.17.89-.54,1.16-1.11.8-2.32-.62-3.18-1.66-.89-1.08-1.88.4-.94,1.1.06.04.05.06-.02.04-.91-.14-1.84-.07-2.71.21-1.09-.28-2.2-.47-3.32-.54-1.5-1.24-3.34-2-5.28-2.16.46-1.68,1.14-3.29,2.03-4.78h0Z" style="fill: #fcb195;"/>
      <path id="au" data-name="Path 979" d="m202.59,142.77v-31.71c.28-.18.64-.2.94-.04,2.61,1.73,5.51,3.93,6.96,6.55,4.46,8.09,1.12,16.73-6.58,21.02-.44.24-.6.62-1.08.8-.12.05-.2.17-.2.3l-.04,3.08h0Z" style="fill: #c9c2c4;"/>
      <path id="av" data-name="Path 980" d="m117.56,113.35l13.12,2.38-.07,6.17-13.05-2.33c-.12-2.07-.11-4.14.01-6.21h0Z" style="fill: #668bf1;"/>
      <path id="aw" data-name="Path 981" d="m85.73,117.14v.06c-.59.35-1.4,5.91-1.47,6.63-2.57.5-5.16.84-7.77,1.02.28-2.22.84-4.4,1.68-6.47l1.36-3.1c1.7.55,3.39,1.12,5.09,1.7.36.12.74.18,1.11.17h0Z" style="fill: #fda8b3;"/>
      <path id="ax" data-name="Path 982" d="m93.41,115.7c1.94.16,3.79.92,5.28,2.16-3.46.03-6.92-.08-10.38-.33,1.77-.41,3.48-1.02,5.1-1.82h0Z" style="fill: #0b122f;"/>
      <path id="ay" data-name="Path 983" d="m108.87,116.2c1.23,1.21,2.38,2.49,3.45,3.85.53.74.36,1.77-.38,2.3-.45.32-1.03.4-1.55.2-.15-.06-.2-.01-.13.14.19.44-1.48.51-1.77.6-1.58-.47-3.14-1.03-4.66-1.68-.08-.04-.14-.1-.13-.13s.08-.04.19-.03c1.56.22,3.13.27,4.7.15.24-.01,1.43.18.5-.42-.21-.14-.44-.25-.69-.33-1.6-.55-3.19-1.09-4.76-1.48-.63-.15-1.2-.48-1.64-.95.87-.28,1.8-.35,2.71-.21.07,0,.07,0,.02-.04-.94-.69.06-2.17.94-1.1.86,1.04,2.07,2.46,3.18,1.66.37-.26.58-.7.54-1.16-.02-.5-.21-.97-.54-1.34h0Z" style="fill: #fec179;"/>
      <path id="az" data-name="Path 984" d="m85.74,117.19c.85.18,1.7.29,2.57.32,3.46.25,6.92.36,10.38.33,1.12.08,2.23.26,3.32.54.44.47,1.01.8,1.64.95,1.57.38,3.16.92,4.76,1.48.24.08.47.19.69.33.94.6-.25.41-.5.42-1.57.12-3.14.07-4.7-.15-.12-.01-.18,0-.19.03s.04.1.13.13c1.52.65,3.07,1.21,4.66,1.68.61,1.06.5,1.76-.31,2.08-.99.39-2.78-.1-3.85-.34-.12-.03-.15,0-.08.11,1.24,1.95-1.06,1.73-2.11,1.43-1.18-.33-2.39-.59-3.6-.77l-.6-.35c-2.33-.43-4.67-.91-7.02-1.44-2.18-.5-4.44-.56-6.65-.16.07-.72.88-6.27,1.48-6.63h0Z" style="fill: #fcb195;"/>
      <path id="ba" data-name="Path 985" d="m117.54,119.56l13.05,2.33-.04,6.71c0,.08-.07.15-.15.15h-.03c-3.25-.65-6.44-1.28-9.58-1.9-.96-.18-1.9-.42-2.83-.72-.07-.02-.13-.07-.16-.13l-.25-.51-.06-2.09.06-3.83h0Z" style="fill: #d0e6ec;"/>
      <path id="bb" data-name="Path 986" d="m192.25,121.97c-1.29,2.76-2.97,5.31-4.98,7.59-1.65-3.69-2.21-8.21,2.55-9.8.78-.23,1.62-.26,2.41-.08.07.01.12.07.13.13.1.72.07,1.45-.11,2.15h0Z" style="fill: #ff6a47;"/>
      <path id="bc" data-name="Path 987" d="m192.25,121.97c.19,3.13.21,6.27.07,9.41v1.94l-3.87-.13c.48-.18.19-.51.13-.8-.19-1.04-.64-2.01-1.32-2.81,2.02-2.28,3.7-4.84,4.98-7.59h0Z" style="fill: #f1f5f7;"/>
      <path id="bd" data-name="Path 988" d="m117.48,123.39l.06,2.09-2.03-.3s-.08-.05-.07-.1c0,0,0,0,0,0,0-.01,0-.02.01-.03.44-.79,1.17-1.38,2.03-1.65h0Z" style="fill: #202447;"/>
      <path id="be" data-name="Path 989" d="m97.92,125.42c-8,2.58-16,5.14-24,7.7-1.93.74-4.02.94-6.05.59-5.11-1.13-8.83-2.01-11.16-2.63-.47-.16-.86-.48-1.11-.91.04-1.33,1.49-1.75,2.56-2.07,3.66-1.11,7.32-2.28,10.97-3.52,2.44.29,4.9.38,7.36.27,2.61-.18,5.2-.52,7.77-1.02,2.2-.39,4.47-.34,6.65.16,2.35.53,4.69,1.01,7.02,1.44h0Z" style="fill: #0b122f;"/>
      <path id="bf" data-name="Path 990" d="m220.11,124.85c0,7.72,0,15.43-.03,23.14,0,1.17-1.37,1.55-2.28,1.45v-23.44s.03-.05.04-.08c0-.04.04-.08.08-.08.49.07.97-.14,1.26-.53.19-.32.55-.5.92-.45h0Z" style="fill: #b6b6b5;"/>
      <path id="bg" data-name="Path 991" d="m132.34,128.61c-1.19-.86-.89-2.36-.89-3.68,0-.08.06-.14.14-.14h.03l8.32,1.68c.38.07.39.18.02.31-1.61.56-3.23,1.13-4.83,1.69-.51.18-1.04.32-1.57.42-.42.08-.86-.02-1.2-.28h0Z" style="fill: #0b112b;"/>
      <path id="bh" data-name="Path 992" d="m97.92,125.42l.6.35c-11.36,3.79-19.97,6.58-25.84,8.38-1.65.47-3.39.5-5.05.07.11-.15.19-.33.23-.51,2.03.35,4.13.15,6.05-.59,8.01-2.55,16.01-5.12,24-7.7h0Z" style="fill: #7296db;"/>
      <path id="bi" data-name="Path 993" d="m197.06,129.45l-2.32,3.12c-.49.24-.88.66-1.07,1.18-.32.07-1.54.33-1.36-.44v-1.94c.14-.03.28-.02.41.04.17.12.4.08.54-.07.83-1,1.74-1.92,2.73-2.75,1.2-1,1.55-.71,1.08.86h0Z" style="fill: #f37c26;"/>
      <path id="bj" data-name="Path 994" d="m195.68,133.76h-1.38c-.6-.16.32-.86.44-1.2l2.32-3.12,1.98-.1c.27-.01.31.08.13.29l-3.51,4.13h0Z" style="fill: #13a691;"/>
      <path id="bk" data-name="Path 995" d="m55.6,130.18c.25.42.65.74,1.11.91,2.32.63,6.04,1.51,11.16,2.63-.04.18-.12.36-.23.51-3.39-.74-6.83-1.71-10.24-2.27-.94-.1-1.69-.84-1.8-1.78h0Z" style="fill: #488975;"/>
      <path id="bl" data-name="Path 996" d="m124.63,133.48l-10.7-.06c-.07-1.57-.3-3.29,1.52-3.29,2.55,0,5.11,0,7.66.03,2,.01,1.55,2.01,1.52,3.31h0Z" style="fill: #488975;"/>
      <path id="bm" data-name="Path 997" d="m182.77,130.58c.12.42.2.85.25,1.28.03.43.12.86.27,1.26.29.68.7,1.29,1.21,1.82-1.92,1.26-3.75,2.64-5.5,4.13-.39.2-.73.5-.98.86l-.6.11c-.25-.39-.27-.88-.05-1.29,1.57-2.88,3.38-5.62,5.42-8.19h-.01Z" style="fill: #f67e1f;"/>
      <path id="bn" data-name="Path 998" d="m194.74,132.57c-.13.34-1.04,1.03-.44,1.18h-.63c.19-.52.57-.94,1.07-1.18Z" style="fill: #aa6572;"/>
      <path id="bo" data-name="Path 999" d="m26.79,132.68s.08.08.13.1c13.87,2.35,27.72,4.8,41.56,7.32-.3-.07-.44,0-.45.18-.04.83-.11,1.67-.21,2.5,0,.07-.04.14-.09.19-.19.23-.26.52-.21.81-8.56-1.45-17.11-2.96-25.66-4.51-.26-.05-.51-.07-.77-.08-1.79-.32-3.56-.67-5.33-1.03-2.99-.61-6.02-.89-9.01-1.51.03-.29-.05-.58-.24-.8-.05-.66-.17-2.89.28-3.17h0Z" style="fill: #488975;"/>
      <path id="bp" data-name="Path 1000" d="m113.93,133.42l10.7.06c0,3.06.03,6.12.06,9.18.01,1.91-.35,2.64-2.4,2.5-2.27-.16-4.62-.06-6.9-.06-1.62,0-1.48-1.06-1.48-2.38,0-3.1,0-6.2,0-9.31h0Zm9.27,2.7c-1.15,1.88-2.55,3.59-4.15,5.09-.3.27-.26.33.11.17,1.29-.56,2.98-1.1,3.85-2.3.71-.98,1.24-1.93.43-2.98-.05-.06-.14-.07-.2-.03-.01,0-.02.02-.04.04h0Z" style="fill: #63a998;"/>
      <path id="bq" data-name="Path 1001" d="m184.49,134.94l-.02,11.73c0,.08-.03.15-.07.21-.15.18-.37.29-.6.33l-.69-1.14c-.63-.98-1.39-1.88-2.26-2.65-.27-.24-.48-.54-.63-.86l-1.23-3.48c1.75-1.49,3.58-2.87,5.5-4.13h0Z" style="fill: #13a691;"/>
      <path id="br" data-name="Path 1002" d="m169.79,149.66c.15.9-.37.72-.94.72h-8.01v-14.55c0-.08.05-.14.13-.15,0,0,0,0,.01,0h8.65c.08.01.16.08.16.16l.05,1.95c0,.12.09.21.21.22,3.87.03,5.65,3.7,3.67,6.98-.33.5-.71.97-1.13,1.4-.99,1.04-1.92,2.13-2.79,3.27h-.01Zm3.37-8.03c-.36-1.39-1.69-2.31-3.12-2.15-.06,0-.11.06-.11.12,0,0,0,0,0,0l-.06,7.57c0,.1.03.11.1.04,1.4-1.28,3.78-3.43,3.19-5.6h0Z" style="fill: #13a691;"/>
      <path id="bs" data-name="Path 1004" d="m123.2,136.11c.04-.06.12-.09.19-.05,0,0,0,0,0,0,.02,0,.03.02.04.04.8,1.05.28,2-.43,2.98-.86,1.2-2.55,1.73-3.85,2.3-.37.16-.41.1-.11-.17,1.61-1.5,3-3.22,4.15-5.09h0Z" style="fill: #fefdfd;"/>
      <path id="bt" data-name="Path 1005" d="m26.75,136.65c2.99.62,6.03.9,9.01,1.51,1.77.36,3.55.71,5.33,1.03-3.42.86-7.55,1.65-12.37,2.4-1.07.19-2.15.28-3.23.27.29-1.77.71-3.51,1.25-5.21h0Z" style="fill: #b6b6b5;"/>
      <path id="bu" data-name="Path 1006" d="m159.47,150.38c-.01.58.13,1.6-.24,2.05-1.06.06-2.11-.25-2.97-.88.05-.39.02-.79-.1-1.17.24-.54.26-1.15.06-1.71l-.11-7.23.04-.65c0-.07.02-.14.07-.19.14-.13.22-.32.21-.51-.08-.28-.06-.58.04-.85.03-.06.09-.11.16-.12.75-.11,1.51-.12,2.26-.01.36.02.64.32.62.69,0,0,0,.02,0,.03l-.04,10.52v.02Z" style="fill: #fa7b26;"/>
      <path id="bv" data-name="Path 1007" d="m178.99,139.08l1.23,3.48-.21-.17c-.59-.87-1.26-1.69-2-2.44.25-.36.59-.66.98-.86h-.01Z" style="fill: #fff;"/>
      <path id="bw" data-name="Path 1008" d="m170.03,139.49c1.43-.16,2.76.76,3.12,2.15.59,2.17-1.8,4.32-3.19,5.6-.07.06-.1.04-.1-.04l.06-7.57c0-.06.05-.12.11-.13h0Z" style="fill: #fefdfd;"/>
      <path id="bx" data-name="Path 1009" d="m178.01,139.94c.74.75,1.41,1.56,2,2.44-.02.05-.06.1-.11.13-.05.03-.13,0-.17-.07-.5-.88-1.15-1.65-1.93-2.3-.05-.05-.12-.07-.19-.04-.05.03-.08.08-.1.13-.05-.04-.09-.11-.1-.18l.6-.11h0Z" style="fill: #522531;"/>
      <path id="by" data-name="Path 1010" d="m156.44,140.11c0,.19-.07.38-.21.51-.05.05-.07.12-.07.19l-.04.65c-1.79.33-2.69,1.23-2.69,2.7,0,1.81,1.36,3.47,2.8,4.52.2.56.18,1.17-.06,1.71-1.45-1.05-2.66-2.38-3.57-3.92-1.67-3.31.3-6,3.84-6.35h0Z" style="fill: #eb6d5e;"/>
      <path id="bz" data-name="Path 1011" d="m180.01,142.38l.21.17c.15.33.37.62.63.86.6,1.01,1.36,1.91,2.26,2.66l.69,1.14c.04.17,0,.28-.1.34-.07.02-.14,0-.19-.04l-.42-.3c-1.72-1.96-3.38-3.96-4.99-5.99-.24-.3-.44-.64-.58-1,.02-.05.05-.1.1-.13.07-.03.14-.01.19.04.78.64,1.43,1.42,1.93,2.3.03.06.1.1.17.07.05-.03.09-.08.11-.13h0Z" style="fill: #0b132f;"/>
      <path id="ca" data-name="Path 1012" d="m68.49,140.1l41.23,7.28-.11,3.89-42.08-7.49c-.06-.29.02-.59.21-.81.05-.05.08-.12.09-.19.1-.83.17-1.66.21-2.5,0-.19.16-.25.45-.18h0Z" style="fill: #488975;"/>
      <path id="cb" data-name="Path 1013" d="m156.12,141.45l.11,7.23c-1.45-1.06-2.8-2.72-2.8-4.52,0-1.47.9-2.37,2.68-2.7Z" style="fill: #fefdfd;"/>
      <path id="cc" data-name="Path 1014" d="m180.85,143.41c.87.78,1.63,1.67,2.26,2.66-.9-.75-1.67-1.65-2.26-2.66Z" style="fill: #5861ad;"/>
      <path id="cd" data-name="Path 1015" d="m109.72,147.38l49.22,8.87c1.79.31,3.58.62,5.37.92,1.48.25,3.81.81,5.79,1,3.17.67,6.37,1.27,9.62,1.8l1.02.23c.39.25.84.36,1.3.33l1.65.24c.84.24,1.72.38,2.6.39.06.07.15.11.24.13l.85.15,7.26,1.32c6.94,1.25,13.9,2.46,20.83,3.78,1.88.35,3.76.68,5.66.97.19-.03.39,0,.57.08v4.03c-37.11-6.83-74.27-13.43-111.4-20.15-.23-.03-.46-.09-.68-.18l.11-3.89v-.02Z" style="fill: #488975;"/>
      <path id="ce" data-name="Path 1016" d="m156.27,151.55c.86.62,1.91.93,2.97.88l-.03.27c-.01.07.03.13.09.16l.9.32c.14.12.33.17.51.15,3.68,1.39,6.29,2.3,7.83,2.73,1.01.17,1.7,1.11,1.56,2.13-1.97-.19-4.3-.76-5.79-1-1.79-.3-3.58-.61-5.37-.92-1.2-1.12-2.63-1.98-4.18-2.52-.4-.14-.58-.38-.54-.72.02-.21.02-.42-.01-.63-.1-.57.1-.8.6-.71.49.05.98,0,1.45-.13h.02Z" style="fill: #fc6a4c;"/>
      <path id="cf" data-name="Path 1017" d="m160.72,153.32c-.18.02-.37-.04-.51-.15.6-.25.88-.92,1.29-1.34.05-.06.13-.07.19-.04.27.18-.8,1.36-.97,1.52h0Z" style="fill: #ec6e6d;"/>
      <path id="cg" data-name="Path 1018" d="m221.69,151.81v15.77c-.18-.08-.37-.1-.57-.08-.53-.27-1.11-.44-1.71-.5-.5,0-.99-.1-1.44-.3l-1.34-.24c-.63-.19-1.28-.28-1.93-.27-.33-.02-.66-.09-.97-.2-.58-.17-1.17-.29-1.76-.37-.24-.03-.56.15-.73-.21-.02-.06-.09-.11-.15-.1-.56.04-1.12-.02-1.65-.2-.07-.02-.15-.03-.22-.01-.79-.02-1.58-.13-2.35-.32-.41-.06-.81-.14-1.21-.24-.55-.13-1.25-.27-2.13-.41-.91-.12-1.82-.3-2.71-.52-.29-.1-.6-.14-.91-.13-.07,0-.15-.01-.21-.04-.35-.13-.72-.2-1.09-.19-1.31-.27-2.64-.43-3.97-.48l-7.26-1.31c-.2-.27-.57-.34-.85-.15-.09-.01-.18-.06-.24-.13-.81-.33-1.68-.48-2.55-.45-.43-.18-.89-.27-1.35-.28-.07,0-.14-.03-.2-.07-.08-.04-.16-.01-.25.08-.36-.21-.78-.29-1.19-.23l-1.02-.23.18-.24c.04-.06.11-.09.18-.1.89-.09,1.77-.23,2.65-.41,11.44-2.15,22.87-4.34,34.3-6.56,1.55-.3,3.11-.58,4.66-.86h0Z" style="fill: #ff6431;"/>
      <path id="ch" data-name="Path 1019" d="m180.74,160.2c.41-.06.83.02,1.19.23.04.03.07.06.1.1-.46.03-.91-.09-1.3-.33h0Z" style="fill: #aa6572;"/>
      <path id="ci" data-name="Path 1020" d="m183.74,160.7s0,.05-.03.06c0,0,0,0-.01,0l-1.65-.24s-.06-.08-.1-.1c.09-.1.17-.13.25-.08.06.04.13.06.2.07.46,0,.92.1,1.35.28Z" style="fill: #aa6572;"/>
      <path id="cj" data-name="Path 1021" d="m186.29,161.15c-.88-.01-1.75-.14-2.6-.39.04,0,.05-.03.04-.07.87-.03,1.74.12,2.55.45h0Z" style="fill: #aa6572;"/>
      <path id="ck" data-name="Path 1022" d="m187.37,161.43l-.85-.15c.28-.18.65-.12.85.15Z" style="fill: #aa6572;"/>
      <path id="cl" data-name="Path 1023" d="m194.64,162.75c1.33.06,2.66.22,3.97.48.37,0,.74.06,1.09.19.07.04.14.05.21.04.31-.02.62.03.91.13.89.22,1.8.4,2.71.52.87.14,1.58.27,2.13.41.5.12.9.2,1.21.24.77.2,1.56.31,2.35.32.07,0,.15,0,.22.01.53.18,1.09.25,1.65.2.07,0,.13.04.15.1.17.37.49.18.73.21.6.07,1.19.2,1.76.37.31.11.64.18.97.2.65,0,1.31.09,1.93.27l1.34.24c.46.19.94.29,1.44.3.59.06,1.17.23,1.71.5-1.89-.29-3.78-.61-5.66-.97-6.93-1.31-13.88-2.52-20.83-3.78h0Z" style="fill: #db6a5c;"/>
    </g>
  </g>
  <path d="m43.56,185.21l.43,9.44c.02.31.28.56.57.54.03,0,.05,0,.08,0,2.65-.57,4.94.05,6.88,1.85.23.22.55.32.88.3l16.19,2c.41-.03.75.05.81.21.67,1.75.62,3.48-.13,5.21-.1.22-.46.39-.92.42l-16.94-2.25c-.54.03-.61.25-.2.66,4.13,4.11,8.24,8.23,12.35,12.35,2.72,2.73,4.87,5.58,1.26,8.65-.22.18-.23.53-.03.77,1.09,1.35,1.36,2.95.81,4.79-.43,1.42-1.26,2.37-2.48,2.86-6.43,2.55-7.3-6.9-.24-7.9.32-.05.38-.16.19-.35l-17.7-16.81c-.94-.89-1.41-.71-1.42.56-.02,2.18,1.08,15.85-5.39,10.93-.24-.18-.38-.47-.39-.78l-.22-10.25c-.03-1.09-.39-1.27-1.1-.56l-17.35,17.35c-.24.23-.55.38-.88.42-1.89-.13-6.46,2.58-6.79.24-.08-.3.02-.64.27-.91l17.4-19.45c.75-.79.59-1.17-.49-1.12-7.62.37-15.06.85-22.32,1.43-1.87-1.22-6.23.17-4.44-4,.12-.28.38-.47.66-.5l27.25-2.91c.42-.04.76-.18.9-.36,1.44-1.87,3.4-2.72,5.89-2.57.88.06,1.64-.72,1.7-1.73,0-.05,0-.1,0-.15l-.11-8.39" style="fill: #061c2e;"/>
  <circle cx="17.22" cy="230.63" r="3.82" style="fill: #061c2e;"/>
  <circle cx="3.6" cy="209.89" r="3.6" style="fill: #061c2e;"/>
  <path d="m210.15,174.91l-104.39-20.59-38.25-6.75,1,30.33c-.11,5.22-.07,10.44.11,15.65.38,10.62-.21,21.66.37,33.06.34,6.71.61,7.45.8,22.2,0,.45.22.81.47.8h3.24c.17,0,.31-.34.31-.75l-.04-23s0-.06,0-.09c.03-.34.24-.59.47-.55l131.1,17.75c.23,5.45.42,12.03.57,23.22,0,.45.22.81.47.8h3.24c.17,0,.31-.34.31-.75l-.04-23.08.26-68.26Z" style="fill: #061c2e;"/>
  <g>
    <path d="m156.37,194.85c-2.39-3.95-5.33-6.63-8.84-8.02-8.32-3.3-17.78-2.87-26.3.5-15.29,6.04-24.85,17.55-28.66,34.54l-.71-.29c1.22-7.59,1.89-16.13,4.68-22.73,2.45-5.79,6.44-11.84,11.83-14.78,12.02-6.55,31.5-5.31,42.65,2.01,3.17,2.08,4.95,5,5.35,8.77Z" style="fill: #c9be68;"/>
    <path d="m156.37,194.85c.74,11.63-1.35,23.27-1.36,34.9-.09,2.01-.57,3.9-1.43,5.66-.14.29-.42.48-.72.5l-10.29.63c-1.21-2.47-3.2-4.39-5.95-5.78-12.92-6.51-29.66-3.3-41.63,3.74-.76.45-.91,1.3-.44,2.54-3.04.25-4.03-.97-3.41-3.91.79-3.71,1.27-7.46,1.43-11.26,3.81-16.99,13.37-28.5,28.66-34.54,8.52-3.37,17.98-3.8,26.3-.5,3.51,1.39,6.45,4.07,8.84,8.02Z" style="fill: #ad9d19;"/>
    <path d="m142.57,236.54l-14.5.83-5.75.42c-9.29.66-18.55.41-27.77-.75-.47-1.24-.32-2.09.44-2.54,11.97-7.04,28.71-10.25,41.63-3.74,2.75,1.39,4.74,3.31,5.95,5.78Z"/>
    <path d="m128.07,237.37l.54,6.21-.13,6.87c0,.28.22.51.5.53,11.78.67,21.34,4.4,30.87,11.36,4.71,3.43,7.81,5.91,9.29,7.43,5.27,5.4-8.44-.42-10.57-1.33-7.11-3.03-13.58-4.23-20.96-4.64-.43-.02-.52.15-.27.51l17.24,25.01c.16.24.12.55-.08.71-.05.04-.11.06-.17.07l-4.82.88c-.16.03-.47-.2-.77-.57-6.95-8.63-14.71-16.45-23.28-23.46-.24-.19-.57-.23-.84-.1-8.75,4.26-17.38,15.09-17.22,24.78.01.38-.22.69-.52.71-.02,0-.04,0-.05,0l-4.25-.23c-.34-.02-.61-.3-.66-.68-1.14-9.6,4.52-18.01,10.35-26.39.19-.27.12-.39-.21-.35-5.83.73-11.19,2.61-16.07,5.64-3.11,1.92-6.38,5.44-10.03,7.76-.31.2-.64.26-.9.17-2.03-.75,1.55-5.84,2.26-6.72,8.87-11.03,20.32-17.71,34.35-20.02.3-.04.52-.29.52-.58l.13-13.15,5.75-.42Z"/>
  </g>
</svg>