<svg xmlns="http://www.w3.org/2000/svg" xmlns:xlink="http://www.w3.org/1999/xlink" data-name="Layer 1" viewBox="0 0 470.82 467.27">
  <defs>
    <linearGradient id="c" x1="386.11" x2="62.92" y1="388.19" y2="106.71" gradientUnits="userSpaceOnUse">
      <stop offset="0" stop-color="#fff"/>
      <stop offset="1" stop-color="#fedca9"/>
    </linearGradient>
    <linearGradient id="d" x1="203.87" x2="442.85" y1="192.59" y2="192.59" gradientUnits="userSpaceOnUse">
      <stop offset="0" stop-color="#da7629"/>
      <stop offset="1" stop-color="#fcc357"/>
    </linearGradient>
    <linearGradient id="e" x1="214.34" x2="60.7" y1="286.65" y2="286.65" gradientUnits="userSpaceOnUse">
      <stop offset="0" stop-color="#db5f45"/>
      <stop offset=".41" stop-color="#d8424b"/>
    </linearGradient>
    <linearGradient id="f" x1="403.52" x2="524.23" y1="370.65" y2="370.65" gradientUnits="userSpaceOnUse">
      <stop offset="0" stop-color="#da7629"/>
      <stop offset="1" stop-color="#fcc357"/>
    </linearGradient>
    <linearGradient id="g" x1="72.69" x2="214.13" y1="345.95" y2="345.95" gradientUnits="userSpaceOnUse">
      <stop offset="0" stop-color="#db5f45"/>
      <stop offset="1" stop-color="#98424b"/>
    </linearGradient>
    <linearGradient id="h" x1="389.08" x2="389.08" y1="467.1" y2="363.83" gradientUnits="userSpaceOnUse">
      <stop offset=".25" stop-color="#e18532"/>
      <stop offset="1" stop-color="#d8424b"/>
    </linearGradient>
    <linearGradient id="a" x1="58.41" x2="209.23" y1="431.39" y2="431.39" gradientUnits="userSpaceOnUse">
      <stop offset=".01" stop-color="#2d6855"/>
      <stop offset="1" stop-color="#60a896"/>
    </linearGradient>
    <linearGradient id="i" x1="277" x2="364.4" y1="409.65" y2="409.65" gradientUnits="userSpaceOnUse">
      <stop offset="0" stop-color="#da7629"/>
      <stop offset="1" stop-color="#fcc357"/>
    </linearGradient>
    <linearGradient xlink:href="#a" id="j" x1="143.3" x2="34.7" y1="449.75" y2="449.75"/>
    <linearGradient id="b" x1="140.73" x2="166.8" y1="70.85" y2="86.03" gradientUnits="userSpaceOnUse">
      <stop offset="0" stop-color="#b2ddd0"/>
      <stop offset=".17" stop-color="#acd9cc"/>
      <stop offset=".41" stop-color="#9bd1c1"/>
      <stop offset=".67" stop-color="#7fc3b0"/>
      <stop offset=".73" stop-color="#78bfab"/>
    </linearGradient>
    <linearGradient xlink:href="#b" id="k" x1="139.51" x2="165.58" y1="72.95" y2="88.12"/>
  </defs>
  <path d="M412.81 248.34c8.26 12.7 4.39 19.04 7.58 33.66.38 1.74 22.11-2.75 15.46 13.23-.64 2.26-1.51 4.37-2.62 6.32-1.01 2.1-2.45 4.52-4.33 7.24-3.79 5.52-8.15 11.15-13.07 16.9-3.48 4.08-7.32 7.5-11.51 10.27l-.44.41c.89 1.5-1.11 7.79-2.34 11.23-.33.93.27 1.92 1.24 2.06h.07c.07.02.15.03.22.02 1.96-.03 3.91.16 5.83.57.05 0 .09.02.14.02 3.28.25 6.48.96 9.6 2.14 9.9 4.1 3.27 14.74.22 20.65-2.31 4.46-3.06 9.19-2.26 14.18v.17c-.04.3-.32.5-.62.46-3.6-.58-7.09-.99-10.45-1.23-.33-.02-.65.06-.92.23-18.96 11.76-40.01 22.5-62.12 26.59-30.27 5.61-62.39 1.27-91.73-2.57-15.19-1.99-30.88-4.5-47.06-7.52-19.58-3.66-39.15-7.35-58.72-11.05-13.1-2.48-22.72-4.11-32.99-6.61a674.703 674.703 0 0 1-33.33-9.05c-9.27-2.78-18.43-5.56-27.51-8.92-10.15-3.76-27.59-13.8-28.08-22.57-.49-8.77 11.81.81 17.47.96.68.02 1.44 0 1.93-.47.5-.48.52-1.26.51-1.95-.05-3.69-3.26-13.93-.13-16.87 1.91-1.79 7.91 1.82 7.73-2.49-.92-1.79-1.92-3.53-2.99-5.23-.06-.09-.12-.17-.2-.25-5.64-5.77-17.52-42.28-1.19-38.7 3.53.78 6.76 2.88 8.89 5.8.81 1.11 5.77 15.08 7.11 10.32l2.73-9.26c.05-.17.07-.34.06-.51-.29-6.38-.56-12.76-.81-19.14-.35-8.93-13.11-16.55-18.84-22.73-14.42-15.56-8.99-37.49 1.65-53.11 5.5-8.09 12.71-14.16 21.62-18.22 10.59-4.82 21.9-8.77 26.45-19.65 4.32-10.33.53-22.85-2.95-32.82-2.31-6.64-4.56-14.12-5.9-20.4-3.92-18.39 1.28-37.44 13.64-51.58 14.3-16.36 34.58-20.32 55.36-18.48 30.76 2.73 60.14 9.93 89.09 20.85 14.9 5.62 40.18 14.02 69.78 24.76 12.28 4.45 24.67 8.57 37.19 12.34 13.28 4 24.63 11.36 32.8 22.67 9.31 12.87 15.16 37.28 16.15 53.02 1.63 26.05-25.63 29.99-24.58 40.04 2.01 19.29 24.63 25.11 37.11 44.3Z" style="fill:url(#c)"/>
  <path d="m72.69 364.44 87.18.12.02 31.31-32.51.02c-.27 0 .03.2 0 .48v26.32l-35.43 9.63.19 34.71-91.75.14c-.17 0-.3-.13-.3-.3s-.03-34.63 0-34.62l42.7-9.46c.23.1.5.23.6 0 .03-.06.04.06.04 0l.17-58.38 29.09.04Z" style="fill:#255c4b"/>
  <path d="M296.24 19.32c-2.16-.99-2.78-3.95-4.25-5.84-.89-1.14-1.53-1.12-1.93.07-.44 1.32-1.01 1.56-1.71.7-.86-1.03-1.82-2.02-2.72-3.02-2.58-2.9-6.76-.83-9.42 1.3-7.45 2.17-7-11.71 1.27-10.29 3.09.52 4.55.55 7.38-1.16 4.14-2.5 7.97-.39 9.95 3.6 2.33 4.68 2.8 9.56 1.43 14.64Z" style="fill:#041322"/>
  <path d="M296.24 19.32c1.62 1.58 3.11 3.38 4.46 5.39.11.16.14.36.08.54-1.02 3.53-3.11 5.97-6.27 7.32-4.81 2.05-9.71-3.54-11.91-7.31-2.4-4.12-4.53-8.36-6.39-12.72 2.66-2.13 6.83-4.2 9.42-1.3.9 1 1.86 1.99 2.72 3.02.7.86 1.27.62 1.71-.7.4-1.19 1.04-1.21 1.93-.07 1.47 1.88 2.09 4.85 4.25 5.84Z" style="fill:#fcb195"/>
  <path d="M359.62 57.16c-1.63-11.77-7.3-20.97-17.01-27.61a67.748 67.748 0 0 0-22.6-10.59c-6.9-1.8-12.85-.31-17.84 4.49-.27.26-.41.63-.38 1l2.53 33.72 1.88 6.44c1.82 5.35 5.15 12.03 1.88 17.23-.74 1.17-1 2.23-1.5 3.43-.07.16-.19.32-.36.44-.71.51-1.16 1.21-1.35 2.07 2.76 5.22 5.63 10.72 10.89 13.33 6.37 3.16 16.63-1.08 23.41-2.91.61.04 1.13-.1 1.57-.4.14-.1.21-.29.17-.48L328.5 44.71c-.06-.26.03-.34.27-.23 4.45 1.91 8.95 3.6 11.78 7.8.79 1.18 1.67 3.36 2.64 6.52 2.57 8.45 5.21 16.88 7.91 25.29a36.72 36.72 0 0 0 2.06 6.56c2.44-.57 4.92-.91 7.43-1.04.57 0 1.03-.14 1.39-.45.13-.11.21-.3.2-.51a279.02 279.02 0 0 0-2.56-31.5ZM294.92 66.25c.36 8.28.38 16.55.04 24.81-.52 3.04-1.27 6.04-1.91 9.05-.25 1.16-.61 2.3-1.08 3.4-.35.67-.86 1.04-1.53 1.09-.17.01-.32-.1-.37-.28l-10.93-42.01c-.09-.35-.23-.37-.41-.06a497.882 497.882 0 0 1-28.58 43c-2.4 3.24-3.67 4.93-3.8 5.09-1.4 1.63-3.01 3.03-4.83 4.2l-4.21-3.28c-1.79-1.31-.23-4.02.37-5.61 7.97-21.36 18.14-42.94 31.34-61.59 4.08-5.76 8.88-10.75 15.65-12.97.15-.05.31.03.36.18v.02c3.11 11.8 6.41 23.45 9.88 34.95Z" style="fill:#176950"/>
  <path d="m304.33 58.15 1.88 6.44c-2.16 7.87-4.8 15.57-7.9 23.09-.52 1.25-.43 2.87-2.07 3.8-.61.35-1.04.21-1.28-.42.34-8.27.33-16.54-.04-24.81-.26-10.38-.5-20.77-.72-31.15-.02-.81-.3-3.77 1-.49 3.08 7.82 6.13 15.67 9.13 23.54Z" style="fill:#f5952b"/>
  <path d="M153.66 46.23c-1.81.15-3.14.34-4.01.57-2.26.61-2.35 3.05-4.34 3.13-.74.03-1.19.41-1.34 1.13-.19.92.09 1.76.86 2.52.1.09.1.25 0 .34 0 0-.02.02-.03.02l-.71.53c-.13.1-.2.28-.2.49l.1 5.16c0 .19-.12.35-.3.39-.56.14-1.1.03-1.62-.33-2.56-1.48-2.88-4.99-3.06-7.7-.78-12.11 10.83-11.24 19.15-10.76.17.01.3.16.29.33 0 .04-.01.08-.03.12-1.03 2-2.61 3.35-4.76 4.04Z" style="fill:#393b40"/>
  <path d="M306.21 64.59c1.82 5.35 5.15 12.03 1.88 17.23-.74 1.17-1 2.23-1.5 3.43-.07.16-.19.32-.36.44-.71.51-1.16 1.21-1.35 2.07-3.61 4.82-7.44 9.46-11.48 13.92-.52.58-.79 1.18-1.12 1.85-.07-.13-.17-.14-.32-.02.47-1.11.83-2.24 1.08-3.4.65-3.01 1.4-6.01 1.91-9.05.24.63.67.77 1.28.42 1.65-.93 1.55-2.55 2.07-3.8 3.1-7.52 5.73-15.22 7.9-23.09Z" style="fill:#da7629"/>
  <path d="M360.59 89.61c1.12 2.73 5.68 15.84-1.16 15.44-4.51-.27-5.16-10.39-5.46-13.55-.05-.58-.28-.72-.81-.85 2.44-.57 4.92-.91 7.43-1.04ZM237.32 111.27l4.21 3.28c-.62 1.22-1.72 2.66-3.3 4.33-2.04 2.14-4.82 2.81-8.34 1.99-.46-.11-.94-.09-1.38.07-4.3 1.45-10.48-.37-14.67-1.67.7-1.86.95-3.77.74-5.75 2.35-.63 4.68-.1 6.6.04 2.85.22 5.86.92 9.01 2.11.35.13.75.07 1.07-.15l6.07-4.25Z" style="fill:#fdb597"/>
  <path d="M354.45 198.17a9715.77 9715.77 0 0 1-14.55-33.62c-1.16-2.71-1.75-4.52-1.74-5.45.02-4.21.07-8.42.12-12.63l.2-6.98.7-41.3c-6.77 1.82-17.04 6.06-23.41 2.91-5.26-2.61-8.13-8.11-10.89-13.33-3.61 4.82-7.44 9.46-11.48 13.92-.52.58-.79 1.18-1.12 1.85-.08.95-.33 2.09-.77 3.42-3.07 9.33-5.91 19.44-8.52 30.33-1.05 4.41-1.43 8.17-1.14 11.27 1.2 12.71 3.37 30.06 6.5 52.03.06.44.27.66.63.68l7.64-.71c.44-.04.78-.37.8-.78l.8-22.55a3104 3104 0 0 1 1.11-27.26c.38-8.42 2.22-11.8 6.33-18.36 2.74-4.37 5.58-8.75 8.53-13.14.34-.51.58-.46.71.14 3.33 14.58 7.07 29.22 11.22 43.92.5 1.75 1.48 3.98 2.95 6.68l.49 1.35c5.78 10.2 11.76 20.15 17.95 29.84.19.3.56.43.9.31l5.89-2.16h.02c.14-.06.2-.22.14-.36Z" style="fill:#060505"/>
  <path d="m112.21 150.07 7.62.3c.15 3.38.03 6.72-.39 10.05-1.9 4.39-6.77 3.59-7.68-.86-.61-3-.46-6.16.45-9.48Z" style="fill:#fab59d"/>
  <path d="M341.54 209.65c-1.17-.17-1.36-.58-.56-1.22 4.39-3.53 9.2-6.03 14.45-7.5.36-.1.73.07.89.4l3.67 7.85c.14.31 0 .68-.3.82-.09.04-.19.06-.29.06-5.79-.26-12.04.47-17.84-.4ZM289.31 202.78c1.85 1.59 5.3.12 7.45.14.47 0 .85.4.86.89l.16 6.7c-6.12.28-11.58.37-16.36.29-.69-.01-1.53-.15-2.53-.42-.85-.82-.74-1.52.32-2.09 2.39-1.28 5.69-2.78 9.89-4.5.39-.16.46-.49.21-1Z" style="fill:#0a1a2b"/>
  <path d="M442.8 139.48c0-.31-.25-.55-.54-.55l-25.66.27-43.07.17-35.03.12-.2 6.98c-.06 4.21-.1 8.42-.12 12.63 0 .93.58 2.74 1.74 5.45 4.76 11.06 9.61 22.26 14.55 33.62v.02c.05.15-.02.3-.16.35l-5.89 2.16c-.33.12-.71 0-.9-.31a661.86 661.86 0 0 1-17.95-29.84c-.45 1.96-.65 3.99-.62 6.08 0 .16-.13.29-.29.29l-30.43.3-.8 22.55c-.02.41-.36.74-.8.78l-7.64.71.32 1.51c1.85 1.59 5.3.12 7.45.14.47 0 .85.4.86.89l.16 6.7c-6.12.28-11.58.37-16.36.29-.69-.01-1.53-.15-2.53-.42-.1.11-.15.25-.15.4-16.19-.23-32.39-.21-48.58.05l-21.71-.02c-.22 0-.41.16-.43.39l-4.15 34.65 9.21.2 28.52-.05 1.02.17 31.67-.17 18.15.25 50.51-.04c.17 0 .3-.13.31-.3l1.28-33.74c.02-.6.52-1.08 1.12-1.08 6.37.07 12.59.04 18.65-.11 12.84-.3 25.71.1 38.51-.17.3 0 .55-.25.55-.55.22-11.22.23-22.23.04-33.03l39.15-.3c.17 0 .31-.14.31-.31l-.06-37.14Zm-155.56 74.53s-.05.06-.06.09c0-.04.04-.06.06-.09Zm-.04.3s0-.07-.01-.1c0 .04 0 .08.02.12 0 0 0-.01-.01-.02Zm1.52 20.78s.04-.04.06-.07c-.02.03-.03.05-.06.07Zm.09-.15s.01-.1-.01-.15c.02.03.03.07.03.11 0 .02-.01.02-.02.04Zm82.77-95.07s-.06.04-.08.06c.03-.03.05-.04.08-.06Zm.18-.07s-.06 0-.09.02c.03-.01.06-.01.09-.02Zm-.47.54.03-.1c-.02.05-.04.09-.04.15v-.05Zm.14-.32s-.05.06-.06.1c.02-.04.04-.07.06-.1Zm-10.17 66.37v-.06c.01.03.02.07.04.1-.01-.01-.02-.03-.03-.04Zm0-.2s-.02.05-.03.07c0-.03.01-.05.03-.07Zm-1.89 3.86c-5.79-.26-12.04.47-17.84-.4-1.17-.17-1.36-.58-.56-1.22 4.39-3.53 9.2-6.03 14.45-7.5.36-.1.73.07.89.4l3.67 7.85c.04.09.06.19.06.29-.02.34-.31.61-.65.59Zm59.73-41.81s-.05-.02-.08-.02c.03 0 .05 0 .08.02Zm-2.68 2.75s-.06.02-.08.03c.03-.01.05-.03.08-.03Zm-.14.06s-.04.03-.05.05c.02-.02.03-.04.05-.05Zm-.1.1s-.02.04-.02.05c0-.02.01-.04.02-.05Zm-.06.14c0 .05-.01.09 0 .14v-.14Zm2.77-3.01s.04-.01.06-.02c-.03.02-.07.03-.09.06 0-.01.02-.03.03-.04Z" style="fill:url(#d)"/>
  <path d="m274.28 245.98 18.15.25.05 48.2-32.92 16.23-5.78 2.69c-.16.08-.27.24-.26.43.18 10.78.22 17.35.11 19.72-.34 7.07.07 14.84-.05 23.52-2.6.95-5.8 1.48-9.6 1.59-4.67.14-9.4.19-14.18.15h-25.69l-.07-31.2 9.82-.26c.17 0 .32-.13.36-.29 2.78-13.9 5.31-27.88 7.6-41.93 10.77-.32 17.21-.37 19.34-.15 1.98.2 1.63-.62 1.63-2 .07-12.26 0-24.52-.17-36.78l31.67-.17Z" style="fill:#d8424b"/>
  <path d="M374.43 363.94c-.1.41-.15.86-.15 1.35.1 18.67.13 37.33.11 56-.73.18-1.04-.11-.93-.89.03-.21.01-.41-.06-.56-1.24-2.77-3.24-6.07-4.34-8.02-5.27-9.35-12.57-16.78-21.88-22.3-5.28-3.12-10.56-6.24-15.84-9.35l-6.68-4.21-.1-11.31a.3.3 0 0 0-.3-.3c-6.42-.19-12.89-.18-19.42.04l-21.21-12.19a.265.265 0 0 0-.37.1c-.02.04-.04.09-.04.14l-.26 79.3c0 .18-.13.32-.3.33l-2.56.1-26.76.12-10.82-.21v-35.94c0-.22-.18-.39-.4-.39l-19.95-.04c2.24-12.37 4.79-24.69 7.65-36.95 4.78.04 9.51 0 14.18-.15 3.8-.11 7-.64 9.6-1.59 17.24-7.56 27.82-29.63 34.56-45.69a.26.26 0 0 0-.14-.35.36.36 0 0 0-.11-.02l-28.33-.3 32.92-16.23 81.52-39.92c.1-.05.22 0 .27.09.01.03.02.06.02.09l.13 109.25Z" style="fill:#fedca9"/>
  <path d="m158.26 273.82-.74 3.36c-1.75-.5-3.53-.78-5.35-.84a5.4 5.4 0 0 1-1.36-1.81c2.21-.49 4.69-.73 7.45-.71Z" style="fill:#f4a398"/>
  <path d="M152.17 276.34c1.81.07 3.6.35 5.35.84 3.63 2.01 7.1 4.27 10.42 6.79-.92.42-1.72.54-2.39.37l-13.36-.04c.19-2.77.19-5.43-.01-7.97Z" style="fill:#111825"/>
  <path d="M242.79 282.93c.07-12.26 0-24.52-.17-36.78l-1.02-.17-28.52.05-9.21-.2-47.1.19 1.49 27.8-.74 3.36c3.63 2.01 7.1 4.27 10.42 6.79-.92.42-1.72.54-2.39.37l-13.36-.04c.19-2.77.19-5.43-.01-7.97a5.4 5.4 0 0 1-1.36-1.81c-.47-.03-.77-.28-.9-.74-2.6-9.37-5.17-18.72-7.69-28.05l-21.08.1c-.42 0-.77.31-.81.71l-3.89 37.47c-.03.34-.31.59-.64.59l-21.46.15c-.3 0-.54.23-.58.52l-4.58 42.1h75.17l12.8-.09c.19.14.82.14 1.91-.01l24.81-.05c.13.05.18.15.17.32l9.82-.26c.17 0 .32-.13.36-.29 2.78-13.9 5.31-27.88 7.6-41.93 10.77-.32 17.21-.37 19.34-.15 1.98.2 1.63-.62 1.63-2Zm-114.68 2.49v-.08c0 .04 0 .08.03.11 0-.01-.02-.02-.02-.04Zm.88 4s-.07-.06-.11-.1c.06.05.11.1.19.13a.161.161 0 0 1-.07-.04Zm3.94 36.83s.02-.07 0-.11c0 .02.01.05.01.07 0 .01-.01.02-.02.04Zm20.02-30.82h-.03c.04 0 .07 0 .1-.03-.02.02-.05.03-.08.04Z" style="fill:url(#e)"/>
  <path d="M470.77 274.2a.36.36 0 0 0-.49-.13L459.82 280l-22.01 12.65c-6.57 3.68-14.85 7.62-20.03 12.45-6.35 5.67-10.68 12.53-12.98 20.58-1.27 4.43-1.28 8.97-1.28 13.76 0 11.03.02 19.16.09 24.38.44 13.14.21 23.07.21 34.38v68.7c2.61.36 5.23.45 7.87.27h34.17l24.26-.12a.7.7 0 0 0 .7-.69V274.38c0-.06-.02-.12-.05-.18Zm-33.9 190.22s.01-.05.01-.07c0 .03 0 .05-.01.07Zm-.06.14s.03-.04.04-.07c0 .02-.03.05-.04.07Zm-.04-.49.03.06c-.02-.03-.03-.05-.05-.07l.02.02Zm.09.2s0-.05-.02-.07c.01.02.01.05.02.07Z" style="fill:url(#f)"/>
  <path d="m179.06 327.29 35.07-.05c.13.05-10.07.15-10.09.32l.07 31.2-.24 5.8c0 .26-131.17-.12-131.17-.12v-36.73c0-.16.13-.3.3-.3l8.44-.02h82.92l14.71-.1Z" style="fill:url(#g)"/>
  <path d="M403.61 363.83c.44 13.14.21 23.07.21 34.38v68.7l-4.06.19-25.37-45.8c.03-18.67 0-37.34-.11-56 0-.49.05-.94.15-1.35l29.19-.11Z" style="fill:url(#h)"/>
  <path d="M304.82 364.39c6.52-.21 13-.23 19.42-.04.17 0 .3.14.3.3l.1 11.31-17.23-10.1-2.59-1.47Z" style="fill:#255c4b"/>
  <path d="m242.09 395.75-19.95-.04-39.4.08-22.7.13-.15-.05-32.51.02c-.27 0 .03.2 0 .48v26.32l-35.43 9.63.19 34.71 150.64.04-.28-34.99v-35.94c0-.22-.18-.39-.4-.39Zm-83.69 37.18s-.04.03-.05.05a.12.12 0 0 1 .05-.05Zm24.92-30.97c0 .06-.01.12-.02.17 0-.07.03-.13.02-.2v.03Zm-.04.36c-.02.06-.06.11-.08.16.03-.05.07-.1.08-.16Zm-.31.44s.1-.07.14-.12c-.04.05-.09.08-.14.12Zm-.14.11c-.06.03-.12.04-.18.06.06-.02.13-.03.18-.06Zm-24.51 30.21s.01-.02.01-.04c0 .04-.01.08 0 .12-.01-.03-.02-.05-.02-.08Z" style="fill:url(#a)"/>
  <path d="M220.51 432.32c.23.32.33.56.3.72-2.26 11.33-4.2 22.69-5.82 34.1l-23.1-.07-9.5-34.62s32.98 0 38.12-.13Z" style="fill:#255c4b"/>
  <path d="m283.13 431.75-4.12.43-25.69.12-10.82-.21-21.99.24c.23.32.33.56.3.72-2.26 11.33-4.2 22.69-5.82 34.1h52.4l6.9.04.48-.05h8.36v-35.38Z" style="fill:#f19f50"/>
  <path d="M374.38 421.3c-.73.18-1.04-.11-.93-.89.03-.21.01-.41-.06-.56-1.24-2.77-3.24-6.07-4.34-8.02-5.27-9.35-12.57-16.78-21.89-22.3-5.28-3.12-10.56-6.24-15.84-9.35l-6.68-4.21-17.23-10.1-2.59-1.47-21.21-12.19s-.09-.04-.14-.04c-.15 0-.27.12-.27.27l-.26 79.3c0 .06-.03.1-.06.15v35.24l116.88-.03-25.37-45.8Z" style="fill:url(#i)"/>
  <path d="M191.88 467.18H0l.22-34.86H192.1l-.22 34.86z" style="fill:url(#j)"/>
  <path d="m.09 432.25 91.86.07 35.43-9.63-83.99.1-43.3 9.46z" style="fill:#63a998"/>
  <path d="M214.56 113.52c-11.5-4.87-27.57-12.38-33.76-23.16-5.26-9.16-13.08-22.5-25.33-22.72h-.02c-.15 0-.27.13-.26.29l1.41 37.14c.26 1.16.52 2.34.78 3.5.58 2.59 1.16 5.17 1.73 7.76 2.2 10.07 3.95 16.3-.65 24.24-.55.95-1.31 1.17-2.28.66-2.81-1.48-7.84-5.12-9.06-8.37-.14-.36-.24-.73-.27-1.08-.14-1.5-.35-2.98-.45-4.47-2.67-17.19-4.96-34.42-6.88-51.7h-.07c-.74.06-.75 3.53-.76 3.6-2.7 11.89-6.85 23.21-12.45 33.97-3.31 6.35-4.4 10.04-4.66 16.8-.09 2.26-.67 9.05-1.74 20.38.15 3.38.03 6.72-.39 10.05 2.52 8.75 4.92 17.5 7.21 26.25 5.14 19.67 10.33 39.36 15.57 59.08 2.52 9.33 5.09 18.68 7.69 28.05.13.46.43.71.9.74 2.21-.49 4.69-.73 7.45-.71l-1.49-27.8 8.03-1.5c1.33-.25 1.51-.68.56-1.3-2.14-1.39-4.54-2.41-7.18-3.07-.06-.01-.11-.04-.16-.06a.66.66 0 0 1-.26-.9c6.27-11.44 12.68-22.99 19.22-34.65 1.97-3.51.84-7.26-.49-11.31a3649.81 3649.81 0 0 1-11.48-35.4c-.59-1.85-1.24-3.29-1.1-5.26 1.16-16.33 2.17-33.09 3.04-50.28.03-.56.22-.62.56-.18 6.35 8.04 13.37 11.71 23.55 14.05 7.48 1.72 15.06 2.75 22.76 3.11.7-1.86.95-3.77.74-5.75Zm-50.61 91.34-8 22.85c-.18.51-.29.5-.33-.05l-3.05-39.45c-.08-1.05.18-1.14.77-.27l10.39 15.34c.33.47.41 1.06.23 1.58Z" style="fill:#071c2f"/>
  <path d="M164.12 189.61s-18.91 25.7-22.86 30.88c0 0 5.22 1.6 11.01 3.35 2.75.83 5.63 1.69 8.14 2.44 4.01 1.19 7.08 2.06 7.14 1.98l23.91-33.61s-27.27-5.17-27.34-5.03Z" style="fill:#bab761"/>
  <path d="M154.56 230.64c1.05-.41 2.15-1.03 3.22-1.83 1.05-.79 1.94-1.66 2.63-2.54-2.45-.72-5.25-1.57-7.95-2.38a12.9 12.9 0 0 0-.41-4.05c-1.26-.39-2.01 1.24-2.46 2.76-.44 1.51-.77 3.42-.12 5.12l5.1 2.91Z" style="fill:#f89c79"/>
  <path d="M110.18 233.48c-.12.41-.14.76-.06 1.06-.19 2.82-1.21 5.25-3.07 7.32-.15.16-.34.27-.55.3-4.08.64-5.99-4.12-7.67-7.63l-.48-2.15.09-5.98c1.84-.42 3.1-1.68 3.78-3.77.44-1.33.87-2.66 1.3-4 .38-.67.9-1.03 1.56-1.08 3.95-.33 7.14-1.73 9.57-4.18.75-.76 1.13-.62 1.13.43l.02 11.96c0 .26-.22.48-.5.51l-4.16.52c-.2.03-.37.17-.45.37-.78 2.12-.95 4.23-.52 6.33Z" style="fill:#fcb195"/>
  <path d="m150.32 226.25 3 1.82 2.62 1.56c.97.58 1.28 1.35.91 2.3-3.72 9.56-7.87 18.69-12.47 27.4-3.95 7.51-10.04 15.7-18.67 17.89-.65.17-1.1.76-1.08 1.44.16 4.76-.13 9.51-.87 14.27-.86-4.34-2.37-12.29-4.51-23.85-2.05-11.05-4.92-22.53-8.62-34.44-.14-.46-.31-.49-.51-.11-.07-.3-.05-.65.06-1.06 3.51.15 6.29 1.85 8.36 5.09 3.34 5.21 6.75 10.37 10.23 15.47.6.88 1.18.87 1.74-.04 4.94-8.05 9.68-16.22 14.22-24.5 1.5-2.75 2.23-4.83 5.59-3.25ZM98.35 232.37l.48 2.15c.59 2.83 1.03 6.91 1.32 12.24.82 14.85.72 28.33-.3 40.45-.94 11.17-1.92 22.33-2.92 33.5-1.47.98-2.89 1.24-4.27.79-5.11-1.7-9.95-3.99-14.52-6.85-.87-.55-1.16-.33-.88.66a246.06 246.06 0 0 1 5.19 21.59l-7.24.61c-3.28-7.8-6.43-15.66-9.44-23.58-2.66-7.01-4.66-13.99-3.4-21.58 3.03-18.16 8.69-35.38 15.15-52.54.2-.54.63-.97 1.17-1.18 6.49-2.43 13.04-4.52 19.66-6.26Z" style="fill:#488975"/>
  <path d="M98.83 234.53c1.67 3.51 3.59 8.27 7.67 7.63.21-.03.4-.14.55-.3 1.86-2.06 2.89-4.5 3.07-7.32.2-.38.37-.34.51.11 3.7 11.91 6.57 23.39 8.62 34.44 2.14 11.56 3.65 19.51 4.51 23.85 2.34 7.81 4.37 15.69 6.07 23.65-.62 0-1.49.21-2.61.61-7.85 2.78-16.39 4.3-25.6 4.55-.19 0-.37.11-.5.29-1.07 1.44-1.48-1.69-2.98-.49l-1.21-.82c1-11.16 1.98-22.33 2.92-33.5 1.03-12.12 1.13-25.6.3-40.45-.29-5.33-.73-9.41-1.32-12.24Z" style="fill:#ec8017"/>
  <path d="m96.92 320.72 1.21.82c.95 1.02 1.68 1.94 2.2 2.77 8.05 12.99 14.41 20.47 22.22 31.48 7.77 10.94 4.6 22.99-4.16 31.96a597.206 597.206 0 0 1-27.27 26.23.724.724 0 0 0-.63.21l-8.31-3.31a.746.746 0 0 1-.47-.77c1.19-16.06 2.57-31.98 4.14-47.76.44-4.45-3.54-11.8-5.05-16.39.92-.75 1.75-1.22 2.51-1.42.72-.19 1.23-.64 1.14-1v-.02l-2-6.62c-1.42-7.33-3.15-14.53-5.19-21.59-.28-.99 0-1.21.88-.66 4.57 2.87 9.41 5.15 14.52 6.85 1.37.46 2.79.19 4.27-.79Z" style="fill:#393b40"/>
  <path d="M129.83 316.59c4.84 14.07 9.59 28.18 14.27 42.33 2.44 7.41 2.22 13.45-3.32 19.35-.52.56-.71 1.22-.58 1.98l7.07 40.3-.66 1.78c-2.02.76-4 1.07-5.93.95l-1.13-1.73c-3.99-9.96-8.27-20.01-12.84-30.13a.357.357 0 0 0-.46-.19c-.7.28-1.32.63-1.88 1.06-8.07 6.21-16.15 12.4-24.23 18.6-4 3.06-6.86 5.54-8.57 7.42l-1.47-.95c.95-.83 1.29-1.95 1.01-3.35 9.37-8.46 18.46-17.2 27.27-26.23 8.76-8.97 11.93-21.03 4.16-31.96-7.82-11.01-14.17-18.5-22.22-31.48-.52-.83-1.25-1.75-2.2-2.77 1.51-1.2 1.91 1.94 2.98.49a.66.66 0 0 1 .5-.29c9.22-.25 17.75-1.77 25.6-4.55 1.13-.4 2-.6 2.61-.61Z" style="fill:#918a91"/>
  <path d="m82.45 336.9 2 6.62c.11.36-.37.82-1.09 1.02-.02 0-.03 0-.05.01-.76.2-1.59.67-2.51 1.42-.5.69-.74 1.49-.71 2.41 0 .14-.1.26-.23.26h-.07c-1.67-.49-2.5-4.14-2.76-5.78-.3-1.88-.91-3.66-1.83-5.35l7.24-.61ZM90.49 414.2c.17-.17.38-.24.63-.21.27 1.41-.06 2.53-1.01 3.35-1.52.75-2.32 1.85-2.41 3.32-.09 1.45-.78 1.81-2.08 1.08l-3.93-2.2.74-7.74c.12-.46.57-.74 1.01-.63.05.01.09.03.14.05.38.17 6.72 2.68 6.92 2.97Z" style="fill:#fcb195"/>
  <path d="m90.11 417.35 1.47.95c3.68 3.22 7.54 6.22 11.57 8.99.87.88-1.72 2.44-6.03.87-2.18-.65-12.93-4.95-13.77-4.42-.93.59-2.39 4.44-3.19 4.48-.18 0-.33-.13-.33-.31v-.02c.02-2.92.64-5.69 1.87-8.33l3.93 2.2c1.3.72 1.99.36 2.08-1.08.09-1.47.9-2.57 2.41-3.32Z" style="fill:#0b0e2a"/>
  <path d="M103.43 219.74c-.49 1.32-.98 2.63-1.47 3.94-.77 2.06-2.08 3.26-3.94 3.6-3.01 1.68-6.14 2.78-9.39 3.31-2.9.46-5.31.35-7.2-.35-6.75-2.5-7.9-13.1-.06-15.34 4.22-1.21 9.33.65 12.81 3.19a.706.706 0 0 0 1.12-.5c.31-2.63.9-5.22 1.78-7.75 2.61-7.48 15.7-9.27 19.21-1.67 2.27 4.94-5.83 9.13-9.52 9.55-1.66.19-3.13-.44-3.35 2.02Z" style="fill:#06052b"/>
  <path d="M146.61 422.32c4.56 2.7 9.87 5.14 15.92 7.34.31.11.55.35.66.65.31.86-.08 1.41-1.17 1.66-5.3 1.21-9.72-2.82-14.53-4.59-.3-.11-.62.05-.73.34-.48 1.28-.88 2.51-1.21 3.69-1.5 5.42-4.57-6.51-4.87-8.15 1.93.13 3.9-.19 5.93-.95Z" style="fill:#0b0e2a"/>
  <path d="M153.34 187.94c-.59-.87-.85-.78-.77.27l3.05 39.45c.04.54.15.56.33.05l8-22.85c.18-.52.1-1.11-.23-1.58l-10.39-15.34Z" style="fill:none"/>
  <path d="M126.23 113.19c5.61-10.76 9.76-22.08 12.45-33.97.02-.07.03-3.54.76-3.6l-.57-5.75a.368.368 0 0 0-.48-.19c-7.28 3.2-13.68 9.92-18.21 16.44-7.4 10.64-11.42 22.25-12.08 34.8-.48 9 .93 19.28 2.37 28.61.03.17.17.31.35.33l1.37.19 7.62.3c1.07-11.32 1.65-18.11 1.74-20.38.27-6.76 1.35-10.45 4.66-16.8Z" style="fill:#393b40"/>
  <path d="M156.18 141.23c.97.51 1.73.29 2.28-.66 4.6-7.94 2.86-14.17.65-24.24-.57-2.59-1.15-5.18-1.73-7.76l-10.27 24.3c1.22 3.24 6.25 6.89 9.06 8.37Z" style="fill:#e64842"/>
  <path d="M147.39 74.52Z" style="fill:#fdb597"/>
  <path d="M146.86 74.63c.18-.06.35-.1.52-.11-.17.02-.35.06-.52.11Z" style="fill:url(#b)"/>
  <path d="m140.48 69.68-1.59.19.03.1.61 5.64c1.92 17.28 4.21 34.51 6.88 51.7 0-4.36 0-8.72.01-13.07.04-13.12.19-26.33.46-39.61a20.975 20.975 0 0 1-6.39-4.95ZM155.2 67.92l-1.72.21c-.05 2.41-1.25 4.18-3.65 5.3-.71.33-1.03.82-.95 1.45-.32-.2-.65-.31-.98-.36.34.04.66.16.98.36 2.48 10.09 5.32 20.08 7.73 30.19l-1.41-37.14Z" style="fill:#fff"/>
  <path d="M153.66 46.23c-1.81.15-3.14.34-4.01.57-2.26.61-2.35 3.05-4.34 3.13-.74.03-1.19.41-1.34 1.13-.19.92.09 1.76.86 2.52 0 0 .02.02.02.03.08.11.06.26-.05.34l-.71.53c-.13.1-.2.28-.2.49l.1 5.16c0 .19-.12.35-.3.39-.56.14-1.1.03-1.62-.33.02.45-.25.56-.8.34a.401.401 0 0 0-.15-.03.496.496 0 0 0-.53.47l-.47 8c-.01.19.05.38.17.52.06.07.12.13.18.19 1.81 2.06 3.94 3.72 6.39 4.95.18-.06.35-.1.52-.11.17-.02.34-.02.51 0 .34.04.66.16.98.36-.08-.63.24-1.12.95-1.45 2.4-1.12 3.6-2.89 3.65-5.3.01-.58-.02-1.18-.14-1.83-.11-.58.17-1.17.68-1.47 1.11-.63 1.66-1.63 1.66-2.99-.03-5.29-.71-10.5-2.02-15.61Z" style="fill:#fdb597"/>
  <path d="m139.52 75.62-.61-5.64s-.01-.07-.03-.1l.57 5.75s.04-.01.07 0Z" style="fill:#393b40"/>
  <path d="m139.52 75.62-.61-5.64s-.01-.07-.03-.1l.57 5.75s.04-.01.07 0Z" style="fill:url(#k)"/>
  <path d="M148.88 74.87c-.64-.39-1.31-.47-2.01-.24-.27 13.28-.42 26.49-.46 39.61-.01 4.35-.02 8.71-.01 13.07.1 1.5.31 2.97.45 4.47.03.35.13.71.27 1.08l10.27-24.3c-.26-1.17-.51-2.34-.78-3.5-2.41-10.11-5.25-20.1-7.73-30.19Z" style="fill:#e64842"/>
</svg>