<?xml version="1.0" encoding="UTF-8"?>
<svg id="a" data-name="Layer 1" xmlns="http://www.w3.org/2000/svg" viewBox="0 0 204.55 274.42">
  <path d="m1.56,76.3c-9.7,48.35,35.63,86.32,87.16,100.49,68,18.69,104.5-10.93,114.2-59.28,9.7-48.35-24.92-96.06-77.33-106.57C73.19.43,11.26,27.95,1.56,76.3Z" style="fill: #d9eee7;"/>
  <polygon points=".54 164.22 106.16 70.12 186.42 102.93 73.03 201.47 .54 164.22" style="fill: #fff;"/>
  <polygon points="56.71 51.35 53.18 38.07 49.97 44.71 44.44 43.91 39 42.47 47.85 63.77 50.57 70.66 59.93 67.13 56.71 51.35" style="fill: #fff;"/>
  <path d="m73.33,12.49C69.62,4.51,63.97.71,55.27.34c-.08,0-1.26-.32-1.35-.33-3.8-.17-10.11,1-13.57,7.86-3.51,6.95-.99,1.93-1.09,3.1-.04.51-.16.99-.38,1.45-.86,1.81-1.69,3.75-1.89,5.8-.27,2.63-.35,4.16-1.87,6.43-1.06,1.58-2.17,3.04-2.95,4.72,0,.04,0,.09-.01.13,0-.04,0-.09.01-.13-.28.61-.53,1.24-.71,1.93-.44,1.64-.38,4.03-.66,5.56-.4,2.26-3.26,3.82-5.02,5.06-4.44,3.15-3.52,9.57-1.23,13.71.39-2.17.51-5.69,2.22-7.25,2.71-2.47,5.62-4.68,8.73-6.61.27-.17.96-.38,2.07-.63,5.39-1.59,10.04-4.97,11.01-10.83.12-1.04.23-1.92-.17-2.97-.47-1.23-1.48-3.47-.17-4.45,1.06-.79,2.18-.89,3.37-.3.3.15.48.41.55.79l.26,1.41c.01.07.08.15.17.2l.42.23s.06.12.05.24c-.23,1.77-1.12,3.58-3.28,3.14-.1-.02-.11,0-.04.08.99,1.01,2.66.66,3.64-.15.89-.74,1.51-1.65,1.85-2.74.01-.05.06-.07.11-.06,0,0,.02,0,.03.01,4.66,3.45,10.4,2.41,14.59-1.17,3.81-3.31,5.7-7.12,3.38-12.1Z" style="fill: #1c162e;"/>
  <path d="m48.41,27.34c-.47-1.23-1.48-3.47-.17-4.45,1.06-.79,2.18-.89,3.37-.3.3.15.48.41.55.79l.26,1.41c.01.07.08.15.17.2l.42.23s.06.12.05.24c-.23,1.77-1.12,3.58-3.28,3.14-.1-.02-.11,0-.04.08.99,1.01,2.66.66,3.64-.15.89-.74,1.51-1.65,1.85-2.74,0,0,0-.02.01-.03.03-.04.08-.05.12-.02,4.66,3.45,10.4,2.41,14.59-1.17-.47,1.23-.93,2.47-1.39,3.7-.49,1.3-.36,2.32.02,3.56.65,2.13-.85,1.69-2.19,1.97-.42.09-.64.34-.67.76-.08,1.01-.6,1.6-1.56,1.78-.1.02-.18.09-.21.19l-.23.78c-.03.09-.1.17-.2.23-.59.31-1.09.73-1.49,1.26-1.12,1.59-2.63,1.89-4.52.92-1.97-1.01-3.34-1.78-4.12-2.29-1.65-1.33-4.11-3.11-4.48-5.65-.07-.5-.18-.99-.33-1.48.12-1.04.23-1.92-.17-2.97Z" style="fill: #f39d77;"/>
  <path d="m48.91,31.79c.37,2.54,2.82,4.32,4.48,5.65l-.23.31c-.56.22-.18,2.04-.16,2.56-.28.51-.58,1.28-.92,2.32-.94,2.94-4.28,3.7-6.91,2.9-1.45-.44-3.14-1.14-5.09-2.09-.6-.6-1.31-1.17-2.14-1.69l-.37-.6c5.39-1.59,10.04-4.97,11.01-10.83.15.49.26.98.33,1.48Z" style="fill: #f39d77;"/>
  <path d="m175.69,55.13c-.41-3.8-3.25-7.17-6.41-9.14-1.4-.89-2.88-1.54-4.43-1.94-4.29-.67-8,.77-13.72,2.14-2.12.51-4.27.34-6.45-.5-.06-.02-.13,0-.15.06,0,0,0,.02,0,.02-.48,3.19-.03,7.9,2.55,10.26l.84.8,3.84,1.94c-.31.85-.47,1.72-.47,2.62,0,.98.64,1.76,1.05,2.65.03.05.01.12-.03.15-.01,0-.03.01-.04.01-1.83.02-3.64-.12-5.44-.41-.23-.04-.26-.14-.11-.31.58-.63,1.15-.86.73-1.87-1.31.71-1.89,2.13-3.4,2.17-.09,0-.17.06-.17.14-.07.65,1.24.64,1.74.68.09,0,.16.07.17.16.35,1.79.5,4.2,2.73,4.39.17-.23.17-.47,0-.71-.05-.07-.14-.11-.24-.14-1.11-.21-1.34-2.65-1.4-3.6,0-.04.01-.08.04-.08,0,0,0,0,0,0,1.85.28,3.71.45,5.58.51.11,0,.2.07.22.17l.67,3.16c.02.1.1.17.18.17,3.05.08,1.13-4.13,3.53-4.3,5.5-.39,4.42,5.35,7.99,6.17,2.96.67,6.44.69,8.28-2.33,1.69-3.95,2.81-8.75,2.34-13.07Z" style="fill: #1a142c;"/>
  <path d="m113.68,55.14c.07-.06.16-.1.26-.1.59-.01.87.16.84.54-4,3.42-7.94,6.91-11.81,10.46-9.96,9.15-20.2,18.02-30.26,27.08-1,.9-1.53,1.95-1.59,3.15-.16,3.05-1.99,35.62-1.9,35.66,0,0,0,0,0,0,.06.03.15-.03.2-.14.22-.49.78-1.84,1.49-1.17l36.39,19.89c.24.13.53.09.72-.09l10.18-9.62c.95-.2,1.93-.19,2.92,0-4.04,3.81-8.11,7.59-12.2,11.35-.49.45-.99.55-1.51.29-10.1-4.97-23.03-11.53-38.8-19.68-.09-.04-.15-.12-.17-.21-.17-.7-.22-1.38-.15-2.05l.66-12.87c.5-7.29.94-14.6,1.31-21.9.13-2.57,1.97-3.72,3.57-5.39l7.79-6.9,17.7-15.74,1.2-1.12,6.33-5.6,1.25-1.08,5.57-4.76Z" style="fill: #200115;"/>
  <path d="m114.66,60.17c-.41.83-.52,1.69-.34,2.57-.16.49-.19.96-.09,1.42l-.14,4.41c-.41.86-.47,1.74-.18,2.67-.19.14-.26.35-.21.62-.55,6.74-.99,13.48-1.32,20.23-.58,1.68-2.27,3.34-3.45,4.53-.04.04-.09.12-.14.24l-.09.18c-.19-.05-.33,0-.45.16-.49.7-1.27,1.53-2.34,2.49-11.04,9.95-18.93,17.03-23.69,21.23-1.62,1.43-4.19,3.92-6.45,5.72-1.87,1.02-3.49,2.35-4.85,3.99-.71-.67-1.27.69-1.49,1.17,0,0,0,0,0,0-.05.1-.14.16-.2.13-.09-.04,1.73-32.61,1.9-35.66.06-1.2.6-2.25,1.59-3.15,10.05-9.06,20.29-17.93,30.26-27.08,3.87-3.56,7.81-7.04,11.81-10.46.12,1.64.08,3.17-.12,4.59Zm-3.42,30.87c.33-2.47.47-5.62.61-7.46.64-8.33,1.22-16.66,1.75-24.99,0-.1-.03-.12-.11-.06-.95.67-1.86,1.38-2.72,2.15-1.64,1.44-3.33,2.72-4.98,4.25-3.06,2.85-8.01,7.01-11.97,10.66-6.05,5.58-12.26,10.97-18.65,16.17-.71.57-1.24,1.34-2.01,2.3-1.32,1.62-.79,3.91-1.11,5.89-.24,1.48-.41,2.96-.52,4.46,0,.09-.05.17-.13.24-.15.13-.23.24-.22.35.02,2.31.24,4.67-.3,5.61-.05.09-.07.18-.07.27.07,1.39.12,2.38-.13,3.9-.21,1.24-.01,2.73,0,3.64.01,2.8-.09,5.59-.32,8.37-.1,1.21.26,1.38,1.08.51,1.12-1.2,4.09-3.92,8.89-8.16,10.29-9.09,20.45-18.35,30.64-27.56.15-.14.25-.33.28-.53Z" style="fill: #b5b0b0;"/>
  <path d="m151.74,58.78c-.31.85-.47,1.72-.47,2.62,0,.98.64,1.76,1.05,2.65,0,.01.01.03.01.05,0,.06-.03.11-.09.11-1.83.02-3.64-.12-5.44-.41-.23-.04-.26-.14-.11-.31.58-.63,1.15-.86.73-1.87-.15-1.63.01-3.23.48-4.79l3.84,1.94Z" style="fill: #f9b58b;"/>
  <path d="m71.43,127.28c-.82.87-1.18.7-1.08-.51.23-2.79.33-5.58.32-8.37,0-.91-.2-2.4,0-3.64.25-1.52.2-2.52.13-3.9,0-.09.02-.18.07-.27.54-.94.32-3.3.3-5.61,0-.1.07-.22.22-.35.07-.06.12-.15.13-.24.11-1.49.28-2.98.52-4.46.32-1.98-.2-4.28,1.11-5.89.77-.96,1.3-1.73,2.01-2.3,6.39-5.19,12.61-10.58,18.65-16.17,3.95-3.65,8.9-7.81,11.97-10.66,1.65-1.53,3.34-2.81,4.98-4.25.87-.76,1.78-1.48,2.72-2.15.08-.06.12-.04.11.06-.53,8.33-1.11,16.67-1.75,24.99-.14,1.85-.28,5-.61,7.46-.03.2-.13.39-.28.53-10.19,9.21-20.34,18.47-30.64,27.56-4.81,4.24-7.77,6.97-8.89,8.16Zm34.5-61.77c-.78.63-2.18,1.85-4.2,3.66-8.13,7.26-16.2,14.58-24.43,21.72-1.94,1.68-1.74,1.99-1.69,4.55,0,.36.15.42.42.19,10.23-8.99,20.53-17.92,30.44-27.25.05-.05.08-.14.09-.26l.16-2.06s0-.09-.02-.14c-.14-.39-.23-.86-.77-.41Zm5.26,1.58c-.06-.7-.37-.84-.95-.42-1.3.96-1.89,2.28-1.77,3.95.05.6.33.73.84.39,1.39-.91,2.02-2.22,1.87-3.93Zm-5.04,3.02c-2.17,1.77-3.22,2.72-2.64,5.8,0,0,0,0,0,.01.02.07.09.11.16.09,2.92-.89,2.62-3.4,2.64-5.82,0-.15-.06-.18-.17-.08Zm1.88,12.79s0,.01,0,.02c0,.07.08.12.15.11,2.32-.32,1.98-1.84,2.22-3.59.28-2.07.45-4.28.52-6.62,0-.02,0-.05,0-.07-.04-.12-.17-.19-.3-.15-.83.24-1.5.7-2.03,1.36-.06.07-.09.16-.1.25-.15,1.59-.16,3.17-.03,4.75.11,1.32-.42,2.55-.42,3.94Zm-9.23-1.27l.09-4.96c0-.2-.07-.23-.22-.09-7.38,7.05-15.07,13.72-22.69,20.64-.3.27-.47.6-.5.99-.14,1.64-.16,3.29-.07,4.93,0,.18.08.2.22.05,1.93-2.05,3.95-4,6.06-5.86,5.08-4.48,10.14-8.98,15.18-13.5.32-.29.88-.84,1.67-1.64.16-.16.25-.35.25-.55Zm6.81-.71c.14-1.27.18-2.53.11-3.81,0-.15-.08-.19-.2-.09l-1.97,1.42c-.14.1-.23.23-.24.35l-.26,4.02c-.01.18.05.22.2.11l2.17-1.65c.1-.08.17-.2.18-.34Zm-.19,6.18c.18-1.34.2-2.69.07-4.05-.01-.14-.06-.17-.15-.09-.09.09-.16.2-.21.32-.03.09-.09.17-.16.24l-2.1,1.87s-.06.14-.08.3c-.2,1.22-.26,2.45-.19,3.68,0,.03,0,.05.02.07.04.1.13.14.21.1.76-.39,1.44-.89,2.04-1.49.32-.32.5-.64.54-.96Zm-20.56,13.83c.38-.6.83-1.13,1.34-1.6,3.89-3.57,7.85-7.06,11.88-10.48.22-.19.35-.43.36-.65l.17-4.63c0-.28-.09-.33-.3-.14l-22.8,20.6c-.09.08-.15.19-.16.29-.27,3.77-.41,7.55-.42,11.33,0,.09.06.18.14.21.04.01,2.92-2.68,4.07-3.7,6.19-5.55,12.39-11.14,18.58-16.76.32-.29.48-.65.49-1.08l.11-4.19c.01-.45-.14-.52-.47-.23-1.55,1.4-11.85,11.23-12.95,11.19-.1,0-.12-.05-.06-.14Zm25.3-15.6c0-.38-.16-.46-.47-.24-.25.18-.51.39-.76.64-4,4.02-8.31,7.96-12.32,11.7-6.34,5.93-12.72,11.82-19.13,17.68-.51.47-1.02.95-1.51,1.45-.08.08-.12.18-.09.26.07.22.02.39-.15.5-.07.04-.13.13-.17.24-.24.64-.93,2.47-.05,2.69.41.1.78.02,1.1-.25,1.15-.97,2.13-1.83,2.93-2.6,6.17-5.9,12.45-11.68,18.83-17.36,1.86-1.65,3.67-3.92,5.85-5.48.59-.42,1.8-1.56,3.62-3.4,2.16-2.19,2.37-2.61,2.32-5.82Z" style="fill: #fff;"/>
  <path d="m148.49,68.46c-.05-.07-.14-.11-.24-.14-1.11-.21-1.34-2.65-1.4-3.6,0,0,0-.01,0-.02,0-.04.02-.07.04-.07,1.85.28,3.71.45,5.58.51.11,0,.2.07.22.17l.67,3.16c.02.1.1.17.18.17,3.05.08,1.13-4.13,3.53-4.3,5.5-.39,4.42,5.35,7.99,6.17,2.96.67,6.44.69,8.28-2.33,4.38,6.71-7.21,13.55-11.56,16.41,0,0,0,0-.01,0-.07.04-.16,0-.19-.07l-2.18-4.29c-.12-.23-.36-.38-.6-.37-1.52.05-3.13.08-4.84.09-.93,0-1.54-.34-1.85-1.05-1.02-2.35-2.22-5.61-3.61-9.76.17-.23.17-.47,0-.71Z" style="fill: #f9b58b;"/>
  <rect x="154.09" y="63.65" width=".28" height="2.61" rx=".13" ry=".13" transform="translate(86.06 217.8) rotate(-88.8)" style="fill: #4f494b;"/>
  <path d="m106.73,66.67l-.16,2.06c0,.12-.04.21-.09.26-9.92,9.33-20.21,18.26-30.44,27.25-.27.24-.41.18-.42-.19-.05-2.56-.24-2.87,1.69-4.55,8.23-7.14,16.3-14.46,24.43-21.72,2.02-1.81,3.42-3.03,4.2-3.66.54-.44.63.02.77.41.02.05.02.09.02.14Z" style="fill: #ff6a47;"/>
  <path d="m108.49,70.63c-.13-1.68.46-3,1.77-3.95.57-.42.89-.28.95.42.15,1.71-.48,3.02-1.87,3.93-.52.34-.8.21-.84-.39Z" style="fill: #ff6a47;"/>
  <path d="m56.71,66.8l-.14,1.18c-.84,2.05-1.93,3.97-3.27,5.77-.46-1.39-.8-2.8-1.01-4.24,0-.04-.04-.1-.1-.18l-.07-.09.02-.15c1.42-.95,2.94-1.74,4.54-2.35l.02.07Z" style="fill: #fff;"/>
  <path d="m167.61,86.5c4.82-2.52,8.33-6.82,9.22-12.24.31-1.9.21-3.44-1.9-3.91-.22-.05-.22-.1,0-.16,4.16-1.11,7.93-.4,11.3,2.13,5.19,3.9,9.02,9.81,11.27,15.85,0,.01.01.02.02.03.04.05.1.06.13.02l1.95,8.13c-.08.07-.11.16-.1.25.58,3.63.76,7.28.54,10.95-.39,1.07-.73,2.15-1.03,3.25-1.11,4.09-3.17,7.76-6.16,11.02-4.92,5.36-11.41,8.45-17.52,2.3-1-1.01-2.17-2.53-3.52-4.55,1.06-1.72,1.89-3.56,2.49-5.51,1.57-3.05,2.1-6.37,1.62-9.94-1.17-8.56-10.24-10.05-16.32-5.63-.08.05-.11.04-.11-.06l.04-3.35c.48-5.59,3.6-6.21,8.09-8.55Z" style="fill: #488975;"/>
  <path d="m103.68,76.02c-.07.01-.14-.03-.15-.11-.58-3.08.47-4.03,2.64-5.8.12-.1.17-.07.17.08-.02,2.42.28,4.93-2.64,5.82,0,0,0,0-.01,0Z" style="fill: #ff6a47;"/>
  <path d="m108.49,74.21c0-.09.04-.18.1-.25.52-.66,1.2-1.12,2.03-1.36.02,0,.05-.01.07-.01.13,0,.24.11.23.24-.07,2.34-.24,4.54-.52,6.62-.23,1.75.1,3.27-2.22,3.59,0,0-.01,0-.02,0-.07,0-.13-.06-.13-.13,0-1.39.54-2.62.42-3.94-.14-1.58-.13-3.17.03-4.75Z" style="fill: #393b40;"/>
  <path d="m96.89,83.82c-5.04,4.52-10.11,9.02-15.18,13.5-2.11,1.86-4.13,3.82-6.06,5.86-.14.15-.21.13-.22-.05-.09-1.65-.06-3.29.07-4.93.03-.38.2-.71.5-.99,7.62-6.92,15.31-13.59,22.69-20.64.15-.14.22-.11.22.09l-.09,4.96c0,.19-.09.39-.25.55-.79.8-1.35,1.35-1.67,1.64Z" style="fill: #c9c2c4;"/>
  <path d="m103.27,82.92c-.14.11-.21.07-.2-.11l.26-4.02c0-.12.1-.25.24-.35l1.97-1.42c.13-.09.2-.06.2.09.06,1.27.03,2.54-.11,3.81-.02.14-.08.27-.18.34l-2.17,1.65Z" style="fill: #ff6a47;"/>
  <path d="m102.84,89.56s-.04.01-.06.01c-.09,0-.16-.09-.17-.19-.07-1.23,0-2.46.19-3.68.02-.16.06-.28.08-.3l2.1-1.87c.07-.07.13-.15.16-.24.05-.13.11-.24.21-.32.09-.08.14-.05.15.09.13,1.35.11,2.7-.07,4.05-.04.32-.22.64-.54.96-.6.6-1.29,1.1-2.04,1.49Z" style="fill: #ff6a47;"/>
  <path d="m98.35,90.12l-.11,4.19c0,.43-.17.79-.49,1.08-6.2,5.62-12.39,11.21-18.58,16.76-1.14,1.03-4.02,3.72-4.07,3.7-.09-.03-.14-.11-.14-.21.02-3.78.16-7.56.42-11.33,0-.1.06-.2.16-.29l22.8-20.6c.21-.19.31-.14.3.14l-.17,4.63c0,.22-.14.46-.36.65-4.03,3.42-7.99,6.91-11.88,10.48-.51.47-.96,1-1.34,1.6-.06.09-.04.14.06.14,1.1.04,11.4-9.79,12.95-11.19.32-.29.48-.21.47.23Z" style="fill: #c9c2c4;"/>
  <path d="m104.24,94.55c-2.18,1.55-3.99,3.82-5.85,5.48-6.38,5.68-12.66,11.46-18.83,17.36-.8.77-1.78,1.63-2.93,2.6-.33.27-.69.36-1.1.25-.88-.22-.19-2.05.05-2.69.04-.11.1-.19.17-.24.17-.11.22-.28.15-.5-.02-.08.01-.18.09-.26.49-.49,1-.98,1.51-1.45,6.41-5.86,12.79-11.75,19.13-17.68,4-3.75,8.32-7.69,12.32-11.7.25-.25.5-.46.76-.64.31-.21.47-.13.47.24.05,3.21-.16,3.63-2.32,5.82-1.82,1.84-3.03,2.97-3.62,3.4Z" style="fill: #393b40;"/>
  <path d="m158.12,86.93s.01,0,.02,0c.07,0,.13.05.13.12.03.65.06,1.04.08,1.16.57,2.92.97,5.21,1.18,6.85l-.04,3.35c0,.09.04.11.11.06,6.09-4.41,15.16-2.93,16.32,5.63.49,3.57-.05,6.89-1.62,9.94-4.55,6.6-11.95,11.91-18.16,16.22l-13.52,8.75c-7.14,2.52-13.81,2.22-21.48,1.78-1-.2-1.97-.2-2.92,0l-1.6-.31-.76-10.12c.85-.16,2.16-.52,3.93-1.07,3.56-1.1,7.13-2.2,10.69-3.3,2.03-.63,4.49-1.1,6.69-2.35,1.06-.38,1.93-.92,2.63-1.62,2.39-2.41,4.67-5.15,6.85-8.22l1.66-2.39c2.51-3.2,5.16-6.28,7.94-9.25.07-.07.05-.11-.05-.11-5.21-.37-10.4-.96-15.57-1.78l-.04-9.92c5.84-.98,11.68-2.12,17.53-3.4Z" style="fill: #63a998;"/>
  <path d="m22.82,89.61c-.6,3.18-1.3,6.34-2.1,9.48-1.68,2.18-3.05,4.39-4.11,6.62-1.99,4.19-2.78,8.64-2.36,13.33-3.37,6.28-4.04,12.86-2.01,19.74,1.09,3.7,2.85,7.06,5.28,10.08l-5.15,4.62c-.07.06-.16.07-.25.03-2.58-1.26-4.47-3.1-5.65-5.51-.51-1.04-1.01-2.89-1.51-5.55-1.45-7.7-2.86-15.42-4.24-23.13-.23-1.29-.43-2.59-.58-3.9-1.62-13.33,11.55-23.15,22.64-26.7l.04.89Z" style="fill: #c9be68;"/>
  <path d="m20.72,99.09c1.07,2.04,2.6,3.66,4.57,4.84,3.99,2.33,8.31,3.66,12.97,3.98.21.03.34.06.4.09,2.82,1.7,5.67,3.36,8.55,4.97,1.34-2.24,2.88-4.32,4.65-6.24-.71-.79-1.49-1.5-2.34-2.14l-3.34-2.78,2.5-1.62c.5-.53.82-1.15.96-1.86,1.38-6.94,2.97-13.82,4.78-20.66.07-.25.22-.46.42-.6l2.38-1.6,1.59-1.03c.25.9.62,1.8,1.08,2.69,1.25,3.93,3.34,6.37,6.87,8.79,2.29,1.57,4.65,3.04,7.08,4.41l7.79-6.9c-4.68-3.72-9.29-7.53-13.83-11.42-.69-9.06-1.62-18.1-2.79-27.11-.36-2.74-1.03-4.38-2.99-6.09-1.12,1.59-2.63,1.89-4.52.92-1.97-1.01-3.34-1.78-4.12-2.29l-.23.31c0,.12.01.23.02.32,0-.1-.01-.2-.02-.32-.56.22,2.13,15.96,2.13,15.96.57,3.96,1.05,7.93,1.42,11.92.04.37.03.73-.02,1.1l.02.07-.14,1.18c-.84,2.05-1.93,3.97-3.27,5.77-.46-1.39-.8-2.8-1.01-4.24,0-.04-.04-.1-.1-.18l-.07-.09.02-.15c-.07-.09-.1-.19-.09-.29.02-.12.02-.22,0-.27-2.74-6.61-5.75-13.09-9.04-19.45h0l-2.95-5.65c-.6-.6-1.31-1.17-2.14-1.69l-.37-.6c-1.11.26-1.8.47-2.07.63-3.11,1.94-6.02,4.14-8.73,6.61-1.7,1.56-1.83,5.08-2.22,7.25-.08,1.75-.28,3.49-.6,5.21l-.16,1.32c-.52,5.82-.87,10.97-1.05,15.47-.13,3.26-.12,6.95.03,11.09l.04.89c-.6,3.18-1.3,6.34-2.1,9.48Zm35.23-46.28h0c-.08-1.21-.19-2.41-.34-3.61.15,1.2.26,2.4.34,3.61Zm-13.26-3.06s-.02.07-.01.12c0-.04,0-.08.01-.12Zm.82,2.85c0,.25-.11.42-.28.54.17-.12.27-.29.28-.54Z" style="fill: #fdc668;"/>
  <path d="m109.3,97.84c-2.86,2.81-6.78,6.21-8.85,8.11-8.03,7.35-17.66,15.78-23.85,21.45-.46-.08-.73-.34-.82-.78,2.26-1.79,4.82-4.28,6.45-5.72,4.76-4.2,12.65-11.27,23.69-21.23,1.06-.96,1.84-1.79,2.34-2.49.12-.16.26-.21.45-.16.28.2.48.47.6.8Z" style="fill: #f5eae8;"/>
  <path d="m109.41,98.56c-10.45,9.08-20.81,18.71-31.29,27.98-.58.51-1.08.8-1.52.86,6.19-5.68,15.81-14.1,23.85-21.45,2.07-1.9,5.99-5.3,8.85-8.11,1.43-.14.34.52.11.72Z" style="fill: #4f494b;"/>
  <path d="m25.29,103.93c3.99,2.33,8.31,3.66,12.97,3.98-.13,3.59.35,7.36,1.44,11.33.79,2.91,1.78,5.39,2.95,7.45l-17.36,15.28c-3.11-4.43-5.78-8.93-8-13.49-1.4-2.87-2.41-6.02-3.04-9.45-.42-4.7.36-9.14,2.36-13.33,1.06-2.23,2.43-4.44,4.11-6.62,1.07,2.04,2.6,3.66,4.57,4.84Z" style="fill: #1c162e;"/>
  <path d="m59.09,112.48c2.32,1.7,4.89,2.63,7.59,3.61.86.31,1.62.82,2.29,1.53l-.66,12.87-.31-.25c-1.84-.71-3.1-1.4-3.78-2.04-2.8-2.65-5.48-4.76-7.75-8.13-.76-1.13-1.78-2.17-3.06-3.13l-6.19-3.96c1.34-2.24,2.88-4.32,4.65-6.24,2.34,2,4.75,3.92,7.24,5.74Z" style="fill: #f39d77;"/>
  <path d="m38.66,108.01c2.82,1.7,5.67,3.36,8.55,4.97l6.19,3.96-5.16,4.94-5.59,4.82c-1.17-2.06-2.16-4.54-2.95-7.45-1.08-3.97-1.56-7.75-1.44-11.33.21.03.34.06.4.09Z" style="fill: #200115;"/>
  <path d="m139.8,122.02c-.7.7-1.58,1.25-2.63,1.62,3.26-3.18,6.42-6.46,9.48-9.84-2.18,3.07-4.46,5.81-6.85,8.22Z" style="fill: #488975;"/>
  <path d="m171.81,119.56c-4.57,7.24-9.84,13.88-15.44,20.72l-.35-6.08c.18-1.27.22-2.59.12-3.94,6.2-4.31,13.61-9.62,18.16-16.22-.6,1.96-1.43,3.8-2.49,5.51Z" style="fill: #886e67;"/>
  <path d="m56.46,120.07c2.27,3.37,4.96,5.48,7.75,8.13.69.65,1.95,1.33,3.78,2.04-1.73,1.28-14.33-5.69-19.76-8.36l5.16-4.94c1.28.96,2.3,2,3.06,3.13Z" style="fill: #a9948f;"/>
  <path d="m124.82,118.88c.28-.33.61-.4.99-.21l8.36,4.17s.04.03.06.05c.09.09.08.24,0,.34l-2.03,2.02c-.07.07-.17.09-.26.04l-8.06-4.23c-.08-.04-.17-.03-.23.02-2.42,2.31-4.84,4.62-7.24,6.95-.99.96-2.32,1.86-3.41,2.89l-.91.1c4.27-3.91,8.95-7.75,12.74-12.12Z" style="fill: #a9948f;"/>
  <path d="m17.29,128.5c2.22,4.56,4.89,9.06,8,13.49l-7.77,6.88c-2.43-3.02-4.19-6.38-5.28-10.08-2.03-6.88-1.36-13.46,2.01-19.74.63,3.43,1.64,6.58,3.04,9.45Z" style="fill: #66501d;"/>
  <path d="m171.81,119.56c1.35,2.03,2.52,3.55,3.52,4.55,6.11,6.16,12.6,3.07,17.52-2.3,3-3.26,5.05-6.94,6.16-11.02.3-1.1.64-2.18,1.03-3.25-.03,5.82-.95,12.27-1.89,17.8l-4.58,28.89c-.49,2.76-.9,4.8-1.23,6.13-.38,1.52-1.81,2.14-2.97,3-1.18.52-2.39.94-3.65,1.25-5.43.84-10.68.37-15.73-1.41-6.69-2.35-10.86-8.07-12.54-14.77-.58-2.69-.94-5.41-1.08-8.16,5.6-6.84,10.87-13.48,15.44-20.72Z" style="fill: #63a998;"/>
  <path d="m156.38,140.28c.14,2.75.5,5.47,1.08,8.16-16.97,12.99-33.53,26.61-49.94,40.18,0,0,0,0,0,0-.22.19-.25.52-.06.74,2.3,2.7,4.43,5.17,6.38,7.41.3.35.75,1.53.94,2.16,3.71,12.34,7.42,24.68,11.14,37.02,0,0,0,.01,0,.02.02.12-.05.23-.17.25-2.77.51-5.56.74-8.37.69-1.25-.03-2.15-.65-2.69-1.88-.19-.63-.4-1.28-.62-1.94-5.11-15.6-10.15-31.22-15.11-46.87-.05-.17-.1-.33-.13-.5.06-.09.13-.17.21-.24,12.23-10.94,24.43-21.92,36.6-32.93l20.39-18.36.35,6.08Z"/>
  <path d="m82.6,142.41c-2.01.89-3.24,1.81-4.92,3.59-.06.07-.15.09-.23.06-1.52-.59-3.07-1.06-4.67-1.4-.29-.06-.32-.19-.11-.38.41-.38.7-.83.87-1.34,2.71-2.23,6.02-1.7,9.06-.53Z" style="fill: #9a8581;"/>
  <path d="m89.68,146.85c.05.76-.01,1.49-.2,2.18-.62,2.24-3.6,2.37-5.35,1.48-1.2-.61-2.82-1.52-4.85-2.72-2.42-1.43-5.11-2.27-8.07-2.51.42-1.22,1.19-1.99,2.33-2.34-.17.52-.46.96-.87,1.34-.21.19-.17.32.11.38,1.59.34,3.15.81,4.67,1.4.08.03.17,0,.23-.06,1.68-1.78,2.92-2.7,4.92-3.59,2.87.71,5.23,2.19,7.08,4.43Z" style="fill: #c9c2c4;"/>
  <path d="m79.29,147.78c2.03,1.2,3.64,2.11,4.85,2.72,1.74.89,4.72.76,5.35-1.48.19-.69.25-1.41.2-2.18,1.01,1.78.46,3.45-1.34,4.35-1.5.76-3.15.78-4.97.06-4.61-1.82-8.66-3.81-12.16-5.98,2.97.24,5.66,1.07,8.07,2.51Z" style="fill: #1e0c16;"/>
  <path d="m169.99,163.21c5.05,1.77,10.3,2.24,15.73,1.41,1.26-.31,2.48-.73,3.65-1.25-4.39,6.53-11.77,10.11-19.25,11.93-6.14,1.5-12.27,3.1-18.43,4.65l-7.6,1.85-19.66,4.9c-.14.04-.26.12-.34.25-.91,1.53-.24,3.59.12,5.2,1.54,6.75,3.1,13.5,4.69,20.25.27,1.78.67,3.53,1.2,5.27,1.11,5.14,2.29,10.26,3.54,15.37.06.25-.02.49-.24.72-.07.07-.09.16-.06.24.76,2.47,2.89,6.05-1.33,7.01-5.87,1.32-11.74,2.65-17.61,3.97-.94.21-1.85.31-2.76.31-3.41-.02-6.15-.21-8.23-.56-2.73-.47-4.13-4.94-1.18-5.99,1.99-.71,6.13-1.93,12.44-3.67.55,1.23,1.44,1.85,2.69,1.88,2.81.05,5.6-.17,8.37-.69,0,0,.01,0,.02,0,.12-.03.18-.16.15-.27-3.72-12.34-7.44-24.68-11.14-37.02-.19-.63-.64-1.82-.94-2.16-1.95-2.24-4.08-4.71-6.38-7.41,0,0,0,0,0,0-.18-.22-.15-.56.07-.74,16.41-13.57,32.96-27.19,49.94-40.18,1.67,6.7,5.85,12.42,12.54,14.77Z" style="fill: #101d36;"/>
  <path d="m197.01,158.98c-1.18,1.26-2.4,2.48-3.66,3.64-8.45,7.81-15.56,14.21-21.33,19.2-.77.67-1.87,1.41-3.31,2.23-4.31,1.55-8.63,2.67-12.79-.08-1.6-1.06-3-2.4-4.22-4.02,6.16-1.54,12.29-3.15,18.43-4.65,7.48-1.83,14.86-5.4,19.25-11.93,1.16-.86,2.59-1.48,2.97-3,.33-1.33.74-3.37,1.23-6.13,1.64,1.26,2.78,2.84,3.43,4.74Z" style="fill: #ad9d19;"/>
  <path d="m196.99,167.38c-.04.61-.29,1.12-.74,1.52-7.9,7.12-15.87,14.16-23.92,21.11-1.19,1.03-2.37,1.81-3.54,2.36-.27-.37-.4-.75-.38-1.12.09-2.39.19-4.79.29-7.2,1.44-.82,2.54-1.56,3.31-2.23,5.76-4.99,12.87-11.39,21.33-19.2,1.26-1.17,2.48-2.38,3.66-3.64.16,2.96.15,5.76-.02,8.4Z" style="fill: #c9be68;"/>
  <path d="m155.92,183.97c4.16,2.75,8.48,1.63,12.79.08-.1,2.4-.2,4.8-.29,7.2-.02.37.11.75.38,1.12-2.11.69-4.27,1.18-6.47,1.47-3.36-.01-6.24-1.16-8.66-3.44l-9.57-8.61,7.6-1.85c1.22,1.62,2.62,2.96,4.22,4.02Z" style="fill: #886e67;"/>
  <path d="m67.31,270.99c0,.09-.87.17-.79.21l6.13,3.22c1.73-1.15,3.29-2.48,4.68-4.01.06-.07-1.69-.15-1.69-.24l1.78-65.3.05-.15c.04-.11.09-.2.15-.25l20.91-18.66s.11-.06.19-.06h.11c.06-.09.13-.17.21-.24,12.23-10.94,24.43-21.92,36.6-32.93l20.39-18.36c.18-1.28.22-2.59.12-3.94l-13.52,8.75-8.12,7.59h0c-20.41,18.39-40.9,36.67-61.48,54.86-24.19-12.29-48.35-24.71-72.48-37.25-.06-.03-.13,0-.16.06,0,.02-.01.04-.01.06v6.31c0,.06.06.13.15.18l4.66,2.35c-.15,3.43-.17,6.8-.07,10.13l-.05,41.68c0,.09.05.18.13.22l1.84,1.07,3.09,1.47c.15.08.39-.04.73-.35.79-.75,1.57-1.51,2.35-2.29.06-.06.1-.15.09-.25l-.04-3.65-.04-29.13v-14.38c0-.34.09-.36.26-.06l2.28,1.22c.05-.02.17,0,.31.08l50.32,25.81.94,66.26Zm67.77-120.28c.05.27.1.54.15.77-.05-.24-.1-.5-.15-.77Z" style="fill: #1a142c;"/>
  <path d="m75.78,126.63c.09.44.37.7.82.78.44-.06.94-.35,1.52-.86,10.48-9.27,20.84-18.91,31.29-27.98.23-.2,1.32-.86-.11-.72-.12-.33-.32-.6-.6-.8l.09-.18c.06-.12.1-.2.14-.24,1.18-1.19,2.87-2.85,3.45-4.53l6.4,3.26c-.61,1.45-1.19,2.9-1.77,4.36l8.24,4.18c1.17-1.1,2.4-2.11,3.71-2.99l19.34,10.51-1.66,2.4c-3.06,3.38-6.21,6.66-9.48,9.84-2.2,1.25-4.66,1.72-6.69,2.35-3.56,1.1-7.12,2.2-10.69,3.3-1.77.55-3.07.9-3.93,1.07-1.01.49-1.97.68-2.86.54,1.09-1.03,2.42-1.93,3.41-2.89,2.4-2.33,4.82-4.64,7.24-6.95.06-.05.15-.06.23-.02l8.06,4.23c.08.04.19.03.26-.04l2.03-2.02s.04-.04.05-.06c.06-.12.02-.26-.1-.32l-8.36-4.17c-.37-.18-.7-.11-.99.21-3.1,3.58-6.8,6.81-10.39,10.01l-10.92,11.05c.98.09,2.09.17,3.33.24,3.27.2,6.53.3,9.78.3l1.6.31-10.18,9.62c-.19.18-.48.22-.72.09l-36.39-19.89c1.37-1.64,2.99-2.97,4.85-3.99Z" style="fill: #c9c2c4;"/>
  <polygon points="113.02 99.43 80.75 128.65 99.45 139.38 131.27 109.4 113.02 99.43" style="fill: #886e67;"/>
  <g>
    <path d="m115.77,130.44c-1.93.49-3.9.8-5.89.93-.55.04-1.14.07-1.57.42-.09.07-.18.16-.29.19-.1.02-.21-.01-.31-.05-.99-.38-1.7-1.23-2.4-2.01-1.03-1.14-2.13-2.28-3.36-3.19l-.11-.08c-.61-.42-6.78-1.87-7.92-1.87s2.79,2.57,3.94,3.12c-.02,0-.04,0-.06-.01-1.16-1.26-8.26-2.21-9.14-1.9-1.09.39-2.89,5.01.08,6.82.49.3,5.51,1.31,5.64,1.87-1.77-.65-2.22-.81-3.99-1.46-.53-.19-1.08-.39-1.65-.41-.57-.02-1.17.17-1.52.61-.2.26-.29.65-.07.89.11.11.26.17.41.22,1.8.61,2.26.83,3.99,1.63,1.82.84,3.61,1.77,5.49,2.45,6.18,2.22,12.96,1.51,19.51,1.93l-.75-10.1Z" style="fill: #f9b58b;"/>
    <path d="m101.8,126.63l.03.02s.03.02.05.03c-.03-.01-.05-.03-.07-.05Z" style="fill: #fcbc89;"/>
    <path d="m101.8,126.63l-.94-.64c.3.24.61.44.94.64Z" style="fill: #63a998;"/>
  </g>
  <path d="m125.25,98.5c.03-.26-.09-.53-.32-.67-.58-.37-1.21-.5-1.89-.37-.08.01-.18.08-.27.19l-.89,1.02c-.06.07-.08.16-.07.25l.04.23c-.89,1.1-1.24,2.35-1.06,3.75-.08.63-.02,1.29.2,1.97.05.15.11.15.18.01l.82-1.6,2.34-2.73c.51-.53.82-1.21.92-2.04Zm15.34,1.67c-2.92-.46-5.8-1.16-8.61-2.07-.08-.03-.18,0-.24.06-1.52,1.44-3.13,2.78-4.71,4.15-.85.74-1.82,1.34-2.6,2.15-1.04,1.07-1.31,2.6-2.37,3.68-.21.22-.42.65-.47.93-.31.02-.62.07-.93.07s-.65-.07-.88-.29c-.15-.15-.24-.36-.34-.56-.3-.58-1.08-.93-1.52-1.42-.52-.58-.9-1.26-1.06-2.03-.19-.93-.14-1.89-.16-2.83-.02-.89,0-1.83.37-2.66.59-1.35,1.09-2.73,1.67-4.08,1.36-2.29,6.11-3.97,8.63-4.01,4.38-.06,8.78-.4,13.18-1.01l.04,9.92Z" style="fill: #f9b58b;"/>
  <path d="m185.77,202.04c.34,1.96,2.21,3.27,4.17,2.92,1.96-.34,3.27-2.21,2.92-4.17-.11-.65-.41-1.22-.81-1.69-.66,1.25-2.22-.22-3.65.63l-2.66,1.43c-.02.29-.02.58.03.88Z" style="fill: #061c2e;"/>
  <path d="m134.63,194.6c-1.2.53-2.07,1.68-2.15,3.08-.11,1.98,1.4,3.68,3.39,3.8,1.27.07,2.59-1.01,3.29-1.97-1.93-1.23-4.23-2.12-4.52-4.91Z" style="fill: #061c2e;"/>
  <path d="m188.91,236.41c-.39-.32-1.12-.9-2.08-1.64-.92.65-1.53,1.72-1.53,2.94,0,1.99,1.61,3.6,3.6,3.6s3.6-1.61,3.6-3.6c0-.31-.05-.61-.13-.91-1.24.26-2.85.11-3.45-.39Z" style="fill: #061c2e;"/>
  <g>
    <path d="m145.34,251.06c-.41.52-.71,1.12-.82,1.82-.37,2.2,1.12,4.27,3.32,4.64,2.2.37,4.27-1.12,4.64-3.32.22-1.35-.05-2.24-.96-3.13h0c-.95,2.63-5.49,2.08-6.18,0Z" style="fill: #061c2e;"/>
    <path d="m193.38,232.17c-2.89-3.16-29.44-22.31-29.44-22.31,0,0-.04-.09,0-.13,0,0,.02-.01.03-.02l21.34-10.28,2.66-1.43c1.43-.85,2.99.63,3.65-.63.23-.43.35-1.18.32-2.45-.55-1.08-2.24-2.11-4.27-1.24-7.49,3.23-18.17,7.17-25.61,10.21-.11.04-.23,0-.28-.12,0-.02-.02-.05-.02-.08l.57-9.86c-3.36-.01-6.24-1.16-8.66-3.44l.07,12.54c0,.26-.09.3-.29.14-4.13-3.49-10.58-7.64-15.08-11.1-.83-.64-1.5-.66-2.11.09-.06.07-.62,1.13-.34,1.78s1.08,2.09,1.24,2.25l13.68,11.36c.07.06.06.1-.03.12l-21.89,4.82c.27,1.78.67,3.53,1.2,5.27l22.14-3.55s.12.03.13.1c0,.01,0,.04,0,.04l-6.6,34.16c-.08.43.02.81.19,1.14.91,1.74,4.6,1.86,5.05-.59l.15-.63,8.17-33.39s.11-.13.19-.1c.02,0,.05.03.05.03,0,0,26.8,17.99,29.27,19.42,3.87,2.24,5.68-.82,4.51-2.11Z" style="fill: #061c2e;"/>
  </g>
</svg>