<svg xmlns="http://www.w3.org/2000/svg" data-name="Layer 1" viewBox="0 0 62.36 62.91">
  <path d="M13.09 34.47v28.21a.2.2 0 0 1-.2.2L.2 62.91a.19.19 0 0 1-.19-.19V.2C0 .09.09 0 .2 0h12.69c.11 0 .19.09.19.19l.03 28.39c0 .13 0 .13.03 0C16.32 6.84 41.06-2.23 60.18.59c.88.13 1.55.21 2 .24.18.01.22.07.12.17-.05.05-.11.08-.2.09-9.59 1.19-18.7 5.47-25.07 12.85-6.57 7.61-8.87 17.92-5.36 27.34 4.23 11.33 15.12 18.77 26.62 21.17.28.06.28.1 0 .14-19.2 2.15-41.4-7.13-45.17-28.12-.02-.12-.03-.12-.03 0Z" style="fill:#ab9d1b"/>
</svg>