<svg xmlns="http://www.w3.org/2000/svg" data-name="Layer 1" viewBox="0 0 994.14 166.12">
  <path d="M330.37 57.82c9.65-48.65 56.05-64.9 100.28-55.09 27.08 6.01 46.54 27.87 52.11 54.62 7.13 34.21.79 74.12-30.21 95.09-16.81 11.37-41.49 13.31-61.35 10.75-53.55-6.92-70.12-58.53-60.83-105.37Zm44.75-16.55c-17.66 20.26-18.01 66.56 3.41 85.29 10.89 9.52 26.64 11.91 40.32 8.42 30.07-7.66 34.88-43.24 30.62-68.61-3.61-21.48-17.65-37.41-40.11-38.5-12.92-.62-25.52 3.4-34.24 13.4Zm312.38 7.86c7.54-24.63 29.14-43.14 54.31-47.39 14.07-2.38 29.17-2.19 43.58 1.01 27.48 6.11 47.22 28.59 52.54 55.78 8.3 42.37-5.27 93.64-53.54 103.7-17.37 3.63-34.25 3.25-50.66-1.13-25.74-6.86-43.84-30.18-48.83-55.6-3.62-18.42-2.92-38.33 2.6-56.37Zm85.79-19.83c-25.9-6.34-48.66 7.99-54.19 34.04-5.66 26.69-.68 64.97 31.83 72.37 26.35 5.99 47.74-9.29 52.95-34.99 5.19-25.56.64-63.78-30.59-71.42Zm88.49 29.35C856.3 30.92 873.7 9 900.23 3.13c35.63-7.89 86.67 1.35 88.49 47.21.02.4-.29.73-.68.75H988l-31.47-.03a.61.61 0 0 1-.59-.5c-1.55-9.6-6.21-16.11-13.96-19.54-12.68-5.6-46.81-6.55-49.15 13.51-1.6 13.65 13.62 16.89 23.4 19.07 21.15 4.73 34.79 7.84 40.92 9.35 6.17 1.52 12.29 4 18.38 7.43 24.38 13.74 23.34 47.66 5.38 65.43-20.23 20-57.45 20.65-83.13 13.99-23.16-6.01-39.67-22.87-39.74-47.67 0-.27.21-.49.48-.49l32.04.04c.29 0 .54.21.58.49 3.9 22.32 20.48 25.38 39.99 24.73 8.72-.28 20.28-2.52 25.97-9.06 4.98-5.73 5.51-15.37-.69-20.92-5.65-5.06-18.18-7.68-25.62-9.18-15.55-3.12-31.51-6-46.31-11.85-12.52-4.93-20.09-14.01-22.7-27.24Zm-315.75-8.97-.1 113.53c0 .28-.22.51-.5.51h-33.91c-.28 0-.5-.23-.5-.51l-.04-162.03c0-.17.14-.3.31-.3h38.34c.43 0 .83.21 1.06.58l69.61 111.35c.28.45.42.41.42-.12l.02-111.27c0-.28.23-.5.51-.5l33.67.1c.28 0 .5.22.5.5v161.69c0 .28-.22.5-.5.5l-36.33.04c-.3 0-.59-.15-.76-.42L546.3 49.6c-.18-.28-.27-.25-.27.08Zm-334.25 54.5-.04 61.61c0 .18-.14.32-.32.32h-36.39c-.17 0-.3-.13-.3-.3V1.68c0-.28.23-.5.51-.51 36.57-.18 61-.16 73.28.07 27.05.49 54.39 11.49 56.18 42.58 1.4 24.4-11.87 40.25-32.56 50.83-.3.16-.41.52-.26.82.01.02.02.04.04.06l48.76 70.16c.19.28.12.42-.23.42h-44.76c-.33 0-.64-.16-.81-.43L235 104.02a.809.809 0 0 0-.69-.38l-22.02.04c-.28 0-.51.22-.51.5Zm40.73-74.3c-12.8-3.77-27.26-2.93-40.52-2.71-.28 0-.5.23-.5.51l-.02 49.72c0 .28.22.5.5.52 15.46.86 43.59 3.09 51.68-14.09 5.81-12.34 4.01-29.48-11.14-33.95Z" style="fill:#696768"/>
  <path d="m33.66 90.43-.02 72.55c0 .28-.22.51-.5.51l-32.64.08c-.28 0-.5-.22-.5-.5V2.28c0-.28.23-.51.51-.51h32.64c.28-.01.5.22.5.5l.07 73.03c0 .33.02.33.07 0 8.18-55.95 71.83-79.27 121-72.01 2.27.33 3.98.54 5.15.62.47.03.57.18.3.45-.12.12-.29.2-.52.23-24.66 3.07-48.09 14.07-64.47 33.04-16.89 19.57-22.82 46.09-13.79 70.31 10.87 29.15 38.88 48.27 68.46 54.45.73.15.73.27 0 .35-49.38 5.53-106.49-18.33-116.18-72.32-.05-.31-.08-.31-.08 0Z" style="fill:#ac9d19"/>
</svg>