<?xml version="1.0" encoding="UTF-8"?>
<svg id="a" data-name="Layer 1" xmlns="http://www.w3.org/2000/svg" xmlns:xlink="http://www.w3.org/1999/xlink" viewBox="0 0 239.97 244.02">
  <defs>
    <linearGradient id="b" x1="50.18" y1="182.74" x2="116.56" y2="182.74" gradientUnits="userSpaceOnUse">
      <stop offset="0" stop-color="#db5f45"/>
      <stop offset=".41" stop-color="#d8424b"/>
      <stop offset="1" stop-color="#d8424b"/>
    </linearGradient>
  </defs>
  <path d="m170.07,45.06C143.08,22.17,126.09,1.67,99.13.09c-26.81-1.53-63.75,15.81-77.78,47.79-14.19,31.93-5.52,78.67,21.36,110.66,26.68,32.11,71.49,49.79,112.72,40.59,41.07-9.25,78.47-45.07,78.75-75.59.13-30.58-37.07-55.75-64.11-78.47Z" style="fill: #d9eee7;"/>
  <path d="m204.01,233.28c.12.48-.03.85-.45,1.11-1.6,1.01-2.38-.06-2.39-1.59-.05-5.52-1.01-43.33-1.13-48.13h2.52c.13,5.09,1.19,47.55,1.45,48.61Z" style="fill: #ad9d19;"/>
  <path d="m213.77,184.37s24.66,39.87,25.71,41.27c.93,1.25.59,3.3-1.46,3.39,0,0-22.74-37.19-22.77-37.22-.13-.11-.89-1.38-.96-1.48l-.31-.45-3.83-5.52c-.13-.19-.35-.3-.58-.3l4.21.02c-.08.07-.1.19-.03.28Z" style="fill: #ad9d19;"/>
  <path d="m178.86,182.77c2.45.49,16.53,1.25,23.14,1.03,3.93-.13,10.13-1.85,12.86-4.97,1.06-1.22,1.92-1.94,2.74-3.38.14-.24,12.18-48.28,12.65-48.97.61-.82,1.57-1.3,2.59-1.3,0,0,1.8,0,1.8,1.08,0,0-3.82,43.74-8.79,50.96s-8.2,9.08-16.84,9.63c-12.43.78-30.78-1.25-32.68-1.23-.15,0,.9-3.18,2.52-2.85Z" style="fill: #ad9d19;"/>
  <path d="m180.86,184.77c2.45.49,16.53,1.25,23.14,1.03,3.93-.13,10.13-1.85,12.86-4.97,1.06-1.22,1.92-1.94,2.74-3.38.14-.24,12.18-48.28,12.65-48.97.61-.82,1.37-2.22,2.39-2.22,0,0,.2.92.2,2,0,0-2.02,43.74-6.99,50.96-4.96,7.22-8.2,9.08-16.84,9.63-12.43.78-32.78-3.25-34.68-3.23-.15,0,2.9-1.18,4.52-.85Z" style="fill: #ad9d19;"/>
  <path d="m178.86,182.77c2.45.49,16.53,1.25,23.14,1.03,3.93-.13,10.13-1.85,12.86-4.97,1.06-1.22,1.92-1.94,2.74-3.38.14-.24,12.18-48.28,12.65-48.97.61-.82,1.57-1.3,2.59-1.3,0,0,1.8,0,1.8,1.08,0,0-3.82,43.74-8.79,50.96s-8.2,9.08-16.84,9.63c-12.43.78-30.78-1.25-32.68-1.23-.15,0,.9-3.18,2.52-2.85Z" style="fill: #c9be68;"/>
  <path d="m86.9,205.63c-.02-.1,0-.2.03-.29,1.5-3.2,2.89-6.45,4.17-9.76.86,3.93,3.83,6.37,4.64,6.79l-.68,6.59c-.09.05-.16.15-.19.26-.67,2.58-1.23,5.18-1.67,7.82-.57,3.38.26,5.35,2.92,7.44.7.55,1.12,1.41,1.27,2.59.01.12-.03.23-.12.28-.16.09-.33.09-.52.01-.44-.68-1.08-1.07-1.92-1.18-5.58-.73-11.01-5.26-13.12-10.61-.15-.36-.63-.74-1.46-1.14.33-1.58,4.46-6.67,6.65-8.81Z" style="fill: #f4b17b;"/>
  <g>
    <rect x="56.39" y="22.86" width="146.56" height="95.69" transform="translate(259.34 141.41) rotate(180)" style="fill: #fff;"/>
    <g>
      <g>
        <path d="m130.91,13.8c0,.08.07.15.15.15,25.11,0,50.23-.06,75.34.02.73,0,1.17.31,1.35.91.23.8.21,1.59-.06,2.36-.09.25-.3.43-.55.44l-2.2.09c-49-.05-97.99-.08-146.99-.03-.47,0-.93.01-1.4.03-1,.01-1.99-.02-2.99-.08-1.43-.09-1.35-.34-1.51-1.71-.19-1.65.97-2.03,2.4-2.03,24.78,0,49.58,0,74.39,0h0c.11,0,.2-.07.2-.16v-6.24c0-.38.09-.68.23-.77.56-.37,1.08-.34,1.54.08.05.05.09.16.1.31" style="fill: #00000e;"/>
        <path d="m57.94,17.75c49-.05,97.99-.02,146.99.03l-.09.22-.76.06c-.33.03-.59.27-.59.56l-.55,97.63c0,.1.05.2.13.26.17.15-.1,2.58-.13,2.79-2.14-.66-4-.28-6.25-.25-.41-.32-.16.59-.16.25,0-19.24-.46-68.72-.46-94.39,0-.07-.06-.13-.13-.13-9.34-.11-18.75-.16-28.13-.12-36.99.14-73.98.18-110.97.09l-.12-6.34c0-.08-.05-.17-.14-.22l-.21-.12.16-.29c.47-.02.93-.03,1.4-.03Z" style="fill: #e9e8e8;"/>
        <path d="m205.05,18.44c-.13,25.44-.28,73.72-.45,99.16l-1.31-.55c.03-.21-.05-.38-.22-.53-.08-.07-.13-.17-.13-.26l.55-97.63c0-.29.26-.54.59-.56l.76-.06c.11.11.2.26.2.43Z" style="fill: #cecece;"/>
        <path d="m56.6,18.19c.09.05.14.13.14.22l.12,6.34c-.04,1.17.11,2.32,0,3.43-.09.83-.47,4.12-.12,4.75.06.1.08.2.09.29.3,13.31,1.06,29.71.94,45.08-.02,2.06.02,4.13.11,6.21.52,12.06.64,18.98.69,31.05,0,1.12.3,1.81,1.35,2.16.12.04.2.12.21.22.07.59-.09,1.1-.48,1.54-.05.06-.16.05-.26,0-2.59-1.66-2.49-3.57-2.55-6.79-.15-8.96-.3-12.73-.47-21.69-.05-2.82.16-5.77.1-8.11-.29-11.96-.65-20.35-.75-35.85,0-.47.17-1.01.15-1.59-.08-2.1-.18-3.99-.29-5.67-.14-2.01,0-4.14-.06-6.22,0-.09.02-.19.07-.29.1-.22.14-.43.12-.64-.18-1.35-.21-2.62-.09-3.8.03-.28-.32-.79-.34-1.17-.13-3.05-.19-6.12-.2-9.2,0-.09.06-.18.15-.22.4-.16.79-.21,1.17-.15l.21.12Z" style="fill: #dcdbdc;"/>
        <path d="m122.78,38.06c0-.09.06-.16.14-.16l13.37.1c.1,0,.17.07.17.16.04,1.47-.03,2.94-.23,4.41-.57,30.53-1.08,52.51-1.52,65.95-.02.47.13.75.43.84l-12.3.02c-.47,0-.73-.2-.77-.62-.31-2.89-.12-6.35-.16-8.8s-.02-5.05.12-7.57c.1-1.82-.06-3.64-.09-5.48l.26-14.84.57-34.01Z" style="fill: #fdb951;"/>
        <ellipse cx="171.44" cy="48.36" rx="15.06" ry="15.21" transform="translate(-5.6 28.65) rotate(-9.4)" style="fill: #e9e8e8;"/>
        <path d="m148.77,50.76h0c.1,0,.17.07.17.14l-.42,21.12c-.16,4.37-.26,8.75-.28,13.12-.04,8.08-.39,16.16-.6,24.27l-12.49-.04c-.31-.08-.45-.33-.43-.74.44-11.84.94-31.19,1.52-58.07l12.53.21Z" style="fill: #63a998;"/>
        <path d="m161.44,67.17h0c.1,0,.17.07.17.16-.07,1.94-.1,3.14-.11,3.6-.13,12.87-.29,25.73-.49,38.58-4.44-.19-8.9-.22-13.37-.11.21-9.2.56-18.39.6-27.56.02-4.97.12-9.93.28-14.9l12.92.22Z" style="fill: #fdb951;"/>
        <path d="m85.58,67.75s0,0,0,0c0-.09.07-.15.14-.15l11.71.12c.1,0,.18.08.18.18l-.15,17.94c-.15,7.82-.19,15.68-.1,23.57l-11.48.36-.42-.24.1-41.78Z" style="fill: #63a998;"/>
        <path d="m109.28,86.02c.1,0,.17.07.17.16l-.08,18.61c-.21-.23-.39-.26-.55-.1-.05.06-.09.16-.09.28v4.49c-3.85.21-7.63.19-11.37-.05-.08-7.9-.05-15.76.1-23.57l11.81.19Z" style="fill: #fa9f41;"/>
        <path d="m121.94,86.92c-.17,1.52-.52,2.97-.49,4.49.03,2.06.05,4.12.06,6.17,0,.07-.03.15-.08.21l-.04.05s-.04.07-.04.11l.06,11.93-13.71.05c-.06.01-.11,0-.16,0-.08-.03-.13-.13-.12-.24l.41-4.82s-.03-.11-.09-.28c-.12-.36-.22-.72-.29-1.09-.02-.08-.07-.16-.14-.21-.28-.21-.34-1.15.03-1.08,0,0,0,0,0,0,.09.02.16-.01.18-.07.2-.97-.17-1.82-.14-2.66.08-2.37.1-4.74.05-7.1.01-1.77,0-3.53-.07-5.3-.03-.97.41-1.95.4-2.99-.02-3.66.05-7.32.22-10.97,4.52.43,9.36.14,13.94.21.1,0,.18-.07.19-.15l.09-1.07-.26,14.84Z" style="fill: #e9e8e8;"/>
      </g>
      <polygon points="204.49 119.5 59.64 119.47 59.91 117.71 204.6 117.6 204.49 119.5" style="fill: #dcdbdc;"/>
    </g>
  </g>
  <path d="m209.13,69.3l1.47.62c2.27,1.39,4.13,3.2,5.57,5.42,3.01,4.66,2.23,9.01,1.49,14.15-.27,1.86.14,3.59,1.22,5.18,3.88,5.71,5.87,12.54,2.45,19.04-.66,1.44-2.26-3.79-2.39-4.3-.64-2.55-1.82-4.82-3.54-6.83-.01-.01-.02-.02-.04-.03-.06-.02-.12,0-.15.06-.92,2.01-1.72,3.48-2.39,4.41-2.77,3.83-9.35,5.71-13.85,6.38-.8.12-1.41.47-1.94-.41-1.85-4.18-.31-7.48,2.04-11.03.34-.51.26-.66-.25-.42-1.78.81-3.57,3.99-4.55,5.51-.46.73-.91.72-1.35-.02-.71-1.2-1.18-2.47-1.42-3.81l-.16-1.87c-.18-1.9.25-3.85,1.28-5.85.73.89,1.35.85,2.25.18,3.48-2.61,6.63-6.95,8.13-10.58.52-1.26.17-1.96-1.05-2.1-3.65-.43-7.22-1.9-10.25-3.96-1.66-1.25-2.45-3.34-1.18-5.18,2.49-3.59,6.9-5.56,11.17-5.63,2.54-.04,5.02.32,7.44,1.07Z" style="fill: #1a142c;"/>
  <path d="m76.53,75.13c4.11,6.57-3.25,10.79-8.41,11.98-.1.02-.21-.03-.25-.12-.52-1.02-.55-2.86-2.35-2.03-2.1.97-1.13,5.04-.56,6.65.16.44.15.88-.01,1.32-1.18,3.15-2.65,6.25-4.43,9.3-2.79,4.7-6.76,8.79-12.24,10-2.23-2.55-.85-8.67.09-11.22.77-2.09,1.51-4.2,2.22-6.31.66-1.98.59-3.9.64-5.95.06-2.86.36-5.69.88-8.49,2.3-5.57,7.02-9.97,13.22-10.53,4.43-.26,8.83,1.61,11.19,5.4Z" style="fill: #1c162e;"/>
  <path d="m201.94,82.99c1.22.14,1.57.84,1.05,2.1-1.5,3.63-4.65,7.97-8.13,10.58-.9.67-1.52.71-2.25-.18-2.27-2.62-3.02-5.54-2.24-8.9.58-2.49,1.02-5.01,1.32-7.55,3.03,2.06,6.6,3.52,10.25,3.96Z" style="fill: #f4b17b;"/>
  <g>
    <path d="m77.72,78.69l-1.19-3.56c.8,1.28,1.16,2.46,1.19,3.56Z" style="fill: #ecc684;"/>
    <path d="m64.95,92.93c.16-.44.17-.88.01-1.32-.57-1.61-1.54-5.68.56-6.65,1.8-.83,1.83,1.01,2.35,2.03.05.09.15.14.25.12,4.16-.96,9.74-3.88,9.6-8.42l.28.83c.07.06.12.15.14.24.07.42.17.83.29,1.23.06.2.09.31.09.32l-.41,5.44c0,.12.04.23.12.27.05.02.1.02.16.01l.09.32-.09.03.09,3.13-2.06-.02c-.22,3.08-1.12,5.92-2.7,8.52-.42.69-1.69.99-2.61.89-1.23-.12-2.34.16-3.31.85-.41,1.2-.89,2.15-1.43,2.84l-.27.71-5.57-2.08c1.77-3.05,3.25-6.15,4.43-9.3Z" style="fill: #f4b17b;"/>
  </g>
  <path d="m139.37,97.85c-.31-.54.24-.58.52-.38,1.33.93,2.63,1.89,3.91,2.89.09.07.21.11.32.1,1.02-.07,2.62-.63,3.44.61l.61,1.93c-.71,1.58-1.95,2.35-3.7,2.3l-1.84-2.12-1.21-2.05c-.74-1.1-1.43-2.19-2.06-3.27Z" style="fill: #f4b17b;"/>
  <path d="m66.1,104.31c3.13,1.84,4.89,5.07,5.97,8.42-.25.11-.53.01-.84-.29-1.77-1.71-4.45-1.91-6.47-.41-7.36,5.5-4.86,16.35-1.58,23.24.05.1.13.18.23.22.85.36,1.7.44,2.54.26l4.43,13.13c.27,1.98.92,3.83,1.95,5.55.1.16.16.54.2,1.12.08.35-.11.57-.45.64-3.6.8-7.61,1.15-10.87,1.79-3.65.71-7.33,1.37-11.03,1.98-1.01-2.65-1.89-5.34-2.63-8.07-.4-1.47-1.11-3.18-1.48-4.84.39-5.02.6-10.04.61-15.07,0-3.22.06-5.56.15-7.02.27-4.27.75-8.51,1.45-12.72,5.48-1.22,9.45-5.3,12.24-10l5.57,2.08Z" style="fill: #fff;"/>
  <path d="m198.97,113.39c4.5-.68,11.08-2.55,13.85-6.38.67-.93,1.47-2.4,2.39-4.41,0-.02.02-.03.03-.04.05-.04.12-.03.15.01,1.72,2.01,2.91,4.28,3.54,6.83.13.51,1.73,5.75,2.39,4.3.03.22.14.3.35.26-.95,1.18-1.28,2.48-.97,3.89-.47.69-.71,1.17-.73,1.44-.55,8.47-1.04,18.67-1.9,25.47-.33,2.58-.52,4.59-.59,6.04,0,.11.06.21.15.25l.28,1.33c0,.1-.09.18-.21.2-8.25,1.27-16.29.48-24.11-2.37l1.21-10.45c3.4-1.41,4.26-2.49,6.03-5.84,1.41-2.67,2.81-5.35,4.19-8.05.05-.1.04-.21-.03-.29-3.07-3.64-7.41-6.52-12.17-7.06,1.18-2.01,2.58-3.86,4.19-5.54.53.88,1.14.53,1.94.41Z" style="fill: #fff;"/>
  <path d="m163.52,97.46s0,0,0,.01l.46,3.61.68,2.29c.78,1.95,2.57,3.24,4.05,4.59.59.54.8,1.28.82,2,1.51.89,2.88,1.81,4.33,2.22-.2-.78-.4-1.55-.6-2.35-.4-1.55.29-2.31.71-3.68.46-.83.58-1.71.34-2.65-.13-.34-.35-.56-.67-.66-.11-.04-.24-.01-.35.07-.31.21-.57.47-.77.8-.06.1-.18.14-.31.12-1.02-.21-1.3-1.41-1.57-2.5-.29-1.1-1.54-5.54-2.91-3.68-.07.09-.09.2-.08.32.04.31.41,2.62.25,2.65-.06.01-.12-.03-.16-.1-.53-1.12-1.18-2.17-1.94-3.16-.08-.1-.19-.17-.28-.17-.88,0-.48,1.08-.98.96-.09-.02-.16-.13-.16-.26,0-.48-.24-.7-.7-.68-.09,0-.16.1-.16.22Zm9.77,8.65s.02,0,.03,0c0,0,.02.01.03.02-.02-.01-.04-.02-.06-.02Zm-.08,0s.02-.01.04-.02c-.01,0-.03,0-.04.02Z" style="fill: #f4b17b;"/>
  <path d="m63.41,135.5c-.1-.04-.18-.12-.23-.22-3.29-6.89-5.79-17.74,1.58-23.24,2.02-1.5,4.7-1.3,6.47.41.31.3.59.4.84.29,2.3,5.66,3.36,11.61,4.97,17.46.03.11,0,.22-.09.27l-2.84,1.63-8.14,3.66c-.85.19-1.7.1-2.54-.26Z" style="fill: #fff;"/>
  <path d="m139.32,211.77l4.97-23.04c1.14-5.06,2.28-10.12,3.43-15.19.72-3.18,1.39-5.42,2.02-6.7,2.82-5.79,8.5-9.06,14.76-10.19,6.86-1.23,15.04-2.62,24.56-4.15,1.75-.28,3.27-1.04,4.56-2.29,7.83,2.85,15.87,3.64,24.11,2.37.12-.02.21-.1.21-.2.86,3.76,1.73,7.52,2.59,11.27.33,1.42.78,2.82,1.01,4.26.32,1.96.22,3.97.07,5.94-.14,1.84-.3,3.75-1.12,5.44-.77,1.56-1.96,2.47-3.48,3.22-1,.49-7.43,1.55-7.43,1.55l-6.84-.04c-.11,0-2.83-.01-2.98-.01l-21.68-.46c-.09,0-.18.07-.2.18-1.34,5.56-2.63,11.11-3.85,16.67-.33,1.52-1.99,12.73-1.99,12.73-.9,5.53-1.84,11.06-2.82,16.59-.13.74-.48,1.34-1.04,1.82.42-2.34.7-4.69.84-7.05,0-.11-.05-.21-.14-.26-3.03-1.64-6.12-3.1-9.28-4.39l-1.89-.59c-.28-.09-.47-.33-.46-.6l.2-6.92c.17-5.54.35-11.07.54-16.61,0-.15-.15-.24-.19-.08-1.66,6.66-3.1,12.14-4.32,16.44l-1.98,6.56c-.11.36-.44.62-.82.62-.64,0-1.36-.17-2.17-.51-2.21-1.22-4.49-2.28-6.84-3.19l-2.28-.73c-.24-.08-.39-.29-.36-.51l.29-1.95Z" style="fill: #00000e;"/>
  <path d="m41.8,133.09c1.33,4.67,2.75,9.32,4.27,13.96.37,1.66,1.07,3.37,1.48,4.84.75,2.73,1.62,5.42,2.63,8.07,2.09,6.67,4.1,12.33,10.59,15.6,2.9,1.46,6.41,2.46,10.54,3,7.75,1.02,15.49,2.04,23.24,3.05,2.49.32,4.95,1.24,4.86,4.19-4.11-.34-8.19-.76-12.23-1.28-2.68-.34-7.48-.34-11.28-.81-3.72-.46-7.76-.5-10.99-.91-8.57-1.1-16-5.5-18.82-13.94-.19-.56-.73-2.83-1.64-6.82-1.35-5.93-2.12-9.58-2.33-10.94-.47-3.01-.92-5.24-1.36-6.69-.23-.77-.51-2.09-.84-3.96-.79-4.53-1.83-8.33-3.11-11.38-.6-1.42-1.77-2.24-3.51-2.44-.11-.01-.2-.08-.23-.19l-.13-.37c5.56-1.08,7.56,2.43,8.87,7.02Z" style="fill: #c9be68;"/>
  <path d="m94.01,212.08c.06.15.09.31.09.49-.03-.16-.06-.33-.09-.49Z" style="fill: #00000e;"/>
  <path d="m27.64,233.82c4.27-6.06,8.52-12.14,12.74-18.23l19.72-28.09c.07-.1.04-.15-.08-.15-12.8-.7-21.24-6.66-23.24-19.58-1.77-13.2-3.55-26.39-5.33-39.59-.17-1.26.12-2,1.47-2.1l.13.37c.04.1.13.17.23.19,1.74.21,2.91,1.02,3.51,2.44,1.28,3.06,2.32,6.85,3.11,11.38.33,1.87.61,3.19.84,3.96.44,1.45.89,3.68,1.36,6.69.21,1.36.99,5,2.33,10.94.9,3.99,1.45,6.26,1.64,6.82,2.82,8.43,10.25,12.84,18.82,13.94,3.22.41,7.26.45,10.99.91,3.79.47,8.6.46,11.28.81,4.04.52,8.12.94,12.23,1.28-1.74,1.72-4.75,1.44-7.06,1.45-.02,0-.04,0-.06,0-.18.03-.29.2-.26.37l1.27,6.78,1.84,10.3,1.24,6.95c1.29,7.4,2.6,14.8,3.93,22.19.24,1.32,1.32,3.52-1.4,3.14-.49-.07-.75-.34-.8-.83-.17-1.64-.41-3.32-.72-5.04-1.11-6.14-2.21-12.32-3.3-18.54,0-.18-.02-.34-.09-.49-.03-.2-2.09-11.13-3.06-15.56l-1.57-8.92c-.02-.09-.1-.16-.19-.17l-22.29.05c-.19,0-.34.12-.34.28,0,0-.13,11.32-.13,11.38l-.31,14.07c-.15,9.46-.62,16.06-.28,23.95,0,.16-.02.3-.08.37-.96.99-1.85.93-2.65-.17-.07-.09-.09-.22-.08-.37.09-.9.27-1.8.28-2.69.11-6.91.22-13.83.32-20.74,0,0,.26-16.46.26-16.78.05-.02.08-.05.08-.09l.12-9.04c0-.44-.12-.47-.39-.09,0,0-4.74,6.79-4.74,6.8-.04.1-14.46,20.52-14.46,20.52-4.9,6.89-9.8,13.77-14.71,20.65-1.07,1.49-3.27-.12-2.15-1.72Z" style="fill: #ad9d19;"/>
  <path d="m132.72,130.9c-2.39.33-20.41,1.92-27.92,2.79-4.06,2.95-4.44,3.42-6.41,4.56-1.42.82-3.44,1.83-6.07,3.03,0,0-4.72-.41-4.52,1.93l6.67.05c.09-.15.19-.26.29-.34-.1.08-.19.19-.29.34,6.73.17,13.46.21,20.18.12,6.23-3.96,12.31-7.99,18.24-12.07.52-.36.47-.49-.16-.41Z" style="fill: #b6b6b5;"/>
  <path d="m77.68,145.91c.02.12.08.23.16.3.73.67,1.8.45,2.51.62,6.9,1.69,12.5,3.2,16.8,4.54,1.79.56,3.78,1.31,5.43.66,3.05-1.19,6.21-1.97,9.48-2.32.12-.01.22.05.24.14.09.49-2.75,2.01-3.23,2.26-.25.13-.21.23.12.3l2.66.57c.1.02.18.11.2.22.07.39-5.61-.55-5.46.54.01.11.1.19.2.21l4.42.62c.12.02.2.1.21.2.02.65-4.6.19-5.2.16-.12,0-.23.04-.3.12-.72.88,3.33,1.14,3.72,1.19.13.02.24.07.3.14.36.46-2.09.19-2.21.17-7.19-.79-14.02.12-21.51-.59-5.5-.52-13.15-.74-15.38-6.87-.12-.33-.27-.4-.46-.19l-4.43-13.13,8.14-3.66c1.46,4.54,2.65,9.15,3.58,13.82Z" style="fill: #f4b17b;"/>
  <rect x="148.03" y="140.31" width="17.38" height="2.43" rx="1.2" ry="1.2" style="fill: #080e1f;"/>
  <path d="m90.06,147.37c-3.41-.05-5.19.05-7.48-1.97-.55-.49-.54-1.01.04-1.57.38-.37.83-.58,1.35-.63,1.24-.13,2.51-.13,3.81,0l6.67.05c6.73.17,13.46.21,20.18.12,11.81.15,23.62.06,35.43.24,8.05.12,16.1.18,24.15.17,2.1.11,6.42-.35,8.15.45,1.6,1.43,1.33,3.88-1.13,3.88-16.9-.05-33.81-.17-50.73-.34h-8.14c-10.76-.11-21.53-.24-32.3-.4Z" style="fill: #c9be68;"/>
  <path d="m130.51,147.77c.15,17.04-.19,29.84.1,43.75l-.08,19.88v19.22c.01.18.16.32.34.32h2.19c.22.45.51.65.88.62,3.31-.25,5.61-1.08,8.68-2.91,1.82-1.09,3.69-2.09,5.62-3,.68.63,1.16,1.39,1.42,2.3.03.1.02.2-.01.3-.9,2.25-1.5,4.57-1.79,6.97-.01.1.01.22.06.33,2.16,4.54-1.68,3.78-4.45,3.79-13.24.03-26.49.02-39.73-.03-.63,0-.94-.32-.94-.95,0-1.79-.02-3.57-.08-5.35-.05-1.42.34-2.16,1.84-2.16,5.87-.02,11.74-.03,17.61-.01,0,0,0,0,0,0,.09,0,.17-.08.17-.17v-19.31s-.01-18.34-.01-18.34l.02-45.26h8.14Zm13.97,88.26c.19-1.28.22-2.57.07-3.86-.02-.15-.09-.17-.21-.06-1.05.92-1.9,2-2.57,3.23-.04.07-.02.18.05.29.5.84,1.24,1.12,2.24.86.22-.06.39-.24.42-.47Z" style="fill: #101d36;"/>
  <path d="m72.62,155.79c.04.11.11.18.18.19,1.66.15,3.82.6,6.47,1.34,15.07,4.22,24.37,6.94,27.91,8.15,3.97,1.36,8.63,4.58,9.32,8.96.15.95.04,2.34-.31,4.17-.92,4.76-1.9,9.52-2.93,14.26l-3.65,16.83s0,.01,0,.02c-.05.16-.21.25-.37.2-3.88-1.07-7.76-2.44-11.71-3.46-1-.26-1.75-.86-2.24-1.8l1.5-8.81c.05-.29-.11-.57-.38-.64l-3.1-.81-1.27-6.78s0-.04,0-.06c0-.18.14-.32.32-.32,2.31,0,5.32.27,7.06-1.45.09-2.95-2.37-3.86-4.86-4.19-7.75-1.01-15.49-2.03-23.24-3.05-4.13-.55-7.64-1.55-10.54-3-6.48-3.27-8.5-8.93-10.59-15.6,3.7-.61,7.38-1.27,11.03-1.98,3.26-.64,7.27-.99,10.87-1.79.34-.07.54-.29.45-.64l.09.24Z" style="fill: url(#b);"/>
  <path d="m157.8,195.03c.04-.16.2-.06.19.08-.2,5.53-.38,11.07-.54,16.61l-3.97-.25c1.22-4.3,2.66-9.78,4.32-16.44Z" style="fill: #f3ece1;"/>
  <path d="m95.14,204.7l-1.84-10.3,3.1.81c.26.07.43.35.38.64l-1.5,8.81c-.03-.17-.07-.16-.13.04Z" style="fill: #f4b17b;"/>
  <path d="m162.67,130.18c-6.62-8.02-12.85-16.22-18.19-24.9,1.75.05,2.99-.71,3.7-2.3l.42.45c.53,1.09,1.28,2.11,2.26,3.08,6.21,6.16,12.35,12.36,18.42,18.6.15.15.22.12.22-.1l-.08-3.07c.36,1.07.41,2.15.18,3.25l15.47,7.22-13.11,8.67c-3.01-3.45-5.98-6.92-8.87-10.42l-.41-.48h0Z" style="fill: #c3c3c3;"/>
  <path d="m148.51,218.14c.15.23.17.41.07.54-.01.01-.02.03-.03.05-.05.09-.03.19.03.21l.46.15c.1.03.18.13.24.26.4.94,1.12,1.99.95,3.02-.22,1.34-.88,2.44-1.98,3.29-1.92.91-3.79,1.92-5.62,3-3.07,1.83-5.37,2.67-8.68,2.91-.37.03-.67-.18-.88-.61,1-1.36,2.08-2.66,3.24-3.89,1.32-1.4,1.85-2.72,2.41-4.44.38-1.19,1.01-2.35,1.36-3.62.27-1.02.64-1.83.99-2.76.04-.1.1-.19.2-.27.29-.26.43-.6.4-1.02,2.35.91,4.64,1.97,6.84,3.19Z" style="fill: #f4b17b;"/>
  <path d="m94.2,230.89c-2.23.16-4.25-.42-6.07-1.74-.87-.64-1.12-1.71-1.59-2.65-1.24-2.45-4.09-3.86-6.7-4.34-.63-.11-1.06.1-1.3.64-.88,1.97-1.64,3.98-2.3,6.03-.05.15-.19.25-.34.24-.77-.07-1.49-.27-2.18-.6-.17-.08-.26-.28-.21-.47,1.04-3.78,2-7.57,2.88-11.38.5-2.16,1.8-2.87,3.9-2.13.83.4,1.32.78,1.46,1.14,2.11,5.36,7.53,9.89,13.12,10.61.84.11,1.48.5,1.92,1.18,1.13,2.34-.56,3.3-2.58,3.45Z" style="fill: #66501d;"/>
  <path d="m107.4,208.09l-.49.48c-.08.07-.12.18-.12.3,0,2.66.11,5.33.33,7.99.29,3.41,1.58,5.12,4.69,6.48.81.36,1.44,1.09,1.87,2.19.04.11.02.23-.05.3-.13.12-.3.17-.5.14-.6-.54-1.32-.77-2.15-.66-5.59.69-11.97-2.35-15.35-7.01-.23-.32-.8-.56-1.7-.74-.08-1.84.49-3.44,1.72-4.8.09-.1.14-.22.12-.31-.03-.12-.11-.21-.24-.26.8-2.06,1.88-3.96,3.24-5.7,2.88.41,5.76.94,8.64,1.6Z" style="fill: #f4b17b;"/>
  <path d="m111.49,229.95c-2.12.71-4.22.66-6.31-.17-1-.4-1.51-1.38-2.2-2.17-1.82-2.07-4.92-2.72-7.57-2.53-.64.05-1.01.36-1.1.95-.36,2.13-.6,4.26-.72,6.42,0,.16-.12.29-.27.31-.76.13-1.51.11-2.26-.04-.19-.04-.32-.21-.32-.4.06-3.92.05-7.83-.05-11.73-.06-2.22,1.03-3.23,3.25-3.03.9.18,1.47.42,1.7.74,3.38,4.66,9.76,7.7,15.35,7.01.84-.1,1.55.12,2.15.66,1.68,1.98.28,3.33-1.64,3.98Z" style="fill: #66501d;"/>
  <path d="m168.88,224.22c.09.05.15.15.14.26-.14,2.36-.42,4.71-.84,7.05.68.1.99.48.92,1.15-2.88,1.58-5.73,3.18-8.57,4.79-3.49,1.99-5.95,2.83-9.72,2.8.51-1.09,1.27-2.02,2.3-2.8,1.83-1.38,3.95-2.49,4.74-4.72.56-1.58.9-3.29,1.02-5.15.17-2.56.41-5.15.71-7.77,3.16,1.28,6.25,2.74,9.28,4.39Z" style="fill: #f4b17b;"/>
  <g>
    <path d="m28.43,33.53c0,.1.04.2.1.3.56.89.49,1.69-.21,2.4-.07.07-.11.17-.12.27-.12,2.74-.23,6.42-3.35,7.68-1.18.48-2.94.27-4.3.24-.09,0-.17.04-.22.12-1,1.81-1.71,3.74-2.14,5.77-.09.4.02.75.3,1.04.9.89,1.82,1.93,2.02,3.17.21,1.38-.49,2.14-2.12,2.26-.1,0-.2-.03-.28-.11-2.46-2.37-4.68-4.97-6.65-7.8,2.36-1.78,4.4-4.13,6.12-7.06,1.28-2.18,1.67-3.94.68-6.33-.67-1.63-1.89-3.36-1.05-5.19.91-1.97,2.61-.66,3.14.65,0,0,0,.02.01.02.09.19.32.27.51.18,2.58-1.22,4.84-2.89,6.79-5.01.36,2.47.62,4.94.76,7.41Z" style="fill: #f4b17b;"/>
    <path d="m37.41,79.02c1.53-.9,3.3-1.35,4.71-2.37,2.82-2.03,4.35-3.02,7.29-2.62,1.25.17.59.84.06,1.16-.82.49-2.61,1.43-1.06,2.51.43.3.89.5,1.38.61.78.16,1.51.45,2.19.87.55.33.49.59-.15.78-3.11.91-6.26,2.04-9.43.82-.46-.18-.88-.11-1.28.19l-11.84,9.1c-.86-1.93-1.03-3.82-.53-5.66.15-.56.58-.94,1.27-1.15,2.47-1.39,4.94-2.8,7.4-4.24Z" style="fill: #f4b17b;"/>
    <path d="m7.72,97.01c1.1,7.7,3.7,14.66,6.01,22.02.19.61.27,1.24.25,1.89-.12,3.69-.45,8.11.39,11.7.03.11.11.19.2.18.34-.03.34-2.59.32-3.14l.22-1.19c.04-.2.05-.2.04,0-.11,1.64.04,4.28.98,5.86.06.09.08.09.06-.02-.24-1.67-.31-3.34-.23-5.03,0-.11.02-.11.04,0,.31,1.86.46,3.73.46,5.61,0,.28.16.79.5.69.09-.02.15-.11.16-.22.27-2.66.46-4.32.55-4.97.02-.18.19-.05.21.06.24,1.8.47,3.6.7,5.41.01.11.06.21.13.27.76.68,1.16-2.51,1.3-2.93.5-1.54,1.51-2.04.92-3.99-.65-2.85-1.63-5.66-2.08-8.42-1.18-7.25-2.13-14.54-2.87-21.85-.15-.33-.14-.65.01-.95h.79c1.71,0,3.51-.01,5.39-.02,1.81-.01,3.26-.49,4.94-1,3.69,5.86,3.07,16.03,2.25,22.59-.78,6.29-1.57,12.58-2.35,18.86l-9.57,65.08c-.42,2.13-.79,4.26-1.09,6.41-.1.71-.2,1.33-.31,1.85-.72.77-7.03.5-9.02.48-1.48-.01-2.83-.49-4.05-1.42-.51-1.42-.58-2.9-.21-4.43,1.3-14.24,2.62-28.49,3.95-42.73.22-2.43-.12-4.56-.45-6.92-1.81-12.78-3.47-25.57-4.98-38.38-1.16-7.86.69-15.85,6.31-21.51l.15.17Z" style="fill: #00000e;"/>
    <g>
      <path d="m15.66,97.75c-.18-2.06-.39-4.12-.63-6.18-.01-.09-.08-.16-.16-.16l-7.86.04-.11,3.52s-4.63-23.28-5.57-31.99C0,50.71,11.46,48.86,11.46,48.86l7.26,8.19c-.15.03-.26.18-.23.33,0,.01,0,.02,0,.03.44,1.29.81,2.56,1.13,3.84l.76,3.47c.66,3.9.73,7.86,0,12.23-1.17,7.01-2.38,14.03-3.62,21.05h-.79s0,0,0,0c-.21.03-.32-.05-.34-.23Z" style="fill: #63a998;"/>
      <path d="m19.64,61.24c.3,1.16.56,2.31.76,3.47l-.76-3.47Z" style="fill: none;"/>
      <path d="m18.51,57.41s0-.02,0-.03c-.03-.15.07-.3.23-.33l.91,4.19c-.33-1.27-.7-2.54-1.13-3.84Z" style="fill: #ff6a47;"/>
      <path d="m20.41,76.95c.73-4.37.66-8.34,0-12.23-.2-1.16-.46-2.31-.76-3.47l-.91-4.19c.65-.13,1.22-.42,1.72-.85.02-.02.04-.03.07-.04.1-.03.22.03.25.14.83,2.58,1.79,5.12,2.87,7.6,1.72,3.93,4.57,8.43,6.42,12.13,1.17,2.33,1.15,4.74-.06,7.22-.69.21-1.11.59-1.27,1.15-.51,1.84-.33,3.73.53,5.66-.05,2.93.3,4.93-2.15,6.9-1.68.51-3.13.99-4.94,1-1.88.01-3.68.02-5.39.03,1.25-7.02,2.46-14.03,3.62-21.05Z" style="fill: #488975;"/>
      <path d="m7.01,91.45l8.02.12c.24,2.05.45,4.11.63,6.18.02.18.13.26.34.23,0,0,0,0,0,0-.15.3-.15.61-.01.94.73,7.31,1.69,14.6,2.87,21.85.45,2.76,1.43,5.57,2.08,8.42.6,1.95-.42,2.46-.92,3.99-.14.42-.53,3.61-1.3,2.93-.07-.06-.12-.16-.13-.27-.23-1.8-.47-3.61-.7-5.41-.02-.11-.19-.24-.21-.06-.09.65-.27,2.31-.55,4.97-.01.11-.08.2-.16.22-.34.1-.5-.41-.5-.69,0-1.88-.15-3.75-.46-5.61-.02-.11-.03-.1-.04,0-.08,1.69,0,3.36.23,5.03.02.11,0,.12-.06.02-.94-1.58-1.09-4.22-.98-5.86.01-.2,0-.2-.04,0l-.22,1.19c.02.54.02,3.11-.32,3.14-.09,0-.17-.07-.2-.18-.84-3.59-.51-8.01-.39-11.7.02-.65-.06-1.29-.25-1.89-2.31-7.36-4.9-14.32-6.01-22.02l-.15-.17-.67-5.21s0-.01,0-.02c0-.09.05-.15.11-.15Z" style="fill: #f4b17b;"/>
      <path d="m14.87,91.41c.08,0,.15.07.16.16l-8.02-.12h0l7.86-.04Z" style="fill: #ebc1a2;"/>
    </g>
    <path d="m7.68,211.82c2.17.02,9.08.32,9.86-.52,2.6,3.16,5.75,5.8,9.45,7.91.34.2.55.55.61,1.05-4.36.39-10.41-3.25-13.55-5.05-.1-.06-.13-.03-.08.07,1.47,3.38,2.98,4.54,6.25,6.95l-.26.75c-2.73.04-5.18-.65-7.35-2.04-3.41-2.19-6.49-4.04-9.24-5.55-.41-.22-.7-.57-1.11-.89.36-1.24.51-2.5.45-3.8,0-.12.04-.23.12-.3.17-.15.32-.2.43-.14,1.34,1.02,2.82,1.54,4.43,1.55Z" style="fill: #f4b17b;"/>
    <path d="m3.37,215.4c2.75,1.5,5.83,3.35,9.24,5.55,2.17,1.4,4.63,2.08,7.35,2.04,2.12.61,2.96,3.16,0,3.56-2.3.31-5.48.08-7.54-1.12-1.54-.9-2.19-2.59-3.63-3.58-.91-.62-1.94-1.07-3.09-1.33-.02,0-.05,0-.07,0-.15,0-.26.13-.26.28l.22,4.56s0,0,0,.01c0,.22-.14.4-.31.4l-1.56.02c-.12,0-.22-.09-.26-.22-.55-2.26-.85-4.64-1.7-6.81-.33-.86-.48-1.53-.45-1.99.07-.83.38-1.58.92-2.25.41.32.7.67,1.11.89Z" style="fill: #00000e;"/>
    <path d="m13.97,215.28c-.05-.11-.02-.13.08-.07,3.14,1.8,9.2,5.44,13.55,5.05,1.1.12,1.98.66,2.64,1.6.35.5.3.96-.15,1.38-.43.39-.97.65-1.61.78-3.08.61-5.84.01-8.27-1.79-3.27-2.41-4.78-3.58-6.25-6.95Z" style="fill: #00000e;"/>
    <path d="m3.71,57.56c.05.24-.03.29-.23.14C-1.64,54.01,0,46.48,1.45,41.34c.22-.79.34-1.58.35-2.37.03-2.45.02-4.91-.02-7.37-.03-1.7,0-2.82.05-3.34.65-5.97,6.19-12.42,12.33-13.1,5.6-.62,10.63,1.44,13.73,6.19.37.57.56,1.14.58,1.72.03,1.11-.24,2.12-.8,3.04-1.95,2.12-4.21,3.79-6.79,5.01,0,0-.02,0-.02.01-.19.08-.42-.02-.49-.22-.52-1.31-2.23-2.62-3.14-.65-.84,1.83.37,3.56,1.05,5.19.99,2.39.6,4.15-.68,6.33-1.72,2.93-3.76,5.28-6.12,7.06-3.42,2.14-8.58,4.54-7.76,8.7Z" style="fill: #3f1800;"/>
  </g>
  <path d="m169.54,236.2c-.93,2.46-1.68,4.99-2.26,7.57-.03.14-.1.25-.16.24l-1.78-.14c-.07,0-.12-.13-.12-.27l.25-4.76s0-.06-.01-.09c-.05-.14-.2-.21-.35-.17-.86.27-1.63.63-2.31,1.07-1.07.69-1.91,2-2.92,2.92-.48.44-1.05.73-1.68.87-1.52.34-12.07,1.86-7.37-3.17,3.77.03,6.23-.81,9.72-2.8,2.84-1.62,5.7-3.22,8.57-4.79.61,1.08.91,2.25.43,3.52Z" style="fill: #101d36;"/>
  <path d="m205.01,125.58c.07.08.08.2.03.29-1.38,2.69-2.77,5.37-4.19,8.05-1.77,3.35-2.63,4.43-6.03,5.84l-12.37,3.89c-.13.04-.22.12-.24.21-.03.12.02.25.15.37-1.73-.8-6.05-.35-8.15-.45l-2.28-2.7c.58-1.5,1.32-2.92,2.2-4.25.07-.11.08-.23.02-.31l-.32-.42c-.04-.06-.03-.07.03-.06.38.11.72.08,1.01-.08l4.04-2.66c4.19-2.83,7.72-6.3,10.57-10.4,1.05-1.51,2.16-2.98,3.34-4.39,4.77.54,9.11,3.42,12.17,7.06Z" style="fill: #b6b6b5;"/>
  <path d="m169.52,110.28c0-.1,0-.21,0-.31,1.51.89,2.88,1.81,4.33,2.22.8,3.14,1.56,6.2,2.31,9.73.81,3.81,1.73,7.61,2.76,11.39l-4.7,10.47c-1.7-.16-5.11-4.56-6.04-5.8-1.39-1.83.74-10.31,1.41-12.79.24-1.1.18-2.18-.18-3.25-.1-3.89-.06-7.78.12-11.67Z" style="fill: #b6b6b5;"/>
  <polygon points="133.26 132.53 133.33 131.02 114.64 143.37 116.7 143.47 133.26 132.53" style="fill: #1a142c;"/>
</svg>