<?xml version="1.0" encoding="UTF-8"?>
<svg xmlns="http://www.w3.org/2000/svg" xmlns:xlink="http://www.w3.org/1999/xlink" viewBox="0 0 337.61 317.47">
  <defs>
    <linearGradient id="b" x1="196.66" y1="162.57" x2="196.66" y2="10.66" gradientUnits="userSpaceOnUse">
      <stop offset="0" stop-color="#ff6a47"/>
      <stop offset="1" stop-color="#fabd54"/>
    </linearGradient>
    <linearGradient id="c" x1="13.38" y1="64.56" x2="125.12" y2="64.56" gradientUnits="userSpaceOnUse">
      <stop offset="0" stop-color="#488975"/>
      <stop offset="1" stop-color="#96d0bd"/>
    </linearGradient>
  </defs>
  <g style="isolation: isolate;">
    <g id="a" data-name="Layer 1">
      <path d="m245.1,136.48c-6.94,52.79-66.49,75.8-124.09,72.31-76-4.6-102.98-47.59-96.04-100.38,6.94-52.79,58.95-89.48,116.17-81.96,57.22,7.52,110.91,57.24,103.97,110.02Z" style="fill: #d9eee7;"/>
      <path d="m123.23,101.21c-.03-8.38.1-16.81.03-25.21-.03-3.17,1.17-6.1,3.58-8.79-.72.1-2.61-.66-2.98-.13,0,0-.01.02-.02.02-.07.08-.18.09-.24.02-.3-.3-.5-.67-.61-1.1-1.81,2.48-2.91,5.21-3.28,8.17v3.35c-.02.07-.02.14-.04.21.02.12.03.24.04.36v35.13c-.02.11-.03.22-.05.33l.05.98v5.5c-.03.19-.05.37-.09.56.04.14.06.29.09.43v7.77c-.01.06-.02.13-.03.2l.03.28v6.14c-.03.21-.05.41-.08.62.04.11.05.2.08.31v5.8c-.02.2-.04.4-.07.6.03.08.05.16.07.23v12.85s0,.01,0,.02v5.35l-.02.61c0,.06.01.11.02.17v6.02c-.03.15-.05.3-.09.45.04.19.06.38.09.57v3.47l-.07,2.19.07,2.19v14.87s0,.94,0,.94v5.04l-.09,3.19c.04.4.07.8.09,1.18v2.6c-.02.33-.04.65-.07.97l.17,12.89c1.26.46,3.84-5.53,3.84-5.53,0,0-.23-11.3-.24-12.7-.25-33.04-.03-66.07-.16-99.11Z" style="fill: #808185;"/>
      <polyline points="263.46 95.56 314.74 70.3 314.03 115.75" style="fill: none; stroke: #96d0bd; stroke-linecap: round; stroke-linejoin: round; stroke-width: 7px;"/>
      <line x1="81.22" y1="69.63" x2="81.22" y2="186.29" style="fill: none; stroke: #96d0bd; stroke-linecap: round; stroke-linejoin: round; stroke-width: 7px;"/>
      <line x1="245.66" y1="218.73" x2="297.99" y2="188" style="fill: none; stroke: #96d0bd; stroke-linecap: round; stroke-linejoin: round; stroke-width: 7px;"/>
      <g>
        <path d="m335.93,100.9c-2.14.48-10.33,1.2-12.81,2.39-3.06,1.47-20.57,10.58-24.45,12.46-1.24.6-4.89,3.96-5.59,11.41-.72.1-2.28-4.34-2.21-4.77.47-2.91,1.28-7.68,4.56-9.32,7.3-3.65,19.67-10.03,27.34-13.5,5.21-2.32,10.7-.39,13.16,1.33Z" style="fill: #c9c2c4;"/>
        <path d="m293.64,214.07s5.03,2.78,4.42,3.52c-.92,1.1-8.44-2.14-8.44-5.93,0-6.69.09-82.1,0-87.87.37-2.96,1.47-5.69,3.28-8.17.11.43.31.79.61,1.1.06.06.17.05.24-.02,0,0,.01-.02.02-.02.38-.53,4.9-1.77,5.62-1.87-3.23,1.99-6.24,7.62-6.21,10.78.07,8.41-.06,16.84-.03,25.21l.48,63.27Z" style="fill: #886e67;"/>
        <g>
          <path d="m327.96,100.87c1.49-.75,3.06-1.61,4.48-1.63v.08s.02.08.05.07c1.39-.05,2.54.45,3.43,1.51.03.03.06.04.1.02l.12-.07c.94,1.2,1.42,2.9,1.44,5.09.02,2.76.03,5.54.03,8.31-.05,22.53-.05,45.04,0,67.52,0,2.32,0,4.65-.02,6.99-.01,1.17-.07,2.12-.19,2.82-.45,2.71-1.54,5.24-3.26,7.59-1.47,1.86-3.09,3.16-4.83,3.91-8.44,4.06-16.87,8.12-25.31,12.19-2.02.97-3.98,2.16-5.94,2.31-2.05-.15-3.52-1.32-4.42-3.52-.18-.43-.28-.88-.31-1.36.3.98.7,1.85,1.19,2.62.1.16.28.21.32-.18,0-.06.02-.11.04-.16,1.68-3.9,3.36-7.8,5.05-11.69.09-.2.06-.3.1-.47,9.62-4.61,19.23-9.24,28.84-13.87.91-.44,1.54-.82,1.89-1.15,1.32-1.22,1.74-2.8,1.74-4.5.02-4.11-.04-8.18.02-12.31,0-.02,0-.06-.02-.1,0-.02,0-.04,0-.06,0-7.53,0-15.05,0-22.57.1-.15.03-.2.03-.31,0-10.14,0-20.28,0-30.41,0-.79-.06-1.35-.17-1.69-.44-1.37-1.47-1.45-2.73-.84-3.17,1.54-6.35,3.06-9.54,4.57.28-.7.68-1.56.9-2.06,2.2-5.03,4.38-10.07,6.56-15.11,0,0,.06-.14.19-.39.19-.41.27-.8.22-1.18Z" style="fill: #383c3f;"/>
          <path d="m312.03,114.57l6.72-3.22c.5-.24.9.08.9.71v.06c0,.63-.41,1.34-.9,1.57l-6.72,3.22c-.5.24-.9-.08-.9-.71v-.06c0-.63.41-1.34.9-1.57Z" style="fill: #2c2f32;"/>
          <path d="m298.25,164.39l-.1.27c-.18.06-.09-1.58-.09-1.71,0-9.57,0-19.14,0-28.71,0-1.14-.06-1.86.51-3.12.03-.07.06-.1.08-.11.02,0,.03.04.01.09,0,0,0,.02,0,.02-.35.83-.52,1.72-.52,2.67,0,10.08,0,20.16,0,30.24,0,.04.01.08.04.11.05.06.08.14.08.24Z" style="fill: #565451;"/>
          <g>
            <path d="m298.06,164.97s.01-.05.04-.08h0s-.04.06-.04.08Z" style="fill: none;"/>
            <path d="m298.66,131.02s0,0,0,0c-.02,0-.05.04-.08.11-.57,1.26-.51,1.98-.51,3.12,0,9.57,0,19.14,0,28.71,0,.12-.08,1.44.04,1.67,0-6.04,0-12.08,0-18.12,0-.02,0-.04,0-.06-.02-.04-.02-.07-.02-.1.05-4.13,0-8.2.02-12.31,0-.96.15-1.87.5-2.71.03-.07.04-.14.07-.2.02-.05.02-.1,0-.11Z" style="fill: none;"/>
            <path d="m298.06,199.72c0,.76.05,1.4.2,1.9-.15-.5-.2-1.14-.2-1.9,0-11.58,0-23.16,0-34.75h0c0,11.58,0,23.17,0,34.75Z" style="fill: none;"/>
            <path d="m298.35,201.85c.09.23.21.42.36.57-.15-.15-.27-.34-.36-.57Z" style="fill: none;"/>
            <path d="m312.02,116.92l6.72-3.22c.5-.24.9-.94.9-1.57v-.06c0-.63-.4-.95-.9-.71l-6.72,3.22c-.5.24-.9.94-.9,1.57v.06c0,.63.4.95.9.71Z" style="fill: none;"/>
            <path d="m332.53,171.01s0-.06-.02-.1c0-.02,0-.04,0-.06,0-6.13,0-12.26,0-18.38.02-.03.04-.06.04-.08,0-11.58,0-23.17,0-34.75,0-2.02-.36-3.21-1.97-3.12-3.48,1.67-6.97,3.35-10.45,5.03,0,.02-.02.04-.02.05l-21.84,44.79c0-.1-.04-.18-.08-.24-.02-.03-.04-.07-.04-.11,0-10.08,0-20.16,0-30.24,0-.87.16-1.69.45-2.47-.35.84-.49,1.75-.5,2.71-.02,4.11.04,8.18-.02,12.31,0,.02,0,.06.02.1,0,.02,0,.04,0,.06,0,6.04,0,12.08,0,18.12.01.03.03.04.05.04l-.03.2s-.02.02-.02.03h0s-.04.06-.04.08h0c0,11.58,0,23.17,0,34.75,0,.76.05,1.4.2,1.9.02.08.05.16.08.24.09.23.21.42.36.57.2.2.46.33.78.39.16.03.35.04.55.02h0c9.61-4.61,19.23-9.24,28.84-13.87.91-.44,1.54-.82,1.89-1.15,1.32-1.22,1.74-2.8,1.74-4.5.02-4.11-.04-8.18.02-12.31Z" style="fill: #fff;"/>
            <path d="m298.7,202.42c-.15-.15-.27-.34-.36-.57-.03-.08-.06-.16-.08-.24-.15-.5-.2-1.14-.2-1.9,0-11.58,0-23.16,0-34.75h0s.01-.05.04-.08c0-.09,0-.18,0-.26-.12-.24-.04-1.56-.04-1.67,0-9.57,0-19.14,0-28.71,0-1.14-.06-1.86.51-3.12.03-.07.06-.1.08-.11,0,0,0,0,0,0,.02.01.01.06,0,.11-.03.07-.05.13-.07.2.27-.65.67-1.25,1.25-1.79.36-.33.99-.71,1.89-1.15,6.13-2.96,12.26-5.9,18.39-8.84.28-.69.67-1.52.88-2.01,2.2-5.03,4.38-10.07,6.56-15.11,0,0,.06-.14.19-.39.19-.41.27-.8.22-1.18-8.73,4.2-17.46,8.4-26.19,12.61-1.09.53-1.89.97-2.38,1.33-2.97,2.15-5.36,6.24-6.06,10.28-.13.76-.2,1.75-.21,2.96,0,1.26-.01,3.15-.01,5.68,0,25.89,0,51.79,0,77.68,0,.5.07.94.22,1.32.3.98.7,1.85,1.19,2.62.1.16.28.21.32-.18,0-.06.02-.11.04-.16,1.68-3.9,3.36-7.8,5.05-11.69.09-.2.06-.3.1-.47-.2.01-.38,0-.55-.02-.33-.06-.58-.19-.78-.39Zm12.42-86.28c0-.63.41-1.34.9-1.57l6.72-3.22c.5-.24.9.08.9.71v.06c0,.63-.41,1.34-.9,1.57l-6.72,3.22c-.5.24-.9-.08-.9-.71v-.06Z" style="fill: #494849;"/>
            <path d="m298.12,164.86l.03-.2s-.04-.01-.05-.04c0,.09,0,.18,0,.26,0-.01.01-.02.02-.03Z" style="fill: #494849;"/>
            <polygon points="298.06 164.97 298.06 164.97 298.06 164.97 298.06 164.97" style="fill: #494849;"/>
            <path d="m299.49,202.81c.16.03.35.04.55.02h0c-.2.01-.38,0-.55-.02Z" style="fill: #494849;"/>
          </g>
        </g>
        <path d="m332.5,159.09c0-3.34,0,4.2,0,11.74,0,.02,0,.04,0,.06.02.04.02.07.02.1-.06,4.14,0,8.21-.02,12.33,0,1.7-.42,3.29-1.75,4.51-.36.33-.99.71-1.9,1.15-9.63,4.64-19.27,9.28-28.9,13.9-1.61.1-1.97-1.1-1.97-3.12,0-11.6,0-23.21,0-34.82,0-.03.02-.07.06,10.76l34.44-16.61Zm-8.45,13.73c.19.08.37-.02.54-.3.42-.68.34-1.6.28-2.22-.08-.99-.96-.57-1.12.46-.1.64-.17,1.86.29,2.07Zm-21.09,10.31c.34-.16.61-.98.61-1.83s-.27-1.41-.61-1.25h0c-.34.16-.61.98-.61,1.83h0c0,.85.27,1.41.61,1.25h0Zm1.48-.86c1.22.01.99-3.93.03-2.88-.25.28-.38.56-.38.85l-.02,1.58c0,.29.12.44.37.44Zm9.96-4.64c.34-.16.62-.98.63-1.83,0,0,0,0,0,0,0-.85-.27-1.41-.61-1.25-.34.16-.62.98-.63,1.83h0c0,.85.27,1.41.61,1.25Zm11.32-5.65c1.25.18,1.13-3.86.11-2.84-.58.58-.47,2.12-.32,2.63.04.12.11.2.22.21Zm-11.25,18.3c.47-.29.81-1.01.76-1.6h0c-.05-.59-.47-.84-.95-.55-.47.29-.81,1.01-.76,1.6t0,0c.05.59.47.84.95.55Zm10.73-6.28c0-.62-.39-.93-.88-.69s-.88.92-.88,1.54.39.93.88.69.88-.92.88-1.54Zm-19.77,9.52c0-.61-.39-.92-.88-.69h0c-.49.23-.88.92-.88,1.54h0c0,.61.39.92.88.69s.88-.92.88-1.54Z" style="fill: #808185;"/>
        <path d="m309.52,162.37c-2,1-3.72.96-5.16-.11-1.44-1.07-2.15-2.89-2.15-5.45,0-2.2.53-4.43,1.58-6.7,1.05-2.27,2.43-4,4.12-5.21.45-2.61,1.37-5.05,2.76-7.31,1.38-2.26,2.99-3.99,4.8-5.18v14.62l-1.61-1.28c-.23-.18-.49-.19-.79-.04s-.55.41-.76.77c-.23.4-.34.79-.34,1.17s.11.66.34.83l3.25,2.55c.29.22.63.24,1.02.04s.73-.55,1.02-1.06l3.29-5.8c.23-.4.34-.8.33-1.18s-.12-.66-.33-.82c-.23-.18-.5-.18-.81-.01s-.57.45-.77.84l-1.61,2.88v-14.62c2.13-.72,3.93-.41,5.41.91,1.48,1.32,2.29,3.38,2.43,6.16v.94c1.55-.59,2.83-.43,3.84.47s1.52,2.37,1.52,4.41-.58,4.17-1.74,6.21-2.56,3.47-4.21,4.3l-15.43,7.67Z" style="fill: #b6b6b5;"/>
        <path d="m299.82,129.54c-.58.53-.98,1.14-1.25,1.79-.3.78-.45,1.6-.45,2.47,0,10.08,0,20.16,0,30.24,0,.04.01.08.04.11.05.06.08.14.08.24l21.84-44.79s.02-.04.02-.05c-6.13,2.95-12.26,5.89-18.39,8.84-.91.44-1.54.82-1.89,1.15Z" style="fill: #383c3f; mix-blend-mode: multiply; opacity: .24;"/>
      </g>
      <polyline points="249.71 243.06 269.02 232.61 213.72 202.93" style="fill: none; stroke: #96d0bd; stroke-linecap: round; stroke-linejoin: round; stroke-width: 7px;"/>
      <path d="m266.39,1.46c-2.14.48-4.45,1.31-6.92,2.51-3.06,1.47-6.13,2.93-9.21,4.38-39.98,18.77-79.94,37.58-119.88,56.42-1.25.59-2.43,1.4-3.54,2.44-.72.1-2.61-.66-2.98-.13-.06.08-.17.11-.24.06,0,0-.01-.01-.02-.02-.3-.3-.5-.67-.61-1.1,1.13-1.37,2.29-2.34,3.51-2.92,23.41-11.13,67.39-31.87,131.95-62.23,2.85-1.34,5.5-1.14,7.96.58Z" style="fill: #c9c2c4;"/>
      <path d="m266.39,1.46c2.69.93,4.04,2.84,4.06,5.74.12,27.81.14,73.71.06,137.7,0,1.7.08,4.14-.18,6-1.11,7.9-6.72,9.89-12.96,12.86.58-3.32-.61-5.65-3.55-6.98,2.41-.79,4.79-1.68,7.14-2.66,1.61-.67,2.42-1.82,2.41-3.43-.06-18.37-.03-36.75.09-55.13,0-.06-.03-.16-.09-.31-.02-.06-.03-.12-.03-.18,0-27.64,0-55.29,0-82.93,0-.43-.2-1.04-.61-1.15-.25-.06-.51-.04-.73.07-43.76,20.65-87.18,41.04-130.28,61.15-2.12.99-2.76,2.25-2.76,4.66.01,37.39,0,74.78-.03,112.17l-.09,3.11c.08,6.97.13,13.94.14,20.92,0,1.54,1.02,1.82,2.28,1.2,5.11-2.49,10.24-4.94,15.4-7.33,32.44-15.05,64.89-30.07,97.34-45.07l-.39,8.31c-1.31-1-2.76-1.3-4.36-.89-.13.03-.22.14-.24.27-.08.73.12,1.45.6,2.16l-12.86,6.21-57.62,26.75c-.66.23-.83.66-.49,1.29l-1.22-.48c-.12-.05-.27-.04-.39.03l-1.74.89c-11.01,5.1-22.02,10.18-33.04,15.25-2.01.93-4.32,2.2-6.14,1.41-1.14-1.04-3.54-16.47-3.12-18.62.28-1.37.41-2.76.4-4.16-.25-33.04-.03-66.07-.16-99.11-.03-8.38.1-16.81.03-25.21-.03-3.17,1.17-6.1,3.57-8.79,1.12-1.04,2.3-1.85,3.54-2.44,39.94-18.84,79.9-37.64,119.88-56.42,3.08-1.45,6.15-2.91,9.21-4.38,2.47-1.19,4.78-2.03,6.92-2.51Z" style="fill: #1a213c;"/>
      <path d="m244,161.88c-32.46,14.99-64.91,30.02-97.34,45.07-5.16,2.39-10.29,4.84-15.4,7.33-1.27.62-2.28.34-2.28-1.2,0-6.98-.05-13.95-.14-20.92l.09-3.11c.03-37.39.04-74.78.03-112.17,0-2.42.64-3.67,2.76-4.66,43.1-20.12,86.52-40.5,130.28-61.15.23-.11.49-.13.73-.07.41.11.61.72.61,1.15,0,27.65,0,55.29,0,82.93,0,.06.01.12.03.18.06.15.09.26.09.31-.13,18.38-.16,36.75-.09,55.13,0,1.61-.8,2.75-2.41,3.43-2.35.98-16.95,7.76-16.95,7.76Z" style="fill: #fdfdfd;"/>
      <path d="m230.77,148.59c1.32,2.13,3.22,4.04,5.71,5.71,1.54,1.04,2.32,1.15,4.27.74,1.62-.34,3.26-.55,4.92-.63,1.61-.28,2.33.32,2.14,1.82-1.39.69-.08,2.85.34.66.4-.34.69-.27.86.21-.09.53-.06,1.05.08,1.56.03.11.14.19.25.18,1.17-.09,2.08-.62,2.7-1.59.1-.15.21-.25.31-.3.46-.2.94-.27,1.46-.19,2.95,1.34,4.13,3.66,3.55,6.98l-.62,6.37c-1.48-.65-3-1.04-4.56-1.19-.15-.01-.27-.12-.31-.26-.05-.16-.15-.24-.32-.22-.07,0-.11.09-.09.18,0,.02,0,.03.02.05.58,1.16.13,1.82-1.34,2-2.57.3-4.61.45-6.12.45l-.42-.96.39-8.31c.17-.72-.02-1.14-.58-1.25-4.48-.9-8.64-1.15-11.84-4.8-1.83-2.08-3.24-4.11-4.24-6.1-.19-.37-.1-.76.26-1.17.08-.09.09-.23.02-.33" style="fill: #1a213c;"/>
      <path d="m250.68,152.08c-2.16.41-1.73-.96-2.84-1.88-.73-.61-1.11-.26-1.14,1.03-.12-1.78-1.1-5.59,2.27-4.8,2.82.66,6.66,1.02,5.8,4.15-.59,2.16-1.27,4.06-2.03,5.69-.05.11-.16.17-.25.14,0,0,0,0,0,0l-1.62-.84c-.12-.06-.18-.21-.15-.38.06-.37,1.53-4.5-.04-3.11Z" style="fill: #1a213c;"/>
      <path d="m250.68,152.08c-.29,2.18-.31,3.89-1.68,5.04-.17-.48-.46-.55-.86-.21l-.34-.66c.19-1.5-.53-2.1-2.14-1.82.45-.18,1.38.11,1.48-.4.02-.11-.02-.25-.12-.39-.52-.72-.62-1.52-.32-2.4.03-1.29.41-1.64,1.14-1.03,1.11.92.68,2.29,2.84,1.88Z" style="fill: #fcc69a;"/>
      <path d="m55.47,177.56c0-.11.11-.23.28-.31l42.36-19.26c.07-.03.16.01.19.1,0,.02.01.05.01.07.02,14.39.06,28.8-.09,43.21-.05,4.43,0,8.87.15,13.3.01.41-.22.78-.6.96l-42.1,19.27c-.1.05-.22,0-.27-.09-.01-.02-.02-.05-.02-.07l.09-57.17Z" style="fill: #fdfdfd;"/>
      <ellipse cx="76.89" cy="163.56" rx="2.87" ry=".48" transform="translate(-62.32 48.31) rotate(-25.2)" style="fill: #4f75a0;"/>
      <path d="m256.74,170.13l-.38,4.45c-.59.17-1,.55-1.26,1.14-.05.12-.17.18-.28.16-3.68-.63-7.34-1.45-10.96-2.44.31-.52.37-1.29.16-2.3,1.51,0,3.54-.14,6.12-.45,1.47-.17,1.92-.84,1.34-2-.04-.08-.03-.18.03-.22.01,0,.02-.01.04-.01.17-.02.28.06.32.22.04.14.16.24.31.26,1.56.15,3.08.54,4.56,1.19Z" style="fill: #212d4c;"/>
      <path d="m243.61,170.19l.42.96c.21,1.01.15,1.78-.16,2.3l-.35.69c-1.53-.64-2.84-1.44-3.91-2.4-.48-.71-.68-1.43-.6-2.16.01-.13.11-.24.24-.27,1.6-.41,3.05-.12,4.36.89Z" style="fill: #fcc69a;"/>
      <path d="m274.83,183.26c-.93.29-1.86.26-2.79-.11l-.45-.98-.03-3.8c.38-.39.35-.7-.09-.9-1.48-.71-2.62-1.55-3.42-2.5-.09-.11-.15-.1-.18.04-.3,1.4-.19,2.77.32,4.1.42,1.08,2.04,1.71.29,3-.4.37-.83.35-1.29-.03-.25-2.11-.66-4.85,0-6.89.76-2.33,3.33-2.59,5.26-1.46.72.42,1.11,1.04,1.18,1.87.21,2.52.12,5.29,1.18,7.68Z" style="fill: #1a213c;"/>
      <path d="m243.87,173.44c3.62.99,7.27,1.8,10.96,2.44.04-.12.16-.18.28-.17.25-.59.67-.97,1.25-1.13,0,1.56-.13,3.1-.41,4.63-3.89,1.12-8.58.9-11.99-1.47-.18-.79-.13-3.34-.44-3.6l.35-.69Z" style="fill: #1a213c;"/>
      <path d="m271.6,182.17l-.03-3.8c.38-.39.35-.7-.09-.9-1.48-.71-2.62-1.55-3.42-2.5-.09-.11-.15-.1-.18.04-.3,1.4-.19,2.77.32,4.1.42,1.08,2.04,1.71.29,3-.08.64.17,1.31.75,1.99.43.51.94.54,1.51.09l1.29-1.02-.45-.98Zm-1.79-.44s.02.06.04.07c-.02-.02-.02-.05-.04-.07Zm.17.13s-.04-.02-.06-.03c.03.01.05.03.08.03,0,0-.01,0-.02,0Z" style="fill: #fcc69a;"/>
      <path d="m255.95,179.21l.45,33.31c.14,1.46.46,3.88-.72,4.19-.14.04-.25.12-.31.23-1.11,2.17-3.27,3.21-5.57,3.81-4.12.1,1.17-3.29,1.73-3.67.53-.36.76-.84.69-1.45l-.39-3.95-1.77-13.32c-.29-2.59-.88-5.95-1.77-10.1-.66-3.09-2.06-5.58-4.18-7.48l-.15-3.05c3.42,2.37,8.1,2.59,11.99,1.47Z" style="fill: #1a213c;"/>
      <path d="m226.75,177.94c7.34,3.68,11.74,6,13.2,6.95,1.72,1.13,2.15,2.8,1.28,5.02-.36.42-.71.85-1.05,1.3-1.08,1.47-3.06,1.96-5.11,2.9-12.04,5.51-24.07,11.02-36.09,16.55-2.6,1.2-5.38,2.77-8.09,2.92-3.49.19-7.06-.73-10.71-2.74-3.63-2.01-7.28-3.98-10.93-5.93-.06-.03-.1-.08-.11-.13v-.09s57.61-26.75,57.61-26.75Z" style="fill: #b6b6b5;"/>
      <path d="m244.11,180.79c2.12,1.9,3.52,4.39,4.18,7.48.89,4.15,1.48,7.51,1.77,10.1l-.63,13.94c-1.62,2.04-5.49,5.1-8.16,4.63-.3-.05-.49-.34-.43-.64.02-.08.05-.16.1-.23.95-1.3,2.57-2.15,3.81-3.19.11-.09.18-.21.21-.34.2-.97.24-1.95.1-2.94l-.94-28.8Z" style="fill: #1a213c;"/>
      <path d="m274.78,191.19c.45,2.53.67,5.07.66,7.62-.09.49-.4,2.26.43,2.28.13,0,.26.05.36.14l.64.58c-.17.45-.49.67-.98.66-1.9.42-1.28-2.76-1.3-3.88l.2-7.4Z" style="fill: #fcc69a;"/>
      <path d="m264.93,189.37l.35,2.12c.03.17.07.29.14.39.87,1.28,1.22,2.7,1.05,4.25-.61-1.1-1.75,2.03-1.88,2.35-.5,1.3-1.03.15-1.01-.44.11-2.94.56-5.83,1.35-8.66Z" style="fill: #fcc69a;"/>
      <path d="m241.24,189.91c-.49,1.77-1.38,2.95-2.66,3.54-23.82,10.95-38,17.49-42.54,19.6-6.58,3.06-10.94,1.43-17.53-1.96-3.3-1.7-6.59-3.4-9.87-5.11-.34-.64-.17-1.07.49-1.29v.09s.06.1.12.13c3.66,1.95,7.3,3.92,10.93,5.93,3.65,2.02,7.22,2.93,10.71,2.74,2.71-.15,5.49-1.72,8.09-2.92,12.03-5.53,24.06-11.05,36.09-16.55,2.06-.94,4.03-1.43,5.11-2.9.33-.45.68-.88,1.05-1.3Z" style="fill: #393b40;"/>
      <path d="m275.13,183.39l-.3-.12c-.93.29-1.86.26-2.79-.11l-1.29,1.02c-.57.45-1.07.42-1.51-.09-.58-.68-.83-1.35-.75-1.99-.4.37-.83.35-1.29-.03-1.85,1.5-2.05,5.36-2.27,7.3l-1.12,5.76c.03.17,1.18-1,1.24-.91.87,1.28,1.6.36,1.42,1.9l-.72,1.29c-.13,1.59.58,2.62,2.12,3.09,1.52.47,5.97.97,6.62-1.23,0,0,0,.02,0,.03.39-1.71,1.8-3.91,2.33-5.58-.53,1.67-.99,3.36-1.39,5.07-.09.49-.4,2.26.43,2.28.13,0,.26.05.36.14l.64.58c1.69-3.34,3.78-5.95,4.07-9.86-.83-1.81-3.76-7.65-5.8-8.56Z" style="fill: #ff905c;"/>
      <path d="m265.75,197.42c-.13,1.59.58,2.62,2.12,3.09,1.67.51,6.87,1.07,6.7-1.92.02,1.11-.6,4.3,1.3,3.88-.09.24-.35.39-.8.46-.13.02-.23.13-.23.26l-.32,10.02-.58,11.3-5.56,2.7-.03-.21,2.1-1.47c.52-.37.75-.9.69-1.59-.38-4.28-.71-8.29-.99-12.04,0-.12-.04-.18-.1-.17-.06.01-.1.08-.09.16.08,4.29,0,8.58-.27,12.86-.02.38-.21.73-.5.93-1.33.94-2.86,1.28-4.58,1.02.69-.73,1.43-1.31,2.22-1.72.19-.1.3-.3.28-.5l-.57-6.58-.57-14.13c0-.13-.12-.23-.26-.23-.03,0-.06,0-.09.02-1.18.48-2.22.29-3.12-.57-.08-.08-.12-.23-.13-.41-.03-.99.08-1.95.33-2.89.09-.35.47-.55.85-.45l.97.25c.08.02.21-.1.31-.3l.92-1.74Z" style="fill: #212d4c;"/>
      <path d="m250.06,198.37l1.77,13.32-1.13.18c-.14.02-.26.08-.36.17-.24.22-.54.31-.91.26l.63-13.94Z" style="fill: #effafe;"/>
      <path d="m59.06,240.79c-2.59,1.29-5.83,3.3-8.65,1.5-3.87-1.24-5.65-2.88-5.67-7.04-.01-2.32-.02-4.65-.03-6.98-3.42,1.23-9.93,3.57-9.18,8.25.41,2.56,2.63,4.04,4.87,5.1,2.45,1.16,7.43,3.78,14.94,7.86.74.17,1.38.53,1.93,1.07,3.34,1.39,6.79,3.59,9.93,4.51,7.53,2.21,13.54.91,20.68-2.42,8.33-3.88,32.42-14.27,32.42-14.27.11-.09.23-.15.37-.18.23-.04.44-.11.66-.21,14.78-6.85,29.57-13.68,44.37-20.48,3.43-1.58,7.26-4.57,3.82-8.56-.27-.31-1.2-1.07-2.8-2.28-.12-.09-.26-.14-.39-.13-.25.01-1.19.52-1.05-.1-11.01,5.1-22.02,10.18-33.04,15.25-2.01.93-4.32,2.2-6.14,1.41-1.39-.33-6.49-17.43-6.49-17.43.15-1.47.15-3.05-.01-4.75l-14.21,6.58c-.19,2.92.21,6.52-.58,8.99-1.2,3.76-3.59,5.25-7.38,6.96-5.23,2.36-10.44,4.77-15.63,7.21l-22.75,10.15Z" style="fill: #d9eee7;"/>
      <path d="m123.51,211.21c.38,1.92.83,3.58,1.16,7.04.17.39.7,3.55,1.43,4.83-1.39-.33-6.35-4.83-6.35-4.83l-.14-5.53s3.08-.82,3.9-1.51Z" style="fill: #3b5e89;"/>
      <path d="m268.36,226.99l.03.21c-.34.31-.74.44-1.2.41l1.16-.63Z" style="fill: #d9eee7;"/>
      <g>
        <path d="m124.14,164.38s.01.07.03.1c.19.3.17.57-.07.82l-.04.09c-.04.94-.08,2.19-1.14,2.63-.4.16-1.01.09-1.47.08l-.07.04c-.34.62-.59,1.28-.73,1.98-.03.12.02.25.11.34.31.3.62.66.69,1.08.07.47-.17.73-.72.77-.03,0-.07-.01-.09-.04-.84-.81-1.6-1.7-2.27-2.66.81-.61,1.5-1.41,2.09-2.41.44-.74.57-1.35.23-2.16-.23-.56-.65-1.15-.36-1.77.31-.67.89-.22,1.07.22,0,0,0,0,0,0,.03.07.11.09.17.06.88-.42,1.66-.99,2.32-1.71.12.84.21,1.69.26,2.53Z" style="fill: #f4b17b;"/>
        <path d="m127.21,179.92c.52-.31,1.13-.46,1.61-.81.96-.7,1.49-1.03,2.49-.9.43.06.2.29.02.39-.28.17-.89.49-.36.86.15.1.31.17.47.21.27.06.52.16.75.3.19.11.17.2-.05.27-1.06.31-2.12.69-3.2.29-.16-.06-.33-.04-.46.06l-4.05,3.11c-.29-.66-.35-1.3-.18-1.93.05-.19.2-.32.43-.39.85-.47,1.69-.96,2.53-1.45Z" style="fill: #f4b17b;"/>
        <path d="m117.06,186.07c.38,2.63,1.26,5.01,2.05,7.52.07.21.09.42.09.65-.04,1.26-.15,2.77.13,4,0,.04.04.06.07.06.12,0,.12-.89.11-1.07l.08-.41c.01-.07.02-.07.01,0-.04.56.01,1.46.34,2,.02.03.03.03.02,0-.08-.57-.11-1.14-.08-1.72,0-.04,0-.04.01,0,.11.64.16,1.28.16,1.92,0,.1.05.27.17.24.03,0,.05-.04.06-.08.09-.91.16-1.48.19-1.7,0-.06.07-.02.07.02.08.61.16,1.23.24,1.85,0,.04.02.07.04.09.26.23.4-.86.44-1,.17-.53.52-.7.31-1.36-.22-.97-.56-1.93-.71-2.88-.4-2.48-.73-4.97-.98-7.47-.05-.11-.05-.22,0-.32h.27c.59,0,1.2,0,1.84,0,.62,0,1.11-.17,1.69-.34,1.26,2,1.05,5.48.77,7.72-.27,2.15-.54,4.3-.8,6.45l-3.27,22.24c-.14.73-.27,1.46-.37,2.19-.03.24-.07.45-.11.63-.24.26-2.4.17-3.08.16-.5,0-.97-.17-1.39-.48-.18-.49-.2-.99-.07-1.51.45-4.87.9-9.73,1.35-14.6.08-.83-.04-1.56-.15-2.36-.62-4.37-1.19-8.74-1.7-13.12-.4-2.69.23-5.42,2.16-7.35l.05.06Z" style="fill: #00000e;"/>
        <g>
          <path d="m119.78,186.33c-.06-.71-.13-1.41-.22-2.12,0-.03-.03-.05-.05-.05h-2.69s-.04,1.22-.04,1.22c0,0-1.58-7.96-1.9-10.93-.45-4.19,3.46-4.83,3.46-4.83l2.48,2.8c-.05.01-.09.06-.08.11,0,0,0,0,0,.01.15.44.28.88.39,1.31l.26,1.19c.23,1.33.25,2.69,0,4.18-.4,2.4-.81,4.79-1.24,7.19h-.27s0,0,0,0c-.07,0-.11-.02-.12-.08Z" style="fill: #63a998;"/>
          <path d="m121.14,173.85c.1.4.19.79.26,1.19l-.26-1.19Z" style="fill: none;"/>
          <path d="m120.75,172.54s0,0,0-.01c-.01-.05.02-.1.08-.11l.31,1.43c-.11-.43-.24-.87-.39-1.31Z" style="fill: #ff6a47;"/>
          <path d="m121.4,179.22c.25-1.49.22-2.85,0-4.18-.07-.4-.16-.79-.26-1.19l-.31-1.43c.22-.05.42-.14.59-.29,0,0,.01-.01.02-.01.04-.01.07.01.09.05.28.88.61,1.75.98,2.6.59,1.34,1.56,2.88,2.19,4.15.4.8.39,1.62-.02,2.47-.24.07-.38.2-.43.39-.17.63-.11,1.27.18,1.93-.02,1,.1,1.68-.74,2.36-.57.17-1.07.34-1.69.34-.64,0-1.26,0-1.84.01.43-2.4.84-4.8,1.24-7.19Z" style="fill: #488975;"/>
          <path d="m116.82,184.17l2.74.04c.08.7.15,1.41.21,2.11,0,.06.04.09.12.08,0,0,0,0,0,0-.05.1-.05.21,0,.32.25,2.5.58,4.99.98,7.47.15.94.49,1.9.71,2.88.2.67-.14.84-.31,1.36-.05.14-.18,1.24-.44,1-.02-.02-.04-.05-.04-.09-.08-.62-.16-1.23-.24-1.85,0-.04-.06-.08-.07-.02-.03.22-.09.79-.19,1.7,0,.04-.03.07-.06.08-.12.03-.17-.14-.17-.24,0-.64-.05-1.28-.16-1.92,0-.04-.01-.04-.01,0-.03.58,0,1.15.08,1.72,0,.04,0,.04-.02,0-.32-.54-.37-1.44-.34-2,0-.07,0-.07-.01,0l-.08.41c0,.19,0,1.06-.11,1.07-.03,0-.06-.02-.07-.06-.29-1.23-.17-2.74-.13-4,0-.22-.02-.44-.09-.65-.79-2.51-1.68-4.89-2.05-7.52l-.05-.06-.23-1.78s0,0,0,0c0-.03.02-.05.04-.05Z" style="fill: #f4b17b;"/>
          <path d="m119.51,184.16s.05.02.05.06l-2.74-.04h2.69Z" style="fill: #ebc1a2;"/>
        </g>
        <path d="m117.05,225.31c.74,0,3.1.11,3.37-.18.89,1.08,1.97,1.98,3.23,2.7.12.07.19.19.21.36-1.49.13-3.56-1.11-4.63-1.72-.03-.02-.04-.01-.03.03.5,1.15,1.02,1.55,2.14,2.38l-.09.26c-.93.01-1.77-.22-2.51-.7-1.17-.75-2.22-1.38-3.16-1.9-.14-.08-.24-.2-.38-.3.12-.42.17-.85.15-1.3,0-.04.01-.08.04-.1.06-.05.11-.07.15-.05.46.35.96.52,1.51.53Z" style="fill: #00000e;"/>
        <path d="m115.58,226.53c.94.51,1.99,1.15,3.16,1.9.74.48,1.58.71,2.51.7.72.21,1.01,1.08,0,1.22-.79.1-1.87.03-2.58-.38-.53-.31-.75-.89-1.24-1.22-.31-.21-.66-.36-1.05-.46,0,0-.02,0-.03,0-.05,0-.09.05-.09.1l.08,1.56s0,0,0,0c0,.08-.05.14-.11.14h-.53c-.05,0-.1-.04-.09-.11.05-.48.08-.97-.15-1.39-.41-.75-.6-1.28-.58-1.58.02-.28.13-.54.32-.77.14.11.24.23.38.3Z" style="fill: #00000e;"/>
        <path d="m119.2,226.49s0-.04.03-.03c1.07.61,3.14,1.86,4.63,1.72.38.04.68.22.9.55.12.17.1.33-.05.47-.15.13-.33.22-.55.27-1.05.21-1.99,0-2.82-.61-1.12-.83-1.63-1.22-2.14-2.38Z" style="fill: #00000e;"/>
        <path d="m115.69,172.59c.01.07-.02.1-.08.05-1.75-1.26-1.19-3.83-.69-5.59.08-.27.12-.54.12-.81,0-.84,0-1.68,0-2.52,0-.58,0-.96.02-1.14.22-2.04,2.11-4.24,4.21-4.48,1.91-.21,3.63.49,4.69,2.12.13.19.19.39.2.59.01.38-.08.72-.27,1.04-.66.73-1.44,1.3-2.32,1.71,0,0,0,0,0,0-.07.03-.14,0-.17-.07-.18-.45-.76-.89-1.07-.22-.29.63.13,1.22.36,1.77.34.82.2,1.42-.23,2.16-.59,1-1.29,1.8-2.09,2.41-1.17.73-2.93,1.55-2.65,2.97Z" style="fill: #3f1800;"/>
      </g>
      <path d="m167.66,173.34c-8.26,4.04-15.35,4.25-21.27.62-5.92-3.63-8.88-10.15-8.88-19.56,0-8.06,2.17-16.35,6.52-24.86,4.34-8.51,10.01-15.15,16.99-19.91,2.04-10.6,6.39-20.53,13.03-29.78s14.27-15.98,22.87-20.2c9.88-4.84,18.31-5.01,25.3-.51s10.82,12.2,11.5,23.1v3.46c6.39-2.46,11.67-2.14,15.84.96,4.17,3.09,6.26,8.38,6.26,15.87s-2.39,15.38-7.16,23.09-10.56,13.23-17.38,16.57l-30.03,14.7v-44.06l8.18,5.21c.85.64,1.94.61,3.26-.08s2.41-1.73,3.26-3.11c.94-1.51,1.41-2.99,1.41-4.43s-.47-2.46-1.41-3.06l-15.08-9.32c-1.19-.66-2.6-.6-4.22.19s-3.02,2.1-4.22,3.94l-15.08,24.23c-.94,1.51-1.36,2.97-1.28,4.37s.55,2.37,1.41,2.91c.94.6,2.04.56,3.32-.11s2.39-1.77,3.32-3.28l7.92-12.95v44.06l-24.41,11.95Z" style="fill: url(#b);"/>
      <path d="m99.6,147.56l1.77.87c-2.37,1.04-4.73,2.11-7.09,3.21-12.33,5.72-24.64,11.47-36.95,17.23-5.79,2.71-8.17,5.44-8.23,12.08-.14,17.62-.12,36.31.07,56.09.02,1.9.43,3.65,1.23,5.26-3.87-1.24-5.65-2.88-5.67-7.04-.01-2.32-.02-4.65-.03-6.98.03-15.18.03-30.36,0-45.55,0-3.64.21-6.11.66-7.42.99-2.92,3.07-5.09,6.23-6.5,5.25-2.35,10.45-4.79,15.62-7.31l16.18-7.5c4.7-1.91,9.35-3.93,13.96-6.07.5-.23,1.24-.35,2.22-.36Z" style="fill: #808185;"/>
      <path d="m68.29,215.66c-2.52,1.33-4.68,1.38-6.48.14-1.8-1.24-2.7-3.43-2.7-6.59,0-2.7.66-5.48,1.98-8.32,1.32-2.84,3.05-5.05,5.17-6.63.57-3.23,1.72-6.27,3.46-9.12,1.74-2.85,3.75-5.06,6.03-6.62v17.96l-2.02-1.49c-.29-.2-.62-.21-.99,0s-.69.53-.95.99c-.29.51-.43.99-.43,1.46s.14.8.43,1l4.09,2.96c.36.26.79.26,1.28,0s.92-.71,1.28-1.36l4.12-7.3c.29-.51.42-1,.41-1.47s-.15-.81-.41-.99c-.29-.2-.62-.19-1.01.03s-.71.58-.97,1.07l-2.02,3.63v-17.96c2.67-1,4.93-.72,6.79.83,1.85,1.55,2.87,4.03,3.05,7.44v1.16c1.95-.8,3.55-.68,4.82.37s1.91,2.83,1.91,5.34-.73,5.15-2.18,7.72-3.22,4.41-5.29,5.51l-19.38,10.26Z" style="fill: #b6b6b5;"/>
      <g>
        <path d="m261.49,248.02l-.05,4.37c0,.39-.2.75-.52.93-1.57.92-3.23,1.79-4.99,2.58-41.22,18.69-82.41,37.44-123.57,56.24-.02-.22-.13-.32-.34-.3-.16.01-.3-.04-.32-.11,0-.01,0-.02,0-.03l.6-2.82c.16-.76-.04-1.02-.62-.8-.59.23-1.13.18-1.63-.12,25.12-11.7,50.33-23.21,75.62-34.52l55.8-25.42Z" style="fill: #ad9d19;"/>
        <path d="m64.65,286.11c24.92,13.13,40.28,21.1,46.07,23.9,7.54,3.63,12.4.93,19.35-2.04.5.31,1.04.35,1.63.12.57-.22.78.04.62.8l-.6,2.82c-.02.08.1.14.25.15.02,0,.05,0,.07,0,.2-.02.32.08.34.3-5.83,2.97-11.43,6.1-17.26,5.15-1.57-.25-3.68-1.07-6.31-2.43-13.41-6.95-26.83-13.89-40.24-20.84-1.11-.57-2.18-1.19-3.21-1.86-.36-.24-.59-.62-.6-1.03l-.1-5.03Z" style="fill: #ad9d19;"/>
        <path d="m205.58,273.11c-3.09-1.63-6.18-3.25-9.27-4.87-8.46-4.41-16.95-8.75-25.47-13.02-.72-.36-3.77-2.84-4.83-2.61l-14.34-7.75s-79.34,35.74-85.94,38.9c-.5.24-.86,1.02-1.07,2.34,24.92,13.13,40.28,21.1,46.07,23.9,7.54,3.63,12.4.93,19.35-2.04,25.12-11.7,50.33-23.21,75.62-34.52v-.13c0-.09-.04-.16-.11-.2Z" style="fill: #c9be68;"/>
        <path d="m151.67,244.86l51.36-21.65s7.35-1.44,10.57.23c3.31,1.72,6.49,3.31,9.54,4.79,0,0,38.74,17.78,38.35,19.79l-55.8,25.42v-.13c0-.09-.04-.16-.11-.2-11.52-6.09-23.1-12.05-34.74-17.89l-19.17-10.36Z" style="fill: #dfe0e2;"/>
      </g>
      <g>
        <path d="m226.58,224.52c-6.38,3.18-12.74,6.21-19.1,9.1-.76.35-1.42.91-1.99,1.71l-17.74-9.26c-.43-.63-.46-1.31-.09-2.03.06-.12.17-.23.31-.3l19.26-9.34c.26-.13.56-.13.8,0l18.56,10.12Z" style="fill: #c9be68;"/>
        <path d="m226.58,224.52c.15.59.1,1.09-.16,1.48l-9.63,4.73c-4.63,2.3-8.1,3.93-10.42,4.89-.28.11-.57.02-.88-.3.57-.79,1.23-1.36,1.99-1.71,6.36-2.88,12.72-5.92,19.1-9.1Z" style="fill: #ad9d19;"/>
        <path d="m226.42,226l.23,13.27-.03,2.29c-1.81.23-3.01.54-3.59.94-1.76,1.2-3.99,1.77-5.54,2.58-2.36,1.23-3.87,2.09-4.52,2.6-.83.65-1.58,1.14-2.23,1.48-1.33.69-2.45,1.55-3.82,1.99-.13.04-.26.01-.31-.08l-.23-.41c-.1-.17-.14-.33-.12-.4.23-.61.21-1.2-.05-1.79-.02-.04.01-.21.07-.42l.33-1.16c.04-.13-.04-.27-.17-.31-.01,0-.03,0-.05,0-.05,0-.1-.03-.13-.08-.1-.14-.15-.26-.14-.31.09-.48.37-.72.84-.74.26,0,.42-.02.47-.04.98-.37,2.24-.79,3.01-1.52.47-.44,1.44-.72,1.8-.93,2.69-1.49,5.46-2.55,8.19-4.12,1.18-.68,2.4-1.29,3.65-1.84.12-.05.23-.15.33-.27.39-.54.93-.83,1.61-.87.13,0,.24-.09.29-.2.31-.72-.4-.57-.74-.41-1.04.48-2.15.82-3.31,1.02-.12.02-.21.12-.22.24-.09.73-.79.58-1.28.73-1.97.61-3.81,1.49-5.52,2.66-.13.09-.12.14.03.17.66.12,4.27-1.72,4.98-2.03.69-.31.68.12.26.35-1.08.59-2.19,1.1-3.35,1.53-1.25.46-1.91,1.39-3.51,1.45-.14,0-.27.05-.39.13-.22.16-6.55,4.27-6.75,3.04-.02-.12.06-.25.2-.31l4.39-2.08c.17-.08.3-.19.33-.28.27-.84-4.12,1.4-4.15,1.42-.27.13-.6.02-.74-.25-.02-.04-.03-.07-.04-.11-.24-.97.02-1.4.78-1.29.14.02.28-.02.37-.11.84-.75,1.53-1.48,2.66-1.83,1.36-.43,4.46-1.3,4.33-1.81-.03-.11-.15-.17-.27-.14,0,0,0,0,0,0-2.28.64-4.47,1.52-6.56,2.64-.06.03-.13.15-.2.32-.15.38-.45.59-.9.62-.15,0-.28-.09-.29-.23,0,0,0,0,0,0l-.05-1.23c0-.11.08-.2.21-.22.91-.16,1.58-.2,2.46-.58,1.54-.67,3.13-1.22,4.76-1.66.13-.03.27-.03.41.02.86.28,5.38-1.76,6.61-2.13.12-.03.27-.19.06-.27-.59-.21-1.26-.17-2.01.12-1.44.57-3.78,1.82-5.29,1.6-.15-.02-.29,0-.41.04-3.46,1.34-5.53,2.11-6.21,2.31-.7.2-.89,0-.57-.63.06-.12.18-.2.32-.22,5.17-.94,9.66-4.36,14.46-6.41.8-.34,1.85-.38,2.73-.91.13-.08.21-.2.21-.32,0-.18-1.47.3-1.68.33-3.89.51-7.18,3.38-10.62,4.97-.5.23-4.15,2.12-4.3,1.38-.02-.12.05-.25.18-.31,4.14-2.1,8.29-4.16,12.47-6.16.54-.26,2.28-.3,1.23-1.23-.29-.26-.72-.26-1.02,0-.59.51-1.28.76-2.06.74-.11,0-.24.04-.36.12-.35.23-.73.33-1.14.31l9.63-4.73Z" style="fill: #383c3f;"/>
        <path d="m187.75,226.06l17.74,9.26c.31.31.6.41.88.3,2.32-.95,5.79-2.58,10.42-4.89.41.02.79-.08,1.14-.31.12-.08.25-.12.36-.12.78.02,1.47-.23,2.06-.74.29-.25.73-.25,1.02,0,1.05.93-.69.96-1.23,1.23-4.18,2.01-8.33,4.06-12.47,6.16-.13.06-.2.19-.18.31.15.74,3.8-1.14,4.3-1.38,3.45-1.59,6.73-4.47,10.62-4.97.21-.03,1.68-.51,1.68-.33,0,.12-.08.24-.21.32-.88.53-1.93.57-2.73.91-4.8,2.06-9.28,5.47-14.46,6.41-.14.02-.26.11-.32.22-.32.62-.13.83.57.63.68-.2,2.75-.97,6.21-2.31.13-.05.26-.07.41-.04,1.5.22,3.85-1.03,5.29-1.6.75-.29,1.42-.33,2.01-.12.21.07.07.23-.06.27-1.23.37-5.75,2.41-6.61,2.13-.14-.04-.28-.05-.41-.02-1.63.43-3.22.99-4.76,1.66-.87.38-1.55.42-2.46.58-.12.02-.21.12-.21.22l.05,1.23c0,.14.13.24.28.24,0,0,0,0,.01,0,.45-.03.74-.24.9-.62.07-.17.15-.29.2-.32,2.09-1.12,4.28-2,6.56-2.64.12-.03.25.02.28.13,0,0,0,0,0,0,.12.51-2.97,1.38-4.33,1.81-1.12.36-1.82,1.08-2.66,1.83-.09.09-.23.13-.37.11-.76-.11-1.02.31-.78,1.29.07.29.37.47.66.4.04,0,.08-.02.11-.04.04-.02,4.42-2.26,4.15-1.42-.03.09-.15.2-.33.28l-4.39,2.08c-.14.06-.22.19-.2.31.2,1.23,6.52-2.88,6.75-3.04.11-.08.25-.13.39-.13,1.59-.06,2.26-.99,3.51-1.45,1.15-.43,2.27-.94,3.35-1.53.42-.23.43-.66-.26-.35-.7.31-4.31,2.15-4.98,2.03-.15-.03-.16-.09-.03-.17,1.71-1.17,3.55-2.06,5.52-2.66.49-.15,1.19,0,1.28-.73.02-.13.11-.22.22-.24,1.17-.19,2.27-.53,3.31-1.02.34-.16,1.05-.31.74.41-.05.12-.16.19-.29.2-.68.04-1.21.33-1.61.87-.1.13-.21.23-.34.28-.81.34-1.64.6-2.37,1.07-3.13,2.02-6.34,3.16-9.45,4.88-.36.2-1.34.49-1.8.93-.77.73-2.04,1.15-3.01,1.52-.05.02-.2.03-.47.04-.47.02-.75.26-.84.74-.01.05.04.17.14.31.03.05.08.08.13.08.14.01.24.14.23.28,0,.02,0,.03,0,.05l-.33,1.16c-.06.21-.09.38-.07.42.26.59.27,1.19.05,1.79-.03.08.02.23.12.4l.23.41c.05.09.18.12.31.08,1.36-.44,2.49-1.29,3.82-1.99.65-.34,1.39-.83,2.23-1.48.65-.51,2.16-1.38,4.52-2.6,1.55-.81,3.78-1.38,5.54-2.58.59-.4,1.78-.71,3.59-.94l-.18,2.53c-1.03.75-2.5,1.57-4.42,2.46-1.54.71-6.61,3.17-15.21,7.36-.12.06-.26.06-.39,0-6.45-2.68-12.66-6.36-18.9-9.53l.04-1.91c.05-4.74.08-9.49.12-14.24,0-1.21.03-1.94.08-2.19Z" style="fill: #1a213c;"/>
        <path d="m226.65,239.27c1.3.86,2.48,1.46,3.54,1.79l1.73,1.03,2.97,1.55c.17.09.28.21.3.33.19,1.06.2,2.15.05,3.27-.09.68-.53,1.21-1.32,1.57-8.72,4.05-17.42,8.13-26.11,12.25-4.18,1.98-6.36,1.32-10.54-.87-5.51-2.89-11.04-5.74-16.58-8.57-1.57-.8-1.34-3.04-1.29-4.45.02-.55.27-.95.75-1.21,2.31-1.25,4.78-2.4,7.4-3.46l-.04,1.91c-.49.83-.41,1.45.25,1.85,1.69,1.03,2.86,1.71,3.48,2.02,4.92,2.45,9.76,4.9,14.54,7.33.22.11.48.12.7.02l8.72-4.08c2.02-.72,4.58-1.88,7.68-3.47,1.48-.76,3.64-1.65,3.99-2.28.12-.22.16-.35.14-.37-.13-.68-.33-1.12-.58-1.32l.18-2.53.03-2.29Z" style="fill: #63a998;"/>
        <path d="m226.44,244.1c.25.2.44.64.58,1.32l-11.81,6.13-8.72,4.08c-.22.1-.47.1-.7-.02-4.78-2.43-9.62-4.88-14.54-7.33-.63-.31-1.79-.99-3.48-2.02-.66-.4-.74-1.02-.25-1.85,6.25,3.17,12.46,6.85,18.9,9.53.13.05.27.05.39,0,8.6-4.19,13.67-6.65,15.21-7.36,1.92-.89,3.39-1.71,4.42-2.46Z" style="fill: #fff;"/>
        <path d="m227.01,245.41s-.02.15-.14.37c-.35.63-2.51,1.52-3.99,2.28-3.1,1.59-5.66,2.75-7.68,3.47l11.81-6.13Z" style="fill: #ad9d19;"/>
      </g>
      <g>
        <path d="m93.36,13.38c-6.34,2.02-12.27,4.91-17.8,8.68.31-2.06-.91-1.97-2.2-2.54-4.16-1.85-8.31-3.74-12.44-5.66,6.03-5.56,15.75-9.68,23.74-5.98,3.01,1.39,5.91,3.23,8.7,5.51Z" style="fill: #96d0bd;"/>
        <path d="m93.36,13.38c3.94,1.36,7.17,3.87,9.71,7.54.78,4.3,1.13,8.41,1.05,12.32-.03,1.38.45,1.58,1.44.62,3.34-3.27,7.38-5.18,12.13-5.74,5.27,2.41,7.73,6.66,7.4,12.75-.94,17.1-10.18,32.58-25.81,40.06-22.54,10.8-45.1,21.53-67.68,32.2-4.81,2.27-9.76,3.85-14.88,1.25-2.86-4.24-3.89-8.79-3.08-13.65.46-2.76,1.41-6.56,2.86-11.4,6.11-15.29,16.22-27.77,31.51-34.46,3-1.3,5.29-.22,7.15,2.12.51.64.84.59,1-.17,2.77-13.71,9.24-25.3,19.42-34.76,5.53-3.77,11.46-6.66,17.8-8.68Z" style="fill: url(#c);"/>
        <path d="m60.93,13.86c4.13,1.93,8.28,3.81,12.44,5.66,1.29.57,2.51.48,2.2,2.54-10.18,9.46-16.65,21.04-19.42,34.76-.16.76-.49.81-1,.17-1.85-2.34-4.15-3.42-7.15-2.12-15.29,6.69-25.4,19.17-31.51,34.46l-2.6.89c-.21.07-.44-.09-.51-.35-.01-.04-.02-.09-.02-.13-.15-5.23-6.54-6.35-10.32-8.93,4.36-12.37,12-22.17,22.9-29.4,4.71-3.13,9.41-5.82,14.46-3.61.23.11.51,0,.61-.22,0-.02.02-.04.02-.06,3.92-13.45,9.23-24.53,19.88-33.67Z" style="fill: #96d0bd;"/>
        <path d="m103.07,20.92c5.26,1.72,10.13,4.12,14.62,7.21-4.75.56-8.79,2.47-12.13,5.74-.99.96-1.47.75-1.44-.62.08-3.92-.26-8.03-1.05-12.32Z" style="fill: #96d0bd;"/>
        <path d="m3.04,80.82c3.78,2.57,10.17,3.69,10.32,8.93,0,.27.2.49.42.49.04,0,.07,0,.11-.02l2.6-.89c-1.45,4.84-2.4,8.64-2.86,11.4-.8,4.86.22,9.41,3.08,13.65-6.61-3.01-11.08-5.37-13.44-7.09-5.84-4.3-2.58-20.84-.24-26.47Z" style="fill: #96d0bd;"/>
      </g>
      <line x1="122.2" y1="264.89" x2="66.9" y2="235.21" style="fill: none; stroke: #96d0bd; stroke-linecap: round; stroke-linejoin: round; stroke-width: 7px;"/>
      <path d="m101.37,148.43c3.94.79,4.07,4.16,4.06,7.92l-.13,2.27.06,4.19c-.13.34-.12.93.02,1.77l-.08,4.21v3.21l.05,3.31.12,2.87-.04,3.28-.03,3.07v11.79l-.03,2.36v4.48c-.17,1.28-.16,2.72.03,4.31-.19,2.92.21,6.52-.58,8.99-1.2,3.76-3.59,5.25-7.38,6.96-5.23,2.36-10.44,4.77-15.63,7.21,0,0-17.15,7.75-22.75,10.15-2.59,1.29-5.83,3.3-8.65,1.5-.81-1.61-1.22-3.36-1.23-5.26-.19-19.78-.21-38.47-.07-56.09.05-6.63,2.44-9.37,8.23-12.08,12.31-5.76,24.62-11.51,36.95-17.23,2.36-1.1,4.72-2.17,7.09-3.21Zm-45.9,29.13l-.09,57.17c0,.11.09.19.21.19.03,0,.05,0,.08-.02l42.1-19.27c.38-.17.61-.55.6-.96-.15-4.44-.2-8.87-.15-13.3.15-14.41.11-28.82.09-43.21,0-.09-.06-.18-.14-.18-.02,0-.04,0-.06.01l-42.36,19.26c-.17.07-.28.2-.28.31Z" style="fill: #1a213c;"/>
      <path d="m77.19,227.01c-1.12.32-1.8,1.01-2.06,2.07-.3,1.27.83,2.53,2.08,1.71,1.19-.78,1.58-1.93,1.15-3.46-.39-.37-.78-.48-1.17-.32Z" style="fill: #fdfdfd;"/>
      <path d="m72.04,83.26c-1.09.54-2.03.59-2.81.17-.78-.43-1.17-1.21-1.17-2.34v-18.29c0-1.15.39-2.32,1.17-3.52.78-1.2,1.71-2.07,2.81-2.61l2.11-1.04v-3.25c0-2.5.82-5.02,2.47-7.57,1.64-2.55,3.65-4.41,6.02-5.58s4.38-1.29,6.03-.36c1.65.93,2.47,2.64,2.47,5.14v3.25l2.11-1.04c1.1-.54,2.05-.6,2.84-.17s1.18,1.22,1.18,2.37v18.29c0,1.14-.39,2.3-1.18,3.5-.79,1.2-1.73,2.07-2.84,2.61l-21.22,10.45Zm10.62-15.12c.9-.44,1.66-1.14,2.3-2.1s.95-1.89.95-2.8-.32-1.52-.96-1.92-1.41-.38-2.3.06-1.66,1.18-2.3,2.21-.95,1.99-.95,2.89.32,1.51.96,1.84,1.41.27,2.3-.17Zm-4.53-14.47l9.05-4.46v-3.24c0-1.37-.43-2.3-1.3-2.79s-1.93-.42-3.21.21-2.35,1.62-3.23,2.96-1.31,2.7-1.31,4.07v3.24Z" style="fill: #fff; opacity: .48;"/>
      <path d="m37.99,97.89c-1.28-.59-2.28-1.51-2.98-2.77-.7-1.26-1.05-2.8-1.05-4.61,0-3.7,1.24-7.6,3.71-11.7,2.47-4.11,5.52-7.28,9.14-9.51v-3.38l7.6,1.49-7.6,10.48v-3.34c-2.19,1.39-4.03,3.34-5.53,5.84-1.5,2.5-2.25,4.88-2.25,7.13,0,1.22.27,2.25.82,3.08s1.26,1.42,2.14,1.78l-4,5.52Zm9.6,1.56l-7.6-1.49,7.6-10.48v3.34c2.19-1.39,4.03-3.34,5.53-5.84s2.25-4.88,2.25-7.13c0-1.25-.27-2.28-.82-3.09s-1.3-1.38-2.25-1.7l4.03-5.5c1.33.51,2.35,1.4,3.05,2.68s1.05,2.82,1.05,4.63c0,3.7-1.24,7.6-3.71,11.7s-5.52,7.28-9.14,9.51v3.38Z" style="fill: #fff; opacity: .48;"/>
      <path d="m79.49,162.34c-.11-.24-1.37.11-2.8.79s-2.5,1.42-2.39,1.66h0c.11.24,1.37-.11,2.8-.79s2.5-1.42,2.39-1.66h0Z" style="fill: #fdfdfd;"/>
      <g>
        <path d="m164.43,188.85l2.05.6c-2.05.72-4.52,1.85-7.43,3.38-4.47,2.36-14.97,7.37-31.49,15.02-3.82,1.77-13.16,6.27-28,13.49-5.71,3.43-6.77,1.56-7.16.47l8.54-4.94,5.44-2.62,3.89-1.9,5.33-2.5,2.21-1.01,16.79-8.01,24.37-11.6c1.8-.44,3.62-.57,5.46-.38Z" style="fill: #b6b6b5;"/>
        <path d="m166.48,189.44c1.75.46,3.15,1.52,4.21,3.17,0,23.13.02,31.78.05,54.89,0,4.07-.01,7.88-.05,11.43-.63,2.15-1.58,3.88-2.83,5.21-21.63,10.14-43.32,20.14-65.07,29.98-3.36,1.52-6.04,3.16-8.04-.45-.45-.81-.53-2.64-.53-3.58,0-24.75,0-35.03,0-59.78,0-4.37,1.17-7.22,5.34-8.98,14.84-7.22,24.18-11.72,28-13.49,16.52-7.65,27.01-12.66,31.49-15.02,2.91-1.53,5.38-2.66,7.43-3.38Zm-60.09,35.06l-8.44,4.01c-.65.31-.96.82-.94,1.54.47,14.9-.02,12.39.06,33.3l.04,25.83c0,.19.16.35.35.34,0,0,0,0,0,0,.71-.04,1.42-.22,2.12-.54,22.7-10.4,45.37-20.86,68.02-31.38.13-.06.21-.19.21-.32v-16.53s.02-44.22.02-44.22c0-.3-.24-.53-.53-.51-.06,0-.11.01-.16.03" style="fill: #1a213c;"/>
        <path d="m98.56,295.85s-6.26.86-8.26-1.89c-.37-10.44-.46-20.88-.25-31.32.05-2.64.02-5.14-.11-7.47l.04-1.78v-9.94l.04-7.77c.12-1.85.08-3.47-.11-4.86l.08,9.74-.05-3.57.03-2.73-.04-4.08.18-2.07.68-3.46,1.63-2.81s0,2.33,5.29.54c-3.11,2.37-3.49,4.97-3.48,7.96-.01,24.75-.01,35.03,0,59.78,0,.94.09,2.77.53,3.58,2,3.61,4.68,1.97,8.04.45l-4.22,1.73Z" style="fill: #808185;"/>
        <path d="m106.39,224.5l-8.44,4.01c-.65.31-.96.82-.94,1.54.47,14.9-.02,12.39.06,33.3l.04,25.83h0c0,.2.16.35.36.34.71-.04,1.42-.22,2.12-.54,22.7-10.4,45.37-20.86,68.02-31.38.13-.06.21-.19.21-.32v-16.53s.02-44.22.02-44.22c0-.05,0-.11-.02-.16-.09-.28-.39-.42-.67-.32-2.3.82-60.37,28.44-60.76,28.45Z" style="fill: #fff;"/>
        <path d="m141.55,240.52s.03.01.04.02c.01.01.02.03.03.04-.02-.02-.04-.05-.07-.07Z" style="fill: #fff;"/>
        <path d="m141.66,240.71s0-.04,0-.06c0,.02,0,.04,0,.06Z" style="fill: #fff;"/>
        <path d="m119.19,273.66c-4.02,2.06-7.47,2.29-10.35.69-2.88-1.6-4.32-4.62-4.32-9.05,0-3.8,1.06-7.75,3.17-11.84,2.11-4.09,4.87-7.32,8.27-9.7.91-4.58,2.76-8.94,5.53-13.08,2.78-4.14,5.99-7.39,9.64-9.75v25.24l-3.23-1.94c-.46-.26-.98-.24-1.59.07s-1.11.79-1.52,1.46c-.46.73-.68,1.42-.68,2.08s.23,1.12.68,1.38l6.53,3.85c.58.34,1.26.3,2.05-.1s1.47-1.07,2.05-2l6.59-10.57c.46-.73.67-1.43.65-2.1s-.24-1.12-.65-1.36c-.46-.26-.99-.23-1.62.12s-1.14.87-1.55,1.58l-3.23,5.25v-25.24c4.27-1.6,7.89-1.38,10.85.65,2.96,2.03,4.59,5.44,4.88,10.22v1.63c3.11-1.28,5.68-1.22,7.71.16s3.05,3.83,3.05,7.36-1.16,7.29-3.48,11.01-5.14,6.43-8.46,8.13l-30.97,15.86Z" style="fill: #b6b6b5;"/>
      </g>
    </g>
  </g>
</svg>