<?xml version="1.0" encoding="UTF-8"?>
<svg xmlns="http://www.w3.org/2000/svg" xmlns:xlink="http://www.w3.org/1999/xlink" viewBox="0 0 341.63 322.45">
  <defs>
    <linearGradient id="b" x1="-377.14" y1="182.37" x2="-416.24" y2="54.66" gradientTransform="translate(-124.51) rotate(-180) scale(1 -1)" gradientUnits="userSpaceOnUse">
      <stop offset="0" stop-color="#da7629"/>
      <stop offset="1" stop-color="#fcc357"/>
    </linearGradient>
    <linearGradient id="c" x1="-424.05" y1="221" x2="-424.05" y2="159.75" xlink:href="#b"/>
  </defs>
  <g style="isolation: isolate;">
    <g id="a" data-name="Layer 1">
      <path d="m291.49,171.52c8.23-27.29,8.24-29.31,8.5-31.28,3.94-8.56,7.74-17.18,11.4-25.86,4.09-9.79,8.6-21.12,10.3-32.14,1.67-10.78-1.49-21.27-7.56-30.13-2.93-4.34-6.42-8.17-10.48-11.48-2.78-2.23-5.8-4.12-9.06-5.65-2.71-1.3-5.54-2.3-8.49-2.99,1.72-.29,3.41-.32,5.09-.07,13.51,2,25.43,10.57,32.24,22.3,10.67,18.39,5.6,37.34-1.71,55.67-4.61,11.54-9.53,22.96-14.76,34.24-.05.11-.15.2-8.72,25.44l-6.75,1.96Z" style="fill: #fdcc89;"/>
      <path d="m251.16,59.76c6.87,4.23,12.71,9.58,17.52,16.06,4.78,6.44,8.28,13.52,10.51,21.23l1.08,4.13c.09.28.24.51.46.69.09.08.23.09.36.05,2.95-.99,5.94-1.1,8.97-.32,3.08.99,5.6,2.77,7.55,5.34,1.55,2.37,2.33,4.99,2.32,7.86-.01,7.95-.05,15.9-.11,23.85-.07.47,0,1,.19,1.58,3.94-8.56,7.74-17.18,11.4-25.86,4.09-9.79,8.6-21.12,10.3-32.14,1.67-10.78-1.49-21.27-7.56-30.13-2.93-4.34-6.42-8.17-10.48-11.48-2.78-2.23-5.8-4.12-9.06-5.65-2.71-1.3-5.54-2.3-8.49-2.99l-5.11-.39c-3.19-.06-6.28.43-9.27,1.48-11.88,4.03-18.2,14.98-20.55,26.7Zm48.53,48.48s-.01.04-.02.05c0-.02.02-.04.02-.07,0,0,0,.01,0,.02Zm-.09.14s.03-.01.04-.03c-.01.02-.03.02-.04.03Zm-15.53-72.32s0,.03,0,.04c0-.01,0-.03,0-.04,0,0,0,0,0,0Zm-.04.11s.02-.02.03-.03c0,.01-.02.02-.03.03Zm-11.94-1.38c-.07.04-.11.11-.14.19.02-.08.07-.15.14-.19Zm-.11.51s-.03-.06-.03-.09c-.02-.07-.01-.13,0-.19-.02.09,0,.19.04.28Z" style="fill: url(#b);"/>
      <path d="m266.56,59.84l-9.24,25.66c-.57,1.59-.54,3.31.1,5.15.64,1.84,1.69,3.25,3.17,4.24l28.28,18.99c1.46.98,2.91,1.25,4.35.81s2.46-1.46,3.03-3.05l9.24-25.66c.58-1.61.56-3.34-.06-5.18s-1.66-3.25-3.12-4.23l-2.82-1.89,1.64-4.56c1.26-3.5,1.24-7.21-.08-11.13-1.31-3.91-3.55-6.93-6.71-9.05-3.16-2.12-6.28-2.7-9.36-1.73-3.08.97-5.25,3.2-6.51,6.71l-1.64,4.56-2.82-1.89c-1.47-.99-2.94-1.26-4.4-.82-1.46.44-2.48,1.47-3.06,3.08Zm10.49,23.13c.44-1.23,1.27-2.07,2.49-2.5,1.21-.44,2.42-.25,3.61.55s2.03,1.99,2.52,3.57c.48,1.57.5,2.99.05,4.24s-1.27,2.05-2.44,2.38c-1.18.33-2.36.1-3.56-.7-1.2-.8-2.05-1.94-2.57-3.41-.52-1.47-.55-2.85-.09-4.12Zm6.73-24.5c.69-1.92,1.85-3.14,3.46-3.65s3.27-.2,4.98.95c1.7,1.14,2.91,2.75,3.61,4.82.7,2.07.71,4.06.01,5.98l-1.64,4.55-12.06-8.09,1.64-4.55Z" style="fill: #feddc0; mix-blend-mode: multiply;"/>
      <path d="m235.35,93.41l-68.6-28.09-.15.31c0-.09.04-.2.15-.31l-19.74-8.06-58.85-24.4c-.11.29-.15.6-.14.92,1.06,22.44-.69,44.93-7.06,66.55-1.49,5.07-2.75,8.88-3.76,11.42-3.66,9.45-7.99,18.58-13,27.4l-.94,1.31c-.74,1.76-1.64,3.43-2.7,5.02l-.71,1.24c-3.22,5.38-6.55,10.64-9.99,15.78-.26.48-.54.83-.85,1.08-.44.66-.9,1.29-1.39,1.9-1.46,1.81-2.46,3.66-4.19,5.29l-1.49,2.03c-.17.51-.48.9-.92,1.19l-3.64,4.65-7.72,9.47c-.16.21-.25.44-.29.69-.02.11.06.22.18.25,7.21,1.99,14.52,5.2,21.46,8.02.75.15,1.42.45,2.01.91,1.75.37,3.36,1.07,4.82,2.1l2.33.82c1.8.6,3.54,1.33,5.22,2.2,2.41.91,6.81,2.66,13.2,5.25.39.16.65.3.78.41,5.49,2.05,10.94,4.19,16.36,6.42.09.03.2.16.35.38l17.45,6.77,36.31,14.52v-.43s28.67,11.13,28.67,11.13c0,0,36-54.48,45.46-81.09,13.28-37.35,11.39-73.06,11.39-73.06Z" style="fill: #fff;"/>
      <path d="m188.8,41.76l15.6,6.33,44.18,17.95,1.39.79c.45.68.38,1.23-.21,1.66-.07.05-.21.05-.38,0l-1.25-.33c-.06-.02-.19.02-.35.1l-1.36.7-68.7-28.21-24.56-9.99-13.82-5.73-15.61-6.38-11.69-4.84-10.48-4.23c-5.76-2.4-11.53-4.8-17.3-7.17-.12-.05-.57-.15-1.34-.3-.53-.1-.93-.39-1.21-.87,3.04-1.35,4.01-1.77,7.28-.43,33.28,13.62,66.55,27.27,99.81,40.94Z" style="fill: #c9c2c4;"/>
      <path d="m100.44,35.92l11.11,4.47,11.87,4.79,16.3,6.53,13.52,5.56,23.57,9.54c3.13,1.78,6.47,2.95,10.03,3.51.12.7-.04,1.47-.49,2.33-.16.31-.53.45-.85.32l-7.2-2.84c-3.61-1.7-7.45-3.31-11.55-4.82l-19.74-8.06-58.85-24.4c-.15-.57-.17-1.14-.04-1.7.02-.09.11-.15.2-.13.01,0,.02,0,.03,0l12.09,4.88Z" style="fill: #071c2f;"/>
      <path d="m241.41,55.91c2.78,2.56,5.13,5.45,7.05,8.65.11.19.12.43.17.65l-.62-.33c-.15-.08-.24-.16-.29-.24-.5-.79-1.88-2.43-3.1-2.47-.15,0-.28-.04-.37-.1-5.44-3.63-10.88-7.58-16.72-10.49-3.87-1.93-7.91-3.43-12.13-4.48-3.01-.75-5.52-.36-8.46-.44-.11,0-.24.04-.35.13-.75.62-1.83.13-2.18,1.29l-15.6-6.33c1.31-.19,2.6-.28,3.91-.6,15.41-3.69,31.37,1.59,43.52,10.88,2.47,1.89,4.2,3.18,5.17,3.87Z" style="fill: #d9eee7;"/>
      <path d="m248.63,65.21c.41.38.4.65-.04.83l-44.18-17.95c.36-1.16,1.43-.66,2.18-1.29.11-.09.23-.14.35-.13,2.93.08,5.45-.31,8.46.44,4.22,1.05,8.26,2.54,12.13,4.48,5.84,2.91,11.28,6.87,16.72,10.49.09.06.22.1.37.1,1.22.04,2.6,1.67,3.1,2.47.05.08.15.16.29.24l.62.33Z" style="fill: #d9eee7;"/>
      <path d="m96.99,49.1c-.95-.45-1.53-.92-1.06-2.01.04-.1.16-.14.27-.1,0,0,0,0,0,0,12.55,5.76,25.18,11.35,37.88,16.78,1.03.44,1.57.98.86,2.07-.06.1-.19.13-.3.08-12.68-5.32-25.23-10.93-37.64-16.83Z" style="fill: #bae8fe;"/>
      <path d="m251.16,59.76c6.87,4.23,12.71,9.58,17.52,16.06,4.78,6.44,8.28,13.52,10.51,21.23l1.08,4.13c-.4-.09-.67.09-.82.54-3.87-1.44-7.71-3.04-11.5-4.8-1.39-4.19-3.17-8.2-5.36-12.02-.78-1.99-1.8-3.84-3.05-5.56-.84-1.15-1.55-2.37-2.14-3.66-.06-.14-.16-.24-.26-.28-.13-.04-.23,0-.31.11-.84-4.1-3.12-7-6.85-8.68l-1.39-.79c.44-.17.46-.45.04-.83-.05-.22-.06-.46-.17-.65-1.92-3.2-4.27-6.09-7.05-8.65,3.4.89,6.66,2.17,9.76,3.84Z" style="fill: #96d0bd;"/>
      <path d="m145.65,79.54c5.79,2.42,11.56,4.85,17.32,7.29.65.28.79.88.43,1.8-.05.14-.21.21-.35.16,0,0,0,0-.01,0l-17.06-7.14c-17.81-7.47-33.39-13.62-49.78-21.18-.17-.08-.29-.2-.29-.29v-1.31c0-.1.09-.18.21-.17.03,0,.06,0,.08.02,16.3,7.35,32.91,14,49.43,20.82Z" style="fill: #bae8fe;"/>
      <path d="m189.9,108.53c-.45.02-.58.16-.42.42.07.11.08.23.02.29l-.7.71c-.12.13-.2.1-.23-.08-.05-.25-.18-.34-.39-.27-.18.06-.33.1-.35.11l-.94-.25c-.17-.05-.29-.09-.35-.14-1.23-.99-2.52-1.89-3.86-2.72-1.81-1.11-2.25-2.45-4.66-2.89-.11-.02-.24.01-.36.08-.34.2-.68.2-1.02,0,1.2-11.18,1.75-22.4,1.68-33.67l7.2,2.84c.32.13.69-.01.85-.32.44-.86.61-1.63.49-2.33-.41-5.31,4.32-4.33,7.4-3.07-.01.18.02.35.1.53.05.11.16.2.29.26,9.63,4.08,18.04,7.31,29.02,11.98,3.88,1.65,4.85,3.53,4.94,7.65.07,3.07,4.06,4.4,6.44,5.29.19.07.31.25.3.44-.2,12.68-.24,24.92-2.31,37.89-.3.05-.44.27-.42.66,0,.09-.06.17-.15.18-.03,0-.05,0-.08-.01-.08-.04-.17-.04-.25,0-.08.04-.14.16-.13.29.09,1.71-.03,1.82-.37.34-.15-.67.35-.99-.59-1.37-1.05-.42-1.77-.88-2.17-1.39-.43-.54-.56-.91-1.31-1.02-2.58-.37-3.83-.96-5.49-2.78-.1-.11-.23-.16-.33-.14-.26.07-.43.24-.49.5-.05.18-.07.19-.08.03-.03-.53-.09-.56-.18-.08-.05.28-.86,1.49-.34-.25.13-.44.02-1.02-.33-1.72l-30.42-16.02Zm8.88-30.94c.79.57,2.12,1.25,4.01,2.04,4.72,1.98,9.44,3.94,14.17,5.88.98.4,2.14.49,2.61-.56.74-1.64-.77-3.25-2.23-3.85-7.58-3.15-14.02-5.73-19.31-7.75-.54.12-.96.32-1.28.61-1.11,1.03.56,4.79,2.02,3.64Z" style="fill: #fcfdfd;"/>
      <path d="m194.24,67.24l32.75,13.38c1.54,1.06,2.59,2.4,3.13,4.01.61,1.82-.64,4.82,1.51,5.89,1.49.74,4.11,1.82,7.85,3.24.11.04.19.15.19.27.08,11.86.12,23.77-1.18,35.56-1.78,14.75-5.41,29.03-10.9,42.83-.88,2.21-1.75,4.41-2.62,6.62-3.6,8.25-7.46,16.38-11.57,24.4l-1.2,2.09c-.86-.1-1.47.26-1.85,1.09-.04.08-.15.17-.3.24-.24.12-.27.29-.09.51.03.05-.04.19-.17.33-.8.86-1.27,1.86-1.43,3.01-.02.13-.07.25-.15.33-.67.76-1.17,1.63-1.49,2.59-.05.14-.1.15-.15.02-.13-.31-.13-.64-.01-1,.09-.26.04-.34-.15-.27-.21.09-.27.27-.17.53.06.17,0,.2-.22.09-.12-.06-.23-.16-.32-.27-.05-.07-.2-.11-.37-.11l-1.91.07c-.65.02-.82-.27-.52-.89.21-.44.51-.78.89-1.02.09-.06.09-.21,0-.33,0,0,0,0,0-.01l-.86-1.16c8.33-13.97,15.62-27.99,21.04-42.8,1.06-2.61,2-5.27,2.8-7.97,2.84-8.89,4.93-17.96,6.28-27.2,2.07-12.97,2.11-25.21,2.31-37.89,0-.2-.12-.37-.3-.44-2.39-.89-6.37-2.22-6.44-5.29-.1-4.13-1.06-6-4.94-7.65-10.98-4.68-19.39-7.91-29.02-11.98-.13-.06-.24-.15-.29-.26-.08-.18-.12-.35-.1-.53Z" style="fill: #e9e8e8;"/>
      <path d="m98.05,72.85c-1.22-.56-3.94-1.28-2.66-3.16.06-.09.19-.11.29-.05.91.52,1.83,1,2.76,1.42,8.9,4,17.84,7.9,26.82,11.71.17.07.28.19.27.29l-.15,1.65c0,.07-.14.09-.3.04-.02,0-.04-.01-.06-.02-8.43-3.5-17.43-7.45-26.99-11.86Z" style="fill: #c2d9fe;"/>
      <path d="m259.52,79.33c.24.78.57,1.52,1,2.22.67,1.12,1.36,2.23,2.06,3.34,2.19,3.82,3.98,7.83,5.36,12.02.04.58.09.96.15,1.14.79,2.36,1.5,4.75,2.13,7.15,1.37,6.71,2.12,13.95.8,20.65-.52,2.61-1.45,5.22-2.79,7.83-2.51-1.08-6.03-2.87-7.79-.66-1.1.29-2.21.24-3.32-.14l-.02-21.03v-19.44l-.27-16.91c.08-.12.18-.15.31-.11.1.03.19.14.26.28.59,1.29,1.3,2.52,2.14,3.66Z" style="fill: #488975;"/>
      <path d="m143.56,101.28l18.86,7.93c.23.1.35.32.29.52-.1.33-.13.66-.08,1.02.07.51-.14.66-.63.45l-18.02-7.59c-16.64-7.06-33.29-14.03-49.68-21.68-.19-.09-.32-.2-.34-.27-.11-.52-.05-1.02.18-1.5.05-.1.21-.12.36-.05,16.27,7.26,32.62,14.31,49.06,21.18Z" style="fill: #bdd6ff;"/>
      <path d="m142.14,111.55l18.88,7.99c.18.08.3.19.29.27l-.25,1.38c-.02.1-.16.14-.31.1-.02,0-.03,0-.05-.02l-8.26-3.38c-25.72-10.55-40.47-16.33-60.33-25.63-.15-.07-.25-.18-.23-.26l.19-1.61c.01-.09.11-.15.22-.13.02,0,.04.01.07.02,15.72,7.6,32.14,14.12,49.78,21.26Z" style="fill: #a8cdfe;"/>
      <path d="m267.94,96.92c3.79,1.76,7.63,3.36,11.5,4.8-2.31,1.24-4.71,2.25-7.22,3.01l-2,.49c-.63-2.41-1.34-4.79-2.13-7.15-.06-.18-.11-.56-.15-1.14Z" style="fill: #96d0bd;"/>
      <path d="m142.92,122.3l-1.95,1.24c-.16-.54-.54-.75-1.14-.64-.13.03-.27.01-.4-.04-16.78-6.44-33.48-13.08-50.1-19.91-.29-.12-.45-.37-.37-.58l.45-1.18c.04-.1.2-.13.36-.07,0,0,0,0,0,0,17.6,7.34,35.32,14.4,53.15,21.16Z" style="fill: #ace1fd;"/>
      <path d="m290.05,101.6c3.08.99,5.6,2.77,7.55,5.34,1.55,2.37,2.33,4.99,2.32,7.86-.01,7.95-.05,15.9-.11,23.85-.48-.1-.8-.37-.96-.81-.04-.11-.14-.18-.26-.19-.73-.03-.74-1.45-2.07-1.59-.15-.02-.26-.05-.31-.09-1.71-1.59-3.59-1.9-5.65-.93-.11.05-.24.07-.38.06-1.2-.12-2.35.05-3.44.52-.6.26-.84.87-.72,1.82.12.93-1.54,1.25-2.16,1.31-.13.01-.25-.03-.26-.09,0,0,0,0,0,0,0-.06-.02-.1-.07-.12-.21-.11-.33-.17-.35-.17-.54.01-1.01-.16-1.42-.52-.09-.08-.22-.14-.37-.17l-2.41-.47c-.16-.03-.29-.12-.34-.23-.17-.39-.41-.71-.73-.98-.09-.08-.22-.13-.37-.15-.79-.1-2.87-.12-3.43-.66-.28-.27-.44-.62-.49-1.06-.01-.14-.09-.26-.19-.29-.1-.03-.2-.04-.31-.03,3.61-8.06,3.95-16.36,1.03-24.89-.58-1.7-1.23-3.09-1.94-4.19,2.51-.76,4.91-1.76,7.22-3.01.15-.45.42-.62.82-.54.09.28.24.51.46.69.09.08.23.09.36.05,2.95-.99,5.94-1.1,8.97-.32Z" style="fill: #96d0bd;"/>
      <path d="m220.65,126.27c-.52,1.73.29.52.34.25.09-.48.15-.45.18.08,0,.16.03.15.08-.03.06-.26.23-.43.49-.5.1-.03.23.03.33.14,1.66,1.81,2.91,2.41,5.49,2.78.76.11.89.48,1.31,1.02.4.51,1.12.98,2.17,1.39.94.38.44.7.59,1.37.34,1.48.47,1.37.37-.34,0-.13.04-.25.13-.29.08-.04.17-.04.25,0,.08.04.17,0,.21-.08.01-.03.02-.06.02-.08-.02-.39.12-.62.42-.66-1.35,9.24-3.44,18.3-6.28,27.2l-.83-1c-.12-.14-.26-.23-.36-.22-.45.05-.89-.02-1.31-.19-.08-.04-.24,0-.41.08-.56.28-1.11.27-1.67-.04-.12-.06-.19-.18-.17-.29.11-.51-.18-.63-.86-.37.37-.69.47-1.23.31-1.65-.04-.11-.15-.21-.29-.26l-19.28-7.87c.72-.85-.81-1.54-1.35-1.89-.13-.09-.23-.19-.29-.3-1.16-2.27-2.96-3.78-5.4-4.53-.13-.04-.25-.13-.36-.25-.8-.93-1.78-1.56-2.96-1.89-.11-.03-.21-.1-.29-.19-.51-.57-1.08-1.06-1.72-1.45-.7-.43-1.68-.45-2.49-.95-.16-.1-.29-.16-.34-.17-1.08-.03-1.88-.52-2.41-1.46-.05-.09-.18-.18-.34-.25-1.2-.5-2.31-1.13-3.34-1.89-1.7-1.25-4.08-1.9-5.27-2.72-.75-.52-1.34-.86-1.74-1.02-.14-.06-.25-.13-.32-.22-.9-1.08-1.18-2.23-.84-3.45,2.05-7.35,3.45-14.11,4.21-20.27.34.19.68.19,1.02,0,.12-.07.25-.1.36-.08,2.41.43,2.85,1.77,4.66,2.89,1.35.83,2.63,1.74,3.86,2.72.06.05.18.1.35.14l.94.25s.17-.05.35-.11c.21-.07.35.02.39.27.03.18.11.21.23.08l.7-.71,31.16,17.04Z" style="fill: #e9e8e8; opacity: .31;"/>
      <path d="m272.22,104.72c.71,1.1,1.36,2.49,1.94,4.19,2.92,8.53,2.58,16.83-1.03,24.89-.41.46-.61,1-.6,1.61l-4.3-1.73c1.35-2.6,2.28-5.21,2.79-7.83,1.32-6.71.57-13.94-.8-20.65l2-.49Z" style="fill: #488975;"/>
      <path d="m146.69,134.94l-.1.77c-3.97-1.64-8.4-3.25-11.96-4.7-16.01-6.51-32.1-13.09-48.27-19.74-.19-.08-.3-.27-.25-.45l.31-1.12c.05-.17.22-.26.4-.21.01,0,.03,0,.04.02,17.93,7.74,36.18,14.74,54.19,22.3.73.3,1.33,1.09,2.39,1.19.13.01.25.07.35.15.99.9,1.94.62,2.9,1.78Z" style="fill: #b4e9fe;"/>
      <rect x="104.25" y="103.42" width="1.72" height="47.78" rx=".35" ry=".35" transform="translate(-52.31 177.08) rotate(-68)" style="fill: #b4e9fe;"/>
      <path d="m120.1,141.86c-.36-.07-.56.05-.6.35,0,.04.01.08.04.11.19.18.15.2-.11.07-1.59-.43-3.15-.94-4.68-1.54-11.72-4.55-23.39-9.19-35.04-13.93-.12-.05-.19-.16-.18-.27.15-1.77,1.23-1.11,2.25-.71,11.35,4.51,22.69,9.05,34.02,13.6,1.55.62,2.85,1.48,4.29,2.31Z" style="fill: #ace1fd;"/>
      <g>
        <path d="m145.57,129.7c.84-.53,2.33-2.18,3.11-2.73s.83-.21,1.18.2c0,0,1.55-.24,1.86.14.86,1.09,3.64,2.98,5.18,3.67,0,1.79.26,3.32,1.16,4.89-1.92,1.09-3.77,2.2-5.84,3-.18.07-.29.06-.33.29-.05.23-.07.75-.1.95-.04.2-.07.38-.16.44-.09.06-.28.29-.33.15-.13-.37-.28-1.41-.37-1.78s-.19-.45-.32-.61c-.45-.54-1.14-1.18-1.53-1.6-.93-1.02-1.49-1.94-2.41-2.87.05-.26.22-.45.24-.73.09-1.05-2.17-2.87-1.34-3.4Z" style="fill: #ffbf92;"/>
        <path d="m143.4,123.2c.5-.75.49-1.32,1.37-1.88.5-.32,1.66-.52,2.28-.87.94-.52,1.82-1.18,2.84-1.51.17-.06.25-.08.43-.1,2.21-.33,3.65.39,5.48,1.63,2.27,1.33,3.02,3.6,3.1,4.18.42,3.38-.07,5.77-1.78,8.67-1.49-.75-3.2-3.36-4.67-4.12-.3-.16-.48.09-.51.39-.04.47-.3.46-.47-.13-.13-.43-.11-1.32-.42-1.79-.25-.38-.76.27-1.03-.16.18.15-.45-.46-1.18-.27-.67.17-2.56,2.18-2.97,2.27-1.68,1.88-1.47-.77-1.56-.81-2.07-.81-1.81-1.93-1.4-3.93.07-.35.24-1.18.5-1.56Z" style="fill: #0b122f;"/>
      </g>
      <path d="m268.22,133.68l4.3,1.73,15.31,6.08c.21,1.18-.08,2.2-.88,3.07-.08.09-.21.12-.33.08-1.67-.57-2.82-.97-3.45-1.21-7.66-2.91-15.26-5.94-22.82-9.09-.12-.59-.09-1.03.08-1.31,1.76-2.22,5.29-.42,7.79.66Z" style="fill: #fef4d0;"/>
      <rect x="97.2" y="118.46" width="1.72" height="47.59" rx=".64" ry=".64" transform="translate(-70.57 179.89) rotate(-68)" style="fill: #b4e9fe;"/>
      <path d="m260.43,133.03c-.18.28-.21.72-.08,1.31,0,.96.29,1.82.89,2.57.41.52,1.13.99,2.15,1.39,3.29,1.32,6.53,2.67,9.72,4.05-.28,4.56-.37,9.1-.27,13.62l-.16,8.03c-2.99-1.08-5.95-2.23-8.88-3.46-.78-.33-1.6-.5-2.39-.56-.27-.02-.51.13-.6.38-.31.81-.36,1.63-.16,2.46-.03.9.1,1.77.4,2.62-.15.53-.49.88-1.02,1.04-.15.05-.3,0-.33-.12-.1-.33-.32-.54-.66-.65-.09-.03-.19-.16-.26-.35l-.26-.73c-.07-.21-.17-.36-.24-.38-.14-.04-.26-.01-.37.08-.07.06-.18.03-.24-.06,0-.01-.02-.03-.02-.04-.3-.69-.46.45-.46.61.06,5.13.04,10.27-.06,15.41l-.03-13.7v-30.73l.02-2.95c1.11.38,2.22.43,3.32.14Z" style="fill: #488975;"/>
      <path d="m273.12,133.8c.11-.01.22,0,.31.03.1.03.17.15.19.29.05.43.21.78.49,1.06.55.54,2.63.56,3.43.66.15.02.28.07.37.15.31.27.56.6.73.98.05.12.18.2.34.23l2.41.47c.15.03.28.09.37.17.41.36.88.53,1.42.52.02,0,.14.06.35.17.05.02.07.07.07.12,0,.06.12.11.25.1,0,0,0,0,0,0,.62-.06,2.28-.38,2.16-1.31-.13-.95.11-1.56.72-1.82,1.09-.47,2.24-.64,3.44-.52.14.01.27,0,.38-.06,2.06-.97,3.95-.66,5.65.93.05.04.16.08.31.09,1.33.14,1.34,1.56,2.07,1.59.12,0,.22.08.26.19.16.44.48.71.96.81-.07.47,0,1,.19,1.58-.26,1.97-.28,3.99-.06,6.07.05,4.83-.06,9.66-.32,14.49-4.11-1.74-8.28-3.34-12.49-4.8-2.61-1.22-5.26-2.33-7.96-3.35-1.65-.62-3.65-1.05-4.15,1.32l-.32,1.44c-.03.13-.12.24-.23.26l-1.63.32c-.1-4.53-.01-9.07.27-13.62l14.59,5.44c.61.23,1.21.19,1.82-.1.92-.45,1.5-1.18,1.74-2.19.52-2.24-1.43-3.71-3.42-4.02l-15.31-6.08c0-.61.2-1.15.6-1.61Z" style="fill: #96d0bd;"/>
      <path d="m260.34,134.34c7.56,3.14,15.16,6.17,22.82,9.09.63.24,1.78.64,3.45,1.21.12.04.25,0,.33-.08.8-.87,1.09-1.89.88-3.07,1.99.31,3.94,1.78,3.42,4.02-.23,1-.81,1.73-1.74,2.19-.61.3-1.21.33-1.82.1l-14.59-5.44c-3.2-1.38-6.44-2.73-9.72-4.05-1.02-.41-1.74-.87-2.15-1.39-.6-.75-.89-1.61-.89-2.57Z" style="fill: #ff905c;"/>
      <path d="m145.35,152.59s.01-.05.02-.07l.3-2.38c.2-1.93.85-3.65,1.96-5.15,1.06-1.45,2-2.74,3.41-3.72,3.26-.87,6.04-2.05,8.35-3.53.96-.62,1.03-1.42.2-2.4,2.15-.66,4.2-.45,6.15.6,3.68,2.95,5.48,8.66,7.64,13.79l.2.5.23.71c1.02,2.57,3.8,7.82,1.6,10.12l-1.2.79-2.22,1.08c-.18-.97-2.01-11.31-2.18-11.25-.05.01-.09.09-.1.19-.09,1.81-.08,3.8-.6,5.45-1.42,4.52-4.56,7.5-9.4,8.96-2.62.79-7.23.8-8.41-2.21-.08-.19-.16-.19-.26-.01l-3.2,5.95c-1.5,2.59-3.41,3.4-5.71,2.41-.62-.27-1.22-.76-1.78-1.49-3.89-5.03-7.52-10.23-10.88-15.61-.64-1.02-1.31-1.72-1.58-3.02,1.22-.62,2.21-1.56,2.99-2.81.05-.08.16-.11.24-.06.01,0,.02.02.03.03l3.54,3.89,1.2,1.64,6.63,8.81c.12.16.2.14.25-.04l1.1-4.04c.05-.17,1.43-6.96,1.48-7.12Z" style="fill: #488975;"/>
      <path d="m159.59,135.34c.83.99.76,1.79-.2,2.4-2.31,1.48-5.09,2.65-8.35,3.53l.1-.91.35-.16c.07-.03.14-.16.17-.31l.15-.74c.01-.07.14-.17.33-.24,2.06-.84,4.03-1.86,5.89-3.06l1.55-.52Z" style="fill: #63a998;"/>
      <path d="m201.9,146.7l19.28,7.87c.14.06.24.15.29.26.16.41.06.96-.31,1.65l-45.99-18.65c-.18-.08-.31-.2-.28-.29l.34-1.28c.06-.22.36-.33.67-.23.02,0,.05.02.07.02l25.93,10.65Z" style="fill: #bdd6ff;"/>
      <path d="m124.37,141.57c1.09,1.58,1.82,3.3,2.18,5.17-1.29-1.24-2.39-2.62-3.3-4.16l-2.71-5.22c-.06-.11-.08-.25-.05-.39.2-1.2.61-1.26,1.22-.18.9,1.59,1.79,3.18,2.67,4.78Z" style="fill: #1e3977;"/>
      <rect x="100.64" y="120.66" width="1.57" height="63.56" rx=".39" ry=".39" transform="translate(-77.97 189.06) rotate(-67.9)" style="fill: #bae8fe;"/>
      <path d="m145.3,150.04c.07.96-.37,1.29-1.31,1-4.63-1.45-8.79-3.07-12.48-4.88l-3.18-1.57c-.14-.07-.28-.08-.37-.04l-1.21.54c-1.11-1.55-2.49-2.81-4.13-3.8.16-.02.32-.09.47-.21.09-.08.22-.08.31-.02,1.28.95,2.64,1.73,4.09,2.36.59.25.97-.09,1.49.13,5.29,2.28,10.67,4.32,16.15,6.1.09.03.15.11.16.21l.02.17Z" style="fill: #b7e0fc;"/>
      <path d="m120.12,141.01c.56.49,1.07,1.19,1.9,1.65,1.47,1.02,3.05,1.83,4.73,2.42l-2.38-3.52c.1-.05,3.83,2.95,3.97,3.02l2.83,4.86c-.07-.07-.18-.07-.25,0-.01.01-.02.02-.03.04-.78,1.25-1.78,2.19-2.99,2.81-2.79-1.18-7.42-3.99-7.69-4.69s.27-.87-.05-1.43.32-1.69.32-1.69c.5.23.56.62,1.23.93-1.6-.56-1.23-.93-1.62-1.38l-.58-1.81c-.3-.94.26-1.27.62-1.2Z" style="fill: #ffbf92;"/>
      <path d="m217.6,164.54l-43.93-17.75c-.1-.04-.2-.12-.3-.24-.17-.2-.37-.29-.6-.26-.37-.37-.59-.77-.66-1.2-.03-.19.1-.37.29-.41.06,0,.12,0,.18.02,1.66.62,3.33,1.16,4.93,1.87,6.39,2.82,13.12,5.34,19.37,7.92,6.98,2.9,13.99,5.73,21.02,8.5.12.05.2.15.21.27.02.49-.15.92-.51,1.28Z" style="fill: #bdd6ff;"/>
      <rect x="102.41" y="123.31" width="1.35" height="73.85" rx=".21" ry=".21" transform="translate(-84.03 196.11) rotate(-68.1)" style="fill: #bae8fe;"/>
      <path d="m172,162.93l.2.91.37,2.22.28,1.72.43,2,.51,2.65.3,1.89.42,2.13.16,1.16c.48,1.47.48,2.85,0,4.12-.88.37-1.57.86-2.06,1.45-.37-.01-.67.1-.89.34-.11.12-.21.19-.31.24-4.63,1.96-10.28,4.13-15.52,5.06-1.65.29-5.81.55-6.94-1.02-.06-5.88-.42-11.81-1.06-17.79l3.2-5.95c.1-.18.18-.18.26.01,1.18,3.01,5.79,3,8.41,2.21,4.84-1.46,7.98-4.45,9.4-8.96.52-1.66.51-3.64.6-5.45,0-.1.04-.18.1-.19.17-.05,2,10.28,2.18,11.25Z" style="fill: #63a998;"/>
      <rect x="85.79" y="137.79" width="1.28" height="45.72" rx=".44" ry=".44" transform="translate(-94.79 181.56) rotate(-68.3)" style="fill: #bae8fe;"/>
      <path d="m287.12,156c-.36,1.03-.54,2.2-.54,3.5l-11.46-4.19-.11-1.34c.5-2.37,2.49-1.94,4.15-1.32,2.7,1.02,5.35,2.13,7.96,3.35Z" style="fill: #fdcc89;"/>
      <path d="m275.02,153.96l.11,1.34c-.41,1.53-.1,2.55.92,3.08,3.74,1.92,8.47,3.29,11.69,4.58,4.08,1.64,8.18,3.25,12.29,4.82l.39,5.42.1,1.51-27.83-10.7.16-8.03,1.63-.32c.11-.02.2-.12.23-.26l.32-1.44Z" style="fill: #96d0bd;"/>
      <path d="m177.15,156.7c-.13-.06-.27-.09-.43-.11-.17-.02-.3-.1-.33-.2l-.39-1.52c-.04-.14.03-.18.21-.13.89.27,1.76.57,2.62.92,8.12,3.33,16.27,6.62,24.43,9.86.12.05.21.15.25.26.37,1.23-.66,1.19-1.43.89-8.31-3.25-16.77-6.37-24.93-9.97Z" style="fill: #c2d9fe;"/>
      <path d="m275.13,155.3l11.46,4.19c10.72,4.07,21.45,8.15,32.17,12.24.97.37,1.95.43,2.99.5l.75,1.27c.27,1.47-2.62,1.17-3.22.95-5.67-2.11-11.35-4.19-17.05-6.23-.62-.23-1.05-.06-1.69-.15l-.52-.29c-4.11-1.57-8.2-3.18-12.29-4.82-3.22-1.29-7.95-2.66-11.69-4.58-1.02-.52-1.32-1.55-.92-3.08Z" style="fill: #ff905c;"/>
      <path d="m287.12,156c4.21,1.46,8.38,3.07,12.49,4.8l.79-.29c-.09.35,0,.57.25.67,6.27,2.4,12.55,4.79,18.82,7.19.91.35,1.52.77,1.86,1.27.51.76.65,1.63.42,2.6-1.03-.07-2.02-.14-2.99-.5-10.72-4.09-21.45-8.17-32.17-12.24,0-1.3.18-2.47.54-3.5Z" style="fill: #fee8b2;"/>
      <path d="m272.67,164.01l27.83,10.7c1.52.8,1.87,1.92,1.05,3.34-.19.34-.6.51-.98.4-1.52-.42-2.9-.86-4.14-1.32-10.67-4.02-21.36-7.99-32.06-11.92-1.58-.58-2.82-1.38-3.74-2.39-.2-.83-.15-1.65.16-2.46.09-.25.34-.4.6-.38.79.07,1.61.24,2.39.56,2.93,1.22,5.89,2.38,8.88,3.46Z" style="fill: #fee8b2;"/>
      <rect x="85.19" y="143" width="1.16" height="55.53" rx=".49" ry=".49" transform="translate(-104.66 186.65) rotate(-68.1)" style="fill: #b3ceff;"/>
      <path d="m252.43,78.62l-.06,20.34.02,25.79-.03,2.32.11,23.25s-.05.14-.15.33c-.19.37-.06,2.74-.09,3.35-.02.3-.08.53-.18.69.2,3.03.12,13.48.13,15.55.02,10.16.05,20.31.08,30.47v22.16s.1,21.86.1,21.86l-.1,11.59c.05,1.8-.51,3.38-1.68,4.73,2.72-.59,5.65-1.18,6.31-4.33l.17-7.73.02-19.77.04-14.21v-34.76s-.03-13.7-.03-13.7v-30.73s.02-2.95.02-2.95l-.02-21.03v-19.44s-.27-16.91-.27-16.91c-.84-4.1-3.12-7-6.85-8.68.45.68.38,1.23-.21,1.66-.07.05-.21.05-.38,0l-1.25-.33c-.06-.02-.19.02-.35.1l-1.36.7c3.66,1.68,5.73,5.79,6,9.66Z" style="fill: #071c2f;"/>
      <path d="m172.57,166.05l-.37-2.22c2.47.52,5.02,1.35,7.66,2.5,5.9,2.57,12.55,4.96,18.63,7.49,6.27,2.61,10.3,4.18,12.07,4.72,1.18.35,1.37.86.57,1.5-.1.08-.23.1-.35.05-9.86-3.62-18.47-7.4-27.09-10.72-3.62-1.39-7.02-2.96-10.48-4.09-.48-.16-.7.09-.64.76Z" style="fill: #c2d9fe;"/>
      <path d="m261.05,165.45c.59.99,1.53,1.69,2.8,2.12.95.31,3.95,1.52,8.99,3.61v48.19c-4.65-1.88-9.4-3.62-14.23-5.22-.13-.04-.25-.04-.33,0-.29.17-.59.25-.91.25-.08,0-.15.04-.15.1,0,.18-.03.35-.1.51v-34.76c.11-5.14.13-10.27.06-15.41,0-.17.16-1.3.46-.61.04.1.15.15.23.12.01,0,.02-.01.03-.02.11-.09.24-.12.37-.08.07.02.17.17.24.38l.26.73c.07.19.17.32.26.35.34.11.56.32.66.65.03.11.18.16.33.12.53-.16.87-.51,1.02-1.04Z" style="fill: #488975;"/>
      <path d="m300.02,167.78l.52.29v3.73l-.13,1.41-.39-5.42Z" style="fill: #fcebeb;"/>
      <path d="m272.84,171.17c8.43,2.93,16.86,6.35,25.11,9.38.7.26,1.53.33,2.28.61l-.1,1.91.1,22.46-.15,3.37c-1.18,1.31-2.47,2.37-3.87,3.2-.66.39-2.06.95-4.19,1.66-1.87.63-3.69,1.4-5.47,2.31l-3.84-.88c-.24-.06-.48.08-.54.3-.02.06-.02.11,0,.17l.22,1.15-.21,2.06-6.88,3.83c-.28-.88-.34-1.64-.17-2.27.06-.21-.07-.43-.28-.49,0,0-.02,0-.03,0-.44-.09-.86-.04-1.26.14-.51-.08-.75-.33-.72-.73v-48.19Z" style="fill: #96d0bd;"/>
      <path d="m174.08,174.31l-.3-1.89c1.13.06,2.13.69,2.97,1.01,10.47,4,20.99,7.84,31.57,11.53.14.05.23.14.22.22-.09.51-.35.88-.79,1.12-.05.03-.21,0-.4-.07-10.6-4.09-21.31-7.87-31.91-11.94-.56-.21-1-.93-1.36.01Z" style="fill: #c2d9fe;"/>
      <path d="m174.5,176.45c1.46.52,2.91,1.04,4.36,1.54.57.2.65.46.24.78-.1.08-.23.11-.37.09-1.38-.17-2.74-.59-4.08-1.25l-.16-1.16Z" style="fill: #bdd6ff;"/>
      <path d="m300.24,181.16c.28.64.25,1.28-.1,1.91l.1-1.91Z" style="fill: #fee8b2;"/>
      <path d="m44.16,182.03l53.68,20.43c.24.1.36.37.26.61l-.06.14c-.1.24-.37.36-.61.26l-53.68-20.43c-.24-.1-.36-.37-.26-.61l.06-.14c.1-.24.37-.36.61-.26Z" style="fill: #c2d9fe;"/>
      <path d="m172.58,183.18l-.69,5.69-.06,1.07-.27,2-.27,1.89-.46,3.89-.12,1.21-.54,4.38-.08.82-.3,2.62-.1.91-.5,4.53-.1.71-.26,2.38c-.13.49-.17.93-.11,1.33l-1.13,11.47-.09,1.48-.19,2.19-.13,1.71c-.41,3.08-.67,6.17-.81,9.27-.25,3.38-.67,6.74-1.24,10.07l-4.92-.32c-.52-.32-.51-10.84-.52-12.17.06-1.63.03-3.25-.07-4.88-.02-.23-.21-.21-.25,0-.27,1.65-.42,3.31-.46,4.98-.61,3.98-1.08,7.97-1.41,11.99-.01.15.05.28.15.31.07.02.15.02.23,0-.64.58-.93,1.14-1.01,2.01-.03.33-.14.59-.32.79l-5.91-.5-.72-.34-.08-17.81-.34-14.09c.06-.44.04-.82-.07-1.14l-.41-10.92-.09-1.34-.3-9.67-.03-2.32v-.91l-.04-2.8.35-5.88c1.13,1.57,5.29,1.32,6.94,1.02,5.24-.93,10.9-3.1,15.52-5.06.1-.04.2-.12.31-.24.23-.24.53-.35.89-.34Zm-5.68,7.43c-1.85-.2-2.98,5.22-3.34,6.86-.79,3.63-1.41,7.3-1.86,10.99-.98,8.04-1.68,16.11-2.1,24.2-.03.66-.1,1.31-.18,1.97-.01.06.07.12.19.14,0,0,0,0,0,0,.18.03.33-.02.44-.15.12-.13.2-.24.21-.3,2.08-14.5,3.97-29.11,6.79-43.48.02-.1-.04-.21-.14-.23,0,0-.01,0-.02,0Z" style="fill: #0b122f;"/>
      <path d="m187.73,191.2s-.04.1,0,.14c0,0,.02.02.03.02l11.5,4.49c.2.08.34.19.37.29.2.55.01.92-.58,1.11-.1.03-.24.02-.38-.04-5.34-2.19-10.64-4.48-15.9-6.87-.92-.42-1.45-1.02-1.37-2.01,0-.11-.06-.22-.17-.25-3.16-.96-5.79-1.92-7.87-2.88-.28-.13-.36-.33-.25-.62.04-.1.16-.15.28-.11,4.75,1.76,9.28,3.97,14,5.77.46.18.71.54.32.96Z" style="fill: #c2d9fe;"/>
      <path d="m147.92,190.87c-1.84-.64-3.82-1.27-5.75-1.55-.08-.01-.14-.08-.13-.14,0-.02,0-.04.02-.05l.82-1.2c.05-.08.17-.1.28-.05.71.27,5.62,1.96,5.07,2.91-.05.1-.19.14-.31.09Z" style="fill: #c2d9fe;"/>
      <path d="m163.57,197.48c.36-1.64,1.49-7.06,3.34-6.86.1.01.18.1.16.21,0,0,0,.01,0,.02-2.82,14.38-4.72,28.98-6.79,43.48,0,.06-.09.17-.21.3-.12.13-.27.18-.44.15-.11-.02-.2-.08-.19-.14,0,0,0,0,0,0,.09-.66.15-1.31.18-1.97.42-8.09,1.12-16.16,2.1-24.2.45-3.69,1.07-7.35,1.86-10.99Z" style="fill: #393b40;"/>
      <path d="m148.56,193.68l.04,2.8-.66-1.47c-.04-.09-.15-.19-.31-.25-2.43-1.06-4.93-1.93-7.49-2.61-.09-.03-.15-.13-.13-.23.23-1.25,1.18-1.12,2.14-.75,2.14.83,4.28,1.67,6.43,2.51Z" style="fill: #c2d9fe;"/>
      <path d="m171.56,191.94l.03.57c0,.12.08.22.18.26,8.01,2.86,15.97,5.88,23.87,9.03.11.04.21.12.29.24.17.23.15.47-.04.72-.18.24-.65.28-1.12.1l-23.47-9.04.27-1.89Z" style="fill: #c2d9fe;"/>
      <path d="m135.71,197.85c-.11-.04-.17-.14-.15-.24,0-.02.02-.04.03-.05l.74-.87c.06-.06.21-.07.38,0,3.78,1.38,7.41,3.05,11.12,4.61.13.05.23.14.29.25.17.35.19.69.07,1.02-.04.1-.17.14-.29.09,0,0,0,0-.01,0-4.01-1.73-8.07-3.33-12.17-4.81Z" style="fill: #c2d9fe;"/>
      <path d="m170.83,197.72l6.64,2.68c.28.11.51.34.63.64.66,1.62-5.97-1.33-6.44-1.67-.29-.21-.61-.36-.97-.43l.12-1.21Z" style="fill: #cfe2fe;"/>
      <path d="m260.65,162.83c-.03.9.1,1.77.4,2.62.59.99,1.53,1.69,2.8,2.12.95.31,3.95,1.52,8.99,3.61,8.43,2.93,16.86,6.35,25.11,9.38.7.26,1.53.33,2.28.61.28.64.25,1.28-.1,1.91l.1,22.46-.15,3.37c.04,3.47.21,6.91.52,10.33l.19.89c.03.12.13.22.27.28l6.62,2.72c.12.05.25.03.34-.06.2-.2.45-.3.74-.31.09-.26,1.08-3.64,1.77-2.2.05.11.06.25.02.39l-.65,2.21c.35.26.51.63.49,1.12,3.9,1.89,7.97,3.33,12.19,4.31,4.59,1.06,8.36-.19,11.32-3.76,2.01-3.51,3.27-7.32,3.78-11.42.71-3.91.92-7.86.62-11.83-.17-2.22.15-5.85-.52-9.06-1.27-12.07-5.16-25.49-11.98-35.86-3.34-5.07-9.44-11.35-16.2-10.4-6.87.97-9.31,8.27-9.21,14.24-.09.35,0,.57.25.67,6.27,2.4,12.55,4.79,18.82,7.19.91.35,1.52.77,1.86,1.27.51.76.65,1.63.42,2.6l.75,1.27c.27,1.47-2.62,1.17-3.22.95-5.67-2.11-11.35-4.19-17.05-6.23-.62-.23-1.05-.06-1.69-.15v3.73s-.13,1.41-.13,1.41l.1,1.51c1.52.8,1.87,1.92,1.05,3.34-.19.34-.6.51-.98.4-1.52-.42-2.9-.86-4.14-1.32-10.67-4.02-21.36-7.99-32.06-11.92-1.58-.58-2.82-1.38-3.74-2.39Zm40.32,39.64s-.03-.01-.05-.02c.02,0,.03,0,.05.02Zm.71-.03s-.04-.01-.06,0c.02,0,.04,0,.06,0Zm1.13-31.59s.04,0,.05-.01c-.02,0-.05.01-.07.02,0,0,0,0,.01-.01Zm.23-.02s-.06,0-.09,0c.03,0,.06,0,.09,0Zm.18.07s-.06-.03-.09-.05c.03.01.06.03.09.05Zm.22.22c-.04-.07-.09-.13-.15-.17.06.05.11.1.15.17Zm17.22,55.81s0-.06-.02-.09c.01.02.02.04.03.06,0,.01,0,.02,0,.03Zm-5.48-37.72s.02,0,.03-.02c0,0-.02.01-.03.02Zm.07-.08s-.01.02-.01.03c0-.02.02-.03.01-.05,0,0,0,.01,0,.02Zm5.37,37.91s.02-.03.03-.05c0,.02-.02.04-.03.05Zm-19.11-24.55s.02-.02.03-.03c.01,0,.03,0,.04-.01-.02.01-.05.02-.07.05Zm-.68-.02s.02-.03.03-.03c0,0,.01,0,.02,0-.02,0-.04.01-.06.03Z" style="fill: url(#c);"/>
      <path d="m148.93,209.37l.09,1.34c-5.89-2.18-11.75-4.89-17.72-6.76-.14-.04-.22-.16-.2-.26,0,0,0-.02.01-.03.2-.4.49-.71.87-.94.05-.03.22,0,.42.09l15.6,6.38c.12.05.22.14.28.26.25.47.47.44.65-.07Z" style="fill: #c2d9fe;"/>
      <path d="m212.2,205.52l-.15.53-10.78,19.14-3.7,6.35-4.67,7.86-.6.91-3.02,4.94-3.22,5.15c-.06.1-.18.13-.29.09l-3.1-1.2-4.17-1.7c4.15-5.99,8.13-12.07,11.94-18.22l8.16-13.11,4.32-6.97.86,1.16c.09.12.09.27,0,.33,0,0,0,0,0,0-.38.24-.67.59-.89,1.02-.3.62-.13.91.52.89l1.91-.07c.18,0,.32.04.37.11.09.12.2.21.32.27.21.11.28.08.22-.09-.1-.26-.04-.43.17-.53.19-.08.24.01.15.27-.12.36-.12.69.01,1,.05.13.1.13.15-.02.32-.96.82-1.83,1.49-2.59.08-.09.13-.21.15-.33.16-1.14.63-2.14,1.43-3.01.13-.14.2-.29.17-.33-.18-.22-.15-.39.09-.51.16-.07.27-.16.3-.24.37-.83.99-1.19,1.85-1.09Z" style="fill: #e9e8e8;"/>
      <path d="m169.78,206.75c1.57-.04,2.61.71,3.79,1.16,5.68,2.13,11.32,4.35,16.93,6.66.13.05.22.16.24.27.16.81-.62.83-1.17.62-6.66-2.51-13.3-5.11-19.89-7.81l.1-.91Z" style="fill: #cfe2fe;"/>
      <path d="m149.43,221.63c.11.32.14.7.07,1.14-.18,0-.33.02-.51-.04-7.99-3.23-15.98-6.44-23.99-9.63-.17-.07-.28-.19-.26-.29.07-.28.22-.49.46-.65.08-.05.24-.05.43.01,5.14,1.68,11.18,4.34,20.38,7.97.28.11.84.38,1.67.81.55.29,1.14.52,1.75.69Z" style="fill: #bdd6ff;"/>
      <path d="m272.85,219.36c-.03.4.21.65.72.73-5.33,1.8-9.61,3.61-12.83,5.43-.47.27-.85.87-1.14,1.82-.03.1.03.2.14.25l.79.33-3.45,1.3.04-14.21c.07-.16.1-.33.1-.51,0-.05.07-.1.15-.1.31,0,.62-.08.91-.25.08-.05.2-.05.33,0,4.83,1.6,9.58,3.34,14.24,5.22Z" style="fill: #63a998;"/>
      <path d="m123.01,216.04c-.22-.09-.31-.34-.21-.58.01-.02.02-.05.04-.07.26-.42.66-.52,1.2-.3,8.15,3.21,16.27,6.49,24.37,9.83.53.22,1.1.7.63,1.26-.08.1-.2.13-.31.09l-25.72-10.23Z" style="fill: #b3ceff;"/>
      <path d="m168.82,215.27l16.76,6.61c.13.05.23.14.29.25,1,1.87-4.08-.47-4.32-.56l-12.85-4.98c-.06-.4-.02-.84.11-1.33Z" style="fill: #cfe2fe;"/>
      <path d="m273.57,220.09c.41-.18.83-.22,1.26-.14.22.04.36.25.32.47,0,0,0,.02,0,.03-.17.63-.12,1.39.17,2.27-4.86,1.93-9.79,3.66-14.78,5.2l-.79-.33c-.11-.05-.16-.15-.14-.25.29-.95.67-1.55,1.14-1.82,3.22-1.82,7.5-3.63,12.83-5.43Z" style="fill: #488975;"/>
      <g>
        <path d="m282.54,215.2c.06,0,.12,0,.18,0l3.84.88c1.78-.91,3.6-1.68,5.47-2.31,2.13-.72,3.53-1.27,4.19-1.66,1.4-.83,2.69-1.9,3.87-3.2.04,3.47.21,6.91.52,10.33l.19.89c.03.12.13.22.27.28l6.62,2.72c.12.05.25.03.34-.06.2-.2.45-.3.74-.31-2.41,5.77-4.95,11.47-7.62,17.13-.36-.18-.58-.09-.65.28-.06.29-.34.47-.63.41-.01,0-.03,0-.04,0-5.23-1.48-1.93-10.62-6.48-12.79-.69-.33-1.57-.05-2.32.04-5.99.71-.32-10.13-8.62-11l-.22-1.15c-.04-.22.12-.44.36-.47Z" style="fill: #96d0bd;"/>
        <path d="m309.3,224.89c.6-.29.89-.13.87.5-.08,2.54.33,5.3.52,7.44.51,5.71.98,11.42,1.39,17.13l-2.6-.51c0-1.96-1.07-3.28-1.59-4.66-.53-1.41-1.22-4.16-2.23-5.07-.62-.55-1.4-.76-2.35-.65l1.83-4.4,4.15-9.79Z" style="fill: #96d0bd;"/>
      </g>
      <path d="m27.3,227.2c-1.17,1.9-.95,3.54.69,4.92.3.25.48.39.56.42,1.18.44,2.36.89,3.54,1.34,1.98.77,4.95,1.6,7.32,2.8.19.09.57.17,1.15.23,1.79.19,3.6,1.41,4.78,1.54.35.04.65.13.89.26,2.22,1.26,5.07,2.03,7.47,2.96,4.5,1.76,9.24,3.37,13.83,5.17l31.73,11.79,43.92,16.12,28.01,10.28c7.99,2.61,15.02.48,22.67-2.49l20.25-6.65,43.02-14.24c2.89-.92,5.76-1.87,8.63-2.85,2.24-.77,4.56-1.32,4.77-3.97.29.41.4.88.32,1.39.12,3.23-2.6,3.78-5.16,4.63-25.21,8.33-50.43,16.64-75.66,24.93-3.65,1.2-6.23,1.91-7.76,2.14-3.99.58-7.86.2-11.59-1.15-34.3-12.44-80.85-29.63-139.66-51.59-.13-.05-.34-.16-.63-.33-.54-.32-1.19-.31-1.68-.56-.6-.31-1.2-.63-1.78-.95-1.09-1.05-1.42-2.42-1.01-4.11.24-.98.7-1.65,1.39-2.01Z" style="fill: #f3f8fd;"/>
      <path d="m167.57,228.07c1.52.73,3.06,1.38,4.63,1.94.56.2,1.41.85.27,1.2-.12.03-.25.03-.38-.02l-4.61-1.64.09-1.48Z" style="fill: #c2d9fe;"/>
      <path d="m246.7,260.67c-3.75-1.11-8.68-3.39-13.19-5.01-1.37-.5-2.74-1-4.11-1.51,0,0,0,0,0,0-.11-.04-.17-.16-.13-.26.08-.2.24-.34.48-.35,3.07-.16,5.47-1.52,7.2-4.09l1.49-3.08c.77-2.06,1.31-4.14,1.64-6.26l.62-3.24c1-7.79,1.54-15.61,1.61-23.47l.3-19.85-.03-18.03-.27-28.31-.23-18.54c-.12-10-.24-20-.36-30-.02-2.01.08-3.94-.93-5.46-.83-1.25-2.83-2.07-4.17-2.89-.43-.26-.68-.64-.75-1.14-.25-1.7-.63-3.72-1.94-5-1.93-1.88-4.24-3.07-6.94-3.57,1.54,1.06,2.59,2.4,3.13,4.01.61,1.82-.64,4.82,1.51,5.89,1.49.74,4.11,1.82,7.85,3.24.11.04.19.15.19.27.08,11.86.12,23.77-1.18,35.56-1.78,14.75-5.41,29.03-10.9,42.83-.88,2.21-1.75,4.41-2.62,6.62-3.6,8.25-7.46,16.38-11.57,24.4l-1.2,2.09-.15.53-10.78,19.14-3.7,6.35-4.67,7.86c0,.19.11.32.31.4,10.08,3.86,18.76,7.11,26.04,9.74.67.24,1.17.86,1.48,1.84,13.09,4.95,21.56,8.17,25.41,9.66,1,.38,1.97.54,2.93.46-.51-.22-1.3-.49-2.37-.81Z" style="fill: #071c2f;"/>
      <path d="m167.16,233.45l.13-1.71,3.84,1.32c.17.06.28.19.25.29-.11.4-.32.73-.62.99-.06.05-.21.06-.39.01l-3.21-.9Z" style="fill: #cfe2fe;"/>
      <path d="m26.92,233.33c.59.33,1.18.64,1.78.95.49.25,1.14.23,1.68.56.29.17.5.28.63.33,58.81,21.96,105.36,39.16,139.66,51.59,3.73,1.35,7.59,1.74,11.59,1.15,1.53-.22,4.12-.93,7.76-2.14,25.23-8.3,50.44-16.61,75.66-24.93,2.56-.85,5.28-1.39,5.16-4.63l.06-1.21c.01-.22.19-.39.38-.39.05,0,.09.01.14.03,1.37.69,5.48-.52,7.14-.75l-.69,7.66c-.04.42.16.81.49.96l1.53.73c-.06.11-.09.21-.08.31.01.1-.05.2-.15.25l-3.45,1.72c-.43.22-.86.26-1.28.12-2.3-.76-4.64-1.59-7.02-2.51-1.26-.48-2.61-.08-3.75.32-14.5,4.98-29.11,9.58-43.62,14.5-9.83,3.27-19.68,6.53-29.52,9.76-2.83.93-5.9,1.93-8.68,2.25-4.32.5-8.71-.07-13.17-1.7-25.96-9.52-51.92-19.06-77.87-28.61-18.33-6.83-36.66-13.63-55.01-20.41-2.55-.94-5.09-1.95-7.59-3.02-1.23-.52-2.61-1.23-2.57-2.76,0-.11.09-.2.2-.2,0,0,.01,0,.02,0l.59.06Z" style="fill: #63a998;"/>
      <path d="m159.67,240.3l-.77.1c.03-1.67.18-3.33.46-4.98.03-.2.23-.22.25,0,.1,1.63.13,3.25.07,4.88Z" style="fill: #fcfdfd;"/>
      <path d="m309.49,249.45l-.08.02-9.19-2.47c-.15-.04-.26-.13-.29-.23-.03-.1-.04-.21-.02-.33l3.42-7.37c.95-.12,1.73.1,2.35.65,1.02.91,1.7,3.66,2.23,5.07.52,1.38,1.59,2.7,1.59,4.66Z" style="fill: #63a998;"/>
      <path d="m159.67,240.3c.01,1.33,0,11.85.52,12.17l-.3.23h-2.01c-.09.02-.16.01-.23,0-.1-.03-.17-.16-.15-.31.33-4.01.8-8.01,1.41-11.99l.77-.1Z" style="fill: #393b40;"/>
      <g>
        <path d="m73.07,224.87c1.32.46,4.97,1.91,10.95,4.36l17.03,6.33,11.49,4.48c9.95,3.72,19.81,7.68,29.73,11.42l7.66,3.2-.08-17.81-42.83-17.13c-3.62-1.56-7.26-2.95-10.92-4.16l-9.95,3.67c-4.56,1.7-9.17,3.27-13.83,4.7-.21.37.04.68.76.93Z" style="fill: #393b40;"/>
        <path d="m156.75,257.83l.19,1.37c2.13.91,4.27,1.79,6.44,2.63,3.7,1.43,7.7,2.19,11.42,2.86,1,.18,2.04.03,3.12-.44l12.89-4.51,7.94-2.6,9.61-3.43,4.91-1.59h0c1.29-.44,2.6-.86,3.9-1.27,1.35-.42,2.33.04,3.55.53-.31-.99-.8-1.6-1.48-1.84-7.28-2.63-15.96-5.88-26.04-9.74-.2-.08-.3-.21-.31-.4l-.6.91h0l-3.02,4.94-3.22,5.15c-.06.1-.18.13-.29.09l-3.1-1.2-4.17-1.7-12.15-4.85c-.25,3.38-.67,6.74-1.24,10.07l-.29,2.2c.56,1.57.35,3.02-.64,4.34-.3,0-.5.11-.61.36-.05.12-.16.2-.27.19-1.91-.06-3.68-.6-5.31-1.6-.13-.08-.22-.17-.27-.27-.25-.49-.57-.55-.97-.2Zm52.84-5.77c.06.13.12.25.21.37.1.15.26.26.44.32-.18-.06-.34-.17-.44-.32-.08-.12-.15-.25-.21-.37Zm-16.23-10.12s0,0,0,0c0,0,0,0,0,0,0,0,0,0,0,0Z" style="fill: #393b40;"/>
      </g>
      <path d="m297.69,247.15c-1.17,2.87-2.39,5.72-3.65,8.55-.14.31.1.49.33.19.16-.2.42-.74.79-1.61.43.13.72.04.87-.25,1.35-2.5,2.64-5.03,3.88-7.59-.02.12-.01.23.02.33.03.1.14.19.29.23l9.19,2.47-.33,1.12c-.03.1-.13.2-.27.27-1.43.76-2.48,1.24-3.13,1.44-4.11,1.29-8.14,2.8-12.07,4.53-3.77-.92-7.47-2.08-11.08-3.49-.67-.22-1.29-.55-1.85-.98-.56-.44-.58-1.02-1.2-1.47,5.4-1.33,11.15-2.91,17.25-4.75.3-.09.59-.06.65.07,0,.01,0,.02,0,.04.02.17.03.34.02.5,0,.2,0,.37,0,.36,0,0,0,0,0,0,.07.05.17.06.28.04Z" style="fill: #fff;"/>
      <path d="m257.05,248.99c4.17,1.26,8.27,2.76,12.29,4.5.1.05.2.13.31.24.17.19.39.32.65.39l.2.71c-.21,2.64-2.52,3.19-4.77,3.97-2.87.98-5.74,1.93-8.63,2.85-.09-.26-.05-.42.13-.47.14-.04.24-.13.25-.22.05-.36-.02-.68-.23-.96-.23-.31-.3-.65-.19-.87.29-.53.37-1.09.26-1.68-.03-.17-.05-.3-.04-.38.03-.22-.11-.34-.4-.34l.17-7.73Z" style="fill: #c9c2c4;"/>
      <g>
        <path d="m252.46,150.31l-.11-23.25.03-2.32-.02-25.79.06-20.34c-.28-3.87-2.35-7.98-6-9.66l-68.7-28.21-24.56-9.99-13.82-5.73-15.61-6.38-11.69-4.84-10.48-4.23c-5.76-2.4-11.53-4.8-17.3-7.17-.12-.05-.57-.15-1.34-.3-.53-.1-.93-.39-1.21-.87-2.64.66-4.59,1.66-4.57,4.63.03,3.92.04,7.85.03,11.78l.02,3.63.08,68.2-.07,22.26c1.02-2.54,2.27-6.35,3.76-11.42,6.37-21.62,8.12-44.11,7.06-66.55-.01-.32.03-.63.14-.92-.15-.57-.17-1.14-.04-1.7,0-.01,0-.02,0-.03.04-.08.13-.12.22-.09l12.09,4.88,11.11,4.47,11.87,4.79,16.3,6.53,13.52,5.56,23.57,9.54c3.13,1.78,6.47,2.95,10.03,3.51-.41-5.31,4.32-4.33,7.4-3.07l32.75,13.38c2.7.51,5.01,1.7,6.94,3.57,1.31,1.28,1.69,3.3,1.94,5,.07.5.32.88.75,1.14,1.35.82,3.34,1.64,4.17,2.89,1.01,1.52.9,3.46.93,5.46.12,10,.24,20,.36,30l.23,18.54.27,28.31.03,18.03c.19-.4.26-.83.22-1.29-.02-.17,0-.18.06-.02l.05.14c.02.05.03.05.03,0,0-.21.06-.4.17-.56.06-.08.2-.12.37-.09l1.23.2c.12.02.23.08.31.19.66.9,1.47,1.6,2.45,2.1.15.08.26.17.32.27.67,1.04,1.54,1.84,2.61,2.42.13.07.24.17.32.3l.78,1.23c.12.19.19.17.23-.04l.11-.7c.04-.25.07-.25.1.02l.28,3c-.03-10.16-.06-20.31-.08-30.47,0-2.07.07-12.52-.13-15.55h0c.1-.16.16-.39.18-.69.04-.61-.1-2.98.09-3.35.1-.19.15-.3.15-.33ZM99.58,34.21s0,0,0,0c0-.02.01-.05.02-.07,0,.03-.02.06-.01.08Zm1.06-2.43s.01,0,.02.01c.03.02.04.05.05.08-.02-.03-.04-.07-.07-.09Zm.32,2.61s0,0,0,0c.01,0,.02.01.03.01-.01,0-.02-.01-.03-.01Zm22.17-10.91s.05.02.08.03c.02,0,.02.02.03.03-.03-.02-.07-.05-.11-.06Zm52.91,18.69s0-.01,0-.02c0,.03,0,.05.02.07-.01-.02-.02-.03-.02-.05Zm74.42,86.32s0,0,0,0c0,.02-.03.02-.05.03.02-.01.04-.01.05-.03Zm-2.78-.68s.06,0,.09,0c-.04,0-.07,0-.11.01,0,0,0,0,.01,0Zm-1.91.43s0-.08,0-.13c0,0,0,.01,0,.02,0,.04,0,.07,0,.1Zm2.43,23.45s.04.03.06.03c-.02,0-.04-.02-.06-.03Zm.24-.05s-.05.02-.07.03c.03-.01.05-.01.08-.03,0,0,0,0,0,0Zm2.8,3.27s.05.01.07.02c-.02,0-.05-.01-.07-.02Zm.34.05s.02,0,.03,0c0,0-.02,0-.03,0Z" style="fill: #393b40;"/>
        <path d="m252.35,244.73l-.1-21.86v-22.16l-.28-3c-.02-.26-.06-.27-.1-.02l-.11.7c-.03.21-.11.22-.23.04l-.78-1.23c-.08-.13-.19-.23-.32-.3-1.07-.58-1.94-1.38-2.61-2.42-.06-.1-.17-.19-.32-.27-.98-.5-1.8-1.2-2.45-2.1-.07-.1-.18-.17-.31-.19l-1.23-.2c-.17-.03-.32,0-.37.09-.11.16-.17.35-.17.56,0,.06,0,.06-.03,0l-.05-.14c-.06-.16-.08-.15-.06.02.05.46-.03.89-.22,1.29l-.3,19.85c-.07,7.86-.61,15.68-1.61,23.47l-.62,3.24c-.32,2.12-.87,4.2-1.64,6.26l-1.49,3.08c-1.73,2.57-4.13,3.94-7.2,4.09-.23,0-.39.15-.48.35,0,0,0,0,0,0-.04.1.02.21.14.26,1.36.51,2.73,1.01,4.11,1.51,4.51,1.62,9.44,3.9,13.19,5.01,1.07.32,1.87.59,2.37.81l1.49-.43c1.17-1.36,1.73-2.94,1.68-4.73-.75-.43-1.48-.88-2.23-1.33.74.44,1.48.9,2.23,1.33l.1-11.59Z" style="fill: #393b40;"/>
      </g>
      <path d="m309.4,249.47l.08-.02,2.6.51c-.07,2.48.1,4.88.52,7.22l.43,5.25c.02.27-.13.51-.37.59l-17.18,5.61c-.83-.17-1.34-.66-1.52-1.47,0-.01,0-.38.02-1.1,0-.51-.21-.93-.65-1.27.37-2.67.46-5.32.27-7.94,3.94-1.73,7.96-3.24,12.07-4.53.66-.2,1.7-.69,3.13-1.44.14-.07.24-.17.27-.27l.33-1.12Z" style="fill: #c9c2c4;"/>
      <path d="m257.05,248.99c4.17,1.26,8.27,2.76,12.29,4.5.1.05.2.13.31.24.17.19.39.32.65.39h0l.2.71c.21.3.33.63.34.99l.04-.81c0-.05.02-.11.04-.15.09-.2.31-.29.48-.2,1.37.69,5.48-.52,7.14-.75,0-1.04.15-2.04.44-3.02l.17-.81h0l-.17.81.49.02c5.4-1.33,11.15-2.91,17.25-4.75.03,0,.05-.02.08-.02.31-.07.57-.01.58.13.02.17.03.34.02.5,0,0,0,0,0,.01,0,.2,0,.36,0,.35.07.05.17.06.28.04,1.29-2.35,2.44-4.77,3.46-7.25-.36-.18-.58-.09-.65.28,0,.01,0,.03,0,.04-.08.28-.37.44-.66.36-5.23-1.48-1.93-10.62-6.48-12.79-.69-.33-1.57-.05-2.32.04-5.99.71.09-14.65-8.62-11s-7.09,5.9-7.09,5.9c-4.86,1.93-9.79,3.66-14.78,5.2l-3.45,1.3-.02,19.77Z" style="fill: #63a998;"/>
      <path d="m278.98,250.88l.49.02c.62.46.64,1.04,1.2,1.47.56.43,1.18.76,1.85.98,4.09,3.35,7.7,7.16,10.81,11.43.44.34.66.77.65,1.27-.01.72-.02,1.09-.02,1.1.18.81.69,1.31,1.52,1.47h-1.1s-14.51-5.37-14.51-5.37l-1.53-.73c-.33-.16-.53-.54-.49-.96l.69-7.66c0-1.04.15-2.04.44-3.02Z" style="fill: #393b40;"/>
      <path d="m160.19,252.47l4.92.32-.29,2.2c-2.01.15-4.78.25-4.94-2.28l.3-.23Z" style="fill: #f9b498;"/>
      <path d="m159.89,252.71c.16,2.54,2.92,2.43,4.94,2.28.56,1.57.35,3.02-.64,4.34-2.5-.26-4.76-1.02-6.78-2.28-.25-.16-.44-.15-.72-.12l-.13-1.41c.18-.2.29-.47.32-.79.08-.87.37-1.43,1.01-2.01h2.01Z" style="fill: #0b122f;"/>
      <path d="m282.51,253.35c3.62,1.41,7.31,2.57,11.08,3.49.18,2.62.09,5.27-.27,7.94-3.11-4.27-6.71-8.08-10.81-11.43Z" style="fill: #c9c2c4;"/>
      <path d="m150.64,255.01l5.91.5.13,1.41-.12.69c-1.86.35-3.72.35-5.57-.02-.13-.03-.25-.09-.33-.19-.31-.37-.53-.79-.65-1.27.1-.04.2-.09.27-.16.07-.06.1-.2.09-.36-.02-.23.06-.43.26-.6Z" style="fill: #fea592;"/>
      <path d="m150.02,256.13c.12.48.34.9.65,1.27.08.1.2.16.33.19,1.86.37,3.71.37,5.57.02l.19.22.19,1.37-.19,1.86c-4.66.27-9.14.71-13.8.67-1.15.02-2.22-.24-3.21-.79-.12-.07-.21-.17-.25-.29-.53-1.42.85-2.4,2.09-2.72,3.07-.82,5.96-1.81,8.44-1.79Z" style="fill: #0b122f;"/>
      <path d="m156.68,256.92c.28-.02.47-.03.72.12,2.03,1.27,4.29,2.03,6.78,2.28-.3,0-.5.11-.61.36-.05.12-.16.2-.27.19-1.91-.06-3.68-.6-5.31-1.6-.13-.08-.22-.17-.27-.27-.25-.49-.57-.55-.97-.2l-.19-.22.12-.69Z" style="fill: #393b40;"/>
      <path d="m294.38,268.79v-.17h1.1s17.18-5.61,17.18-5.61c.24-.08.4-.32.37-.59l-.43-5.25c3.05.59,5.91,1.64,8.58,3.15,5.42,3.06,2.43,6.79-1.99,8.09-6.96,2.04-14.03,2.38-21.2,1.03-.47-.08-1-.46-1.68-.31-.12.03-.25.03-.39,0l-1.54-.34Z" style="fill: #63a998;"/>
      <path d="m72.3,223.95c4.66-1.43,9.27-3,13.83-4.7l9.95-3.67c-.15-.22-.27-.34-.35-.38-5.42-2.23-10.87-4.37-16.36-6.42l-19.41,6.83-8.84,3.06c-6.17,2.12-12.33,4.25-18.49,6.39-2.31.8-4.09,1.52-5.33,2.15-1.17,1.9-.95,3.54.68,4.92.3.25.48.39.56.42,1.18.44,2.36.89,3.54,1.34,1.98.77,4.95,1.6,7.32,2.8.19.09.57.17,1.15.23,1.79.19,3.6,1.41,4.78,1.54.35.04.65.13.89.26,2.22,1.26,5.07,2.03,7.47,2.96,4.5,1.76,9.24,3.37,13.83,5.17l31.73,11.79,43.92,16.12,28.01,10.28c7.99,2.61,15.02.48,22.67-2.49l20.25-6.65,43.02-14.24c-.09-.26-.05-.42.13-.47.14-.04.24-.13.25-.22.05-.36-.02-.68-.23-.96-.23-.31-.3-.65-.19-.87.29-.53.37-1.09.26-1.68-.03-.17-.05-.3-.04-.38.03-.22-.11-.34-.4-.34-.66,3.16-3.6,3.74-6.31,4.33l-1.49.43c-.96.08-1.93-.07-2.93-.46-3.85-1.49-12.32-4.71-25.41-9.66-1.22-.49-2.2-.96-3.55-.53-1.31.41-2.61.83-3.9,1.27l-4.92,1.59-9.61,3.43-7.94,2.6-12.89,4.51c-1.08.47-2.12.62-3.12.44-3.73-.66-7.72-1.42-11.42-2.86-2.16-.84-4.31-1.71-6.44-2.63l-.19,1.86.07.47c.02.12-.05.23-.17.28-2.03.83-4.75.58-6.94.78l-6.77-.85c-1.15.02-2.22-.24-3.21-.79-.12-.07-.21-.17-.25-.29-.53-1.42.85-2.4,2.09-2.72,3.07-.82,5.96-1.81,8.44-1.79.1-.04.2-.09.27-.16.07-.06.1-.2.09-.36-.02-.23.06-.43.26-.6l-.72-.34-7.66-3.2c-9.92-3.74-19.77-7.7-29.73-11.42l-11.49-4.48-17.03-6.33-11.71-5.29Z" style="fill: #c9c2c4; mix-blend-mode: overlay;"/>
      <path d="m156.75,261.05l.07.47c.02.12-.05.23-.17.28-2.03.83-4.75.58-6.94.78l-6.77-.85c4.66.04,9.14-.4,13.8-.67Z" style="fill: #393b40;"/>
      <path d="m.34,231.33c3.29,20.93,28.01,36.71,45.44,45.01,15.49,7.38,31.52,12.91,48.03,17.13,11.43,2.97,23.44,5.44,36.04,7.39,38.3,5.96,76.98,6.54,115.19,1.32,18.41-2.52,36.09-6.75,53.22-13.61,15.64-6.27,33.11-16.15,40.66-31.93,5.23-10.94,2.53-22.77-5-31.8-2.96,3.57-6.74,4.82-11.32,3.76-4.23-.98-8.29-2.42-12.19-4.31.02-.49-.14-.87-.49-1.12l-.6,1.71c.6-.29.89-.13.87.5-.08,2.54.33,5.3.52,7.44.51,5.71.98,11.42,1.39,17.13-.07,2.48.1,4.88.52,7.22,3.05.59,5.91,1.64,8.58,3.15,5.42,3.06,2.43,6.79-1.99,8.09-6.96,2.04-14.03,2.38-21.2,1.03-.47-.08-1-.46-1.68-.31-.12.03-.25.03-.39,0l-1.54-.34v-.17s-14.51-5.37-14.51-5.37c-.06.11-.09.21-.08.31.01.1-.05.2-.15.25l-3.45,1.72c-.43.22-.86.26-1.28.12-2.3-.76-4.64-1.59-7.02-2.51-1.26-.48-2.61-.08-3.75.32-14.5,4.98-29.11,9.58-43.62,14.5-9.83,3.27-19.68,6.53-29.52,9.76-2.83.93-5.9,1.93-8.68,2.25-4.32.5-8.71-.07-13.17-1.7-25.96-9.52-51.92-19.06-77.87-28.61-18.33-6.83-36.66-13.63-55.01-20.41-2.55-.94-5.09-1.95-7.59-3.02-1.23-.52-2.61-1.23-2.57-2.76,0,0,0-.01,0-.02.01-.11.11-.19.21-.18l.59.06c-1.09-1.05-1.42-2.42-1.01-4.11.24-.98.7-1.65,1.39-2.01,1.24-.63,3.02-1.34,5.33-2.15,6.16-2.14,12.32-4.27,18.49-6.39-.65-.02-1.21.04-1.8-.07.59.12,1.15.06,1.8.07l8.84-3.06,19.41-6.83c-.13-.12-.39-.25-.78-.41-6.39-2.6-10.79-4.35-13.2-5.25-.64.3-1.29.59-1.94.87-.65.27-1.32.53-1.98.78-4,1.45-7.98,2.91-11.97,4.36,3.99-1.45,7.97-2.9,11.97-4.36.67-.24,1.33-.5,1.98-.78.65-.27,1.3-.56,1.94-.87-1.68-.87-3.43-1.6-5.22-2.2l-9.17-3.83s-14.25-6.02-21.46-8.02c-.12-.03-.2-.14-.18-.25.03-.25.13-.48.29-.69-.09-.49-.36-.83-.81-1.02-.11-.04-.24-.02-.34.06l-3.84,3.16c-12.77,9.16-27.05,23.62-24.32,41.01Z" style="fill: #d9eee7;"/>
      <g>
        <path d="m240.85,289.78c.79,2.63,1.09,5.3.91,7.99l-38.32,11.86c.72-.7,1.18-1.56,1.37-2.6.76-2.45.65-4.99-.34-7.6.64-.79,1.05-.59,1.22.6.02.18.19.31.37.28.03,0,.05-.01.08-.02,3.89-1.56,7.06-2.97,11.49-4.17,1.79-.49,3.79-1.14,6-1.95,5-1.84,10.74-3.3,17.21-4.39Z" style="fill: #ad9d19;"/>
        <g>
          <path d="m279.98,285.54c-12.65,4.45-25.39,8.53-38.22,12.24.19-2.69-.12-5.36-.91-7.99-.79-2.08-2.25-3.72-4.38-4.94,12.29-3.89,24.63-7.63,37.02-11.22,7.64-2.21,9.17,6.79,6.49,11.92Z" style="fill: #c9be68;"/>
          <path d="m236.47,284.84c2.13,1.22,3.59,2.87,4.38,4.94-6.47,1.09-12.21,2.55-17.21,4.39-2.21.81-4.21,1.47-6,1.95-4.43,1.2-7.6,2.61-11.49,4.17-.17.07-.36-.02-.43-.18,0-.02-.02-.05-.02-.08-.17-1.18-.58-1.38-1.22-.6l-3.16-4.21,35.16-10.38Z" style="fill: #c9be68;"/>
          <path d="m201.31,295.22l3.16,4.21c.98,2.62,1.09,5.15.34,7.6-3.39,1.43-6.86,2.54-10.42,3.32-5.32,1.18-10.05,2.95-15.22,4.04-.24.05-.48.2-.67.42-.89,1.06-1.97,1.32-3.26.79-.46-2.98-2.32-10.31-5.51-10.77l-.18-1.02c2.73-.36,5.06-.83,6.96-1.42,8.22-2.53,16.49-4.92,24.79-7.17Z" style="fill: #fcfdfd;"/>
          <path d="m169.53,304.9l.21-.07c3.18.46,5.04,7.79,5.51,10.77l.18,1.65-1.23.45c.7-2.33-1.36-8.3-2.27-10.38-.06-.13-.21-.19-.35-.13-.04.02-.07.04-.1.07-3.07,3.55-5.63,4.35-11.04,6.67-1.9.81-3.81,1.61-5.72,2.39-1.72.7-3.43.75-4.7,2.63-.11.18-.11.45.02.72l.75,1.58-1.05-.14-1.09-1.51.75-1.95c.13-.33.29-.58.42-.66l11.11-6.86c2.7-1.6,5.48-3.04,8.35-4.31.42-.19.6-.55.24-.92Z" style="fill: #c9c2c4;"/>
          <path d="m174.19,317.71c-7.71,1.95-15.54,2.53-23.4,3.55l-.75-1.58c-.12-.27-.13-.54-.02-.72,1.27-1.88,2.98-1.93,4.7-2.63,1.91-.78,3.81-1.58,5.72-2.39,5.41-2.32,7.97-3.12,11.04-6.67.1-.11.27-.13.38-.04.03.03.05.06.07.09.91,2.08,2.96,8.05,2.27,10.38Z" style="fill: #071c2f;"/>
          <path d="m204.81,307.03c-.2,1.04-.65,1.91-1.37,2.6l-26.55,7.54c-.19.06-.46.07-.82.03-.21-.02-.43,0-.65.05l-.18-1.65c1.29.53,2.37.27,3.26-.79.18-.22.42-.37.67-.42,5.18-1.09,9.9-2.86,15.22-4.04,3.56-.78,7.03-1.89,10.42-3.32Z" style="fill: #c9c2c4;"/>
          <path d="m148.65,319.61l1.09,1.51.02.73c-1.51.64-3.06.78-4.66.4.05-.23-.11-.48-.34-.53.4-1.83,1.7-2.54,3.89-2.11Z" style="fill: #393b40;"/>
        </g>
      </g>
      <path d="m200.34,117.27l-4.01-9.02c-.35-.79-.88-1.39-1.57-1.8s-1.34-.46-1.95-.17c-.55.27-.89.8-1.04,1.59s-.05,1.61.29,2.46l4.79,10.88c.48,1.16,1.17,2,2.07,2.53s1.73.57,2.51.15l14.5-7.08c.59-.24.96-.76,1.11-1.55s.02-1.6-.38-2.42c-.35-.79-.88-1.38-1.58-1.76s-1.3-.42-1.8-.13l-12.94,6.32Zm-1.04,22.27c-.25-.15-.49-.32-.72-.51s-.44-.41-.64-.65c-4.21-4.39-7.21-9.78-9.01-16.19s-2.19-12.37-1.18-17.89l1.93-10.51c.2-1.11.65-1.98,1.34-2.6s1.51-.86,2.46-.72l12.8,1.69c.54.07,1.08.26,1.62.58s1.03.73,1.5,1.24l10.88,12.14c.81.89,1.4,1.95,1.77,3.19s.44,2.41.24,3.53l-1.93,10.51c-1.01,5.52-3.32,9.91-6.91,13.17-3.59,3.26-7.81,4.43-12.66,3.53-.24-.02-.48-.07-.73-.15s-.49-.2-.75-.34Z" style="fill: #ff6a47;"/>
      <path d="m79.27,247.48l23.06-8.79c7.91,2.81,28.18,10.85,36.01,13.93.79.31,2.43.83,3.55,1.4.16.08.15.15-.03.21l-23.48,8.56c-.12.04-.26.03-.4-.02,0,0-38.84-15.24-38.71-15.28Z" style="fill: #393b40; mix-blend-mode: overlay;"/>
      <path d="m311.04,221l-.59,1.8-4.27,10.4c-2.51,1.86-2.25,3.56-3.7,5.7-.68,1.01-.82,2.19-1.36,3.27-.58,1.14-.91,1.81-.99,2.01-1.48,3.4-3.07,6.78-4.76,10.14-.37.93-.66,1.51-.84,1.73-.27.33-.61.2-.46-.14,1.32-3.02,2.58-6.05,3.78-9.09,1.42-2.55,2.64-5.14,3.68-7.77,2.83-6.05,5.49-12.14,7.97-18.26.08-.27.97-3.79,2.08-2.47.09.1.11.24.08.38l-.59,2.3Z" style="fill: #071c2f;"/>
      <path d="m306.18,233.2l-1.88,4.67-3.61,7.89c-1.32,2.74-2.72,5.47-4.2,8.17-.17.31-.55.44-1.13.39,1.7-3.35,3.28-6.73,4.76-10.14.08-.19.42-.86.99-2.01.55-1.08.68-2.25,1.36-3.27,1.44-2.15,1.19-3.84,3.7-5.7Z" style="fill: #393b40;"/>
      <path d="m84.01,229.24s-8,3.02-9.54,3.77l-4.15,1.48c-.11.04-.25.04-.37-.02l-14.55-6.24-2.69-1.36c-.12-.06-.12-.12.02-.17l7.15-2.43,7.14-2.35c.13-.04.27-.05.39-.01,1.62.5,10.63,4.87,16.61,7.32Z" style="fill: #393b40; mix-blend-mode: overlay;"/>
      <path d="m86.4,177.91c3.03-1.04,5.55-2.31,7.56-3.81s3.33-3.17,3.96-5.01c.38-1.13.49-2.12.31-3s-.61-1.42-1.3-1.66c-1.52-.52-3.25.19-5.2,2.12-1.95,1.93-3.45,4.45-4.52,7.56-.22.65-.41,1.29-.55,1.92-.14.63-.23,1.25-.27,1.87Zm-22.55,2.76c-.55.27-1.09.31-1.62.11s-.93-.57-1.2-1.12-.31-1.1-.12-1.65.56-.96,1.11-1.23l2.14-1.01-1.06-2.16c-.3-.56-.35-1.11-.15-1.66s.58-.95,1.13-1.23,1.1-.31,1.65-.12.96.56,1.23,1.11l1.01,2.14,2.16-1.06c.55-.27,1.1-.31,1.65-.12s.96.56,1.23,1.11.31,1.1.12,1.65-.56.96-1.11,1.23l-2.16,1.06,1.06,2.16c.27.55.31,1.09.13,1.63s-.55.94-1.1,1.21-1.1.31-1.65.12-.96-.56-1.23-1.11l-1.08-2.11-2.16,1.06Zm23.23,8.25c-1.17-.4-2.12-1.04-2.86-1.93s-1.3-1.96-1.68-3.21c-.65.16-1.28.29-1.88.39s-1.21.19-1.84.29c-.61.14-1.17.06-1.66-.25s-.8-.76-.91-1.37,0-1.16.32-1.66c.32-.51.8-.83,1.43-.97.65-.08,1.3-.19,1.95-.33s1.28-.28,1.89-.42c.01-1.06.12-2.14.31-3.24.2-1.09.49-2.21.87-3.33,1.53-4.48,3.75-7.94,6.66-10.38s5.78-3.18,8.63-2.2c1.95.67,3.26,1.94,3.92,3.82.66,1.88.59,3.99-.2,6.32-.89,2.62-2.67,4.95-5.32,6.98s-5.96,3.71-9.94,5.03c.21.63.48,1.16.83,1.58s.79.72,1.33.9c.95.32,1.98.31,3.1-.02s2.3-1.04,3.54-2.09c.38-.33.81-.5,1.28-.49.47,0,.9.18,1.29.53.4.38.64.83.72,1.38.08.54.02,1.06-.19,1.55-.13.27-.25.57-.35.88l-.39,1.14c.24-.09.49-.18.75-.27s.51-.18.75-.27c.41-.28.88-.4,1.39-.37s.98.21,1.4.53c.39.31.59.71.62,1.21s-.16.9-.54,1.19c-1.22.99-2.37,1.67-3.45,2.02-1.08.35-2.07.38-2.97.07-.82-.28-1.42-.76-1.81-1.44s-.5-1.46-.33-2.36c-1.23.6-2.4.97-3.51,1.1-1.11.13-2.18.02-3.2-.33Zm-26.75,1.27c-.6-.2-1.03-.57-1.29-1.1-.26-.53-.29-1.08-.1-1.65s.56-.99,1.09-1.26,1.09-.31,1.68-.11,1,.57,1.26,1.11c.26.54.29,1.09.09,1.67s-.56.99-1.09,1.25c-.53.26-1.08.29-1.64.1Zm8.09,2.76c-.6-.2-1.03-.57-1.29-1.1-.26-.53-.29-1.08-.1-1.65s.56-.99,1.09-1.26,1.09-.31,1.68-.11,1,.57,1.26,1.11c.26.54.29,1.09.09,1.67s-.56.99-1.09,1.25c-.53.26-1.08.29-1.64.1Zm8.04,2.75c-.6-.2-1.03-.57-1.29-1.1-.26-.53-.29-1.08-.1-1.65s.56-.99,1.09-1.26,1.09-.31,1.68-.11,1,.57,1.26,1.11c.26.54.29,1.09.09,1.67s-.56.99-1.09,1.25c-.53.26-1.08.29-1.64.1Zm8.09,2.76c-.6-.2-1.03-.57-1.29-1.1-.26-.53-.29-1.08-.1-1.65s.56-.99,1.09-1.26,1.09-.31,1.68-.11,1,.57,1.26,1.11c.26.54.29,1.09.09,1.67s-.56.99-1.09,1.25c-.53.26-1.08.29-1.64.1Zm8.05,2.75c-.57-.2-.99-.56-1.25-1.09-.26-.53-.29-1.08-.1-1.65s.56-.98,1.1-1.26c.54-.27,1.09-.32,1.65-.12s.98.56,1.26,1.1c.27.54.31,1.1.11,1.68s-.56.99-1.1,1.25c-.54.26-1.09.29-1.67.09Z" style="fill: #feddc0; mix-blend-mode: multiply;"/>
      <g style="mix-blend-mode: soft-light; opacity: .3;">
        <ellipse cx="184.68" cy="59.97" rx="2.37" ry="3.51" transform="translate(.12 120.3) rotate(-36.09)" style="fill: #fcfdfd;"/>
        <ellipse cx="175.47" cy="56.26" rx="2.37" ry="3.51" transform="translate(.53 114.16) rotate(-36.09)" style="fill: #fcfdfd;"/>
        <polygon points="87.57 23.94 167.71 56.44 167.71 50.39 87.57 17.89 87.57 23.94" style="fill: #fcfdfd;"/>
      </g>
    </g>
  </g>
</svg>