<?xml version="1.0" encoding="UTF-8"?>
<svg id="a" data-name="Layer 1" xmlns="http://www.w3.org/2000/svg" viewBox="0 0 373.75 346.05">
  <path d="m131.9,121.62c7.34-1.07,29.87-4.73,30.33-4.4,3.72,17.61,1.96,36.61.59,54.41-.58-.22-1.06-.39-1.41-.96-2.82-4.54-6.01-9.31-8.27-13.74-3.41-6.66-6.46-13.87-8.09-21.19-.33-1.49-.73-2.96-1.19-4.41-4.5-.55-22.15-1.17-22.15-1.17l.16-7.86c2.96.09,6.31-.14,10.03-.68Z" style="fill: #1c162e;"/>
  <path d="m143.85,131.33c.46,1.45.86,2.93,1.19,4.41,1.63,7.32,4.68,14.54,8.09,21.19,2.27,4.42,5.45,9.19,8.27,13.74.35.56.83.74,1.41.96l-.93,15.75-2.95,38.91c-3.34-.38-6.2-2.65-9.35-.37-1.47-9.64-2.98-19.27-4.55-28.89-.43-2.64-1.65-4.51-3.65-5.62-1.89-.61-3.88-.96-5.98-1.05-.42-16.93-.66-33.85-.71-50.76,0-2.76-.04-5.52-.11-8.27-.02-.6-.25-1.07-.53-1.07h-2.27c2.33-.18,8.73.65,12.07,1.07Z" style="fill: #393b40;"/>
  <path d="m131.78,130.24h2.27c.28.01.51.49.53,1.09.07,2.75.11,5.51.11,8.27.05,16.91.29,33.83.71,50.76l-9.28-.94c-1.63-17.84-3.37-33.88-4.31-53.35l-.22-5.31.12-.6.22-.02,9.86.1Z" style="fill: #1c162e;"/>
  <polygon points="46.45 225.65 127.31 228.39 126.19 122.77 45.85 114.17 46.45 225.65" style="fill: #feddc0;"/>
  <path d="m234.13,230.9c.34-1.08.62-2.48.85-4.19,1.01-7.63,1.18-15.25.53-22.86,0-.03,0-.06,0-.09.03-.16.18-.26.34-.22l7.6,1.77c1.67,1.3,3.04,2.89,4.13,4.78.45,2.21.6,4.48.46,6.81-.57,9.61-2.23,18.3-4.98,26.05-.91,2.55-2.91,3.64-6,3.28l-1.53.14c-1.28-.36-2.59-.5-3.94-.41-5.57-.94-11.01-2.3-16.33-4.09l-13.52-4.47-.34-1.01c-.05-.13-.18-.23-.35-.25l-5.37-.73s2.44-4.43,4.15-4.53c2.51-.15,34.01.96,34.31.01Z" style="fill: #c9be68;"/>
  <path d="m31.01,309.84c-4,.49-35.36,3.57-30.5,9.77,2.44,3.1,16.4,5.04,20.4,5.5,4.46.5,13.5,1.11,20.58,1.37l-.02.2c25.15,1.17,50.66,1.33,75.73-1.55,5.35-.61,10.39-1.56,15.12-2.84,9.99-2.7,1.18-7.29-2.44-8.71-.55-.22-.54-.38.04-.48l10.29-1.92,1.14-9.98c-.51-.65-1.02-1.05-1.51-1.19-3.91-1.08-13.28-2.18-13.28-2.18l-1.85-.29-17.82.08c-.58,0-10.28.42-10.28.42l-.21.26h0s-16.41,1.79-16.41,1.79c-.31,2.07-.51,4.21-.59,6.43-.04,1.08-.31,2.47.03,3.8.04.14.13.27.26.35,1.54.96,3.13,1.84,4.76,2.64.51.25,1.29,1.1,2.15,1.69.3.21.26.47-.1.78,1.42.7,3.85,1.39,3.03,3.5.24.22.27.43.09.64-.24.28-.6.43-.97.4-5.19-.46-10.2-1.19-15.02-2.19-1.87-.38-5.57-1.91-3.85-4.53.52-2.91.6-5.83.22-8.75l-6.84.47-.23,6.55c0,.2-.12.35-.25.35,0,0,0,0,0,0l-2.46-.17c-.09,0-.16-.15-.16-.34l.13-5.47c-3.14-.03-5.35.06-6.64.27l-22.54,3.32Zm66.17-.64c.06-.31.37-.51.69-.44,0,0,0,0,0,0l13.99,3.05c2.06-1.02,3.81-.58,5.23,1.33.23.31.18.55-.15.72.41,1.45-2.38.97-2.92.91-4.12-.47-8.23-1.02-12.34-1.64-2.84-.43-5.25-.38-4.51-3.94Z" style="fill: #d9eee7;"/>
  <polygon points="116.99 309.57 119 309.57 119.89 225.36 116.99 225.36 116.99 309.57" style="fill: #dd7060;"/>
  <path d="m166.33,24.97c-.5,5.06-5.71,6.35-9.08,3.05-.11-.11-.15-.09-.12.06,1.56,7.84,2.16,19.19-1.75,26.79l-5.08-2.25c-.84-.81-1.84-1.42-3-1.83-2.19-1.25-1.1-9.07-.57-11.18,1.95.55,3.39.2,4.31-1.07,2.46-3.35-1.28-8.28-4.77-5.47l-1.27-3.94c-.04-.13-.17-.22-.31-.21-4.84.28-9.72-.61-12.88-4.62-1.75-3.35.49-6.48,3.8-7.33,5.27-1.37,10.63-1.26,16.09.34.86.25,1.72.91,2.62,1.26.13.05.27,0,.35-.11,1.19-1.76,2.84-2.66,4.97-2.71,4.68-.02,7.09,5.22,6.69,9.23Z" style="fill: #1a142c;"/>
  <path d="m144.68,28.91c.14,0,.27.08.31.21l1.27,3.94c-1.71,1.58-1.99,3.43-.85,5.55l-4.62,7.27c-.1.02-.19.01-.28-.01-.03,0-.06-.16-.07-.36v-.36c-.01-.12-.18-.22-.38-.23-1.25-.05-2.47.11-3.66.49l-3.43-1.33c-.69-.27-1.16-.71-1.43-1.33l-1.88-4.36c.14-.68.06-1.31-.24-1.9.25-.07.36-.3.34-.71-.17-2.97-.12-8.7,2.03-11.5,3.16,4.02,8.05,4.9,12.88,4.62Z" style="fill: #fcb195;"/>
  <path d="m151.03,38.54c-.93,1.26-2.36,1.62-4.31,1.07l-.36-.24-.95-.75c-1.14-2.12-.86-3.97.85-5.55,3.49-2.81,7.23,2.12,4.77,5.47Z" style="fill: #fdfdfd;"/>
  <path d="m107.36,66.75c3.32-8.33,7.2-16.38,11.66-24.15,2.55-4.44,5.32-7.39,9.33-10.14.36-.25.52-.17.47.24l-.14,1.3c-.02.18-.1.33-.23.44-1.2.99-2.34,2.05-3.43,3.17-.91.95-.11,1.6.72.57.89-1.1,2.15-2.36,3.68-1.69.29.58.37,1.22.24,1.9-1.37,1.98-2.99,3.48-4.85,4.51-.58.32-.98.8-1.19,1.44-1.99,6.12-2.79,12.62-3.8,18.95-.08.49.08.58.48.27l1.74-1.34c-.66,1.92-2.83,1.87-2.47,4.03,0,.02,0,.04.02.05.04.07.14.08.22.04.33-.21.69-.24,1.08-.09-2.02,2.52-3.76,5.31-5.21,8.37-.82-2.55-2.4-4.34-4.76-5.35-1.33-.33-2.68-.48-4.05-.45.22-1.14.39-1.83.48-2.08Z" style="fill: #ffae98;"/>
  <path d="m146.36,39.36c-1.81,2.98-3.79,5.58-5.02,8.87-1.02,2.73-2.04,5.46-3.06,8.18l-1.78,3.51c-1.76,4-4.83,5.92-9.23,5.76-1.7-.12-3.78-.59-5.07.83-2.22,2.44-5.74,7.38-5.09,11.02l.1,5.21c0,.16-.07.3-.18.37-.44.28-.7.11-.78-.51-.33-2.41-.52-5.07-.57-7.98,1.45-3.06,3.18-5.85,5.21-8.37,3.11-3.03,6.08-.71,9.56-2.05,2.48-.95,4.17-2.81,5.1-5.58,1.21-1.99,2.15-4.16,2.83-6.5l2.41-6.25,4.62-7.27.95.75Z" style="fill: #393240;"/>
  <path d="m146.72,39.6c-.53,2.12-1.61,9.94.57,11.18-.81,4.74-3.57,6.89-8.28,6.45-.14-.01-.27-.1-.36-.23l-.37-.59c1.02-2.73,2.04-5.46,3.06-8.18,1.23-3.29,3.21-5.89,5.02-8.87l.36.24Z" style="fill: #fcb195;"/>
  <path d="m140.06,44.92c.21.01.37.11.37.23v.36c.01.2.04.35.08.36.09.03.18.03.28.01l-2.41,6.25c-.57-.47-1.2-.68-1.9-.61-.02,0-.03,0-.05,0-.11-.01-.18-.11-.17-.22.28-2.03.33-4,.14-5.89,1.19-.38,2.4-.54,3.66-.49Z" style="fill: #fcb195;"/>
  <path d="m150.29,52.62c-1.89,5.93-7.64,9.3-13.79,7.3l1.78-3.51.37.59c.08.13.21.21.36.23,4.72.44,7.48-1.71,8.28-6.45,1.16.42,2.16,1.03,3,1.83Z" style="fill: #fdfdfd;"/>
  <path d="m132.49,53.72c.47-.41.86-1.12,1.53-1.47.13-.07.16-.04.08.09-.15.26-.21.51-.19.75.19,1.87.74,3.71,1.64,5.53-.92,2.77-2.62,4.62-5.1,5.58-3.48,1.34-6.45-.99-9.56,2.05-.4-.15-.76-.12-1.08.09-.02.01-.04.02-.06.02-.09.02-.17-.03-.18-.11-.36-2.16,1.81-2.11,2.47-4.03,3.57-2.73,7.05-5.56,10.45-8.5Z" style="fill: #fd8859;"/>
  <path d="m155.38,54.87c-.06.06-.01.12.13.19,3.09,1.46,5.55,3.63,7.38,6.5,4.27,6.7,7.22,14.48,9.99,21.9.43,1.14.71,2.05.84,2.72.03.17.01.33-.06.45l-1.6,2.39c-1.05,1.1-2.27,1.97-3.66,2.59l-.77-1.27c-.09-.15-.2-.25-.31-.28-6.42-1.68-11.98-10.99-14.65-16.52-.28-.57-.44-.06-.38.19.37,1.58.56,2.53.58,2.83.32,4.84,1.39,9.77,3.21,14.81.34.94.76,1.68,1.25,2.22.1.11.24.18.39.18l2.97.11c.26,2.45.38,4.03.37,4.73-.09,4.13-16.23,8.46-19.61,9.3-3.12.78-6.23-.59-9.56-.28l-10.35-1.01c-.17-.02-.31-.15-.33-.32l-.24-2.37s0-.03,0-.04c.01-.12.13-.21.27-.2l3.43.23c3.51.58,6.86.55,10.03-.11.76-.16.98-.59.65-1.3-5.32-11.25-6.98-22.41-7.76-34.65-.03-.46.02-.92.15-1.37.14-.48-.02-.76-.47-.83,4.39.17,7.47-1.75,9.23-5.76,6.14,2,11.9-1.38,13.79-7.3l5.08,2.25Z" style="fill: #ff6a47;"/>
  <path d="m60.21,71.23c-.35-2.61.28-4.98,2.84-5.86,2.31-.79,6.88.24,9.81.29l.83-.02,1.9.45c.55,2.21,1.7,4.4,2.29,6.28,1.64,5.16,3.56,10.47,5.77,15.93.21.53.45.98.71,1.34.08.11.11.26.1.42-.03.38.17.58.59.61-.21,1.69.33,3.11,1.61,4.24,2.66,6.47,6.28,12.36,10.86,17.67-6.76-.63-13.52-1.29-20.27-1.99-4.12-.42-9.04-.39-11.15-2.88-.27-.32-.58-.6-.94-.82l-1.15-6.33-.99-7.65c-.9-7.14-1.84-14.37-2.81-21.69Z" style="fill: #d0d0d2;"/>
  <path d="m122.21,66.51c1.29-1.43,3.37-.96,5.07-.83.46.07.61.34.47.83-.13.45-.18.91-.15,1.37.78,12.25,2.44,23.4,7.76,34.65.33.7.12,1.14-.65,1.3-3.17.66-6.51.69-10.03.11-.3-5.29-.82-10.78-1.56-16.47-.16-1.21-.36-2.36-.61-3.43-.48-2.08-.74-3.2-.8-3.37-.69-1.97-2.23-3.02-4.6-3.14-.65-3.64,2.87-8.58,5.09-11.02Z" style="fill: #ff834e;"/>
  <path d="m106.88,68.82c1.37-.03,2.72.12,4.05.45,2.1,2.19,3.32,4.66,3.65,7.42,1.62,13.44,3.87,24.31,5.49,36.54.09.67-.52.98-1.81.91-.75-.04-1.49.03-2.23.2-.13.03-.13.06,0,.1.19.05.34.15.46.27-6.34-.55-12.66-1.26-18.97-2.13-6.25-4.98-13.39-20.41-14.45-24.28-2.2-5.46-3.54-10.77-5.18-15.93-.6-1.88-1.74-4.07-2.29-6.28l31.28,2.74Z" style="fill: #dfe0e2;"/>
  <path d="m115.69,74.62c.05,2.91.24,5.58.57,7.98.09.62.35.79.78.51.11-.07.18-.22.18-.37l-.1-5.21c2.37.12,3.91,1.17,4.6,3.14.06.17.32,1.29.8,3.37.25,1.07.45,2.21.61,3.43.74,5.68,1.26,11.17,1.56,16.47l-3.43-.23s-.03,0-.04,0c-.14.01-.24.12-.22.24l.24,2.37c.02.17.15.3.33.32l10.35,1.01c-.23.69-.7,1.11-1.42,1.27l-8.53-.91s-.03,0-.05,0c-.12.01-.21.11-.2.22l.14,1.3c-.15.66-.08,1.27.19,1.84.06.13.2.21.35.22,2.16.12,4.39-.13,6.69-.76,0,1.13-.56,1.95-1.68,2.48-3.53,2.41-6.94,1.79-10.91,1.42-.12-.13-.28-.22-.46-.27-.13-.04-.13-.07,0-.1.74-.17,1.49-.24,2.23-.2,1.3.07,1.9-.23,1.81-.91-1.61-12.23-3.87-23.1-5.49-36.54-.33-2.76-1.55-5.23-3.65-7.42,2.36,1.01,3.94,2.79,4.76,5.35Z" style="fill: #fdfdfd;"/>
  <path d="m157.74,93.78c-.15,0-.29-.07-.39-.18-.49-.54-.91-1.28-1.25-2.22-1.82-5.04-2.89-9.98-3.21-14.81-.02-.3-.21-1.25-.58-2.83-.06-.26.1-.77.38-.19,2.67,5.53,8.23,14.84,14.65,16.52.11.03.22.13.31.28l.77,1.27c-2.43,1.2-5,1.97-7.7,2.29l-2.97-.11Z" style="fill: #ff834e;"/>
  <path d="m173.29,94.7c.46,4.2-.59,7.93-3.15,11.19-2.81,1.87-5.95,3.08-9.44,3.61-6.88,1.06-13.44,1.85-19.68,2.37-2.61.22-4.69,2.02-6.37,4.42-.86.52-1.93.74-3.23.66,1.09-2.54.67-3.39-1.28-2.55-.16.07-.32.07-.44.01l-2.3-1.13c1.13-.53,1.69-1.35,1.68-2.48l.96-.96.58-.45c.16-.12.24-.28.21-.39-.03-.1-.15-.14-.35-.11.72-.15,1.19-.58,1.42-1.27,3.34-.31,6.44,1.07,9.56.28,3.37-.84,19.52-5.17,19.61-9.3.02-.7-.11-2.28-.37-4.73,2.71-.32,5.27-1.09,7.7-2.29,1.39-.62,2.61-1.49,3.66-2.59.67,1.84,1.08,3.74,1.22,5.69Z" style="fill: #fdbca5;"/>
  <path d="m301.65,100.96c2.61-2.2,6.93-1.77,9.99-.5.13.05.29.04.41-.04,3.76-2.53,7.82-3.21,12.2-2.04l.87.34c8.76,3.98,7.33,16.14,10.15,23.69,2.82,7.54,7.09,11.88,13.52,18.67,8.42,8.9,2.34,28.44-10.63,28.76-.61-8.26-1.69-16.59-5.71-22.83-.13-.2-.35-.34-.58-.37-4.69-.56-8.63-2.62-11.83-6.18-.28-.66-.7-1.26-1.26-1.81-3.01-5.4-3.98-11.25-2.91-17.55l.25-.2c8.74,4.62,8.23-11.08-.3-5.73l-.2-1.87c-.07-.68-.46-1.04-1.17-1.08-1.83-.11-3.08-.98-3.76-2.61-.04-.1-.19-.15-.37-.12-2.6.45-5.18.5-7.74.17-3.34-1.74-3.63-6.43-.94-8.7Z" style="fill: #1a142c;"/>
  <path d="m187.74,107.69c-6.19,1.2-12.39,2.26-18.62,3.17-7.48,1.09-14.97,2.54-22.36,3.6-4.05.58-8.09,1.19-12.12,1.84,1.68-2.4,3.76-4.21,6.37-4.42,6.24-.52,12.8-1.31,19.68-2.37,3.48-.54,6.63-1.74,9.44-3.61,5.92.42,11.79,1.02,17.61,1.8Z" style="fill: #ff905c;"/>
  <path d="m66.1,107.71c2.11,2.49,7.03,2.46,11.15,2.88,6.75.7,13.51,1.36,20.27,1.99,6.3.88,12.62,1.59,18.97,2.13,3.97.37,7.37.99,10.91-1.42l2.3,1.13c.12.06.28.05.44-.01,1.95-.84,2.37.01,1.28,2.55-4.3-.52-9.12-.29-12.94-.61-14.94-1.26-27.92-2.99-40.4-4.14-8.44-.78-16.81-1.8-25.28-2.31-.17-.01-.3-.11-.32-.24l-.12-.64,12.8-2.13c.35.22.67.5.94.82Z" style="fill: #f98d60;"/>
  <path d="m189.2,107.67c.18.04.3.17.3.31v4.5c0,.09-.14.18-.32.21l-15.68,2.53c-1.15.19-11.14,1.66-11.28,2-.46-.33-22.98,3.33-30.33,4.4-3.72.54-7.07.77-10.03.68-10.94-1.44-21.9-2.62-32.88-3.56l-1.05-.1-42.09-4.47c-.24-.02-.41-.23-.41-.47l.04-3.35c0-.13.11-.25.26-.27l6.63-1.05.12.64c.02.13.16.23.32.24,8.47.51,16.84,1.53,25.28,2.31,12.48,1.15,25.46,2.88,40.4,4.14,3.82.32,8.64.09,12.94.61,1.3.07,2.37-.15,3.23-.66,4.03-.65,8.07-1.27,12.12-1.84,7.38-1.06,14.88-2.51,22.36-3.6,6.23-.91,12.43-1.96,18.62-3.17.46-.11.95-.12,1.46-.01Z" style="fill: #dd7060;"/>
  <path d="m121.71,108.22s0-.03,0-.04c.01-.11.12-.19.24-.18l8.53.91c.2-.03.32,0,.35.11.03.11-.05.27-.21.39l-.58.45c-1.13-.37-2.28-.63-3.44-.77-1.37-.16-2.73-.32-4.09-.46-.23-.03-.29.03-.18.17.1.14.25.19.44.15.21-.04.39.02.46.14.17.31.41.38.72.21.08-.04.28-.06.52-.04l1.98.15c.15.01.29.07.38.17l.16.16s0,0,0,0c.06.06.03.18-.06.27-.57.55-1.21.63-1.93.24-.09-.05-.25-.03-.43.04-.77.33-1.57.38-2.39.15-.14-.04-.23-.16-.23-.29,0-.22-.03-.43-.12-.61l-.14-1.3Z" style="fill: #222546;"/>
  <path d="m121.96,110.13c0,.14.09.26.23.29.82.23,1.62.18,2.39-.15.18-.08.34-.09.43-.04.72.39,1.36.31,1.93-.24,0,0,0,0,0,0,.09-.09.11-.21.05-.27l-.16-.16c-.1-.1-.23-.16-.38-.17l-1.98-.15c-.24-.02-.43,0-.52.04-.31.17-.55.1-.72-.21-.07-.12-.25-.18-.46-.14-.19.03-.34-.02-.44-.15-.11-.14-.05-.19.18-.17,1.36.15,2.72.3,4.09.46,1.16.14,2.31.4,3.44.77l-.96.96c-2.3.63-4.53.89-6.69.76-.15,0-.29-.09-.35-.22-.28-.57-.34-1.18-.19-1.84.09.19.13.39.12.61Z" style="fill: #444761;"/>
  <path d="m310.33,109.49c.17-.03.32.02.37.12.68,1.63,1.93,2.51,3.76,2.61.7.04,1.09.4,1.17,1.08l.2,1.87c-.59,1.42-.78,2.9-.57,4.42-4.17,3.65-4.65,6.93-6.1,12.93-.58-1.18-.82-2.45-.69-3.8,0-.12.06-.24.15-.38.22-.34.23-.69,0-1.02-.06-.1-.24-.17-.45-.18-4.12-.16-6.21-2.43-6.25-6.8-.38-1.05-.52-2.02-.4-2.92-.04-2.48-.09-5.65,1.08-7.77,2.55.34,5.13.28,7.74-.17Z" style="fill: #fdc6a9;"/>
  <path d="m316.12,120.9l-.87-1.3c-.21-1.53-.02-3,.57-4.42,8.53-5.35,9.04,10.35.3,5.73Z" style="fill: #fdfdfd;"/>
  <path d="m155.51,55.06c3.09,1.46,5.55,3.63,7.38,6.5,4.27,6.7,7.22,14.48,9.99,21.9.43,1.14.71,2.05.84,2.72.03.17.01.33-.06.45l-1.6,2.39c.67,1.84,1.08,3.74,1.22,5.69.46,4.2-.59,7.93-3.15,11.19,5.92.42,11.79,1.02,17.61,1.8.46-.11.95-.12,1.46-.01.18.04.3.17.3.31v4.5c0,.09-.14.18-.32.21l-15.68,2.53c-1.15.19-11.14,1.66-11.28,2,3.72,17.61,1.96,36.61.59,54.41l-.93,15.75c.1-.1.15-.22.14-.36,0-.16.06-.29.17-.33.34-.11.49.02.46.38-.12,1.55.2,2.68.96,3.38.51.48.76,1.07.76,1.78l-.26,32.4,5.24-3.09c-.95.16-1.43-.29-1.42-1.35.01-9.74.14-19.49.39-29.24.02-.59.32-.91.9-.96,2.51-.21,5-.67,7.48-1.4,6.38-1.57,11.98-4.58,16.81-9l5.37-3.11-.71-7.47c-.02-.14.03-.29.13-.41l1.29-1.47c-1.26.17-2.51.24-3.75.23-3.38-.05-5.57-1.72-5.96-5.12,0-.09-.08-.23-.2-.38-.08-.09-.1-.2-.07-.32.07-.26.11-.41.1-.45-.04-.84-.46-1.48-.48-2.25-.07-2.48.17-4.93.71-7.34-8.61-3.5-4.36-14.93,4.53-12.91.66.15,1.33.29,2,.43.15.03.3.01.44-.06,8.84-4.46,18.92-2.72,20.08,8.72.22-.06.39,0,.5.16.05.07.14.09.21.05.01,0,.02-.02.03-.03,4.52-6.51,8.06-13.17,10.63-19.98,4.77-12.66,2.2-27.23-.84-40.3-1.48-6.38-4.03-11.87-10.76-13.98-.11-.04-.18-.15-.14-.26,0,0,0-.01,0-.02.28-.63.79-1.57,1.52-2.84,3.14-5.4,2.88-12.94,2.26-19.08C218.2,29.59,206.23,1.56,180.35.04c-1.84-.11-3.7,0-5.56.33-7.31,1.37-12.93,7.54-16.05,13.96-.05.12-.03.26.07.38l.83,1.02c4.68-.02,7.09,5.22,6.69,9.23-.5,5.06-5.71,6.35-9.08,3.05-.11-.11-.15-.09-.12.06,1.56,7.84,2.16,19.19-1.75,26.79-.06.06-.01.12.13.19Zm41.26,114.34c.14.03.26.13.28.27.91,4.4-5.67,6.11-6.42,2.57-.77-3.6,4.2-3.19,6.14-2.84Z" style="fill: #d9eee7;"/>
  <path d="m318.78,138.65c-1.53.57-2.4,1.84-3.85,2.23-3.27.89-5.1-.57-5.48-4.39.69-2.42,1.45-5.53,2.28-9.32.55-2.51,1.93-4.53,4.15-6.08-1.07,6.3-.11,12.15,2.91,17.55Z" style="fill: #fdcdb8;"/>
  <path d="m55.6,130.86c.06.12.2.19.33.16,5.34-1.39,11.59-.89,15.4,3.46.93,1.06,1.52,1.9,1.77,2.52.47,1.15.22,2.26-.73,3.33-2.42-.36-4.79-.91-7.11-1.65,0,0,0,0,0,0-.12-.03-.24.04-.28.16-.64,2.37-1.14,4.22-3.64,4.68-1.62.3-2.57.62-2.49,2.38.09,2.22.59,5.13-.55,7.13l-.36-.16c2.59-4.36-3.05-8.91-6.04-4.75-1.87,2.61-.19,6.33,3.08,6.21l-.24.2-.88.15c-4.45-.71-6.55-4.2-7.56-8.19-.54-2.85-.34-5.67.61-8.43.05-.13,0-.28-.1-.38-3.96-3.53-2.2-8.79,2.69-10.02,2.9-.33,4.93.74,6.1,3.2Z" style="fill: #1a142c;"/>
  <path d="m314.92,140.88c1.46-.39,2.32-1.66,3.85-2.23.56.54.98,1.15,1.26,1.81-1.9,2.33-4.13,3.63-6.69,3.9-2.2.23-4.29-1.64-6.12-3.55l2.21-4.31c.39,3.81,2.21,5.27,5.48,4.39Z" style="fill: #fdfdfd;"/>
  <path d="m194.52,138.59c.66.15,1.33.29,2,.43.15.03.3.01.44-.06,8.84-4.46,18.92-2.72,20.08,8.72.24,4.82-1.14,7.82-2.72,11.83-.78,1.98-1.17,3.55-1.19,4.72-.07,7.19,7.65,10.79,11.35,15.84l-.05.25-12.02-5.84c-3.29-4.19-5.08-8.97-5.35-14.32,7.05-1.17,3.87-10.96-2.49-7.11l-.4-2.41c0-.06-.03-.12-.07-.17-.13-.17-.39-.2-.58-.07-4.17,2.99-8.86,2.75-13.52,1.1-8.61-3.5-4.36-14.93,4.53-12.91Zm2.73.76c-.26-.07-.28-.03-.08.12l1.23.89c3.44,3.14,5.95,6.89,7.52,11.27.05.13.15.22.26.24.17.03.23-.04.17-.21-1.64-4.46-4.25-8.24-7.83-11.33-.32-.5-.74-.82-1.28-.97Z" style="fill: #1a142c;"/>
  <path d="m307.45,137.28c-1.5,3.89-4.25,7.07-6.88,10.23-2.43,2.91-4.05,6.6-1.19,9.91,1.98,2.29,3.97,4.58,5.96,6.87.12.13.25.21.38.23,0,0-4.84-7.31-5.18-7.69-2.82-3.1-1.41-5.52.98-8.5,1.97-2.46,3.88-4.96,5.71-7.51,1.83,1.91,3.92,3.78,6.12,3.55,2.56-.27,4.79-1.57,6.69-3.9,3.19,3.56,7.13,5.62,11.83,6.18.24.03.45.16.58.37,4.02,6.24,5.1,14.57,5.71,22.83.09,4.49,1.65,7.21-4.22,8.29-4.69.39-9.13-.36-13.32-2.23-.01,0-.02,0-.04-.01-.1-.02-.2.05-.22.15-.53,2.61-.9,7.19-2.97,8.98-.84.72-2.81,1.66-5.9,2.82-4.53,1.69-9.15,3.06-13.87,4.1-.97.21-1.3-.08-.98-.88l-3.15-20.25c-.05-.33-.35-.57-.68-.55-.47.03-1.03-.1-1.7-.39-1.31-.75-2.03-1.61-1.69-3.25.46-2.19,1.03-4.5,1.72-6.94l.55-1.52c2.26-8.8,5.48-19.93,15.77-20.87Z" style="fill: #c9be68;"/>
  <path d="m58.84,145.91c-.07-1.77.87-2.09,2.49-2.38,2.5-.46,3-2.31,3.64-4.68,0,0,0,0,0,0,.04-.12.16-.19.28-.15,2.32.74,4.69,1.28,7.11,1.65.29,1.41.45,2.95.5,4.62.14,4.91.2,10.28-4.62,13.38-2.18-.42-4.8.22-4.29,2.98h-.2l-.21-1.05c-.03-.14-.12-.28-.25-.37-1.92-1.46-4.96-4.27-5.01-6.85,1.14-2.01.64-4.91.55-7.13Z" style="fill: #fcb195;"/>
  <path d="m197.17,139.47c-.21-.15-.18-.19.08-.12.53.15.96.47,1.28.97l-.12.04-1.23-.89Z" style="fill: #444761;"/>
  <path d="m206.35,151.65c.06.16,0,.23-.17.21-.11-.01-.21-.11-.26-.24-1.57-4.37-4.08-8.13-7.52-11.27l.12-.04c3.58,3.09,6.19,6.87,7.83,11.33Z" style="fill: #6d8387;"/>
  <path d="m51.89,148.13c2.99-4.16,8.63.39,6.04,4.75-.82.82-1.8,1.31-2.96,1.46-3.27.11-4.95-3.6-3.08-6.21Z" style="fill: #fdfdfd;"/>
  <path d="m203.51,150.4c.05-.04.11-.06.18-.08.23-.04.44.09.48.31l.4,2.41c-.93,1.63-1.22,3.35-.86,5.15-.95,3.17-2.31,6.15-4.09,8.94-1.26.17-2.51.24-3.75.23-3.38-.05-5.57-1.72-5.96-5.12,0-.09-.08-.23-.2-.38-.08-.09-.1-.2-.07-.32.07-.26.11-.41.1-.45-.04-.84-.46-1.48-.48-2.25-.07-2.48.17-4.93.71-7.34,4.67,1.65,9.35,1.89,13.52-1.1Z" style="fill: #fdb597;"/>
  <path d="m207.05,160.15l-2.25-.95-1.1-1.01c-.35-1.8-.07-3.52.86-5.15,6.36-3.85,9.53,5.94,2.49,7.11Z" style="fill: #fdfdfd;"/>
  <path d="m58.29,153.04c.05,2.58,3.1,5.39,5.01,6.85.13.1.22.23.25.37l.21,1.05-.12,4.98c.09,3.71.04,7.41-.15,11.12-.32,6.55,1.62,10.41,4.24,16.13,1.02,2.7,1.26,5.47.73,8.31-.39.27-.67.19-.83-.24.46-2.61.15-5.1-.95-7.47-2.76-6.19-4.96-10.29-4.41-16.32.18-1.94.23-3.89.14-5.84.43-2,.39-4.03-.1-6.07l.28-4.16c.04-.61-.21-1.12-.73-1.51-2.06-1.55-3.65-3.48-4.77-5.79-.06-.13-.2-.21-.35-.19l-2.01.28.24-.2c1.16-.15,2.15-.64,2.96-1.46l.36.16Z" style="fill: #393240;"/>
  <path d="m56.74,154.26c.14-.02.28.06.35.19,1.12,2.32,2.71,4.25,4.77,5.79.52.4.77.9.73,1.51l-.28,4.16c-.4,1.56-.91,2.73-1.5,3.51-3.92,5.15-8.57-.98-8.48-5.11.01-.54.29-1.75.82-3.62.56-1.95.79-3.95.71-6.01l.88-.15,2.01-.28Z" style="fill: #fda995;"/>
  <path d="m204.8,159.2c-1.59,4.05-2.57,6.9-4.96,9.52-.1.11-.17.25-.19.4-.34,2.76.59,6.22.91,9.03.46,4.17.79,7.85.51,12.3-.18,2.89,0,5.75.52,8.59.57,3.05.38,5.14-.71,7.79-1,2.02-1.62,3.24-1.87,3.67-.68,1.16-.98.27-.75-.36.23-.66.44-1.32.63-1.98,1.57-2.75,2.08-5.13,1.6-8.44-.47-3.22-1.02-5.87-.66-9.53.46-4.64-.05-9.15-.92-13.69l-.71-7.47c-.02-.14.03-.29.13-.41l1.29-1.47c1.78-2.79,3.14-5.77,4.09-8.94l1.1,1.01Z" style="fill: #303c5d;"/>
  <path d="m68.25,158.34c2.07.43,2.53,2.39,1.15,3.78-1.48,1.49-4.41.93-5.44-.8-.52-2.76,2.11-3.4,4.29-2.98Z" style="fill: #252e50;"/>
  <path d="m207.05,160.15c.27,5.36,2.06,10.13,5.35,14.32-1.03,3.45-6.27,11-10.54,8.24-.11-.08-.2-.2-.24-.36l-1.08-4.21c-.32-2.81-1.25-6.26-.91-9.03.02-.15.08-.29.19-.4,2.39-2.62,3.37-5.47,4.96-9.52l2.25.95Z" style="fill: #fdb597;"/>
  <path d="m224.69,179.93c-1.12-5.15-2.06-10.33-2.81-15.53-.51-3.51,1.74-4.65,4.85-4.37,3.06.28,6.1.59,9.13.95,1.41,2.58,2.27,4.36,2.57,5.33,2.57,8.38,4.55,13.73,8.5,19.7.26.39.55.45.88.19.28,1.09.79,2.04,1.53,2.86,2.34,3.96,5.27,7.4,8.79,10.32.02.02.67.46,1.94,1.31,1.13.76,1.94,1.8,2.41,3.11-9.14-.78-14.79-1.29-16.94-1.55-3.83-.45-7.09-.69-9.79-.73-.13,0-.25.09-.27.22l-.03.23c-.21-.26-.28-.54-.21-.83-.04-6.24-1.49-15.49-7.45-18.98-1.04-.79-2.16-1.41-3.37-1.85l.05-.25c.16,0,.24-.04.22-.13Z" style="fill: #d0d0d2;"/>
  <path d="m268.92,164.08c2.61.26,4.59,1.27,5.16,3.84,2.39,10.84,4.78,21.69,7.15,32.53.35,1.6.4,3.12.46,4.74,0,0,0,0,0,0,0,.13-.1.23-.23.23-3.97,0-7.91-.26-11.83-.75-1.95-.25-4.78-.07-7.15-.88-.48-1.31-1.28-2.34-2.41-3.11-1.27-.86-1.92-1.29-1.94-1.31-3.51-2.92-6.85-6.81-8.64-9.23s-2.3-3.75-2.56-4.14c-3.95-5.96-5.92-11.32-8.5-19.7-.3-.98-1.16-2.75-2.57-5.33,11.03.99,22.05,2.02,33.06,3.09Z" style="fill: #dfe0e2;"/>
  <path d="m49.28,162.83s.04,0,.06,0c.08.01.14.09.13.17-.64,4.81,1.7,10.36,6.81,11.19,2.21.36,4.26-.37,6.14-2.2.09,1.95.04,3.9-.14,5.84-.55,6.03,1.65,10.13,4.41,16.32-1.77-.71-3.66-.15-5.48-.08-.17,0-.3.1-.33.22l-.19.89c-1.86,3.33-4.26,6.24-7.23,8.74-.01.01-.02.03-.03.04-.05.08-.02.19.06.23,3.69,2.13,7.51,3.93,11.46,5.4-.16,3.84.14,7.58.92,11.2-8.42-.52-17.05,1.01-25.37,2.96-.35-5.96,2.07-11.25,3.84-16.67.12-.37.41-.66.78-.79.53-.18,8.17-1.97,5.81-3.28-9.59-5.31-17.4-13.08-20.85-23.56-.28-.85-.83-1.1-1.65-.85,3.57-10.67,10.9-12.69,20.84-15.8Z" style="fill: #ff6a47;"/>
  <path d="m73.32,172.61c2.31,5.4,3.94,11.98,7.1,18.34.28.58.41,1.16.37,1.76-.04.7-.1,1.32-.18,1.86-.89,2.04-1.85,3.84-2.87,5.4-1.5-.08-1.31-.87-1.83-1.76-2.65-4.54-4.86-9.43-6.65-14.67-.43-1.27-.95-1.3-1.55-.1-.29.58-.56,1.4-.82,2.45-.19.81-.75,1.38-.91,2.23-.02.14,0,.3.09.43.97,1.55,1.52,3.21,1.65,5.01-2.62-5.72-4.56-9.58-4.24-16.13.18-3.7.23-7.41.15-11.12,4.51-.65,8.07,2.56,9.68,6.31Z" style="fill: #ff905c;"/>
  <path d="m196.77,169.4c.14.03.26.13.28.27.91,4.4-5.67,6.11-6.42,2.57-.77-3.6,4.2-3.19,6.14-2.84Z" style="fill: #252e50;"/>
  <path d="m292.81,170.25c.33-.02.62.21.68.55l3.15,20.25-.31.03-.02-1.43c0-.14-.09-.26-.22-.29-.76-.18-1.48-.08-2.17.3-1.32-.74-2.68-1.17-4.06-1.28-.43-.04-.85.12-1.14.43-1.57,1.65-4.75,3.88-5.31,6.06-.44.07-.68.31-.71.71.25.32.24.6-.02.85-1.11-2.03-1.27-5.56-1.66-7.91-.09-.55.11-.95.61-1.21,2.01-1.03,7.03-3.58,7.52-5.99.76-3.8,1.42-7.62,1.97-11.46.66.3,1.23.43,1.7.39Z" style="fill: #fdc6a9;"/>
  <path d="m224.43,180.31c1.21.44,2.33,1.06,3.37,1.85-4.95,2.32-6.1,5.44-8.59,11.04-2.58,5.82-4.39,13.49-12.11,14.27-2.3.23-4.37.02-6.23-.64,1.1-2.66,1.28-4.74.71-7.79-.53-2.84-.7-5.71-.52-8.59.28-4.45-.05-8.13-.51-12.3l1.08,4.21c.04.16.12.28.24.36,4.27,2.76,9.51-4.79,10.54-8.24l12.02,5.84Z" style="fill: #63a998;"/>
  <path d="m311.49,187.82c3.09-1.15,5.05-2.09,5.9-2.82,2.07-1.78,2.45-6.37,2.97-8.98,0-.01,0-.03.01-.04.04-.1.15-.14.25-.1,4.19,1.87,8.62,2.62,13.32,2.23,0,3.67-.86,7.07-2.56,10.22-2.41,4.13-5.88,6.61-10.41,7.47-3.75.7-8.06,1.11-12.92,1.2l-9.25.2c-.76.04-1.03-.1-.78-.42.12-.16.19-.31.18-.39-.09-.42-.29-.77-.61-1.04-.08-.07-.14-.23-.18-.45-.18-1.04-.11-2.04.21-3,4.72-1.04,9.35-2.41,13.87-4.1Z" style="fill: #fdc6a9;"/>
  <path d="m199.81,190.18c-.36,3.67.19,6.31.66,9.53.48,3.32-.02,5.7-1.6,8.44-.26-.03-.49-.15-.68-.36-.11-.12-.25-.18-.38-.18-3.28.18-6.58.07-9.89-.34-2.68-2.54-2.2-6.57-2.43-9.94-.05-.74-.45-1.02-1.2-.84,1.55-4.06,3.14-7.52,4.77-10.38.97-1.7,2.45-3.88,4.46-6.52l5.37-3.11c.87,4.54,1.38,9.05.92,13.69Z" style="fill: #63a998;"/>
  <path d="m30.09,179.47c3.45,10.47,11.26,18.25,20.85,23.56,2.36,1.31-5.28,3.1-5.81,3.28-.37.13-.66.42-.78.79-1.77,5.42-4.19,10.71-3.84,16.67-4.24,1.05-8.55,1.58-12.92,1.58l-4.24-.74-.92-1.24c-.05-12.07,1.12-23.69,3.6-35.5.61-3.14,1.41-6.22,2.41-9.25.82-.25,1.38,0,1.65.85Z" style="fill: #ff6a47;"/>
  <path d="m235.24,201.15c-.52,1.53-1,3.06-1.46,4.6-2.5,8.54-9.72,18.8-19.08,20.33-4.59-.97-8.71-2.77-12.38-5.42-.24-.17-.55-.2-.82-.08-3.69,1.74-7.53,3.04-11.51,3.91l-.53-5.48c-.46-3.7-1.18-7.35-2.15-10.97-.13-.49-.03-.97.6-.77,3.31.41,6.6.52,9.89.34.13,0,.28.06.38.18.19.21.42.33.68.36-.19.66-.4,1.32-.63,1.98-.22.63.08,1.52.75.36.25-.43.87-1.65,1.87-3.67,1.85.66,3.93.87,6.23.64,7.72-.77,9.53-8.44,12.11-14.27,2.49-5.6,3.65-8.72,8.59-11.04,5.96,3.49,7.41,12.74,7.45,18.98Z" style="fill: #488975;"/>
  <path d="m66.09,188.54c-.09-.13-.12-.29-.09-.43.16-.85.71-1.42.91-2.23.26-1.05.53-1.86.82-2.45.6-1.2,1.11-1.17,1.55.1,1.79,5.24,4.01,10.13,6.65,14.67.52.89.33,1.68,1.83,1.76l-2.07,3.68c-.07.13-.2.22-.35.24-2.62.39-4.91-.28-6.87-2.02.53-2.84.29-5.61-.73-8.31-.13-1.79-.67-3.46-1.65-5.01Z" style="fill: #ff834e;"/>
  <path d="m120.22,219.53c.13.19.29.49.47.92.15.33.33.62.54.87,5.36,6.35,11.51,11.82,18.45,16.43-1.28.24-2.57.29-3.87.15-4.13-.43-16.28-1.63-36.48-3.61-1.87-.18-3.35-.24-4.44-.17-3.57-.51-5.98-.98-6.24-5.26l-.37-4.69-.85-10.09c.57-3.5.83-9.55-1.17-12.78.12-.09-.54-8.34-.57-9.27-.26-6.52,3.45-6.35,8.82-5.84,2.93.28,5.9.6,8.9.96,4.09,5.62,7.27,11.71,9.53,18.29l7.28,14.11Z" style="fill: #d0d0d2;"/>
  <path d="m126.12,189.42l9.28.94c2.1.09,4.09.43,5.98,1.05-.22.16-.16.41.04.57,1.88,1.51,2.16,5.56,2.54,8.7,1.52,12.46,3.35,24.89,4.99,37.28,0,.02,0,.03,0,.05.01.29-.21.53-.5.54-3.14.11-6.06-.16-8.78-.81-6.94-4.61-13.09-10.08-18.45-16.43-.21-.25-7.34-10.75-9.08-14.92s-4.64-13.65-8.73-19.27h.75s21.96,2.29,21.96,2.29Z" style="fill: #dfe0e2;"/>
  <path d="m26.03,187.87c-2.48,11.81-3.65,23.43-3.6,35.5-.93.45-1.58.03-1.95-1.24-2.54-8.77-2.84-18.4-2.27-25.6.3-3.83.42-6.53.35-8.09l1.43-.45,6.05-.12Z" style="fill: #c9be68;"/>
  <path d="m334.61,198.3c-.46,1.19-6.1.66-7.36.64-6.05-.93-12.12-1.35-18.23-1.26-.51,0-.83-.22-.98-.67,4.86-.1,9.17-.5,12.92-1.2,4.53-.85,8-3.34,10.41-7.47l3.24,9.96Z" style="fill: #ad9d19;"/>
  <path d="m288.71,188.8c.3-.31.72-.47,1.14-.43,1.38.11,2.74.54,4.06,1.28.09.13,2.73,3.21,2.41,1.42l.31-.03c-.32.8,0,1.09.98.88-.32.96-.39,1.96-.21,3,.04.22.1.38.18.45.32.27.52.62.61,1.04.02.08-.05.23-.18.39-.24.32.02.46.78.42l-4.62.04c-1.25.25-2.09-.19-2.51-1.32-.11-1.1-.69-1.66-1.76-1.66-1.65,0-3.82.19-6.5.59.55-2.18,3.74-4.42,5.31-6.06Z" style="fill: #fdc2a9;"/>
  <path d="m18.21,196.52c-.57,7.21-.27,16.83,2.27,25.6.37,1.27,1.02,1.69,1.95,1.24l.92,1.24-.38,6.63c-1.95.27-3.88.37-5.8.3-.37-.35-.85-.48-1.43-.38-4.42-.24-6.24-.79-7.25-5.59-.87-4.13-1.59-8.3-2.17-12.49-.09-.67-.18-1.1-.28-1.27v-.71c.39-.76-.28-6.67-.35-7.94-.28-5.06.87-12.4,6.38-13.86,1.76-.46,3.93-.75,6.49-.87.07,1.56-.05,4.26-.35,8.09Z" style="fill: #c9be68;"/>
  <path d="m296.09,189.35c.13.03.22.15.22.29l.02,1.43c.32,1.78-2.32-1.29-2.41-1.42.69-.38,1.41-.48,2.17-.3Z" style="fill: #fdfdfd;"/>
  <path d="m145.03,197.03c1.57,9.63,3.09,19.26,4.55,28.89l.11.82.6,3.21c-.1,2.08,1.02,2.1,2.62,2.27,4.36.47,8.7.99,13.02,1.56,3.67.48,5.7-.92,9.04-1.26,1.65-.17,3.3-.36,4.95-.55-.42.52-.67,1.03-.73,1.53l-2.85.36s-.09.02-.13.05c-.15.1-.2.3-.1.45.37.58.56,1.22.55,1.92,0,.14-.14.27-.34.34-1.18.37-1.97.6-2.37.67-5.92,1.11-11.85,2.15-17.79,3.12-5.34.88-9.74,1.92-15.31,1.34-15.13-1.59-30.25-3.22-45.39-4.91-.4-.04-.69-.34-.68-.67l.1-2.03c1.09-.07,2.57-.01,4.44.17,20.19,1.98,32.35,3.18,36.48,3.61,1.3.14,2.59.09,3.87-.15,2.71.65,5.64.92,8.78.81.02,0,.04,0,.05,0,.29-.04.48-.3.45-.58-1.65-12.39-3.48-24.83-4.99-37.28-.38-3.14-.66-7.19-2.54-8.7-.19-.16-.26-.41-.04-.57,2,1.11,3.22,2.98,3.65,5.62Zm16.77,37.14c-3.1-.32-6.2-.65-9.29-.97-.98-.1-2.01.05-1.5,1.38-.09.64.06,1.21.45,1.69.09.11.24.17.4.17,3.48-.16,6.96-.57,10.43-1.24,1.9-.66-.01-.97-.47-1.02Z" style="fill: #fdfdfd;"/>
  <path d="m60.88,194.3c.03-.13.17-.22.33-.22,1.82-.07,3.7-.64,5.48.08,1.1,2.37,1.41,4.86.95,7.47-2.78-1.59-5.09-3.73-6.95-6.43l.19-.89Z" style="fill: #ff834e;"/>
  <path d="m289.91,194.27c1.07,0,1.65.56,1.76,1.66-1.48-1.72-6.94-.75-8.97-.36.03-.4.27-.64.71-.71,2.68-.4,4.85-.6,6.5-.59Z" style="fill: #977d5f;"/>
  <path d="m86.26,201.28c2,3.23,1.74,9.28,1.17,12.78-3.79.11-7.54-.24-11.24-1.05-3.81-.98-7.55-2.12-11.24-3.42-3.95-1.46-7.77-3.26-11.46-5.4-.02,0-.03-.02-.04-.03-.06-.07-.06-.18.01-.24,2.96-2.49,5.37-5.41,7.23-8.74,1.85,2.7,4.17,4.84,6.95,6.43.16.43.44.51.83.24,1.96,1.74,4.25,2.42,6.87,2.02.15-.02.28-.11.35-.24l2.07-3.68c1.02-1.56,1.98-3.36,2.87-5.4l5.64,6.72Z" style="fill: #fcb195;"/>
  <path d="m291.67,195.93c.42,1.13,1.26,1.57,2.51,1.32-3.85.18-7.67-.02-11.48-.61l-.02-.22c.26-.25.27-.53.02-.85,2.03-.39,7.49-1.36,8.97.36Z" style="fill: #d4c6a1;"/>
  <path d="m185.5,197.34c.23,3.37-.25,7.4,2.43,9.94-.64-.2-.73.28-.6.77.97,3.62,1.69,7.27,2.15,10.97-.71-.05-1.33.04-1.86.28-3.5-1.83-6.76-3.99-9.78-6.48,1.87-5.5,4.02-10.94,6.46-16.32.75-.18,1.15.1,1.2.84Z" style="fill: #63a998;"/>
  <path d="m294.18,197.25l4.62-.04,9.25-.2c.14.45.47.67.98.67,6.11-.09,12.18.33,18.23,1.26-.6.16-1.86.34-3.8.56-4.32.48-9.29,1.43-14.89,2.85-.09-1.1-.3-1.78-1.54-1.91-8.53-.88-16.52-1.92-23.98-3.12-.44-.07-.56-.3-.35-.68,3.81.59,7.63.79,11.48.61Z" style="fill: #9fb6b4;"/>
  <path d="m337.81,198.6c5.9,1.07,11.74,1.89,17.52,2.45l18.12,2.1c.15.02.27.13.27.25l.03,3.71c0,.16-.1.29-.23.32l-21.15,3.78-1.32.28-2.94.35-12.56,2.29-14.84,2.67c-2.94.32-5.84,1.38-8.89.92-2.35-.35-4.72-.62-7.09-.79l-10.54-1.36-46.61-5.48c-1.09-1.89-2.46-3.48-4.13-4.78l1.15-.71c.17-.11.33-.17.39-.16.4.08.76.02,1.1-.18.16-.09.32-.13.44-.1,1.74.43,3.51.25,5.22.51,1.26.19,2.54.25,3.84.17.02,0,.05,0,.07-.01.13-.04.21-.14.17-.24-.02-.05-.06-.1-.13-.15-.01-.01-.03-.03-.04-.04-.05-.06-.05-.14,0-.17.58-.31.9-.15.93.47,0,.12.12.21.27.23,4.89.44,10.37,1.12,16.45,2.04.74.11,1.51.07,2.29-.12,1.21-.3,2.12-.18,3.29-.33,1.8-.02,3.53,0,5.32-.25,8.15-1.13,16.27-2.43,24.36-3.91,5.61-1.42,10.57-2.37,14.89-2.85,1.93-.21,3.2-.4,3.8-.56,1.27.02,6.91.55,7.36-.64l3.2.29Z" style="fill: #748f8c;"/>
  <path d="m283.32,199.98c.02-.13.14-.23.28-.22,1.43.1,2.89.44,4.2.54,3.17.26,6.35.51,9.52.73.13.01.23.06.26.13.14.33-6.97,1.38-7.66,1.5.11-.44.01-.82-.29-1.14-.1-.1-.25-.16-.41-.15-.79.04-1.57.02-2.34-.08-.64-.08-1.11-.56-1.88-.45-.13.02-.23.13-.27.28-.11.49-.44.8-.99.95-.35-.61-.49-1.32-.4-2.11Zm8.52,1.4c-1.45-.36-1.8-.27-1.06.27.18.14.35.21.43.2l2.14-.2c.29-.03.31-.11.05-.26-.38-.21-.77-.22-1.15-.02-.09.04-.24.05-.4,0Z" style="fill: #222546;"/>
  <path d="m284.72,201.14c.03-.15.14-.26.27-.28.77-.11,1.24.37,1.88.45.77.09,1.56.12,2.34.08.16,0,.31.04.41.15.3.32.4.7.29,1.14-2.03.4-4.07.59-6.13.6,0,0-.01,0-.02,0-.15,0-.27-.11-.26-.23.02-.34,2.15-.24,2.48-.24.17,0,.31-.07.37-.18.16-.31-2.19-.35-2.62-.52.55-.15.88-.47.99-.95Zm4.01.9c-.62-.14-1.23,0-1.85.39-.15.09-.13.15.04.18.54.07,1.14-.01,1.82-.24.39-.13.38-.24-.01-.33Z" style="fill: #060707;"/>
  <path d="m292.25,201.38c.39-.2.77-.19,1.15.02.26.14.24.23-.05.26l-2.14.2c-.08,0-.25-.07-.43-.2-.74-.54-.39-.63,1.06-.27.17.04.32.04.4,0Z" style="fill: #444761;"/>
  <path d="m235.46,201.98c1.53.13,3.06.26,4.57.39,12.98,1.12,25.93,2.5,38.86,4.14-1.17.15-2.07.03-3.29.33-.78.2-1.55.24-2.29.12-6.08-.92-11.56-1.6-16.45-2.04-.15-.01-.26-.11-.27-.23-.04-.62-.35-.78-.93-.47-.01,0-.02.02-.03.03-.03.05,0,.13.06.18.06.05.11.1.13.15,0,.02,0,.03,0,.05,0,.1-.12.19-.26.2-1.29.08-2.57.03-3.84-.17-1.71-.26-3.47-.08-5.22-.51-.12-.03-.28.01-.44.1-.34.2-.7.26-1.1.18-.06-.01-.21.05-.39.16l-1.15.71-7.6-1.77s-.06,0-.09,0c-.05,0-.09.02-.12.05-.17-.66-.33-1.31-.38-1.97.04.12.1.25.2.36Z" style="fill: #7fa09c;"/>
  <path d="m188.31,231.39c5.23-2.14,25.09-4.52,26.39-5.31,9.37-1.53,16.58-11.79,19.08-20.33.45-1.54.94-3.08,1.46-4.6-.04.16-.03.31.02.47.04.66.2,1.31.38,1.97-.09.06-.14.16-.13.27.66,7.61.48,15.23-.53,22.86-.23,1.71-.51,3.11-.85,4.19-.29.95-1.55,15.06-2.54,15.07-8.52.04-45.05-11.12-46.23-11.77-1.18-.65,2.96-2.81,2.96-2.81Z" style="fill: #63a998;"/>
  <path d="m286.92,202.6c-.17-.02-.19-.08-.04-.18.62-.4,1.23-.53,1.85-.39.4.09.4.2.01.33-.68.22-1.28.3-1.82.24Z" style="fill: #9fb6b4;"/>
  <path d="m351.05,211.49l.25,1.93,1.41,12.81c0,.08-.02.19-.07.34-.02.06-.03.12-.03.18-.83-.2-1.66-.2-2.49,0l-2.02-14.9,2.94-.35Z" style="fill: #d0d6dc;"/>
  <path d="m187.61,219.3c-3.04,2.92-6.34,5.5-9.92,7.73-.45.28-.42.38.11.3,4.14-.59,8.21-1.54,12.2-2.84,3.98-.87,7.82-2.18,11.51-3.91.27-.13.58-.1.82.08,3.66,2.65,7.79,4.45,12.38,5.42-2.26,1.37-4.66,2.42-7.18,3.15-2.62.96-5.19,1.51-7.7,1.66-1.71.1-6.74.31-15.11.64l-4.79.43c-1.65.2-3.3.38-4.95.55-3.33.34-5.37,1.74-9.04,1.26-4.33-.57-8.67-1.09-13.02-1.56-1.59-.17-2.72-.19-2.62-2.27,1.06-.43,2.03-1,2.91-1.72,0,0,0,0,.01-.01.09-.08.09-.22.01-.31-.93-.95-2.11-1.34-3.54-1.17l-.11-.82c3.16-2.28,6.01-.01,9.35.37l5.18-1.65,5.24-3.09c3.53-2.21,6.36-5.12,8.48-8.73,3.02,2.49,6.27,4.65,9.78,6.48Zm-11.29,7.67c-1.58.01-4.62,1.21-6.24,1.73-.15.05-.15.08,0,.1,2.26.26,4.38-.17,6.36-1.28.65-.37.61-.55-.13-.54Z" style="fill: #fdb597;"/>
  <path d="m335.54,214.12c-.03,4.42-.24,8.77-.65,13.07-1.36,14.27-2.85,28.43-4.47,42.49l-1.94,16.29-.9,7.52-1.26,10.31c-.97,7.54-2.12,15.07-3.46,22.58l-16.48-.51c-2.08-12.28-3.88-24.62-5.42-37.01l-.79-6.5c-2.11-18.34-4.2-36.65-5.58-55.05-.29-3.86-.42-7.77-.4-11.73l10.54,1.36c-.07,7.94.08,15.88.44,23.81.98,21.54,2.5,43.04,4.57,64.51.35,3.67.81,7.32,1.36,10.96.14.91.38,1.42.73,1.51,1.4.37,1.96-7.88,2.04-8.86,1.31-17.66,1.94-35.38,2.83-53.07.62-12.17,1.96-25.17,4.02-39l14.84-2.67Z" style="fill: #393b40;"/>
  <path d="m316.69,255.79c-.89,17.69-1.52,35.4-2.83,53.07-.08.98-.64,9.24-2.04,8.86-.35-.09-.59-.6-.73-1.51-.55-3.64-1-7.3-1.36-10.96-2.07-21.46-3.59-42.97-4.57-64.51-.36-7.93-.51-15.87-.44-23.81,2.37.17,4.73.43,7.09.79,3.05.46,5.95-.6,8.89-.92-2.06,13.83-3.4,26.83-4.02,39Z" style="fill: #1c162e;"/>
  <path d="m189.47,219.02l.53,5.48c-3.99,1.3-8.06,2.24-12.2,2.84-.52.08-.56-.03-.11-.3,3.58-2.23,6.88-4.8,9.92-7.73.53-.24,1.15-.33,1.86-.28Z" style="fill: #fdfdfd;"/>
  <path d="m27.59,225.35l-.02,5.67-4.6.22.38-6.63,4.24.74Z" style="fill: #ad9d19;"/>
  <path d="m352.61,226.73c.46.32.51,3.24.59,3.93,1.74,15.57,3.49,31.15,5.24,46.72l2.02,16,1.29,13.97c.73,6.52,1.47,13.04,2.23,19.56.14,1.15.21,1.94.22,2.35,0,.01,0,.02,0,.04-.01.15-.11.26-.23.25l-2.01-.18c-.26-.03-.48-.28-.51-.6-.7-7.23-1.55-14.41-2.56-21.54l-1.45-14.96-1.65-12.88c-1.44-14.92-3.09-29.82-4.96-44.69-.27-2.17-.51-4.82-.71-7.96.83-.2,1.66-.2,2.49,0Z" style="fill: #d0d6dc;"/>
  <path d="m153.23,227.91s0,0,.01.01c.08.09.06.23-.03.31-.89.72-1.86,1.29-2.91,1.72l-.6-3.21c1.43-.17,2.6.22,3.54,1.17Z" style="fill: #444761;"/>
  <path d="m170.09,228.8c-.16-.02-.16-.05,0-.1,1.62-.51,4.66-1.71,6.24-1.73.74,0,.78.17.13.54-1.98,1.12-4.1,1.55-6.36,1.28Z" style="fill: #785b67;"/>
  <path d="m94.89,234.11l-.1,2.03c-.02.34.28.63.68.67,15.13,1.69,30.26,3.33,45.39,4.91,5.56.58,9.96-.46,15.31-1.34,5.94-.98,11.87-2.02,17.79-3.12.4-.07,1.19-.3,2.37-.67.2-.07.33-.2.34-.34,0-.7-.18-1.34-.55-1.92-.03-.04-.04-.09-.05-.13-.02-.18.1-.34.28-.37l2.85-.36,6.16.71,10.31,1.22c.52.16,1.73.25,1.93.79,0,.01,0,.03,0,.04.01.11-.07.21-.19.23-13.89,2.42-27.81,4.67-41.75,6.76-7.81,1.17-10.8,2-16.45,1.11-12.41-1.94-24.08-2.82-31.51-3.86-4.67-.65-9.69-1.1-13.43-1.61-12.31-1.68-20.23-2.65-23.79-2.9-5.3-.38-8.62-.64-9.97-.8-.11-.01-.26.04-.4.14-.4.28-2.66.06-3.26.08-.12,0-.24-.04-.35-.12-.34-.27-.34-.49,0-.67.15-.08.13-.1-.04-.07-.17.03-.33,0-.47-.05-.19-.08-.17-.11.04-.09.9.07,1.68-.18,2.35-.75,10.05-1.75,20.14-3.35,30.25-4.79.26,4.29,2.67,4.76,6.24,5.26Z" style="fill: #fd8859;"/>
  <path d="m17.17,231.53l2.62,11.46.39,1.69c.05.2.01.37-.08.4-.37.13-.75.17-1.12.14-.1,0-.21-.17-.26-.4l-.39-1.72-2.59-11.95c.58-.1,1.06.03,1.43.38Z" style="fill: #334351;"/>
  <path d="m152.51,233.2c3.09.33,6.19.65,9.29.97.46.05,2.38.36.47,1.02-1.11-.73-2.23-.8-3.37-.2l-6.85.19-1.05-.61c-.51-1.33.52-1.48,1.5-1.38Zm1.9,1.29h0c1.45,0,2.62-.07,2.62-.16,0-.08-1.17-.15-2.62-.15h0c-1.45,0-2.62.07-2.62.16,0,.08,1.17.15,2.62.15Z" style="fill: #222546;"/>
  <path d="m56.06,234.39c-.21-.02-.22.02-.04.09.14.06.3.08.47.05.17-.03.19,0,.04.07-.34.18-.35.4,0,.67.1.08.22.12.35.12.61-.01,2.86.21,3.26-.08.14-.1.29-.15.4-.14,1.35.16,4.67.43,9.97.8,3.55.26,11.48,1.22,23.79,2.9,3.74.51,8.76.96,13.43,1.61,7.43,1.04,19.09,1.92,31.51,3.86,5.65.89,8.63.06,16.45-1.11,13.94-2.09,27.86-4.34,41.75-6.76.01,0,.03,0,.04-.01.12-.04.18-.16.14-.26-.2-.54-1.41-.63-1.93-.79l5.37.73c.17.02.31.12.35.25l.34,1.01-.26,3.3c-.01.13-.12.24-.26.27l-24.86,4.01-21.08,3.45-11.76,1.53c-.14.02-.24.13-.23.27l.54,25.12-.32.59-.46-.85c-.16-1.7-.26-3.4-.29-5.11-.12-6.64-.24-13.28-.35-19.91,0-.14-.1-.25-.24-.27l-8.13-.99-25.6-3.2c-.59-.58-1.27-.65-2.02-.24l-.61-.14-12.67-1.51-4.38-.49c-1.11-.41-2.26-.57-3.44-.47-2.05-.26-21.76-2.85-21.95-2.39l-.43-.19-14.12-1.56c-.19-.02-.33-.14-.32-.27l.06-2.76c0-.18.11-.32.25-.35l9.61-1.62c-.67.57-1.45.82-2.35.75Z" style="fill: #dd7060;"/>
  <ellipse cx="154.41" cy="234.34" rx="2.62" ry=".15" transform="translate(-.41 .27) rotate(-.1)" style="fill: #698581;"/>
  <path d="m152.05,235.19v.18c0,.1.07.18.17.19,2.24.2,4.47,0,6.68-.56,1.14-.6,2.26-.53,3.37.2-3.47.67-6.94,1.08-10.43,1.24-.16,0-.31-.05-.4-.17-.39-.48-.54-1.04-.45-1.69l1.05.61Z" style="fill: #444761;"/>
  <path d="m152.22,235.56c-.1,0-.17-.09-.17-.19v-.18l6.85-.19c-2.21.57-4.44.76-6.68.56Z" style="fill: #8ba8a9;"/>
  <path d="m215.26,241.88c-.85.8-1.69,1.58-2.54,2.34-.87.78-1.77,1.49-2.71,2.11-9.7,6.45-21.7,11.82-31.5,16.33-.75.34-1.07,1.02-.95,2.02-1.07-.16-1.71.26-1.93,1.26l-.33,8.22c-.32,5.64-.96,11.24-1.92,16.81-1.99,9.82-4.69,19.55-8.09,29.17l-2.21,5.27c-.06.15-.19.25-.33.27l-1.93.28c-.46-.12-.78-.11-.94.03-1.45-.36-2.95-.49-4.49-.38l-.04-3.79.44-22.87c-.23-.33-.13-.53.3-.6.14-.02.24-.13.25-.26.43-9.47,1.02-18.03,1.76-25.7,1.14-11.81,5.84-20.75,17.24-25.22.2-.08.36-.18.42-.27.33-.5.77-.8,1.34-.92.02,0,.04-.01.06-.03.09-.06.1-.21.03-.32-.2-.34-.47-.55-.83-.64l24.86-4.01c.14-.02.25-.13.26-.27l.26-3.3,13.52,4.47Z" style="fill: #393b40;"/>
  <path d="m30.26,241.96c-1.04.58-2.13.68-3.28.32l.91-4.9,2.38,4.58Z" style="fill: #fdfdfd;"/>
  <path d="m27.59,225.35c4.37,0,8.68-.53,12.92-1.58,8.32-1.95,16.95-3.48,25.37-2.96,3.9-.32,7.84-.09,11.82.7l10.58,2.66.37,4.69c-10.11,1.44-20.19,3.04-30.25,4.79l-9.61,1.62c-.14.02-.24.17-.25.35l-.06,2.76c0,.13.14.24.32.27l12.41,1.37.02-.12s22.01,2.63,24.06,2.89l-.05,5.26-.29,7.99-1.19,19.68-1.04,20.42c0,.15-.12.26-.25.27l-2.52.08-1.9-.04c.56.01.67-.17.34-.55-3.2-3.58-5.34-7.69-6.84-12.19-1.02-3.08-1.52-6.86-2.1-10.3-.13-.76.04-4.57-1.4-4.96-.12-.04-.22-.13-.25-.26l-.39-1.7.08-8.06.36-7.82c.15-.32.18-.64.08-.94-.04-.13-.17-.22-.32-.23l-7.32-.45s0,.02-.01.03c-6.47-.28-12.83-.82-19.07-1.62-4.22-.54-8.16-2.19-10.96-5.41l-2.38-4.58-.31-6.36.02-5.67Z" style="fill: #1c162e;"/>
  <path d="m231.59,245.97c-.36,5.47-2.37,10.77-6.89,14.18-2.57,1.42-5.38,2.25-8.43,2.49-12.89,1.01-25.79,1.69-38.71,2.03-.11-1,.2-1.67.95-2.02,9.8-4.51,21.8-9.88,31.5-16.33.94-.62,1.84-1.33,2.71-2.11.85-.76,1.69-1.55,2.54-2.34,5.32,1.78,10.76,3.15,16.33,4.09Z" style="fill: #1c162e;"/>
  <path d="m30.55,241.88c-1.93-.23-10.73,1.06-10.73,1.06l.4,1.73c.05.2.01.38-.08.41-.38.13-.77.18-1.15.15-.1,0-.21-.18-.26-.41l-.4-1.76s-.75.32-2.29,1.11-.66,1.13-1.35,1.5c5.27.66,10.54,1.3,15.8,1.94,9.85,1.19,19.66,2.8,29.49,4.24l3.5-2.66c-6.63-.28-15.31-.94-21.7-1.76-4.32-.55-8.36-2.24-11.23-5.55Z" style="fill: #c9be68;"/>
  <path d="m88.75,243.25l.37,4.84-3.86-.05.05-5.26c1.18-.1,2.33.06,3.44.47Z" style="fill: #c9be68;"/>
  <path d="m93.13,243.73c-.09,6.77.56,13.46,1.94,20.06,1.34,6.37,2.76,12.8,5.67,17.83,1.62,2.81,2.73,5.12,3.33,6.93-3.17.46-6.16.64-8.97.55-.24-.06-.37-.18-.4-.36-.66-4.43-1.34-8.86-2.04-13.29l-2.73-19.91c-.11-2.5-.38-4.98-.81-7.45l-.37-4.84,4.38.49Z" style="fill: #1c162e;"/>
  <path d="m105.8,245.24l2.29,34.38.3,7.79c0,.15-.08.28-.21.32l-2.71.68-1.39.14c-.6-1.81-1.71-4.12-3.33-6.93-2.91-5.04-4.33-11.46-5.67-17.83-1.38-6.6-2.03-13.29-1.94-20.06l12.67,1.51Z" style="fill: #1c162e;"/>
  <path d="m177.18,245.63s.03.05.03.08c.04.13-.02.25-.13.27-.56.11-1.01.42-1.34.92-.06.09-.21.19-.42.27-11.4,4.48-16.1,13.41-17.24,25.22-.74,7.67-1.33,16.24-1.76,25.7,0,.13-.11.24-.25.26-.43.07-.53.27-.3.6-3.02,6.66-6.2,13.21-9.54,19.64-1.2,3.44-2.08,6.96-2.62,10.57-.52,3.43-.91,6.48-5.05,7.07-2.37.34-4.75.38-7.14.15-.39-.27-.52-.62-.41-1.07.03-.13.16-.22.31-.22,1.15.03,3.23-.04,6.23-.18,3.37-.17,4.19-1.68,4.71-4.89.44-2.76.97-5.5,1.57-8.22,0,0,0-.01,0-.02.02-.13-.06-.24-.18-.26l-4.18-.54.72-9.78,1.14-9.98,1.74-11.49c-.15-1.55-.12-3.1.09-4.64.11.13.25.16.42.11.13-.04.23-.18.24-.34,0,0,1.94-10.68,1.96-10.81.8-7.92,3.43-15.79,8.09-22.26.71-.98,1.17-2.09,1.38-3.33l21.08-3.45c.35.09.63.31.83.64Z" style="fill: #393b40;"/>
  <path d="m30.2,247.55c9.62,1.17,19.19,2.74,28.79,4.13l-.23,8.2-10.02-.58-5.5-.34-8.19-.78c-1.37-.29-2.74-.37-4.13-.26-1.42-.28-2.78-.39-4.08-.32-1-.31-1.93-.37-2.79-.18-3.83-.54-6.41-.83-7.76-.88-3.5-.13-5.4-1.65-5.69-4.56-.3-3.01,1.2-5.51,4.16-6.33,5.14.64,10.29,1.27,15.43,1.89Z" style="fill: #ad9d19;"/>
  <path d="m235.52,246.38l-3.72,15.81-.57-.02c-2.11-.87-4.29-1.55-6.54-2.02,4.52-3.41,6.53-8.71,6.89-14.18,1.35-.09,2.66.04,3.94.41Z" style="fill: #fdfdfd;"/>
  <path d="m237.05,246.24l-3.94,16.9c-.51-.21-.95-.53-1.3-.95l3.72-15.81,1.53-.14Z" style="fill: #303c5d;"/>
  <path d="m89.13,248.09c.43,2.47.7,4.95.81,7.45-1.63.33-3.29.49-4.96.49l.29-7.99,3.86.05Z" style="fill: #ad9d19;"/>
  <path d="m153.89,251.77c-4.67,6.47-7.29,14.34-8.09,22.26-.02.13-.21,1.18-.21,1.18l-1.77.15-.54-25.12c0-.13.1-.25.23-.27l11.76-1.53c-.21,1.24-.68,2.35-1.38,3.33Z" style="fill: #2c3659;"/>
  <path d="m142.16,249.8c.13.02.23.13.24.27.11,6.63.23,13.27.35,19.91.03,1.7.13,3.41.29,5.11l-.37.14-4.15-.52-2.21-10.86-2.27-15.04,8.13.99Z" style="fill: #2c3659;"/>
  <path d="m67.63,249.41c.15,0,.28.1.32.23.09.3.07.62-.08.94-2.37.52-6.32,1.1-8.88,1.1.06-.8,1.8-1.9,2.26-2.66l6.38.39Z" style="fill: #c9be68;"/>
  <path d="m67.52,258.4l-3.67.71-2.84.47-2.23.3s-.2-5.75.23-8.2c2.56,0,6.51-.59,8.88-1.1l-.36,7.82Z" style="fill: #ad9d19;"/>
  <path d="m26.85,257.6l-5.75,28.6-4.98,24.57c-.04.22-.16.37-.26.37l-2.37-.02s-.03,0-.04,0c-.14-.03-.22-.18-.19-.34l4.85-24.09,5.96-29.28c.86-.19,1.79-.13,2.79.18Z" style="fill: #2c3659;"/>
  <path d="m30.93,257.93l.07,26.06c-3.4.29-6.7,1.03-9.9,2.22l5.75-28.6c1.3-.07,2.66.04,4.08.32Z" style="fill: #fdfdfd;"/>
  <path d="m63.64,278.08l-.47,27.26-.23,6.55s0,0,0,.01c-.01.2-.13.35-.26.34l-2.46-.17c-.09,0-.16-.15-.16-.34l.13-5.47.45-27.71.36-18.97,2.84-.47-.2,18.97Z" style="fill: #2c3659;"/>
  <path d="m231.23,262.17c-1.59.07-3.2-.02-4.73.14-11.39,1.25-22.74,2.81-34.04,4.66-1.88.31-4.16.3-6.07.12-3.58-.34-7.16-.73-10.75-1.15.21-1,.85-1.42,1.93-1.26,12.92-.34,25.83-1.02,38.71-2.03,3.04-.24,5.85-1.07,8.43-2.49,2.24.47,4.42,1.15,6.54,2.02Z" style="fill: #ad9d19;"/>
  <path d="m233.11,263.14l.12.18c1.91,2.5,2.36,6.59-.49,8.42-.74.48-2.04.8-3.88.97-3.45.32-6.9.66-10.35,1.04-.89-.31-1.83-.25-2.83.18-2.6,0-5.15.16-7.67.48-2.62.4-5.23.64-7.82.72l-3.69.36h-6.4c-.97-.3-1.93-.33-2.87-.09l-11.93-1.23.33-8.22c3.59.42,7.18.81,10.75,1.15,1.91.18,4.19.19,6.07-.12,11.31-1.86,22.65-3.41,34.04-4.66,1.53-.17,3.14-.07,4.73-.14l.57.02c.36.42.79.73,1.3.95Z" style="fill: #c9be68;"/>
  <path d="m67.83,268.16c.03.13.13.23.25.26,1.45.39,1.28,4.2,1.4,4.96.58,3.45,1.08,7.23,2.1,10.3,1.49,4.5,3.64,8.61,6.84,12.19.34.38.23.56-.34.55l-8.3-.55c-.61.02-1.17-.11-1.66-.4-.13-.07-.21-.21-.21-.36l-.39-15.97-.08-12.68.39,1.7Z" style="fill: #393b40;"/>
  <path d="m218.51,273.74l.41,3.15,1.11,8.18,4.1,31.06,1.85,14.11s0,.01,0,.02c0,.14-.09.25-.21.26l-1.66.09c-.3.07-.55.03-.76-.1-.11-.07-.19-.21-.21-.39l-1.89-13.99-4.37-32.93-1.2-9.27c.99-.43,1.93-.49,2.83-.18Z" style="fill: #2c3659;"/>
  <path d="m190.1,275.49l.02.69v13.88s-.16,29.12-.16,29.12v13.23s0,.04,0,.07c-.02.17-.12.29-.22.27-.79-.19-1.57-.19-2.36-.01-.01,0-.03,0-.04,0-.11,0-.19-.13-.19-.28l-.03-12.9v-28.69s.11-15.48.11-15.48c.94-.24,1.9-.21,2.87.09Z" style="fill: #2c3659;"/>
  <path d="m142.63,283.4c-2.88.92-8.37,2.67-10.36-.49-.46-.71-.32-1.3.4-1.74,2.6-1.62,7.14-1.89,10.11-1.79.21,1.37.16,2.71-.15,4.02Z" style="fill: #252e50;"/>
  <path d="m143.18,285.07c-.21,1.54-.24,3.09-.09,4.64h-.64c-1.22-.38-2-.83-2.34-1.35-1.25-1.93,1.47-3.11,2.69-4.03.34.1.47.34.37.73Z" style="fill: #353046;"/>
  <path d="m78.09,296.43l1.9.04v3.63c-.3,2.07-.5,4.21-.58,6.43-.04,1.08-.31,2.47.03,3.8.04.14.13.27.26.35,1.54.96,3.13,1.84,4.76,2.64.51.25,1.29,1.1,2.15,1.69.3.21.26.47-.1.78-.78.27-1.3.82-1.56,1.64l-15.15-3.81c.52-2.91.6-5.83.22-8.75l-.22-8.99,8.3.55Z" style="fill: #ffae98;"/>
  <path d="m104.53,288.22c1.92-.32,1.27-.23,2.7-.49-.02,1.46.25,2.88.07,4.34-.36,2.97-.61,5.83-.68,8.85-.03,1.47-.17,3.09.12,4.59.03.16.13.3.26.41,1.54,1.22,2.95,2.13,4.69,3.23.54.34,1.4,1.18,1.95,1.76.19.2.22.59-.19.77-.71.31-1.28.86-1.58,1.62-4.95-1.35-9.85-2.83-14.87-3.9.36-3.35-.32-6.39-.59-9.79s-.28-6.99-.79-10.41c2.45-.09,6.99-.65,8.92-.97Z" style="fill: #ffae98;"/>
  <path d="m114.03,314.78c-4.12-.47-8.23-1.02-12.34-1.64-2.84-.43-5.25-.38-4.51-3.94,0,0,0,0,0,0,.07-.31.38-.51.7-.44l13.99,3.05c.21,1.43,3.88,1.91,5.08,2.05.41,1.45-2.38.97-2.92.91Z" style="fill: #222546;"/>
  <path d="m117.09,313.15c.23.31.18.55-.15.72-1.19-.14-4.87-.62-5.08-2.05,2.06-1.02,3.81-.58,5.23,1.33Z" style="fill: #d8424b;"/>
  <path d="m84.94,317.43c-.03.25-.01.48.07.7.05.14.18.24.33.27l4.19.89c.24.22.27.43.09.64-.24.28-.6.43-.97.4-5.19-.46-10.2-1.19-15.02-2.19-1.87-.38-5.57-1.91-3.85-4.53l15.15,3.81Z" style="fill: #222546;"/>
  <path d="m89.53,319.29l-4.19-.89c-.16-.03-.28-.13-.33-.27-.08-.22-.1-.45-.07-.7.26-.83.78-1.37,1.56-1.64,1.42.7,3.85,1.39,3.03,3.5Z" style="fill: #d8424b;"/>
  <path d="m99.17,338.09c4.52,3.67,13.23,5.1,18.62,5.79,26.62,3.38,54.38,2.31,81.08.2,7.85-.58,15.67-1.37,23.47-2.37,3.35-.41,22.91-2.84,23.68-6.11.45-1.87-2.29-2.73-3.64-3.25-.55-.21-.55-.36-.02-.44,2.86-.43,22.94-4.45,18.18-10.26-2.54-3.1-11.72-4.29-15.61-4.64-6.91-.62-13.85-.92-20.8-.89l1.85,14.11c.02.14-.07.26-.19.28,0,0-.01,0-.02,0l-1.66.09c-.3.07-.55.03-.76-.1-.11-.07-.19-.21-.21-.39l-1.89-13.99c-3.24.28-6.47.3-9.71.51-1.14.07-15.06,1.76-15.06,1.76-2.18.03-4.36.29-6.52.78v13.23c0,.17-.08.33-.18.34-.01,0-.03,0-.04,0-.79-.19-1.57-.19-2.36-.01-.1.02-.2-.07-.23-.22,0-.02,0-.04,0-.06l-.03-12.9c-.27-.28-.66-.4-1.17-.36-6.31.55-13.2.86-20.66.94l-2.21,5.27c-.06.15-.19.25-.33.27l-1.93.27c-1,4.97-1.57,8.26-1.73,9.88-.54,5.56-8.14,4.82-12.14,4.45-2.05.47-4.14.64-6.28.52-.21-.01-.38-.07-.46-.16-1-1.15-1.08-2.35-.23-3.59.07-.1.23-.2.43-.27,5.67-1.93,15.91-2.8,14.97-11.18l-.05-5.1c-.15.42-9.65-.33-9.59-.46.3-.58-1.59,5.5-2.13,9.11-.52,3.43-.91,6.48-5.05,7.07-2.37.34-4.75.38-7.14.15-2.15.53-4.3.67-6.46.42-.74-.09-1.18-.5-1.33-1.23-.55-2.79,2.78-3.48,5.33-4.11,1.05-.26,2.87-.87,5.47-1.85,1.99-.75,3.45-2.05,4.37-3.89-8.51.39-16.93,1.32-25.25,2.8-4.77.84-9.44,1.93-13.68,4.53-1.98,1.21-2.71,3.42-.72,5.04Zm100.75,5.34s0-.02,0-.03c0,.01,0,.02,0,.03Zm1.76-7.78s0,.03,0,.04c0-.02,0-.03,0-.04Zm.06-.1s-.04.03-.05.06c0,0,0-.01,0-.02.01-.02.03-.03.05-.04Zm-1.75,7.76s-.03.03-.04.05c0,0,0-.02.01-.03,0,0,.02-.02.03-.02Z" style="fill: #d9eee7;"/>
  <path d="m143.67,321.51s.01,0,.02,0c.12.03.19.15.16.28-.6,2.72-1.13,5.46-1.57,8.22-.52,3.21-1.34,4.72-4.71,4.89-3.01.15-5.09.21-6.23.18-.15,0-.28.09-.31.22-.11.45.02.81.41,1.07-2.15.53-4.3.67-6.46.42-.74-.09-1.18-.5-1.33-1.23-.55-2.79,2.78-3.48,5.33-4.11,1.05-.26,2.87-.87,5.47-1.85,1.99-.75,3.45-2.05,4.37-3.89l.67-4.75,4.18.54Z" style="fill: #2c3659;"/>
  <path d="m159.88,325.99c-1.13,3.54-1.27,6.88-2.04,10.4-.19.88-.7,1.5-1.52,1.86-1.38.61-2.91.91-4.59.89-.47,0-5.97-.54-4.77,1.14-2.05.47-4.14.64-6.28.52-.21-.01-.38-.07-.46-.16-1-1.15-1.08-2.35-.23-3.59.07-.1.23-.2.43-.27,5.67-1.93,15.91-2.8,14.97-11.18,1.55-.11,3.05.02,4.49.38Z" style="fill: #2c3659;"/>
  <path d="m322.86,326.38l-1.6,6.81c-1.65.24-4.75,2-5.39-.36-.17-.64-.88-.75-2.12-.34l-2.76.91c-.36.12-.75.03-1.01-.22-.85-.84-1.88-1.19-3.09-1.06-.65-2.04-.82-4.13-.5-6.26l16.48.51Z" style="fill: #fdc6b0;"/>
  <path d="m160.82,325.96c-1,4.97-1.57,8.26-1.73,9.88-.54,5.56-8.14,4.82-12.14,4.45-1.19-1.68,4.3-1.14,4.77-1.14,1.68.02,3.22-.28,4.59-.89.82-.37,1.33-.99,1.52-1.86.77-3.52.91-6.86,2.04-10.4.16-.14.47-.15.94-.03Z" style="fill: #2f2740;"/>
  <path d="m309.96,333.19c.26.26.65.34,1.01.22l2.76-.91c1.25-.41,1.95-.3,2.12.34.64,2.36,3.74.6,5.39.36.37,1.61-.03,2.62-1.7,3.12-2.98.9-6.34,1.93-8.63-.38-.1-.11-.25-.15-.39-.1-2.54.73-5.31,1.65-7.06-.97-.26-.38-.16-.9.22-1.16,1.08-.75,2.14-1.27,3.19-1.58,1.2-.13,2.23.22,3.09,1.06Z" style="fill: #252e50;"/>
  <polygon points="141.5 341.87 143.51 341.87 144.4 248.82 141.5 248.82 141.5 341.87" style="fill: #dd7060;"/>
  <polygon points="198.72 333.58 200.73 333.58 201.62 240.53 198.72 240.53 198.72 333.58" style="fill: #dd7060;"/>
  <polygon points="49.35 322.99 51.36 322.99 52.25 238.78 49.35 238.78 49.35 322.99" style="fill: #dd7060;"/>
  <path d="m316.12,120.9l-.25.2c-2.22,1.55-3.6,3.57-4.15,6.08-.83,3.79-1.59,6.9-2.28,9.32l-2.21,4.31c-1.84,2.55-3.74,5.05-5.71,7.51-2.38,2.97-3.79,5.4-.98,8.5.34.38,19.46,24.04,18.44,25.67-.51.29-.68-.78-.79-.91-1.99-2.29-16.83-21.88-18.81-24.17-2.86-3.31-1.24-7,1.19-9.91,2.64-3.16,5.39-6.33,6.88-10.23.79-1.52,1.36-3.1,1.7-4.75,1.45-6,1.93-9.28,6.1-12.93l.87,1.3Z" style="fill: #353046;"/>
</svg>