<?xml version="1.0" encoding="UTF-8"?>
<svg xmlns="http://www.w3.org/2000/svg" xmlns:xlink="http://www.w3.org/1999/xlink" viewBox="0 0 338.45 310.38">
  <defs>
    <linearGradient id="b" x1="244.39" y1="278.46" x2="276.05" y2="209.47" gradientUnits="userSpaceOnUse">
      <stop offset="0" stop-color="#071c2f"/>
      <stop offset="1" stop-color="#393b40"/>
    </linearGradient>
    <linearGradient id="c" x1="172.68" y1="194.53" x2="172.68" y2="22.3" gradientUnits="userSpaceOnUse">
      <stop offset="0" stop-color="#ff6a47"/>
      <stop offset=".72" stop-color="#fba650"/>
      <stop offset="1" stop-color="#fabd54"/>
    </linearGradient>
  </defs>
  <g style="isolation: isolate;">
    <g id="a" data-name="Layer 1">
      <path d="m316.29,94.13l-44.83-19.91-66.92,26.01,25.18,10.95c.7,1.26,2.14,2.18,3.7,2.61l1.28-.09c.19-.01.34,0,.44.05l23.26,9.91c4.12-1.74,8.19-3.56,12.23-5.45l45.65-20.35v-3.73Z" style="fill: #fff; mix-blend-mode: multiply; opacity: .42;"/>
      <polygon points="241.59 87.09 258.41 123.66 290.11 108.69 241.59 87.09" style="fill: #b6b6b5; mix-blend-mode: multiply; opacity: .26;"/>
      <g>
        <path d="m179.65,233.42c-.02-12.18.02-24.35.14-36.53.02-5.76-.01-11.53-.1-17.29-.02-1.11.19-1.86-.85-2.58l-1.28-.43c-.39.35-.7.7-1.18.93-10,4.84-20.02,9.63-30.07,14.38-6.86,3.11-13.68,6.42-20.46,9.95-.31.34-.47.89-.47,1.66-.07,21.15-.12,40.2-.13,104.83l53.97-27.15c.14-47.75.29-47.77.43-47.77Z" style="fill: #96d0bd;"/>
        <path d="m154.96,293.94s-.05-.01-.07-.03c0,0,0,.01.02.02.02,0,.04.01.06.01Z" style="fill: #96d0bd;"/>
        <path d="m156.88,252.47s-.06,0-.08,0c.02,0,.04,0,.06,0,0,0,.02,0,.02,0Z" style="fill: #96d0bd;"/>
      </g>
      <path d="m146.91,71.88c-5.88,2.08-11.46,4.85-16.73,8.3-12.44,7.8-23.25,19.58-31.34,31.73-4.42,6.56-8.24,13.44-11.48,20.65-2.46,4.99-4.52,10.15-6.17,15.46-2.63,7.73-4.6,15.63-5.92,23.69l-.9,5.5c-13.99,6.87-28,13.71-42.02,20.51-5.36,2.6-10.64,4.34-16.46,3.72-9.96-1.07-15.08-8.58-15.8-17.98-1.05-13.68,7.52-27.07,18.34-34.7.27-.19.41-.52.35-.85-3.61-19.99,8.78-44.73,30.66-47.33.12-.01.21-.1.24-.22,3.61-15.61,16.82-34.94,35.22-32.64.24.03.47-.1.57-.32,4.47-9.89,11.22-17.82,20.25-23.79l2.33.27c.76.09,1.33-.2,1.71-.85l1.03-1.78c13.02-4.58,27.84-1.31,33.68,12.28,2.37,5.51,3.18,11.61,2.45,18.33Z" style="fill: #d9eee7;"/>
      <path d="m229.43,23.23c-2.57-2.35-5.28-4.53-8.14-6.55,5.42-2.76,11.16-3.99,17.21-3.68.16,0,.19.07.08.19-2.94,3.47-5.99,6.82-9.15,10.05Z" style="fill: #d9eee7;"/>
      <path d="m254.76,79.53c-1.16-20.89-9.56-41.1-24.53-55.89l8.63-9.68c.45-.5.99-.65,1.64-.46,12.72,3.81,21.29,13.17,23.88,25.97.01.06.12.08.23.05,0,0,.01,0,.02,0l6.38-2.22c.15-.05.32.06.37.25,0,.04.01.07.01.11,0,10.39,0,20.78,0,31.19,0,1.78-.17,4.54.06,6.86.04.41-.12.51-.48.32-2.41-1.28-4.37-2.34-7.07-.96-3.07,1.57-6.11,3.06-9.14,4.46Z" style="fill: #d9eee7;"/>
      <path d="m299.52,204.35l-.03-87.33c4.83-2.5,9.73-4.87,14.69-7.12,1.41-.64,2.13-1.75,2.15-3.32.04-2.9.03-5.81-.03-8.72-.03-1.55-.61-2.57-1.74-3.06-13.98-6.05-28.05-12.13-42.21-18.23-.13-.06-.22-.17-.22-.29.21-12.97.22-25.93.02-38.9,0-.12.09-.22.21-.24,18.64-2.88,28.68,15.64,29.24,31.45,0,.13.11.23.25.22,0,0,0,0,0,0,16.32-.52,26.11,11.52,28.83,26.42,2.15,11.78.23,23.08-4.73,33.87-.06.12-.01.26.1.33,18.98,12.24,13.13,38.26,2.64,53.58-7.16,10.46-16.46,17.65-27.89,21.56-.11.04-.26.04-.43,0l-.85-.23Z" style="fill: #d9eee7;"/>
      <path d="m233.07,67.41c.28,1.84.63,8.97-2.51,8.76-.21-.02-.41.18-.47.46l-.55,2.56c-.03.14-.2.23-.4.22l-3.37-.14-1.55.18c1.15-1.17,2.01-2.52,2.59-4.03.58-1.5.3-3.08.18-4.67-.01-.2.06-.37.16-.38l2.68-.3c.73-.08,1.25-.39,1.55-.92.54-.97,1.11-1.56,1.69-1.75Z" style="fill: #fdcca7;"/>
      <path d="m225.76,79.28c1.65.95,3.45.79,4.87,1.33,3.47,1.33,5.51,3.95,6.1,7.84-.2.94-.14,1.87.2,2.81l.31,4.64c-.34.18-.69.19-1.06.04-.14-.06-.29-.06-.41,0-1.49.74-3.71-.17-3.99,2.16l-.2.46c-.51-.23-.72-.03-.62.6.02.15,0,.32-.07.46-.65,1.47-.9,3.01-.76,4.62,0,.13-.05.26-.15.36-.38.36-.45.68-.2.97-.17.78-.2,1.5-.07,2.14-1.44,2.99.94,5.32,3.72,6.08,3.84,1.62,8.87,5.29,9.4,9.76.02.15-.05.29-.18.36l-3.53,1.96-.51-.51c-.09-.08-.24-.13-.43-.12-4.16.21-7.37,2.37-11.17,3.41-.35.09-.71-.1-.81-.43-.02-.06-.03-.13-.02-.2l.35-5.89c.03-.49-.3-.91-.72-.94-3.73-.26-8.31-2.73-11.78-4.2-.14-.06-.23-.18-.26-.32l-1.96-10.91c.27-.54.67-.95,1.19-1.24.11-.06.26-.06.41,0,.47.18.86,0,1.18-.52,3.54-5.91,4.51-12.23,4.19-19.1,1.36-2.2,3.17-4.01,5.42-5.44l1.55-.18Z" style="fill: #071c2f;"/>
      <path d="m236.93,91.25c5.81,2.49,11.61,5.01,17.4,7.55.55.24.74.6.58,1.06-6.32,3.33-12.75,6.46-19.29,9.41-.14.06-.29.09-.45.07-1.89-.27-3.71-.81-5.46-1.61-.12-.64-.1-1.36.07-2.14l6.66-2.04c3.7-1.39,6.95-3.46,9.76-6.21.11-.11.11-.28,0-.38-2.77-2.8-5.38-.69-7.92.91-.11.07-.25.04-.32-.07-.38-.59-.62-1.23-.73-1.9l-.31-4.64Z" style="fill: #021216;"/>
      <path d="m236.45,103.54c-.57-.39-1.16-.42-1.77-.1-.11.06-.24.02-.3-.09-.24-.44-.59-.75-1.06-.93-.36-1.49-.87-2.93-1.53-4.31.28-2.33,2.5-1.42,3.99-2.16.13-.06.28-.06.41,0,.37.15.72.14,1.06-.04.11.68.35,1.31.73,1.9.07.11.21.13.32.07,2.54-1.6,5.15-3.71,7.92-.91.11.11.11.28,0,.38-2.81,2.74-6.07,4.81-9.76,6.21Z" style="fill: #fec698;"/>
      <path d="m231.78,98.1c.66,1.38,1.17,2.82,1.53,4.31l-2.24.11c-.24.01-.45-.19-.45-.45,0-.05,0-.1.02-.15l.95-3.36.2-.46Z" style="fill: #021216;"/>
      <path d="m299.15,117.01c-3.65,1.76-7.3,3.52-10.96,5.28-.18.09-.2.17-.33.31-1.48.08-5.32,2.4-6.83,3.15-6.73,3.14-13.41,6.35-20.06,9.65-.67.33-1.4.49-2.19.47.2-2.01.75-11.8-.37-12.22,7.89-3.34,15.63-6.95,23.22-10.81l16.04-7.64c.36-.17.77-.13,1.08.12.85.68,1.38,1.7,1.24,2.88-.15,1.21-.09,4.59-.59,5.41-.11.17-.17.33-.15.39.12.5.03.94-.28,1.31-.13.15-.18.31-.16.43l.09.43c.02.11.11.2.22.24.27.08.28.28.03.59Z" style="fill: #b6b6b5;"/>
      <path d="m188.52,4.02c-14.47-5.22-28.96-5.36-43.48-.41-5.88,2.08-11.46,4.85-16.73,8.3-12.44,7.8-23.25,19.58-31.34,31.73-4.42,6.56-8.24,13.44-11.48,20.65-2.46,4.99-4.52,10.15-6.17,15.46-2.63,7.73-4.6,15.63-5.92,23.69l-.9,5.5c-.44,4.65-.71,9.17-.8,13.54,0,8.27.69,16.47,2.06,24.61.91,1.18,2.1,2.09,3.58,2.74,3.59,1.56,7.17,3.16,10.73,4.79.79.36,1.6.65,2.43.88.16.04.28.14.34.26l1.76,3.41.12-.58c-2.64-15.06-2.8-30.16-.5-45.28l.93-5.69c1.65-8.13,3.85-16.1,6.61-23.92l2.1-5.22c2.22-5.64,4.83-11.1,7.82-16.37l.78-1.39c3.56-6.18,7.59-12.03,12.09-17.55,3.13-3.91,6.48-7.63,10.06-11.16l2.83-2.54,7.9-6.47,1.51-1.08c2.76-1.94,5.63-3.72,8.59-5.34,3.74-2.16,7.65-3.94,11.73-5.34,3.2-1.22,6.49-2.14,9.85-2.77,3.37-.78,6.78-1.24,10.24-1.37,4.22-.22,8.35.09,12.4.93.42.23.67.14.74-.25-2.34-.97-5.63-2.22-9.86-3.74Z" style="fill: #fdcc89;"/>
      <path d="m258.41,123.66c1.12.41.57,10.21.37,12.22-1.86-.35-3.49-.89-4.88-1.64l-10.59-4.55c-.18-.4-.16-.69.06-.86.1-.08.19-.17.28-.28.82-1.03-2.36-3.27-3.06-3.13-.14.03-.27.11-.36.24-.24.31-.53.54-.87.67l-.25-.45,3.53-1.96c.12-.07.19-.21.18-.36-.53-4.47-5.56-8.14-9.4-9.76l1.28-.09c.19-.01.34,0,.44.05l23.26,9.91Z" style="fill: #b6b6b5;"/>
      <path d="m299.15,117.01c.12.03.23.03.33,0l.03,87.33c-.02,18.7-.03,37.39-.03,56.08,0,5.63-2.28,8.11-7.17,10.43-23.37,11.07-46.75,22.11-70.15,33.13-5.42,2.55-7.56-.74-7.55-5.69.02-15.89,0-31.82-.04-47.77v-17.87s.13-14.15.13-14.15v-59.22c.23-1.98.78-3.87,1.64-5.67.9-1.29,2.01-2.37,3.32-3.23.12-.08.2-.21.22-.35.2-2.36.21-4.67.03-6.93l.04-1.69s5.74,2.2,6.6,3.01l.25,1.41c.42,2.7,1.07,5.34,1.94,7.93.01.04.05.06.08.05,0,0,0,0,0,0l.07-.04c.06-.04.1-.12.12-.22.33-2.81,1.02-6.29,3.02-8.41,3.45-1.94,6.97-3.73,10.57-5.38l11.3-5.54c1.39.75,3.02,1.3,4.88,1.64.8.02,1.53-.14,2.19-.47,6.65-3.29,13.33-6.51,20.06-9.65l.02,3.29c-.19,1.71-.55,5.1.84,6.37,2.4,2.2,5.57-.97,5.92-3.49.2-1.45.22-2.9.06-4.33v-4.99c.12-.14.14-.22.33-.31,3.65-1.76,7.31-3.52,10.96-5.28Z" style="fill: #c9be68;"/>
      <path d="m203.22,118.54c.51,2.14.86,4.27,1.04,6.4.02.19.13.36.28.43l15.06,6.77c.22.1.36.31.36.53v8.75l-.04,1.69c-10.11-4.59-20.43-8.73-30.72-12.89-.16-.07-.28-.16-.35-.28l-.14-.25.07-4.55c4.93-1.94,9.74-4.14,14.44-6.6Z" style="fill: #ff834e;"/>
      <path d="m143.36,119.53l18.3,7.25,12.09,5.21c1.57,1.14,2.86,2.52,3.85,4.12-3.09-1.33-6.18-1.29-9.27.14-3.41,1.58-6.79,3.22-10.14,4.91l-15.8,7.78c-5.91,2.73-9.5,4.54-12.63,8.53-5.21,6.64-7.74,14.45-7.61,23.42l-30.59-11.68c-.13-.05-.22-.18-.21-.32.04-3.33.46-6.56,1.25-9.72l.12-.58c.31-.69.73-1.82,1.26-3.37,1.4-4.11,3.72-8.32,6.97-12.64,3.15-4.32,7.11-7.69,11.86-10.12l12.64-6.17,11.75-5.79c1.95-.76,4-1.09,6.17-.98Z" style="fill: #808185;"/>
      <path d="m287.87,122.6v4.99c-1.05.14-2.07.39-3.07.73-.63.22-1.26-.02-1.95.22-.59.21-1.19.37-1.79.5l-.02-3.29c1.51-.75,5.36-3.07,6.83-3.15Z" style="fill: #808185;"/>
      <path d="m243.32,129.69l-5.92,7.52c-1.49,1.61-2.92,3.29-4.31,5.05-.06.08-.25.4-.56.97-.28.52-1.37,1.5-.5,1.93-2,2.12-2.68,5.61-3.02,8.41-.01.1-.06.19-.12.22l-.07.04s-.07,0-.08-.04c0,0,0,0,0-.01-.87-2.59-1.52-5.23-1.94-7.93.19-.05.34-.15.46-.29.08-.1.11-.25.1-.42-.14-2.17,1.31-3.47,2.32-5.43l4.3-10.06c.51-.75.97-1.23,1.92-1.47.85-.21,3.46-.52,3.46-1.86.34-.13.63-.36.87-.67.09-.13.22-.21.36-.24.7-.14,2.6-2.07,3.17-1.37.06.07.71,3.47-.11,4.5-.09.11-.18.21-.28.28-.22.17-.24.46-.06.86Z" style="fill: #071c2f;"/>
      <path d="m287.87,127.6c.16,1.44.14,2.88-.06,4.33-.35,2.53-3.52,5.69-5.92,3.49-1.39-1.27-1.02-4.66-.84-6.37.6-.13,1.2-.29,1.79-.5.69-.24,1.32,0,1.95-.22,1-.35,2.03-.59,3.07-.73Z" style="fill: #ad9d19;"/>
      <path d="m184.04,127.85l3.95,1.79.72.05.14.25c.07.11.19.21.35.28,10.29,4.16,20.61,8.3,30.72,12.89.19,2.26.18,4.57-.03,6.93-.01.14-.09.27-.22.35-1.31.86-2.42,1.94-3.32,3.23-9.85-4.02-19.71-8.02-29.58-12-.97-.39-1.93-1.03-2.88-1.91-.12-.11-.18-.25-.19-.39l-.08-3.66c-.07-1.21-.57-7.46.4-7.82Z" style="fill: #fdcc89;"/>
      <path d="m234,129.65l-4.3,10.06c-.93-.51-1.92-.64-2.98-.38l-.2-6c0-.21.12-.41.32-.5l7.17-3.18Z" style="fill: #ff834e;"/>
      <path d="m243.32,129.69l10.59,4.55-11.3,5.54-5.2-2.56,5.92-7.52Z" style="fill: #808185;"/>
      <path d="m183.63,135.67l.08,3.66c0,.14.07.28.19.39.95.89,1.91,1.52,2.88,1.91,9.87,3.98,19.73,7.98,29.58,12-.87,1.8-1.42,3.69-1.64,5.67l-8.34,4.31-.12-.02c-.06-.01-.11-.07-.11-.15.01-1.52.2-6.71-.7-6.65-.33-.34-.69-.59-1.07-.73-7.84-2.91-15.62-5.99-23.34-9.23-.01-3.82-1.04-7.25-3.09-10.29,2.05.5,3.94.22,5.69-.87Z" style="fill: #fee8b2;"/>
      <path d="m237.4,137.21l5.2,2.56c-3.6,1.65-7.12,3.44-10.57,5.38-.87-.43.22-1.41.5-1.93.31-.57.5-.89.56-.97,1.38-1.76,2.82-3.44,4.31-5.05Z" style="fill: #e0def9;"/>
      <path d="m229.69,139.7c-1.01,1.96-2.46,3.26-2.32,5.43.01.17-.03.33-.1.42-.12.15-.28.24-.46.29l-.25-1.41c-.22-1.71-.17-3.42.15-5.11,1.06-.26,2.06-.14,2.98.38Z" style="fill: #fabb56;"/>
      <path d="m181.04,146.83c7.72,3.25,15.5,6.32,23.34,9.23.39.15.74.39,1.07.73-.96-.27-1.62-.32-1.97-.14-7.13,3.5-14.28,6.98-21.44,10.45-.53-.15-.78-.61-.77-1.38.03-2.18-.05-8.48-.23-18.88Z" style="fill: #808185;"/>
      <path d="m73.76,147.1c.91,1.18,2.1,2.09,3.58,2.74,3.59,1.56,7.17,3.16,10.73,4.79.79.36,1.6.65,2.43.88.16.04.28.14.34.26l1.76,3.41c-.79,3.15-1.21,6.39-1.25,9.72,0,.14.08.27.21.32l30.59,11.68,16.98-8.29c.13-.06.22-.19.24-.33.54-4,2.79-6.48,6.73-7.42l15.88,6.22,15.36,6.13c-.39.35-.7.7-1.18.93-10,4.84-20.02,9.63-30.07,14.38-6.86,3.11-13.68,6.42-20.46,9.95l-16.23-6.43-15.02-6.01-11.19-4.48-27.77-11.24-13.83-5.78c-.23-.1-.42-.15-.47-.13-1.16.37-2.19.21-3.08-.48-.14-.11-.3-.16-.46-.14-.85.11-1.3-.24-1.34-1.03-.02-.53.19-.9.63-1.13,11.41-5.94,23.7-12.1,36.88-18.5Z" style="fill: #fff;"/>
      <path d="m182.58,172.62c0-.17-.05-.33-.16-.43-.72-.68-.88-1.53-.48-2.53.07-.18.05-.38-.05-.5l-.31-.39c-.1-.12-.11-.28-.03-.39l.86-1.11c.08-.1.05-.14-.08-.12-.2.03-.29.01-.29-.06-.53-.15-.78-.61-.77-1.38.03-2.18-.05-8.48-.23-18.88-.01-3.82-1.04-7.25-3.09-10.29l-.35-.43c-3.09-1.33-6.18-1.29-9.27.14-3.41,1.58-6.79,3.22-10.14,4.91l-15.8,7.78c-5.91,2.73-9.5,4.54-12.63,8.53-5.21,6.64-7.74,14.45-7.61,23.42l16.98-8.29c.13-.06.22-.19.24-.33.54-4,2.79-6.48,6.73-7.42l2.21-1.28c3.06-1.46,6.12-2.92,9.2-4.36,2.64-1.24,4.9-1.1,4.46,2.66v9.19s15.37,6.13,15.37,6.13l1.28.43c.22-.09.46-.13.71-.12.04,0,.08,0,.12,0,.16-.02.26-.12.23-.2l-.03-.09c-.04-.1-.02-.2.03-.25l1.25-1.18c.11-.11.26-.17.43-.19,1.55-.17,1.2-1.89,1.23-2.96Z" style="fill: #393b40;"/>
      <path d="m161.97,161.88v9.19s-15.86-6.22-15.86-6.22l2.21-1.28c3.06-1.46,6.12-2.92,9.2-4.36,2.64-1.24,4.9-1.1,4.46,2.66Z" style="fill: #031e29;"/>
      <path d="m206.29,163.74l.09-.13-.12-.02c-.06-.01-.11-.07-.11-.15.01-1.52.2-6.71-.7-6.65-.96-.27-1.62-.32-1.97-.14-7.13,3.5-14.28,6.98-21.44,10.45,0,.07.1.09.29.06.14-.02.16.02.08.12l-.86,1.11c-.08.11-.07.27.03.39l.31.39c.11.13.13.32.05.5-.39,1.01-.23,1.85.48,2.53.11.1.16.26.16.43-.03,1.08.32,2.79-1.23,2.96-.17.02-.32.08-.43.19l-1.25,1.18c-.06.06-.07.15-.03.25l.03.09s0,.04,0,.07c-.03.09-.18.16-.35.14-.25-.02-.49.02-.71.12,1.04.72.83,1.47.85,2.58.09,5.77.12,11.53.1,17.29-.21,20.82-.21,41.65,0,62.47l-.12,24.38c8.26-3.78,16.46-7.67,24.61-11.68,1.16-.57,2.03-1.47,2.09-2.72.13-2.8.15-6.8.07-12.02l-.06-18.17v-22.06l-.12-9.99.09-20.5-.09-1.44.13-21.76c0-.07.04-.17.11-.27Z" style="fill: #393b40;"/>
      <path d="m206.37,163.61l-.09.13c-.07.11-.11.21-.11.27l-.13,21.76.09,1.44-.09,20.5.12,9.99v22.06c3.56-2.78,5.69-4.55,6.4-5.31.82-.89,1.5-1.49,2.03-1.79l.13-14.15v-59.22l-8.34,4.31Z" style="fill: #ff834e;"/>
      <path d="m125.63,202.46l-16.23-6.43-15.02-6.01-11.19-4.48-27.77-11.24-13.83-5.78c-.23-.1-.42-.15-.47-.13-1.16.37-2.19.21-3.08-.48-.14-.11-.3-.16-.46-.14-.85.11-1.67,79.27-1.67,79.27l8.36,3.28c.03-.19.13-.34.3-.44.1-.06.18-.18.23-.32.12-.39.72-.7,1.78-.93.54-.12.91-.42,1.11-.9l1.11-2.71-1.89-1.36c-.28-.2-.26-.37.05-.51l4.75-2.11c.28-.12.64-.12.98.02l30.82,12.7,16.53,6.58c1.53,2.1.9,8.05,1,10.79.07,1.76-.84,3.06-2.73,3.9-1.99.89-3.99,1.79-5.97,2.69l-23.51,11.43c1.06.79,2.13,1.39,3.21,1.81,15.17,5.87,30.41,11.56,45.71,17.09,2.34,1.13,4.78,1.91,7.31,2.34-.11-.75-.14-1.47-.11-2.16.07-1.31.1-1.98.1-2-.09-25.57-.06-59.61.09-102.11,0-.77.16-1.32.47-1.66Z" style="fill: #96d0bd;"/>
      <path d="m214.59,232.66v17.87c-2.59,2.72-5.37,5.19-8.36,7.41l-.06-18.17c3.56-2.78,5.69-4.55,6.4-5.31.82-.89,1.5-1.49,2.03-1.79Z" style="fill: #ff834e;"/>
      <path d="m4.16,264.23c24.39,9.51,40.4,15.79,48.04,18.83.64.25,1.26.42,1.87.49.29,4.15.42,8.31.38,12.48-1.03-.23-2.04-.4-3.01-.77-24.18-9.12-39.38-14.91-45.58-17.38-1.38-.55-2.16-1.71-2.32-3.49-.32-3.42-.11-6.8.62-10.16Z" style="fill: #ff834e;"/>
      <g style="mix-blend-mode: darken;">
        <path d="m257.25,259.25l9.1-4.82c.82-.43,1.51-1.12,2.08-2.04s.85-1.84.85-2.75v-8.49c0-.59-.18-.98-.54-1.19s-.8-.17-1.33.11l-.62.33v-2.76c0-1.52-.49-2.56-1.47-3.13s-2.15-.48-3.52.24-2.55,1.89-3.52,3.49-1.47,3.16-1.47,4.68v2.76l-.62.33c-.53.28-.97.71-1.33,1.3s-.54,1.17-.54,1.76v8.49c0,.91.28,1.53.85,1.85s1.26.27,2.08-.16Zm1.43-14.57v-2.76c0-.92.31-1.86.94-2.81s1.35-1.65,2.18-2.09,1.56-.51,2.18-.22c.62.29.94.9.94,1.82v2.76l-6.24,3.3Zm3.12,30.11c-.35.18-.68.32-.99.42s-.61.15-.88.16c-5.99,1-10.76-.56-14.31-4.68-3.55-4.13-5.33-9.62-5.33-16.48v-13.04c0-1.39.34-2.84,1.02-4.35.68-1.51,1.61-2.8,2.78-3.88l15.65-14.77c.67-.63,1.35-1.13,2.06-1.5s1.39-.6,2.06-.67l15.65-1.79c1.17-.16,2.11.14,2.81.92.7.78,1.05,1.86,1.05,3.25v13.04c0,6.86-1.79,14.24-5.36,22.14-3.58,7.9-8.36,14.51-14.34,19.84-.27.28-.57.54-.88.78s-.64.44-.99.63Z" style="fill: url(#b);"/>
        <path d="m268.75,239.95c-.36-.21-.8-.17-1.33.11l-.62.33v-2.76c0-1.52-.49-2.56-1.47-3.13s-2.15-.48-3.52.24c-1.37.73-2.55,1.89-3.52,3.49-.98,1.6-1.47,3.16-1.47,4.68v2.76l-.62.33c-.53.28-.97.71-1.33,1.3-.36.59-.54,1.17-.54,1.76v8.49c0,.91.28,1.53.85,1.85.57.33,1.26.27,2.08-.16l9.1-4.82c.82-.43,1.51-1.12,2.08-2.04.57-.93.85-1.84.85-2.75v-8.49c0-.59-.18-.98-.54-1.19Zm-3.83,1.43l-6.24,3.3v-2.76c0-.92.31-1.86.94-2.81s1.35-1.65,2.18-2.09c.83-.44,1.56-.51,2.18-.22.62.29.94.9.94,1.82v2.76Z" style="fill: #fff;"/>
      </g>
      <g style="mix-blend-mode: color-dodge;">
        <path d="m258.12,259.83l9.1-4.82c.82-.43,1.51-1.12,2.08-2.04s.85-1.84.85-2.75v-8.49c0-.59-.18-.98-.54-1.19s-.8-.17-1.33.11l-.62.33v-2.76c0-1.52-.49-2.56-1.47-3.13s-2.15-.48-3.52.24-2.55,1.89-3.52,3.49-1.47,3.16-1.47,4.68v2.76l-.62.33c-.53.28-.97.71-1.33,1.3s-.54,1.17-.54,1.76v8.49c0,.91.28,1.53.85,1.85s1.26.27,2.08-.16Zm1.43-14.57v-2.76c0-.92.31-1.86.94-2.81s1.35-1.65,2.18-2.09,1.56-.51,2.18-.22c.62.29.94.9.94,1.82v2.76l-6.24,3.3Zm3.12,30.11c-.35.18-.68.32-.99.42s-.61.15-.88.16c-5.99,1-10.76-.56-14.31-4.68-3.55-4.13-5.33-9.62-5.33-16.48v-13.04c0-1.39.34-2.84,1.02-4.35.68-1.51,1.61-2.8,2.78-3.88l15.65-14.77c.67-.63,1.35-1.13,2.06-1.5s1.39-.6,2.06-.67l15.65-1.79c1.17-.16,2.11.14,2.81.92.7.78,1.05,1.86,1.05,3.25v13.04c0,6.86-1.79,14.24-5.36,22.14-3.58,7.9-8.36,14.51-14.34,19.84-.27.28-.57.54-.88.78s-.64.44-.99.63Z" style="fill: #071c2f;"/>
        <path d="m269.62,240.53c-.36-.21-.8-.17-1.33.11l-.62.33v-2.76c0-1.52-.49-2.56-1.47-3.13s-2.15-.48-3.52.24c-1.37.73-2.55,1.89-3.52,3.49-.98,1.6-1.47,3.16-1.47,4.68v2.76l-.62.33c-.53.28-.97.71-1.33,1.3-.36.59-.54,1.17-.54,1.76v8.49c0,.91.28,1.53.85,1.85.57.33,1.26.27,2.08-.16l9.1-4.82c.82-.43,1.51-1.12,2.08-2.04.57-.93.85-1.84.85-2.75v-8.49c0-.59-.18-.98-.54-1.19Zm-3.83,1.43l-6.24,3.3v-2.76c0-.92.31-1.86.94-2.81s1.35-1.65,2.18-2.09c.83-.44,1.56-.51,2.18-.22.62.29.94.9.94,1.82v2.76Z" style="fill: #fff;"/>
      </g>
      <path d="m233.77,27.4c-1.68-2.96-4.22-5.32-7.27-6.71-1.68-1.4-3.42-2.74-5.21-4.01-7.06-4.31-14.69-7.28-22.91-8.91-.07.39-.31.48-.74.25-4.05-.84-8.18-1.15-12.4-.93-3.46.13-6.87.59-10.24,1.37-3.37.63-6.65,1.55-9.85,2.77-4.08,1.41-7.99,3.19-11.73,5.34-2.97,1.62-5.83,3.4-8.59,5.34l-1.51,1.08-7.9,6.47-2.83,2.54c-3.58,3.53-6.93,7.25-10.06,11.16-4.5,5.52-8.53,11.37-12.09,17.55l-.78,1.39c-2.99,5.27-5.6,10.73-7.82,16.37l-2.1,5.22c-2.76,7.82-4.96,15.8-6.61,23.92l-.93,5.69c-2.3,15.13-2.13,30.22.5,45.28.31-.69.73-1.82,1.26-3.37,1.4-4.11,3.72-8.32,6.97-12.64,3.15-4.32,7.11-7.69,11.86-10.12l12.64-6.17,11.75-5.79c1.95-.76,4-1.09,6.17-.98l18.29,7.25,12.09,5.21c1.57,1.14,2.86,2.52,3.85,4.12l.35.43c2.05.5,3.94.22,5.69-.87-.06-1.21-.57-7.46.4-7.82.86-.63,1.71-1.05,2.56-1.25.66-.16,2.18-1.46,2.18-1.46h0s9.74-4.14,14.44-6.6l-1.15-7.02c1.58-3.39,2.47-7.22,2.47-11.28,0-1.96-.22-3.87-.62-5.71l5.98,2.64c.16.07.27.18.31.3l.33,1.04,1.27,7.25c.27-.54.67-.95,1.19-1.24.11-.06.26-.06.41,0,.47.18.86,0,1.18-.52,3.54-5.91,4.51-12.23,4.19-19.1-1.03,1.51-3.23,2.02-4.37,1.37,5.75-5.56,9.41-13.25,9.74-21.8,1.97-.99,4.05-1.08,6.24-.25,1.39.6,2.27,1.66,2.66,3.2.28,1.84.63,8.97-2.51,8.76-.21-.02-.41.18-.47.46l-.55,2.56c-.03.14-.2.23-.4.22l-3.37-.14c1.65.95,3.45.79,4.87,1.33,3.47,1.33,5.51,3.95,6.1,7.84l18.03-8.92c-1.06-19.18-8.24-37.77-20.99-52.13Z" style="fill: url(#c);"/>
      <g>
        <path d="m87.46,279.14s.06-.01.09-.03c-.04.02-.09.02-.13.02.01,0,.02,0,.04,0Z" style="fill: none;"/>
        <path d="m100.05,260.34l-32.18,16.85-1.76.8c-5.25,2.51-5.06,2.6-10.31,5.11-.27.13-.55.22-.85.27-.42.08-.72.14-.88.18.29,4.15.42,8.31.38,12.48,6.52-2.72,7.43-3.34,13.64-6.7h0l.76-.18,23.51-11.43c1.99-.9,3.98-1.8,5.97-2.69,1.88-.84,2.79-2.14,2.73-3.9-.1-2.74.53-8.69-1-10.79Z" style="fill: #fee8b2;"/>
        <path d="m83.51,253.75l-30.82-12.7c-.34-.14-.69-.15-.98-.02l-18.8,8.1-10.39,5.34c-7.31,3.56-9.17,4.71-16.47,8.3-.76.37-1.3.9-1.9,1.46,24.39,9.51,40.4,15.79,48.04,18.83.64.25,1.26.42,1.87.49.17-.04.46-.1.88-.18.3-.06.58-.15.85-.27,5.25-2.51,5.06-2.6,10.31-5.11l1.76-.8,32.18-16.85-16.53-6.58Z" style="fill: #fff;"/>
      </g>
      <g>
        <path d="m154.73,294.54s-.05-.01-.07-.03c0,0,0,.01.02.02.02,0,.04.01.06.01Z" style="fill: none;"/>
        <path d="m156.65,253.07s-.06,0-.08,0c.02,0,.04,0,.06,0,0,0,.02,0,.02,0Z" style="fill: none;"/>
        <path d="m179.43,234.03c-.02-12.18.02-24.35.14-36.53.02-5.76-.01-11.53-.1-17.29-.02-1.11.19-1.86-.85-2.58l-1.28-.43c-.39.35-.7.7-1.18.93-10,4.84-20.02,9.63-30.07,14.38-6.86,3.11-13.68,6.42-20.46,9.95-.31.34-.47.89-.47,1.66-.07,21.15-.12,40.2-.13,57.15l53.97-27.15c.14-.07.29-.09.43-.09Z" style="fill: #488975;"/>
        <path d="m125.02,263.27c-.01,16.28,0,30.61.04,42.95,0,.02-.03.68-.1,2-.03.69,0,1.41.11,2.16l29.05-13.93,25.33-12.09.12-24.38c-.08-8-.12-15.99-.14-23.99l-54.06,27.2c-.11.06-.23.08-.35.09Zm31.63-10.2s-.02,0-.02,0c-.02,0-.04,0-.06,0,.03,0,.05,0,.08,0Zm-.15.01s-.04,0-.06,0c.02,0,.04,0,.06,0Zm-.11,0s-.03,0-.04-.01c.01,0,.03,0,.04.01Zm-.08-.03s-.01-.01-.02-.02c0,0,0,.01.02.02Zm-1.57,41.5s-.04,0-.06-.01c0,0,0-.01-.02-.02.02.01.05.03.07.03Zm-.11-.06s-.02-.03-.02-.04c0,.02.01.03.02.04Z" style="fill: #488975;"/>
      </g>
      <path d="m230.41,64.22c1.39.6,2.27,1.66,2.66,3.2-.58.2-1.15.78-1.69,1.75-.3.53-.81.84-1.55.92l-2.68.3c-.1.01-.17.18-.16.38.12,1.59.4,3.18-.18,4.67-.58,1.51-1.45,2.85-2.59,4.03-2.25,1.43-4.06,3.25-5.42,5.44-1.7,2.49-6.59,2.28-4.64-1.41,2.11-4.01,3.93-8.42,5.46-13.25.63-1.99,1.78-3.7,3.46-5.14,2.29-1.57,4.73-1.87,7.33-.89Z" style="fill: #1a213c;"/>
      <path d="m150.35,114.94c-5.66,2.75-10.52,2.88-14.58.38-4.06-2.5-6.09-6.95-6.09-13.34,0-5.5,1.49-11.16,4.47-16.96,2.98-5.8,6.86-10.33,11.65-13.57,1.4-7.23,4.38-14.01,8.95-20.32,4.56-6.31,9.79-10.9,15.69-13.76,6.76-3.28,12.53-3.38,17.32-.3s7.42,8.34,7.88,15.78v2.36c4.38-1.67,8-1.44,10.86.69,2.86,2.13,4.29,5.74,4.29,10.82s-1.68,10.51-5.04,15.81c-3.36,5.3-7.34,9.07-11.95,11.31l-43.44,21.1Zm13.57-22.52c.58-.28,1.11-.66,1.59-1.12.47-.46.91-1.02,1.3-1.66l16.03-25.67c.53-.86.79-1.74.79-2.65s-.28-1.56-.83-1.95c-.55-.39-1.25-.38-2.08.03s-1.53,1.07-2.08,1.99l-14.54,23.28-6.66-4.24c-.58-.37-1.3-.35-2.15.06s-1.53,1.08-2.06,2.02c-.64.99-.96,1.92-.96,2.81s.32,1.51.96,1.88l7.79,5.26c.42.25.87.37,1.37.36.5,0,1-.14,1.52-.39Z" style="fill: #fff; opacity: .48;"/>
      <path d="m146.34,217.86c-2.78,1.24-4.1-.76-3.91-3.25.39-4.94,5.28-6.58,10.18-9.14,1.7-.81,3.39-1.66,5.08-2.54,1.98-1.03,4.29-1.38,4.77,1.4.58,3.29-.71,5.73-3.86,7.31-4.09,2.05-8.18,4.12-12.26,6.21Z" style="fill: #d9eee7;"/>
      <path d="m152.73,233.07c-1.94.91-3.37.71-4.28-.6-1.89-2.72-.52-6.92,1.51-9.25,4.05-4.29,7.51-1.04,6.6,3.83-.51,2.71-1.79,4.71-3.83,6.02Z" style="fill: #d9eee7;"/>
      <path d="m146.36,274.59c-2.69,1.6-4.19-.31-3.98-2.83.24-2.88,1.73-5.03,4.46-6.45,3.24-1.68,6.48-3.36,9.74-5.03,2-.98,3.79-2.12,5.25-.26,1.47,1.86.39,5.43-1.16,7.02-.55.56-1.68,1.27-3.39,2.13-3.66,1.83-7.3,3.64-10.93,5.42Z" style="fill: #d9eee7;"/>
      <path d="m149.48,288.48c-2.63-2.3-1.98-5.98-.45-8.69,2.07-3.75,7.91-5.39,8.13.73.09,2.58-.75,4.79-2.52,6.63-1.3,1.35-3.42,2.47-5.16,1.33Z" style="fill: #d9eee7;"/>
      <path d="m188.78,125.14l.07,4.8-4.81-2.09c.86-.63,4.45-2.14,4.74-2.71Z" style="fill: #ff834e;"/>
      <path d="m201.73,93.56l8.17,3.62c.16.07.27.18.31.3l.33,1.05,1.27,7.25,1.96,10.91c.03.14.12.26.26.32,3.47,1.47,8.05,3.94,11.78,4.2.43.03.75.45.72.94l-.35,5.89c-.02.34.26.63.62.65.07,0,.14,0,.21-.02,3.79-1.04,7.01-3.2,11.17-3.41.18,0,.34.04.43.12l.51.51.25.45c0,1.34-2.61,1.65-3.46,1.86-.95.24-1.41.72-1.92,1.47l-7.17,3.18c-.2.09-.32.28-.32.5l.2,6c-.32,1.69-.37,3.4-.15,5.11-.86-.81-6.6-3.01-6.6-3.01v-8.75c0-.23-.14-.43-.36-.53l-15.06-6.77c-.16-.07-.27-.24-.28-.43-.18-2.12-.53-4.26-1.04-6.4l-4.11-25.2c-.11-.69.14-.9.76-.62l1.86.84Z" style="fill: #393b40;"/>
      <polygon points="289.24 164.61 227.01 196.31 227.01 176.82 289.24 145.12 289.24 164.61" style="fill: #dfe0e2; mix-blend-mode: multiply;"/>
      <polygon points="244.84 216.1 227.42 225.15 227.42 205.66 244.84 196.61 244.84 216.1" style="fill: #dfe0e2; mix-blend-mode: multiply;"/>
      <polygon points="289.24 194.08 250.87 213.73 250.87 194.24 289.24 174.59 289.24 194.08" style="fill: #dfe0e2; mix-blend-mode: multiply;"/>
      <path d="m314.76,109.64l-25.06,11.95.42-12.89,24.79-11.81c.69-.33,1.49.14,1.54.9l-.1,9.39c-.01,1.06-.62,2.02-1.58,2.47Z" style="fill: #b6b6b5;"/>
      <g>
        <path d="m285.5,107.31c2.26,1.03,4.08,2.14,5.42-.3.3-.55.36-1.78.36-2.41,0-16.7,0-23.63,0-40.33,0-2.02-.25-3.77-2.34-5.37,3.57,1.21,3.57-.37,3.57-.37l1.1,1.9.46,2.33.12,1.4-.03,2.75.02,1.85-.04,2.41.05-6.57c-.13.94-.16,2.03-.08,3.28l.02,5.24v6.71s.03,1.2.03,1.2c-.08,1.58-.11,3.26-.07,5.04.14,7.05.08,14.09-.17,21.13-1.35,1.86-5.57,1.27-5.57,1.27l-2.85-1.16Z" style="fill: #808185;"/>
        <path d="m247.59,36.55l16.44,7.83,11.32,5.4,1.49.68,3.6,1.69,2.62,1.28,3.67,1.77,5.76,3.33c-.26.73-.98,1.99-4.83-.32-10.02-4.87-16.31-7.9-18.89-9.1-11.14-5.16-18.22-8.54-21.24-10.14-1.96-1.03-3.63-1.8-5.01-2.28l1.38-.4c1.24-.13,2.47-.04,3.69.26Z" style="fill: #b6b6b5;"/>
        <path d="m247.54,38.97c3.02,1.59,10.1,4.97,21.24,10.14,2.58,1.2,8.88,4.23,18.89,9.1,2.82,1.19,3.61,3.11,3.61,6.06,0,16.7,0,23.63,0,40.33,0,.63-.06,1.87-.36,2.41-1.35,2.44-3.16,1.33-5.42.3-14.68-6.64-29.31-13.39-43.9-20.23-.84-.89-1.48-2.06-1.91-3.51-.03-2.39-.04-4.96-.03-7.71.02-15.59.03-21.43.03-37.04.71-1.11,1.66-1.83,2.84-2.14,1.38.49,3.05,1.25,5.01,2.28Zm-5.46,2.17s-.07-.02-.11-.02c-.2,0-.36.15-.36.35v29.83s.02,11.16.02,11.16c0,.09.06.18.14.22,15.28,7.1,30.58,14.16,45.89,21.17.47.22.95.34,1.43.36,0,0,0,0,0,0,.13,0,.24-.1.24-.23l.03-17.43c.06-14.11-.27-12.41.04-22.47.01-.48-.2-.83-.64-1.04l-5.69-2.71" style="fill: #1a213c;"/>
        <path d="m242.07,41.15c-.19-.07-.39.03-.45.22-.01.03-.02.07-.02.11v29.83s.02,11.16.02,11.16c0,.09.06.18.14.22,15.28,7.1,30.58,14.16,45.89,21.17.47.22.95.34,1.43.36.13,0,.24-.09.24-.22h0s.03-17.43.03-17.43c.06-14.11-.27-12.41.04-22.47.01-.48-.2-.83-.64-1.04l-5.69-2.71c-.26,0-39.44-18.64-40.99-19.2Z" style="fill: #fff;"/>
        <path d="m275.18,67.55c3.19,1.33,6.38,2.67,9.56,4.02.36.15.44.48.24.99-.03.08-.11.12-.19.09,0,0,0,0,0,0l-9.41-3.94c-9.83-4.12-18.43-7.52-27.47-11.69-.1-.04-.16-.11-.16-.16v-.72c0-.06.05-.1.12-.1.02,0,.03,0,.05.01,9,4.06,18.16,7.73,27.28,11.49Z" style="fill: #bae8fe;"/>
        <path d="m248.91,63.86c-.67-.31-2.18-.7-1.47-1.75.03-.05.1-.06.16-.03.5.29,1.01.55,1.53.78,4.91,2.21,9.84,4.36,14.8,6.46.09.04.16.1.15.16l-.08.91s-.08.05-.16.02c-.01,0-.02,0-.03-.01-4.65-1.93-9.62-4.11-14.89-6.55Z" style="fill: #c2d9fe;"/>
        <path d="m274.02,79.55l10.41,4.38c.13.05.19.18.16.29-.06.18-.07.37-.04.56.04.28-.08.36-.35.25l-9.94-4.19c-9.18-3.9-18.37-7.74-27.41-11.96-.1-.05-.18-.11-.19-.15-.06-.29-.03-.57.1-.83.03-.05.11-.07.2-.03,8.98,4,18,7.9,27.07,11.68Z" style="fill: #bdd6ff;"/>
        <path d="m273.24,85.22l10.42,4.41c.1.04.17.11.16.15l-.14.76c-.01.05-.09.08-.17.05,0,0-.02,0-.03,0l-4.56-1.86c-14.19-5.82-22.33-9.01-33.29-14.14-.08-.04-.14-.1-.13-.14l.1-.89c0-.05.06-.08.12-.07.01,0,.02,0,.04.01,8.67,4.19,17.74,7.79,27.47,11.73Z" style="fill: #a8cdfe;"/>
        <g>
          <path d="m269.5,69.53l-.99,1.01v.02l1.57.42v.77l-1.57-.85v.02l1,1.77-.66.14-.62-1.84h-.02s-.68,1.31-.68,1.31l-.59-.65.99-.98v-.02l-1.54-.42v-.77l1.53.85v-.02l-.98-1.79.64-.13.65,1.84h.02s.64-1.32.64-1.32l.62.64Z" style="fill: #c2d9fe;"/>
          <path d="m273.83,71.31l-.99,1.01v.02l1.57.42v.77l-1.57-.85v.02l1,1.77-.66.14-.62-1.84h-.02s-.68,1.31-.68,1.31l-.59-.65.99-.98v-.02l-1.54-.42v-.77l1.53.85v-.02l-.98-1.79.64-.13.65,1.84h.02s.64-1.32.64-1.32l.62.64Z" style="fill: #c2d9fe;"/>
          <path d="m278.15,73.09l-.99,1.01v.02l1.57.42v.77l-1.57-.85v.02l1,1.77-.66.14-.62-1.84h-.02s-.68,1.31-.68,1.31l-.59-.65.99-.98v-.02l-1.54-.42v-.77l1.53.85v-.02l-.98-1.79.64-.13.65,1.84h.02s.64-1.32.64-1.32l.62.64Z" style="fill: #c2d9fe;"/>
          <path d="m282.47,74.87l-.99,1.01v.02l1.57.42v.77l-1.57-.85v.02l1,1.77-.66.14-.62-1.84h-.02s-.68,1.31-.68,1.31l-.59-.65.99-.98v-.02l-1.54-.42v-.77l1.53.85v-.02l-.98-1.79.64-.13.65,1.84h.02s.64-1.32.64-1.32l.62.64Z" style="fill: #c2d9fe;"/>
        </g>
      </g>
      <path d="m268.78,49.11s8.88,4.23,18.89,9.1c2.82,1.19,3.61,3.11,3.61,6.06,0,16.7,0,23.63,0,40.33,0,.63-.06,1.87-.36,2.41-1.35,2.44-5.42.3-5.42.3l-16.72-58.21Z" style="fill: #383c3f; mix-blend-mode: multiply; opacity: .24;"/>
      <polygon points="91.56 169.21 109.4 196.03 125.85 201.85 152.78 189.33 139.38 172.27 91.56 169.21" style="fill: #b6b6b5; mix-blend-mode: multiply; opacity: .26;"/>
      <g>
        <path d="m38.8,162.05c-3.26,2.33-13.03-16.27,1.59-8.83,9.12,8.96.49,10.08.82,10.05.51-.06-3.03-1.85-2.49-1.7.36.11.39.27.08.49Z" style="fill: #fdcca7;"/>
        <path d="m54.26,233.17l.02,6.38-.04-3.84-.29,29.31c0,.41-.34.74-.76.73-.01,0-.03,0-.04,0-1.29-.07-14.44-.58-11.89-3.99.11-.15.48-.27.94-.3l4.24-.29c.3-.02.51-.33.48-.68,0-.01,0-.02,0-.03l-3.36-38.78c-.06-.45-1.06-.79-1.28-.79l.17.02c-.33,0-.59.34-.58.74,0,0,0,.01,0,.02.27,11.01-1.86,32.29-2.41,43.29-.04.7-.54,1.27-1.18,1.34-3.95.43-7.9.51-11.83.25-.37-.03-.68-.18-.84-.41-1.53-2.24,5.76-3.63,6.97-3.96.29-.08.5-.33.53-.62.13-1.56.12-3.45-.04-5.67-.49-6.89-1.02-13.79-1.58-20.68l-.39-2.26-.55-9.42c-.29-6.23-.15-12.44.4-18.63.03-.3-.12-.6-.39-.75-5.67-3.14-9.92-4.74-9.84-12.23,0-.28-.18-.53-.41-.55-.06,0-.12,0-.18.03l-4.4,1.91c-.3.12-.64-.02-.76-.32,0-.02-.01-.04-.02-.06l-4.14-13.46c-.1-.34.03-.68.31-.8l7.77-3.23c.44-.18.96.08,1.16.58.02.06.04.12.05.18.84,4.34,2.27,8.58,4.29,12.71-.56.54-.54.99.05,1.36.28.18.47.44.51.72.25,1.83,1.62,6.68,3.81,5.12,1.53.19,2.28-.37,2.23-1.67-.32-9.28-2.86-27.24,9.95-28.32.35-.03.06-2.49.2-2.75.02-.04.05-.08.07-.11.67-.82,1.56-1.17,2.68-1.06.42.04.71.45.64.91-.02.13,1.09,2.4,1.09,2.4,15.4-2.43,9.19,22.73,6.44,29.79-.45,1.17-.6,2.39-.43,3.64,1.53,11.17,2.41,22.58,2.63,34.23Z" style="fill: #393b40;"/>
        <path d="m22.12,186.52c-.48-2.98-1.37-6.06-2.66-9.23-.14-.34-.51-.5-.84-.37l-6.04,2.47c-.34.14-.54.49-.45.81l3.21,11.51c.09.31.39.51.69.44.07-.02.14-.05.2-.1,1.96-1.51,4.1-2.7,6.42-3.57.33-.12.53-.42.45-.66,0-.02-.02-.04-.03-.06-.09-.17-.25-.27-.47-.3-.19-.02-.39-.42-.48-.94Z" style="fill: #112163;"/>
        <path d="m22.84,188.04c.16.49-.08,1.02-.55,1.24l-6.06,2.76s-.59.13-.79-.13c-.05-.06-.08-.14-.1-.21l-3.21-11.51c-.09-.32.11-.67.45-.81l6.04-2.47c.33-.13.84.37.84.37l3.38,10.76Z" style="fill: #fff;"/>
        <path d="m24.39,188.91l4.37,7.2c-2.19,1.56-3.56-3.29-3.81-5.12-.04-.28-.23-.54-.51-.72-.59-.37-.61-.82-.05-1.36Z" style="fill: #1a213c;"/>
        <path d="m35.88,155.36c-.66-.08-2.09-2.64-2.75-2.39-.45.18-.94-.11-1.11-.64-.05-.15-.06-.3-.05-.45.73-8.65,16.03-6.68,13.87,4.76-.48,2.53-1.31,6.47-4.63,6.62l-5.06,2.8c-.22-.04-.11-2.8.26-8.08,0,0-.21-2.59-.53-2.62Z" style="fill: #071c2f;"/>
        <path d="m15.31,181.17s.05-.07.08-.08l3.68-1.7s.08-.03.09-.02c.06.1.1.22.11.38,0,0,0,0,0,.01,0,.04-.03.08-.06.09-1.37.44-2.77,1.19-4.15,1.76l.11-.48c0,.19.04.21.13.05Z" style="fill: #c2d9fe;"/>
        <path d="m14.9,183.74c.2-.12.34-.2.4-.23,2.16-.95,3.6-1.68,4.78-2.09.04-.01.08,0,.09.01.04.07.06.15.05.26,0,.04-.03.08-.07.1-1.88.84-3.76,1.7-5.65,2.55-.04.02-.07,0-.11,0,.02-.16.05-.3.09-.41.14-.04.28-.1.41-.18Z" style="fill: #bdd6ff;"/>
        <path d="m14.95,186.29s-.05,0-.06-.04c-.06-.22.09-.38.22-.43,1.91-.9,3.82-1.77,5.74-2.61.13-.06.21,0,.23.16,0,0,0,.02,0,.03,0,.09-.03.18-.08.2l-6.05,2.7Z" style="fill: #b3ceff;"/>
        <path d="m15.95,187.56c.2-.12.34-.2.4-.23,2.16-.95,3.6-1.68,4.78-2.09.04-.01.08,0,.09.01.04.07.06.15.05.26,0,.04-.03.08-.07.1-1.88.84-3.76,1.7-5.65,2.55-.04.02-.07,0-.11,0,.02-.16.05-.3.09-.41.14-.04.28-.1.41-.18Z" style="fill: #bdd6ff;"/>
        <path d="m16,190.1s-.05,0-.06-.04c-.06-.22.09-.38.22-.43,1.91-.9,3.82-1.77,5.74-2.61.13-.06.21,0,.23.16,0,0,0,.02,0,.03,0,.09-.03.18-.08.2l-6.05,2.7Z" style="fill: #b3ceff;"/>
      </g>
    </g>
  </g>
</svg>