<?xml version="1.0" encoding="UTF-8"?>
<svg id="a" data-name="Layer 1" xmlns="http://www.w3.org/2000/svg" viewBox="0 0 304.82 318.05">
  <path d="m89.03,21.47c.03-.12.09-.22.18-.3,34.13-27.56,82.6-26.42,120.09-6.91,11.88,6.18,22.93,14.57,32.9,23.9,12.47,11.66,23.07,24.54,31.81,38.64.82,1.33,1.54,2.22,1.82,3.83l-.36.02-81.13-16.3c-3.07-.72-6.15-1.4-9.24-2.03-13.42-2.74-26.96-5.49-40.61-8.26-.25-.05-.43-.27-.43-.53.09-5.99.85-12.5-3.29-17.69-2.01-2.55-4.65-4.15-7.92-4.8-12.2-2.42-26.85-5.41-43.95-8.98l.12-.58Z" style="fill: #d9eee7;"/>
  <path d="m47.97,13.77c13.64,2.78,27.29,5.54,40.93,8.28,17.1,3.56,31.75,6.55,43.95,8.98,3.27.65,5.91,2.25,7.92,4.8l-.11.13c-.06.07-.06.18,0,.26.19.24.22.49.09.74-.06.12-.19.18-.29.14-.62-.26-1.28-.37-1.96-.34-.08,0-.2-.07-.31-.19-1.87-2.03-3.98-3.39-6.32-4.07-3.92-1.14-9.5-1.96-13.04-2.68-14.18-2.91-28.36-5.83-42.54-8.78-6.49-1.35-13.31-2.64-19.95-4.07-2.79-.6-6.99-1.31-10.45-2.2-.1-.03-.17-.12-.17-.23,0-.24-.11-.43-.32-.57,1.09-.24,1.94-.3,2.55-.17Z" style="fill: #63a998;"/>
  <path d="m45.74,14.51c0,.11.07.21.17.23,3.46.89,7.66,1.6,10.45,2.2,6.64,1.43,13.46,2.73,19.95,4.07,14.18,2.95,28.35,5.87,42.54,8.78,3.54.72,9.13,1.54,13.04,2.68,2.34.68,4.45,2.04,6.32,4.07.11.12.23.19.31.19.68-.03,1.33.08,1.96.34.11.04.23-.02.29-.14.13-.25.09-.49-.09-.74-.06-.08-.07-.19,0-.26l.11-.13c4.15,5.19,3.38,11.7,3.29,17.69,0,.26.18.48.43.53,13.66,2.77,27.19,5.53,40.61,8.26,3.09.63,6.17,1.3,9.24,2.03l.19.69c.03.11.11.21.22.26,2.7,1.39,3.84,4.02,6.22,5.81,2.92,2.19,4.83,5.01,5.71,8.44.35,1.37.52,3.61.51,6.73-.02,4.79-.02,9.59.02,14.39l-6.03-1.24s-.02,0-.03,0c-.09,0-.17.07-.17.17-.12,6-.38,12.21.02,18.22,0,.16.06.29.13.35,1,.87.99,1.66-.05,2.37-.09.07-.15.2-.15.35l-.05,6.44.05,3.62v3.16s-.02,3.46-.02,3.46v5.81s.25,17.62.25,17.62c-.3,1.19-.3,2.35,0,3.47l-.18,19.63-.09,2.74c-.81,0-1.6-.12-2.37-.39-.06-35.43-.05-70.85.02-106.28.02-6.7-2.22-12.42-8.6-14.78-.66-.24-3.11-.8-7.35-1.68-29.67-6.11-59.34-12.16-89.02-18.17-2.87-.58-6.49-1.39-10.87-2.45l.28-.25c1.56-.6,3.29-.7,5.19-.3,6.96,1.46,21.43,4.39,43.41,8.78l1.9.61s.02,0,.03,0c.09,0,.16-.05.17-.14.49-5.44-3.91-9.63-8.97-10.74-1.37-.14-2.37-.71-3.76-.72-1.02-.01-2.19-.43-2.97-.57-1.37-.25-2.84-.65-4.06-.89-25.67-5.16-51.33-10.38-76.97-15.68-.07-.08-.1-.17-.08-.27.67-5.07,3.53-8.06,8.57-8.98.21.14.32.32.32.57Z" style="fill: #488975;"/>
  <path d="m2.52,116.49c-.39-1.39-.58-3.81-.58-7.26.01-26.57.01-53.14,0-79.71,0-7.5,4.7-12.36,12.42-10.86,7.32,1.42,14.62,2.91,21.91,4.46-.26.15-.4.38-.41.67,0,.13-.06.24-.13.27l-1.81.73c-.1.04-.17.12-.19.23-.28,1.35-1.34,1.5-2.02,2.23-.4.43-.75.88-1.06,1.38-.05.08-.14.17-.27.27l-1.66,1.27c-.09.07-.2.11-.32.13-1.04.16-2.03.49-2.96,1.01-2.47-.47-4.93-.95-7.4-1.44-4.73-.95-6.38.67-6.42,5.33-.1,11.31-.11,18.5-.03,21.59.09,3.51,2.19,5.53,5.47,6.19,6.7,1.37,13.39,2.74,20.08,4.1.02.6-.15.74-.51.44-.42-.35-.71-.34-1.21-.16-.01,0-.02.01-.03.02-.03.04-.02.1.01.13.1.09.06.17-.13.25-.86.33-1.43.87-1.72,1.61-.04.09-.12.18-.24.23-.11.05-.21.14-.23.26-.24,1.1-.88,1.87-1.92,2.3-.11.05-.2.13-.25.24-.63,1.4-2.07,2.6-2.43,3.7-.35,1.09.17,1.85,1.56,2.28-.18,1.89,1.34,1.98,2.66,2.34-.18-.02-.29.06-.31.25-.22.21-.34.2-.34-.03,0-.12-.06-.23-.15-.27-.28-.12-.41-.1-.41.06,0,.02,0,.04,0,.06-.01.1-.06.17-.11.15l-.67-.28c-.15-.06-.2,0-.14.2.14.51-.13.77-.81.79-.14,0-.25.05-.31.14-1.67,2.2,1.12,2.29,1.08,4.09,0,.16-.06.3-.15.35-.32.16-.55.4-.69.73-.04.09-.1.15-.16.15-.28-.01-.5.1-.65.35-.07.11-.18.19-.29.2-.39.06-.73-.05-1-.3-.12-.12-.24-.18-.31-.17l-1.19.2c-.05,0-.13.13-.18.31-.21.63-.51.71-.9.22-.07-.08-.18-.12-.31-.11-.28.03-.55-.02-.82-.13-.15-.06-.3-.04-.38.06l-.74.86c-.08.09-.23.09-.35,0-.47-.33-.95-.33-1.45,0,0,0-.01,0-.02.01-.11.06-.25,0-.32-.11-.13-.24-.24-.25-.35-.04-.08.17-.19.28-.28.29-.46.07-.85.28-1.15.63-.05.06-.19.06-.34.02-.62-.18-1.03,0-1.24.55-3.63-.63-5.47.83-5.53,4.38-.13,7.41-.16,14.82-.12,22.23.02,3.05,1.37,5.22,4.05,6.53l-3.27,2.18c-5.27-1.25-8.55-4.18-9.84-8.78Z" style="fill: #ff6a47;"/>
  <path d="m36.93,23.19c25.64,5.29,51.3,10.52,76.97,15.68,1.21.25,2.69.64,4.06.89.78.15,1.95.56,2.97.57,1.39.02,2.39.58,3.76.72,2.36,1.4,4.33,3.41,5.91,6.01.86,1.42,1.18,2.84.96,4.25-21.97-4.39-36.44-7.32-43.41-8.78-1.9-.4-3.63-.3-5.19.3-.8.08-1.77,0-2.9-.23-18.21-3.76-36.42-7.53-54.63-11.31.93-.51,1.91-.85,2.96-1.01.12-.02.23-.06.32-.13l1.66-1.27c.13-.1.22-.19.27-.27.31-.49.67-.95,1.06-1.38.68-.73,1.75-.87,2.02-2.23.02-.1.09-.19.19-.23l1.81-.73c.07-.03.13-.14.13-.27.02-.29.15-.52.41-.67l.66.06Z" style="fill: #ff834e;"/>
  <path d="m17.04,62.97c-3.27-.67-5.38-2.68-5.47-6.19-.08-3.09-.07-10.28.03-21.59.04-4.66,1.68-6.29,6.42-5.33,2.47.5,4.93.98,7.4,1.44,18.21,3.79,36.42,7.56,54.63,11.31,1.13.23,2.1.31,2.9.23l-.28.25c-4.2,1.04-6.84,3.36-7.93,6.96-.37,1.23-.56,3.73-.55,7.49,0,5.69,0,11.38-.02,17.07l-37.05-7.53c-6.69-1.37-13.39-2.73-20.08-4.1Zm4.24-15.15c-.18.88.39,1.75,1.28,1.93l23.96,4.87s0,0,0,0c.88.18,1.75-.39,1.93-1.28v-.05c.19-.88-.38-1.75-1.26-1.93l-23.96-4.87s0,0,0,0c-.88-.18-1.75.39-1.93,1.28v.05Zm41.95,7.05c-.26-1.27-.36-2.56-.29-3.85.09-1.72-1.26-2.46-2.57-1.27-2.06,1.88-4.14,3.73-6.25,5.54-.28.24-.33.64-.13.93l6.84,9.59s.04.05.06.07c.21.2.55.18.76-.04l6.76-6.91c.46-.47.51-.94.17-1.43-.73-1.04-1.56-1.98-2.5-2.8-.16-.14-.41-.16-.61-.05-.65.35-1.33.52-2.06.51-.07,0-.15-.12-.18-.29Zm-30.73,1.54c-.18.87.37,1.72,1.24,1.9l12.94,2.73h0c.87.18,1.72-.37,1.9-1.24l.02-.07c.18-.87-.37-1.72-1.24-1.9l-12.94-2.73h0c-.87-.18-1.72.37-1.9,1.24l-.02.07Z" style="fill: #fefefe;"/>
  <path d="m133.66,51.79s0,.02,0,.03c-.03.08-.11.13-.19.11l-1.9-.61c.22-1.41-.1-2.83-.96-4.25-1.58-2.61-3.55-4.61-5.91-6.01,5.06,1.11,9.46,5.3,8.97,10.74Z" style="fill: #fed794;"/>
  <path d="m93.55,45.53c29.68,6.01,59.36,12.07,89.02,18.17,4.24.87,6.69,1.43,7.35,1.68,6.38,2.37,8.61,8.08,8.6,14.78-.07,35.43-.08,70.85-.02,106.28l-13.13-2.62c.02-28.42.02-56.75.02-85.01,0-3.52-1.33-6.22-5-6.97-29.3-5.98-58.6-11.94-87.91-17.9-4.8-.98-5.36,2.37-5.37,6.21-.06,24.68-.02,49.37-.06,74.05,0,.47-.01.94-.04,1.41-4.15-1.33-8.45-1.33-12.88.01.18-.67.22-1.34.13-1.99l-.07-27.93v-8.1s.03-11.38.03-11.38l-.06-4.75-.06-8.96.04-4.23.03-5.39v-8.3c.02-5.69.02-11.38.02-17.07,0-3.76.18-6.26.55-7.49,1.09-3.6,3.73-5.92,7.93-6.96,4.38,1.05,8,1.87,10.87,2.45Zm51.88,25.65h0c-.17.86.38,1.7,1.25,1.88l47.08,9.49h0c.86.17,1.7-.38,1.88-1.25v-.03s0,0,0,0c.17-.86-.38-1.7-1.25-1.88l-47.08-9.49h0c-.86-.17-1.7.38-1.88,1.25v.03Z" style="fill: #393b40;"/>
  <rect x="33.2" y="36.7" width="3.32" height="27.71" rx="1.63" ry="1.63" transform="translate(-21.63 74.64) rotate(-78.5)" style="fill: #c0d7da;"/>
  <rect x="38.91" y="49.84" width="3.29" height="16.44" rx="1.61" ry="1.61" transform="translate(-24.62 85.78) rotate(-78.1)" style="fill: #c0d7da;"/>
  <path d="m275.47,80.64c.1.5-.03.9-.39,1.21l-20.73-4.35c-8.52-1.8-17.07-3.4-25.6-5.19-6.93-1.45-13.87-2.82-20.83-4.12-.53-.1-1.18-.16-1.96-.19,0,0,0,0,0,0-.11,0-.2.08-.2.18,0,.26.06.44.19.56,5.19,4.67,8.69,9.82,8.7,17.15,0,5.01,0,9.97,0,14.89,0,.15.03.29.09.42.31.68.37,1.03.18,1.05l-.36-.02-7.33-1.57c-.04-4.81-.04-9.6-.02-14.39.01-3.12-.16-5.36-.51-6.73-.88-3.44-2.79-6.25-5.71-8.44-2.38-1.78-3.52-4.42-6.22-5.81-.11-.06-.19-.15-.22-.26l-.19-.69,81.13,16.3Z" style="fill: #ad9d19;"/>
  <path d="m74.17,74.6v8.3c-1.57.06-2.52.81-2.58,2.46-.21,5.21-.13,10.42-.23,15.64l-54.14-11.03c.21-.55.63-.73,1.24-.55.15.05.29.04.34-.02.31-.35.69-.56,1.15-.63.09-.02.2-.13.28-.29.1-.21.22-.2.35.04,0,0,0,.01.01.02.07.11.22.15.32.08.5-.34.98-.34,1.45,0,.13.09.28.09.35,0l.74-.86c.08-.09.24-.12.38-.06.26.11.54.15.82.13.13,0,.24.03.31.11.39.49.7.41.9-.22.06-.17.13-.3.18-.31l1.19-.2c.07-.01.19.05.31.17.27.26.6.36,1,.3.12-.02.22-.09.29-.2.15-.25.37-.36.65-.35.06,0,.12-.06.16-.15.14-.33.37-.57.69-.73.09-.05.15-.18.15-.35.03-1.8-2.75-1.9-1.08-4.09.06-.08.18-.13.31-.14.68-.02.95-.28.81-.79-.05-.19,0-.26.14-.2l.67.28s.02,0,.03,0c.05-.01.08-.11.08-.21,0-.17.14-.19.41-.06.09.04.15.15.15.27,0,.23.12.24.34.03.02-.19.12-.28.31-.25,10.12,2.02,20.25,4.05,30.37,6.08,1.38.28,2.95.7,3.09-1.12.06-.73-.26-1.24-.94-1.51-.67-.27-1.35-.47-2.05-.61-10.33-2.11-20.66-4.19-31-6.25-1.18-.23-1.89.12-2.12,1.08-1.39-.43-1.91-1.19-1.56-2.28.35-1.1,1.8-2.31,2.43-3.7.05-.1.14-.19.25-.24,1.04-.43,1.68-1.2,1.92-2.3.03-.13.12-.22.23-.26.12-.05.2-.14.24-.23.29-.75.86-1.29,1.72-1.61.19-.07.23-.15.13-.25,0,0-.02-.02-.02-.03-.02-.05,0-.1.04-.12.49-.17.79-.19,1.21.16.36.3.53.16.51-.44l37.05,7.53Zm-8.36,16.3c-.28-.43-.75-.71-1.41-.86-6.19-1.35-12.28-2.6-18.26-3.76-1.29-.25-2.78-.67-2.68,1.36.08,1.53,1.22,1.67,2.52,1.93,5.89,1.2,12.14,2.44,18.75,3.72.26.05.53,0,.73-.16.8-.62.92-1.36.36-2.23Z" style="fill: #ff834e;"/>
  <rect x="168.92" y="50.63" width="3.21" height="51.21" rx="1.59" ry="1.59" transform="translate(62.09 228.33) rotate(-78.6)" style="fill: #1c162e;"/>
  <path d="m87.05,154.21c.05-24.68,0-49.37.06-74.05,0-3.84.57-7.19,5.37-6.21,29.3,5.96,58.61,11.93,87.91,17.9,3.67.75,5,3.45,5,6.97,0,28.26,0,56.59-.02,85.01l-38.73-7.67c-.41-.08-.8-.03-1.16.17-.79.42-1.01,1.03-.66,1.82.48,1.07,1.98,1.43,3.02,1.63,10.56,2.02,21.11,4.11,31.65,6.26,1.64.34,4,.63,5.93,1.13-.05,14.39-.07,28.77-.05,43.15,0,4.79-3.52,4.84-7.26,4.08-7.14-1.45-14.27-2.91-21.41-4.37.46-1.93.35-3.8-.34-5.62-.34-.89-.22-1.58-.14-2.47,0-.1-.06-.2-.16-.24-.28-.1-.22-.21.18-.32,11.52,2.25,18.33,3.62,20.44,4.09,1.21.27,2.22.27,2.54-1.15.49-2.14-4.39-2.59-7.04-3.12-10.29-2.07-20.57-4.19-30.84-6.35l-.09-3.18c11.6,2.44,23.22,4.83,34.84,7.17,1.55.31,3.21.35,2.78-1.84-.02-.12-.08-.23-.17-.32-.58-.59-1.08-.93-1.51-1.01-12.96-2.64-25.92-5.3-38.87-7.98.33-1.01.39-2.04.19-3.08,12.79,2.64,25.58,5.25,38.39,7.81,1.51.3,2.2-.3,2.09-1.8,0-.12-.06-.24-.14-.33-.95-1.1-1.87-1.17-3.22-1.45-10.26-2.12-20.53-4.23-30.81-6.33.11-.56.02-1.02-.26-1.38-.33-.42-.51-.64-.51-.65-1.3-2.28-2.25-4.72-2.84-7.3,5.96,1.07,11.29,2.12,15.97,3.15,2.74.61,2.8-2.7.09-3.31-2.86-.64-5.71-1.25-8.54-1.83-.44-1.85-1.3-3.79-2.58-5.81-1.73-2.72-3.15-6.73-5.3-9.65-3.27-4.46-5.75-7.33-8.15-10.32-1.24-1.55-2.55-2.7-3.84-4.1-1.21-1.32-2.66-2.21-4.05-3.34-1.04-.85-2.03-1.56-2.96-2.13-1.42-.88-2.63-1.77-4.22-2.4-2.22-.89-4.49-2.18-6.62-2.72-5.31-1.34-10.52-.87-15.6,1.43-.35.16-.7.46-1.04.89-.07.09-.18.15-.3.16h-.09c-.08,0-.15.03-.18.05-1.33.98-2.5,2.14-3.5,3.46-1.06-.47-2.16-.82-3.3-1.05.03-.47.04-.94.04-1.41Zm52.61-53.26c-2.07-.34-3.38-2.38-5.55-2.99-4.48-1.25-6.33,2.35-5.78,6.17.02.12,0,.24-.07.35-2.29,3.86-2.62,7.89-1,12.1.52,3.14-.45,6.32,2.87,8.38.13.08.22.18.22.28l.05.49c-.22,1.36-.56,2.6-1.01,3.72-10.09-.88-16.59,5.27-18.57,14.69-.02.08.03.15.11.17l50.3,10.17c3.95,1.07,8.33,2.27,8.52-3.49.59-17.47-6.92-34.68-21.99-44.12-1.76-3.35-4.46-5.32-8.11-5.92Z" style="fill: #fff;"/>
  <path d="m32.15,77.3c10.34,2.06,20.67,4.14,31,6.25.7.14,1.38.35,2.05.61.68.27,1,.78.94,1.51-.14,1.82-1.71,1.4-3.09,1.12-10.12-2.03-20.25-4.05-30.37-6.08-1.32-.36-2.83-.45-2.66-2.34.23-.95.94-1.31,2.12-1.08Z" style="fill: #bce1d3;"/>
  <path d="m286.51,88.71c2.71,5.61,1.85,12.14,1.9,18.06l.08,46.41v21.13c-.02,14.62-.02,29.24-.01,43.86,0,5.49-1.19,9.94-6.4,12.64.15-.75.44-1.44.85-2.07,1.4-2.09,2.24-3.79,2.31-6.35.17-6.34.17-13.47.02-21.39v-77.15c.02-8.07.03-16.14.01-24.22,0-3.54-.21-6.04-.6-7.5-1.12-4.23-4.83-9.5-9.59-10.27.36-.31.5-.71.39-1.21l.36-.02c4.94.9,8.5,3.6,10.68,8.08Z" style="fill: #ad9d19;"/>
  <path d="m74.15,88.29l-.04,4.23.06,8.96c-.97-.01-1.9-.17-2.81-.49.11-5.21.03-10.43.23-15.64.06-1.64,1.01-2.4,2.58-2.46l-.03,5.39Z" style="fill: #ccddd4;"/>
  <path d="m78.21,87.25c2.97-2.34,5.98,1.03,6.25,3.92.32,3.52-3.15,5.65-5.88,3.02-.59-.57-1.06-1.23-1.42-1.99-.15-1.12-.14-2.22.03-3.32.24-.73.58-1.27,1.02-1.62Z" style="fill: #e97f38;"/>
  <path d="m64.72,93.3c-6.6-1.29-12.85-2.53-18.75-3.72-1.3-.26-2.44-.4-2.52-1.93-.1-2.03,1.4-1.61,2.68-1.36,5.98,1.16,12.06,2.41,18.26,3.76.67.15,1.14.43,1.41.86.56.87.44,1.61-.36,2.23-.2.15-.47.21-.73.16Z" style="fill: #bce1d3;"/>
  <path d="m11.57,116.57c-.05-7.41,0-14.82.12-22.23.06-3.55,1.91-5.01,5.53-4.38l54.14,11.03c.91.31,1.85.47,2.81.49l.06,4.75c-.15.28-.39.37-.7.27-.63-.69-1.44-1.3-2.44-1.81-5.38-2.79-11.39-4.76-17.45-4.39-6.82.42-13.03,2.73-18.61,6.92-.84.63-1.56,1.39-2.15,2.26l-.28.12c-3.05-.69-6.76-1.44-11.13-2.27-2.51-.48-2.28,2.83.19,3.4,3.88.89,6.86,1.52,8.96,1.9-1.72,2.87-2.91,5.97-3.57,9.3-.02.1-.12.17-.23.17-4.28-.41-7.23-.61-11.2,1-2.68-1.31-4.03-3.48-4.05-6.53Z" style="fill: #fcf6d9;"/>
  <path d="m134.27,106.67c.06-.11.09-.23.07-.35-.55-3.82,1.3-7.42,5.78-6.17,2.17.61,3.47,2.65,5.55,2.99,3.64.6,6.35,2.57,8.11,5.92.52,1.8,1.15,3.15,1.15,5.29,0,4.13-3.15,11.08-7.03,13.01l-.19-.38c-.39-1.87-.64-3.75-.74-5.66-.02-.44.16-.75.54-.95,2.56-1.34,1.11-5.99-1.83-4.25.17-2.11.24-3.9-2.02-4.58-.12-.03-.24-.02-.36.03-3.22,1.53-6.19,1.84-8.58-1.26,0,0,0,0,0-.01-.07-.07-.18-.08-.25-.01-1.32,1.25-1.15,7.04-1.19,8.49-1.62-4.21-1.29-8.24,1-12.1Z" style="fill: #180942;"/>
  <path d="m35.03,107.22c5.58-4.2,11.79-6.51,18.61-6.92,6.06-.37,12.07,1.6,17.45,4.39.99.51,3.14,1.54,3.14,1.54l-.03,11.38-1.95-.77c-.03.1-.12.2-.25.26-1.43.65-2.73,1.49-3.92,2.51-.49.42-.55.84-.18,1.26l4.81,5.48c.07.08.2.09.29.02.35-.3.76-.52,1.2-.66l.07,27.93-.11-.32c-.03-.1-.13-.16-.23-.14-.3.05-.59.03-.86-.05-.98-.29-1.75-.3-2.75-.14-.12.02-.25,0-.36-.06-.89-.43-1.95-.42-2.64-.56-14.93-3.04-29.85-6.11-44.76-9.19-5.49-1.14-9.88-2.3-12.31-2.75-.6-.11-1.05.17-1.34.86-1.03-5.69-.33-11.6,3.44-16.01l3.27-2.18c3.97-1.61,6.92-1.41,11.2-1,.11,0,.2-.06.23-.17.66-3.33,1.85-6.43,3.57-9.3l.08-.02c.27.29.59.47.96.54,9.4,1.87,18.79,3.78,28.18,5.75,1.51.32,3.09.37,2.87-1.72-.08-.72-.47-1.17-1.17-1.34-9.24-2.24-18.68-3.94-27.99-5.86-.17-.04-.39-.2-.66-.51.59-.88,1.31-1.63,2.15-2.26Zm27.86,15.98c-.07-.09-.18-.16-.3-.2-1.47-.48-3.13-.9-4.98-1.28-3.29-.67-11.22-2.3-23.77-4.9-.7-.15-1.31-.17-1.82-.08-.12.02-.22.09-.28.2-.98,1.69-.47,2.77,1.51,3.22,7.02,1.6,16.2,3.51,27.54,5.74.5.1.96.13,1.36.08,1.52-.16,1.48-1.83.74-2.79Zm9.49,8.98c-8.92-1.85-17.81-3.69-26.67-5.52-.8-.17-1.61-.28-2.43-.35-.14-.01-.16.04-.08.14.77.94,8.99,2.57,10.14,2.82,6.3,1.4,12.59,2.81,18.88,4.23.78.18,1.11.02,1.01-.48-.1-.47-.38-.75-.85-.84Z" style="fill: #fed794;"/>
  <path d="m225.38,104.42c-.11.23-.08.43.08.6.08.09.12.2.09.3-.17.64-.22,1.29-.12,1.94.46,3.26.41,6.5.87,9.78.11.79.27,1.58.48,2.35l-12.43-2.64c.23-4.83.3-9.67.2-14.51l.36.02,10.47,2.17Z" style="fill: #dfe0e2;"/>
  <path d="m262.71,111.86c3.06.6,5.49,2.12,5.49,5.28,0,11.2,0,22.4,0,33.59,0,3.23-.93,6.04-4.8,5.26-4.75-.96-9.5-1.93-14.25-2.9l-21.81-4.33c-.02-.94.12-1.83.42-2.67.04-.12.04-.24.02-.36-.2-.81-.24-1.63-.12-2.46,10.28,1.96,20.54,4.01,30.78,6.15,1.71.35,3.81.29,2.69-2.27-.22-.49-.62-.8-1.21-.92l-38.4-7.78c-.2-1.11-.26-2.23-.19-3.37,12.52,2.6,25.04,5.12,37.59,7.59,3.89.76,3.07-2.73.26-3.31-9.21-1.9-18.44-3.77-27.67-5.61.1-1.4.14-2.79.11-4.15,0-.15-.07-.25-.19-.29-.11-.04-.18-.12-.18-.21v-5.26c2.45.45,4.88.92,7.31,1.41,1.34.28,3.45.61,2.95-1.56-.2-.86-.99-1.4-1.78-1.57-1.82-.41-6.14-1.32-12.94-2.73-.21-.77-.37-1.55-.48-2.35-.46-3.28-.41-6.52-.87-9.78-.09-.65-.05-1.3.12-1.94.03-.1,0-.21-.09-.3-.17-.17-.19-.37-.08-.6,12.44,2.49,24.89,4.97,37.33,7.44Z" style="fill: #fefefe;"/>
  <path d="m290.01,109.38c1.71,4.41,3.4,9.57,5.08,15.49,6.12,21.53,10.06,43.74,9.7,66.19-.59,36.52-13.43,70.7-47.02,88.83-29.54,15.95-65.36,10.53-95.15-1.43-13.56-5.45-27.01-12.36-40.34-20.74,3.9-2.89,7.88-5.68,11.93-8.35,17.59,3.61,35.18,7.21,52.77,10.78,1.38.28,3.01.03,4.88-.74,6.42-1.93,8.86-6.47,8.93-12.77.08-7.49.1-15.02.07-22.59,1.43.2,2.84.45,4.23.77,2.79.63,4.18.94,4.19.94,22.02,4.46,44.03,8.99,66.02,13.58,3.17.66,7.02,1.66,9.9,1.46,7.52-.5,11.48-7.12,11.55-14.08.18-18.16.19-36.33.02-54.5.11-.49.36-.99.75-1.51,3.57-5.8-1.67-12.91-6.21-16.33-.78-.76-1.72-1.17-2.81-1.21l-.08-46.41c.79,1.04,1.32,1.91,1.6,2.62Z" style="fill: #d9eee7;"/>
  <path d="m175.76,153.18c-.19,5.76-4.57,4.56-8.52,3.49-.7-10.64-6.41-19.2-16.85-22.41-1.89-1.47-2.32-4.9-2.5-6.91,3.88-1.93,7.02-8.87,7.03-13.01,0-2.14-.63-3.49-1.15-5.29,15.08,9.45,22.58,26.65,21.99,44.12Z" style="fill: #63a998;"/>
  <path d="m21.66,110.73c-2.47-.57-2.7-3.87-.19-3.4,4.37.83,8.08,1.59,11.13,2.27-.25.92-1.41,2.04-1.9,3l-.08.02c-2.1-.37-5.08-1.01-8.96-1.9Z" style="fill: #63a998;"/>
  <path d="m134.46,110.28s0,0,.01,0c.08-.06.19-.05.25.03,2.4,3.1,5.36,2.79,8.58,1.26.11-.05.24-.06.36-.03,2.26.68,2.19,2.47,2.02,4.58-.12,2.26-.31,4.52-.59,6.77-.14,1.11-.42,1.96-.85,2.55-1.94,2.72-4.53,1.91-7.38,1.72-.13,0-.25.05-.3.14-.1.19-.13.39-.08.62h-.06s-.05-.49-.05-.49c0-.09-.09-.2-.22-.28-3.32-2.07-2.36-5.25-2.87-8.38.04-1.46-.13-7.24,1.19-8.49Z" style="fill: #fcb195;"/>
  <path d="m33.53,109.99c9.31,1.92,18.75,3.61,27.99,5.86.7.17,1.1.62,1.17,1.34.23,2.09-1.36,2.03-2.87,1.72-9.38-1.97-18.78-3.88-28.18-5.75-.37-.08-.7-.26-.96-.54.49-.96,1.65-2.09,1.9-3l.28-.12c.26.3.48.47.66.51Z" style="fill: #fdcc89;"/>
  <path d="m147.5,120.36c-.38.2-.56.52-.54.95.1,1.91.35,3.8.74,5.66-3.93,1.75-6.02,4.14-10.76,1.9-.47-.22-.54-.45-.46-.95-.05-.23-.02-.44.08-.62.05-.1.17-.15.3-.14,2.84.19,5.44,1,7.38-1.72.43-.6.71-1.45.85-2.55.28-2.25.48-4.51.59-6.77,2.94-1.75,4.38,2.9,1.83,4.25Z" style="fill: #e97f38;"/>
  <path d="m74.2,117.61v8.1c-.46.14-.86.36-1.21.66-.09.07-.21.06-.29-.02l-4.81-5.48c-.37-.42-.31-.84.18-1.26,1.19-1.03,2.49-1.86,3.92-2.51.13-.06.22-.15.25-.26l.16-.55,1.79,1.32Z" style="fill: #fdcc89;"/>
  <path d="m60.8,125.9c-11.34-2.23-20.52-4.14-27.54-5.74-1.98-.45-2.48-1.53-1.51-3.22.06-.11.16-.18.28-.2.51-.1,1.12-.07,1.82.08,12.55,2.6,20.47,4.24,23.77,4.9,1.85.37,3.51.8,4.98,1.28.12.04.23.11.3.2.74.95.78,2.63-.74,2.79-.4.04-.86.02-1.36-.08Z" style="fill: #fdcc89;"/>
  <path d="m214.38,115.84c.2-4.53.26-9.07.17-13.6l-7.33-1.57-6.03-1.24c-.09-.02-.18.04-.2.13,0,0,0,.02,0,.03-.12,6-.38,12.21.02,18.22,0,.16.06.29.13.35,1,.87.99,1.66-.05,2.37-.09.07-.15.2-.15.35l-.05,6.44c2.45.37,4.87.9,7.25,1.59l6.04,1.27c-.08-3.09,0-6.15.22-14.34Zm-6.07,1.73v.03s0-.02,0-.03Z" style="fill: #b6b6b5;"/>
  <path d="m231.24,123.84v5.26c0,.09.07.17.18.21.12.04.19.13.19.29.03,1.37,0,2.75-.11,4.15l-10.84-2.16-6.5-1.4c-.09-3.29.01-6.55.31-9.79l16.77,3.44Z" style="fill: #dfe0e2;"/>
  <path d="m147.89,127.36c.18,2,.61,5.44,2.5,6.91-1.01,1.71-2.43,2.82-4.24,3.32-4.25,1.18-7.66.07-10.23-3.34-.59-.77-.76-1.64-.52-2.6.45-1.12.79-2.36,1.01-3.72h.06c-.08.5,0,.73.46.95,4.74,2.24,6.83-.15,10.76-1.9l.19.38Z" style="fill: #fcb195;"/>
  <path d="m72.22,133.49c-6.29-1.41-12.59-2.82-18.88-4.23-1.15-.25-9.36-1.88-10.14-2.82-.09-.1-.06-.15.08-.14.82.07,1.63.18,2.43.35,8.86,1.83,17.75,3.66,26.67,5.52.47.1.75.38.85.84.1.5-.23.66-1.01.48Z" style="fill: #fdcc89;"/>
  <path d="m208.12,128.91l6.04,1.27,6.5,1.4c-.03.06-.07.11-.13.15-.09.07-.14.18-.11.28.24.93.24,1.9,0,2.9l-19.51-3.97-.05-3.62c2.45.37,4.87.9,7.25,1.59Z" style="fill: #c0d7da;"/>
  <path d="m116.95,146.51c-.08-.02-.13-.09-.11-.17,1.98-9.42,8.48-15.57,18.57-14.69-.24.96-.07,1.83.52,2.6,2.57,3.4,5.98,4.51,10.23,3.34,1.81-.5,3.22-1.61,4.24-3.32,10.44,3.21,16.15,11.77,16.85,22.41l-50.3-10.17Z" style="fill: #dfe0e2;"/>
  <path d="m220.42,134.91l.9.16c-.08,1.13-.01,2.25.19,3.37l-20.6-4.34v-3.16s19.52,3.97,19.52,3.97Z" style="fill: #b6b6b5;"/>
  <path d="m231.5,133.74c9.24,1.84,18.46,3.71,27.67,5.61,2.81.58,3.63,4.07-.26,3.31-12.54-2.46-25.07-4.99-37.59-7.59l-.9-.16c.23-1,.23-1.97,0-2.9-.02-.1.02-.2.11-.28.06-.05.1-.1.13-.15l10.84,2.16Z" style="fill: #c0d7da;"/>
  <path d="m221.51,138.44l38.4,7.78c.59.12.99.43,1.21.92,1.13,2.56-.98,2.63-2.69,2.27-10.24-2.14-20.5-4.18-30.78-6.15l-13.38-2.7-13.38-3v-3.46s20.61,4.34,20.61,4.34Z" style="fill: #c0d7da;"/>
  <path d="m214.28,140.56c.08,1.82-.01,3.64-.28,5.47l-5.61-1.11-7.47-1.55v-5.81s13.37,3,13.37,3Z" style="fill: #b6b6b5;"/>
  <path d="m10.25,140.43c2.43.45,6.82,1.61,12.31,2.75,14.91,3.09,29.84,6.15,44.76,9.19.69.14,1.75.13,2.64.56.11.06.24.08.36.06,1-.15,1.77-.14,2.75.14.27.08.56.09.86.05.1-.01.2.05.23.14l.11.32c.09.65.05,1.32-.13,1.99-.18,10.77-.19,21.6-.04,32.49l-49.61-10.14c-.08-.01-.2,0-.34.06l-.41.14c-.38-.26-.73-.42-1.04-.48-3.91-.81-7.82-1.63-11.73-2.46-3.07-.65-5.65-2.27-7.75-4.85-6.11-7.5-3.41-20.12,7.34-21.01.01,0,.03,0,.04,0,.1-.03.16-.14.13-.24-.81-2.57-1.42-5.18-1.81-7.84.3-.68.74-.97,1.34-.86Z" style="fill: #fdcc89;"/>
  <path d="m227.66,143.27c-.12.83-.08,1.65.12,2.46.03.12.02.25-.02.36-.3.84-.44,1.73-.42,2.67l-11.09-2.19-2.25-.53c.27-1.83.37-3.66.28-5.47l13.38,2.7Z" style="fill: #dfe0e2;"/>
  <path d="m208.38,144.93c-.2,3.59-.25,7.11-.15,10.56,0,.03,0,.05,0,.08-.04.19-.22.32-.41.28l-5.42-.98c-.4-.07-.43,0-.09.25,1.85,1.29,3.79,2.43,5.81,3.42.1.05.17.16.2.29.03.13.09.23.18.31l-.06,2.74c0,.12-.07.22-.17.26l-.23.11-6.87-1.24-.25-17.62,7.47,1.55Z" style="fill: #ad9d19;"/>
  <path d="m213.99,146.03l2.25.53c-.22,3.58-.25,7.16-.11,10.74-2.32-.44-4.93-1.2-7.29-1.09-.11,0-.2.08-.22.19-.17.86-.17,1.7-.02,2.51l-.11.2c-.1-.08-.16-.18-.18-.31-.03-.13-.1-.24-.2-.29-2.02-.99-3.96-2.13-5.81-3.42-.34-.24-.31-.32.09-.25l5.42.98s.05,0,.08,0c.2,0,.35-.17.34-.36-.1-3.45-.05-6.97.15-10.56l5.61,1.11Z" style="fill: #ad9d19;"/>
  <path d="m205.76,68.19c0,.26.06.44.19.56,5.19,4.67,8.69,9.82,8.7,17.15,0,5.01,0,9.97,0,14.89,0,.15.03.29.09.42.31.68.37,1.03.18,1.05l10.47,2.17c12.44,2.49,24.89,4.97,37.33,7.44,3.06.6,5.49,2.12,5.49,5.28,0,11.2,0,22.4,0,33.59,0,3.23-.93,6.04-4.8,5.26-4.75-.96-9.5-1.93-14.25-2.9l-21.81-4.33-11.09-2.19c-.22,3.58-.25,7.16-.11,10.74l.09.09c7.01,1.41,14.02,2.83,21.03,4.26,1.08.22,2.21.44,2.64,1.55.31.8.08,1.43-.69,1.88-.37.22-.77.29-1.19.2l-22.07-4.49c-2.49-.47-4.93-1.09-7.34-1.87l-.11.2-.06,2.74c0,.12-.07.22-.17.26l-.23.11.49.27c2.54.36,5.06.87,7.55,1.51,6.65,1.16,14.03,2.63,22.15,4.43.91.2,1.63.46,1.78,1.49.3,2.13-1.34,2-2.82,1.71-7.02-1.39-14.03-2.8-21.03-4.24l-7.45-1.51-.38.12-.08,3.66c2.51,1.37,4.68,2.93,7.45,3.77.86.26.46,1.09.46,1.62,0,3.95,0,7.9,0,11.86,16.42,3.09,32.82,6.31,49.19,9.67.54.11.94.25,1.21.41,1.24.76,1.4,3.04-.11,3.43-.41.11-1.1.06-2.07-.14-15.75-3.16-31.51-6.28-47.28-9.36-.81.89-1.18,1.94-1.11,3.15.05.76.08,1.16.08,1.18.05,8.36,0,16.72-.12,25.08,19.27,3.65,38.54,7.72,57.79,11.63,3.1.63,5.62.15,8.36-1.18.15-.75.44-1.44.85-2.07,1.4-2.09,2.24-3.79,2.31-6.35.17-6.34.17-13.47.02-21.39v-77.15c.02-8.07.03-16.14.01-24.22,0-3.54-.21-6.04-.6-7.5-1.12-4.23-4.83-9.5-9.59-10.27l-20.73-4.35c-8.52-1.8-17.07-3.4-25.6-5.19-6.93-1.45-13.87-2.82-20.83-4.12-.53-.1-1.18-.16-1.96-.19-.11,0-.2.07-.2.18,0,0,0,0,0,0Zm79.13,57.34s-.05,0-.08,0c0,0,0,0,0,0,.03,0,.06,0,.08,0Zm.07-.02s-.01.01-.03.02c.02,0,.02-.01.03-.02Zm-.3,77.31s.04-.03.05-.05c-.02.02-.03.04-.05.05Zm-.13.02s.05.01.08,0c0,0-.02.01-.03.01-.02,0-.04,0-.05-.02Zm-39.31-46.06s0,.05-.01.07c0-.02,0-.05.01-.07Zm.11-.08s-.04.03-.06.04c.02-.01.03-.03.05-.04,0,0,0,0,0,0Z" style="fill: #c9be68;"/>
  <path d="m93.81,153.22s.1-.04.18-.05h.09c.12-.01.23-.07.3-.16.34-.43.68-.73,1.04-.89,5.09-2.3,10.29-2.77,15.6-1.43,2.13.54,4.4,1.83,6.62,2.72,1.58.63,2.8,1.52,4.22,2.4.93.57,1.91,1.28,2.96,2.13,1.38,1.13,2.83,2.01,4.05,3.34,1.29,1.41,2.59,2.55,3.84,4.1,2.4,2.99,4.87,5.86,8.15,10.32,2.15,2.93,3.57,6.94,5.3,9.65,1.29,2.02,2.15,3.96,2.58,5.81l-13.87-2.89c-.27-1.4-.79-2.68-1.55-3.84-.46-.7-.8-1.33-1.02-1.91-.76-1.98-1.77-4-3.02-6.06-1.98-3.24-4.11-6.16-6.39-8.75-.45-.52-.99-.92-1.61-1.2-6.84-3.15-14.05-4.6-21.63-4.36-2.93-2.08-6.03-3.9-9.33-5.47,1-1.32,2.16-2.47,3.5-3.46Z" style="fill: #c9be68; opacity: .7;"/>
  <path d="m291.3,154.38l-.53,1.14c-.04.09-.01.22.08.32,3.69,4.2,6.09,8.07,6,13.92,0,.45.21.76.66.95-.39.52-.64,1.02-.75,1.51-2.68,2.03-4.98,2.32-8.27,2.08v-21.13c1.09.04,2.03.45,2.81,1.21Z" style="fill: #fdcc89;"/>
  <path d="m297.51,170.71c-.44-.19-.66-.5-.66-.95.08-5.85-2.32-9.72-6-13.92-.09-.11-.13-.23-.08-.32l.53-1.14c4.54,3.42,9.78,10.53,6.21,16.33Z" style="fill: #fed794;"/>
  <path d="m87.02,155.62c-.04,12.02-.02,24.03.07,36.05,0,.44.17.72.49.84-.23,1.71-.24,3.39-.04,5.05-.77,2.83-.71,5.65.19,8.44l-2.41.72.15-.41s0,0,0,0c.04-.12,0-.24-.11-.28-.41-.15-.58-.45-.51-.89.02-.1-.03-.22-.12-.33-2.37-2.65-4.79-5.56-7.49-7.86-.9-.76-1.36-1.71-2.58-2.22-.09-.04-.17-.13-.22-.25-.08-.2-.19-.14-.32.19v-6.56c-.16-10.89-.15-21.71.03-32.49,4.43-1.34,8.73-1.34,12.88-.01Z" style="fill: #d0a579;"/>
  <path d="m90.32,156.67c3.29,1.57,6.4,3.4,9.33,5.47,7.41,6.01,12.58,13.52,15.52,22.52.04.12.11.22.2.3,1.29,1.07,2.89,2.03,3.99,3.12,3.07,3.03,5.44,6.52,7.1,10.49l1.34,4.21.34,2.65.02,3.47-.28,2.92c-.33,1.18-.84,2.27-1.52,3.29-3.17,3.33-8.13,3.72-12.53,3.6-3.36-4.99-5.81-8.91-12.41-9.53-1.04-.91-1.78-1.95-2.2-3.11,0-.01,0-.02,0-.03-.01-.09.05-.17.13-.18,1.89-.29,3.6.37,3.54-2.43-.09-4.05-.31-7.24-.65-9.56.27-.37.74-.61,1.41-.71.69-.11,1.09-.52,1.2-1.25.48-2.98-.78-4.27-3.77-3.87-.15.02-.27,0-.35-.06-4.95-3.73-11.54-1.49-13.14,4.53-.33-.12-.49-.4-.49-.84-.09-12.02-.11-24.03-.07-36.05,1.14.23,2.24.58,3.3,1.05Z" style="fill: #fed794;"/>
  <path d="m208.62,156.41c.02-.11.11-.19.22-.19,2.36-.11,4.96.65,7.29,1.09l.09.09c-.29.08-.18,2.44-.28,3.4-2.49-.47-4.93-1.09-7.34-1.87-.16-.82-.15-1.65.02-2.51Z" style="fill: #1c162e;"/>
  <path d="m237.26,161.65c1.08.22,2.21.44,2.64,1.55.31.8.08,1.43-.69,1.88-.37.22-.77.29-1.19.2l-22.07-4.49c.11-.95,0-3.32.28-3.4,7.01,1.41,14.02,2.83,21.03,4.26Z" style="fill: #393b40;"/>
  <path d="m208.02,162.24l.49.27c-.13,1.14-.07,2.26.17,3.38l-.38.12-7.16-1.54c-.3-1.12-.3-2.28,0-3.47l6.87,1.24Z" style="fill: #1c162e;"/>
  <path d="m121.27,166.5c.62.29,1.16.69,1.61,1.2,2.27,2.59,4.4,5.5,6.39,8.75,1.25,2.05,2.26,4.07,3.02,6.06.22.58.56,1.22,1.02,1.91.76,1.16,1.28,2.45,1.55,3.84-3.48-.71-6.92-1.4-10.31-2.08-.88-.18-1.75-.21-2.61-.09-.12.01-.23.08-.3.18-1.61,2.24.42,2.8,2.14,3.15,5.86,1.2,11.67,2.44,17.43,3.72.59,2.59,1.53,5.02,2.84,7.3,0,.01.18.23.51.65.28.36.37.82.26,1.38l-18.37-3.91c-1.66-3.97-4.03-7.47-7.1-10.49-1.11-1.09-2.7-2.05-3.99-3.12-.09-.08-.16-.18-.2-.3-2.94-9-8.11-16.51-15.52-22.52,7.58-.24,14.79,1.21,21.63,4.36Z" style="fill: #c9be68;"/>
  <path d="m216.05,164.01l.08,3.38-7.45-1.51c-.24-1.12-.3-2.24-.17-3.38,2.54.36,5.06.87,7.55,1.51Z" style="fill: #1c162e;"/>
  <path d="m238.2,168.44c.91.2,1.63.46,1.78,1.49.3,2.13-1.34,2-2.82,1.71-7.02-1.39-14.03-2.8-21.03-4.24l-.08-3.38c6.65,1.16,14.03,2.63,22.15,4.43Z" style="fill: #393b40;"/>
  <path d="m208.31,166.01l-.08,3.66-.11,15.74-7.15-1.31.18-19.63,7.16,1.54Z" style="fill: #ad9d19;"/>
  <path d="m215.68,173.44c.86.26.46,1.09.46,1.62,0,3.95,0,7.9,0,11.86l-7.91-1.4-.11-.11.11-15.74c2.51,1.37,4.68,2.93,7.45,3.77Z" style="fill: #ad9d19;"/>
  <path d="m296.75,226.71c-.07,6.96-4.03,13.57-11.55,14.08-2.88.19-6.73-.8-9.9-1.46-21.99-4.59-44-9.11-66.02-13.58,0,0-1.4-.31-4.19-.94-1.39-.31-2.8-.57-4.23-.77l.11-6.55,6.95,1.32,8.01,1.53c19.27,3.65,38.54,7.72,57.79,11.63,3.1.63,5.62.15,8.36-1.18,5.21-2.69,6.41-7.15,6.4-12.64-.01-14.62,0-29.24.01-43.86,3.29.24,5.59-.05,8.27-2.08.17,18.17.17,36.33-.02,54.5Z" style="fill: #fdcc89;"/>
  <path d="m179.5,186.03c-10.54-2.15-21.09-4.24-31.65-6.26-1.04-.2-2.54-.56-3.02-1.63-.35-.79-.13-1.4.66-1.82.36-.19.75-.25,1.16-.17l38.73,7.67,13.13,2.62c.77.27,1.56.4,2.37.39l7.81,1.49c1.49.11,2.73.68,3.73,1.71.11,3.11-2.7,1.93-4.38,1.69l-7.13-1.41-2.3-.45-13.16-2.71c-1.94-.5-4.29-.8-5.93-1.13Z" style="fill: #1c162e;"/>
  <path d="m24.14,178.04c.14-.05.27-.07.34-.06l49.61,10.14v6.56s-.03,22.93-.03,22.93c-2.56-2.13-4.13-3.42-4.72-3.87-13.61-10.46-27.19-20.96-40.74-31.5-1.67-1.3-3.3-2.65-4.88-4.06l.41-.14Z" style="fill: #d9eee7;"/>
  <path d="m208.12,185.41l.11.11.28.77c.05.13.06.26.05.35-.11.57-.06,1.13.13,1.69l-7.81-1.49.09-2.74,7.15,1.31Z" style="fill: #b0c7fc;"/>
  <path d="m216.13,186.92c16.42,3.09,32.82,6.31,49.19,9.67.54.11.94.25,1.21.41,1.24.76,1.4,3.04-.11,3.43-.41.11-1.1.06-2.07-.14-15.75-3.16-31.51-6.28-47.28-9.36l-4.67-.89c-1-1.03-2.24-1.6-3.73-1.71-.19-.55-.24-1.12-.13-1.69.02-.1,0-.22-.05-.35l-.28-.77,7.91,1.4Z" style="fill: #fefefe;"/>
  <path d="m123.78,189.42c-1.72-.35-3.75-.92-2.14-3.15.07-.1.18-.16.3-.18.86-.11,1.73-.08,2.61.09,3.4.68,6.83,1.38,10.31,2.08l13.87,2.89c2.83.59,5.67,1.2,8.54,1.83,2.72.6,2.66,3.92-.09,3.31-4.69-1.04-10.01-2.09-15.97-3.15-5.76-1.28-11.57-2.52-17.43-3.72Z" style="fill: #fff;"/>
  <path d="m100.72,187.98c.08.06.2.08.35.06,2.99-.39,4.24.9,3.77,3.87-.12.73-.52,1.15-1.2,1.25-.67.1-1.15.34-1.41.71-1.25.75-2.23,1.65-2.94,2.7-.07.1-.1.22-.11.34-.02.66-.01,2.66-.78,2.18-.11-.07-.19-.18-.23-.32l-.66-2.34s-.02-.07-.04-.1c-.11-.19-.36-.25-.55-.14-1.42.85-.9,2.26-.33,3.47.05.11.06.24.02.35-.4,1.15-.68,2.32-.85,3.52-.46,3.26-3.92,2.56-5.79,1.11l-2.41-7.1c-.2-1.66-.19-3.34.04-5.05,1.6-6.02,8.19-8.26,13.14-4.53Z" style="fill: #180942;"/>
  <path d="m198.59,189.87c-.07.98-.1,2.48-.1,4.51,0,17.98,0,35.97-.02,53.95,0,2.21-.46,4.32-1.38,6.33-.97,2.12-2.71,3.69-5.23,4.74-1.87.77-3.5,1.02-4.88.74-17.59-3.57-35.18-7.16-52.77-10.78-.29-.31,3.61-2.67,4.04-2.97,1.04-.71,1.37-1.62.98-2.73-.28-.62-.58-.97-.91-1.05-7.48-1.74-13.87-3.13-19.16-4.17-1.4-.27-2.6-.7-3.6-1.27,2.96-.51,4.61-2.06,4.96-4.65.54-3.92-3.05-7.92-4.95-11.07,1.44.38,2.9.72,4.36,1.02,12.25,2.53,24.51,5.04,36.76,7.53,7.14,1.46,14.27,2.92,21.41,4.37,3.73.76,7.26.71,7.26-4.08-.02-14.38,0-28.77.05-43.15l13.16,2.71Z" style="fill: #393b40;"/>
  <path d="m200.89,190.32l.07,27.17-.11,6.55c.03,7.57.01,15.1-.07,22.59-.07,6.31-2.51,10.84-8.93,12.77,2.52-1.04,4.26-2.62,5.23-4.74.92-2.01,1.38-4.12,1.38-6.33.02-17.98.02-35.97.02-53.95,0-2.03.03-3.53.1-4.51l2.3.45Z" style="fill: #488975;"/>
  <path d="m217.08,190.93c-.81.89-1.18,1.94-1.11,3.15.05.76.08,1.16.08,1.18.05,8.36,0,16.72-.12,25.08l-8.01-1.53.11-27.08c1.68.24,4.5,1.42,4.38-1.69l4.67.89Z" style="fill: #ad9d19;"/>
  <path d="m208.03,191.73l-.11,27.08-6.95-1.32-.07-27.17,7.13,1.41Z" style="fill: #ad9d19;"/>
  <path d="m102.87,203.44c.06,2.8-1.65,2.13-3.54,2.43-.01,0-.02,0-.03,0-.08.03-.12.12-.09.2.43,1.16,1.16,2.2,2.2,3.11-3.1,2.04-6.39,2.07-9.88.11-1.5-.85-2.34-1.98-2.54-3.4.38-.04.58-.22.6-.56,0-.13.05-.24.11-.34l.25-.35c1.86,1.45,5.32,2.15,5.79-1.11.17-1.2.46-2.37.85-3.52.04-.11.03-.24-.02-.35-.57-1.21-1.09-2.61.33-3.47.03-.02.06-.03.1-.04.21-.06.43.07.5.28l.66,2.34c.04.13.12.25.23.32.77.48.76-1.53.78-2.18,0-.13.04-.24.11-.34.71-1.05,1.7-1.95,2.94-2.7.34,2.32.56,5.5.65,9.56Z" style="fill: #fcb195;"/>
  <path d="m74.43,194.49c.05.12.13.21.22.25,1.22.51,1.68,1.46,2.58,2.22,2.7,2.3,5.12,5.21,7.49,7.86.09.11.14.23.12.33-.07.45.1.75.51.89,0,0,0,0,0,0,.1.04.15.17.11.28l-.15.41c-4.65,1.89-5.5,7.1-5.49,11.52-1.57-.2-3.14-.17-4.7.1-.28-.21-.63-.21-1.03,0l-.04-.73.03-22.93c.14-.33.25-.39.32-.19Z" style="fill: #b6927e;"/>
  <path d="m89.95,204.67l-.25.35c-.07.09-.11.21-.11.34-.02.34-.22.52-.6.56-.31-.16-.73-.13-1.26.09-.9-2.79-.97-5.6-.19-8.44l2.41,7.1Z" style="fill: #edc188;"/>
  <path d="m144.82,202.48c10.28,2.1,20.55,4.21,30.81,6.33,1.35.28,2.27.35,3.22,1.45.08.09.13.21.14.33.11,1.5-.59,2.1-2.09,1.8-12.8-2.56-25.6-5.16-38.39-7.81-3.54-.86-7.11-1.45-10.71-1.8l-1.34-4.21,18.37,3.91Z" style="fill: #dfe0e2;"/>
  <path d="m138.51,204.59c.2,1.04.14,2.07-.19,3.08l-10.19-2.23-.34-2.65c3.61.34,7.18.94,10.71,1.8Z" style="fill: #c9be68;"/>
  <path d="m138.32,207.67c12.95,2.69,25.91,5.35,38.87,7.98.43.09.93.42,1.51,1.01.09.09.15.2.17.32.43,2.2-1.24,2.15-2.78,1.84-11.62-2.34-23.24-4.73-34.84-7.17l-13.09-2.75-.02-3.47,10.19,2.23Z" style="fill: #dfe0e2;"/>
  <path d="m141.25,211.66l.09,3.18-13.47-3,.28-2.92,13.09,2.75Z" style="fill: #c9be68;"/>
  <path d="m141.34,214.84c10.27,2.17,20.55,4.29,30.84,6.35,2.66.53,7.53.99,7.04,3.12-.32,1.42-1.33,1.42-2.54,1.15-2.11-.47-8.92-1.83-20.44-4.09l-29.9-6.26c.68-1.01,1.19-2.11,1.52-3.29l13.47,3Z" style="fill: #fff;"/>
  <path d="m156.24,221.37c-.4.11-.46.22-.18.32.1.04.17.14.16.24-.08.89-.19,1.58.14,2.47.69,1.81.81,3.69.34,5.62-12.26-2.5-24.51-5.01-36.76-7.53-1.46-.3-2.91-.64-4.36-1.02l-1.78-2.75c4.4.12,9.36-.27,12.53-3.6l29.9,6.26Z" style="fill: #c9be68; opacity: .7;"/>
  <path d="m79.83,218.25l.09.85-4.58.35s0,0-.01,0c-.1,0-.19-.08-.19-.19v-.91c1.55-.27,3.12-.31,4.69-.1Z" style="fill: #dfb56e;"/>
  <path d="m75.14,218.35v.91s0,0,0,.01c0,.1.1.18.2.17l4.58-.35c1.05,6.66,2.98,13.25,3.53,19.68,0,.03,0,.05-.01.07-.03.08-.12.11-.2.08-4.57-1.93-7.46-5.19-8.66-9.76-.83-3.14-.36-7.42-.47-10.83.4-.2.74-.2,1.03,0Z" style="fill: #393b40;"/>
  <path d="m100.55,225.68c-.05-.11-.03-.23.05-.32.45-.51.88-.45,1.31.18,1.6,2.36,3.24,4.71,4.92,7.03l-.38.61c-2.62-2-4.58-4.5-5.89-7.5Z" style="fill: #b6b6b5;"/>
  <path d="m112.32,236.62c-1.6,1.03-3.15,2.15-4.64,3.36-.52.42-1.17.72-1.74,1.06l.5-7.87.38-.61c1.54,1.68,3.37,3.03,5.5,4.06Z" style="fill: #180942;"/>
  <path d="m115.57,237.19c1,.57,2.2.99,3.6,1.27,5.29,1.04,11.68,2.43,19.16,4.17.33.08.63.42.91,1.05-1.92,1.31-3.81,2.65-5.66,4.03-4.62,3.43-9.4,6.44-14.01,9.81-1.23.91-2.59,1.21-4.07.91-8.4-1.69-16.77-3.53-25.11-5.52.1-1.09.58-1.81,1.46-2.15.53-.18.88-.34,1.08-.47,4.4-2.99,8.74-6.07,13.02-9.24.57-.34,1.21-.64,1.74-1.06,1.49-1.21,3.04-2.33,4.64-3.36l3.25.56Zm-.6,2.32c-1.3-.64-2.57-.46-3.82.52-3.04,2.4-6.49,4.73-10.36,6.98-.39.23-.62.57-.7,1.02,0,0,0,.02,0,.03,0,.09.07.16.16.16,1.11-.03,2.2-.37,3.26-1.01,3.92-2.4,7.28-4.62,10.08-6.65.41-.3.9-.51,1.36-.68.28-.11.28-.22.02-.35Zm2.98.87l-2.18-.42c-.07-.01-.19.04-.32.13-5.25,3.73-9.11,6.39-11.57,7.95-1.04.66-1.02,1.06.04,1.2.9.12,3.45-1.49,3.77-1.72,3.3-2.45,6.74-4.73,10.31-6.82.27-.15.25-.26-.05-.32Zm2.69,1.21c.05-.08.03-.19-.05-.25-.85-.54-1.51-.64-1.98-.28-4.04,3.02-8.41,5.81-12.53,8.61-.32.21-.3.39.06.53,1.75.69,2.65-.24,4.28-1.49,3.32-2.53,6.91-4.36,10.19-7.09.01-.01.03-.03.04-.04Zm1.62.78c-.73-.01-2.2.82-3.01,1.36-3.28,2.18-7.07,4.25-9.98,6.89-.02.02-.03.03-.04.06-.04.08,0,.18.08.22.79.36,1.43.35,2.2-.15,3.74-2.46,8.03-4.89,11.27-7.56.64-.52.47-.79-.51-.8Zm3.8.86c-.8-.05-1.54.13-2.21.53-3.73,2.22-7.46,4.67-11.19,7.36-.03.03-.07.06-.09.09-.17.21-.13.53.09.71.42.34.9.52,1.44.54.09,0,.21-.06.32-.17,2.29-2.19,4.82-4.04,7.59-5.55,1.46-.79,2.87-1.78,4.24-2.95.39-.33.33-.52-.18-.55Zm2.04,1.43c-1.57-.44-6.56,3.76-7.84,4.87-.09.08-.21.14-.35.18-.56.15-1.07.4-1.52.76-.02.01-.03.03-.03.05-.01.06.04.14.12.17.69.28,1.34.23,1.95-.16,2.64-1.68,5.24-3.4,7.79-5.17.46-.32.42-.55-.12-.7Zm.45,2.09c.05-.1.02-.21-.05-.24-.29-.11-6.72,4.7-7.72,5.43-.05.03-.08.08-.11.13-.08.17,0,.37.17.44.98.46,6.81-4.52,7.68-5.73.01-.01.02-.03.03-.05Z" style="fill: #b6b6b5;"/>
  <path d="m113.6,240.55c-2.8,2.04-6.16,4.26-10.08,6.65-1.06.65-2.15.99-3.26,1.01,0,0-.02,0-.03,0-.09-.01-.15-.1-.13-.18.08-.46.31-.8.7-1.02,3.87-2.25,7.32-4.57,10.36-6.98,1.25-.99,2.52-1.16,3.82-.52.27.13.26.25-.02.35-.46.18-.95.38-1.36.68Z" style="fill: #393b40;"/>
  <path d="m107.7,247.52c-.32.23-2.86,1.84-3.77,1.72-1.07-.14-1.08-.54-.04-1.2,2.47-1.57,6.33-4.22,11.57-7.95.13-.09.25-.14.32-.13l2.18.42c.3.06.31.16.05.32-3.57,2.09-7.01,4.37-10.31,6.82Z" style="fill: #393b40;"/>
  <path d="m110.42,248.71c-1.63,1.25-2.53,2.18-4.28,1.49-.35-.14-.37-.31-.06-.53,4.12-2.8,8.49-5.59,12.53-8.61.48-.36,1.14-.26,1.98.28.02.01.03.02.04.04.06.08.05.19-.03.25-3.28,2.73-6.87,4.55-10.19,7.09Z" style="fill: #fff;"/>
  <path d="m111.52,250.73c-.77.51-1.41.52-2.2.15-.02,0-.04-.02-.06-.04-.06-.07-.05-.17.01-.23,2.91-2.64,6.7-4.7,9.98-6.89.81-.54,2.28-1.37,3.01-1.36.98.01,1.15.28.51.8-3.23,2.67-7.53,5.1-11.27,7.56Z" style="fill: #fff;"/>
  <path d="m122.02,246.73c-2.77,1.51-5.31,3.36-7.59,5.55-.11.11-.23.17-.32.17-.54-.02-1.01-.2-1.44-.54-.03-.03-.07-.06-.09-.1-.17-.23-.12-.54.1-.7,3.72-2.69,7.45-5.14,11.19-7.36.67-.4,1.41-.58,2.21-.53.51.03.57.22.18.55-1.37,1.17-2.78,2.16-4.24,2.95Z" style="fill: #fff;"/>
  <path d="m138.26,246.4c-.43.3-4.34,2.66-4.04,2.97-4.05,2.67-8.03,5.46-11.93,8.35-.75.42-1.53.89-2.36,1.43-2.13,1.38-3.8,1.75-6.13.78l-22.33-4.83c-.68-.72-1.04-1.45-1.07-2.2,8.34,1.99,16.71,3.83,25.11,5.52,1.48.3,2.84,0,4.07-.91,4.61-3.37,9.39-6.38,14.01-9.81,1.85-1.38,3.74-2.72,5.66-4.03.38,1.11.06,2.02-.98,2.73Z" style="fill: #393b40;"/>
  <path d="m120.43,250.53c-.61.39-1.26.44-1.95.16-.02-.01-.05-.02-.07-.04-.06-.06-.07-.13-.02-.17.46-.36.97-.61,1.52-.76.14-.04.26-.1.35-.18,1.28-1.12,6.27-5.31,7.84-4.87.53.15.57.38.12.7-2.55,1.77-5.15,3.5-7.79,5.17Z" style="fill: #b6b6b5;"/>
  <path d="m272.3,188.28c4.01,5.96,5.39,12.47,4.14,19.53-2.38,13.26-16.31,19.59-27.63,11.27-12.01-8.81-16.63-27.5-4.51-38.24,10.05-6.92,21.91-1.6,28,7.43Z" style="fill: #c9be68;"/>
  <path d="m120.71,252.41c-.11-.15-.08-.36.07-.47,1-.74,7.43-5.54,7.72-5.43.01,0,.02.01.03.02.06.05.06.17,0,.26-.88,1.21-6.7,6.18-7.68,5.73-.05-.02-.1-.06-.13-.11Z" style="fill: #393b40;"/>
  <path d="m85.79,285.77c0-11.96,0-23.94,0-35.92,0,0,0-.02,0-.03.01-.08.1-.14.18-.12l5.87,1.05c-.88.34-1.36,1.06-1.46,2.15.03.75.39,1.49,1.07,2.2-.46,1.22-.45,2.37.04,3.45.83,1.86,2.42,4.16,3.97,6.7.86,1.4,1.83,2.72,2.92,3.95.05.05.08.11.1.18.04.17.1.29.15.33.86.7,1.56,1.54,2.1,2.52.05.09.16.17.31.22.71.25.87.97,1.31,1.4,2.2,2.17,4.31,4.27,6.56,6.62.88.92,2.18,1.67,3.89,2.26,0,0,0,0,0,0,.08.03.18-.03.21-.13l.08-.24c.04-.11.08-.1.13.02.07.16.19.19.38.09l.02,27.57c0,.55.27.88.8,1,1.06.23,4.71.82,5.43,1.61.48.52.2,1.06-.81,1.61-2.73.44-5.44.47-8.15.09-3.1-.48-3.83-4.03-4.81-6.5l-1.92-4.98c-.48-1.26-4.77-13.4-4.84-13.42,0,0,0,0,0,0-.04,0-.08.03-.09.09-.9,5.8-2.04,12.11-2.37,17.62-.15.49-.17.99-.05,1.51.03.11.12.19.23.21,1.64.25,3.75.37,5.07,1.48-.57,2.06-7.5,2.23-8.94,2.17-1.66-.07-2.44-1.46-2.86-3.23-.74-3.12-1.43-6.22-2.08-9.28l-.25-.9c-.77-4.25-2.17-9.24-2.17-13.38Z" style="fill: #393b40;"/>
  <path d="m113.79,259.93l-.19,22.55c-.19.1-.32.07-.38-.09-.05-.12-.09-.13-.13-.02l-.08.24s0,0,0,0c-.03.09-.13.15-.21.12-1.71-.59-3-1.34-3.89-2.26-2.25-2.35-4.36-4.46-6.56-6.62-.43-.43-.59-1.14-1.31-1.4-.15-.05-.26-.13-.31-.22-.54-.97-1.24-1.81-2.1-2.52-.05-.04-.11-.17-.15-.33-.02-.07-.05-.13-.1-.18-1.09-1.24-2.06-2.56-2.92-3.95-1.55-2.54-3.14-4.84-3.97-6.7-.48-1.08-.5-2.23-.04-3.45l22.33,4.83Z" style="fill: #1c162e;"/>
  <path d="m99.21,289.56s0,0,0,0c.01-.06.05-.1.09-.09.07.01,4.36,12.15,4.84,13.42-1.88,1.35-3.75,2.7-5.6,4.04-.59.43-1.16.52-1.71.26.33-5.51,1.47-11.82,2.37-17.62Z" style="fill: #d9eee7;"/>
  <path d="m90.29,309.34c.42,1.76,1.2,3.15,2.86,3.23,1.44.06,8.38-.11,8.94-2.17,1.22-.96,2.55-1.8,3.97-2.53.99,2.47,1.72,6.02,4.81,6.5-.81,1.56-1.74,1.5-3.17,1.96-4.43,1.42-8.98,1.96-13.64,1.61-1.8-.13-3.59-.31-5.38-.55-.08-.01-.14-.03-.14-.05l-.02-.08c-.02-.06-.11-.12-.23-.13-1.29-.1-7.47-1.05-8.13-1.93-.08-.11-.18-.19-.28-.23-.84-.34-1.61-.24-2.44-.52-1.53-.53-3.08-.96-4.67-1.29-.92-.19-1.42-.63-1.95-1.33-.08-.11-.19-.19-.31-.24-1.66-.63-2.34-1.84-2.01-3.65.09-.5.04-.89-.14-1.16l-.59-.84c-.08-.11-.16-.22-.19-.28.07-.24.22-.4.47-.47.14-.04.25-.1.31-.17,1.01-1.2,2.42-1.38,3.55-1.94.99-.49,1.93-.8,2.81-.94,2.99-.48,5.98-.97,8.97-1.47.3-.05,1.01-.09,2.13-.12.81-.02,1.6-.2,2.38-.52.65,3.07,1.34,6.16,2.08,9.28Z" style="fill: #d9eee7;"/>
  <path d="m106.06,307.87c-1.42.73-2.75,1.57-3.97,2.53-1.31-1.11-3.43-1.23-5.07-1.48-.12-.02-.21-.1-.23-.21-.12-.52-.1-1.02.05-1.51.55.26,1.12.18,1.71-.26,1.85-1.35,3.72-2.7,5.6-4.04l1.92,4.98Z" style="fill: #d9eee7;"/>
  <polygon points="94.19 103.61 125.95 110.11 125.95 99.25 94.19 92.75 94.19 103.61" style="fill: #dfe0e2;"/>
  <polygon points="94.19 118.1 125.95 124.6 125.95 113.74 94.19 107.23 94.19 118.1" style="fill: #dfe0e2;"/>
  <path d="m98.22,134.45l22.4,4.17c3.5.65,6.18-1.82,5.55-5.11h0c-.48-2.47-2.7-4.6-5.33-5.08l-22.4-4.17c-3.5-.65-6.18,1.82-5.55,5.11h0c.48,2.47,2.7,4.6,5.33,5.08Z" style="fill: #ff834e;"/>
  <path d="m59.47,64.89c-.5-.11-.94-.43-1.31-.96l-6.14-8.67c-.19-.27-.33-.54-.42-.83s-.14-.58-.14-.86.05-.54.14-.79.24-.45.42-.62l6.1-5.57c.38-.34.82-.46,1.33-.35s.96.45,1.33,1.01c.38.53.57,1.09.59,1.67s-.17,1.05-.55,1.39l-2.91,2.66,9.89,2.47c.54.13.99.46,1.35.97s.55,1.08.55,1.71-.18,1.11-.55,1.44-.81.43-1.35.3l-9.89-2.47,2.87,4.05c.38.53.57,1.09.57,1.67s-.19,1.06-.57,1.43c-.38.34-.81.46-1.31.35Z" style="fill: #ff834e;"/>
  <path d="m223.55,109.05c.6.1,1.13.45,1.59,1.05l7.42,9.75c.23.3.4.61.51.95s.17.66.17.99c0,.33-.06.63-.17.92s-.28.53-.51.74l-7.37,6.76c-.46.42-.99.57-1.61.47s-1.16-.47-1.61-1.11c-.46-.6-.69-1.23-.71-1.91s.2-1.22.66-1.64l3.52-3.22-11.96-2.37c-.65-.13-1.2-.48-1.64-1.06s-.66-1.23-.66-1.95.22-1.29.66-1.69.98-.54,1.64-.41l11.96,2.37-3.47-4.55c-.46-.6-.68-1.23-.68-1.9s.23-1.23.68-1.69c.46-.42.98-.58,1.59-.47Z" style="fill: #ff834e;"/>
  <path d="m175.27,168.53c3.51,5.3,4.71,11.1,3.62,17.39-2.08,11.81-14.25,17.44-24.15,10.04-10.49-7.85-14.54-24.48-3.94-34.04,8.79-6.16,19.15-1.43,24.47,6.61Z" style="fill: #fed794;"/>
  <g>
    <path d="m153.72,191c-.82-.17-1.52-.62-2.1-1.35-.58-.73-.88-1.53-.88-2.38v-13.81c0-.87.29-1.55.88-2.05s1.28-.66,2.1-.49l1.57.33v-2.46c0-1.88.61-3.36,1.83-4.42,1.22-1.06,2.71-1.41,4.47-1.04s3.25,1.33,4.47,2.9c1.22,1.57,1.83,3.29,1.83,5.18v2.46s1.57.33,1.57.33c.81.17,1.5.62,2.08,1.36.58.74.87,1.54.87,2.41v13.81c0,.86-.29,1.53-.87,2.02-.58.49-1.27.65-2.08.48l-15.74-3.27Zm11.23-20.2c0-1.03-.32-1.96-.97-2.79s-1.45-1.34-2.39-1.53-1.74-.02-2.38.54-.96,1.35-.96,2.39v2.45s6.71,1.39,6.71,1.39v-2.45Z" style="fill: #ff834e;"/>
    <path d="m163.3,184.78c.47-.39.71-.92.71-1.59s-.24-1.33-.71-1.97-1.04-1.03-1.7-1.17-1.24.01-1.71.46-.71,1-.71,1.66.24,1.32.71,1.9,1.04.95,1.7,1.08,1.24.01,1.71-.38Z" style="fill: #fff;"/>
  </g>
  <path d="m258.2,213.77c-.43-.42-.64-.94-.64-1.58,0-.4.13-.75.4-1.03s.6-.46,1-.54c2.05-.13,3.73-.91,5.04-2.33,1.31-1.42,1.97-3.23,1.97-5.42,0-1.21-.25-2.43-.76-3.66-.51-1.23-1.21-2.33-2.12-3.3-.33-.41-.49-.84-.49-1.28s.15-.79.45-1.04c.38-.31.84-.42,1.38-.32s.95.37,1.23.83c1.24,1.31,2.19,2.79,2.86,4.44s1,3.31,1,4.98c0,3.06-.94,5.58-2.81,7.57-1.87,1.99-4.23,3.06-7.09,3.23-.53.06-1.01-.13-1.44-.55Zm-12.09-6.42c-1.87-2.66-2.81-5.52-2.81-8.58,0-3.59,1.25-6.44,3.75-8.55s5.55-2.84,9.14-2.19l.91.16-1.93-2.25c-.23-.29-.34-.64-.34-1.03s.11-.71.34-.94c.28-.18.61-.23,1-.16s.71.24.97.52l4.17,5c.18.21.31.42.4.64s.13.45.13.71c0,.23-.04.44-.13.64s-.22.37-.4.52l-4.17,3.38c-.25.23-.57.31-.97.24s-.73-.27-1-.6c-.23-.29-.34-.63-.34-1.01s.11-.67.34-.89l1.52-1.24-.87-.16c-2.53-.31-4.64.3-6.35,1.81s-2.56,3.53-2.56,6.06c0,2.2.64,4.24,1.93,6.13,1.29,1.89,2.97,3.27,5.04,4.15.4.22.74.54,1,.94s.4.79.4,1.17c0,.61-.21,1.05-.64,1.32s-.92.28-1.48,0c-2.83-1.19-5.18-3.12-7.05-5.79Z" style="fill: #fefefe;"/>
  <path d="m243.57,133.74c-.66-.12-1.23-.47-1.7-1.03-.47-.56-.71-1.18-.71-1.84v-9.72c0-.38.08-.73.25-1.03.17-.31.41-.55.72-.72l6.41-3.65c.23-.11.47-.19.72-.23s.5-.04.75.01.5.14.75.27c.25.13.48.3.71.49l6.41,6.05c.31.29.56.62.73,1,.18.37.27.75.27,1.13v9.72c0,.67-.24,1.19-.72,1.58-.48.39-1.05.52-1.72.39l-4.23-.79v-8.02l-4.41-.83v8.02l-4.23-.79Z" style="fill: #393b40;"/>
</svg>