<?xml version="1.0" encoding="UTF-8"?>
<svg id="a" data-name="Layer 1" xmlns="http://www.w3.org/2000/svg" viewBox="0 0 80 80">
  <g id="b" data-name="Component 9 2">
    <g id="c" data-name="Group 1808">
      <g id="d" data-name="Group 1803">
        <path id="e" data-name="Union 15" d="m40,80H0v-40C0,17.91,17.91,0,40,0s40,17.91,40,40-17.91,40-40,40Z" style="fill: #a4a245;"/>
      </g>
      <g id="f" data-name="Group 1804">
        <path id="g" data-name="Path 4772" d="m30.99,60.2l9.52-9.97c.59-.61,1.14-1.25,1.65-1.93.38-.5.69-1.04.92-1.63.19-.5.28-1.03.28-1.57.05-.94-.33-1.85-1.03-2.48-.74-.62-1.68-.94-2.64-.9-1.05-.02-2.07.28-2.94.86-.99.72-1.81,1.65-2.39,2.73l-3.33-2.83c.89-1.59,2.19-2.92,3.75-3.86,1.58-.89,3.37-1.35,5.18-1.31,1.5-.03,2.99.29,4.33.96,1.19.6,2.19,1.54,2.86,2.69.69,1.23,1.04,2.62,1.01,4.04.01.95-.12,1.9-.38,2.81-.28.9-.72,1.74-1.27,2.5-.74.99-1.55,1.93-2.42,2.81l-6.96,7.07-6.15.02Zm0,2.8v-2.8l4.17-1.46h13.53v4.26h-17.69Z" style="fill: #fff;"/>
        <path id="h" data-name="Path 4773" d="m24.42,31.16c-.78.02-1.55-.14-2.26-.48-.65-.34-1.22-.82-1.67-1.41l1.25-1.25c.29.43.66.78,1.1,1.05.5.27,1.06.4,1.63.38.52.03,1.04-.11,1.48-.38.36-.23.56-.63.55-1.06.01-.33-.09-.65-.29-.91-.21-.25-.47-.45-.76-.58-.34-.16-.68-.3-1.04-.42-.38-.12-.76-.26-1.14-.42-.37-.15-.72-.35-1.04-.58-.32-.24-.58-.55-.76-.91-.21-.45-.31-.93-.29-1.42-.01-.6.16-1.19.5-1.69.33-.47.79-.84,1.32-1.06.59-.25,1.22-.38,1.86-.37.68-.01,1.36.14,1.98.43.55.26,1.03.63,1.42,1.1l-1.25,1.25c-.28-.33-.62-.6-1-.81-.37-.18-.78-.27-1.19-.26-.46-.03-.91.09-1.3.34-.31.21-.49.57-.47.94-.01.3.09.6.29.82.22.22.47.4.76.53.34.15.69.29,1.04.41.38.13.76.27,1.14.43.37.16.72.36,1.04.62.32.26.58.59.76.97.21.47.3.98.28,1.5.04.92-.35,1.8-1.06,2.38-.82.62-1.84.94-2.88.88Zm8.91-.16v-10.88h1.84v10.88h-1.84Zm-3.65-9.52v-1.68h9.14v1.68h-9.14Zm11.54,9.52v-11.2h1.84v11.2h-1.84Zm1.26,0v-1.68h6.27v1.68h-6.27Zm0-4.91v-1.62h5.73v1.62h-5.73Zm0-4.61v-1.68h6.19v1.68h-6.19Zm10.24,5.3v-1.6h2.8c.35,0,.7-.07,1.01-.23.29-.15.53-.37.7-.65.18-.31.27-.66.26-1.01,0-.35-.08-.7-.26-1.01-.17-.28-.41-.5-.7-.65-.32-.16-.66-.24-1.02-.23h-2.8v-1.6h2.9c.66-.01,1.31.14,1.9.43.55.27,1.01.69,1.33,1.21.33.55.5,1.19.49,1.84.02.65-.15,1.29-.49,1.84-.32.52-.79.94-1.34,1.22-.59.3-1.24.44-1.9.43h-2.89Zm-1.26,4.22v-11.2h1.84v11.2h-1.84Z" style="fill: #fff;"/>
      </g>
    </g>
  </g>
</svg>