<?xml version="1.0" encoding="UTF-8"?>
<svg id="a" data-name="Layer 1" xmlns="http://www.w3.org/2000/svg" viewBox="0 0 80 80">
  <g id="b" data-name="Component 9 3">
    <g id="c" data-name="Group 1808-2">
      <g id="d" data-name="Group 1803-2">
        <path id="e" data-name="Union 15-2" d="m40,80H0v-40C0,17.91,17.91,0,40,0s40,17.91,40,40-17.91,40-40,40Z" style="fill: #a4a245;"/>
      </g>
      <g id="f" data-name="Group 1804-2">
        <path id="g" data-name="Path 4771" d="m39.08,63.38c-1.61.02-3.21-.29-4.69-.92-1.38-.59-2.61-1.5-3.57-2.66l3.23-3.21c.52.75,1.23,1.35,2.06,1.73.9.44,1.89.66,2.89.65.86.02,1.7-.16,2.48-.52.68-.33,1.25-.84,1.64-1.48.41-.67.61-1.44.59-2.22.02-.79-.18-1.57-.6-2.25-.42-.63-1.01-1.13-1.71-1.44-.85-.36-1.76-.53-2.68-.51-.46,0-.92.03-1.38.09-.42.05-.83.14-1.23.27l2.16-2.75c.59-.19,1.18-.35,1.76-.49.55-.13,1.1-.19,1.66-.2,1.23-.02,2.44.3,3.51.93,1.05.62,1.9,1.52,2.47,2.6.63,1.22.95,2.58.91,3.95.03,1.55-.38,3.08-1.19,4.4-.81,1.28-1.96,2.31-3.33,2.96-1.56.74-3.27,1.1-5,1.06Zm-2.96-12.46v-2.8l6.46-7.55,5.64-.07-6.73,7.7-5.38,2.73Zm-3.88-8.96v-4.26h15.98v2.8l-4,1.46h-11.98Z" style="fill: #fff;"/>
        <path id="h" data-name="Path 4770" d="m24.42,31.16c-.78.02-1.55-.14-2.26-.48-.65-.34-1.22-.82-1.67-1.41l1.25-1.25c.29.43.66.78,1.1,1.05.5.27,1.06.4,1.63.38.52.03,1.04-.11,1.48-.38.36-.23.56-.63.55-1.06.01-.33-.09-.65-.29-.91-.21-.25-.47-.45-.76-.58-.34-.16-.68-.3-1.04-.42-.38-.12-.76-.26-1.14-.42-.37-.15-.72-.35-1.04-.58-.32-.24-.58-.55-.76-.91-.21-.45-.31-.93-.29-1.42-.01-.6.16-1.19.5-1.69.33-.47.79-.84,1.32-1.06.59-.25,1.22-.38,1.86-.37.68-.01,1.36.14,1.98.43.55.26,1.03.63,1.42,1.1l-1.25,1.25c-.28-.33-.62-.6-1-.81-.37-.18-.78-.27-1.19-.26-.46-.03-.91.09-1.3.34-.31.21-.49.57-.47.94-.01.3.09.6.29.82.22.22.47.4.76.53.34.15.69.29,1.04.41.38.13.76.27,1.14.43.37.16.72.36,1.04.62.32.26.58.59.76.97.21.47.3.98.28,1.5.04.92-.35,1.8-1.06,2.38-.82.62-1.84.94-2.88.88Zm8.91-.16v-10.88h1.84v10.88h-1.84Zm-3.65-9.52v-1.68h9.14v1.68h-9.14Zm11.54,9.52v-11.2h1.84v11.2h-1.84Zm1.26,0v-1.68h6.27v1.68h-6.27Zm0-4.91v-1.62h5.73v1.62h-5.73Zm0-4.61v-1.68h6.19v1.68h-6.19Zm10.24,5.3v-1.6h2.8c.35,0,.7-.07,1.01-.23.29-.15.53-.37.7-.65.18-.31.27-.66.26-1.01,0-.35-.08-.7-.26-1.01-.17-.28-.41-.5-.7-.65-.32-.16-.66-.24-1.02-.23h-2.8v-1.6h2.9c.66-.01,1.31.14,1.9.43.55.27,1.01.69,1.33,1.21.33.55.5,1.19.49,1.84.02.65-.15,1.29-.49,1.84-.32.52-.79.94-1.34,1.22-.59.3-1.24.44-1.9.43h-2.89Zm-1.26,4.22v-11.2h1.84v11.2h-1.84Z" style="fill: #fff;"/>
      </g>
    </g>
  </g>
</svg>