<?xml version="1.0" encoding="UTF-8"?>
<svg id="a" data-name="Layer 1" xmlns="http://www.w3.org/2000/svg" viewBox="0 0 162 65">
  <g id="b" data-name="Component 10 2">
    <path id="c" data-name="Union 12-2" d="m78.4,61.99l-6-10.46H26.5c-13.81,0-25-11.19-25-25h0v-.03C1.5,12.69,12.69,1.5,26.5,1.5h109c13.81,0,25,11.19,25,25v.03c0,13.81-11.19,25-25,25h-45.9l-6,10.46c-.82,1.44-2.66,1.94-4.09,1.11-.46-.27-.85-.65-1.11-1.11h0Z" style="fill: #fff; stroke: #ad9d20; stroke-width: 3px;"/>
    <g id="d" data-name="DXによる" style="isolation: isolate;">
      <g style="isolation: isolate;">
        <path d="m50.46,27c0,2.53-.65,4.45-1.96,5.75s-3.19,1.95-5.64,1.95c-1.36,0-2.63-.1-3.8-.3v-14.4c1.17-.2,2.44-.3,3.8-.3,2.44,0,4.32.63,5.63,1.89s1.97,3.06,1.97,5.41Zm-2.1,0c0-1.81-.47-3.18-1.4-4.11-.93-.93-2.3-1.39-4.1-1.39-.6,0-1.13.05-1.6.14v11.12c.47.09,1,.14,1.6.14,1.87,0,3.25-.48,4.15-1.45.9-.97,1.35-2.45,1.35-4.45Z" style="fill: #1c1917;"/>
        <path d="m53.78,19.9l3.18,5.7h.04l3.18-5.7h2.46l-4.3,7.2,4.4,7.4h-2.58l-3.24-5.9h-.04l-3.24,5.9h-2.5l4.4-7.4-4.3-7.2h2.54Z" style="fill: #1c1917;"/>
      </g>
      <g style="isolation: isolate;">
        <path d="m68.94,19.32c-.64,2.47-.96,5.13-.96,7.98s.32,5.51.96,7.98l-2.06.24c-.67-2.53-1-5.27-1-8.22s.33-5.69,1-8.22l2.06.24Zm1.94,11.48c0-.59.22-1.26.66-2.02.44-.76,1.05-1.49,1.84-2.18l1.5,1.24c-.6.53-1.07,1.07-1.4,1.62s-.5.99-.5,1.34c0,1.29,1.3,1.94,3.9,1.94,1.37,0,2.83-.18,4.38-.54l.3,1.84c-1.59.41-3.15.62-4.68.62-1.85,0-3.32-.35-4.39-1.05-1.07-.7-1.61-1.64-1.61-2.81Zm1.6-8.2v-1.86h8.54v1.86h-8.54Z" style="fill: #1c1917;"/>
        <path d="m101.18,23.8h-6.3v5.1c1.79.76,3.97,2.15,6.56,4.16l-1.26,1.6c-2.2-1.76-3.97-2.99-5.3-3.68v.12c0,1.53-.34,2.67-1.03,3.4s-1.74,1.1-3.17,1.1c-1.67,0-2.9-.36-3.7-1.09-.8-.73-1.2-1.66-1.2-2.81s.42-2.08,1.26-2.73c.84-.65,2.05-.97,3.64-.97.76,0,1.46.07,2.1.22v-9.62h2.1v3.4h6.3v1.8Zm-8.4,6.34c-.67-.19-1.37-.28-2.1-.28-1,0-1.72.15-2.15.46-.43.31-.65.77-.65,1.38,0,.72.23,1.25.68,1.59s1.16.51,2.12.51c.75,0,1.28-.21,1.61-.62.33-.41.49-1.11.49-2.08v-.96Z" style="fill: #1c1917;"/>
        <path d="m116.3,33.4c1.79-.55,2.68-1.71,2.68-3.5,0-1.05-.33-1.82-1-2.31-.67-.49-1.79-.73-3.36-.73-2.68,0-5.43.74-8.24,2.22l-.76-1.46,10.08-6.24v-.04h-8.68v-1.74h12.4l.06,1.78-7.16,4.12.02.02c1.05-.21,2.05-.32,3-.32,2.01,0,3.5.37,4.45,1.12.95.75,1.43,1.86,1.43,3.34,0,1.87-.67,3.31-2.02,4.32-1.35,1.01-3.27,1.52-5.78,1.52-1.93,0-3.38-.29-4.35-.88-.97-.59-1.45-1.43-1.45-2.52,0-.84.4-1.55,1.2-2.13.8-.58,1.93-.87,3.4-.87s2.64.26,3.31.77c.67.51,1.01,1.26,1.01,2.23,0,.4-.08.83-.24,1.3Zm-2.04.32c.28-.55.42-1.02.42-1.42,0-1-.85-1.5-2.54-1.5-.76,0-1.35.13-1.77.39-.42.26-.63.56-.63.91,0,.49.3.89.89,1.19.59.3,1.52.45,2.79.45.39,0,.67,0,.84-.02Z" style="fill: #1c1917;"/>
      </g>
    </g>
  </g>
</svg>