<svg xmlns="http://www.w3.org/2000/svg" data-name="Layer 1" viewBox="0 0 136 61.97">
  <g data-name="Component 10 4">
    <path d="m65.4 58.96-2.13-3.73H26.5c-13.81 0-25-11.19-25-25V26.5c0-13.81 11.19-25 25-25h83c13.81 0 25 11.19 25 25v3.73c0 13.81-11.19 25-25 25H72.74l-2.13 3.73a2.988 2.988 0 0 1-4.09 1.11 3.03 3.03 0 0 1-1.11-1.11Z" data-name="Union 12" style="fill:#fff;stroke:#ad9d20;stroke-width:3px"/>
    <g data-name="話題の" style="isolation:isolate">
      <g style="isolation:isolate">
        <path d="M38.5 23.54v-1.8h7.6v1.8h-7.6Zm.56-2.88V18.9h6.48v1.76h-6.48Zm2 14.94v.8h-2v-6h6.54v5.2h-4.54Zm-1.86-9.2v-1.7h6.3v1.7h-6.3Zm0 2.86v-1.72h6.3v1.72h-6.3Zm1.86 4.64h2.64v-1.8h-2.64v1.8Zm5.44-13.94c3.51-.2 6.58-.7 9.22-1.5l.4 1.78c-1.27.39-2.51.68-3.72.88v2.68h4.2v1.8h-4.2v2.34H56v8.2h-2.1v-1h-5.2v1h-2v-8.2h3.6V25.6h-4.2v-1.8h4.2v-2.38c-1.04.12-2.27.23-3.7.32l-.1-1.78Zm7.4 13.54v-3.9h-5.2v3.9h5.2ZM58.06 35.56c.81-1.95 1.29-4.12 1.44-6.52l1.9.16c-.04.92-.13 1.77-.26 2.56.31.44.68.81 1.12 1.1V28.3h-3.92v-1.7h8.92v1.7h-2.92v1.64h2.6v1.66h-2.6v2.12c.69.17 1.61.3 2.74.38l-.62-1c1.28-.52 2.45-1.22 3.5-2.1H67.9v-9.34h2.56c.13-.51.23-.89.3-1.16h-3.42v-1.7h9.32v1.7h-3.84c-.09.48-.18.87-.26 1.16h3.5V31h-2.72c1.35.65 2.51 1.36 3.48 2.12l-.7 1.08h.62l-.08 1.74h-5.8c-2.89 0-5.11-.17-6.64-.51-1.53-.34-2.69-.93-3.46-1.77-.23.97-.5 1.85-.82 2.64l-1.88-.74Zm3-9.76H59v-7h7.7v7h-5.64Zm0-4.14h3.68v-1.2h-3.68v1.2Zm3.68 2.64v-1.2h-3.68v1.2h3.68Zm10.48 9.9c-1.07-.73-2.17-1.37-3.32-1.92l.8-1.28h-2.22l.9 1.16c-.75.73-1.75 1.4-3 2 .96.03 1.75.04 2.36.04h4.48Zm-5.36-9.9H74v-1.04h-4.14v1.04Zm0 1.44v1.12H74v-1.12h-4.14Zm0 2.56v1.16H74V28.3h-4.14Z" style="fill:#1c1917"/>
      </g>
      <g style="isolation:isolate">
        <path d="M89.3 33.2c1.53-.19 2.72-.79 3.55-1.81.83-1.02 1.25-2.38 1.25-4.09 0-1.53-.49-2.82-1.48-3.85-.99-1.03-2.25-1.61-3.8-1.73-.31 2.56-.67 4.71-1.09 6.46-.42 1.75-.89 3.07-1.41 3.98s-1.04 1.54-1.57 1.9c-.53.36-1.11.54-1.75.54-1.03 0-1.97-.6-2.82-1.8-.85-1.2-1.28-2.67-1.28-4.4 0-2.55.87-4.62 2.6-6.21 1.73-1.59 4-2.39 6.8-2.39 2.25 0 4.12.71 5.59 2.12 1.47 1.41 2.21 3.21 2.21 5.38s-.58 4.09-1.73 5.47-2.71 2.16-4.67 2.33l-.4-1.9Zm-2.56-11.38c-1.79.28-3.21 1.01-4.26 2.19-1.05 1.18-1.58 2.64-1.58 4.39 0 1.13.24 2.12.71 2.95.47.83.94 1.25 1.39 1.25.21 0 .43-.09.66-.27.23-.18.48-.52.77-1.02.29-.5.56-1.14.82-1.91s.52-1.81.79-3.12.5-2.79.7-4.46Z" style="fill:#1c1917"/>
      </g>
    </g>
  </g>
</svg>
