<svg xmlns="http://www.w3.org/2000/svg" data-name="Layer 1" viewBox="0 0 907.16 567.26">
  <g style="opacity:.5">
    <g data-name="DXDX" style="isolation:isolate">
      <path d="M20.89 278.19 3.35 77.39l160.36-14.01c7.25-.63 14.1.59 20.55 3.68s11.8 7.54 16.06 13.35c4.25 5.81 6.7 12.34 7.33 19.59l10.52 120.48c.63 7.25-.64 14.11-3.82 20.57-3.18 6.46-7.68 11.77-13.5 15.93s-12.35 6.56-19.6 7.19L20.89 278.18Zm38.02-44.07 116.85-10.21c.37-.03.72-.25 1.07-.66.34-.4.49-.79.46-1.16l-10.18-116.57c-.03-.37-.25-.72-.66-1.07-.41-.34-.79-.49-1.16-.46L48.44 114.2c-.37.03-.73.25-1.07.66-.34.41-.49.79-.46 1.16l10.18 116.57c.03.37.25.73.65 1.07.4.34.79.49 1.16.46ZM250.12 258.16l-1.1-12.55 65.95-94.28-81.3-81.42-1.1-12.55 42.67-3.73 63.72 63.56 51.46-73.62 42.39-3.7 1.1 12.55-65.95 94.28 81.55 81.11 1.12 12.83-42.67 3.73-63.97-63.26-51.2 73.32-42.67 3.73ZM479.92 238.09 462.38 37.3l167.33-14.62c6.14-.54 11.89.46 17.26 2.99 5.37 2.53 9.77 6.22 13.19 11.07 3.42 4.86 5.4 10.35 5.94 16.48l11.69 133.86c.54 6.13-.46 11.89-2.99 17.26-2.53 5.38-6.22 9.77-11.07 13.19-4.86 3.42-10.35 5.4-16.48 5.94l-167.33 14.62Zm31.49-25.51 133.86-11.69c2.97-.26 5.44-1.55 7.39-3.88 1.95-2.32 2.8-4.97 2.54-7.95L643.51 55.2c-.26-2.97-1.56-5.44-3.88-7.39-2.33-1.95-4.98-2.8-7.95-2.54L497.82 56.96c-2.98.26-5.44 1.56-7.39 3.88-1.95 2.33-2.8 4.98-2.54 7.95l11.69 133.86c.26 2.98 1.55 5.44 3.88 7.39 2.32 1.95 4.97 2.8 7.95 2.54ZM709.16 218.07l-.02-.28 75.48-107.48-92.97-92.76-.02-.28 29-2.53 77.23 76.71 62.48-88.92 29-2.53.02.28-75.48 107.47 93.25 92.74.02.28-29.28 2.56-76.96-76.74-62.76 88.94-29 2.53Z" style="fill:#f8f6ed"/>
    </g>
    <g data-name="DXDX" style="isolation:isolate">
      <path d="m17.54 567.26-.02-.28L93 459.51.02 366.75l-.02-.28 29-2.53 77.23 76.71 62.49-88.92 29-2.53.02.28-75.48 107.47 93.25 92.74.02.28-29.28 2.56-76.96-76.74-62.76 88.94-29 2.53ZM247.34 547.19 229.8 346.4l167.33-14.62c6.13-.54 11.89.46 17.26 2.99 5.37 2.53 9.77 6.22 13.19 11.07 3.42 4.86 5.4 10.35 5.94 16.48l11.69 133.86c.54 6.13-.46 11.89-2.99 17.26-2.53 5.38-6.22 9.77-11.07 13.19-4.86 3.42-10.35 5.4-16.48 5.94l-167.33 14.62Zm31.49-25.51 133.86-11.69c2.97-.26 5.44-1.55 7.39-3.88 1.95-2.32 2.8-4.97 2.54-7.95L410.93 364.3c-.26-2.97-1.56-5.44-3.88-7.39-2.33-1.95-4.98-2.8-7.95-2.54l-133.86 11.69c-2.98.26-5.44 1.55-7.39 3.88-1.95 2.33-2.8 4.98-2.54 7.95L267 511.75c.26 2.97 1.55 5.44 3.88 7.39 2.32 1.95 4.97 2.8 7.95 2.54ZM476.58 527.16l-1.1-12.55 65.95-94.28-81.3-81.42-1.1-12.55 42.67-3.73 63.72 63.56 51.46-73.62 42.39-3.7 1.1 12.55-65.95 94.28 81.55 81.12 1.12 12.83-42.67 3.73-63.98-63.26-51.2 73.32-42.67 3.73ZM706.37 507.09 688.83 306.3l160.36-14.01c7.25-.63 14.1.6 20.55 3.68 6.45 3.09 11.8 7.54 16.06 13.35 4.25 5.81 6.7 12.34 7.33 19.59l10.52 120.48c.63 7.25-.64 14.11-3.82 20.57-3.19 6.46-7.68 11.77-13.5 15.93s-12.35 6.56-19.6 7.19l-160.36 14.01Zm38.02-44.07 116.85-10.21c.37-.03.72-.25 1.07-.66.34-.4.49-.79.46-1.16l-10.18-116.57c-.03-.37-.25-.72-.65-1.07-.41-.34-.79-.49-1.17-.46L733.92 343.1c-.38.03-.73.25-1.07.66-.34.41-.49.79-.46 1.16l10.18 116.57c.03.37.25.73.66 1.07.4.34.79.49 1.17.46Z" style="fill:#f8f6ed"/>
    </g>
  </g>
</svg>
