<?xml version="1.0" encoding="UTF-8"?>
<svg id="a" data-name="Layer 1" xmlns="http://www.w3.org/2000/svg" xmlns:xlink="http://www.w3.org/1999/xlink" viewBox="0 0 228.28 266.21">
  <defs>
    <linearGradient id="u" x1="131.84" y1="94.02" x2="146.34" y2="94.02" gradientUnits="userSpaceOnUse">
      <stop offset="0" stop-color="#da7629"/>
      <stop offset="1" stop-color="#fcc357"/>
    </linearGradient>
    <clipPath id="al">
      <path d="m156.34,254.91c-1.63.63-1.79,2.06-3.63,2-1.69-.03-3.37-.22-5.01-.55-.11-.03-.2-.1-.25-.19-.16-.29-.45-.5-.79-.58-.88.35-1.78.66-2.7.92-1.59.58-3.12,1.26-4.58,2.06-.58.55-1.33.94-2.15,1.13h0c-.26.06-.42.3-.35.53,0,0,0,0,0,0l1.38,4.28c-.09.57-.02,1.16.19,1.7,1.72.01,3.44.02,5.15.02h.44c8.31,0,16.6-.13,24.87-.4.22,0,.39-.16.4-.36l-.07-8.86-1.6-.27c-2.05-.05-9.53-.27-10.92-1.36-.06-.05-.14-.07-.22-.07-.05,0-.09,0-.14.03" style="fill: #160f18;"/>
    </clipPath>
  </defs>
  <path id="b" data-name="blob" d="m2.15,89.75c9.79-28.97,53.13-40.73,86.07-53.48,32.95-12.92,55.66-26.81,81.68-19.57,25.86,7.24,55.19,35.6,58.11,70.41,3.08,34.81-20.26,76.21-56.05,97.77-35.64,21.73-83.76,23.95-119.79,1.89C16.3,164.72-7.47,118.72,2.15,89.75Z" style="fill: #d9eee7;"/>
  <g id="c" data-name="step">
    <g id="d" data-name="Mask Group 4">
      <g id="e" data-name="consultation">
        <g id="f" data-name="Group 1766">
          <g id="g" data-name="Group 1765">
            <path id="h" data-name="Path 1232" d="m90.61,93.39c.07-.44.02-.89-.16-1.3-.93-2.79-2.41-8.19-4.45-16.21-3.06-12-4.7-24.33-4.89-36.71l-20.06-2.04c5.36,7.87,9.53,16.47,12.39,25.55.44,1.51.99,2.98,1.66,4.4,1.03,3.04,1.7,6.18,2,9.37.59,5.01.85,10.06.78,15.1l-.11,3.33c-1.99-.18-3.87.97-4.6,2.83-.42.14-.6.44-.72,1.13-.2,1.26-.38,2.52-.56,3.78h20.96l-1.58-8.56c-.19.19-.37.39-.56.58.01-.42-.02-.84-.1-1.25" style="fill: #fff;"/>
            <path id="i" data-name="Path 1233" d="m152.98,24.24c1.54,0,3.06.24,4.51.73,1.6.82,3.08,1.83,4.42,3.02,5.15,5.5,8.93,13.3,11.85,20.18,1.69,3.81,4.58,10.24-.45,12.02-3.17,1.03-6.51,1.4-9.83,1.09l-1.93-1.36c-.93-2.23-1.46-4.61-1.58-7.03-.1-2.61-.2-3.99-.29-6.03,0-.13.08-.24.2-.26,2.57-.57,3.79-1.93,3.66-4.07-.17-2.89-3.83-2.93-3.63-.6.03.34.06,1.66-.68.55-1.18-1.86-2.97-3.24-5.07-3.9-3.69-1.2-7.21-2.87-10.47-4.96-.08-.05-.17-.03-.22.05,0,0,0,.01-.01.02-1.16,2.58-1.68,5.39-1.51,8.21.01.06-.01.12-.06.16l-.08.05c-.45-1.84-.77-3.71-.95-5.59-.21-2.99,1.28-5.32,2.8-7.72.66-.87,1.45-1.63,2.33-2.27,2.11-1.3,4.5-2.09,6.98-2.3" style="fill: #1c162e;"/>
            <path id="j" data-name="Path 1234" d="m161.55,59.93l-11.31,11.78-.32-.18c-.1-.05-.17-.15-.19-.26-.04-.39-.62-4.22-1.5-3.81.44-2.24,1.23-4.39,2.32-6.39l.42-6.01c.05-.68-.27-.93-.94-.78-.68.18-1.38.22-2.07.12-2.06-.38-4.1-4.36-4.73-6.14-.51-1.87-1.69-3.48-1.46-5.38l.03-.75.08-.05s.07-.1.06-.16c-.16-2.82.35-5.64,1.51-8.21.04-.08.13-.12.21-.08,0,0,0,0,0,0h.02c3.27,2.1,6.79,3.77,10.47,4.97,2.1.66,3.89,2.04,5.07,3.9.73,1.12.7-.21.68-.54-.2-2.33,3.45-2.29,3.63.6.13,2.14-1.09,3.49-3.66,4.07-.12.03-.21.14-.2.26.08,2.04.19,3.42.29,6.03.11,2.42.65,4.8,1.58,7.03" style="fill: #fdb597;"/>
            <path id="k" data-name="Path 1235" d="m143.25,48.26c.63,1.78,2.67,5.76,4.73,6.14.69.1,1.39.06,2.07-.12.68-.15.99.11.94.78l-.42,6.01-5.76,1.47-.19-.75-1.37-13.54Z" style="fill: #1a142c;"/>
            <path id="l" data-name="Path 1236" d="m161.55,59.93l1.93,1.36,3.62,3.32c-2.22,2.45-4.29,5.03-6.19,7.74-.1.14-.3.18-.44.08-1.12-.79-2.35-1.41-3.65-1.85-.08-.03-.17.02-.2.1,0,.02,0,.04,0,.06l.39,4.98c.01.22-.15.41-.36.44-2.52.38-4.92.66-7.2.84-.54.13-1.08-.2-1.21-.73-.03-.11-.03-.22-.02-.33.79-1.35,1.47-2.77,2.02-4.24l11.31-11.79Z" style="fill: #fefefe;"/>
            <path id="m" data-name="Path 1237" d="m150.56,61.07c-1.1,2-1.88,4.15-2.32,6.39-.29,3.49-.86,6.96-1.69,10.36-.36,1.6-1.24.75-1.8.06-.67-.83-1.42-1.69-2.24-2.61-.23-.26-.25-.65-.03-.93.98-1.25,1.82-2.62,2.5-4.06.29-.61.1-.82-.57-.64l-2.28.63c-.16.04-.33-.06-.36-.22,0,0,0,0,0,0,0-.03-.01-.07-.01-.1l.24-6.57,2.72-.73c.05-.01.1-.05.11-.11l5.75-1.46Z" style="fill: #fff;"/>
            <path id="n" data-name="Path 1238" d="m144.62,61.79l.19.75c-.01.05-.05.1-.11.11-.49-.19-.51-.47-.08-.85" style="fill: #f6e1c8;"/>
            <path id="o" data-name="Path 1240" d="m141.16,63.62c-.53,2.78-.84,5.6-.94,8.43-.05,1.02-.2,2.04-.46,3.03-.73,3.49-1.77,6.91-3.11,10.21-.05.11-.05.24,0,.35.83,1.73,3.75-8.41,3.87-8.81.08-.29.2-.3.34-.03,1.03,2,2.55,3.85,2.89,6.15.06,3.83,0,7.65-.17,11.46.09,1.13.25,2.25.5,3.36-1.54-3.09-3.11-6.15-4.73-9.18-1.41-2.64-4.68-2.68-7.24-3.52-.09-.07-.11-.21-.04-.3.01-.01.02-.03.04-.04.37-.18.61-.54.65-.95.15-4.09.22-7.93,1.91-11.24,1.13-2.21,3.97-7.55,6.49-8.93" style="fill: #c9be68;"/>
            <path id="p" data-name="Path 1241" d="m168.18,65.6c1.13.96,2.36,1.82,3.65,2.55-3.82,1.94-4.29,5.84-3.88,9.77.51,4.78,1.14,9.54,1.89,14.28.21,1.47.5,2.92.88,4.36l-.55-.04c-.11-.01-.22.04-.26.14l-1.76,4.1-1.35,3.64-1.38,3.16-.68,1.31h-.16c-3.3-1.12-6.63-2.15-9.98-3.1-.46-.16-.97-.05-1.31.29-1.65.05-3.28-.38-4.68-1.26.39-5.12.63-10.23.74-15.35.05-2.36.31-4.86.42-7.33l9.11-4.51c.11-.05.2-.14.25-.25.32-.61.46-1.29.41-1.98-.04-.44.14-.56.54-.36.31.17.68.22,1.03.13.12-.04.21-.11.28-.21l6.82-9.35Z" style="fill: #c9be68;"/>
            <path id="q" data-name="Path 1243" d="m171.42,100.83c-.04-.11-.05-.24-.02-.36l-.29-2.28c-.11-.55-.25-1.1-.4-1.64-.38-1.43-.67-2.89-.88-4.36-.75-4.74-1.38-9.5-1.89-14.28-.41-3.93.06-7.82,3.88-9.77.24-.03.48.06.64.24-4.8.89-3.98,7.7-3.56,11,1.08,8.5,2.2,16.99,3.36,25.48.03.11-.04.23-.15.25,0,0,0,0-.01,0-.14-.22-.22-.48-.22-.75,0-.11-.05-.22-.14-.29l-.33-3.27Z" style="fill: #c9be68;"/>
            <path id="r" data-name="Path 1244" d="m179.75,71.3c.52.94.93,1.94,1.21,2.98,1.23,10.44,2.21,20.9,3.63,31.32.24,2.73.39,5.46.45,8.2.07,3.38-1.25,6.67-5.03,7.16-2.37.09-4.74-.18-7.02-.79-1.85-.42-3.68-.96-5.47-1.6-5.47-1.6-10.83-3.57-16.03-5.9.27-2.24.94-4.41,1.97-6.41.42-.34,9.32,2.34,11.09,2.61h.16l3.29.75h.06c.14.1.31.14.48.11.74.12,1.5.11,2.24-.03,2.4-.58,1.7-4.4,1.32-4.37-.02-.06-.02-.13,0-.19.11-.02.19-.14.17-.25,0,0,0,0,0,0-1.16-8.49-2.28-16.98-3.36-25.48-.42-3.31-1.25-10.11,3.56-11,3.2-.76,5.62.21,7.28,2.9" style="fill: #c9be68;"/>
            <path id="s" data-name="Path 1245" d="m124.59,83.16l1.67.29c-.26.77,0,1.61.63,2.11,1.84,1.48,3.5,1.51,4.99.07,1.21.16,2.41.41,3.59.77,1.79.49,2.67.9,3.61,2.62,2.26,4.12,4.37,8.31,6.33,12.59l-2.21-.87c-.11-.03-.23-.03-.34,0l-.6.17c-.7.2-.8.44-.33.75l1.38.86c.27.17.26.25-.02.26h-1.74c-.36,0-.68.25-.78.59-.15.55.39.65.78.82.94.41,1.84.93,2.68,1.53.35.25.32.32-.1.22-.72-.18-3.58-1.18-3.39.25.02.12.09.22.2.28.73.37,1.43.81,2.07,1.31,1.66,1.38,3.39,2.7,5.18,3.96-3.38-.49-6.72-1.21-10-2.16-2.08-.7-4.21-1.27-6.36-1.71-.37-.07-.69-.31-.86-.64l-3.23-6.41c-.16-.98,1.52-2.21-.54-2.77-.18-.08-.28-.28-.21-.47l.34-1.43c.03-.14-.06-.28-.2-.31,0,0,0,0,0,0-.01,0-.03,0-.04,0l-1.86-.17c-.15,0-.27-.13-.26-.28,0-.02,0-.05.02-.07.23-.6.06-.94-.53-1.04-.65-.1-1.29-.29-1.89-.55-1.78-3.21-3.38-6.52-4.79-9.91-1.38-3.31,4.84-1.09,6.84-.62" style="fill: #d8424b;"/>
            <g>
              <path d="m167.1,64.62c-2.22,2.45-4.29,5.03-6.19,7.74-.1.14-.3.18-.44.08-1.12-.79-2.35-1.41-3.65-1.85-.02,0-.05,0-.07,0-.09.01-.15.09-.14.18l.39,4.98c.01.22-.15.41-.36.44-2.52.38-4.92.66-7.2.84-.11.03-.22.03-.32.02-.55-.05-.96-.53-.91-1.08l-1.52,2.09c-.08.11-.13.1-.14-.05v-.18c-.38,1.6-1.26.75-1.81.06-.68-.83-1.42-1.69-2.24-2.61-.24-.26-.25-.65-.03-.93.98-1.26,1.82-2.62,2.5-4.06.29-.61.1-.82-.57-.64l-2.28.63s-.06.01-.09,0c-.17-.02-.3-.17-.28-.34l.24-6.57-.81.24c-.53,2.78-.84,5.6-.94,8.43-.05,1.02-.2,2.04-.46,3.03-.73,3.5-1.77,6.92-3.11,10.23-.05.11-.05.24,0,.35.83,1.73,3.75-8.41,3.87-8.81.09-.29.2-.3.34-.03,1.03,2,2.55,3.85,2.89,6.15-.02-.12,0-.21.03-.29-.03.07-.04.16-.02.28.06,3.82,0,7.64-.17,11.46.09,1.13.25,2.25.5,3.36l2.26,5.18c.47.89,1.28,1.55,2.25,1.83.39-5.12.63-10.24.74-15.35.05-2.36.31-4.86.42-7.33l9.11-4.5c.11-.05.2-.14.26-.25.32-.61.46-1.29.41-1.98-.04-.44.14-.56.54-.36.31.17.68.22,1.03.13.12-.04.22-.11.28-.21l6.81-9.35-1.08-.98Zm-20.32,22.02s.02-.02.02-.04c.14-.32.29-.64.45-.95-.16.31-.31.62-.45.94,0,.02-.02.03-.03.04Zm2.23-3.58s0,0,0,0c.04-.05.06-.11.07-.17,0-.1.03-.19.07-.28-.03.08-.06.17-.06.27,0,.06-.03.12-.07.17Z" style="fill: #c9be68;"/>
              <path d="m146.7,78.05l1.52-2.09c.79-1.35,1.47-2.77,2.03-4.24l-.33-.18c-.1-.05-.17-.15-.19-.26-.04-.39-.62-4.22-1.49-3.81-.29,3.49-.86,6.96-1.69,10.36v.17c.02.15.07.16.16.05Z" style="fill: #c9be68;"/>
            </g>
            <path id="t" data-name="Path 1247" d="m132.11,84.74c-.09.07-.11.21-.04.3.01.01.02.03.04.04-.25-.05-.33.14-.23.55-1.49,1.44-3.15,1.41-4.99-.07-.64-.5-.89-1.34-.63-2.11,2.02.05,4,.48,5.85,1.28" style="fill: #1c162e;"/>
            <path id="v" data-name="Path 1248" d="m132.11,85.08c2.56.83,5.83.88,7.24,3.52,1.61,3.03,3.19,6.09,4.73,9.18l2.26,5.18c-.55-.23-.92-.75-.94-1.35-1.96-4.28-4.07-8.47-6.33-12.59-.94-1.71-1.82-2.13-3.61-2.62-1.17-.36-2.37-.61-3.59-.77-.1-.42-.02-.6.23-.55" style="fill: url(#u);"/>
            <path id="w" data-name="Path 1249" d="m122.54,93.69c.61.26,1.24.44,1.89.54.58.09.76.44.52,1.04-.05.14.03.29.17.33,0,0,0,0,0,0,.02,0,.05.01.07.02l1.86.17c.15,0,.26.13.25.28,0,.01,0,.02,0,.04l-.34,1.43c-.07.19.03.39.21.47,2.06.56.38,1.79.54,2.77-.27.13-.39.27-.34.43-.7.91-1.67,1.59-2.77,1.95-.39.16-.84.04-1.11-.28-1.23-1.31-2.01-4.4-2.39-6.14l-.49-2.13c-.03-.12,0-.24.09-.32.48-.49,1.16-.72,1.84-.6" style="fill: #fdb597;"/>
            <path id="x" data-name="Path 1250" d="m121.1,96.74c.38,1.74,1.16,4.83,2.39,6.14.27.32.72.44,1.11.28,1.1-.35,2.06-1.03,2.77-1.95.38-.03,3.08,5.6,3.46,6.32.14.29.4.5.72.57l6.62,1.45c3.28.95,6.62,1.68,10,2.16,1.12-.02,2.23.32,3.14.98-.25.55-.07.98.54,1.31,4.88,2.56,10.2,4.19,15.68,4.81.53.3.53.59,0,.87l-4.29.09-25.54-.93-4.45-.17c-.12,0-1.13-4.82-1.22-4.74-1.09,1-3.16,1.88-8.13,3.62-6.68-2.11-4.51-10.61-4.06-15.59.13-1.48.33-2.94.58-4.4.1-.36.35-.66.68-.82m23.98,20.27c.16.2.36.37.57.51.1.06.22.05.31-.02.84-.69,4.51-4.75,1.82-5.31-1.3-.27-2.57-.48-3.81-.62-.37-.09-.74.14-.82.51,0,.02,0,.03,0,.05-.73,2.75.49,3.14,1.95,4.88" style="fill: #c9be68;"/>
            <path id="y" data-name="Path 1251" d="m145.4,101.61c.02.6.38,1.12.94,1.35.47.89,1.28,1.55,2.25,1.83,1.4.87,3.03,1.31,4.68,1.26.14-.01.21.06.2.2-1.04,2-1.7,4.17-1.97,6.41l-.19.03c-.91-.66-2.01-1-3.14-.98-1.79-1.26-3.51-2.58-5.18-3.96-.65-.5-1.34-.94-2.07-1.31-.11-.05-.18-.16-.2-.28-.19-1.43,2.66-.43,3.39-.25.42.11.45.03.1-.22-.84-.6-1.74-1.11-2.68-1.53-.38-.17-.93-.26-.78-.82.1-.35.42-.58.78-.58h1.74c.28-.01.29-.1.02-.26l-1.38-.86c-.48-.3-.37-.55.33-.75l.6-.17c.11-.04.23-.04.34,0l2.21.87Z" style="fill: #fdb597;"/>
            <path id="z" data-name="Path 1252" d="m127.72,100.79l3.23,6.41c.17.33.49.57.86.64,2.15.44,4.28,1.01,6.36,1.71l-6.62-1.45c-.31-.08-.57-.29-.72-.57-.38-.72-3.08-6.35-3.46-6.32-.04-.16.07-.3.34-.43" style="fill: #1c162e;"/>
            <path id="aa" data-name="Path 1254" d="m164.56,108.86c-1.77-.27-10.67-2.95-11.09-2.61.01-.14-.06-.21-.2-.2.35-.34.86-.45,1.31-.29,3.35.95,6.68,1.98,9.98,3.1" style="fill: #ad9d19;"/>
            <path id="ab" data-name="Path 1255" d="m145.08,117.02c-1.46-1.74-2.68-2.13-1.95-4.88.06-.37.41-.63.78-.57.02,0,.03,0,.05,0,1.24.15,2.51.35,3.81.62,2.69.56-.98,4.61-1.82,5.31-.09.07-.21.08-.31.02-.21-.14-.41-.31-.57-.51" style="fill: #c9be68;"/>
            <path id="ac" data-name="Path 1256" d="m151.31,112.7l.19-.03c5.2,2.33,10.56,4.3,16.03,5.9v.25c-5.48-.62-10.8-2.25-15.68-4.81-.61-.33-.79-.77-.54-1.31" style="fill: #ad9d19;"/>
            <path id="ad" data-name="Path 1257" d="m133.25,118.68l29.99,1.09c-.53.66.15,1.63.28,2.22,1.74,7.69,2.83,15.51,3.26,23.38-11.18-.24-22.36-.7-33.53-1.39.6-4.7,0-25.31,0-25.31Z" style="fill: #1c162e;"/>
            <path id="ae" data-name="Path 1258" d="m167.53,119.69c2.61,7.87,4.61,15.94,5.96,24.12.03.46-.1.91-.38,1.28-2.09.34-4.21.44-6.33.29-.43-7.87-1.52-15.69-3.26-23.38-.13-.59-.81-1.56-.28-2.22l4.29-.09Z" style="fill: #1c162e;"/>
            <path id="af" data-name="Path 1259" d="m133.25,141.41c11.17.6,22.35,1.01,33.53,1.23,2.11.13,4.24.04,6.33-.26l.23,6.95-.28,5.65-.77,16.66-1.21,27.68-2.06,43.41c0,.1-.07.2-.18.24-.36.13-.75.17-1.13.11l-6.71-.03c1.64.22,1.46-.55,1.35-1.54-1.53-13.66-3.14-27.31-4.81-40.96-2.19-17.88-3.56-36.12-4.12-54.71,0-.22-.2-.41-.45-.42l-4.34-.13c-.1,0-.19.07-.19.16h0c.08,4.17.32,9.11.72,14.81,1.87,27.14,5.2,53.09,8.57,79.58.05.18-.02.37-.19.48l-6.34.49c.22-.25.15-.46-.21-.63-.51-.23-.78-.45-.82-.68-.69-3.75-1.4-7.49-2.15-11.22-.3-1.5-.51-3.32-.86-4.98-.76-3.58-1.29-6.99-1.99-10.48-.38-1.87-.52-4.03-.94-6.03-.92-4.4-1.71-8.81-2.38-13.25-.46-3.04-1.48-6.83-1.67-10.37-.01-.11-.05-.21-.1-.31-.1-.26-.18-.53-.24-.8-.58-2.57-1-5.65-1.39-7.74-.98-5.25-1.91-10.5-2.8-15.75-.04-.28.12-.96-.59-.61-.68-3.42-1.22-6.86-1.6-10.31l-.24-6.26Z" style="fill: #1c162e;"/>
            <path id="ag" data-name="Path 1260" d="m161.01,243.06l-1.84.1c-.15-.09-.34-.11-.51-.06-.48-.76-.73-1.61-.75-2.48.01-.11-.05-.21-.15-.26-.06-.02-.13-.03-.2-.02.17-.11.24-.3.19-.48-3.37-26.49-6.7-52.44-8.58-79.58-.39-5.7-.63-10.64-.72-14.81,0-.09.08-.17.18-.17h0l4.34.13c.25.01.45.2.45.42.56,18.59,1.93,36.83,4.12,54.71,1.67,13.65,3.27,27.3,4.81,40.96.11.99.3,1.75-1.35,1.54" style="fill: #393b40;"/>
            <path id="ah" data-name="Path 1261" d="m151.22,240.84l-.63.09c-.31.07-.51-.14-.6-.64-4.61-23.8-7.92-42.24-11.64-63.37l-3.25-18.93c.72-.35.55.33.59.61.88,5.26,1.81,10.51,2.8,15.75.39,2.09.8,5.17,1.39,7.74.05.27.13.54.24.8.05.1.08.2.1.31.18,3.54,1.21,7.34,1.67,10.37.67,4.43,1.46,8.85,2.38,13.25.42,2.01.56,4.16.94,6.03.71,3.49,1.23,6.9,1.99,10.48.35,1.65.56,3.48.86,4.98.75,3.73,1.47,7.48,2.15,11.22.04.22.31.45.82.68.36.16.43.37.21.63" style="fill: #070409;"/>
            <path id="ai" data-name="Path 1262" d="m157.56,240.34c.07,0,.13,0,.2.02.1.05.16.15.15.26.01.87.27,1.72.75,2.48.21,3.11.29,6.23.23,9.36-.01.43.24.82.26.2.13-3.16.13-6.33.02-9.5l1.84-.1,6.71.03-.08,9.38-.02,3.86c-2.05-.05-9.53-.27-10.92-1.36-.1-.08-.24-.1-.36-.05-1.63.63-1.79,2.06-3.63,2-1.69-.03-3.37-.22-5.01-.55-.11-.03-.2-.1-.25-.19-.16-.29-.45-.5-.79-.58l1.6-.89c.79-.41,2.81-1.28,2.44-2.04l-.1-11.72.63-.09,6.33-.49Z" style="fill: #fdb597;"/>
            <path id="aj" data-name="Path 1263" d="m158.65,243.1c.17-.05.36-.03.51.06.11,3.18.1,6.34-.02,9.5-.02.63-.28.23-.26-.2.06-3.14-.02-6.26-.23-9.36" style="fill: #ebdfd6;"/>
          </g>
        </g>
        <g id="ak" data-name="Group 1768">
          <g>
            <path d="m156.34,254.91c-1.63.63-1.79,2.06-3.63,2-1.69-.03-3.37-.22-5.01-.55-.11-.03-.2-.1-.25-.19-.16-.29-.45-.5-.79-.58-.88.35-1.78.66-2.7.92-1.59.58-3.12,1.26-4.58,2.06-.58.55-1.33.94-2.15,1.13h0c-.26.06-.42.3-.35.53,0,0,0,0,0,0l1.38,4.28c-.09.57-.02,1.16.19,1.7,1.72.01,3.44.02,5.15.02h.44c8.31,0,16.6-.13,24.87-.4.22,0,.39-.16.4-.36l-.07-8.86-1.6-.27c-2.05-.05-9.53-.27-10.92-1.36-.06-.05-.14-.07-.22-.07-.05,0-.09,0-.14.03" style="fill: #160f18;"/>
            <g style="clip-path: url(#al);">
              <g id="am" data-name="Group 1767">
                <rect id="an" data-name="Rectangle 1364" x="136.79" y="254.89" width="32.51" height="11.33" style="fill: #160f18;"/>
              </g>
            </g>
          </g>
        </g>
        <g id="ao" data-name="Group 1770">
          <g id="ap" data-name="Group 1769">
            <path id="aq" data-name="Path 1265" d="m139.37,258.4c-.58.54-1.33.93-2.15,1.13-.26.06-.42.3-.35.53h0l1.38,4.28c-1.65-.25-3.32-.34-5-.27-.11.01-.2-.06-.22-.15h0s-.04-2.04-.04-2.04c0-.33.23-.63.57-.78l5.81-2.69Z" style="fill: #393b40;"/>
            <path id="ar" data-name="Path 1266" d="m89.31,10.26c-3.68-.41-7.96-.36-11.91-1.23-.1-.02-.2.04-.22.14-.69,3.1-2.39,5.87-4.84,7.9-.78.65-1.39,1.49-1.77,2.43-.08.03-.15.1-.19.19-.74-1.13-.53-3.7-2.73-3.07-2.05.59-2.21,3.72-.93,5.1.82.89.54,3.12.28,4.52-.03.11-.1.21-.2.27l-.86.63c.23-3.36-.22-7.54-.25-9.95s0-4.8.08-7.2c.12-3.15.96-6.21,4.31-6.81.12-.02.22-.1.26-.22,1.57-4.12,4.22-3.09,7.78-1.96,3.86,1.22,7.67,2.55,11.46,3.99,1.2.45,2.87,1.4,2.67,3.05-.22,1.69-1.19,2.44-2.92,2.23" style="fill: #1a142c;"/>
            <path id="as" data-name="Path 1267" d="m89.31,10.26c-.28.08-.25.19.1.33.14.06.23.18.24.33.32,5.5-.52,9.65-1.83,15.3-1.07,4.63-2.13,10.24-7.94,10.58-.11,0-.22.08-.26.18-1.03,2.39-2.56,4.53-4.49,6.28-.11-.06-.24-.06-.36-.02l-10.51-5.09c-.14-.07-.21-.22-.19-.37l1.86-10.65.86-.63c.1-.06.17-.16.2-.27.26-1.4.54-3.63-.28-4.52-1.29-1.38-1.13-4.51.93-5.1,2.2-.63,1.99,1.93,2.73,3.07l-.62,1.61c-.07.16,0,.35.17.41.02,0,.03.01.05.02,1.38.28.63-1.55.58-2.23.38-.94.99-1.78,1.77-2.43,2.45-2.02,4.15-4.8,4.84-7.9.02-.1.12-.16.22-.14,3.95.86,8.23.82,11.91,1.23" style="fill: #fcb195;"/>
            <path id="at" data-name="Path 1268" d="m70.56,19.5c.04.67.79,2.51-.58,2.23-.17-.04-.27-.21-.23-.37,0,0,0,0,0,0,0-.02,0-.04.02-.05l.62-1.61c.03-.08.1-.15.19-.19" style="fill: #1c162e;"/>
            <path id="au" data-name="Path 1269" d="m90.61,93.39c-.11.37-.46.49-1.05.34-1.05-.27-2.11-.48-3.18-.64-.29-.05-.58.09-.73.35-.27.48-.53.63-.8.45-2.06,1.53-4.45,2.57-6.98,3.02,0,0-.02,0-.02,0-.08-.01-.13-.08-.12-.15l.02-.91c-.34-.05-.48.05-.42.29.03.12.05.24.04.37-.16,1.79,1.07.83,1.76.6,1.22-.39,3.2-1.43,4.42-1.04.12.04.22.12.28.22.18.31.2.68.05,1h0c-.03.1.01.19.1.22l1.24.44c.1.05.16.15.15.25.02.45.97.13.27.82-.15.15-.23.35-.23.56.02.94.53,1.33,1.52,1.17.24-.04.48-.12.7-.23.4-.21.47-.37.2-.49-.46.19-.95.3-1.44.31-.77-.05-.91-.37-.41-.97.57-.69,1.19-1.34,1.85-1.95.99-.9,1.95-1.82,2.9-2.77.01-.42-.02-.84-.1-1.25" style="fill: #fcb195;"/>
            <path id="av" data-name="Path 1270" d="m75.13,43.27l2.04,3.01c.12.18.06.42-.12.53,0,0,0,0,0,0-.03.02-.06.04-.1.05-.8.28.21,2.51.33,3.14,2.83,14.55,5.11,29.26,7.57,43.88-2.06,1.53-4.45,2.57-6.98,3.02-.07,0-.14-.05-.15-.12,0,0,0,0,0,0,0,0,0-.02,0-.03l.02-.91.14-4.28c.07-5.05-.19-10.09-.78-15.1-.3-3.19-.97-6.34-2-9.37-.39-3.09-.88-8.51-1.45-16.26-.11-.94-.06-1.88.13-2.8.02-.11-.01-.22-.09-.3l-.77-.84c-.08-.09-.1-.22-.06-.33.38-1.22,1.03-2.35,1.91-3.29.12-.05.25-.04.36.02" style="fill: #da7629;"/>
            <path id="aw" data-name="Path 1271" d="m73.56,74.97c.51-.44,1.27-.38,1.71.13.44.51.38,1.27-.13,1.71-.48.41-1.2.39-1.65-.06-.47-.51-.44-1.3.07-1.77" style="fill: #fff;"/>
            <path id="ax" data-name="Path 1272" d="m121.28,86.69l-5.79,6.26c-.87-.64-1.76-1.25-2.66-1.85-1.48-.97-2.41.21-1.31,1.46.09.1,2.31,2.53,1.61,2.17-.5-.25-6.06-3.03-5.98-1.68.05.84,3.39,2.78,3.91,3.3.49.47.43.57-.2.3-1.54-.68-3.15-1.18-4.81-1.48-.76-.14-2.19.27-.74,1.25.3.2,2.67,1.65,2.69,1.77s-.04.14-.18.07c-1.21-.62-3.2-2.16-4.55-1.86-.18.04-.3.22-.25.4,0,0,0,0,0,0,0,.03.02.06.03.08.67,1.19,1.61,2.21,2.75,2.97.44.3.4.5-.13.59l-6.49,1.15-6.34,1.03-3.79.53c.21-.74.76-1.35,1.47-1.64,1.3-.58,4.28-2.34,4.09-4.06-.01-.12-.11-.2-.23-.19,0,0,0,0,0,0h-.01c-2.19.34-4.3,1.83-6.38,2.64-.48-.21-1.03-.22-1.51,0-.16.06-.27.04-.31-.05-.03-.12,0-.24.09-.33,1.43-1.89,3.52-3.38,4.9-4.82,5.04-5.29,8.2-8.65,9.48-10.08,2.22-2.48,3.88-2.53,7.37-2.91,1.18-.13,2.36-.21,3.54-.24l.34,1.57c.04.11.13.2.25.22,2.29.54,4.7-.06,6.45-1.63l.6-.86c.06-.1.16-.17.27-.19l5.46-.85c2.49-.2,1.23,1.52.51,2.33-1.38,1.55-2.78,3.09-4.18,4.62" style="fill: #30596a;"/>
            <path id="ay" data-name="Path 1273" d="m119.43,80.01c-.4.47-.68,1.04-.81,1.64-1.76,1.56-4.17,2.17-6.45,1.63-.12-.02-.22-.1-.25-.22l-.34-1.57.09-.47c.26-.31.63-.52,1.04-.57,2.19-.59,4.47-.74,6.72-.44" style="fill: #f16e4b;"/>
            <path id="az" data-name="Path 1274" d="m124.95,79.74l-5.46.85c-.11.03-.21.1-.27.19l-.6.86c.13-.6.41-1.17.81-1.64l5.52-.27Z" style="fill: #1c162e;"/>
            <path id="ba" data-name="Path 1275" d="m111.67,81.02l-.09.47c-1.19.03-2.37.11-3.54.24-3.49.38-5.15.43-7.37,2.91-1.28,1.43-4.44,4.79-9.48,10.08-1.38,1.44-3.47,2.94-4.9,4.82-.08.09-.12.21-.09.33.04.1.15.12.31.05.48-.21,1.03-.21,1.51,0-.1,0-.16.03-.19.09-.46.19-.95.3-1.44.31-.77-.05-.91-.37-.41-.97.57-.69,1.19-1.34,1.85-1.95,4.64-4.2,8.75-9.03,13.2-13.66,1.22-1.36,2.97-2.12,4.79-2.08l5.86-.66Z" style="fill: #070409;"/>
            <path id="bb" data-name="Path 1276" d="m94.63,97.45c-.02-.11-.13-.19-.24-.18-2.19.34-4.3,1.83-6.38,2.64-.1,0-.16.03-.19.09.27.12.2.28-.2.49-.22.12-.45.2-.7.23-1,.16-1.5-.23-1.52-1.17,0-.21.08-.41.23-.56.7-.69-.25-.37-.27-.82,0-.11-.05-.21-.15-.25l-1.24-.44h-.01c-.08-.04-.12-.14-.08-.22.15-.32.13-.7-.05-1-.06-.11-.16-.19-.28-.22-1.22-.39-3.21.65-4.42,1.04-.69.22-1.92,1.18-1.76-.6,0-.12-.01-.25-.04-.37-.06-.24.08-.33.42-.29l.03-.95c-1.99-.18-3.87.97-4.6,2.83.22-.06.45-.1.69-.1.52-.01.55.09.07.31-.94.44-.79.85-.7,1.87.24,2.7.59,5.39,1.06,8.06.88.67,2.04.85,3.08.47l.25-1.7c.01-.12.08-.22.18-.28.62-.35,1.34-.44,2.03-.25,2.23-.43,4.4-1.08,6.5-1.96.87-.44,1.79-.77,2.74-.97.21-.74.76-1.35,1.47-1.64,1.3-.58,4.28-2.34,4.09-4.06h0" style="fill: #fcb195;"/>
            <path id="bc" data-name="Path 1277" d="m116.09,106.46c.21-.34.39-.71.53-1.08.23-.84.38-1.69.46-2.55.17-1.27.54-2.51,1.1-3.67-.39-2.26-1.32-4.39-2.7-6.21-.87-.64-1.76-1.25-2.66-1.85-1.48-.97-2.41.21-1.31,1.46.09.1,2.31,2.53,1.61,2.17-.5-.25-6.06-3.03-5.98-1.68.05.84,3.39,2.78,3.91,3.3.49.47.43.57-.2.3-1.54-.68-3.15-1.18-4.81-1.48-.76-.14-2.19.27-.74,1.25.3.2,2.67,1.65,2.69,1.77s-.04.14-.18.07c-1.21-.62-3.2-2.16-4.56-1.86-.03,0-.06.02-.08.03-.16.09-.23.29-.14.46,0,0,0,0,0,0,.67,1.19,1.61,2.21,2.75,2.97.44.3.4.5-.13.59l-.84.15c.66,4.69,6.58,6.65,11.26,5.86" style="fill: #fcb195;"/>
            <path id="bd" data-name="Path 1278" d="m104.83,100.6l-5.64,1c.76.11.52.66.61,1.13.46,2.42,1.13,4.79,2.01,7.09.54.71,1.04,1.45,1.5,2.21,1.12,1.89,5.88-.14,7.27-.98,1.06-.62,2.07-1.32,3.04-2.07.98-.61,1.81-1.44,2.41-2.42.02-.03.04-.07.06-.1-4.67.79-10.59-1.17-11.26-5.86" style="fill: #488975;"/>
            <path id="be" data-name="Path 1279" d="m74.29,107.86l-2.79.7c-.11.03-.21-.03-.25-.13-.05-.16-.05-.32,0-.48.32-3.05.72-6.08,1.21-9.1.16-.98.44-1.2,1.4-1.23.52-.01.55.09.07.31-.94.44-.79.85-.7,1.87.24,2.7.59,5.39,1.06,8.06" style="fill: #fefefe;"/>
            <path id="bf" data-name="Path 1280" d="m99.19,101.6c.76.11.52.66.61,1.13.46,2.42,1.13,4.79,2.01,7.09l-.15.08c-.09.06-.13.17-.1.27l10.49,35.63c.15.53-.04.8-.6.82-.95.03-2.75.44-3.6-.09-1.98-6.16-4.18-12.25-6.6-18.25-1.45-4.67-3.07-9.3-4.88-13.87l-.29-1.36-3.24-10.42,6.34-1.02Z" style="fill: #488975;"/>
            <path id="bg" data-name="Path 1281" d="m92.85,102.63l3.24,10.42-12.2.18,3.07-4.89c.16-.28.2-.62.11-.94l-.76-3.27c.87-.44,1.79-.77,2.75-.97l3.79-.53Z" style="fill: #fff;"/>
            <path id="bh" data-name="Path 1282" d="m86.31,104.13l.76,3.27c.09.31.05.65-.11.94l-3.07,4.89-.55.11c-1.55-2.66-4.78-3.5-3.53-7.26,2.23-.43,4.4-1.08,6.5-1.96" style="fill: #da7629;"/>
            <path id="bi" data-name="Path 1283" d="m79.82,106.09c-1.25,3.76,1.98,4.6,3.53,7.26l-6.31.1.33-5.12.25-1.7c.02-.12.08-.22.18-.28.61-.35,1.34-.44,2.03-.25" style="fill: #fefefe;"/>
            <path id="bj" data-name="Path 1284" d="m96.09,113.04l.29,1.36,1.28,4.52c.06.2-.05.42-.25.49-.03,0-.06.01-.09.01-6.79.15-13.64.15-20.57,0l.29-5.97,6.31-.1.55-.11,12.19-.19Z" style="fill: #2a4c5d;"/>
            <path id="bk" data-name="Path 1285" d="m96.38,114.4c1.8,4.47,3.43,8.99,4.88,13.55-.12.11-.13.21-.04.3.53,5.54.82,11.09.88,16.65l-.28,15.85-1.77,64.4-.17,8.58-.2,9.09-.12,5.56c0,.11.07.21.18.25l11.27,4.64,1.78,1.15c.1.05.17.15.18.26l-.15,2.64c-.01.16-.15.27-.31.26l-24.69-.66c-.22-.01-.39-.19-.39-.41l-.07-4.73c0-.33-.14-.39-.4-.16-.18.13-.42.15-.63.05l-1.18-12.52-1.33-13.6c-2.07-24.77-4.57-41.44-6.88-66.04-.06-.68-.15-.68-.27,0-4.22,24.69-8.8,41.02-13.18,65.62l-.92,4.57-4.08,23.21c-.03.14.05.28.18.33l13.31,5.51c.67,1.29.81,2.78.4,4.17-.03.1-.13.17-.24.16l-3.99-.31-22.53-2.29c-.11-.01-.19-.1-.19-.21l.07-4.48c0-.16-.12-.29-.28-.29-.05,0-.09,0-.14.03-.11.05-.23.05-.34.01-.11-.04-.23-.05-.35-.02-.44.11-.6-.12-.48-.7.13-1.12.16-2.25.08-3.37l.12-4.54.44-11.95.65-19.86c.23-3.94.42-3.89.56-7.84.76-21.65,1.49-39.1,2.18-60.75.37-.05.74-.05,1.1,0,8.36.6,16.82,1.25,25.38,1.94.17.01.32-.11.34-.28h0s1.48-22.25,1.48-22.25l.5-6.65c6.92.15,13.78.15,20.57,0,.21,0,.37-.18.37-.39,0,0,0,0,0,0,0-.03,0-.07-.02-.1l-1.28-4.41Z" style="fill: #1c162e;"/>
            <path id="bl" data-name="Path 1286" d="m75.26,76.69c.44-.51.38-1.27-.12-1.71-.51-.44-1.27-.38-1.71.12-.42.48-.39,1.2.06,1.65.51.47,1.3.44,1.77-.06" style="fill: #fff;"/>
            <path id="bm" data-name="Path 1287" d="m105.5,73.56l-.24-7.74c-.09.73-.21.77-.36.13-.02-.08-.03-.17-.04-.25-.47-7.33-2.18-15.62-8.57-20.17-4.43-2.8-10.14-4.5-15.02-6.47-.02,0-.03-.01-.05-.01-.07,0-.12.05-.12.12,0,0,0,0,0,0,.19,12.39,1.83,24.71,4.89,36.71,2.04,8.02,3.52,13.42,4.45,16.21.18.41.23.86.16,1.3.07.41.11.83.1,1.25.19-.19.37-.38.56-.58,3.3-3.33,6.43-6.87,9.74-10.32,1.22-1.36,2.97-2.12,4.79-2.08-.31-2.69-.41-5.4-.31-8.11" style="fill: #488975;"/>
            <path id="bn" data-name="Path 1288" d="m77.1,76.45c-.3-3.19-.97-6.34-2-9.37-.67-1.42-1.22-2.89-1.66-4.4-2.86-9.08-7.03-17.69-12.39-25.55h0c-.06-.08-.17-.1-.25-.04l-3.05,2.28c-2.83,2.66-7.68,4.05-11.48,5.22-5.16,1.78-10.29,2.78-12.67,8.22-2.08,4.75-2.3,10.24-2.53,15.45-.2,4.86-.43,9.7-.69,14.52l-.19,4.68.03,1.31-.22,4.01c-.29,4.1-.36,8.22-.22,12.33.16,1.17.52,2.3,1.09,3.33.69,1.28,1.68,2.37,2.89,3.17.69.37,1.44.63,2.22.75,3.03.18,6.18.33,9.44.45.13,0,.24.11.24.25l-.26,12.43-.67,19.4c-.07.53-.02,1.07.16,1.57.04.11.13.2.25.24.61.22,2.65.27,2.8.61.37-.05.74-.05,1.1,0,8.36.61,16.82,1.28,25.38,1.98h0c.17.01.32-.12.34-.29,0,0,0,0,0,0l1.48-22.76.5-6.8.3-5.97.33-5.12c-1.04.38-2.2.21-3.08-.47l-2.78.7c-.11.03-.22-.03-.26-.13-.05-.16-.05-.32,0-.48.18-1.78.41-3.56.65-5.33.17-1.26.35-2.52.56-3.78.11-.69.29-.99.72-1.13.74-1.86,2.61-3.01,4.6-2.83l.11-3.33c.07-5.05-.19-10.09-.78-15.1m-1.05,47.99s.03,0,.04.01c-.03,0-.06,0-.09,0,.02,0,.03-.01.05-.01" style="fill: #488975;"/>
            <path id="bo" data-name="Path 1289" d="m101.26,128.27c2.42,6,4.62,12.09,6.6,18.25-1.94-.17-3.87-.47-5.76-.92-.06-5.69-.35-11.37-.88-17.03-.1-.09-.08-.19.04-.3" style="fill: #63a998;"/>
          </g>
        </g>
      </g>
    </g>
  </g>
</svg>