<svg xmlns="http://www.w3.org/2000/svg" data-name="Layer 1" viewBox="0 0 184.49 44">
  <path d="M45.94 42.52h1.24c.06 0 .14-.04.18-.1l5.16-8.44 2.8 9.66c.02.06.08.11.15.11h5.41c.06 0 .1-.05.08-.11l-5.71-18.07a.174.174 0 0 0-.15-.11h-2.03c-.06 0-.14.04-.18.1l-6.95 10.78-6.95-10.78a.235.235 0 0 0-.18-.1h-2.03c-.06 0-.13.05-.15.11l-5.71 18.07c-.02.06.02.11.08.11h5.41c.06 0 .13-.05.15-.11l2.8-9.66 5.16 8.44c.03.05.11.1.18.1h1.25ZM31.16 33.52a.117.117 0 0 0-.11-.09H15.63c-.81 0-1.48.66-1.48 1.48s.66 1.48 1.48 1.48h9.16c-1.09 2.88-4.78 5-9.16 5-5.24 0-9.49-3.03-9.49-6.78s4.25-6.77 9.49-6.77c2.86 0 5.43.9 7.17 2.33l.02.02c.02.01.04.02.06.02h6.3c.06 0 .11-.05.11-.12a.09.09 0 0 0-.03-.07v-.01c-2.68-2.86-7.78-4.78-13.63-4.78C7 25.23 0 29.43 0 34.62s7 9.39 15.63 9.39 15.63-4.21 15.63-9.39c0-.37-.04-.73-.1-1.09M76.24 25.22c-8.63 0-15.63 4.2-15.63 9.39s7 9.39 15.63 9.39 15.63-4.2 15.63-9.39-7-9.39-15.63-9.39m0 16.17c-5.24 0-9.49-3.03-9.49-6.78s4.25-6.78 9.49-6.78 9.49 3.03 9.49 6.78-4.25 6.78-9.49 6.78" style="fill:#005bac"/>
  <path d="M100.15 28.96V25.3h5.23v3.66h9.1V25.3h5.46v3.66h3.88c1.02 0 1.86.83 1.86 1.85s-.83 1.86-1.86 1.86h-3.88v2.3c.16 5.65-4.67 8.83-13.16 8.68h-7.03v-3.69h7.49c4.81.04 7.3-1.31 7.24-4.97v-2.32h-9.1v1.75c0 1.44-1.17 2.61-2.61 2.61s-2.61-1.17-2.61-2.61v-1.75h-5.5v-3.71h5.5ZM181.54 27.19c1.63 0 2.95 1.32 2.95 2.95v3.53c-.03 3.77-1.56 6.14-5.04 7.82-2.92 1.47-6.6 2.03-13.62 2.07h-9.07v-3.95h9.17c3.94-.02 7.16-.37 8.72-.95 2.42-.78 3.91-2.24 3.95-4.22v-4.31c0-1.63 1.32-2.95 2.95-2.95m-24.63-2.01 10.99 1.72c1.06.17 1.85 1.08 1.85 2.16 0 1.35-1.21 2.37-2.53 2.15l-10.31-1.67v-4.37ZM153.67 29.44l-8.3 2.74v8.68c0 1.69-1.37 3.06-3.07 3.06s-3.07-1.37-3.07-3.06v-6.65l-11.68 3.86v-4.36l26.11-8.64M2.18 4.94c.04.19-.11.51-.33.56-.24.13-.53.25-.67.2-.27-.03-.51-.09-.69-.2-.2-.03-.26-.22-.33-.56.04-.29-.05-.61-.02-.95-.07-.29-.06-.47.09-.66 0-.12.18-.47.36-.56.29-.17.55-.27.84-.37.37-.1.69-.05.93-.07.33-.07.75-.07 1.19 0 .35.08.88 0 1.2 0 .18-.05.46.03.64 0 .18.08.46-.02.84 0 .35.07.86.05.82-.19-.02-.25-.42-.34-.82-.27-.4.08-.57-.07-.84 0-.17.05-.4 0-.64 0-.49-.02-.84.08-1.2 0-.4.05-.88.05-1.22-.02-.37 0-.62-.47-.62-.78.04-.37.11-.76.62-.74.33-.03.49-.02.77-.02.18-.03.55.02.75 0 .31-.03.45.02.73 0 .24 0 .55-.03.75 0 .25-.07.53-.05.75 0 .18-.05.51.03.75 0 .2.07.55.05.75 0 .26-.07.44-.07.73 0 .22.07.47.07.75 0 .33-.07.47-.02.75 0 .18.08.44 0 .75 0 .17-.05.46.08.75 0 .18-.03.42-.03.75 0 .31-.07.46.07.73 0 .27-.03.44.03.75 0 .22-.05.53.07.77.02.44-.02.57.35.64.74-.04.34-.24.71-.64.78-.42-.05-.96.05-1.31.02-.36-.03-.95.07-1.29 0-.18.08-.49-.03-.67 0-.22.07-.49.03-.89 0-.47-.03-.98-.08-.98.36.18.15.58.19.95.1.27-.05.69-.07.86 0 .2.03.36-.02.66 0 .33.02.76-.05 1.24 0 .33.02.84-.05 1.22 0 .33.05.62.08.99.08.24.03.64.25.86.42.15.14.18.34.29.52-.02.24.11.46.07.61-.09.3.05.64-.02.86-.06.3-.16.4-.33.56-.15.17-.44.12-.67.18-.25.03-.57-.12-.67-.18-.18-.12-.4-.29-.33-.56.02-.14-.09-.44-.02-.66.04-.36-.13-.41-.55-.47-.42.02-.69.03-1.13 0-.45.07-.84.05-1.15 0-.44.07-.78.07-1.39 0-.31.08-.75.37-.82.54-.07.4 0 .69 0 .94-.02.25-.09.56 0 .76-.02.24 0 .52-.02.79.06.25-.13.35-.37.42-.18.07-.44.2-.65.18-.29 0-.47-.1-.64-.17-.18-.15-.31-.2-.36-.44.04-.34-.02-.44-.02-.79-.05-.19-.09-.52 0-.76.07-.22.06-.49 0-.94-.05-.31-.4-.57-.8-.54-.55.07-1.02.07-1.35 0-.31 0-.78-.07-1.09 0-.46-.03-.77 0-1.09 0-.49.08-.58.15-.57.47.02.22-.02.57-.02.76m.02 1.44c-.04-.24.15-.56.51-.56.2.02.55-.03.82-.02.33 0 .51.02.8 0 .22-.07.56 0 .8 0 .35.02.58-.07.82.02.26.02.55.29.51.56.07.3-.22.64-.51.59-.35.08-.58.08-.82.01-.24 0-.56-.03-.8 0-.2-.07-.53.05-.8 0-.25-.03-.56.05-.82-.01-.36-.03-.44-.32-.51-.59m14.24 7.67c-.18.31-.29.61-.57.71-.22.25-.6.31-.97.42-.33.17-.89.1-1.22.2-.35-.03-.91.13-1.24.05-.46-.03-.73.07-1 0-.15 0-.46-.07-.8 0-.36.07-.6-.09-.93-.03-.35.05-.71.02-.93-.09-.36-.1-.6-.02-.76-.17-.22-.02-.58-.15-.69-.42-.16-.2-.24-.66-.24-1.13.07-.14-.16-.25-.36-.32-.24-.17-.57-.14-.8-.17-.22.08-.58.05-.82 0-.17.05-.51-.05-.69 0-.4.05-.64.03-.97-.07-.29-.09-.66-.13-.86-.42-.22-.32-.29-.73-.35-1.01 0-.34.07-.69 0-1.17-.04-.4-.04-.74 0-1.16.07-.17 0-.39.09-.61.11-.24.24-.27.37-.51.22-.1.45-.22.82-.35.22-.03.53-.05.89-.07.31-.03.66.05.93 0 .37-.07.57-.03.95 0 .31.07.58.09.95 0 .33-.03.55.09.95 0 .4-.03.6.07.95 0 .25-.02.58-.05.95 0 .29-.05.58.02.95 0 .36-.03.62 0 .95 0 .35-.02.55.07.97.09.24.12.68.22.84.42.18.1.18.27.29.49-.02.24.07.42.07.54 0 .44-.06.79 0 1.16-.02.41.06.85 0 1.17.04.37-.15.66-.18.76-.09.29-.26.39-.47.47-.2.19-.49.19-.69.22-.22.05-.58.08-.8.05-.33.05-.53-.04-.75 0-.25-.07-.42-.02-.75 0-.27 0-.46.07-.91 0-.2-.04-.69.05-.51.32 0 .29.11.35.33.44.38.15.75.1 1.04.12.38-.07.64 0 1.06 0 .35-.02.78-.04 1.28-.02.46.05.89-.03 1.22-.15.27-.02.44-.22.58-.59.06-.37.18-.68.4-.76.15-.08.31-.24.62-.2.29.09.46.12.73.22.16.12.26.3.29.64.05.27-.06.59-.18.93M6.47 4.73c.07.3-.13.58-.51.61-.47.03-.84 0-1.33.02-.47 0-.93.02-1.31-.02-.27-.08-.42-.32-.49-.61-.07-.24.24-.57.49-.57.45-.03.82-.02 1.31-.02.49-.04.88.07 1.33.02.27.09.55.32.51.57m.56 4.53c0-.25-.4-.24-.82-.22-.31.09-.66-.02-.84 0-.26-.02-.49.03-.64 0-.29.07-.57.02-.49.37 0 .25.22.46.51.41.49.03.64.07.91 0 .15.03.42.05.91 0 .35.05.49-.09.46-.56m0 1.89c-.09-.29-.24-.17-.46-.15-.44.02-.66-.07-.91 0-.33.09-.66-.03-1.02-.02-.38.05-.44.27-.4.42-.02.25.16.39.49.37.15-.05.35.03.64 0 .15.03.4.08.84 0 .2.02.64.08.75-.09.16-.08.18-.4.07-.54m2.59-1.33c.42-.03.62-.07.98 0 .31.05.47-.09.97 0 .47.08.55-.2.57-.41 0-.17-.06-.24-.15-.29-.09-.05-.24-.03-.36-.09-.18-.07-.36.03-.67 0a6.9 6.9 0 0 1-.91 0c-.2.05-.66-.08-.82.02-.24.14-.27.3-.2.57-.02.17.44.15.6.19m-.6 1.79c.18.25.47.15.97.2.27-.05.51-.05.86 0 .16-.07.51-.02.8-.03.38-.03.47-.12.49-.39.09-.44-.26-.46-.57-.39-.49-.02-.73-.07-.97 0-.2-.03-.57.07-1.09-.02-.44.12-.53.32-.49.62m4.45-6.88c.04.29-.24.61-.53.61-.49-.03-.87.1-1.33.02-.51-.07-.84.05-1.31-.02-.31.02-.46-.27-.51-.61-.09-.22.15-.52.51-.57.38.05.93 0 1.31-.02.51-.04.93-.04 1.33.02.38.07.51.27.53.57M9.8 6.34c-.09-.24.25-.59.51-.56.26.07.64.04.87-.02.22.02.58-.07.84 0 .18.05.6.03.84 0 .31-.03.62-.07.88 0 .29.08.44.3.53.57.07.39-.2.59-.53.61-.27.02-.69.05-.88 0-.35.07-.64.08-.84 0-.33 0-.58.02-.84 0-.35-.03-.62-.07-.87-.01-.27-.02-.47-.32-.51-.59M35.35 7.72c-.09.27-.11.47-.22.61-.09.2-.27.34-.6.29-.29.08-.62.02-.86.02-.26 0-.6.03-.82 0-.31-.03-.53.09-.82 0-.37-.07-.51.07-.82 0-.35.05-.53.02-.84 0-.2-.03-.49-.05-.82 0-.31.03-.49-.02-.91 0-.27.02-.4.07-.47.27-.18.17-.18.3-.2.54-.04.3.04.62 0 .78.07.22.04.34 0 .59-.02.46-.06.81 0 1.12-.07.4-.07.76 0 1.12-.07.35 0 .71-.14 1.05 0 .24-.22.29-.22.49-.02.08-.27.37-.37.42-.27.17-.47.32-.88.41-.25.1-.69.15-.97.1-.15.05-.51.05-.73 0-.22-.07-.49.03-.77-.12-.33-.02-.44-.15-.6-.34-.13-.17-.27-.29-.25-.62-.04-.19 0-.47.27-.66.13-.15.37-.31.68-.31.42 0 .82.09 1.2.12.16.08.33.02.51-.12.18-.08.09-.32.15-.57.02-.42-.07-.71 0-1.07.06-.39-.09-.68 0-1.08-.07-.32.07-.71 0-1.33-.07-.1-.16-.3-.22-.52-.2-.08-.33-.19-.47-.25-.38.09-.75.05-.95 0-.27-.03-.58-.07-.84 0-.31-.02-.6-.07-.86 0-.31.07-.64-.03-.86 0-.26-.02-.58-.03-.84 0-.29.07-.58.03-.86 0-.26.09-.53-.02-.88-.02-.26-.02-.44-.05-.6-.29-.11-.08-.22-.39-.22-.61.02-.15.07-.51.22-.62.05-.08.38-.24.6-.29.33.03.58-.07.88 0 .29-.02.51 0 .86 0 .2.03.6.05.84 0 .31.05.53.07.86 0 .2-.03.56.07.86 0 .33-.03.57-.03.84 0 .24.03.58.09 1.04 0 .29.09.62-.34.6-.66.07-.44-.02-.83 0-1.13.02-.3.06-.51.33-.61.24-.18.37-.25.71-.22.24-.03.4-.03.56.07.07-.03.29-.17.55-.3.11-.08.47-.27.58-.35.27-.13.42-.27.64-.44.31-.29.35-.54-.15-.68-.57-.05-1.04 0-1.37 0-.31-.07-.73-.02-1.13-.03-.27-.02-.6.03-.98 0-.35-.07-.6.02-.93 0-.36.02-.78-.03-1.06.03-.31 0-.75.02-1.02 0-.4.05-.75-.05-1.06-.02-.31.07-.42-.1-.6-.29-.18-.2-.25-.44-.22-.61.05-.3.14-.46.22-.61.22-.15.4-.31.6-.29.44.03.78.03 1.11 0 .42-.05.78.02 1.09 0 .29-.07.66-.02 1.09 0 .31.08.73-.07 1.09 0 .33-.03.71-.02 1.1 0 .36.08.8.08 1.09 0 .4-.07.75.07 1.09 0 .31 0 .64.05 1.09 0 .15.02.55.07.75.08.25.14.46.12.69.29.18.08.29.37.49.49.2.15.2.49.2.69-.07.37-.05.66-.33.94-.09.1-.24.31-.35.37-.09.22-.33.24-.4.35-.2.19-.24.15-.4.32-.14.18-.31.27-.4.3-.22.22-.58.4-.84.56-.22.02-.33.25-.47.27-.15.17-.4.2-.68.37-.2.12-.44.15-.53.35-.13.1 0 .41-.07.56.04.12.33.24.58.17.4 0 .68.03 1 0 .29-.03.47 0 .82 0 .33-.03.53.05.84 0 .27.05.49.02.82 0 .25.02.6.07.82 0 .27.05.62.09.82 0 .25-.02.55.03.86 0 .31 0 .42.14.6.29.2.22.2.37.22.62M45.29 1.05c.07.35-.11.54-.42.73-.29.24-.53.3-.84.39-.4.09-.62.3-.95.35-.25.07-.64.19-.97.32-.18.07-.31.03-.51.15-.27.13-.4.17-.71.2-.22.02-.35.15-.46.44-.07.19-.16.57-.24.69 0 .17-.02.27 0 .66-.04.17 0 .39.22.64.18.25.22.37.44.34.49.04.75-.07 1.11 0 .33 0 .55.02.93 0 .26.05.6-.02.95.02.18.02.53.1.58.29.18.1.27.37.2.59.04.2-.13.46-.2.61-.07.22-.35.25-.58.29-.29-.03-.58 0-.95 0-.25.02-.58.04-.93 0-.29-.05-.62.02-1.11 0-.27.02-.75.37-.66.58.04.37.02.78 0 .96-.05.27-.09.59 0 .81-.09.25-.02.47 0 .78 0 .19.02.37.14.49.11.24.31.2.62.15.2-.07.46-.02.8 0 .2.08.53-.07.8 0 .22-.03.51-.02.8 0 .28.08.62.1.82.02.17.05.42.15.58.29.17.19.26.42.2.59.07.24-.11.49-.2.61-.2.17-.29.27-.58.27-.31.07-.56.1-.96.02-.33-.02-.64.03-.91 0-.25.03-.6.03-.93 0-.25-.05-.57.02-.93 0-.36.03-.73-.02-1.02-.1-.36-.12-.58-.24-.89-.47-.13-.12-.35-.46-.4-.73-.11-.2-.18-.52-.09-.83-.02-.29-.05-.74 0-1.12.02-.37-.05-.71 0-1.11-.04-.4.02-.66 0-1.13-.09-.44.04-.68 0-1.11-.05-.32.04-.74 0-1.13.07-.41.06-.79 0-1.12-.04-.35.06-.78 0-1.13a4.27 4.27 0 0 1 0-1.13c-.09-.22.22-.49.35-.59.27-.15.51-.22.73-.2.29.07.46.14.93.17.27.05.38-.02.68-.2.29 0 .49-.14.88-.29.29-.14.56-.27.86-.32.27-.12.53-.29.84-.36.18-.1.22-.17.46-.2.22-.1.4-.19.53-.1.24-.03.49.05.71.29.2.14.22.37.29.66m8.26 10.39c-.16.32-.29.54-.46.71-.18.24-.47.25-.71.34-.27.02-.62.17-.77.08-.18.03-.45-.07-.69 0-.26-.03-.56-.05-.75-.1-.31-.03-.4-.12-.58-.3-.13-.1-.27-.29-.24-.62.04-.13 0-.46.22-.62.07-.15.42-.24.62-.3.6.14.78.07 1.02.07.27-.02.31-.1.29-.4-.07-.22-.04-.52 0-.88-.09-.29-.05-.66 0-.89-.07-.29.02-.66 0-.9-.07-.25-.04-.64 0-.91-.02-.36.07-.61 0-.9-.04-.3.04-.52 0-.89.07-.3.04-.66 0-.9-.07-.22.02-.66 0-.88-.07-.24-.05-.46-.44-.49-.38.07-.8-.03-1.09 0-.35-.01-.75-.03-1.07 0-.36.09-.47.1-.47.47.07.22-.09.56 0 .74-.09.22-.04.57 0 .74-.02.29-.06.56 0 .74-.07.17-.06.42 0 .75-.06.32.07.49 0 .74.06.3-.06.56 0 .74.06.25-.06.42 0 .74-.09.22-.04.51 0 .74.06.19 0 .59 0 .74-.06.32-.09.49 0 .76.07.29.06.52 0 .74-.07.22 0 .51 0 .74-.02.25-.09.54 0 .74-.02.22.02.49 0 .74-.04.25.06.52 0 .74-.07.32-.07.56-.02.76.06.27-.18.45-.35.57-.18.08-.49.22-.71.17-.33.05-.49-.02-.71-.17-.16-.15-.36-.25-.35-.57-.07-.19-.09-.44-.02-.78-.04-.27-.02-.51 0-.78-.06-.29-.02-.57 0-.76-.04-.17.06-.46 0-.76-.06-.24.04-.59 0-.78-.09-.2.04-.47 0-.76.04-.29.04-.59 0-.78-.07-.19-.04-.44 0-.76.04-.25-.02-.56 0-.78.07-.32 0-.46 0-.76.02-.29-.02-.47 0-.78-.07-.22 0-.52 0-.76.06-.25-.02-.49 0-.76-.04-.34.04-.52 0-.78.07-.24.04-.57 0-.76.02-.3-.07-.47 0-.76.07-.22-.02-.47.11-.76.11-.29.24-.37.42-.64.2-.1.44-.22.78-.35.24-.04.53-.07.89-.09.25-.04.42 0 .73 0 .31-.04.47.05.75 0 .24.05.44.02.73 0 .22.02.55.07.73 0 .36-.02.57.09.96.1.26.14.69.24.86.46.2.25.33.39.33.61.09.15.02.46.09.68-.02.39-.05.69 0 .98-.07.25-.04.74 0 .98.04.39-.02.64 0 .98.06.4-.09.61 0 .98.07.27-.05.74 0 1-.07.27 0 .71 0 .98.04.37-.07.73 0 .98.02.4.02.68 0 .98.07.24-.02.63-.11.83M56.78 10.26c-.11-.39.11-.47.22-.69.09-.08.38-.19.55-.2.44.02.66.2.75.49.07.27.18.49.35.76.06.24.18.61.22.81.04.03.07.05.09.03.02-.02.04-.07.02-.14-.07-.25.02-.54-.06-.69.09-.35.09-.59.04-1.18-.04-.17 0-.39-.07-.62-.22-.08-.46-.17-.71-.13-.46.07-.82.05-1.09-.02-.26-.02-.42-.12-.51-.24-.16-.12-.16-.42-.18-.54.04-.15.06-.44.18-.52.11-.17.24-.25.51-.25.26.05.67-.08 1.2-.02.28 0 .57.03.64-.14.07-.2.09-.46.04-.71.02-.03-.04-.07-.11-.08a1.12 1.12 0 0 0-.29-.03c-.37-.02-.49-.02-.73-.03-.14-.08-.35-.27-.4-.4-.09-.39.05-.47-.13-.54-.55.03-.64-.17-.78-.3a.588.588 0 0 1-.31-.62c.04-.32.09-.58.42-.74.2-.22.46-.39.66-.59.18-.19.47-.37.62-.62.11-.15.29-.39.55-.68.11-.17.33-.42.51-.73.05-.15.24-.29.25-.4.2-.31.4-.49.82-.46.22.03.42.02.68.22.2.15.24.35.31.57.04.25-.07.41.15.59.2.22.51.31.58.4.06.12.24.27.38.39.09.12.15.29.36.37.2.22.38.44.42.81.05.24-.07.53-.27.62-.07.14-.4.25-.62.24-.4.07-.62-.15-.88-.41-.07-.2-.16-.22-.35-.39-.09-.14-.27-.32-.42-.42-.25-.25-.53-.2-.73-.02-.35.25-.46.47-.56.64-.11.1-.35.42-.57.56-.17.18.09.4.33.34.47.05.65.04 1.04 0 .24-.02.58-.07.89 0 .38-.03.69.1.93.02.16.03.33.14.51.24.02.24.26.42.18.52-.09.14.04.4-.15.52-.2.17-.36.29-.66.25-.18.09-.66-.12-.69.1-.04.18-.07.62.02.83.07.03.22.02.55.05.22-.05.33.02.78.05.2.07.29.05.47.24.13.12.16.25.18.47.05.22-.07.47-.13.61-.14.15-.31.27-.69.25-.4.03-.88 0-1.17.1-.13.17-.15.39-.09.59-.09.56-.07.9 0 1.15-.04.29-.09.58 0 1.13-.02.3.09.56.51.57.29-.08.38-.07.53-.13.46-.07.75-.02.97.2.18.14.26.29.29.57.04.29-.07.39-.22.54-.2.17-.46.34-.78.35-.33.17-.75.2-.86.2-.29-.02-.47.18-.66.17-.18.12-.42.07-.62.15-.44.05-.69.22-1.04.22-.27.02-.68.08-1.02.17-.24.02-.46.15-.71.05-.29 0-.36-.1-.53-.31-.11-.12-.24-.3-.2-.57-.07-.13.13-.4.27-.61.2 0 .42-.15.64-.15.51-.03.49-.08.95-.2.29-.15.53-.1.57-.25.02-.1.02-.22.02-.34v-.24s-.02-.02-.07 0a.53.53 0 0 0-.15.08c-.16.22-.55.24-.67.25-.33-.07-.49-.32-.67-.54-.15-.46-.15-.69-.29-.88-.13-.22-.15-.51-.29-.73m5.85-.93c.07.12.13.27.16.54.02.3-.2.44-.2.71 0 .15-.22.52-.27.66-.09.35-.38.54-.75.56-.33-.02-.66-.24-.71-.56.06-.42.22-.61.29-.95.13-.22.09-.44.24-.76.02-.25.44-.44.66-.42.29.03.38.17.58.22m11.04 5.62c-.07.15-.35.25-.53.24-.47.08-.91.08-1.29.02-.36-.07-.89-.02-1.28 0-.49.08-.91 0-1.28 0-.51-.05-.89.08-1.28 0-.47-.03-.93-.03-1.28 0-.35-.07-.89.07-1.28 0-.4-.03-.91.03-1.28 0-.46-.05-.84.05-1.29-.02-.18-.05-.36-.02-.51-.24-.22-.1-.25-.29-.27-.52.02-.1.09-.42.33-.56.16-.19.38-.25.55-.24.36-.07.75-.19.73-.49-.06-.37.04-.68 0-.85-.09-.17.04-.42 0-.68.04-.27.04-.54 0-.69a.776.776 0 0 1 .09-.68c.13-.19.15-.39.36-.59.13-.12.51-.24.68-.31.24.04.45 0 .75-.07.35.07.77.08 1.26 0 .4 0 .84.02 1.28 0 .38-.03.84-.07 1.29 0 .38.08.89.05 1.26 0 .27-.07.45.02.8.08.31.05.42.22.71.37.15.22.22.39.29.56.09.29.13.42.07.63-.02.24.02.39 0 .69-.07.3.02.51 0 .68.02.25-.09.51 0 .85 0 .15.29.44.51.49.31-.03.46.15.6.25.15.22.11.34.18.52.04.19-.09.46-.18.54M63.05 5.75c.06-.42-.02-.83 0-1.27-.04-.49.04-.84 0-1.25.07-.41.04-.91 0-1.27-.02-.27-.07-.36.07-.64.13-.25.16-.36.35-.58.11-.15.51-.2.71-.3.27.03.49-.08.76-.05.16.07.44.07.73 0 .27 0 .47-.04.73 0 .31-.07.49.05.73 0 .27-.04.49.07.77.02.42.02.67.3.67.71-.04.46-.35.76-.67.71-.6.08-.8 0-1 .19.02.22-.05.52.11.74.2.2.36.07.62.19.18.1.29.34.46.44.07.24.16.42.11.52.04.46-.04.78 0 1.12.04.41-.22.88-.49 1-.53.1-.75 0-.8.25.04.24-.04.61.07.74.11.24.62.1.86.12.2.05.46.17.6.22.2.1.22.29.18.49.05.34-.18.64-.66.71-.24-.03-.58.05-.78.02-.16-.03-.58.07-.75 0-.33-.02-.53.09-.75 0-.26.05-.55.07-.73 0-.18-.02-.51-.02-.82-.05-.2.02-.57-.17-.73-.37-.24-.1-.29-.32-.29-.54-.13-.17.02-.44-.06-.59-.07-.39 0-.86 0-1.27m2.17 1.35c.18.05.24-.12.24-.34 0-.08-.04-.37-.05-.49.04-.07-.07-.12-.18-.13-.15-.02-.31-.02-.44-.02-.26.62-.11 1.06.44.98m-.49-2.3.15.05c.06.02.27.04.46 0 .31.08.71.04 1 0 .26.04.42-.56.16-.69-.27-.1-.49-.03-.65-.05-.18.02-.62-.03-.86 0-.36-.05-.35.39-.29.63-.02.02-.02.05.04.07m-.04-2.6c.05.08-.09.47.04.62.11.03.31-.07.55.03.17-.05.17-.27.15-.44-.02-.14.06-.25-.02-.47-.04-.1-.24-.1-.4-.08-.26.03-.26.08-.31.34m1.49 9.97c.06-.27 0-.73.02-1.13.02-.29-.6-.27-.64-.12-.02.31-.06.54-.02.79 0 .35.02.57 0 .91-.07.27-.02.61.07.86.15.12.29-.02.47.09.05-.24.15-.32.09-.51-.04-.46-.05-.62 0-.89m2.26-.9c-.07-.49-.29-.49-.57-.51-.07.05-.07.22-.09.51.07.37-.04.73 0 .9-.07.24-.05.44 0 .89-.04.29.27.56.55.51.02.02.04.02.05 0 .02 0 .02-.05.04-.14.02-.12.02-.27.02-.37-.02-.34-.06-.56 0-.89 0-.27-.09-.4 0-.9m.33-7.7c.07-.22.33-.59.38-.88.15-.17.13-.42.27-.74.13-.27.09-.59.22-.78 0-.12.04-.29.13-.44.13-.25.13-.3.31-.46.07-.12.4-.08.57-.17.35-.05.6.14.71.29.09.1.18.4.2.68-.18.59-.27.66-.25.91-.07.2.16.59.55.56.6 0 .89-.07 1.2.02.15 0 .4.07.55.25.15.12.26.35.2.56.04.13-.05.47-.2.56-.18.15-.4.3-.55.25-.29-.02-.42.08-.69.02-.22.03-.6.08-.84 0-.25-.03-.62.07-.84.19-.2.07-.46.24-.58.42-.27.39-.44.54-.86.46-.29.08-.46-.14-.64-.19-.15-.12-.27-.27-.25-.47-.02-.39.24-.81.42-1.03m.13 3.02c-.06-.2.02-.37.2-.56.13-.2.24-.27.55-.27.46-.09 1.04-.03 1.42-.02.42 0 .98.07 1.42.02.2-.02.38.13.57.27.18.19.22.39.2.56-.02.24-.02.49-.2.57-.13.2-.26.34-.57.27-.55.02-.95-.05-1.42 0-.53.05-.98-.03-1.42 0-.18-.05-.44-.07-.55-.27a.617.617 0 0 1-.2-.57m1.84 6.03c-.02-.37-.02-.71 0-.91-.05-.24 0-.47-.02-.81 0-.01 0-.03-.03-.05a.5.5 0 0 0-.29.02c-.13.03-.27.12-.31.22-.11.41.07.9.02 1.08 0 .19-.02.71.04 1.15-.09.27.27.22.49.25.2-.22.04-.59.11-.95M80.72 7.1c-.04.29-.29.39-.31.68-.02.15-.26.52-.31.66-.18.15-.22.49-.35.64-.07.27-.29.51-.35.64-.11.29-.24.46-.38.62-.16.34-.37.57-.53.73-.29.24-.55.37-.82.35-.24-.02-.57-.1-.75-.27-.22-.2-.26-.39-.33-.66-.04-.41.18-.69.4-.93.05-.15.26-.39.33-.51.04-.13.18-.39.33-.52.09-.25.27-.37.29-.54.07-.17.24-.29.29-.52.16-.19.22-.42.27-.54.02-.12.16-.31.22-.42.07-.1.18-.35.24-.54.09-.27-.15-.57-.51-.56-.22.03-.48.05-.6.03-.49.08-.84-.12-1.11-.29-.22-.24-.33-.41-.33-.68 0-.24.18-.61.44-.79.42-.19.93-.17 1.28-.17h.38c.35 0 .44.02.88-.09.15-.03.69-.39.73-.56.05-.27.18-.42.18-.59.02-.32.24-.59.25-.93 0-.25.09-.73.38-.98.16-.15.49-.34.77-.29.27-.03.49.08.69.2.27.17.24.32.35.56.05.25-.05.54-.13.83-.02.2-.09.42-.2.73-.11.29.04.66.29.64.24 0 .42-.07.55-.08.29-.05.49-.09.76-.1.29 0 .47.18.66.3.18.19.24.42.27.64.04.34-.16.69-.49.76-.36.18-.64.24-.99.25-.27.05-.4.05-.64.08-.14.07-.38.05-.77.15-.2.03-.73.52-.8.74-.16.37-.2.49-.25.64-.05.29-.2.42-.29.66m10.26 5.71c.02.32-.13.46-.29.68-.2.14-.53.39-.71.3-.24-.02-.44-.02-.66-.2-.15-.17-.35-.3-.58-.35-.24-.08-.31-.22-.71-.39-.4-.12-.82.13-.86.47-.15.37-.29.42-.33.64-.09.15-.31.3-.4.41-.25.13-.36.22-.55.35-.18.05-.35.15-.6.2-.16.07-.4.14-.66.12-.22-.03-.46.05-.65.03-.44.03-.84-.03-1.19-.1-.16-.1-.37-.02-.58-.15-.24-.05-.46-.08-.55-.22-.27-.19-.46-.25-.53-.39-.2-.07-.27-.37-.38-.47-.15-.22-.2-.39-.24-.56-.05-.12-.09-.37-.07-.61 0-.42.02-.71.27-1.05.15-.13.24-.29.35-.46.18-.19.33-.24.44-.35.18-.08.33-.22.58-.32.2-.07.49-.09.66-.2.22 0 .51 0 .66-.1.2-.03.42 0 .84-.03.22.03.64-.29.57-.61.04-.41-.07-.78-.05-1.08.05-.42.05-.86.05-1.18.09-.51.15-.83.38-.98.16-.05.37-.15.69-.2.15.04.57.04.69.19.26.1.37.29.37.54.05.29-.09.52-.07.67 0 .41-.06.64-.06.93.06.14.02.47.04.61-.04.29.06.46.09.83.04.24.04.42.16.56.18.24.33.27.49.34.35.13.71.3 1.04.37.27.09.44.22.77.35.31.08.49.3.75.39.29.08.42.32.58.42.07.22.2.37.26.61M85 11.95c-.13-.08-.53-.19-.89-.17-.27-.02-.77.02-1.04.13-.42.13-.55.32-.58.66-.06.39.18.46.51.59.36.13.69.05.99.12.4-.01.71-.05 1-.32.15-.07.18-.13.2-.37.02-.2 0-.51-.18-.64m6.25-6.03c-.27.15-.44.37-.71.31-.27.02-.33-.09-.56-.15-.22-.02-.46-.2-.58-.3-.18-.08-.44-.15-.58-.27-.22-.12-.35-.08-.57-.25-.29-.15-.37-.1-.6-.24-.37-.07-.66-.29-.75-.4-.15-.17-.26-.36-.24-.51 0-.3.11-.57.33-.69.18-.18.42-.35.75-.29.2.03.58.08.84.17.31.1.45.25.76.29.33.07.62.2.93.39.22.09.27.09.47.25.16.13.26.18.42.29.27.12.46.46.38.74.02.3-.15.56-.29.67M106.34 10.09c.05.34-.06.69-.15 1.06-.15.37-.22.74-.42.96-.09.25-.13.39-.31.46-.07.07-.22.34-.37.4-.18.14-.26.19-.42.37-.24.1-.31.18-.47.32-.2.08-.38.24-.51.29-.13.13-.35.22-.55.27-.14.02-.33.17-.58.22-.26 0-.46.12-.58.19-.25.15-.38.05-.58.17-.24.02-.42.07-.6.12-.49.03-.82.18-1.24.15-.38.03-.55-.08-.84-.24-.16-.22-.29-.4-.36-.73.04-.27.06-.46.27-.64.2-.22.4-.29.67-.3.4-.05.86-.1 1.2-.19.29-.07.47-.12.64-.12.16-.02.47-.13.62-.18.15-.09.35-.14.6-.25.22-.14.31-.2.55-.32.24-.15.33-.2.47-.39.15-.1.22-.29.38-.47.07-.13.24-.27.24-.52.05-.14.13-.31.09-.59-.04-.25-.09-.41-.15-.62-.05-.15-.18-.32-.4-.51-.18-.18-.6-.29-.89-.4-.4-.07-.64-.12-1-.12-.35-.05-.55.09-.8.05-.24.08-.6.17-.8.14-.24.15-.49.19-.75.24-.27.17-.55.18-.75.3-.22.12-.51.27-.69.37-.26.1-.42.37-.68.44-.31.08-.38.39-.62.49-.24.22-.31.35-.55.54-.22.32-.64.47-.95.4a.87.87 0 0 1-.73-.24c-.24-.2-.27-.39-.38-.62.04-.17-.02-.56.06-.86.02-.25.04-.58.18-.84.07-.15 0-.47.13-.71-.04-.24.15-.44.15-.74.09-.24.05-.47.15-.74.07-.29.09-.45.16-.76.04-.27.16-.57.16-.9.15-.37.2-.71.27-.88.15-.3.57-.47.95-.47.31-.03.62.05.78.17.2.13.35.44.33.68-.02.24-.07.35-.11.63-.07.18-.15.52-.16.66-.04.2-.16.46-.16.68-.13.27-.07.51-.16.69-.11.44-.16.66.05.79.22.12.46-.07.76-.24.26-.14.48-.17.66-.3.22-.14.42-.15.66-.25.22-.05.38-.22.69-.2.25-.07.4-.1.71-.15.18 0 .44-.12.71-.1.29.02.49-.1.73-.03.31-.02.58-.02.89.05.29.1.58.12.89.17.33.15.62.17.84.29.29.07.51.24.82.42.2.24.31.32.49.52.17.15.28.32.4.59.09.2.16.37.25.66.04.3.07.44.09.71M98.37 2.5c-.4-.14-.68-.29-.8-.41-.15-.19-.26-.32-.24-.54.04-.32.2-.61.35-.78.14-.12.33-.25.6-.29.38 0 .73.08.86.17.22.03.44.14.62.15.26.03.33.13.57.17.26.02.49.17.68.24.16.07.45.2.64.25.24.07.36.25.51.29.31.2.47.47.47.86.04.22-.15.54-.29.68-.22.19-.44.24-.71.29-.16.03-.4-.02-.57-.12-.18-.1-.49-.17-.67-.27-.25-.13-.35-.19-.65-.24-.24-.03-.46-.15-.66-.24-.27-.12-.53-.13-.69-.22" style="fill:#101d32"/>
</svg>
