<?xml version="1.0" encoding="UTF-8"?>
<svg id="a" data-name="Layer 1" xmlns="http://www.w3.org/2000/svg" xmlns:xlink="http://www.w3.org/1999/xlink" viewBox="0 0 231.95 246.79">
  <defs>
    <clipPath id="b">
      <polygon points="120.31 111.29 124.77 111.29 126.08 92.33 120.31 92.33 120.31 111.29" style="fill: none;"/>
    </clipPath>
    <linearGradient id="c" x1="150.83" y1="117.52" x2="149.85" y2="93.05" gradientUnits="userSpaceOnUse">
      <stop offset="0" stop-color="#d5d3d2"/>
      <stop offset="1" stop-color="#b5b5b4"/>
    </linearGradient>
  </defs>
  <path d="m160.9,59.64c-22.9-26.98-36.32-49.98-62.67-55.93C72.04-2.17,32.77,8.92,13.71,38.19c-19.2,29.19-18.27,76.71,3.04,112.66,21.09,36.02,62.42,60.78,104.6,58.42,42.03-2.43,84.77-31.68,90.02-61.75,5.11-30.15-27.49-61.04-50.46-87.87Z" style="fill: #d9eee7;"/>
  <path d="m149.88,216.99l-.49-.28c-.07-.04-.12-.13-.12-.22l-.5-7.42c1.26-3.23,2.57-7.54,3.34-9.81,3.13-9.25,6.22-18.51,9.27-27.79l.48-.07c.08-.01.14-.08.16-.17.38-2.39.7-.19.71.06.04,2.63.09,5.24.15,7.82l-11.34,33.96s-1.66,3.94-1.66,3.94Z" style="fill: #101d36;"/>
  <path d="m162.53,146.49c.08.04.12.12.12.21l.02,11.96c-1.99-.1-4.18-.37-6.58-.81-2.23-.41-6.48-2.29-5.43-5.24,1.43-4.01,7.24-5.41,10.95-6.22.32-.09.63-.06.92.09Z" style="fill: #31474c;"/>
  <polygon points="168.27 81.4 174.31 81.81 182.81 42.3 168.66 46.51 168.27 81.4" style="fill: #d5d3d2;"/>
  <path d="m182.78,35.3l-.2-1.3.81-.74s1.69,1.62,1.38,2.5-2.39,7.74-2.9,8.33-1.61,1.86-1.93,2.13c-2.21,1.88-4.37,3.81-6.49,5.8-.02.01-.03.03-.05.03-.09.04-.2,0-.25-.09-.38-.84-.92-1.56-1.61-2.15l-2.17-3.36s-.43.05.35-.96c3.88-1.76,12.69-8.37,13.06-10.2Z" style="fill: #fff;"/>
  <path d="m182.54,11.12c-.34-4.89-3.11-8.73-7.72-10.41-3.06-1.12-6.33-.61-9.49-.46-2.49.12-8.31,1.84-12.13,1.86-.73,1.54-1.74,2.93-2.69,4.32.75,2.07,2.18,4.4,4.23,5.95l14.06,4.81c1.01,2.05,2.47,3.89,3.99,5.52.06.07.1.06.11-.04.09-1.26-.07-2.73.35-3.97l6.89,2.35c1.85-3.13,2.65-6.45,2.41-9.94Z" style="fill: #1a142c;"/>
  <path d="m151.16,1.89c-1.46-.43-1.63,1.84-.65,4.54.95-1.39,1.97-2.78,2.69-4.32-.78,0-1.48-.06-2.04-.22Z" style="fill: #1a142c;"/>
  <path d="m154.74,12.38c2.33.54,4.69.74,7.07.61.15,0,.16-.05.03-.12-1.52-.9-2.96-1.94-4.33-3.13-.12-.11-.12-.14.02-.09,3.2,1.09,6.46,1.95,9.79,2.57.08.01.13.08.14.17.23,4.09,2.71,7.5,5.34,10.32.06.07.1.06.11-.04.1-1.39-.12-3.05.49-4.35.96-2.05,3.05-2.55,4.74-.98,1.02.95,1.68,2.19,2,3.72-.08.46-.74,3.57-.9,4-.14.39-.11-2.24-.1-2.25,0,0,0,.02,0,.03h0s-.03.07-.03.11c.08,5.4,1.92,6.86,3.7,12.09.03.09.03.18-.01.27-.15.34-.33.66-.54.96-.21.3-.45.58-.72.84-1.75,1.72-3.56,3.16-5.51,4.5-1.46,1.01-3,1.96-4.65,2.93-.54.32-1.08.64-1.64.96l-.35.96c-.76.08-1.6.06-2.52-.07-1.88-2.74-2.61-5.72-2.18-8.94.04-.3-.06-.46-.29-.51l.08-.27.52.23c.09.04.19.05.25.02,5.74-2.38,9.92-8.15,11.8-13.89.04-.13.01-.17-.09-.1-.04.02-.07.06-.1.12-2.23,4.85-6.56,10.57-11.83,12-.32.09-.43.27-.55.55l-.21-.43s-.05-.02-.08-.02c-4.28.03-4.83-2.55-6.09-6.36-1.14-3.43-2.41-7.22-2.41-7.22-.35-.8-.57-1.63-.64-2.5l-.15-.56c-.23-1.02-.35-2.04-.38-3.06-.02-1.02.05-2.05.23-3.08Z" style="fill: #f9b58b;"/>
  <path d="m165.02,35.05c5.27-1.43,9.6-7.15,11.83-12,.02-.06.06-.1.1-.12.1-.07.13-.03.09.1-1.87,5.74-6.06,11.51-11.8,13.89-.07.03-.16.02-.25-.02l-.52-.23c.14-.23.09-.38-.15-.44l.15-.63c.13-.27.24-.46.55-.55Z" style="fill: #f39d77;"/>
  <path d="m184.77,35.76c.12-.4.02-.75-.29-1.04-.05-.05-1.54-1.7-1.03-1.72.05,0,.1.02.16.05,2.36,1.65,4.48,2.68,7.47,3.52,8.7,2.44,18.12,4.56,20.28,15.04.38,1.85.66,3.77.83,5.77.93,10.58,1.41,20.51,1.73,30.8.04,3.47.23,7.47.59,12.01.43,5.47-3.11,10.59-7.09,14.11-.07.06-.1.15-.08.24.39,2.25.55,3.65.5,4.21-.22,2.37-.27,4.74-.14,7.12l-18.83-.06c1.44-1.32,2.97-2.55,4.59-3.69.07-.05.1-.13.07-.21-1.53-5.16-5.86-10.64-11.78-10-1.39.15-2.85.5-4.37,1.04l-2.12-15.06-.03-.71c.36-3.46.76-6.92,1.19-10.38.3-2.41.22-4-2.11-4.99,1.06-10.79,3.13-21.36,5.86-31.95.46-1.8,1.17-3.83,1.7-5.76,1.1-2.7,2.07-5.48,2.9-8.33Z" style="fill: #488975;"/>
  <g>
    <path d="m89.83,47.34s-.06-.02-.09-.03c.03.01.06.02.09.03Z" style="fill: none;"/>
    <path d="m90.24,47.46s-.05,0-.07-.01c.02,0,.05,0,.07.01Z" style="fill: none;"/>
    <polygon points="87.11 39.43 88.56 40.28 87.11 39.43 87.11 39.43" style="fill: none;"/>
    <path d="m90.61,47.51s.02,0,.03,0c0,0-.02,0-.03,0Z" style="fill: none;"/>
    <path d="m95.8,33.06s0,0-.01,0c0,0,0,0,.01,0Z" style="fill: none;"/>
    <path d="m94.49,42.84s-.03-.04-.04-.06c.03.04.07.06.11.08-.02-.01-.05,0-.07-.03Z" style="fill: none;"/>
    <path d="m94.65,42.91s.07,0,.1-.01c-.04,0-.07.02-.1.01Z" style="fill: none;"/>
    <path d="m72.75,51.74c-.09.15-.18.3-.27.44.09-.14.18-.29.27-.44Z" style="fill: none;"/>
    <path d="m73.83,49.79c-.26.51-.52.99-.8,1.46.27-.47.54-.95.8-1.46Z" style="fill: none;"/>
    <path d="m77.4,44c.1.11.19.24.25.39.24.61.52,1.2.81,1.78l-.26.2c-.3-.75-.59-1.52-.85-2.34-.03-.11-.02-.12.06-.04Z" style="fill: #160f18;"/>
    <path d="m88.3,37.76c.26.04.52.09.79.13l-.11.09c-.23-.07-.45-.14-.68-.21-.09-.03-.09-.03,0-.02Z" style="fill: #160f18;"/>
    <path d="m82.94,36.29c3.17,1.82,6.42,3.48,9.75,4.98.8.36,1.33.81,1.75,1.51.03.04.07.06.11.08.03.02.06.03.1.04.03,0,.07,0,.1-.01.05-.01.09-.02.13-.05.4-.4.93-.53,1.59-.37l.83-3.93c-.25-1.87-.35-3.5-1.27-5.18-.07-.13-.15-.22-.24-.3,0,0,0,0-.01,0-.09-.07-.18-.13-.29-.16h0c-.16-.05-.35-.06-.56,0-4.1,1.05-7.48,2.74-11.98,3.32-.09.01-.1.04-.02.09Z" style="fill: #f9b58b;"/>
    <path d="m96.04,33.36c-.07-.13-.15-.22-.24-.3.09.08.17.18.24.3Z" style="fill: #f9b58b;"/>
    <path d="m94.83,42.88s-.05,0-.07.01c.05-.01.09-.02.13-.05-.02.02-.04.03-.06.04Z" style="fill: #f9b58b;"/>
    <path d="m95.79,33.05c-.09-.07-.18-.13-.29-.16.11.03.2.08.29.16Z" style="fill: #f9b58b;"/>
    <path d="m94.55,42.87s.06.03.1.04c-.04,0-.06-.02-.1-.04Z" style="fill: #f9b58b;"/>
    <path d="m71.1,54.32c.61-.61.86-1.02.77-1.23.2-.28.4-.59.6-.91.09-.14.18-.29.27-.44.1-.16.19-.32.29-.49.27-.47.54-.95.8-1.46,0,0,0-.01,0-.02l4.35-3.39c1.23,3.07,2.78,5.69,4.97,8.45l-.67,1.88c-.92,2.59-1.54,4.73-1.86,6.42-.28,1.47.03,2.8.93,4,.53.71,2.78,4.87,2.52,4.97-.08.03-.17-.02-.23-.11l-1.43-2.28c-.1-.15-.16-.14-.18.05l-.15,1.07c-.01.09,0,.19.03.28.74,2.14,1.64,4.21,2.69,6.22.31.59.33,1.27.73,1.8.26.34.4.74.42,1.18,0,.11.04.2.09.26l.18.2-.2.27c-.18-.24-.14-.49-.25-.73-1.41-2.81-2.71-5.68-3.91-8.62-.15-.37-.16-.76,0-1.16l.37-1c.03-.09.04-.19,0-.27l-.58-1.42c-.04-.11-.15-.18-.27-.18l-1.74-.02c-.14,0-.28.12-.32.29-.18.7-.27,1.02-.71,1.74-.18.29-.21.61-.09.95-.64.87-1.13,1.82-1.47,2.84-.03.1-.09.18-.16.22-.22.13-.26-.03-.09-.47.88-2.41,1.88-4.78,3-7.1.14-.3.22-.8.23-1.51.01-.94-.55-1.34-1.16-1.99-2.58-2.73-5.17-5.32-7.75-7.76,0,0,0,0,0,0-.14-.14-.14-.38,0-.52Z" style="fill: #f9b58b;"/>
    <path d="m91.04,47.48l3.21-2.94c-.56,1.23-1.79,2.72-3.21,2.94Z" style="fill: #160f18;"/>
    <path d="m73.04,51.25c-.1.17-.19.33-.29.49.1-.16.19-.32.29-.49Z" style="fill: #f9b58b;"/>
    <path d="m90.64,47.51c.14,0,.27,0,.4-.03-.13.02-.27.03-.4.03Z" style="fill: #f9b58b;"/>
    <path d="m90.17,47.45c-.11-.03-.23-.07-.34-.11.11.05.23.09.34.11Z" style="fill: #f9b58b;"/>
    <path d="m75.88,42.54c0-.09-.04-.18-.11-.24-1.55-1.52-1.71-4.25-.54-5.96,1.44-2.12,3.94-2.01,5.26.24.15.26.38.91.69,1.96.03.09.08.17.16.21.89.55,1.81-.45,2.32-1.07.09-.11.23-.14.34-.07l3.11,1.83,1.45.85c.21.13.31.38.24.6-.62,1.88-1.41,4.89.52,6.19.14.09.28.17.42.23.03.01.06.02.09.03.11.05.23.08.34.11.02,0,.05,0,.07.01.12.03.25.04.37.04,0,0,.02,0,.03,0,.14,0,.27,0,.4-.03h0c1.42-.22,2.65-1.7,3.21-2.94.35.04.5.06,1.03.11.11,0-.55.85-.5.89.05.04-.18,2.67-.36,4.03-.01.08.1-.04,0,0l-1.64-.18c-.07.03-.87.99-.89,1.1-.39,1.77-2.34,3.51-4.08,3.95-1.28.33-2.54.14-3.79-.54l.21-.19c-.02-.06-.05-.12-.1-.16-2.4-2.09-4.28-4.55-5.67-7.36-.29-.58-.56-1.17-.81-1.78-.06-.15-.14-.28-.25-.39-.07-.08-.09-.06-.06.04.27.82.55,1.59.85,2.34l-4.35,3.39s0,.01,0,.02c1.19-2.34,2.13-5.02,2.05-7.25Z" style="fill: #f9b58b;"/>
    <path d="m71.87,53.09c.2-.28.4-.59.6-.91-.2.32-.41.63-.6.91Z" style="fill: #f9b58b;"/>
    <path d="m90.61,47.51c-.12,0-.24-.02-.37-.04.12.02.25.04.37.04Z" style="fill: #f9b58b;"/>
  </g>
  <path d="m164.46,36.67l-.08.27c-.15.14-.24.25-.27.31-1.54,3.88-2.61,7.9-3.23,12.06-.93,10.81-1.26,21.65-.99,32.5l-27.03.28s-.03,0-.05-.01c-.06-.03-.08-.1-.06-.16,3.3-7.33,6.67-14.6,10.13-21.8,3.48-7.24,6.47-13.05,12.57-17.17,3.25-2.2,6.2-4.44,8.85-6.73.24.06.29.21.15.44Z" style="fill: #488975;"/>
  <path d="m36.86,32.97c0-.12.07-.21.17-.23.69-.15.47,2.64.46,4.05,0,.5.09,1.57-.1,1.9-.64,1.15-.56-1.84-.56-1.88l.02-3.84Z" style="fill: #160f18;"/>
  <g>
    <path d="m166.85,46.39l-1.84,1.85c.58-.78,1.2-1.4,1.84-1.85Z" style="fill: #fff;"/>
    <path d="m164.11,37.26c.03-.06.12-.17.27-.31.23.04.33.21.29.51-.42,3.22.3,6.2,2.18,8.94-.64.46-1.25,1.07-1.84,1.85-.89.9-1.59,1.9-2.09,3.02-.12.26-.23.26-.33,0-.22-.58-.42-1.16-.59-1.74-.04-.15-.07-.31-.08-.46l-1.03.27c.62-4.16,1.69-8.18,3.23-12.06Z" style="fill: #fff;"/>
  </g>
  <path d="m47.64,68.85c-6.51.1-13.04.11-19.59.02,0,0,0,0,0,0-.1,0-.18-.09-.18-.19.1-3.32.08-7.69-.05-13.12-.11-4.34-.08-10.59.08-18.74,0-.14.06-.25.14-.3.13-.08.26-.08.4.02-.03,6.27.1,12.42-.04,18.81-.1,4.32-.1,8.63,0,12.95,0,.1.08.18.18.18l19.15.07c.16.14.14.29-.09.29Z" style="fill: #937b6c;"/>
  <path d="m36.84,36.81s-.08,3.02.56,1.88c.19-.33.1-1.4.1-1.9,3.42-.12,6.76-.11,10.01.01.24,0,.43.21.43.46l.05,31.02c0,.07-.06.15-.14.18-.05.02-.09.05-.12.1l-19.15-.07c-.1,0-.18-.08-.18-.18-.09-4.31-.09-8.63,0-12.95.14-6.39.01-12.54.04-18.81,2.8.22,5.6.31,8.4.26Z" style="fill: #fff;"/>
  <path d="m88.86,42.62c.16-.71.39-1.39.61-1.94.03-.07.11-.1.18-.07.69.25,1.36.54,2.01.87.65.33,1.27.69,1.87,1.09.31.21.48.47.51.78,0,.1,0,.21-.02.33-.36,1.82-3.58,5.07-5.02,2.29-.19-.36-.29-.78-.33-1.23-.02-.22-.02-.46-.01-.69.02-.47.1-.96.2-1.43Z" style="fill: #f9b58b;"/>
  <g>
    <path d="m89.65,40.61c1.38.5,2.67,1.15,3.88,1.96.42.28.58.65.48,1.11-.36,1.82-3.58,5.07-5.02,2.29-.76-1.45-.12-3.82.47-5.29.03-.07.11-.1.18-.07Z" style="fill: none;"/>
    <path d="m61.59,53.01c-.03,2,.13,3.98.48,5.95l.37.06,3.47-.8c1.29-1.3,2.25-2.82,2.9-4.52l.75-.59,2.31-.03c.2-.28.4-.59.6-.91.09-.14.18-.29.27-.44.1-.16.19-.32.29-.49.27-.47.54-.95.8-1.46,1.19-2.34,2.13-5.02,2.05-7.25,0-.09-.04-.18-.11-.24-1.55-1.52-1.71-4.25-.54-5.96,1.44-2.12,3.94-2.01,5.26.24.15.26.38.91.69,1.96.03.09.08.17.16.21.89.55,1.81-.45,2.32-1.07.09-.11.23-.14.34-.07l3.11,1.83h0s1.45.85,1.45.85c.21.13.31.38.24.6-.62,1.88-1.41,4.89.52,6.19.14.09.28.17.42.23.03.01.06.02.09.03.11.05.23.09.34.11.02,0,.05,0,.07.01.12.02.25.04.37.04,0,0,.02,0,.03,0,.14,0,.27,0,.4-.03h0l3.21-2.94,1.03.11c.36.2.72.39,1.1.55.08.04.18.05.28.03l1.75-.24.63.07s.02.03.01.05c0,.05-.02.11-.05.17-.29.66-.81,1.5-1.47,2.16-.84.84-1.92,1.38-3.01.79-.05-.03-.11-.03-.13,0,0,0,0,0,0,0s0,0,0,0v.05c-.03.07,0,.16.08.22,2.31,1.88,4.3-1.94,5.34-3.38h0,0l.26-.31c.05-.06.04-.15-.01-.2,0,0,0,0,0,0l-1.33-1.06-2.25-1.13c-.66-.15-1.19-.03-1.59.37-.02.02-.04.03-.06.04-.02.01-.05,0-.07.01-.04,0-.07.02-.1.01-.04,0-.06-.02-.1-.04-.02-.01-.05,0-.07-.03-.02-.02-.03-.04-.04-.06-.43-.7-.95-1.15-1.75-1.51-3.33-1.5-6.58-3.16-9.75-4.98-.08-.05-.08-.08.02-.09,4.51-.58,7.88-2.28,11.98-3.32.21-.05.39-.04.56,0h0c.11.03.2.08.29.16,0,0,0,0,.01,0,.09.08.17.18.24.3.92,1.68,1.01,3.31,1.27,5.18l.14-.07c.32-.29.61-.58.86-.88.51-.6.87-1.22,1.1-1.87.11-.32.19-.65.23-.98.04-.33.05-.67.02-1.01-.08-1.02-.47-2.09-1.17-3.17-3.01-5.25-8.5-8.74-14.57-8.53-8.05.28-12.53,6.69-13.82,14-.53,3.04-1.12,6.48-3.75,9.12-2.33,2.33-4.69,4.11-4.75,7.87Zm34.7-10.06c.29.1,3.47,1.49,3.22,1.79-.02.03-.07.04-.12.03-1.47-.31-2.66-.26-4.01-1.07-.03-.02.4.23.38.21-.13-.14.16-1.08.53-.95Zm-6.82-2.27c.03-.07.11-.1.18-.07,1.38.5,2.67,1.15,3.88,1.96.42.28.58.65.48,1.11-.36,1.82-3.58,5.07-5.02,2.29-.76-1.45-.12-3.82.47-5.29Z" style="fill: #160f18;"/>
  </g>
  <path d="m77.34,44.05c-.03-.11-.02-.12.06-.04.1.11.19.24.25.39,1.43,3.57,3.59,6.62,6.48,9.15.15.13.19.39-.11.35-.36.07-.64.38-.85.93-2.72-3.43-4.47-6.64-5.82-10.78Z" style="fill: #f39d77;"/>
  <path d="m169.31,53.59c0-.09.01-.18.06-.26l2.16-3.52c.69.59,1.23,1.31,1.61,2.15,0,.02.02.04.03.05.07.07.19.08.26,0,2.12-1.99,4.28-3.92,6.49-5.8.32-.28.97-.99,1.93-2.13-.53,1.94-1.24,3.96-1.7,5.76-2.72,10.59-4.79,21.16-5.86,31.95-1.58.1-3.15.06-4.71-.14.06-7.12.11-14.23.17-21.35,0-1.51-.14-3.75-.45-6.72Z" style="fill: #fff;"/>
  <path d="m166.4,54.03c.02-.09.01-.19-.02-.28-.6-1.8-1.06-3.64-1.37-5.51.58-.78,1.2-1.4,1.84-1.85.92.13,1.76.15,2.52.07l2.17,3.36-2.16,3.52c-.05.08-.07.17-.06.26.31,2.97.46,5.21.45,6.72-.05,7.12-.11,14.23-.17,21.35-1.42.15-2.85.2-4.29.14-.01-5.16.03-10.32.13-15.47.07-4.08.13-8.29.96-12.3Z" style="fill: #1a141e;"/>
  <path d="m160.88,49.32c.6-.25.79-.68.55-1.31-.04-.11-.03-.23.04-.25l.1-.04s0,0,.01,0c.08-.02.16.02.18.1.16.58.07,1.15.23,1.69.18.58.37,1.16.59,1.74.1.26.21.27.33,0,.51-1.12,1.2-2.12,2.09-3.02.31,1.88.76,3.72,1.37,5.51.03.09.04.18.02.28-.83,4.01-.89,8.22-.96,12.3-.1,5.16-.14,10.31-.13,15.47l-4.7.13c-.08,0-.16-.05-.19-.13-.19-.56-.36-.56-.53.01-.27-10.85.06-21.69.99-32.5Z" style="fill: #fff;"/>
  <path d="m88.08,62.9c-.19-.4-.36-.82-.48-1.27l3.13,30.7v.05c.95,2.63.52,5.25,1.52,7.86,1.38,3.63,2.76,8.19,6.94,8.94l.1-.45s.01-.02.02-.02c0,0,.01,0,.02,0,.21.12.31.13.32,0,0-.04,0-.1-.03-.16-.03-.09.02-.2.12-.25.26-.14.43-.34.52-.62.02-.07.04-.92.05-.97,0-.04.01-.08,0-.09-.04-.19-.06-.38-.06-.56,0-.55.18-1.04.55-1.49.05-.07.08-.16.09-.25l1.45-3.73c-1.07-4.04-1.96-7.77-2.93-12.16-.58-2.64-1.2-5.51-1.9-8.84-.17-.81-.38-1.72-.64-2.75-.09-.34-.18-.7-.27-1.06-1.03-3.97-1.74-8.12-4.25-11.04-1.14-1.33-2.66-2.41-4.74-3.1l.48,1.27Zm5.61,20.54c-.19-1.46-.61-2.93-1.2-4.39-.09-.21-.18-.43-.28-.65-.19-.44-.4-.88-.6-1.34-.2-.45-.39-.91-.56-1.37.17.46.36.92.56,1.37s.41.9.6,1.34c.1.22.19.43.28.65.59,1.46,1.02,2.93,1.2,4.39Zm-4.37-17.26h0s0,0,0,0c0,0,0,0,0,0Zm.99,5.54s0,.06.01.1c0-.03,0-.06-.01-.1Z" style="fill: #fb953b;"/>
  <path d="m63.84,101.63c-.02.08,2.66,1.05,2.73,1.09,7.25,3.75,13.99,9.97,21.18,12l2.98-22.35v-.05c4.37-4.3,3.53-10.04.84-15.28-.14-1.2-.49-2.36-1.04-3.43-.4-3.6-.74-7.34-2.4-10.62-.21-.42-.39-.88-.52-1.36-.2-.08-.48-.21-.77-.3-.1-.03-.19-.05-.29-.07-.19-.03-.37-.04-.53.01-.16.05-.29.16-.38.35.7,3.67,1.33,7.37,1.89,11.1.42,2.83.37,5.44-1.3,8.03l-.2.27c-.64,1.08-1.37,2.09-2.2,3.03-.08-.03-.18,0-.23.06-1.13-.42-2.17-.97-3.12-1.66-1.99-1.44-3.37-3.27-3.86-5.7-1.34-6.66-5.24-13.09-9.56-18.13-.2-.23-.58-.37-1.14-.42l-3.47.8h1.79c.11.02.21.04.27.07,1.54.93,2.17,2.84,2.19,4.58.1,7.17-.81,13.96-2.52,21.22l-.33,16.74Z" style="fill: #ff6a47;"/>
  <path d="m53.5,86.6l.09-12.48c.12-6.12,1.48-13.43,8.48-15.17l.37.06h1.79c.11.02.21.04.27.07,1.54.93,2.17,2.84,2.19,4.58.1,7.17-.81,13.96-2.52,21.22l-.33,16.74c-.02.08-.08-.03,0,0,7.09,2.67,12.73,6.28,18.28,9.19.92.32,3.29,1.38,2.79,2.43,0,.33-.35.54-.4.63-.97,1.64-1.72,3.37-2.24,5.17-.25.12-.43.31-.53.56-.15.39-.42.51-.8.35l-5.41-2.33-14.51-5.79c-4.19-2.09-7.34-3.94-7.43-9.23-.08-4.24-.11-9.57-.08-16Z" style="fill: #ff8432;"/>
  <path d="m86.5,80.28c1.38-2.43,1.43-4.89,1.03-7.55-.55-3.73-1.18-7.43-1.89-11.1-1.21-1.53-2.27-3.17-3.15-4.92-.92,2.59-1.54,4.73-1.86,6.42-.28,1.47.03,2.8.93,4,.01.02.03.04.04.06-.1.27-.19.48-.22.48l-1.78-1.13c.07-.14.13-.29.19-.43.14-.3.22-.8.23-1.51.01-.94-.55-1.34-1.16-1.99-2.58-2.73-5.17-5.32-7.75-7.76-.15-.14-.16-.37-.02-.52,0,0,0,0,0,0,.61-.61.86-1.02.77-1.23l-2.69.03c-.08,0-.16.06-.19.14-.65,1.89-1.68,3.54-3.08,4.96.56.04.94.18,1.14.42,4.32,5.04,8.22,11.47,9.56,18.13.49,2.43,1.87,4.26,3.86,5.7.96.69,2,1.24,3.13,1.66.08.03.17,0,.23-.06.72-.82,1.73-2.24,2.4-3.31h0s.01-.03.02-.04c.09-.15.18-.29.26-.42,0,0,0-.01,0-.02Z" style="fill: #fff;"/>
  <path d="m182.12,77.74l-.09-2.07s0,0,0,0c0-.06.09-.12.22-.13l11.36-.73c.09,0,.18.06.19.15l.33,2.07s0,0,0,0c.01.1-.06.19-.16.2-3.87.45-7.8.72-11.7.64-.08,0-.15-.06-.15-.13Z" style="fill: #fff;"/>
  <path d="m38.65,86.31l7.22.07,7.63.23c-.02,6.43,0,11.76.08,16,.09,5.29,3.24,7.14,7.43,9.23l-.16,2.05c-1.36,4.05-2.85,8.05-4.45,12.02h-5.89c-4.81,0-9.63.02-14.44-.07-1.06-.02-2.13,0-3.21.03l-3.46-7.21-.63-1.34c-2.56-5.51-4.98-11.08-7.27-16.72l-1.7-4.85c-.68-4.29,1.5-6.7,5.14-8.36,4.26-1.35,9-1.24,13.7-1.08Z" style="fill: #31474c;"/>
  <path d="m228.42,94.45c.4,2.08-.43,4.65-1.18,6.73-2.98,8.35-6.38,16.53-10.2,24.54-.04.08-.12.13-.2.13h-9.14c-.13-2.36-.08-4.73.14-7.1.05-.55-.11-1.95-.5-4.21-.02-.09.02-.18.08-.24,3.97-3.52,7.52-8.63,7.09-14.11-.35-4.54-.55-8.54-.59-12.01,4.71-.1,13.32.16,14.5,6.26Z" style="fill: #31474c;"/>
  <path d="m99.24,108.84s0-.02,0-.03c.02-.06.05-.1.08-.08.27.17.37.11.29-.16-.03-.09.02-.2.12-.25.26-.14.43-.34.52-.62.05-.14.06-1.02.06-1.06-.16-.77,0-1.46.49-2.05.05-.07.08-.16.09-.25l1.45-3.73,5.35-.85c3.44-.96,6.87-1.91,10.31-2.88,1.12-.32,1.91-.17,2.47.84.3,2.18,2.56,8.01,0,8.64-4.79,1.18-12.55,2-17.42,2.78-1.4.22-2.69.24-3.86.06l.05-.35Z" style="fill: #fda747;"/>
  <path d="m177.38,112.94c-.61.23-1.26.29-1.95.2.2-1.58.11-3.14-.27-4.67-.34-1.38-.67-2.76-.98-4.15l.55-2.93c.05-1.18.22-2.35.53-3.51l2.12,15.06Z" style="fill: #ccc8c9;"/>
  <path d="m175.16,108.47c.38,1.54.47,3.09.27,4.67.06,3.1.37,6.19.95,9.25,0,0,0,.02,0,.03,0,.06-.06.11-.12.1-.97-.05-3.31.12-3.26,1.27.05.92,1.44,1.06,2.1.83l.06.35c-1.19-.14-2.36-.39-3.51-.75-2.31-1.12-4.14-2.78-5.48-4.98,1.3-.1,2.61-.13,3.93-.08,1.19.04,2.23-.37,2.51-1.54.19-.77.45-3.18.78-7.21l.78-6.08c.31,1.38.64,2.77.98,4.15Z" style="fill: #1a141e;"/>
  <path d="m75.52,117.62c-2.88-.27-5.76-.58-8.63-.94-.55-.07-1.89-.39-4.01-.96-1.16-.31-1.84-.93-2.04-1.84l.16-2.05,14.51,5.79Z" style="fill: #c36135;"/>
  <path d="m181.74,111.9c5.93-.65,10.25,4.83,11.78,10,.02.08,0,.16-.07.21-1.62,1.14-3.14,2.37-4.59,3.69-2.52.08-5.04.05-7.58-.07-1.39-.07-2.76-.62-4.26-.69l-1-.16c.95-.02,1.11-.2.48-.56-.1-.06-.2-.08-.27-.05l-1.14.35c-.66.22-2.06.09-2.1-.83-.05-1.15,2.29-1.32,3.26-1.27,0,0,.02,0,.03,0,.06-.01.1-.07.09-.13-.57-3.06-.89-6.14-.95-9.25.69.1,1.34.03,1.95-.2,1.52-.54,2.97-.89,4.37-1.04Zm-5.23,8.13c.02.94.15,1.87.4,2.78.04.13.09.24.14.27.21.12.37.29.49.51,0,0,.01.02.02.02.03.03.09.02.12-.02l.03-.04s.03-.06.03-.09l-1.11-3.45c-.08-.24-.11-.24-.11.02Z" style="fill: #f9b58b;"/>
  <path d="m96.68,124.08c-.11-.16-1.22-.66-1.43-.87-.35-.37-.57-.76-.96-1.09-.05-.05-.11-.09-.16-.15-.07-.07-.12-.15-.18-.22-.19-.26-.41-.48-.45-.8-.03-.25-1.5-2.47-1.16-2.56.08-.02,2.99,1.22,3.37.99,1.7-1.04-.44-.94-4.57-2.94-1.81-.88-4.08-2.18-5.98-2.77-.52-.25-.6.11-.65.2-.97,1.64-1.72,3.37-2.24,5.17.75.69,1.32,1.43,1.71,2.22.04.07.04.17.02.27.99,1.14,1.27,1.14,1.91,1.59.55.38,1.15.67,1.76.94.58.26,1.09.66,1.68.88.45.17.87.13,1.34.18.13.01.28.1.4.01.17-.13.05-.2-.07-.28-.19-.13-.38-.24-.57-.38-.35-.26-.69-.54-1-.84-.63-.62-.7-.58-1.12-1.35-.06-.1-.11,0,0,0,.11,0-.75-.58-.71-.54.52.63,1.61,1.19,2.23,1.73.43.38.91.8,1.44,1.08.16.08.33.16.5.21.32.09,1.01.24,1.02.24.25.08.49.18.74.23.25.04.54.02.74-.15.09-.08.15-.19.18-.3.01-.07.02-.13,0-.2.09.05.79.13.88.17.13-.03-.32-.26-.37-.3-.46-.37-.93-.74-1.39-1.1.25.2.52.4.79.6.24.18,1.64,1.04,1.94,1.1.36.07.63-.59.38-.96Z" style="fill: #f9b58b;"/>
  <path d="m62.89,115.73c2.12.57,3.45.89,4.01.96,2.87.36,5.75.67,8.63.94l5.41,2.33c.38.16.64.05.8-.35.1-.26.28-.44.53-.56.75.69,1.32,1.43,1.71,2.22.04.07.04.17.02.27.99.98,1.27,1.14,1.91,1.59l.3,2.63s0,.01,0,.02c0,.07-.06.13-.13.12h-29.67c1.6-3.96,3.09-7.96,4.45-12.01.2.91.88,1.53,2.04,1.84Z" style="fill: #160f18;"/>
  <path d="m161.7,120.11c.1.19.31-1.1.52-1.13,1.33-.19,2.64-.1,3.94.26,1.34,2.2,3.17,3.86,5.48,4.98.3.07.5.23.61.47,0,0,0,.02,0,.03,0,.06-.04.11-.1.11-1.52.13-2.94.09-4.28-.12-.27-3.05-1.91-4.44-4.93-4.17-.34.03-.58-.02-.7-.15l-1.15-.8c.2-.07.4.1.61.51Z" style="fill: #fff;"/>
  <path d="m177.73,123.47s0,.06-.03.09l-.03.04s-.02.02-.02.02c-.04.03-.09.02-.11-.02-.11-.22-.27-.39-.49-.51-.05-.03-.1-.13-.14-.27-.25-.91-.38-1.84-.4-2.78,0-.26.03-.26.11-.02l1.11,3.45Z" style="fill: #261411;"/>
  <g>
    <path d="m144.85,120.78c-.07-.03-.07-.05,0-.08.08-.03.13-.08.15-.15l-10.91-.03c-.08,0-.14-.04-.14-.09v-.09c-.41.06-.82.04-1.22-.06-1.95.15-3.93.18-5.95.11-.8-.03-.92.2-.38.68.69,1.48-.12,2.51,1.47,3.66.83.6,1.65.9,2.46.89,4.66-.04,12.37-.02,16.93.06-.9-1.21-1.47-2.54-1.68-3.99-.06-.43-.31-.73-.75-.9Z" style="fill: #d5d3d2;"/>
    <path d="m167.62,120.54c-.41.03-.7-.02-.85-.15-.44.17-.87.2-1.29.09l-7.27.06-.34.13c-.08.03-.12.13-.08.23.39,1.16.74,2.67.43,3.86-.08.3-.12.6-.12.91,4.56.02,9.11.04,13.65.08.3,0,.62-.14.94-.43.24-.28.53-.48.87-.61-.32-3.05-2.31-4.44-5.96-4.17Z" style="fill: #b5b5b4;"/>
    <path d="m157.79,120.9c-.03-.1,0-.2.08-.23l.34-.13h-13.2c-.02.07-.07.13-.15.15-.07.03-.08.05,0,.08.43.17.68.47.75.9.22,1.46.78,2.79,1.68,3.99h10.82c0-.31.04-.61.12-.91.31-1.19-.04-2.7-.43-3.86Z" style="fill: #c5c5c4;"/>
  </g>
  <rect x="111.95" y="121.75" width="4.3" height="1.57" rx=".08" ry=".08" style="fill: #d5d3d2;"/>
  <rect x="107.23" y="121.77" width="4.29" height="1.55" rx=".08" ry=".08" transform="translate(-1.7 1.54) rotate(-.8)" style="fill: #d5d3d2;"/>
  <rect x="98.81" y="121.75" width="8.06" height="1.57" rx=".12" ry=".12" transform="translate(-.21 .18) rotate(-.1)" style="fill: #d5d3d2;"/>
  <path d="m98.23,121.7s0,0,.01,0c.12,0,.21.05.21.13v1.21c0,.09-.07.16-.16.16l-3.02.02c-.34-.27-.58-.61-.71-1.04-.03-.09,0-.19.06-.24.07-.05.16-.09.26-.1l3.35-.14Z" style="fill: #d5d3d2;"/>
  <path d="m98.28,123.62c.08,0,.14.07.14.15v1.27s-1.01-.17-1.01-.17c-.12-.02-.21-.07-.24-.14-.1-.26-.27-.48-.49-.65-.09-.07-.18-.1-.25-.09-.37.04-.48-.1-.35-.44l2.2.07Z" style="fill: #d5d3d2;"/>
  <path d="m111.92,123.85c.02-.08.09-.14.17-.14l3.99-.03c.08,0,.16.07.18.16l.19.83c.22.29.17.43-.15.43-2.11,0-3.56.03-4.36.08-.14-.45-.15-.9-.03-1.35Z" style="fill: #d5d3d2;"/>
  <rect x="107.24" y="123.64" width="4.24" height="1.53" rx=".08" ry=".08" transform="translate(-.65 .57) rotate(-.3)" style="fill: #d5d3d2;"/>
  <rect x="98.81" y="123.62" width="8.09" height="1.57" rx=".12" ry=".12" transform="translate(-.22 .18) rotate(-.1)" style="fill: #d5d3d2;"/>
  <path d="m176.24,124.27c.07-.02.17,0,.27.05.63.36.47.55-.48.56l-.87.09-.06-.35,1.14-.35Z" style="fill: #160f18;"/>
  <path d="m120.54,124.94c2.47.21,4.97.13,7.42.43.09.01.16.07.19.15.13.4-.01.61-.43.65-1.1.09-4.4.08-9.91-.04-.11,0-.2-.04-.25-.1-.1-.12-.12-.26-.05-.42v-.49c1.01-.21,2.02-.27,3.03-.18Z" style="fill: #4e4c4d;"/>
  <path d="m199.31,158.63c.01.08,0,.17-.05.26-.06.12-.09.25-.09.37l-15.48-.22c-.55-.13-1.02-.16-1.41-.08-.02,0-.03,0-.05,0-.15,0-.04-.12-.04-.26l-.23-9.36c0-.1.3-.17.4-.18l15.24-.58,1.72,10.04Z" style="fill: #31474c;"/>
  <path d="m212.33,137.49c-2.06,3.63-4.75,6.73-8.65,8.46l-.96-5.39c-.02-.09.03-.18.1-.21l6.15-2.49s.14-.03.26-.02c.25,0,.37-.12.39-.39l2.71.05Z" style="fill: #31474c;"/>
  <path d="m177.34,230.79c.24-.05,6.62-81.25,6.62-81.25,0-.1.08-.17.17-.18l10.84-.55c.33-.02.56-.32.5-.64l-.79-4.08c-.02-.12-.14-.2-.28-.17-.37.09-.78-.02-1.13-.25-2.68-1.74-5.24-3.64-7.69-5.69-.1-.08-.22-.12-.34-.12h-63.36s-1.52,3.53-1.52,6.45c0,2.75,2.98,10.29,3.32,11.15.02.06.06.11.1.15,2.97,3.19,5.16,5.18,3.97,9.59-.65,2.42-1.41,4.81-2.26,7.16-.03.07-.04.14-.03.21.66,6.33,7.6,47.86,8.51,53.28.05.31.36.51.67.43l1.32-.35c.51-.14.89.46.55.87-1.58,1.88-4.43,5.44-6,8.3-.08.14-.09.31-.02.46.15.37.32.75.5,1.15.11.25.38.39.65.31,5.22-1.57,16.49-6.64,18.54-7.29.22-.07.36-.26.37-.49.01-2.23-1.16-12.52-1.16-12.52-.07-.04-.12-.13-.12-.22l-.5-7.42c-.18-4.57-.62-9.27-.79-13.66-.62-15.72-1.07-31.46-1.67-47.18,0-.2.02,5.76.21,5.7,3.23-1.03,7.1-2.65,8.63-3.31.33-.14.71.08.75.44l6.97,76.31c.02.19-.17,4.71,0,4.79l.95.37c.27.13.39.45.26.72-1.21,2.57-5.27,8.79-5.27,8.79l-2.6,3.55c.98,1.26,2.74,1.59,4.1.75,4.61-2.85,14.44-9.08,16.52-11.68.73-.91.6-2.93.5-3.86-.03-.28-.49.11,0,0Z" style="fill: #1a141e;"/>
  <path d="m57.97,149.6c.26,1.1.65,2.06,1.18,2.9.26.42.56.81.89,1.16.33.36.7.68,1.1.97,1.06.77,2.21,1.49,3.48,2.15,1.26.66,2.63,1.27,4.1,1.83,4.42,1.67,8.8,3.44,13.13,5.31.44.02.79.18,1.03.48,1.62.47,3.14,1.15,4.55,2.02,1.12.45,2.07,1.12,2.85,2.02.06.07.08.18.04.26l-1.17,2.41c-.09.19-.17.17-.24-.04l-.35-1.1c-.09.55-.16,1.11-.21,1.67-.13,1.42-.81,2.64-1.37,3.91-.04.1-.12.16-.19.18l-.28.04-.28,2.34c-.58,2.32-.93,4.31-1.02,5.93-.09,1.6-.18,3.2-.28,4.81l-3.23,26.7-.56,2v.93c.01.1.04.19.09.26,1.02,1.56,1.61,2.64,1.78,3.25.1.36.29.57.57.62,3.14.71,6.35,1.49,9.46,1.91,5.34.72,10.45,1.21,15.74.81l-.11-1.7c0-.08-.08-.15-.17-.18l-1.56-.4c-2.79-.5-5.27-1.31-7.46-2.41-.29-.15.05-.42.24-.46,1.59-.28,3.11-.17,4.58.31.55-.02,1.03.08,1.42.32l1.51.3.85.2.93.29.71.29c.53.13,4.26,1.3,5.23,1.81,2.47.83,4.97,1.38,7.49,1.64.55.11.93-.06,1.15-.51.04-.35-.09-.61-.38-.79-2.33-1.4-5.47-3.04-8.33-4.88-1.48-.95-2.53-3.85-3.11-5.33l-2.58-5.94c-.04-.08-.03-.18.02-.25l.91-1.31c2.96-4.54,4.59-7.79,6.9-13.09,2.98-6.84,6.01-13.68,8.42-20.77.87-2.39,1.63-4.81,2.3-7.27,1.19-4.44-1.04-6.43-4.04-9.66-1.97-1.68-3.68-2.98-5.15-3.91-7.06-4.48-14.1-8.98-21.13-13.51l-.32-.2c-.08-.05-.17-.08-.26-.08h-30.06c0,.42-.14.74-.41.94-2.27,1.7-4.75,3.19-7.04,4.88-.35.26-.6.57-.76.94-.63,1.52-.71,3.32-.62,5Zm33.74,58.73c1.38-3.48,2.65-7.03,3.81-10.66.44-1.56,1.03-3.09,1.77-4.59,2.83-8.45,5.47-16.97,7.92-25.55l.92-3.92c.01-.06.07-.09.13-.08,0,0,.02,0,.03.01l4.95,3.15c.28.06.48.21.6.43.04.07.04.17,0,.26-2.34,4.4-3.88,9.12-4.63,14.17-1.14,7.63-2.53,15.75-4.17,24.36-.69,1.55-1.58,2.96-2.69,4.22l.05.39c.01.11,0,.2-.02.26-.9,2.06-1.41,4.21-1.51,6.46l.67,1.44c.03.07.02.16-.04.23-.43.49.04,1.98-1.39,1.1-1.28-.78-2.23-1.85-2.87-3.21-1.54-1.49-2.74-3.19-3.6-5.12-.53-1.19-.37-2.24.08-3.38Z" style="fill: #160f18;"/>
  <path d="m32.53,162.15c-2.66-2.33-.67-5.32,1.56-6.88,4.55-3.17,11.72-3.39,16.8-2.59-.15,3.83-1.45,7.65-1.9,11.44l-4.49.15-3.93.07c-2.72.03-5.94-.35-8.05-2.19Z" style="fill: #31474c;"/>
  <path d="m46.25,139.36c1.44.72,2.91,1.41,4.41,2.07.08.03.13.11.13.2-.16,3.17.18,6.32-.18,9.47-6.18-2.77-10.13-7.36-13.17-13.26l4.98.04c1.88.65,3.15,1.14,3.83,1.48Z" style="fill: #31474c;"/>
  <path d="m50.65,137.41l-9.76.08c1.88.65,8.39,3.48,9.89,4.14.08.03-1.34,18.29-1.79,22.09l-.19,2.71-1.81,22.72-1.25,10.63-.27,2.34-.2,2.96-.35,3.61-1.08,9.5c.13,1.18.05,2.41-.23,3.69l-1.55,15.67h4.2l10.23-73.85,1.46-14.5c-.09-1.68.19-3.28.82-4.8.15-.37,10.75-6.53,10.75-6.96l-18.89-.02Z" style="fill: #66501d;"/>
  <path d="m213.96,149.08c2.64,1.11,6.52,4.13,3.99,7.39-1.61,2.07-5.04,2.97-7.64,2.98-.15,0-.46.12-.56.22-1.29-.22-2.57-.27-3.83-.14-.03,0-.04.02-.05.05v.05h-.2c-.34-.35-.5-.87-.45-1.57.05-.75-.24-2.75-.85-6-.25-1.33-.37-2.7-.36-4.1,3.47-.56,6.79-.18,9.94,1.14Z" style="fill: #31474c;"/>
  <path d="m61.14,154.63c2.11,1.54,4.64,2.86,7.58,3.97,4.42,1.67,8.8,3.44,13.13,5.31l-17.91.14c-1.22-.11-2.43-.09-3.64.07l-3.79-.02c-.45-.45,1.33-13.57,1.46-14.5.51,2.19,1.57,3.87,3.17,5.03Z" style="fill: #31474c;"/>
  <path d="m227.19,223.61l-1.91-5.49c-.03-.08-.1-.13-.19-.13l-1.27-3.82s.02,0,.03,0c.06-.01.09-.07.07-.12-1.27-3.94-2.75-8.06-3.95-11.74-4.67-14.24-9.37-28.48-14.09-42.7v-.04s.03-.04.05-.04c1.26-.12,2.54-.08,3.83.13,2.83,8.41,5.52,16.85,8.35,25.25,4.18,12.37,8.51,25.96,12.62,38.36" style="fill: #101d36;"/>
  <path d="m26.08,222.31c.02-.06.08-.1.14-.1l1.28-3.59c-.09,0-.16-.07-.16-.16,0-.02,0-.03,0-.05l7.37-23.25,6.16-19.33,2.56-8.08,1.07-3.48-3.93.07-1.27,3.85c-6.8,21.09-13.51,42.23-20.17,63.37,1.34,0,2.68.01,4.02.02l2.92-9.27Z" style="fill: #101d36;"/>
  <path d="m87.44,166.42l1.14,3.55c-.09.55-.16,1.11-.21,1.67-.13,1.42-.81,2.64-1.37,3.91-.04.1-.12.16-.19.18l-.28.04-.15-.23-3.48-11.14c1.62.47,3.14,1.15,4.55,2.02Z" style="fill: #101d36;"/>
  <path d="m97.73,193.48c1.7,4.08,3.37,8.16,5.04,12.26.04.1.08.17.1.17h.15c-.69,1.57-1.58,2.97-2.69,4.23l-4.81-12.48c.44-1.56,1.03-3.09,1.77-4.59.17.1.37.22.44.4Z" style="fill: #101d36;"/>
  <path d="m98.86,217.26l.67,1.44c.03.07.02.16-.04.23-.43.49.04,1.98-1.39,1.1-1.28-.78-2.23-1.85-2.87-3.21l3.63.44Z" style="fill: #101d36;"/>
  <path d="m212.79,235.75l-.12-.83-3.67-18.17-1.18-5.43c-.09-1-.31-1.99-.65-2.96-.46-1.84-.87-3.7-1.24-5.58-2.9-15.08-5.78-30.17-8.67-45.25-.02-.09-.06-.17-.11-.2l-.11-.07c0-.11.03-.22.09-.33.05-.08.06-.16.05-.23l-1.75-8.63-1.04-4.13s-.38.16-.75-.06c-1.74-1.04-6.74-4.45-8.79-6l24.95-.02c-.01.24-.14.36-.39.35-.12,0-.21,0-.26.02l-6.16,2.24c-.08.03-.12.11-.1.19,0,0,5.27,33.93,6.56,42.52,1.17,7.74,8.01,45.27,9.31,52.8" style="fill: #66501d;"/>
  <polygon points="184.77 35.76 184.31 34.81 182.09 33 182.78 35.3 181.53 37.1 176.01 41.61 169.72 45.5 169.37 46.46 173.45 52.03 181.61 44.99 184.77 35.76" style="fill: #fff;"/>
  <polygon points="24.37 137.84 225.45 137.84 231.95 126.01 19.68 126.01 24.37 137.84" style="fill: #c9be68;"/>
  <g style="clip-path: url(#b);">
    <path d="m120.47,97.7c2.62-.31,4.22-1.67,4.8-4.1.07-.3.26-.43.54-.48,1.41-.45,3.74-1.66,5.2-1.24,1.14.33,2.31.53,3.49.61.31.02.48.15.52.38,0,.07-.04.15-.12.22l-.43.38c-.08.07-.07.1.05.1.51-.01.66.26.45.83-1.46.71-3,1.25-4.6,1.61-.61.14-.98.38-1.13.74-.08.2.05.25.21.18.6-.26,2.31-.84,2.48.3.01.08-.03.17-.11.21-1.2.66-2.61,1.21-3.56,2.21-1.05,1.11-2.07,2.25-3.08,3.39-1.6.63-2.91.32-4.06.99.03-2.07-.36-4.19-.65-6.34Z" style="fill: #f9b58b;"/>
  </g>
  <path d="m123.75,116.27c.07,1.84.99,3.08,2.84,3.15,3,.1,39.58-.17,39.58-.17,1.3-.1,4.01-.13,5.33-.08,1.19.04,2.23-.37,2.51-1.54.19-.77,1.99-27.17,2.44-30.54.31-2.35.23-3.89-2.16-4.86-1.62.1-3.23.05-4.83-.14-1.46.15-2.92.19-4.39.14l-4.82.13c-.08,0-.16-.05-.19-.13-.19-.55-.37-.54-.55.01l-27.81.11-.53.17c.46.03.39.17.08.14-5.46-.62-5.42,1.41-5.65,6.05l-1.86,27.57Z" style="fill: url(#c);"/>
</svg>