<?xml version="1.0" encoding="UTF-8"?>
<svg xmlns="http://www.w3.org/2000/svg" xmlns:xlink="http://www.w3.org/1999/xlink" viewBox="0 0 255.62 288.82">
  <defs>
    <linearGradient id="aq" x1="159.98" y1="138.4" x2="181.65" y2="138.4" gradientUnits="userSpaceOnUse">
      <stop offset="0" stop-color="#db5f45"/>
      <stop offset=".41" stop-color="#d8424b"/>
      <stop offset="1" stop-color="#d8424b"/>
    </linearGradient>
  </defs>
  <g style="isolation: isolate;">
    <g id="a" data-name="Layer 1">
      <path d="m140.94,21.3c19.6-27.55,56.48-25.69,84.29-9.62,36.69,21.2,37.08,51.64,17.48,79.19-19.6,27.55-56.88,35.12-83.27,16.91-26.38-18.21-38.11-58.93-18.51-86.48Z" style="fill: #d9eee7;"/>
      <path d="m97.85,240.74c-9.07-.43-18-.47-26.58-.19-35.35,1.17-64.45,8.02-70.01,17.46-6.91,11.73,14.05,21.58,75.86,23.29,24.81.69,50.24-.28,69.7-3.09,17.29-2.49,29.87-6.43,33.12-11.95,6.91-11.73-35.66-23.32-82.09-25.51Z" style="fill: #d9eee7;"/>
      <g>
        <path d="m123.08,232.34c-.1.03-.17.12-.19.23-.26,2.35-.38,4.71-.36,7.09-.69-.02-1.06.31-1.1.98,2.57,2.04,5.12,4.1,7.64,6.17,3.1,2.55,5.39,3.79,9.11,4.39-.31-1.16-.91-2.21-1.8-3.15-1.57-1.66-3.47-3.12-3.88-5.45-.29-1.65-.34-3.4-.14-5.25.26-2.55.47-5.15.61-7.78-3.33.73-6.63,1.65-9.89,2.76Z" style="fill: #66501d;"/>
        <path d="m120.41,244.04c.5,2.59.82,5.2.95,7.85,0,.15.06.26.12.27l1.78.16c.07,0,.14-.1.16-.25l.56-4.74s.01-.06.03-.09c.07-.13.24-.17.38-.1.8.41,1.5.89,2.1,1.44.94.86,1.54,2.3,2.39,3.37.4.51.91.89,1.51,1.15,1.44.59,11.59,3.87,7.8-1.89-3.72-.61-6.01-1.85-9.11-4.39-2.53-2.07-5.07-4.13-7.64-6.17-.78.97-1.28,2.06-1.02,3.4Z" style="fill: #66501d;"/>
      </g>
      <g>
        <path d="m129.08,241.3c-.1.05-.16.14-.16.25.03,2.36.21,4.72.52,7.08-.68.07-1.01.44-.97,1.11,2.8,1.7,5.59,3.43,8.35,5.17,3.4,2.14,5.82,3.09,9.59,3.23-.46-1.11-1.18-2.08-2.18-2.9-1.76-1.46-3.83-2.66-4.52-4.93-.49-1.6-.76-3.33-.8-5.19-.06-2.57-.18-5.16-.36-7.79-3.21,1.14-6.37,2.47-9.47,3.97Z" style="fill: #f4b17b;"/>
        <path d="m127.88,253.24c.82,2.5,1.46,5.06,1.92,7.67.03.14.09.25.15.25l1.78-.06c.07,0,.13-.12.13-.27l-.04-4.77s0-.06.02-.09c.05-.14.21-.2.36-.15.85.31,1.6.7,2.26,1.17,1.04.74,1.82,2.09,2.79,3.05.46.46,1.01.77,1.64.95,1.5.41,11.98,2.39,7.51-2.84-3.77-.14-6.19-1.08-9.59-3.23-2.76-1.74-5.55-3.47-8.35-5.17-.66,1.06-1.01,2.21-.59,3.5Z" style="fill: #101d36;"/>
      </g>
      <polygon points="224.23 233.33 176.75 280.36 181.35 191.33 231.76 146.97 224.23 233.33" style="fill: #fed794;"/>
      <path id="b" data-name="Path 939" d="m73.49,57.28c-.77-.56-1.49-1.19-2.17-1.86-.68-.43-1.47-.66-2.27-.66-.07.03-.15.04-.22.04-.37-.02-1.07-.02-2.1,0-1.15,0-2.27.34-3.23.98,2.99-3.09,7.85-1.84,9.98,1.51h0Z" style="fill: #020204;"/>
      <path id="c" data-name="Path 940" d="m73.5,57.28c.41.75.7,1.56.84,2.4.04.2.17.36.35.44,1.21.5,2.11,1.53,2.46,2.79.04.13.18.21.31.16,0,0,0,0,0,0h0c6.92-2.54,16.13.36,19.06,7.51l-6.08,2.21c-.13.05-.21.19-.16.32.3,1.01.22,2.1-.24,3.05-.25.54-.54.89-.11,1.45.98,1.32,1.5,2.92,1.47,4.57-.02,3.04-1.46,4.92-4.32,5.67l-.84.03c-4.04-.19-6.46-3.8-6.42-7.62.02-2.22-2.71-1.71-2.15.74.62,2.7,1.17,4.52-.24,7.03-.82,1.2-2,2.11-3.37,2.58-.09.03-.15.13-.13.22.64,3.88,1.77,7.65,3.37,11.24l.35.87c-.06.02-.12.06-.15.11-.02.07,0,.15.06.2.41.49.26.73-.47.71l-1.09-2.4c-1.08-2.95-1.95-5.98-2.6-9.06-.08-.37-.16-.38-.25,0-.21.85-.61,1.65-1.17,2.32-1.92,1.94-4.81,2.56-7.36,1.59-.7-.25-1.42-.44-2.16-.56-.62.02-1.24.12-1.83.31-.06.02-.13,0-.17-.06-.67-1-2.15-.21-2.99-.08-.89.16-1.81-.05-2.55-.58-.15-.1-.27-.1-.36.01-2.36-1.61-3.49-4.5-2.84-7.28.33-1.82,2.5-2.99.94-5-2.38-3.07-4.29-6.29-3.08-10.37.47-1.6,1.45-3.01,2.79-4.01,1.39-1.05,1.31-1.88.85-3.39-1.82-5.86,3.61-9.96,8.99-8.25.06.02.13,0,.16-.07.28-.51.65-.96,1.1-1.34.96-.64,2.08-.98,3.23-.98,1.03-.03,1.73-.04,2.1,0,.08,0,.15,0,.22-.04.8,0,1.59.24,2.27.66.67.67,1.4,1.3,2.17,1.86h0Zm12.51,18.77c-1.25-5.51-2.46-10.63-8.56-12.59-.57-.18-.3-.1-.43.38-.1.36-.1.75.01,1.11.02.07.07.12.14.15,5.27,2.06,5.79,6.2,7.09,10.99.03.11-.02.22-.13.27-3.94,1.87-2.8,8.18.83,9.66,1.72.8,3.77.17,4.74-1.46,1.56-2.74-.1-7.87-3.56-8.37-.07,0-.12-.06-.14-.13h.01Z" style="fill: #0b122f;"/>
      <path id="d" data-name="Path 942" d="m86.15,76.17c3.46.5,5.14,5.62,3.56,8.37-.97,1.63-3.02,2.26-4.74,1.46-3.63-1.49-4.77-7.8-.83-9.66.1-.04.16-.16.13-.27-1.3-4.79-1.82-8.94-7.09-10.99-.07-.03-.12-.08-.14-.15-.12-.36-.12-.75-.01-1.11.13-.47-.14-.57.43-.38,6.11,1.97,7.31,7.09,8.56,12.6.02.07.07.12.14.13h-.01Z" style="fill: #f1f5f7;"/>
      <path id="e" data-name="Path 943" d="m96.53,70.58c.74,2.25,1.14,4.59,1.17,6.96.07,3.23.07,7.03,0,11.4-.09,5.63-4.02,7.62-9.06,5.9-.94-2.21-1.47-4.58-1.54-6.98,2.86-.74,4.3-2.63,4.32-5.67.03-1.64-.48-3.25-1.47-4.57-.43-.55-.14-.91.11-1.45.45-.95.53-2.04.24-3.05-.04-.13.03-.27.16-.32l6.08-2.21h0Z" style="fill: #fcb195;"/>
      <path id="f" data-name="Path 945" d="m86.26,87.88c.05,2.25.45,4.48,1.17,6.61-1.08-.19-2.13-.47-3.17-.83v-.12c0-.07-.05-.13-.12-.15-2.78-.96-5.15-2.86-6.69-5.37,1.41-2.52.86-4.33.24-7.03-.56-2.45,2.17-2.96,2.15-.74-.04,3.82,2.38,7.42,6.42,7.62h0Z" style="fill: #fcb195;"/>
      <path id="g" data-name="Path 949" d="m87.1,87.85c.07,2.4.6,4.77,1.54,6.98.22.49,1.93,4.24,2.55,3.76.15-.12.37-.1.5.05,0,.01.02.03.03.04l1.96,3.42c.07.12.03.28-.09.36,0,0,0,0,0,0-.03.02-.07.03-.1.04-.45.07-.22.84-.2,1.17.32,5.14.67,10.29,1.07,15.43-.58-.5-.92-1.22-.94-1.99-.46-4.47-.78-8.96-.95-13.45-.01-.36-.1-.71-.26-1.03-.42-.86-.92-1.67-1.48-2.44-1.23-1.82-2.31-3.73-3.25-5.71-.73-2.13-1.12-4.36-1.17-6.61l.84-.03h-.02Z" style="fill: #121122;"/>
      <path id="h" data-name="Path 950" d="m77.45,88.03c1.54,2.51,3.91,4.4,6.69,5.37.07.02.12.08.12.15v.12c-1.08,2.37-1.49,4.99-1.19,7.58.05.54.41.99.92,1.17-2.21.43-4.5.31-6.66-.35-1.6-3.59-2.73-7.36-3.37-11.24-.02-.1.04-.19.13-.22,1.37-.48,2.55-1.39,3.37-2.58h0Z" style="fill: #63a998;"/>
      <path id="i" data-name="Path 953" d="m76.03,101.57c-1.59-.43-3.09-1.15-4.4-2.14-.31-.21-.35-.43-.1-.68.05-.05.09-.12.1-.19.24-1.23.37-2.49.39-3.74.56-.68.95-1.47,1.17-2.32.09-.37.17-.37.25,0,.65,3.08,1.52,6.11,2.6,9.06h0Z" style="fill: #488975;"/>
      <path id="j" data-name="Path 955" d="m62.49,95.85c-2.46,1.51-5.6,1.36-7.9-.39.1-.11.21-.12.36-.01.74.53,1.66.73,2.55.58.84-.13,2.32-.92,2.99.08.04.06.11.08.17.06.59-.19,1.21-.29,1.83-.31h0Z" style="fill: #020204;"/>
      <path id="k" data-name="Path 957" d="m70.74,99.47c7.05,9.47,9.18,20.9,9.37,32.56.04,2.37,4.84,5.9,6.69,7.11.18.12.37.22.57.3.06.03.11.08.15.14.05.09.15.12.24.07.01,0,.02-.01.03-.02.21.3.53.51.9.56.73.62,1.56,1.1,2.46,1.43,1.87.95,3.8,1.8,5.76,2.55,1.27.59,2.58,1.09,3.93,1.48.24.04.36.13.37.29l-1.35,3.1c-6.8-1.62-13.19-4.65-18.74-8.91-4.61-3.48-8.69-7.95-10.84-13.25-1.72-4.59-2.96-9.34-3.7-14.18-.22-1.24-1.28-6.35-3.6-3.92-6.38,6.69-7.75,16.8-4.29,25.2,3.48,8.47,10.38,13.78,18.54,17.43.69.31,1.39.57,2.12.77.06.02.1.08.09.14l-.02.15c-9.5,3.3-19.03,6.51-28.58,9.64-.18-.48,1.51-7.11,1.77-7.63.58-1.15,2.1-2.57,2.66-4.06.45-1.4.6-2.89.44-4.35-.44-7.26-.42-14.53.04-21.79.29-3.02.73-6.02,1.33-8.99.32-.83.54-1.45.66-1.85,1.85-6.04,6.61-11.07,11.92-14.24.5-.3.93-.62,1.11.24v.02Z" style="fill: #488975;"/>
      <path id="l" data-name="Path 959" d="m57.04,115.33c-.6,2.97-1.04,5.97-1.33,8.99-.46,7.25-.48,14.53-.04,21.79.16,1.47.02,2.95-.44,4.35-.56,1.49-2.08,2.91-2.66,4.06-.27.53-1.95,7.16-1.77,7.63-.48.18-1.96.65-2.33,1.2-.46.3-.34,2.52-.28,3.17l-11.9,4.08c-.12.04-.21.15-.23.28-.84,6-1.66,12.03-2.46,18.1-.53,4.05-1.24,7.68.66,11.37.03.06.11.08.17.05,0,0,0,0,0,0,.01,0,.02-.01.03-.02,1.23-1.29,2.65-2.4,4.2-3.28,4.09-2.15,8.35-3.96,12.75-5.39.04-.01.06-.06.05-.1,0-.01,0-.02-.01-.03-4.91-5.24-5.91-12.17-4.26-19.04,1.08,0,2.17-.09,3.23-.27,4.83-.74,8.95-1.54,12.37-2.4.26,0,.52.04.77.08,8.54,1.56,17.09,3.06,25.66,4.51l42.08,7.49c.22.08.45.14.68.18,37.14,6.72,14.59,2.66,51.71,9.49l-2.33,2.5-81.38,40.48-9.24-28.51c0-.05-.02-.11-.07-.13-.04,0-.07.02-.09.11-.44,1.97-2.36,3.17-4.06,3.89-6.61,2.81-13.83,3.01-20.86,1.82-.08-.01.01.04,0,.12,0,0,0,0,0,0v13.81c0,.07-.07.13,0,.15,1.82.43,3.45,1.13,5.06,2.09,1.05.57,2.03,1.26,3.34,2.06h-21.51c1.98-1.92,4.75-3.36,7.68-4.24.06-.02,0-.08,0-.15v-14.57c0-.07.07-.12,0-.13-6.49-1.17-13.04-2.29-19.55-3.36-2.02-.33-3.21-.55-3.57-.66-3.97-1.2-6.66-4.98-7.33-8.99-.37-2.91-.26-5.86.3-8.74.8-5.8,1.6-11.57,2.38-17.31.02-.11-.06-.21-.17-.23,0,0,0,0,0,0h-.06c-2.4.59-4.84-.87-5.43-3.28,0-.04-.02-.07-.03-.11-1.25-4.21,2.11-9.36,3.81-13.08.59-1.18.96-2.46,1.1-3.78.3-8.09-1.54-15.79-2.5-24.32-.52-5.96-1.17-19.4,5.26-22.86.24-.13,1.32-.54,3.24-1.22,2.4-.86,4.8-1.69,7.21-2.51,1.3-.49,2.63-.88,3.99-1.17,4.76-.32,6.76,6.75,7.23,10.17.35,2.54.66,4.49.92,5.85h0Z" style="fill: #071c2f;"/>
      <path id="m" data-name="Path 960" d="m71.62,99.43c1.32.99,2.81,1.72,4.41,2.14l1.09,2.4c2.49,5.64,4.93,11.3,7.34,16.97,1.81,4.27,3.05,7.63,3.17,12.18.06,2.18.11,4.35.15,6.52-.13.07-.21.05-.27-.05-.03-.06-.08-.11-.15-.14-.2-.08-.39-.18-.57-.3-1.84-1.21-6.65-4.74-6.69-7.11-.19-11.68-2.32-23.1-9.37-32.57.29.08.6.06.88-.04Z" style="fill: #63a998;"/>
      <path id="n" data-name="Path 961" d="m83.98,102.42c3.03,4.8,6.02,9.65,8.97,14.52.1.14.26.21.43.18.02.76.37,1.48.94,1.99.65,1.02,1.23,2.08,1.74,3.17-.04,2.28-.57,4.52-1.55,6.58-1,2.1-2.4,3.66-2.54,6.13l-.83,6.64c-.89-.34-1.73-.82-2.46-1.43-.04-2.29-.08-4.57-.13-6.86-.08-3.53-.82-7-2.2-10.25-2.85-6.74-5.74-13.45-8.67-20.15l-.35-.87c2.16.65,4.44.77,6.66.35h-.01Z" style="fill: #63a998;"/>
      <path id="o" data-name="Path 962" d="m77.67,102.95c2.94,6.69,5.83,13.41,8.67,20.15,1.38,3.25,2.12,6.73,2.2,10.25.05,2.28.1,4.57.13,6.86-.36-.05-.69-.26-.9-.56-.04-2.17-.1-4.34-.15-6.52-.13-4.55-1.37-7.91-3.17-12.18-2.4-5.68-4.84-11.33-7.34-16.97.72.02.87-.21.47-.71-.05-.05-.08-.13-.06-.2.03-.06.08-.1.15-.11h0Z" style="fill: #16112a;"/>
      <path id="p" data-name="Path 963" d="m99.84,149.05c-.83,2.08-1.39,4.25-1.68,6.47-2.46.11-4.92.02-7.36-.27-3.74-.67-7.42-1.61-11.03-2.81-.07,0-.14,0-.21.02l-.18.04.02-.15c.01-.06-.03-.12-.09-.14-.72-.21-1.43-.47-2.12-.77-8.17-3.66-15.06-8.97-18.54-17.43-3.46-8.41-2.09-18.52,4.29-25.2,2.32-2.44,3.39,2.67,3.6,3.92.75,4.84,1.99,9.59,3.7,14.18,2.15,5.3,6.23,9.76,10.84,13.25,5.55,4.25,11.94,7.29,18.74,8.91h0Z" style="fill: #63a998;"/>
      <path id="q" data-name="Path 968" d="m96.07,122.28l4.69,7.14c1.23,2.05,2.4,4.13,3.53,6.24.2.37.51.67.89.86,2.29,1.13,4.65,2.09,7.07,2.89l-2.03,3.4c-3.5-.23-6.95-.95-10.24-2.16-3.08-1.21-5.82-3.15-7.99-5.65.15-2.47,1.54-4.03,2.54-6.13.98-2.06,1.51-4.3,1.55-6.58h0Z" style="fill: #63a998;"/>
      <path id="r" data-name="Path 976" d="m112.24,139.41l4.87,2.17c-.89,1.5-1.57,3.1-2.03,4.78-1.62.81-3.33,1.42-5.1,1.82-.86-.03-1.72-.14-2.57-.32v-.06s2.8-5,2.8-5l2.03-3.4h0Z" style="fill: #fbfefe;"/>
      <g>
        <path d="m91.98,135h-.01s-.83,6.62-.83,6.62c1.87.95,3.8,1.8,5.76,2.55l.04-.47c.02-.07.05-.14.1-.19l.66-.92c.03-.07.02-.14-.01-.2-.12-.24,0-.38.35-.43.63-.08,1.15-.52,1.34-1.12.03-.06.09-.1.15-.09.16.02.31-.02.44-.1-3.08-1.21-5.83-3.15-7.99-5.65Z" style="fill: #488975;"/>
        <path d="m98.05,141.97c-.27-.24-.47.19-.35.43.04.06.05.14.01.2l-.66.92c-.05.05-.08.12-.1.19l-.04.47c1.27.6,2.58,1.09,3.93,1.48.24.04.37.13.37.29,1.7.56,3.39,1.12,5.09,1.7.36.12.74.18,1.11.17l2.81-5c-3.5-.23-6.95-.96-10.24-2.16h.01c-.13.1-.29.13-.44.11-.07,0-.13.03-.15.09" style="fill: #488975;"/>
      </g>
      <path id="s" data-name="Path 978" d="m117.11,141.58c1.12.4,2.28.69,3.45.84,1.58.24,3.82.86,6.41,1.37,1.7.33,2.72,1.71,3.57,3.08.33.37.52.85.54,1.35.03.45-.17.89-.54,1.16-1.11.8-2.32-.62-3.18-1.66-.89-1.08-1.88.4-.94,1.1.06.04.05.06-.02.04-.91-.14-1.84-.07-2.71.21-1.09-.28-2.2-.47-3.32-.54-1.5-1.24-3.34-2-5.28-2.16.46-1.68,1.14-3.29,2.03-4.78h0Z" style="fill: #fcb195;"/>
      <path id="t" data-name="Path 981" d="m107.4,147.81v.06c-.59.35-1.4,5.91-1.47,6.63-2.57.5-5.16.84-7.77,1.02.28-2.22.84-4.4,1.68-6.47l1.36-3.1c1.7.55,3.39,1.12,5.09,1.7.36.12.74.18,1.11.17h0Z" style="fill: #fbfefe;"/>
      <path id="u" data-name="Path 982" d="m115.08,146.37c1.94.16,3.79.92,5.28,2.16-3.46.03-6.92-.08-10.38-.33,1.77-.41,3.48-1.02,5.1-1.82h0Z" style="fill: #0b122f;"/>
      <path d="m142.83,131.86l-28.35,8.13,2.63,1.58c1.12.41,2.28.69,3.45.84,1.58.24,3.82.86,6.41,1.37,1.7.33,2.72,1.7,3.57,3.08h0c.33.38.52.85.54,1.35.04.45-.17.89-.54,1.16-1.11.8-2.32-.62-3.18-1.66-.89-1.07-1.88.4-.94,1.1.05.04.04.05-.02.04-.91-.14-1.83-.07-2.71.21.44.47,1.01.8,1.64.95,1.57.38,3.16.93,4.76,1.48.24.08.47.19.69.33.93.6-.26.41-.5.42-1.57.12-3.14.07-4.7-.15-.11-.01-.18,0-.19.03-.01.03.04.1.13.13,1.52.65,3.07,1.21,4.66,1.68.29-.09,1.96-.16,1.77-.6,0,0,0,0,0,0,.19.44-1.47.52-1.77.6.61,1.07.51,1.76-.31,2.08-1,.39-2.78-.09-3.85-.34-.12-.03-.15.01-.08.11,1.25,1.95-1.06,1.73-2.11,1.43-1.18-.33-2.39-.59-3.6-.77-11.36,3.79-19.97,6.58-25.84,8.38-1.65.47-3.39.5-5.05.07-3.4-.73-6.83-1.71-10.24-2.27-.94-.1-1.69-.84-1.8-1.78.04-1.33,1.49-1.74,2.56-2.07,3.66-1.1,7.31-2.27,10.97-3.52-3.74-.67-7.42-1.61-11.03-2.81-.07,0-.14,0-.21.02l-.18.04c-9.5,3.3-19.03,6.51-28.58,9.64-.85.23-1.65.64-2.33,1.2.05.06.1.1.13.1,13.87,2.35,27.72,4.79,41.56,7.32l41.23,7.28,26.22,4.73,26.04,4.8,52.38-44.1-93.22-11.64Zm-11.96,15.35c1.01,1.01,1.97,2.07,2.86,3.19-.9-1.11-1.85-2.18-2.86-3.19Zm1.19,6c-.08-.03-.13-.03-.15-.01.02-.02.07-.02.15,0,.12.05.25.08.38.09-.13-.02-.25-.04-.38-.09Zm1.53-.19c-.1.07-.21.13-.32.17.11-.05.22-.1.32-.17Zm.6-.76s-.04.09-.07.13c.02-.05.05-.09.07-.14,0,0,0,0,0,0Z" style="fill: #c9be68;"/>
      <path id="v" data-name="Path 984" d="m107.41,147.86c.85.18,1.7.29,2.57.32,3.46.25,6.92.36,10.38.33,1.12.08,2.23.26,3.32.54.44.47,1.01.8,1.64.95,1.57.38,3.16.92,4.76,1.48.24.08.47.19.69.33.94.6-.25.41-.5.42-1.57.12-3.14.07-4.7-.15-.12-.01-.18,0-.19.03s.04.1.13.13c1.52.65,3.07,1.21,4.66,1.68.61,1.06.5,1.76-.31,2.08-.99.39-2.78-.1-3.85-.34-.12-.03-.15,0-.08.11,1.24,1.95-1.06,1.73-2.11,1.43-1.18-.33-2.39-.59-3.6-.77l-.6-.35c-2.33-.43-4.67-.91-7.02-1.44-2.18-.5-4.44-.56-6.65-.16.07-.72.88-6.27,1.48-6.63h0Z" style="fill: #fcb195;"/>
      <path id="w" data-name="Path 989" d="m119.6,156.09c-8,2.58-16,5.14-24,7.7-1.93.74-4.02.94-6.05.59-5.11-1.13-8.83-2.01-11.16-2.63-.47-.16-.86-.48-1.11-.91.04-1.33,1.49-1.75,2.56-2.07,3.66-1.11,7.32-2.28,10.97-3.52,2.44.29,4.9.38,7.36.27,2.61-.18,5.2-.52,7.77-1.02,2.2-.39,4.47-.34,6.65.16,2.35.53,4.69,1.01,7.02,1.44h0Z" style="fill: #0b122f;"/>
      <path id="x" data-name="Path 992" d="m119.6,156.09l.6.35c-11.36,3.79-19.97,6.58-25.84,8.38-1.65.47-3.39.5-5.05.07.11-.15.19-.33.23-.51,2.03.35,4.13.15,6.05-.59,8.01-2.55,16.01-5.12,24-7.7h0Z" style="fill: #7296db;"/>
      <path id="y" data-name="Path 995" d="m77.27,160.85c.25.42.65.74,1.11.91,2.32.63,6.04,1.51,11.16,2.63-.04.18-.12.36-.23.51-3.39-.74-6.83-1.71-10.24-2.27-.94-.1-1.69-.84-1.8-1.78h0Z" style="fill: #488975;"/>
      <path id="z" data-name="Path 999" d="m48.46,163.35s.08.08.13.1c13.87,2.35,27.72,4.8,41.56,7.32-.3-.07-.44,0-.45.18-.04.83-.11,1.67-.21,2.5,0,.07-.04.14-.09.19-.19.23-.26.52-.21.81-8.56-1.45-17.11-2.96-25.66-4.51-.26-.05-.51-.07-.77-.08-1.79-.32-3.56-.67-5.33-1.03-2.99-.61-6.02-.89-9.01-1.51.03-.29-.05-.58-.24-.8-.05-.66-.17-2.89.28-3.17h0Z" style="fill: #66501d;"/>
      <path id="aa" data-name="Path 1005" d="m48.43,167.32c2.99.62,6.03.9,9.01,1.51,1.77.36,3.55.71,5.33,1.03-3.42.86-7.55,1.65-12.37,2.4-1.07.19-2.15.28-3.23.27.29-1.77.71-3.51,1.25-5.21h0Z" style="fill: #b6b6b5;"/>
      <path id="ab" data-name="Path 1012" d="m90.16,170.77l41.23,7.28-.11,3.89-42.08-7.49c-.06-.29.02-.59.21-.81.05-.05.08-.12.09-.19.1-.83.17-1.66.21-2.5,0-.19.16-.25.45-.18h0Z" style="fill: #66501d;"/>
      <path id="ac" data-name="Path 1015" d="m131.4,178.05s21.97,3.99,25.21,4.52c0,0,6.71,1.3,6.8,1.31l-6.8-1.12c6.94,1.25,13.9,2.46,20.83,3.78,1.88.35,3.76.68,5.66.97.19-.03.39,0,.57.08v4.03c-37.11-6.83-14.58-2.77-51.71-9.49-.23-.03-.46-.09-.68-.18l.11-3.89v-.02Z" style="fill: #66501d;"/>
      <path d="m34.15,259.96c-.12.37-.2.75-.2,1.16,0,2.11,1.71,3.82,3.82,3.82s3.82-1.71,3.82-3.82c0-.88-.31-1.67-.8-2.32-.13.05-.26.1-.39.11-1.56-.1-4.93,1.71-6.26,1.04Z" style="fill: #061c2e;"/>
      <path d="m23.04,237.07c-1.14.6-1.93,1.79-1.93,3.17,0,1.99,1.61,3.6,3.6,3.6s3.6-1.61,3.6-3.6c0-.52-.11-1.01-.31-1.46-.07,0-.15.01-.22.02-1.38-.91-4.12-.39-4.73-1.73Z" style="fill: #061c2e;"/>
      <path d="m181.35,191.33l-92.14-16.87.97,31.32c-.11,5.22,1.09,54.16,1.28,68.91,0,.45.22.81.47.8h3.24c.17,0,.31-.34.31-.75,0,0-.04-35.73-.04-35.76.03-.34,79.07,15.62,79.07,15.62.23,5.45-.38,22.23-.23,33.42,0,.45.22.81.47.8h3.24c.17,0,.31-.34.31-.75l.76-27.08,2.28-69.66Z" style="fill: #061c2e;"/>
      <g>
        <path d="m91.9,262.98c-.06-.05-.31-.25-.68-.56-.02-.02-.05-.02-.07-.04-.15-.11-1.22-1.01-2.82-2.37-1.66.42-2.89,1.91-2.89,3.69,0,2.11,1.71,3.82,3.82,3.82s3.82-1.71,3.82-3.82c0-.2-.03-.38-.06-.57-.34.11-.75.13-1.13-.16Z" style="fill: #061c2e;"/>
        <path d="m85.24,246.61c-4.11-4.12-8.22-8.24-12.35-12.35-.41-.41-.34-.63.2-.66l16.94,2.25c.46-.03.82-.2.92-.42.75-1.73.8-3.46.13-5.21-.06-.16-.4-.24-.81-.21l-16.19-2c-.33.03-.59-.17-.88-.3-2.1-.93-7.54-1.81-7.54-1.84,0-.02.02-.23,0-.54v-8.14c-.03-.73-1-1.31-1.73-1.31h-3.7s-.01.61,0,1.38v8.5c-1.12.3-5.75,1.71-7.5,2.95-.19.13-.48.32-.9.36l-27.25,2.91c-.28.03-.54.22-.66.5-.47,1.09-.51,1.79-.29,2.27.57,1.25,2.97.89,4.42,1.56l.67.15c7.15-.57,14.47-1.04,21.96-1.4,1.08-.05,1.24.33.49,1.12l-17.4,19.45c-.25.27-.35.61-.27.91.06.41.25.66.53.8,1.32.67,4.54-.76,6.26-1.04.14-.02.27-.06.39-.11.18-.07.35-.17.49-.31l17.35-17.35c.71-.71,1.07-.53,1.1.56l.13,4.65c.02.74.63,1.33,1.37,1.33h3.08c.75,0,1.36-.6,1.37-1.35l.06-4.53c0-1.27.48-1.45,1.42-.56,0,0,23.67,21.02,23.74,21.06.38.28.8.26,1.13.16.22-.07.41-.18.53-.26.03-.02.07-.05.09-.07,3.61-3.07-4.58-10.17-7.3-12.9Z" style="fill: #061c2e;"/>
      </g>
      <g>
        <path d="m237.88,58.55c-.03-2.91.18-5.15-2.18-6.14-.26-.06-28.63-4.99-42.89-7.24-1.79-.29-3.42-.28-4.24,1.43-.3.87-.43,1.8-.38,2.72-.03,3.47,2.23,42.99,2.23,42.99l39.6,7.65c1.42.27,2.8-.64,3.1-2.05,2.77-13.13,4.87-26.04,4.74-39.36Z" style="fill: #66501d;"/>
        <path id="ad" data-name="Path 970" d="m189.64,83.16c1.7,1.8,3.57,3.44,5.57,4.89l-.24,1.37c-.01.07,0,.14.04.21,2.68,3.85,6.09,7.13,10.04,9.66.27.18.77.24,1.05.6.04.06.11.09.18.1.26-.03.5.16.52.42,0,.06,0,.12-.02.18l-20.54-5.64c-.28-.03,1.48-9.61,3.39-11.79h0Z" style="fill: #ff8432;"/>
        <path d="m201.5,97.93l-15.23,3.53c-.09.02-.19.02-.28,0l-40.07-7.34c-.8-.15-.73-1.31.07-1.37l20.34-1.5c.05,0,.1,0,.15,0l34.97,5.31c.75.11.79,1.18.05,1.35Z" style="fill: #886e67;"/>
        <path id="ae" data-name="Path 947" d="m215.98,46.25c.15.06.27.16.35.3,0,.29-.18.54-.45.63-.32.13-.29.45.09.97,1.81,2.35,3.1,5.06,3.8,7.94.6,3.75.66,7.56.18,11.32-.35,5.32-1.48,10.56-3.35,15.56-2.97,7.33-12.1,4.07-16.75.97-.41-.32-.89-.53-1.4-.62-3.03-1.95-2.87-6.07-4.89-8.68-1.58-1.94-3.43-3.65-5.48-5.08-.68-.52-1.43-.93-2.23-1.22v-.47c1.42-2.14,3.27-4.76,5.57-7.87,1.42-2.02,3.11-3.85,5.01-5.42,2.82-2.27,6.04-3.77,8.98-5.94,3.6,1.79,7.89.35,10.55-2.38h0Z" style="fill: #ff8432;"/>
        <path id="af" data-name="Path 937" d="m207.29,12.93c1.97.44,3.92.95,5.85,1.54l-.21.66c-.11.23-.06.5.12.67,1.69,1.39,2.76,3.4,2.97,5.57,0,1.85-.11,3.71-.31,5.55,0,.06-.04.11-.1.12-1.55.37-2.78,1.54-3.22,3.07-.49,1.48-.32,3.34,1,4.28,1.3.78,2.96.59,4.05-.48,1.95-1.82,2.43-4.94-.1-6.63-.1-.07-.15-.18-.15-.3.1-1.51.2-3.07.3-4.68.18-2.99-1.12-5.28-3.13-7.4,6.3,2.34,7.66,7.28,8.99,13.23.77,3.55,1.11,7.18.99,10.8.06,1.95-.8,3.82-2.31,5.06-1.93,1.7-4.87,1.57-6.64-.3l-.11-5.11.11-2.19c0-.11-.08-.2-.19-.21-4.14-.26-5.13-3.26-4.26-6.78.02-.06,0-.12-.04-.17l-1.5-1.59s-.09-.03-.12,0c0,0,0,0,0,.01-.32.43-.74.79-1.22,1.05-.24.14-.54.14-.78,0-.92-.49-1.37-1.55-1.08-2.55.01-.07-.03-.13-.1-.14h-.03c-1.89.03-3.26-.96-4.09-2.95-.06-.14-.23-.21-.37-.15,0,0-.02,0-.03.01-1.25.68-2.54,1.26-3.88,1.74-1.11-.67-2.11-1.5-2.97-2.47-3.48-4.1-.54-9.63,4.4-10.29,1.07-.08,2.15-.02,3.2.17,1.66.26,3.32.54,4.97.84h0Z" style="fill: #0b122f;"/>
        <path id="ag" data-name="Path 948" d="m216.33,46.55c1.17,1.14,2.51,2.09,3.97,2.81.4.32,1.11.85,2.13,1.56,2.43,1.76,4.57,3.88,6.35,6.3,1.43,1.99,2.16,4.39,2.08,6.84.4,10.81-.83,22.57-4.61,32.79,0-.15-.04-.21-.13-.16-.05.05-.1.11-.13.17l-.24.47c-1.08,1.42-2.41,2.62-3.93,3.54-2.02,1.32-4.4,1.98-6.81,1.88-2.86-.19-5.65-.93-8.22-2.18.07-.26-.08-.52-.34-.59-.06-.02-.11-.02-.17-.01-.07,0-.14-.04-.18-.1-.28-.36-.77-.44-1.05-.6-3.94-2.52-7.35-5.79-10.02-9.64.01-.07-.01-.17-.05-.22l.24-1.37c1.28-1.43,2.37-3.02,3.24-4.73.51.09.99.3,1.4.62,4.65,3.11,13.78,6.36,16.75-.97,1.87-5,2.99-10.24,3.35-15.56.48-3.76.41-7.58-.18-11.32-.7-2.88-1.99-5.59-3.8-7.94-.37-.52-.4-.83-.09-.97.27-.09.45-.35.45-.63h0Z" style="fill: #ff6a47;"/>
        <g>
          <path d="m182.53,41.76c-.48.22-2.36.82-2.88,1.23-.64.51-4.27,3.56-5.09,4.2-.26.21-.94,1.18-.71,2.97-.16.06-.76-.9-.77-1-.04-.71-.1-1.87.58-2.43,1.52-1.24,4.09-3.38,5.71-4.6,1.1-.82,2.49-.65,3.16-.38Z" style="fill: #c9c2c4;"/>
          <path d="m178.53,70.54s1.33.39,1.22.6c-.16.31-2.09-.06-2.29-.95-.35-1.57-4.28-19.27-4.6-20.62-.07-.71.05-1.41.34-2.09.05.09.12.17.2.23.02.01.04,0,.06-.02,0,0,0,0,0,0,.06-.14,1.06-.67,1.22-.73-.65.64-1.06,2.11-.89,2.86.46,1.97.87,3.95,1.31,5.92l3.43,14.82Z" style="fill: #886e67;"/>
          <g>
            <path d="m180.66,42.17c.31-.25.63-.54.97-.62v.02s.01.02.02.01c.32-.08.62-.03.88.17,0,0,.02,0,.02,0l.02-.02c.28.23.49.61.6,1.12.15.65.3,1.3.44,1.95,1.17,5.29,2.35,10.57,3.54,15.84.12.54.24,1.09.36,1.64.06.28.09.5.1.67.04.66-.09,1.31-.37,1.95-.25.51-.56.9-.93,1.17-1.77,1.39-3.53,2.79-5.3,4.19-.42.33-.82.72-1.27.85-.49.07-.9-.13-1.22-.6-.06-.09-.11-.19-.14-.3.12.21.26.4.42.55.03.03.08.03.07-.06,0-.01,0-.03,0-.04.19-1,.38-2.01.57-3.01,0-.05,0-.07,0-.11,2.01-1.59,4.03-3.17,6.04-4.77.19-.15.32-.27.38-.37.25-.36.26-.75.17-1.15-.21-.97-.44-1.92-.64-2.89,0,0,0-.01-.01-.02,0,0,0,0,0-.01-.39-1.77-.79-3.53-1.18-5.3.01-.04,0-.05,0-.07-.53-2.38-1.06-4.76-1.59-7.14-.04-.18-.08-.31-.13-.39-.18-.3-.42-.26-.69-.05-.66.53-1.33,1.05-2,1.57.03-.18.08-.4.1-.53.25-1.3.5-2.59.75-3.89,0,0,0-.04.02-.1.02-.11.02-.2,0-.29Z" style="fill: #1a213c;"/>
            <path d="m177.64,46.22l1.41-1.11c.1-.08.22-.03.25.12h0c.03.16-.03.35-.13.43l-1.41,1.11c-.1.08-.22.03-.25-.12h0c-.03-.16.03-.35.13-.43Z" style="fill: #2c2f32;"/>
            <path d="m177.01,58.64v.07s-.11-.37-.12-.4c-.5-2.25-1-4.49-1.5-6.74-.06-.27-.11-.43-.04-.76,0-.02,0-.03.01-.03,0,0,0,0,0,.02,0,0,0,0,0,0-.04.21-.03.43.02.65.53,2.37,1.05,4.73,1.58,7.1,0,.01,0,.02.01.02.01.01.03.03.03.05Z" style="fill: #565451;"/>
            <g>
              <path d="m177,58.78s0-.01,0-.02h0s0,.01,0,.02Z" style="fill: none;"/>
              <path d="m175.36,50.78s0,0,0,0c0,0,0,.01-.01.03-.07.33-.02.49.04.76.5,2.25,1,4.49,1.5,6.74,0,.03.06.34.1.39-.32-1.42-.63-2.83-.95-4.25,0,0,0,0,0-.01,0,0,0-.02-.01-.02-.2-.97-.43-1.92-.64-2.89-.05-.22-.06-.45-.03-.66,0-.02,0-.03,0-.05,0-.01,0-.03,0-.03Z" style="fill: none;"/>
              <path d="m178.82,66.94c.04.18.09.33.15.44-.06-.11-.11-.26-.15-.44-.61-2.72-1.21-5.44-1.82-8.15h0c.61,2.72,1.21,5.44,1.82,8.15Z" style="fill: none;"/>
              <path d="m179,67.42s.07.09.11.11c-.04-.03-.08-.07-.11-.11Z" style="fill: none;"/>
              <path d="m177.76,46.78l1.41-1.11c.1-.08.16-.27.13-.42h0c-.03-.16-.14-.22-.25-.13l-1.41,1.11c-.1.08-.16.27-.13.42h0c.03.16.14.22.25.13Z" style="fill: none;"/>
              <path d="m185.4,58.39s0-.01-.01-.02c0,0,0,0,0-.01-.32-1.44-.64-2.88-.96-4.31,0,0,0-.01,0-.02-.61-2.72-1.21-5.44-1.82-8.15-.11-.47-.25-.74-.63-.63-.73.57-1.46,1.15-2.19,1.73,0,0,0,0,0,.01l-2.78,11.65s-.02-.04-.03-.05c0,0-.01-.01-.01-.02-.53-2.36-1.06-4.73-1.58-7.1-.05-.2-.05-.4-.02-.6-.04.22-.02.44.03.66.21.97.44,1.92.64,2.89,0,0,0,.01.01.02,0,0,0,0,0,.01.32,1.42.63,2.83.95,4.25,0,0,0,0,.01,0v.05s0,0,0,0h0s0,.01,0,.02h0c.61,2.72,1.21,5.44,1.82,8.15.04.18.09.33.15.44.01.02.02.04.03.05.03.05.07.09.11.11.06.04.12.05.2.05.04,0,.08,0,.13-.02h0c2.01-1.59,4.03-3.17,6.04-4.77.19-.15.32-.27.38-.37.25-.36.26-.75.17-1.15-.21-.97-.44-1.92-.64-2.89Z" style="fill: #fff;"/>
              <path d="m179.11,67.54s-.08-.07-.11-.11c-.01-.02-.02-.03-.03-.05-.06-.11-.11-.26-.15-.44-.61-2.72-1.21-5.44-1.82-8.15h0s0-.01,0-.02c0-.02,0-.04-.01-.06-.04-.05-.09-.36-.1-.39-.5-2.25-1-4.49-1.5-6.74-.06-.27-.11-.43-.04-.76,0-.02,0-.03.01-.03,0,0,0,0,0,0,0,0,0,.01,0,.03,0,.02,0,.03,0,.05.03-.17.09-.33.2-.48.07-.1.19-.22.38-.37,1.28-1.01,2.57-2.03,3.85-3.04.03-.18.08-.39.1-.52.25-1.3.5-2.59.75-3.89,0,0,0-.04.02-.1.02-.11.02-.2,0-.29-1.83,1.44-3.66,2.89-5.49,4.33-.23.18-.39.33-.49.44-.58.66-.93,1.74-.88,2.73,0,.19.04.42.1.7.06.3.16.74.29,1.33,1.36,6.08,2.71,12.15,4.07,18.23.03.12.07.22.12.3.12.21.26.4.42.55.03.03.08.03.07-.06,0-.01,0-.03,0-.04.19-1,.38-2.01.57-3.01,0-.05,0-.07,0-.11-.05.01-.09.02-.13.02-.08,0-.15-.01-.2-.05Zm-1.6-20.9c-.03-.15.03-.33.13-.42l1.41-1.11c.1-.08.22-.03.25.12h0c.03.16-.03.35-.13.43l-1.41,1.11c-.1.08-.22.03-.25-.12h0Z" style="fill: #1a213c;"/>
              <path d="m177.01,58.75v-.05s-.01,0-.02,0c0,.02,0,.04.01.06,0,0,0,0,0,0Z" style="fill: #494849;"/>
              <polygon points="177 58.78 177 58.78 177 58.78 177 58.78" style="fill: #494849;"/>
              <path d="m179.31,67.59s.08,0,.13-.02h0s-.09.02-.13.02Z" style="fill: #494849;"/>
            </g>
          </g>
          <path d="m184.77,55.6c-.17-.78.22.98.62,2.75,0,0,0,0,0,.01,0,0,0,.02.01.02.2.97.43,1.93.64,2.89.09.4.07.79-.17,1.15-.07.1-.2.22-.39.37-2.02,1.59-4.04,3.19-6.05,4.77-.37.11-.52-.16-.63-.63-.61-2.72-1.22-5.45-1.82-8.17,0,0,0-.02.58,2.52l7.21-5.7Zm-1.26,3.66s.09-.02.11-.1c.06-.18,0-.39-.05-.54-.07-.23-.26-.08-.24.17.01.15.06.45.18.47Zm-4.41,3.52c.07-.06.09-.26.05-.46s-.14-.32-.21-.26h0c-.07.06-.09.26-.05.46h0c.04.2.14.32.21.26h0Zm.3-.28c.29-.06.03-.97-.14-.68-.04.08-.06.15-.05.22l.08.37c.01.07.05.1.11.08Zm2.1-1.61c.07-.06.09-.26.05-.46,0,0,0,0,0,0-.04-.2-.14-.32-.21-.26-.07.06-.09.26-.05.46h0c.04.2.14.32.21.26Zm2.36-1.92c.3-.02.06-.96-.12-.67-.11.17,0,.52.06.63.01.03.04.04.06.04Zm-1.68,4.88c.1-.09.14-.28.1-.42h0c-.04-.14-.16-.17-.25-.08-.1.09-.14.28-.1.42h0c.04.14.16.17.25.08Zm2.19-2.04c-.03-.14-.14-.2-.24-.12s-.16.26-.13.41.14.2.24.12.16-.26.13-.41Zm-4.14,3.27c-.03-.14-.14-.2-.24-.12h0c-.1.08-.16.26-.13.41h0c.03.14.14.2.24.12s.16-.26.13-.41Z" style="fill: #808185;"/>
          <path d="m175.56,50.38c-.11.16-.17.32-.2.48-.03.2-.02.4.02.6.53,2.37,1.05,4.73,1.58,7.1,0,.01,0,.02.01.02.01.01.03.03.03.05l2.78-11.65s0,0,0-.01c-1.28,1.01-2.57,2.02-3.85,3.04-.19.15-.32.27-.38.37Z" style="fill: #383c3f; mix-blend-mode: multiply; opacity: .24;"/>
        </g>
        <path id="ah" data-name="Path 938" d="m214.35,14.92c2.01,2.12,3.31,4.41,3.13,7.4-.1,1.61-.2,3.17-.3,4.68,0,.12.05.23.15.3,2.52,1.69,2.04,4.81.1,6.63-1.08,1.06-2.75,1.26-4.05.48-1.32-.95-1.48-2.8-1-4.28.44-1.53,1.67-2.7,3.22-3.07.06-.01.1-.06.1-.12.21-1.84.31-3.69.32-5.55-.21-2.18-1.28-4.18-2.97-5.57-.18-.18-.23-.45-.12-.67l.21-.66c.44,0,.87.17,1.21.45Z" style="fill: #0b122f;"/>
        <path id="ai" data-name="Path 941" d="m215.26,38.6c-.51,1.01-1.19,1.93-2,2.72-1.68,1.57-3.91,2.4-6.2,2.32-.06,0-.12.05-.12.12h0c0,.71.03,1.37.05,1.97,0,.05-.19.83-.24.09v-1.97c0-.1-.08-.17-.17-.19-2.11-.22-4.38-.22-5.59-2.2-.96-1.56-1.14-3.14-1.55-5.55-.63-3.73-1.21-7.48-1.74-11.23,1.34-.48,2.63-1.06,3.88-1.74.14-.08.31-.03.38.11,0,0,0,0,0,0,0,0,0,.02.01.03.84,2,2.21,2.98,4.09,2.95.07,0,.12.05.12.12v.03c-.29,1,.16,2.07,1.08,2.55.24.15.54.15.78,0,.48-.26.89-.62,1.22-1.05.03-.04.08-.05.12-.03,0,0,0,0,.01,0l1.5,1.59s.06.11.04.17c-.87,3.53.12,6.52,4.26,6.78.11,0,.2.1.19.21,0,0,0,0,0,0l-.11,2.19h-.01Z" style="fill: #fdb597;"/>
        <path id="aj" data-name="Path 944" d="m215.32,37.58l.13,5.87c.06.95.24,1.89.52,2.8-2.66,2.73-6.94,4.16-10.55,2.38.18-.32.15-.71-.06-1,.32.06.19-1.55.18-1.76.05.86.27-.03.27-.1-.03-.69-.04-1.45-.05-2.27,0-.07.06-.13.13-.13h0c2.64.1,5.2-.86,7.13-2.66.93-.91,1.71-1.97,2.3-3.13h0Z" style="fill: #fdb597;"/>
        <path id="ak" data-name="Path 964" d="m185.86,68.34c.8.29,1.55.71,2.23,1.22,2.05,1.43,3.89,3.14,5.48,5.07,2.02,2.61,1.87,6.73,4.89,8.68-.87,1.71-1.96,3.3-3.24,4.73-2.01-1.45-3.87-3.09-5.57-4.89-.77-1.24-2.07-3.75-3.77-3.48v-11.33h-.01Z" style="fill: #fdb597;"/>
        <path id="al" data-name="Path 967" d="m189.64,83.16c-1.09,2.56-1.79,5.27-2.07,8.04-.07.69-.2,1.38-.39,2.04-.7-.06-1.24-.64-1.25-1.34-.22-2.87-.08-6.77-.07-12.21,1.71-.27,2.99,2.24,3.77,3.48h0Z" style="fill: #ff6a47;"/>
        <g>
          <path id="am" data-name="Path 952" d="m176.29,81.11c.17.55.78,2.31.78,2.31,3.32,3.57,6.64,7.12,9.96,10.65.07.1.12.22.14.35.02.07.06.11.11.11.2,0,.13-.52.14-.65v2.47c-.56-.08-1.93-.32-4.13-.72-8.66-1.59-22.87-4.14-42.65-7.65l-.02-5.06c-.04-8.03-.03-16.05.02-24.06.02-2.53.67-3.75,3.42-3.31,3.19.51,6.38,1.03,9.57,1.56h0c.4.57.84,1.09,1.31,1.58,6.44,6.82,12.9,13.62,19.37,20.41.22.23.52.3.54.74l1.45,1.28Zm-1.9,2.68c.03-.18-.09-.35-.27-.38h0s-20.16-3.5-20.16-3.5c-.18-.03-.35.09-.38.27,0,0,0,0,0,0l-.04.2c-.03.18.09.35.27.38h0s20.16,3.5,20.16,3.5c.18.03.35-.09.38-.27,0,0,0,0,0,0l.04-.21Z" style="fill: #c9c2c4;"/>
          <path id="an" data-name="Path 954" d="m153.63,57.11c2.75.46,5.5.9,8.25,1.39,1.34.23,2.69.42,4.05.54l.97.24c-.29.07-.29.12,0,.17,3.78.6,7.56,1.21,11.34,1.83,3.67.55,5.83.92,6.49,1.11,1.4.46,2.41,1.68,2.59,3.15.06.67.09,1.35.09,2.03.12,6.76.02,14.81.03,26.33,0,.12.06.65-.14.65-.06,0-.1-.05-.11-.11-.02-.12-.07-.24-.14-.35-3.32-3.52-6.64-7.07-9.96-10.65-.04-.04-.62-1.76-.79-2.31l-1.45-1.28c-.01-.43-.32-.51-.54-.74-6.47-6.79-12.92-13.59-19.37-20.41-.48-.49-.92-1.02-1.31-1.57h0Z" style="fill: #b6b6b5;"/>
          <path id="ao" data-name="Rectangle 1345" d="m153.57,80.28h0c.04-.23.27-.39.5-.35l19.96,3.46c.24.04.39.26.35.5h0c-.04.23-.27.39-.5.35l-19.96-3.46c-.24-.04-.39-.26-.35-.5Z" style="fill: #fbfefe;"/>
          <path d="m174.39,78.07c.03-.18-.09-.35-.27-.38h0s-20.16-3.5-20.16-3.5c-.18-.03-.35.09-.38.27,0,0,0,0,0,0l-.04.2c-.03.18.09.35.27.38h0s20.16,3.5,20.16,3.5c.18.03.35-.09.38-.27,0,0,0,0,0,0l.04-.21Z" style="fill: #c9c2c4;"/>
          <path id="ap" data-name="Rectangle 1345" d="m153.57,74.55h0c.04-.23.27-.39.5-.35l19.96,3.46c.24.04.39.26.35.5h0c-.04.23-.27.39-.5.35l-19.96-3.46c-.24-.04-.39-.26-.35-.5Z" style="fill: #fbfefe;"/>
          <path d="m186.67,101.3c1.01-1.24.78-2.96.74-4.95-.55-.07-1.92-.32-4.12-.72-8.66-1.6-22.87-4.15-42.65-7.65h0c0,1.53-.34,3.7.76,4.95.71.83,2.24.91,3.4,1.1,3.77.62,10.14,1.78,19.12,3.47l10.57,1.92.71.09,11.5,1.86c-.06,0-.07-.02-.03-.07Z" style="fill: #b6b6b5;"/>
        </g>
      </g>
      <g>
        <path d="m136.29,144.16c-.09.15-.22.38-.38.71-.12.25-.26.48-.4.68-3.17,4.44-8.64,10.56-12.32,14.38-.66.68,1.6-.42,2.32-.75,0,0,.01,0,.02-.01,2.36-1.08,9.05-4.12,19.4-8.8.88-.4,1.57-.67,2.07-.8.04,0,.07-.02.11-.04,1.7-.86,2.85-1.53,3.61-4.16l.9-2.99s4.78-15.66,4.82-15.81c.28-1.06,1.76-5.98,1.93-6.6,1.37-4.97-.48-4.51-3.27-3.63-1.46.46-2.95.96-4.5,1.5-.2.07-.4.25-.56.5-3.03,4.71-5.64,9.62-7.8,14.65-.02.04-.04.08-.06.12l-5.88,11.06Z" style="fill: #d0d0d2;"/>
        <path d="m137.07,122.23l-5.85,1.91c-1.35.34-2.67.89-3.98,1.65.12.1.05.33-.09.49-1.41,1.53-2.06,4.95-2.65,7.57-2.27,9.96-4.6,19.33-6.66,28.07,0,.01,0,.02,0,.04-.03.19.09.3.26.24,1.82-.57,3.52-1.32,5.11-2.25.1-.06.19-.13.27-.21,4.37-4.32,8.37-9.02,12.05-14.17.15-.2,5.43-8.64,6.97-11.9s4.65-10.86,7.8-15.71l-.4.09-12.81,4.21Z" style="fill: #dfe0e2;"/>
        <path d="m127.23,125.79c.12.1.05.33-.09.49-1.41,1.53-2.06,4.95-2.65,7.57-2.27,9.96-4.6,19.33-6.66,28.07-.05.19.05.32.22.29.01,0,.02,0,.03,0,1.82-.57,3.52-1.33,5.12-2.26.09-.05.17-.08.26-.1.67-.11,1.37-.33,2.07-.66,2.36-1.08,9.05-4.12,19.4-8.8.62-.28,1.14-.5,1.57-.65.31-.11.49.13.41.53l-.1.52c-.04.2-.22.43-.41.52-7.53,3.57-33.39,15.98-37.75,15.66s-15.42-1.87-15.42-1.87l12.71-3.93,11.72-4.25s.02-.11.03-.17l.62-2.26.14-.6c1.79-7.24,3.7-14.85,5.75-22.85.58-2.27,1.6-4.02,3.04-5.22Z" style="fill: #fdfdfd;"/>
      </g>
      <polygon points="235.75 146.77 183.1 191.63 183.1 187.52 235.95 143.52 235.75 146.77" style="fill: #66501d;"/>
      <path d="m161.28,141.5c.52.79,1.12,1.53,1.79,2.21,1.56,1.65,3.03,3.37,4.41,5.17h.02c-.23,1.42.58,1.13,1.48,1.13h12.67v-23.01c0-.12-.08-.22-.2-.23,0,0-.01,0-.02,0l-13.68.02c-.13,0-.25.1-.26.23l-.08,3.08c0,.18-.14.34-.33.35-6.13.05-8.94,5.86-5.8,11.04Zm.9-5.31s0,0,0-.01c0,0,0,0,0,0h0c.57-2.19,2.68-3.64,4.94-3.39.1,0,.18.09.18.19,0,0,0,0,0,0l.09,11.98c0,.08-.01.12-.04.13-.03.02-.06.01-.12-.04-2.2-2.02-5.98-5.43-5.04-8.86Z" style="fill: url(#aq);"/>
    </g>
  </g>
</svg>