<svg xmlns="http://www.w3.org/2000/svg" xmlns:xlink="http://www.w3.org/1999/xlink" width="324.284" height="80" viewBox="0 0 324.284 80"><defs><clipPath id="a"><rect width="324.284" height="80" fill="none"/></clipPath></defs><g transform="translate(0 0)"><g transform="translate(0 0)" clip-path="url(#a)"><path d="M124.515,66.537q0,11.519-18.243,11.518A46.643,46.643,0,0,1,94.747,76.7l1.591-6.569a33.244,33.244,0,0,0,9.935,1.649,21.806,21.806,0,0,0,7.466-.913,3.152,3.152,0,0,0,2.271-3.063,4.514,4.514,0,0,0-2.142-3.77,37.321,37.321,0,0,0-7.5-3.535,23.851,23.851,0,0,1-7.628-4.359A9.7,9.7,0,0,1,95.592,48.8,9.105,9.105,0,0,1,99.73,40.88q4.141-2.856,11.9-2.858a49.522,49.522,0,0,1,10.68.974l-1.2,6.538a30.12,30.12,0,0,0-9.479-1.443q-7.662,0-7.661,3.711a3.755,3.755,0,0,0,1.784,3.211,37.392,37.392,0,0,0,6.784,2.974,26.293,26.293,0,0,1,8.311,4.478,10.385,10.385,0,0,1,3.668,8.071" transform="translate(0.752 0.302)" fill="#221714"/><path d="M172.236,76.989H161.847q0-1.944-2.953-11.017h-15q-3.054,8.925-3.052,11.017h-9.772q0-1.148,7.58-18.851t7.582-19.5H158.5q0,1.68,6.866,19.221t6.866,19.132m-15-16.643q-5.553-15.2-5.552-16.436h-.52q0,1.149-5.746,16.436Z" transform="translate(1.04 0.307)" fill="#221714"/><path d="M229.666,76.989h-9.447q0-5.007-.682-16.894t-.714-14.832h-.486q-.324,1.769-1.721,6.541t-5.244,14.066q-3.845,9.294-3.846,11.12h-7.173q0-1.884-3.685-11.221t-4.821-13.081a67.916,67.916,0,0,1-1.816-7.423h-.488q-.035,3.685-.8,15.789t-.762,15.937h-8.573q0-.884,2.355-17.7t2.354-20.651h12.564q0,3.3,3.976,14.553t3.976,14.4h.487q0-3.18,4.528-14.434t4.53-14.523h12.465q0,6.1,1.511,21.755t1.509,16.6" transform="translate(1.424 0.307)" fill="#221714"/><path d="M274.355,65.444q0,11.723-21.133,11.724-3.671,0-11.428-.178.422-8.9.423-20.06,0-10.721-.423-18.293h5.26q1.492,0,5.016-.087t5.5-.089q14.38,0,14.38,8.483,0,6.541-7.369,8.66v.442a14.458,14.458,0,0,1,6.85,2.784,7.788,7.788,0,0,1,2.922,6.613M263.221,49.272q0-5.272-7.271-5.274a35.72,35.72,0,0,0-5.941.442,99.126,99.126,0,0,1,.356,10.222q1.234.057,2.6.058,10.255,0,10.258-5.45m2.369,16.5q0-5.862-11.328-5.862c-1.493,0-2.783.05-3.863.148q0,6.155.292,11.341a17.135,17.135,0,0,0,3.31.235q6.007,0,8.8-1.311a4.626,4.626,0,0,0,2.792-4.551" transform="translate(1.919 0.305)" fill="#221714"/><path d="M322.054,76.989H311.666q0-1.944-2.955-11.017h-15q-3.051,8.925-3.051,11.017h-9.772q0-1.148,7.581-18.851t7.581-19.5h12.271q0,1.68,6.866,19.221t6.865,19.132m-15-16.643q-5.55-15.2-5.551-16.436h-.52q0,1.149-5.745,16.436Z" transform="translate(2.23 0.307)" fill="#221714"/><path d="M123.071,9.2a1.128,1.128,0,0,1-.65.552A43.346,43.346,0,0,1,116.183,20.4a24.961,24.961,0,0,0-3.606-1.884,19.6,19.6,0,0,0,4.03-6.107l-8.968,2.306v7.311c0,2.6,1.072,3.508,3.475,3.508h5.1a42.971,42.971,0,0,0,4.971-.454c0,1.2.063,2.858.129,4a49.274,49.274,0,0,1-5,.259h-5.264c-5.1,0-7.6-2.273-7.6-7.179V15.791l-7.181,1.818-1.008-3.8,8.188-1.982V2.438l5.133.26c-.033.422-.39.65-.942.779v7.31l11.469-2.892.454-.357Z" transform="translate(0.756 0.019)" fill="#646464"/><path d="M146.384,20.475l1.106,9.453-4.225.456-1.039-9.39-11.4,1.495-.454-3.8L141.8,17.227l-.681-5.686-9.29,1.2-.456-3.8L140.7,7.707l-.682-5.879,5.165-.195c.033.325-.227.649-.845.81l.488,4.744,9.032-1.2.455,3.866-9.032,1.168.65,5.654L157.4,15.245l.455,3.769Z" transform="translate(1.035 0.013)" fill="#646464"/><path d="M190.017,24.565v3.216H167.795V24.565H180.4c.486-2.956,1.136-7.993,1.462-10.916H170.231V10.432h12.7l.618-.195,2.63,1.169a.959.959,0,0,1-.518.488c-.423,3.087-1.4,9.551-1.886,12.671Z" transform="translate(1.332 0.081)" fill="#646464"/><path d="M227.87,4.8a.95.95,0,0,1-.648.488,34.3,34.3,0,0,1-6.855,10.494,23.7,23.7,0,0,0-3.641-2.209,18.62,18.62,0,0,0,4.808-6.4H200.516V3.31h23.391l.456-.292Zm-12.411,6.3c-.031.326-.357.586-.876.683-.812,7.114-3.509,14.457-10.04,18.388a30.413,30.413,0,0,0-3.541-2.6c6.173-3.314,8.708-9.747,9.161-17.024Z" transform="translate(1.592 0.024)" fill="#646464"/><path d="M80,71.261A8.768,8.768,0,0,1,71.262,80H8.741A8.76,8.76,0,0,1,0,71.26L0,8.741A8.77,8.77,0,0,1,8.74,0H71.262A8.766,8.766,0,0,1,80,8.741Z" transform="translate(0 0)" fill="#2f68a9"/><path d="M49.131,7.934A18.361,18.361,0,0,0,25.156,17.8c-2.976,7.013-2.7,13.052.846,18.461l.743,1.133,4.318-3.08-.576-1.02c-2.556-4.532-2.636-7.905-.317-13.367a13.032,13.032,0,0,1,7.046-7,12.594,12.594,0,0,1,16.6,7.049A13.146,13.146,0,0,1,46.632,36.9a12.566,12.566,0,0,1-9.788-.027l-2.5-1.06L19.115,71.665,24.131,73.8l3.914-9.224,4.519,1.917,2.122-5.015-4.509-1.916,2.134-5.024,11.034,4.021,2.134-5.019-11.035-4.02,2.865-6.752A18.462,18.462,0,0,0,49.131,7.934" transform="translate(0.152 0.052)" fill="#fff"/></g></g></svg>