<?xml version="1.0" encoding="UTF-8"?>
<svg id="a" data-name="Layer 1" xmlns="http://www.w3.org/2000/svg" viewBox="0 0 80 80">
  <g id="b" data-name="Component 9 4">
    <g id="c" data-name="Group 1808-3">
      <g id="d" data-name="Group 1803-3">
        <path id="e" data-name="Union 15-3" d="m40,80h40v-40C80,17.91,62.09,0,40,0S0,17.91,0,40s17.91,40,40,40Z" style="fill: #ad9d19;"/>
      </g>
      <g id="f" data-name="Group 1804-3">
        <path id="g" data-name="Path 4768" d="m30.01,54.09l8.65-16.4h5.42l-8.86,16.4h-5.21Zm0,2.85v-2.85l1.81-1.4h18.15v4.26h-19.95Zm11.97,6.06v-16.11h4.81v16.11h-4.81Z" style="fill: #fff;"/>
        <path id="h" data-name="Path 4769" d="m24.42,31.16c-.78.02-1.55-.14-2.26-.48-.65-.34-1.22-.82-1.67-1.41l1.25-1.25c.29.43.66.78,1.1,1.05.5.27,1.06.4,1.63.38.52.03,1.04-.11,1.48-.38.36-.23.56-.63.55-1.06.01-.33-.09-.65-.29-.91-.21-.25-.47-.45-.76-.58-.34-.16-.68-.3-1.04-.42-.38-.12-.76-.26-1.14-.42-.37-.15-.72-.35-1.04-.58-.32-.24-.58-.55-.76-.91-.21-.45-.31-.93-.29-1.42-.01-.6.16-1.19.5-1.69.33-.47.79-.84,1.32-1.06.59-.25,1.22-.38,1.86-.37.68-.01,1.36.14,1.98.43.55.26,1.03.63,1.42,1.1l-1.25,1.25c-.28-.33-.62-.6-1-.81-.37-.18-.78-.27-1.19-.26-.46-.03-.91.09-1.3.34-.31.21-.49.57-.47.94-.01.3.09.6.29.82.22.22.47.4.76.53.34.15.69.29,1.04.41.38.13.76.27,1.14.43.37.16.72.36,1.04.62.32.26.58.59.76.97.21.47.3.98.28,1.5.04.92-.35,1.8-1.06,2.38-.82.62-1.84.94-2.88.88Zm8.91-.16v-10.88h1.84v10.88h-1.84Zm-3.65-9.52v-1.68h9.14v1.68h-9.14Zm11.54,9.52v-11.2h1.84v11.2h-1.84Zm1.26,0v-1.68h6.27v1.68h-6.27Zm0-4.91v-1.62h5.73v1.62h-5.73Zm0-4.61v-1.68h6.19v1.68h-6.19Zm10.24,5.3v-1.6h2.8c.35,0,.7-.07,1.01-.23.29-.15.53-.37.7-.65.18-.31.27-.66.26-1.01,0-.35-.08-.7-.26-1.01-.17-.28-.41-.5-.7-.65-.32-.16-.66-.24-1.02-.23h-2.8v-1.6h2.9c.66-.01,1.31.14,1.9.43.55.27,1.01.69,1.33,1.21.33.55.5,1.19.49,1.84.02.65-.15,1.29-.49,1.84-.32.52-.79.94-1.34,1.22-.59.3-1.24.44-1.9.43h-2.89Zm-1.26,4.22v-11.2h1.84v11.2h-1.84Z" style="fill: #fff;"/>
      </g>
    </g>
  </g>
</svg>