<?xml version="1.0" encoding="UTF-8"?>
<svg id="a" data-name="Layer 1" xmlns="http://www.w3.org/2000/svg" viewBox="0 0 296 65">
  <g id="b" data-name="Component 10 1">
    <path id="c" data-name="Union 12" d="m145.4,61.99l-6-10.46H26.5c-13.81,0-25-11.19-25-25h0v-.03C1.5,12.69,12.69,1.5,26.5,1.5h243c13.81,0,25,11.19,25,25v.03c0,13.81-11.19,25-25,25h-112.9l-6,10.46c-.82,1.44-2.66,1.94-4.09,1.11-.46-.27-.85-.65-1.11-1.11h0Z" style="fill: #fff; stroke: #ad9d20; stroke-width: 3px;"/>
    <g id="d" data-name="クロノスがお手伝いする" style="isolation: isolate;">
      <g style="isolation: isolate;">
        <path d="m52.26,22.7h-7.26c-.79,2.19-2.11,4.16-3.98,5.92l-1.48-1.3c1.19-1.13,2.15-2.44,2.88-3.91s1.19-3.02,1.38-4.63l2.04.14c-.05.63-.15,1.25-.3,1.88h8.96v.4c0,4.55-1.06,7.92-3.17,10.12-2.11,2.2-5.49,3.49-10.13,3.88l-.3-1.9c3.89-.37,6.71-1.36,8.46-2.97,1.75-1.61,2.71-4.15,2.9-7.63Z" style="fill: #1c1917;"/>
        <path d="m59.8,20.1h15.4v14.4h-15.4v-14.4Zm2.2,12.44h11v-10.48h-11v10.48Z" style="fill: #1c1917;"/>
        <path d="m93.9,19.7c-.4,4.61-1.6,8.11-3.59,10.49-1.99,2.38-5.12,4.08-9.37,5.11l-.76-2.12c2.56-.61,4.62-1.46,6.19-2.55s2.77-2.52,3.61-4.3,1.38-4.06,1.62-6.83l2.3.2Z" style="fill: #1c1917;"/>
        <path d="m101.2,21.94v-1.94h12.6v1.94c-.93,2.17-2.3,4.25-4.1,6.22,2.01,1.84,3.94,3.7,5.78,5.58l-1.46,1.42c-1.92-1.96-3.83-3.82-5.74-5.58-2.33,2.19-4.96,3.99-7.88,5.4l-.94-1.72c2.83-1.44,5.27-3.13,7.32-5.07,2.05-1.94,3.62-4.02,4.7-6.25h-10.28Z" style="fill: #1c1917;"/>
        <path d="m123.76,18.18l1.94.22c-.2,1.29-.44,2.59-.72,3.9h2.99c.33,0,.69.04,1.08.11.39.07.67.14.82.2.15.06.33.21.52.44.19.23.31.44.36.63.05.19.1.52.16,1,.06.48.09.92.09,1.32v1.8c0,2.52-.3,4.4-.91,5.64-.61,1.24-1.4,1.86-2.39,1.86-1.17,0-2.55-.34-4.14-1.02l.64-1.82c1.4.56,2.43.84,3.1.84.19,0,.37-.11.56-.34s.36-.57.52-1.02c.16-.45.29-1.06.38-1.83.09-.77.14-1.64.14-2.61v-1.14c0-.23-.01-.5-.04-.82-.03-.32-.05-.53-.06-.62-.01-.09-.07-.22-.16-.38-.09-.16-.17-.25-.22-.27-.05-.02-.18-.05-.37-.1s-.36-.07-.49-.07h-3c-.95,3.88-2.21,7.66-3.78,11.34l-1.84-.7c1.48-3.48,2.67-7.03,3.56-10.64h-3.3v-1.8h3.74c.35-1.55.62-2.92.82-4.12Zm6.3,1.7l1.62-.84c.8,1.41,1.39,2.5,1.78,3.26l-1.62.78c-.61-1.16-1.21-2.23-1.78-3.2Zm6.78,11.24l-1.9.6c-.76-2.29-1.72-4.71-2.88-7.26l1.84-.78c1.17,2.59,2.15,5.07,2.94,7.44Zm-3.82-11.96l1.66-.86c.68,1.2,1.29,2.31,1.82,3.32l-1.66.8c-.56-1.07-1.17-2.15-1.82-3.26Z" style="fill: #1c1917;"/>
        <path d="m139.9,21h4.8v-2.6h2v2.6h4.7v1.7h-4.7v2.96c.48-.04.98-.06,1.5-.06,1.99,0,3.58.45,4.79,1.36,1.21.91,1.81,1.99,1.81,3.24,0,1.55-.48,2.77-1.44,3.66-.96.89-2.38,1.44-4.26,1.64l-.4-1.8c1.39-.16,2.41-.52,3.06-1.07.65-.55.98-1.33.98-2.33,0-.75-.41-1.4-1.24-1.96-.83-.56-1.93-.84-3.3-.84-.55,0-1.05.02-1.5.06v4.64c0,1.12-.22,1.9-.67,2.34-.45.44-1.22.66-2.33.66-1.24,0-2.32-.4-3.23-1.21-.91-.81-1.37-1.77-1.37-2.89s.49-2.19,1.47-3.13c.98-.94,2.36-1.61,4.13-2.01v-3.26h-4.8v-1.7Zm4.8,6.88c-1.17.29-2.07.73-2.68,1.31-.61.58-.92,1.22-.92,1.91,0,.6.25,1.14.75,1.63.5.49,1.05.73,1.65.73.45,0,.77-.1.94-.29.17-.19.26-.54.26-1.03v-4.26Zm7.48-6.54l1.42-1.12c1.17,1.4,2.23,2.86,3.18,4.38l-1.52.98c-.96-1.52-1.99-2.93-3.08-4.24Z" style="fill: #1c1917;"/>
      </g>
      <g style="isolation: isolate;">
        <path d="m158.4,28.7h8.34v-2.7h-7.34v-1.8h7.34v-2.52c-2,.17-4.18.26-6.54.26l-.1-1.84c5.65,0,10.55-.53,14.68-1.6l.44,1.84c-1.79.47-3.88.85-6.28,1.14v2.72h6.66v1.8h-6.66v2.7h7.66v1.84h-7.66v2.66c0,1.31-.15,2.12-.44,2.43s-1.04.47-2.24.47c-.77,0-1.95-.03-3.52-.1l-.08-1.84c1.47.07,2.49.1,3.08.1.47,0,.75-.05.85-.16.1-.11.15-.41.15-.9v-2.66h-8.34v-1.84Z" style="fill: #1c1917;"/>
        <path d="m182,23.8v12.5h-2.1v-8.86c-.41.71-.87,1.37-1.38,2l-.86-2.3c1.85-2.48,3.12-5.45,3.8-8.92l1.98.36c-.31,1.87-.79,3.61-1.44,5.22Zm9.36,4.86l1.88-.76c1.35,2.47,2.53,5,3.56,7.6l-1.94.74c-.07-.16-.33-.79-.8-1.9-3.72.55-7.37.97-10.96,1.26l-.16-1.84c.85-.08,1.5-.14,1.94-.18.83-2.32,1.62-4.83,2.38-7.52h-4.12v-1.86h13.36v1.86h-6.96c-.76,2.73-1.51,5.17-2.26,7.3,1.19-.12,3.19-.36,6.02-.72-.6-1.31-1.25-2.63-1.94-3.98Zm-6.86-7.66v-1.86h10.96v1.86h-10.96Z" style="fill: #1c1917;"/>
      </g>
      <g style="isolation: isolate;">
        <path d="m202.7,20.82c-.6,2.11-.9,4.33-.9,6.68,0,1.6.27,2.95.82,4.05.55,1.1,1.09,1.65,1.64,1.65.37,0,.86-.41,1.46-1.22.6-.81,1.19-1.97,1.78-3.48l1.9.74c-.67,1.89-1.5,3.38-2.49,4.45-.99,1.07-1.93,1.61-2.81,1.61-1.09,0-2.1-.76-3.02-2.28-.92-1.52-1.38-3.36-1.38-5.52,0-2.49.32-4.8.96-6.92l2.04.24Zm8.42.24l1.92-.6c.89,1.73,1.58,3.7,2.05,5.91.47,2.21.71,4.48.71,6.83h-2.1c0-2.17-.23-4.32-.68-6.44-.45-2.12-1.09-4.02-1.9-5.7Z" style="fill: #1c1917;"/>
        <path d="m229.2,30.06c-.67.69-1.63,1.04-2.9,1.04-1.16,0-2.12-.37-2.87-1.11-.75-.74-1.13-1.67-1.13-2.79s.38-2.05,1.13-2.79c.75-.74,1.71-1.11,2.87-1.11.88,0,1.67.2,2.36.6h.04v-1.6h-9.8v-1.7h9.8v-2.4h2v2.4h5.4v1.7h-5.4v4.16c.29.76.44,1.64.44,2.64,0,2-.55,3.52-1.66,4.57-1.11,1.05-2.93,1.72-5.46,2.03l-.32-1.88c1.92-.24,3.29-.64,4.1-1.2.81-.56,1.29-1.38,1.42-2.46,0-.01,0-.03,0-.04,0-.01,0-.03,0-.04l-.04-.02Zm-4.21-4.36c-.43.4-.65.9-.65,1.5s.22,1.1.65,1.5c.43.4.99.6,1.67.6s1.21-.2,1.64-.6c.43-.4.64-.9.64-1.5s-.21-1.1-.64-1.5c-.43-.4-.97-.6-1.64-.6s-1.24.2-1.67.6Z" style="fill: #1c1917;"/>
        <path d="m250.22,33.4c1.79-.55,2.68-1.71,2.68-3.5,0-1.05-.33-1.82-1-2.31-.67-.49-1.79-.73-3.36-.73-2.68,0-5.43.74-8.24,2.22l-.76-1.46,10.08-6.24v-.04h-8.68v-1.74h12.4l.06,1.78-7.16,4.12.02.02c1.05-.21,2.05-.32,3-.32,2.01,0,3.5.37,4.45,1.12.95.75,1.43,1.86,1.43,3.34,0,1.87-.67,3.31-2.02,4.32-1.35,1.01-3.27,1.52-5.78,1.52-1.93,0-3.38-.29-4.35-.88s-1.45-1.43-1.45-2.52c0-.84.4-1.55,1.2-2.13s1.93-.87,3.4-.87,2.64.26,3.31.77c.67.51,1.01,1.26,1.01,2.23,0,.4-.08.83-.24,1.3Zm-2.04.32c.28-.55.42-1.02.42-1.42,0-1-.85-1.5-2.54-1.5-.76,0-1.35.13-1.77.39-.42.26-.63.56-.63.91,0,.49.3.89.89,1.19.59.3,1.52.45,2.79.45.39,0,.67,0,.84-.02Z" style="fill: #1c1917;"/>
      </g>
    </g>
  </g>
</svg>