<svg id="Group_5376" data-name="Group 5376" xmlns="http://www.w3.org/2000/svg" xmlns:xlink="http://www.w3.org/1999/xlink" width="381.467" height="99.689" viewBox="0 0 381.467 99.689">
  <defs>
    <clipPath id="clip-path">
      <rect id="Rectangle_1376" data-name="Rectangle 1376" width="381.467" height="99.689" fill="none"/>
    </clipPath>
  </defs>
  <g id="Group_1794" data-name="Group 1794" clip-path="url(#clip-path)">
    <path id="Path_1329" data-name="Path 1329" d="M133.145,41.408a28.533,28.533,0,0,0-22.7,11.413l1.067-12.2h-7.981l-3.61,41.259H107.9l1.3-14.9c3.043-8.489,10.748-17.518,23.3-17.518,11.715,0,17.228,7.777,15.941,22.488-1.337,15.277-11.472,22.7-30.986,22.7h-7.855l-.711,8.125h7.425c24.756,0,38.773-10.66,40.538-30.828,1.7-19.408-6.947-30.54-23.719-30.54" transform="translate(-15.802 -6.424)" fill="#1c1917"/>
    <path id="Path_1330" data-name="Path 1330" d="M287.47,94.391c-3.563,0-7.131-1.886-6.572-15.874.107-2.872.28-5.645.527-8.474a250.348,250.348,0,0,1,4-26.958l.185-.935H277.12l-.151.746A255.033,255.033,0,0,0,272.9,70.544l-.081.93c-.906,10.355-2.791,31.9,12.936,31.9,7.211,0,15.942-5.753,21-11.1l.224-.237L308.1,79.256l-1.765,2.429c-3.854,5.306-12.9,12.707-18.865,12.707" transform="translate(-43.052 -6.666)" fill="#1c1917"/>
    <path id="Path_1331" data-name="Path 1331" d="M341.625,93.75c.8-21.4-1.93-37.24-7.683-44.594l-.226-.289h-9.478l1.113,1.4c5.774,7.254,8.54,22.727,7.786,43.57l-.029.8h8.483Z" transform="translate(-51.276 -7.728)" fill="#1c1917"/>
    <path id="Path_1332" data-name="Path 1332" d="M52.844,10.458l-.01.118c-.267,3.048-2.249,4.53-5.23,4.53-2.795,0-4.59-1.448-4.387-3.756.2-2.324,2.221-3.823,5.268-3.823a14.029,14.029,0,0,1,2.407.22L51.57,0h2.189l-.236,2.695h5.54l-.178,2.038h-5.54l-.311,3.553A27.123,27.123,0,0,1,58.5,10.93l-.222,2.542a25.852,25.852,0,0,0-5.429-3.014M50.712,9.8a11.033,11.033,0,0,0-2.449-.3c-1.667,0-2.782.606-2.88,1.734-.109,1.247,1.021,1.8,2.386,1.8,1.65,0,2.711-.589,2.906-2.813Z" transform="translate(-6.832)" fill="#1c1917"/>
    <path id="Path_1333" data-name="Path 1333" d="M227.47,8.135c-2.085.168-4.033,1.449-4.152,2.795-.126,1.449,1.327,1.971,3.854,1.971a22.149,22.149,0,0,0,2.814-.219l-.193,2.207a27.711,27.711,0,0,1-3.115.168c-4.345,0-5.955-1.8-5.779-3.823a4.469,4.469,0,0,1,1.954-3.065l-5.81.37.167-1.9s1.856-.236,2.031-.3c1.286-.657,6.824-3.705,6.824-3.705h-6.383L219.865.54h10.729l-.157,1.785-7.211,3.891,8.925-.371-.184,2.1Z" transform="translate(-34.324 -0.085)" fill="#1c1917"/>
    <g id="Group_5377" data-name="Group 5377">
      <path id="Path_1334" data-name="Path 1334" d="M377.777,15l.186-2.139c4.767-.2,7.548-1.566,7.94-6.062.162-1.836-.28-4.3-2.555-4.3-2.526,0-4.61,3.621-5.563,7.764h-2.1c.257-2.543.643-6.2,1.082-9.666H379c-.179.91-.357,2.357-.517,3.419.325-.641,2.066-3.6,5.334-3.6,3.418,0,4.754,3.015,4.464,6.332-.471,5.373-3.567,8.235-10.506,8.253" transform="translate(-59.411 -0.066)" fill="#ad9d19"/>
      <path id="Path_1335" data-name="Path 1335" d="M403.376,11.525c-.237,2.712-1.762,3.974-4.608,3.974-2.577,0-4.064-1.3-3.885-3.335.18-2.054,2-3.385,4.675-3.385a11.183,11.183,0,0,1,1.988.185l.585-6.685h2.055l-.207,2.358h4.783L408.6,6.524h-4.783l-.258,2.947a21.384,21.384,0,0,1,4.7,2.291l-.207,2.374a23.828,23.828,0,0,0-4.672-2.611m-2-.623a8.446,8.446,0,0,0-2.049-.253c-1.381,0-2.284.505-2.366,1.448-.092,1.045.83,1.483,1.958,1.483,1.381,0,2.269-.522,2.428-2.341Z" transform="translate(-62.445 -0.361)" fill="#ad9d19"/>
      <path id="Path_1336" data-name="Path 1336" d="M425.176,15.011a83.534,83.534,0,0,0-7.229-5.726c-.9-.657-1.962-1.246-1.859-2.425.086-.977.968-1.633,2.441-2.308,2.632-1.2,6.216-2.712,11-4.412l-.208,2.375c-3.809,1.381-7.034,2.627-9.717,3.84-.385.168-.67.354-.684.505-.019.219.3.455.535.623a90.16,90.16,0,0,1,9.379,7.528Z" transform="translate(-65.8 -0.022)" fill="#ad9d19"/>
      <path id="Path_1337" data-name="Path 1337" d="M436.771,36.117H388.117l.906-10.357h-9.26l-.907,10.357H355.62l-.788,9.007h23.236l-.081.928c-1.961,22.409-11.282,38.78-26.955,47.343l-.444.242-.877,10.029,1.227-.519c20.365-8.644,33.94-29.988,36.311-57.094l.082-.928h33.677l-3.2,36.541a13.9,13.9,0,0,1-13.4,12.627H388.837l-.781,8.925h16a22.483,22.483,0,0,0,22.791-20.88L430.1,45.12c.647-7.394,6.673-9,6.673-9" transform="translate(-55.304 -4.074)" fill="#ad9d19"/>
    </g>
    <path id="Path_1338" data-name="Path 1338" d="M2.872,109.544H51.029l1.827-20.879H4.7Zm9.971-13.892H43.572l-.611,6.988H12.232Z" transform="translate(-0.454 -14.022)" fill="#1c1917"/>
    <path id="Path_1339" data-name="Path 1339" d="M0,83.093H66.006L64.5,100.352a2.6,2.6,0,0,1-2.747,2.526H53.835l-.715,8.167h10.1c5.816,0,9.734-3.484,10.224-9.093L75.1,83.093h2.441l.685-7.83H.685Z" transform="translate(0 -11.902)" fill="#1c1917"/>
    <path id="Path_1340" data-name="Path 1340" d="M87.107,30.307H47.8l.4-4.546H39.187l-.4,4.546H5.281L3.735,47.987h8.5l-.214,2.441H34.9c-3.873,4.235-12.834,8.335-27.731,8.335H6.328l-.67,7.661H6.5c14.443,0,27.133-3.976,34.241-10.682,5.4,6.8,17.355,10.682,33.028,10.682h.842l.67-7.661h-.842c-14.516,0-23.95-2.947-26.843-8.335H70.958L71.18,47.9h8.5l.752-8.591c.647-7.395,6.673-9,6.673-9M37.6,42.936H13.1l.428-4.884h24.5Zm33.761,0H46.441l.427-4.884H71.789Z" transform="translate(-0.591 -4.074)" fill="#1c1917"/>
    <path id="Path_1341" data-name="Path 1341" d="M195.448,58.011,176.01,50.2l-.769,8.789,19.423,7.993Z" transform="translate(-27.713 -7.939)" fill="#1c1917"/>
    <path id="Path_1342" data-name="Path 1342" d="M197.625,33.11,178.187,25.3l-.775,8.868,19.406,8.177Z" transform="translate(-28.056 -4.001)" fill="#1c1917"/>
    <path id="Path_1343" data-name="Path 1343" d="M213.693,82.265h-7.6l-.132.771c-1.428,8.322-5.115,20.218-9.4,26.854l-.808,1.253h8.47l.265-.508c4.139-7.971,6.838-16.176,9.031-27.438Z" transform="translate(-30.956 -13.01)" fill="#1c1917"/>
    <path id="Path_1344" data-name="Path 1344" d="M194.98,76.764H186.3l-.14.761c-1.992,10.836-7.455,19.658-14.614,23.6l-.441.242-.916,10.462,1.236-.537c11.475-5,20.434-17.871,23.384-33.6Z" transform="translate(-26.914 -12.14)" fill="#1c1917"/>
    <path id="Path_1345" data-name="Path 1345" d="M250.343,82.265l3.017,28.877H260.8l-3.016-28.877Z" transform="translate(-39.59 -13.01)" fill="#1c1917"/>
    <path id="Path_1346" data-name="Path 1346" d="M236.693,82.265l1.765,28.877h7.514l-1.854-28.877Z" transform="translate(-37.431 -13.01)" fill="#1c1917"/>
    <path id="Path_1347" data-name="Path 1347" d="M255.709,33.411l.692-.133.008-.083c.647-7.395,6.672-9,6.672-9h-.012L257.1,25.334l-1.019.2c-14.285,2.726-25.793,2.847-48.414,2.847h-.842l-.685,7.828h.842c7.093,0,12.783,0,17.863-.07a45.776,45.776,0,0,1-2.169,7.9H203.093l-.706,8.083h15.946a29.183,29.183,0,0,1-16.325,11.4l-.633.169-.817,9.331,1.1-.3a43.147,43.147,0,0,0,26.1-20.6h4.385c3.729,10.676,11.136,17.606,22.023,20.6L255.2,73l.813-9.3-.578-.182c-6.632-2.092-11.318-5.828-14.284-11.4h15.876l.707-8.083H231.381a47.893,47.893,0,0,0,2.012-8.116,144.492,144.492,0,0,0,22.316-2.508" transform="translate(-31.717 -3.826)" fill="#1c1917"/>
    <path id="Path_1348" data-name="Path 1348" d="M219.49,99.579a2.33,2.33,0,0,1-2.4,2.357h-4.8l-.759,8.672h5.808c5.886,0,9.559-3.406,10.08-9.345l2.563-29.3h-8.082Z" transform="translate(-33.453 -11.381)" fill="#1c1917"/>
  </g>
</svg>
